<svg xmlns="http://www.w3.org/2000/svg" viewBox="0 0 572.33 692.15"><title>4</title><path d="M569.82,692.15c-9.79-5.12-20.68-6.87-31.12-9.91-100.65-29.34-201.21-58.93-301.34-90-30.82-9.57-61.4-20-92.57-28.57-26.1-7.2-52.25-15-76.55-27.56C44.75,524,26.9,506.11,15.4,482.39,6.69,464.43.46,445.6,0,425.26c-.6-28.33,8.82-53.1,25.5-75.68C39.46,330.72,57.65,317,77.21,304.76c20.2-12.64,40.5-25.12,60.74-37.69q45.18-28,90.34-56.09c25.76-15.95,51.62-31.74,77.39-47.68,30.16-18.66,60.25-37.45,90.41-56.12q44-27.23,88.05-54.31c27.17-16.78,54.28-33.63,81.52-50.28,1.79-1.09,3.52-3.16,6.16-2.44q0,341.51-.12,683C571.69,686.08,574,689.93,569.82,692.15Z" style="fill:#70cf1d"/></svg>