<svg xmlns="http://www.w3.org/2000/svg" viewBox="0 0 69.98 32.06"><defs><style>.cls-1{fill:#e6e7e8;}</style></defs><title>Asset 33</title><g id="Layer_2" data-name="Layer 2"><g id="Layer_1-2" data-name="Layer 1"><path class="cls-1" d="M13.49,7.73c-1.43.14-2.63.54-3.58-1.15C8.72,4.47,5.27,4.78,4.08,7A7.74,7.74,0,0,0,4,14.35c1.19,2.38,4.73,2.69,5.84.43.9-1.82,2.11-1.54,3.53-1.43a5.84,5.84,0,0,1-4.52,5.28c-3.08.73-6.23-.41-7.56-2.94a10.12,10.12,0,0,1,0-9.82c1.44-2.72,4-3.46,6.88-3.14a5.74,5.74,0,0,1,5.19,4A5.55,5.55,0,0,1,13.49,7.73Z"/><path class="cls-1" d="M65.86,13.44H70c.27-3.84-1.48-6.26-4.6-6.66S59.52,8.11,59,11.08c-.7,4.14.71,6.81,4,7.56,3.13.72,5.93-.64,6.64-3.3-1.22-.16-2.33-.44-3.39.67a2.52,2.52,0,0,1-3.3.2,2.26,2.26,0,0,1-1.12-2.77ZM64.19,9.07a2.33,2.33,0,0,1,2.71,2.48h-5A2.19,2.19,0,0,1,64.19,9.07Z"/><path class="cls-1" d="M26.28,18.77c-3.59,0-5.77-2.29-5.76-6s2.25-6,5.8-6,5.87,2.38,5.83,6.14S29.91,18.78,26.28,18.77Zm3-5.69a14.53,14.53,0,0,0-.19-1.67,2.74,2.74,0,0,0-3-2.34,2.69,2.69,0,0,0-2.59,2.6,9.79,9.79,0,0,0,.31,3.19,2.6,2.6,0,0,0,3.08,1.54C28.32,16.13,29.36,15.42,29.27,13.08Z"/><path class="cls-1" d="M26.7,31.94c0-1.3,0-2.49,1.85-2.49,1.4,0,1.62-1.12,1.84-2.12.87-3.92,1.69-7.86,2.53-11.8.47-2.22.92-4.44,1.4-6.66S35,6.64,37.46,7.19c-.51,2.39-1,4.79-1.52,7.19-.95,4.45-1.88,8.89-2.84,13.33C32.35,31.16,30.33,32.49,26.7,31.94Z"/><path class="cls-1" d="M46.35,7.11h2.83c0,3.56,0,7.06,0,10.56,0,.25-.63.72-.92.68a11.75,11.75,0,0,1-2.2-.71,15.08,15.08,0,0,1-3.48,1,3,3,0,0,1-3.39-3.05c-.15-2.77,0-5.56,0-8.43H41.8c0,2.18,0,4.29,0,6.39s.57,2.82,2,2.84,2.47-1,2.51-2.87C46.38,11.39,46.35,9.28,46.35,7.11Z"/><path class="cls-1" d="M18.38,18.23c-2.61.39-2.61.39-2.61-2,0-3.78,0-7.55,0-11.33V3.1h2.61Z"/><path class="cls-1" d="M51.81,7.11h2.3l.45,1.49c1.09-1,1.93-2.15,3.48-1.74.42,2.31.42,2.31-1.63,2.86a2.44,2.44,0,0,0-1.85,2.55c-.06,1.65-.07,3.3,0,4.95,0,1-.42,1.24-1.3,1.2s-1.45,0-1.44-1.08C51.83,14,51.81,10.65,51.81,7.11Z"/><path class="cls-1" d="M38.77.33c-.16,3-.43,3.26-2.86,2.77C35.58-.31,36.67-.31,38.77.33Z"/></g></g></svg>