<svg xmlns="http://www.w3.org/2000/svg" viewBox="0 0 106.43 26.83"><defs><style>.cls-1{fill:#e6e7e8;}</style></defs><title>Asset 31</title><g id="Layer_2" data-name="Layer 2"><g id="Layer_1-2" data-name="Layer 1"><path class="cls-1" d="M6.52,26a2.76,2.76,0,0,0,1.86.3,2.31,2.31,0,0,0,1.82-2.68,8.56,8.56,0,0,0-.49-1.71A3.33,3.33,0,0,0,7,19.6a2.82,2.82,0,0,1,2.52,1,6.8,6.8,0,0,1,1,1.65c.2.49.5.25.76.24s.28-.27.26-.48l-.63-4.9c-.05-.31-.09-.62-.13-.92s.07-.42.37-.43.83-.09,1.36-.14l-2.09-1.77.07-.09c.22.14.44.3.67.42.76.39,1.51.8,2.29,1.12A2.55,2.55,0,0,0,16.08,15c.39-.3.76-.64,1.16-1l-.24.64a2.55,2.55,0,0,0,.74.11c.38-.05.93-.06,1.09-.3a4.1,4.1,0,0,0,.53-1.59,3.08,3.08,0,0,0-.77-2.49,2.94,2.94,0,0,1-.81-1.94,3.23,3.23,0,0,0-1-2.19c-.39-.42-.8-.83-1.17-1.28l1.19.84a3.42,3.42,0,0,0,0-.65c-.11-.59-.25-1.18-.38-1.77a2.55,2.55,0,0,1,0-.74,5.83,5.83,0,0,1,.25.7,4.38,4.38,0,0,0,1.69,2.58,1,1,0,0,0,.8.18c.33-.13.23-.5.14-.79A5.77,5.77,0,0,0,16.9,2.1a1.31,1.31,0,0,0-1.79.31l-.32.45a1.86,1.86,0,0,1-1.8.91,7,7,0,0,0-.8,0l.13-.39-.75.3.09-.37-.55.31.11-.33-.08-.09a6.17,6.17,0,0,1-.81.56,5,5,0,0,1-1.73.7A1.92,1.92,0,0,1,7,3.48a1,1,0,0,0-1.31-.41c-.67.24-1.32.53-2,.81l.15.23-.45.28.2.15-1,.83L3,5.45c-.82,1-.3,1.75.31,2.48A5.82,5.82,0,0,0,4.69,9.14,1.75,1.75,0,0,0,7.3,7.94a6.59,6.59,0,0,0-.11-1.77c-.08-.51-.25-1-.29-1.56.25.67.53,1.34.73,2a9.51,9.51,0,0,1,.31,1.59,1.48,1.48,0,0,1-1.5,1.69A10.88,10.88,0,0,1,5,9.81c-.21,1.26.41,2.46.54,3.8l.24-.22L6,14l.22-.37.59,1L7,14.4a2.74,2.74,0,0,1,.13,3.33c-.45.56-1,1-1.54,1.54a11.53,11.53,0,0,0-1.48,1.57,1.7,1.7,0,0,0,.37,2.55c.26.19.5.42.75.63l-.07.17-2.39.36L0,2.55,22.06,0l1.3,13.36.68,0,1.07,10.41L22,24.11l-5.41.65-4.4.54c-.25,0-.35-.07-.37-.32-.06-.56-.16-1.12-.24-1.65-.1,0-.12,0-.15,0-.72.09-.69.1-.77.82a6.39,6.39,0,0,1-.35,1.57C9.8,27,7.25,27.27,6.52,26Zm5.8-1.2,3.39-.61,8.13-1.45c.25-.05.32-.17.3-.41q-.34-3.91-.66-7.82c0-.28-.1-.36-.39-.3-1.86.34-3.72.66-5.57,1a2.3,2.3,0,0,0-1.14.37,2.53,2.53,0,0,1-2.66.65,2.9,2.9,0,0,0-1.46-.13c-1.2.24-1-.1-.85,1.15.16,1.57.37,3.13.56,4.7C12.09,22.85,12.2,23.78,12.32,24.77Z"/><path class="cls-1" d="M39.92,11.92a4.25,4.25,0,0,0-3.33-4A7.41,7.41,0,0,0,35,7.76c-1.62,0-3.24,0-4.87,0-.36,0-.45.11-.45.46,0,1.74,0,3.48,0,5.21V17.9c0,1.17,0,1.18,1.17,1.17,1.65,0,3.31,0,5-.11a4.11,4.11,0,0,0,3.75-3.07A9.51,9.51,0,0,0,39.92,11.92ZM37.69,15a3,3,0,0,1-3.06,2.31c-.83,0-1.66,0-2.48,0-.32,0-.42-.11-.42-.42,0-1.16,0-2.33,0-3.5s0-2.31,0-3.46c0-.35.1-.48.46-.47,1,0,2-.05,3,.09a2.82,2.82,0,0,1,2.69,2.78A6.31,6.31,0,0,1,37.69,15Z"/><path class="cls-1" d="M31.73,13.41c0-1.15,0-2.31,0-3.46,0,1.15,0,2.31,0,3.46s0,2.34,0,3.5C31.74,15.75,31.73,14.58,31.73,13.41Z"/><path class="cls-1" d="M82.38,11.57a4,4,0,0,0-3.53-3.64,30.29,30.29,0,0,0-3.57-.25v.07c-.87,0-1.74,0-2.61,0-.31,0-.42.09-.42.41V18.66c0,.32.1.42.42.42,1.69,0,3.39.05,5.08,0a4.39,4.39,0,0,0,4.46-3.46A9.1,9.1,0,0,0,82.38,11.57Zm-2.21,3.6a3,3,0,0,1-2.93,2.15c-.86,0-1.73,0-2.6,0-.29,0-.36-.11-.36-.37q0-3.56,0-7.09c0-.31.11-.4.4-.38H76v0a16.51,16.51,0,0,1,2,.16A2.8,2.8,0,0,1,80.38,12,6.28,6.28,0,0,1,80.17,15.17Z"/><path class="cls-1" d="M95.12,11.16a4.24,4.24,0,0,0-3.28-3.25c-.67-.16-1.36-.21-1.88-.29l-1.58.14a4.47,4.47,0,0,0-4.06,3.43,8,8,0,0,0,.15,4.66A4.51,4.51,0,0,0,88,19a9.18,9.18,0,0,0,3.18.07,4.45,4.45,0,0,0,3.94-3.55A8.66,8.66,0,0,0,95.12,11.16Zm-2.05,3.9a3,3,0,0,1-2.88,2.34,6.36,6.36,0,0,1-1.57-.12,3,3,0,0,1-2.36-2.7c-.06-.4-.08-.79-.13-1.29a13.51,13.51,0,0,1,.2-1.38,3,3,0,0,1,2.9-2.48,5.63,5.63,0,0,1,1.69.12,2.94,2.94,0,0,1,2.28,2.72A6.42,6.42,0,0,1,93.07,15.06Z"/><path class="cls-1" d="M106.42,9.93c-.77-.16-1.5-.35-2.23-.47a6.37,6.37,0,0,0-2.71.17,3.14,3.14,0,0,0-2.39,3,8.26,8.26,0,0,0,.11,2,3.26,3.26,0,0,0,3.32,2.76,10.76,10.76,0,0,0,1.49-.1.34.34,0,0,0,.35-.38c0-.71,0-1.43,0-2.14,0-.27-.11-.34-.35-.33-.52,0-1,0-1.63,0,.22-.58.42-1.12.64-1.64,0-.08.22-.13.34-.13h2.73c.26,0,.34.1.34.36,0,1.75,0,3.5,0,5.25a.56.56,0,0,1-.31.41,9.51,9.51,0,0,1-4.17.41,8,8,0,0,1-1.62-.32,4.46,4.46,0,0,1-3.06-3.18,8.55,8.55,0,0,1-.13-4,4.49,4.49,0,0,1,3.81-3.71,10.53,10.53,0,0,1,5,.17c.35.09.53.24.49.64S106.42,9.52,106.42,9.93Z"/><path class="cls-1" d="M70.7,19.07c-.72,0-1.37,0-2,0-.11,0-.25-.17-.31-.29-.38-.81-.76-1.62-1.12-2.44A.52.52,0,0,0,66.7,16c-.91,0-1.83,0-2.74,0l-.52,0c.23-.56.41-1.06.63-1.55a.5.5,0,0,1,.35-.16H66c.15,0,.3,0,.54,0L64.62,9.8c-.12.26-.2.41-.26.56-1.14,2.78-2.28,5.55-3.4,8.33a.51.51,0,0,1-.56.39c-.53,0-1.07,0-1.66,0a3.54,3.54,0,0,1,.16-.44q2.24-5.23,4.46-10.48A.55.55,0,0,1,64,7.74a7.82,7.82,0,0,0,1.28,0c.4,0,.57.13.72.47,1.39,3.23,2.8,6.45,4.2,9.67Z"/><path class="cls-1" d="M48,14.19,46.06,9.8c-.13.28-.22.45-.29.63-1.12,2.73-2.25,5.46-3.35,8.2a.58.58,0,0,1-.65.45c-.51,0-1,0-1.59,0,.06-.16.09-.28.14-.39L44.79,8.16a.55.55,0,0,1,.62-.42c.5,0,1,0,1.49,0a.57.57,0,0,1,.42.26q2.37,5.4,4.72,10.82a1.19,1.19,0,0,1,.05.23c-.68,0-1.34,0-2,0-.1,0-.23-.19-.29-.32-.37-.78-.75-1.56-1.09-2.36a.59.59,0,0,0-.65-.4c-1,0-2.07,0-3.2,0,.24-.58.44-1.11.67-1.61,0-.09.24-.13.37-.13h1.54C47.59,14.23,47.74,14.21,48,14.19Z"/><path class="cls-1" d="M54.34,9.49H51.65c-.57,0-.57,0-.57-.58,0-1.16,0-1.16,1.15-1.16,2.32,0,4.64,0,7,0,.4,0,.53.12.49.51a3.22,3.22,0,0,0,0,.76c0,.37-.08.51-.47.49-.75,0-1.51,0-2.26,0h-.54v.57c0,2.85,0,5.69,0,8.54,0,.37-.1.51-.48.48a7.36,7.36,0,0,0-1.15,0c-.36,0-.46-.1-.46-.46,0-2.84,0-5.69,0-8.54Z"/><path class="cls-1" d="M12.27,8c.09.24.15.45.24.64a.77.77,0,0,1-.57,1.18c-.29.07-.56.21-.85.25a.62.62,0,0,1-.5-.13,1.07,1.07,0,0,1,.23-1.66A2,2,0,0,1,12.27,8Z"/><path class="cls-1" d="M17.8,11.37c.43.06.58.25.47.66,0,0,0,0,0,0-.21.42-.29,1-.84,1.09a1.89,1.89,0,0,1-1.63-.68.39.39,0,0,1,.2-.67C16.58,11.64,17.19,11.52,17.8,11.37Z"/><path class="cls-1" d="M16.14,7.32a1.09,1.09,0,0,1,1.23,1.4c-.06.24-.68.28-.91,0A1.15,1.15,0,0,1,16.14,7.32Z"/><path class="cls-1" d="M23.33,22,13,23.85a1.45,1.45,0,0,1,.19-1.34c.5-.67.94-1.39,1.39-2.1a.37.37,0,0,1,.52-.19c.45.16.93.26,1.38.42a.5.5,0,0,0,.72-.27c.43-.78.91-1.54,1.37-2.31l.25-.4,2.24,1.46,1.6-3.31.08,0Z"/></g></g></svg>