<svg xmlns="http://www.w3.org/2000/svg" viewBox="0 0 93.57 19.34"><defs><style>.cls-1{fill:#e6e7e8;}</style></defs><title>Asset 32</title><g id="Layer_2" data-name="Layer 2"><g id="Layer_1-2" data-name="Layer 1"><path class="cls-1" d="M18.82,10A9.41,9.41,0,1,1,0,9.67,9.67,9.67,0,0,1,9.62,0a10,10,0,0,1,6.72,2.89L14.78,4.81A8.3,8.3,0,0,0,9.62,2.58,7.15,7.15,0,0,0,2.53,9.72,6.88,6.88,0,0,0,9.36,16.8,6.75,6.75,0,0,0,16,11.06H8.27V8.79H18.82Zm9-1.29H26.36a2.89,2.89,0,0,0-2.89,2.89v7.5H20.88V6.31H23V7.39a4.4,4.4,0,0,1,3.05-1.08h2.8Zm14,10.39H39.65V17.52a6.25,6.25,0,0,1-7,1.24A6.63,6.63,0,0,1,35.26,6.05a6.17,6.17,0,0,1,4.39,1.81V6.31h2.22V19.13Zm-2.64-5.48a4,4,0,1,0-3.2,3,4,4,0,0,0,3.2-3ZM47,5.58v.73h4.08V8.58H47v10.6H44.46V5.63A4.29,4.29,0,0,1,49,1.14h3.1l-1,2.43H49a2,2,0,0,0-2,2ZM64.67,19.13H62.5V17.52a6.25,6.25,0,0,1-7,1.24A6.63,6.63,0,0,1,58.1,6.05a6.17,6.17,0,0,1,4.4,1.81V6.31h2.22V19.13ZM62,13.65a4,4,0,1,0-3.2,3,4,4,0,0,0,3.2-3Zm16.39-2.12v7.6H75.84v-7.6a2.9,2.9,0,1,0-5.79,0v7.6H67.46V6.31h2.12V7.39A5.25,5.25,0,0,1,73,6.1a5.39,5.39,0,0,1,5.38,5.43Zm15.09,7.6H91.34V17.52a6.25,6.25,0,0,1-7,1.24A6.63,6.63,0,0,1,87,6.05a6.13,6.13,0,0,1,4.39,1.81V6.31h2.23V19.13Zm-2.63-5.48a4,4,0,1,0-3.21,3,4,4,0,0,0,3.21-3Z"/></g></g></svg>