<svg xmlns="http://www.w3.org/2000/svg" viewBox="0 0 120.4 22.13"><defs><style>.cls-1{fill:#e6e7e8;}</style></defs><title>Asset 27</title><g id="Layer_2" data-name="Layer 2"><g id="Layer_1-2" data-name="Layer 1"><path class="cls-1" d="M42.3,17.25,39,10.36A43,43,0,0,1,37.15,6l-.07.07c.11,1.23.13,2.77.15,4.07l.08,7.09H34.92V2.58h2.76l3.56,7.16a26,26,0,0,1,1.5,3.77l.07-.06c-.07-.74-.21-2.84-.21-4.18l-.05-6.69h2.32V17.24Z"/><path class="cls-1" d="M49.23,12.52v.16c0,1.49.55,3.05,2.65,3.05a4,4,0,0,0,2.67-1.05l.91,1.42a5.86,5.86,0,0,1-3.86,1.42c-3,0-4.94-2.19-4.94-5.62A5.9,5.9,0,0,1,48,7.7a4.1,4.1,0,0,1,3.29-1.44,4.16,4.16,0,0,1,2.94,1.1c.93.85,1.4,2.17,1.4,4.67v.48ZM51.28,8c-1.31,0-2,1-2,2.77h4C53.21,9.07,52.45,8,51.28,8Z"/><path class="cls-1" d="M68,17.29H65.84l-1.31-4.94c-.34-1.27-.7-2.93-.7-2.93h0a30.77,30.77,0,0,1-.69,3l-1.3,4.84H59.61L56.68,6.67,59,6.35l1.17,5.2c.3,1.33.55,2.81.55,2.81h.07a28.35,28.35,0,0,1,.61-2.88l1.38-5h2.29l1.2,4.83c.45,1.74.68,3.06.68,3.06H67s.25-1.63.53-2.89l1.1-5h2.41Z"/><path class="cls-1" d="M84.64,17.25,83.36,15a16,16,0,0,0-2.5-3.63,1.23,1.23,0,0,0-1-.44v6.33h-2.4V2.58H82c3.28,0,4.76,1.91,4.76,4.2a3.74,3.74,0,0,1-3.64,4,11.37,11.37,0,0,1,2.27,2.93l2.16,3.52Zm-3.4-12.7H79.91V9.2h1.24a3.18,3.18,0,0,0,2.4-.62A2.48,2.48,0,0,0,84.2,6.8c0-1.48-.79-2.25-3-2.25Z"/><path class="cls-1" d="M90.74,12.52v.16c0,1.49.55,3.05,2.65,3.05a4,4,0,0,0,2.67-1.05L97,16.1a5.86,5.86,0,0,1-3.86,1.42c-3,0-4.94-2.19-4.94-5.62a5.9,5.9,0,0,1,1.34-4.2A4.1,4.1,0,0,1,92.8,6.26a4.16,4.16,0,0,1,2.94,1.1c.93.85,1.4,2.17,1.4,4.67v.48ZM92.79,8c-1.31,0-2,1-2,2.77h4C94.72,9.07,94,8,92.79,8Z"/><path class="cls-1" d="M101.5,17.48c-2.35,0-2.35-2.12-2.35-3V5.32a18.35,18.35,0,0,0-.21-3.14l2.39-.53a13.56,13.56,0,0,1,.19,2.95v9.09c0,1.44.06,1.67.23,1.92a.66.66,0,0,0,.77.17l.38,1.44A3.74,3.74,0,0,1,101.5,17.48Z"/><path class="cls-1" d="M105.55,4.93A1.52,1.52,0,0,1,104,3.4h0a1.54,1.54,0,1,1,1.53,1.54Zm-1.17,12.32V6.69l2.36-.42v11Z"/><path class="cls-1" d="M113.41,17.52c-2.93,0-4.55-2-4.55-5.51,0-3.9,2.33-5.76,4.71-5.76a3.9,3.9,0,0,1,3,1.16L115.38,9a2.67,2.67,0,0,0-1.81-.83,1.83,1.83,0,0,0-1.69,1.08,7.07,7.07,0,0,0-.45,3,4.3,4.3,0,0,0,.73,2.93,1.91,1.91,0,0,0,1.42.62,3.09,3.09,0,0,0,2.16-1.06l1.1,1.42A4.46,4.46,0,0,1,113.41,17.52Z"/><path class="cls-1" d="M118.83,17.48a1.57,1.57,0,0,1-1.58-1.56,1.58,1.58,0,1,1,3.15,0h0a1.57,1.57,0,0,1-1.56,1.57Zm0-2.83A1.27,1.27,0,1,0,120,16v-.06a1.22,1.22,0,0,0-1.19-1.26Zm.31,2.13c-.07-.12-.1-.17-.16-.29-.18-.33-.23-.41-.29-.43l-.06,0v.74h-.35V15h.66a.5.5,0,0,1,.52.46v.06a.46.46,0,0,1-.4.49.23.23,0,0,1,.07.07c.1.13.43.69.43.69ZM119,15.32a.62.62,0,0,0-.19,0h-.13v.48h.11a.41.41,0,0,0,.27-.06.29.29,0,0,0,.07-.18.22.22,0,0,0-.13-.22Z"/><path class="cls-1" d="M12.29,22.13C6.22,22.13,1.24,18.78.2,14-1.08,8.09,3.88,2,11.27.39A16.84,16.84,0,0,1,14.88,0C21,0,25.93,3.35,27,8.16a9.86,9.86,0,0,1-2.3,8.43,15.51,15.51,0,0,1-8.76,5.15A16.93,16.93,0,0,1,12.29,22.13ZM14.88.66A16.33,16.33,0,0,0,11.4,1C4.37,2.56-.37,8.3.84,13.84c1,4.5,5.69,7.65,11.45,7.65a16.94,16.94,0,0,0,3.48-.38,14.93,14.93,0,0,0,8.4-4.93A9.23,9.23,0,0,0,26.34,8.3C25.36,3.79,20.65.65,14.88.65Z"/><path class="cls-1" d="M14.75,19.15a7.9,7.9,0,1,1,7.9-7.89A7.89,7.89,0,0,1,14.75,19.15ZM14.75,4A7.25,7.25,0,1,0,22,11.26,7.24,7.24,0,0,0,14.75,4Z"/><path class="cls-1" d="M13.59,16a4.93,4.93,0,1,1,4.93-4.93h0A5,5,0,0,1,13.59,16Zm0-9.21a4.28,4.28,0,1,0,4.28,4.28h0A4.29,4.29,0,0,0,13.59,6.79Z"/></g></g></svg>