<svg xmlns="http://www.w3.org/2000/svg" viewBox="0 0 99.83 18.51"><defs><style>.cls-1{fill:#e6e7e8;}</style></defs><title>Asset 37</title><g id="Layer_2" data-name="Layer 2"><g id="Layer_1-2" data-name="Layer 1"><path class="cls-1" d="M86.94,15.5c-.38-.3-.74-.64-1.13-.93s-.49-.54-.1-.92c1.55-1.53,2-3.48,2-6a8.72,8.72,0,0,0-.61-3.12c-2-4.84-7.62-5.17-11-3.76C71,2.87,71,9.9,73.28,13a8.28,8.28,0,0,0,9.17,2.71c1.49-.46,2.49-.34,3.45.79,0,0,0,0,.08.07.43.48.77.4,1.19-.08S87.29,15.78,86.94,15.5Zm-4.3-1.25a6.49,6.49,0,0,1-7.17-1c-2.37-2-2.81-6.81-.93-9.48a6.68,6.68,0,0,1,8.57-1.72c2.25,1.32,3,3.45,3.07,6.17C86.12,10.72,85.36,13.12,82.64,14.25Z"/><path class="cls-1" d="M65.73,16a10.16,10.16,0,0,1-4-.62,4.27,4.27,0,0,1-2.77-4c0-.38,0-.74.49-.71s1-.25,1.08.47a3.48,3.48,0,0,0,2.34,3.2,7.4,7.4,0,0,0,5.73-.18,2.58,2.58,0,0,0,1.27-2.78,2.18,2.18,0,0,0-1.76-2.2c-1.84-.45-3.69-.84-5.52-1.29-2.55-.63-3.5-2.05-3.14-4.61A3.11,3.11,0,0,1,61.6.61a10.1,10.1,0,0,1,6.9,0A3.7,3.7,0,0,1,71,3.82c0,.36.14.82-.46.85s-1,.14-1.15-.57c-.59-2-1.5-2.72-3.59-2.83a9.3,9.3,0,0,0-2.93.22A2.45,2.45,0,0,0,60.94,4,2.18,2.18,0,0,0,62.7,6.44c1.85.51,3.74.89,5.61,1.36,2.5.64,3.43,2,3.15,4.53a3.67,3.67,0,0,1-2.52,3.2A8.57,8.57,0,0,1,65.73,16Z"/><path class="cls-1" d="M88.75,8.06q0-3.26,0-6.51c0-.54-.16-1.14.77-1.15s.8.56.8,1.12V13c0,1.41,0,1.42,1.46,1.42,2.31,0,4.62,0,6.93,0,.46,0,1.14-.23,1.11.66s-.7.63-1.16.63c-2.9,0-5.81,0-8.71.06-1,0-1.25-.35-1.23-1.28C88.79,12.33,88.75,10.19,88.75,8.06Z"/><path class="cls-1" d="M42.05,7.1c0-.37-.2-.48-.53-.48s-.55.07-.55.46c0,.23.08.49-.11.69-2.34-1.83-5.09-1.87-6.65-.09a5.12,5.12,0,0,0,.14,6C35.53,15,39,15.4,40.77,13.55a3,3,0,0,1-1.27,3.83c-1.73.76-3.89.23-4.57-1.19a.69.69,0,0,0-.92-.41c-.53.13-.17.52-.12.76a2,2,0,0,0,.76,1.22c1.41,1.09,5.05,1,6.36-.23a2.67,2.67,0,0,0,.93-1.72C42.19,12.91,42,10,42.05,7.1Zm-4.21,6.83q-3.41,0-3.42-3.3A3,3,0,0,1,37.7,7.26,3,3,0,0,1,41,10.53C41,12.66,39.83,13.91,37.84,13.93Z"/><path class="cls-1" d="M6.57,2.3c-1.93,0-3.85,0-5.78,0-.59,0-.8.19-.79.78C0,4.89,0,6.71,0,8.53v5.68c0,.51.11.77.69.76s.6-.34.6-.76c0-1.26,0-2.52,0-3.78,0-.69.23-.91.91-.9,1.54,0,3.09.05,4.62-.07a3.35,3.35,0,0,0,3-3.77A3.16,3.16,0,0,0,6.57,2.3Zm.16,6.11a32.32,32.32,0,0,1-4.82.15c-.45,0-.63-.19-.63-.63,0-1.33,0-2.66,0-4,0-.49.18-.7.67-.69.74,0,1.47,0,2.55,0,.5,0,1.34,0,2.17.13,1.2.16,1.84,1.08,1.84,2.53A2.24,2.24,0,0,1,6.73,8.41Z"/><path class="cls-1" d="M50.49,11c2,.05,4,0,6,0,.4,0,.85.12.85-.59a4.12,4.12,0,0,0-2.58-3.75c-3.64-1.3-6.61,1-6.23,4.81A3.88,3.88,0,0,0,51.37,15c1.82.48,3.55.38,4.94-1.12a2.49,2.49,0,0,0,.74-1.58c-.56-.13-1-.16-1.31.48-.68,1.33-1.76,1.78-3.45,1.55a3,3,0,0,1-2.58-2.28C49.49,11.29,49.62,11,50.49,11Zm1.87-3.8a3.33,3.33,0,0,1,3.59,2c.38.91.25,1.12-.7,1.13-1.85,0-3.7,0-5.56,0C49.9,8.42,50.76,7.45,52.36,7.21Z"/><path class="cls-1" d="M24.21,15.22a7,7,0,0,1-2.76-.42,2.2,2.2,0,0,1-1.33-1.64c-.05-.25-.39-.66.17-.74.37-.06.81-.2.95.46a1.82,1.82,0,0,0,1.84,1.43,7,7,0,0,0,2.61-.12,1.43,1.43,0,0,0,1.14-1.45c0-.79-.55-1.17-1.27-1.3l-3.72-.67a1.81,1.81,0,0,1-1.59-1.92,2,2,0,0,1,1.49-2.14,7.09,7.09,0,0,1,4-.12,2.28,2.28,0,0,1,1.82,1.84c.06.26.2.6-.24.65s-.67.12-.89-.32a3.21,3.21,0,0,0-4.52-1.13A1.31,1.31,0,0,0,21.38,9a1.06,1.06,0,0,0,.94.88c1.16.23,2.34.4,3.51.63,1.5.29,2.13,1,2.15,2.15a2.32,2.32,0,0,1-2.17,2.4C25.26,15.17,24.69,15.17,24.21,15.22Z"/><path class="cls-1" d="M14.72,6.34a4.08,4.08,0,0,0-4.54,4.25c-.1,2.83,1.48,4.57,4.22,4.65S19,13.75,19.07,11,17.56,6.43,14.72,6.34Zm-.17,8c-2.07,0-3.26-1.27-3.27-3.5s1.21-3.58,3.31-3.58,3.35,1.2,3.37,3.5S16.77,14.35,14.55,14.34Z"/><path class="cls-1" d="M30.22,10.75V8.86c0-.71.22-1.58-1-1.37-.22,0-.38-.12-.39-.38s.09-.46.33-.43c1.36.18,1.07-.79,1.09-1.54,0-.25,0-.49,0-.74,0-.42.21-.53.59-.52s.49.18.48.52,0,.42,0,.63c-.12,1-.07,1.92,1.39,1.63a.36.36,0,0,1,.49.38c0,.38-.21.53-.53.46-1.4-.3-1.4.56-1.36,1.56,0,1.22,0,2.45,0,3.67,0,.94.28,1.49,1.31,1.44.27,0,.57-.09.59.36s-.26.51-.59.56a1.84,1.84,0,0,1-2.36-1.93c0-.8,0-1.61,0-2.41Z"/><path class="cls-1" d="M44.94,7.86c.58-1.29,1.65-1.43,2.76-1.51.4,0,.67.06.68.55s-.28.51-.67.51c-1.81,0-2.54.74-2.81,2.55a39.91,39.91,0,0,0-.12,4.09c0,.36.21.88-.51.9s-.56-.47-.56-.86c0-2.1,0-4.2,0-6.3,0-.4-.34-1.06.49-1.13S44.62,7.36,44.94,7.86Z"/></g></g></svg>