<svg xmlns="http://www.w3.org/2000/svg" viewBox="0 0 52.23 19.18"><defs><style>.cls-1{fill:#e6e7e8;}</style></defs><title>Asset 30</title><g id="Layer_2" data-name="Layer 2"><g id="Layer_1-2" data-name="Layer 1"><path class="cls-1" d="M34.82,1.89a4,4,0,0,0,0-.69A1.46,1.46,0,0,0,33.35,0a1.48,1.48,0,0,0-1.52,1.59c0,1.48,0,3,0,4.44,0,.16.08.37-.07.46s-.27-.1-.39-.17a6.25,6.25,0,0,0-5.25-.51,6.78,6.78,0,0,0-4.52,7.38,6.59,6.59,0,0,0,9.92,5c.28-.16.39-.15.53.16a1.41,1.41,0,0,0,1.59.76,1.45,1.45,0,0,0,1.15-1.24,4.87,4.87,0,0,0,0-.66V1.89Zm-5,13.84a3.27,3.27,0,0,1-3.55-.15,3.77,3.77,0,0,1-1.7-4,3.76,3.76,0,0,1,2.82-3.05c2.27-.54,4.43,1.3,4.43,4.12A3.62,3.62,0,0,1,29.82,15.73Z"/><path class="cls-1" d="M11.19,13.28H15.3c1.39,0,2.78,0,4.16,0a1.3,1.3,0,0,0,1.41-1.5,6.56,6.56,0,0,0-7.73-6.2A6.74,6.74,0,0,0,7.67,13,6.42,6.42,0,0,0,12,18.7a6.76,6.76,0,0,0,7.11-1.34,1.1,1.1,0,0,0,.33-1.27,1.36,1.36,0,0,0-2.17-.58,4.17,4.17,0,0,1-3.11.79,3.73,3.73,0,0,1-3.33-2.55C10.71,13.31,10.73,13.28,11.19,13.28Zm-.47-2.75a3.81,3.81,0,0,1,4.94-2.18,4.39,4.39,0,0,1,2.5,2.15c.21.42.18.46-.28.46H14.47c-1.16,0-2.31,0-3.46,0C10.63,11,10.6,10.84,10.72,10.53Z"/><path class="cls-1" d="M47,19.13a7.63,7.63,0,0,1-5-1.93,1.42,1.42,0,0,1-.14-2,1.39,1.39,0,0,1,2-.26,5.53,5.53,0,0,0,2.62,1.21,3.37,3.37,0,0,0,2.22-.44c.77-.45.75-1.14,0-1.57a8.67,8.67,0,0,0-2.43-.75,7.82,7.82,0,0,1-2.64-1,3.46,3.46,0,0,1,0-6,5.75,5.75,0,0,1,6-.33A8,8,0,0,1,51,7a1.48,1.48,0,0,1,.4,2,1.44,1.44,0,0,1-2,.38,8.62,8.62,0,0,0-1.55-.84,2.86,2.86,0,0,0-2.6.31c-.62.43-.59.85,0,1.21a7.91,7.91,0,0,0,2.16.65,10.08,10.08,0,0,1,2.56.88,3.66,3.66,0,0,1,.37,6.52A6.08,6.08,0,0,1,47,19.13Z"/><path class="cls-1" d="M3,7A5.87,5.87,0,0,1,6.84,5.5,1.43,1.43,0,1,1,7,8.35a3.54,3.54,0,0,0-2.85,1.71,8.25,8.25,0,0,0-.49.76,4.93,4.93,0,0,0-.73,2.69c.06,1.34,0,2.69,0,4A1.47,1.47,0,0,1,1.6,19.12,1.41,1.41,0,0,1,0,17.68Q0,12.31,0,6.94A1.38,1.38,0,0,1,1.27,5.51,1.47,1.47,0,0,1,2.91,6.63Z"/><path class="cls-1" d="M37.07,12.27c0-1.75,0-3.51,0-5.27a1.43,1.43,0,0,1,1.59-1.49A1.38,1.38,0,0,1,40,6.58a2.63,2.63,0,0,1,.06.49c0,3.5,0,7,0,10.5a1.46,1.46,0,0,1-1,1.49,1.48,1.48,0,0,1-1.66-.51,1.58,1.58,0,0,1-.3-1C37.07,15.79,37.07,14,37.07,12.27Z"/><path class="cls-1" d="M37.07,1.75c0-1.14.6-1.81,1.58-1.75a1.65,1.65,0,0,1,.44.1c.68.26.95.81.93,1.83a1.5,1.5,0,0,1-1,1.53A1.47,1.47,0,0,1,37.08,2.2,3.38,3.38,0,0,1,37.07,1.75Z"/></g></g></svg>