<svg xmlns="http://www.w3.org/2000/svg" viewBox="0 0 734.74 423.4"><title>Asset 13</title><polygon points="731.67 78.68 9.09 118.46 52.18 360.43 144.99 364.71 144.99 423.4 201.09 367.3 698.53 390.26 731.67 78.68" style="fill:#029a4a"/><path d="M25.22,277.79v-69L6.27,220.71V202.52L26.47,190H41.4v87.81Z" style="fill:#057f3c"/><path d="M72.51,199.39c6.15-7.53,14.43-11.3,24.59-11.3s18.31,3.77,24.46,11.3,9.28,18.56,9.28,33.11c0,32.12-13.17,47.17-33.74,47.17S63.35,264.62,63.35,232.5C63.35,218,66.36,206.91,72.51,199.39Zm24.59,4.39c-11.17,0-16.81,8.53-16.81,28.72,0,11.67,1.38,19.82,4,24.47s7,7,12.8,7,10-2.38,12.67-7,4.14-12.8,4.14-24.47C113.91,212.31,108.26,203.78,97.1,203.78Z" style="fill:#057f3c"/><path d="M148.78,199.39c6.15-7.53,14.43-11.3,24.59-11.3s18.31,3.77,24.46,11.3,9.28,18.56,9.28,33.11c0,32.12-13.17,47.17-33.74,47.17s-33.75-15.05-33.75-47.17C139.62,218,142.63,206.91,148.78,199.39Zm24.59,4.39c-11.17,0-16.81,8.53-16.81,28.72,0,11.67,1.38,19.82,4,24.47s7,7,12.8,7,10-2.38,12.67-7,4.14-12.8,4.14-24.47C190.18,212.31,184.53,203.78,173.37,203.78Z" style="fill:#057f3c"/><path d="M217.78,286.07c5.52-1,6.14-2.64,6.14-8.28h-6.14V260h18.69v15.8c0,11.67-6.27,17.94-18.69,18.82Z" style="fill:#057f3c"/><path d="M260.05,199.39c6.15-7.53,14.43-11.3,24.59-11.3s18.31,3.77,24.46,11.3,9.28,18.56,9.28,33.11c0,32.12-13.17,47.17-33.74,47.17s-33.75-15.05-33.75-47.17C250.89,218,253.9,206.91,260.05,199.39Zm24.59,4.39c-11.17,0-16.81,8.53-16.81,28.72,0,11.67,1.38,19.82,4,24.47s7,7,12.8,7,10-2.38,12.67-7,4.14-12.8,4.14-24.47C301.45,212.31,295.8,203.78,284.64,203.78Z" style="fill:#057f3c"/><path d="M336.32,199.39c6.15-7.53,14.43-11.3,24.59-11.3s18.32,3.77,24.46,11.3,9.29,18.56,9.29,33.11c0,32.12-13.18,47.17-33.75,47.17s-33.75-15.05-33.75-47.17C327.16,218,330.17,206.91,336.32,199.39Zm24.59,4.39c-11.17,0-16.81,8.53-16.81,28.72,0,11.67,1.38,19.82,4,24.47s7,7,12.8,7,10-2.38,12.67-7,4.14-12.8,4.14-24.47C377.72,212.31,372.07,203.78,360.91,203.78Z" style="fill:#057f3c"/><path d="M412.59,199.39c6.15-7.53,14.43-11.3,24.59-11.3s18.32,3.77,24.46,11.3,9.29,18.56,9.29,33.11c0,32.12-13.18,47.17-33.75,47.17s-33.74-15.05-33.74-47.17C403.44,218,406.45,206.91,412.59,199.39Zm24.59,4.39c-11.16,0-16.81,8.53-16.81,28.72,0,11.67,1.38,19.82,4,24.47s7,7,12.79,7,10-2.38,12.67-7S454,244.17,454,232.5C454,212.31,448.35,203.78,437.18,203.78Z" style="fill:#057f3c"/><path d="M481.59,286.07c5.52-1,6.15-2.64,6.15-8.28h-6.15V260h18.69v15.8c0,11.67-6.27,17.94-18.69,18.82Z" style="fill:#057f3c"/><path d="M523.86,199.39c6.15-7.53,14.43-11.3,24.59-11.3s18.32,3.77,24.46,11.3S582.2,218,582.2,232.5c0,32.12-13.18,47.17-33.75,47.17s-33.74-15.05-33.74-47.17C514.71,218,517.72,206.91,523.86,199.39Zm24.59,4.39c-11.16,0-16.81,8.53-16.81,28.72,0,11.67,1.38,19.82,4,24.47s7,7,12.79,7,10-2.38,12.67-7,4.14-12.8,4.14-24.47C565.26,212.31,559.62,203.78,548.45,203.78Z" style="fill:#057f3c"/><path d="M600.14,199.39c6.14-7.53,14.42-11.3,24.58-11.3s18.32,3.77,24.47,11.3,9.28,18.56,9.28,33.11c0,32.12-13.17,47.17-33.75,47.17S591,264.62,591,232.5C591,218,594,206.91,600.14,199.39Zm24.58,4.39c-11.16,0-16.81,8.53-16.81,28.72,0,11.67,1.38,19.82,4,24.47s7,7,12.79,7,10-2.38,12.67-7,4.14-12.8,4.14-24.47C641.53,212.31,635.89,203.78,624.72,203.78Z" style="fill:#057f3c"/><path d="M676.41,199.39c6.14-7.53,14.42-11.3,24.58-11.3s18.32,3.77,24.47,11.3,9.28,18.56,9.28,33.11c0,32.12-13.17,47.17-33.75,47.17s-33.74-15.05-33.74-47.17C667.25,218,670.26,206.91,676.41,199.39ZM701,203.78c-11.16,0-16.81,8.53-16.81,28.72,0,11.67,1.38,19.82,4,24.47s7,7,12.79,7,10-2.38,12.67-7,4.14-12.8,4.14-24.47C717.8,212.31,712.16,203.78,701,203.78Z" style="fill:#057f3c"/><path d="M18.94,264.62v-69L0,207.54V189.35L20.2,176.8H35.13v87.82Z" style="fill:#f8a231"/><path d="M66.24,186.21c6.14-7.52,14.42-11.29,24.58-11.29s18.32,3.77,24.47,11.29,9.28,18.57,9.28,33.12c0,32.12-13.17,47.17-33.75,47.17s-33.74-15.05-33.74-47.17C57.08,204.78,60.09,193.74,66.24,186.21Zm24.58,4.39C79.66,190.6,74,199.13,74,219.33c0,11.67,1.38,19.82,4,24.46s7,7,12.79,7,10-2.39,12.67-7,4.14-12.79,4.14-24.46C107.63,199.13,102,190.6,90.82,190.6Z" style="fill:#f8a231"/><path d="M142.51,186.21c6.14-7.52,14.42-11.29,24.58-11.29s18.32,3.77,24.47,11.29,9.28,18.57,9.28,33.12c0,32.12-13.17,47.17-33.75,47.17s-33.74-15.05-33.74-47.17C133.35,204.78,136.36,193.74,142.51,186.21Zm24.58,4.39c-11.16,0-16.81,8.53-16.81,28.73,0,11.67,1.38,19.82,4,24.46s7,7,12.79,7,10-2.39,12.68-7,4.13-12.79,4.13-24.46C183.9,199.13,178.26,190.6,167.09,190.6Z" style="fill:#f8a231"/><path d="M211.5,272.9c5.52-1,6.15-2.64,6.15-8.28H211.5V246.8h18.69v15.81c0,11.67-6.27,17.94-18.69,18.82Z" style="fill:#f8a231"/><path d="M253.78,186.21c6.14-7.52,14.42-11.29,24.59-11.29s18.31,3.77,24.46,11.29,9.28,18.57,9.28,33.12c0,32.12-13.17,47.17-33.74,47.17s-33.75-15.05-33.75-47.17C244.62,204.78,247.63,193.74,253.78,186.21Zm24.59,4.39c-11.17,0-16.81,8.53-16.81,28.73,0,11.67,1.38,19.82,4,24.46s7,7,12.8,7,10-2.39,12.67-7,4.14-12.79,4.14-24.46C295.18,199.13,289.53,190.6,278.37,190.6Z" style="fill:#f8a231"/><path d="M330.05,186.21c6.15-7.52,14.43-11.29,24.59-11.29s18.31,3.77,24.46,11.29,9.28,18.57,9.28,33.12c0,32.12-13.17,47.17-33.74,47.17s-33.75-15.05-33.75-47.17C320.89,204.78,323.9,193.74,330.05,186.21Zm24.59,4.39c-11.17,0-16.81,8.53-16.81,28.73,0,11.67,1.38,19.82,4,24.46s7,7,12.8,7,10-2.39,12.67-7,4.14-12.79,4.14-24.46C371.45,199.13,365.8,190.6,354.64,190.6Z" style="fill:#f8a231"/><path d="M406.32,186.21c6.15-7.52,14.43-11.29,24.59-11.29s18.31,3.77,24.46,11.29,9.28,18.57,9.28,33.12c0,32.12-13.17,47.17-33.74,47.17s-33.75-15.05-33.75-47.17C397.16,204.78,400.17,193.74,406.32,186.21Zm24.59,4.39c-11.17,0-16.81,8.53-16.81,28.73,0,11.67,1.38,19.82,4,24.46s7,7,12.8,7,10-2.39,12.67-7,4.14-12.79,4.14-24.46C447.72,199.13,442.07,190.6,430.91,190.6Z" style="fill:#f8a231"/><path d="M475.32,272.9c5.52-1,6.14-2.64,6.14-8.28h-6.14V246.8H494v15.81c0,11.67-6.27,17.94-18.69,18.82Z" style="fill:#f8a231"/><path d="M517.59,186.21c6.15-7.52,14.43-11.29,24.59-11.29s18.31,3.77,24.46,11.29,9.28,18.57,9.28,33.12c0,32.12-13.17,47.17-33.74,47.17s-33.75-15.05-33.75-47.17C508.43,204.78,511.44,193.74,517.59,186.21Zm24.59,4.39c-11.17,0-16.81,8.53-16.81,28.73,0,11.67,1.38,19.82,4,24.46s7,7,12.8,7,10-2.39,12.67-7S559,231,559,219.33C559,199.13,553.34,190.6,542.18,190.6Z" style="fill:#f8a231"/><path d="M593.86,186.21c6.15-7.52,14.43-11.29,24.59-11.29s18.32,3.77,24.46,11.29,9.29,18.57,9.29,33.12c0,32.12-13.18,47.17-33.75,47.17s-33.75-15.05-33.75-47.17C584.7,204.78,587.72,193.74,593.86,186.21Zm24.59,4.39c-11.16,0-16.81,8.53-16.81,28.73,0,11.67,1.38,19.82,4,24.46s7,7,12.8,7,10-2.39,12.67-7,4.14-12.79,4.14-24.46C635.26,199.13,629.61,190.6,618.45,190.6Z" style="fill:#f8a231"/><path d="M670.13,186.21c6.15-7.52,14.43-11.29,24.59-11.29s18.32,3.77,24.46,11.29,9.29,18.57,9.29,33.12c0,32.12-13.18,47.17-33.75,47.17S661,251.45,661,219.33C661,204.78,664,193.74,670.13,186.21Zm24.59,4.39c-11.16,0-16.81,8.53-16.81,28.73,0,11.67,1.38,19.82,4,24.46s7,7,12.79,7,10-2.39,12.67-7,4.14-12.79,4.14-24.46C711.53,199.13,705.89,190.6,694.72,190.6Z" style="fill:#f8a231"/><polygon points="245.59 354.51 344.54 295.98 286.01 379.59 245.59 354.51" style="fill:#d03191"/><polygon points="118.78 158.01 37.95 59.07 70 39.56 118.78 158.01" style="fill:#296db2"/><path d="M145.26,146.86c0-7-13.94-58.53-13.94-58.53l36.23,1.4Z" style="fill:#773b93"/><path d="M150.83,109.41h1.39a1.57,1.57,0,1,0,0-3.13h-1.39a1.57,1.57,0,1,0,0,3.13Z" style="fill:#296db2"/><path d="M171.73,145.47c.16-.48.63-1.93,1.33-4.14,5.46-17.13,25.15-79.47,25.15-79.47L223.3,78.58" style="fill:#d03191"/><polygon points="371.02 291.8 344.54 340.57 372.41 346.15 371.02 291.8" style="fill:#f8a231"/><polygon points="397.5 302.95 407.25 365.66 437.91 353.12 397.5 302.95" style="fill:#fff"/><path d="M260.73,144.05c-1-4.29-5.56-144-5.56-144l21.56,3.05Z" style="fill:#f8a231"/><polygon points="286.01 134.32 291.58 70.22 309.7 73 286.01 134.32" style="fill:#296db2"/><polygon points="330.6 145.47 355.69 25.62 377.99 25.62 330.6 145.47" style="fill:#d03191"/><path d="M357.08,142.68c1.39-7,20.9-73.86,20.9-73.86l22.3-1.39Z" style="fill:#f8a231"/><polygon points="471.36 149.65 446.27 67.43 464.39 66.04 471.36 149.65" style="fill:#f8a231"/><polygon points="500.62 135.72 476.93 24.23 513.16 24.23 500.62 135.72" style="fill:#296db2"/><polygon points="534.07 138.5 536.85 68.82 561.94 73 534.07 138.5" style="fill:#773b93"/><polygon points="600.96 132.93 573.09 4.72 589.81 1.93 600.96 132.93" style="fill:#d03191"/><polygon points="630.22 135.72 614.89 52.1 645.55 52.1 630.22 135.72" style="fill:#f8a231"/><polygon points="662.28 128.75 684.57 39.56 705.48 50.71 662.28 128.75" style="fill:#296db2"/></svg>