<svg xmlns="http://www.w3.org/2000/svg" viewBox="0 0 680.2 362.34"><title>Asset 11</title><path d="M208.42,70.16H662L680.2,0,0,36.86S67.78,302.05,70.16,305.61l73,2.81,19.31,53.92,25.77-52.19,399,15.34L614.9,252.1H208.42a28.86,28.86,0,0,1-28.86-28.85V99A28.86,28.86,0,0,1,208.42,70.16Z" style="fill:#773b93"/><path d="M208.42,70.16A28.86,28.86,0,0,0,179.56,99V223.25a28.86,28.86,0,0,0,28.86,28.85H614.9L662,70.16Z" style="fill:#fff"/><rect x="206.91" y="96.32" width="108.21" height="130.81" style="fill:#9495ac"/><rect x="340.1" y="104.65" width="272.32" height="22.59" rx="11.3" style="fill:#9495ac"/><rect x="340.1" y="152.21" width="272.32" height="22.59" rx="11.3" style="fill:#9495ac"/><rect x="340.1" y="199.78" width="272.32" height="22.59" rx="11.3" style="fill:#9495ac"/><path d="M35.81,182.07c7.7,10.63,21.16,15.07,34,16.62,11.69,1.42,24,.85,34.51-4.62,21.55-11.23,29.15-39.42,28-64.21s-1.21-80.13-1.21-80.13L7.41,61.31" style="fill:#f6a4a7"/><polygon points="80.86 177.19 104.31 270.21 54.7 250.91 33.3 165.29 80.86 177.19" style="fill:#f6a4a7"/><path d="M160,28.85C105.58,30.41,0,35.5,0,35.5l24,92.14s15.71-32.51,8.78-49.33A43.31,43.31,0,0,0,58.51,59.74c0,.13,0,.26.05.39C60.44,71.24,74.41,77.33,85,73.54A27.52,27.52,0,0,0,98.37,62.75a23,23,0,0,0,11.39,9.75,23.27,23.27,0,0,0,24.36-5.39c-3.06,5.78-6.18,11.75-6.81,18.26s1.8,13.77,7.53,16.92c8.72,4.79,19.49-2.05,25.25-10.16C173.13,73.79,173.11,47.17,160,28.85ZM62.34,52.18c.11-.28.22-.57.32-.86l6.09.18Z" style="fill:#383944"/><path d="M49.42,227.11a125.87,125.87,0,0,0,40.22,24.81l-7.85,35.27L60.11,271.86" style="fill:#296db2"/><polygon points="95.58 245.97 89.76 210.09 105.28 226.57 116.92 266.33 95.58 245.97" style="fill:#296db2"/><path d="M56.79,254.7l8.73-1.94,38.79,17.45-8.73-39.76,11.59,2.4a65.33,65.33,0,0,1,51.38,54.35l9.76,65.44-5.82,9.7-19.31-53.92-73-2.81Z" style="fill:#296db2"/><path d="M77.07,297.22l15.34-39.83c1.16-3-3.67-4.3-4.82-1.33L72.25,295.89c-1.15,3,3.68,4.31,4.82,1.33Z" style="fill:#383944"/><path d="M92.9,247.77c3.62,4.14,6.95,3.56,11.79,3.22,3.48-.25,6.4,4.38,8.67,6.8l8.18,8.76c2.2,2.36,5.73-1.18,3.54-3.53-4.76-5.09-9.28-11.08-14.61-15.57-4.65-3.92-9.88,1.53-14-3.22-2.12-2.42-5.65,1.13-3.53,3.54Z" style="fill:#383944"/><path d="M95.9,249.76c2.37.49,2.31,6.35,2.57,8.12L100,268.37l3.13,21c.42,2.81,5,2.11,4.91-.66l-.06-3c-.07-3.21-5.07-3.22-5,0l.06,3L108,288q-2.05-13.83-4.13-27.67c-.72-4.83-.31-14.12-6.63-15.42-3.14-.64-4.49,4.18-1.33,4.82Z" style="fill:#383944"/><path d="M51.91,102.57q13.59-.78,27.18-.32c9.66.33,9.64-14.67,0-15q-13.61-.45-27.18.32c-9.6.55-9.66,15.55,0,15Z" style="fill:#383944"/><path d="M106.21,103.58a19.5,19.5,0,0,1,11.78-.24c9.3,2.64,13.27-11.83,4-14.47a34.19,34.19,0,0,0-19.76.25A7.67,7.67,0,0,0,97,98.35c1,3.79,5.35,6.47,9.23,5.23Z" style="fill:#383944"/><path d="M49.23,111A170.57,170.57,0,0,1,78,106.17a32.39,32.39,0,0,1-.56,10.06,4.13,4.13,0,0,1-1.22,2.48,4.25,4.25,0,0,1-2.91.55,52.15,52.15,0,0,1-22.1-6.56" style="fill:#fff"/><path d="M106.24,108.31l10.4-2.27c1.46-.32,3.14-.6,4.33.31a4.31,4.31,0,0,1,1.34,3.56,11.45,11.45,0,0,1-3,7.6A44.12,44.12,0,0,1,107,110.44" style="fill:#fff"/><path d="M120.22,108.85l.17,1.41a1,1,0,0,1-.26.5c-.06.09-.57.48-.26.3a1.66,1.66,0,0,1-2.12-.6l-.25-1.92c-.08.27-.1.14,0,0-.28.36.18-.08,0,.09,0,0-.38.28-.15.15s-.55.17.1-.06l3.07,1.74a5.51,5.51,0,0,1-.2-.8c0,.33,0-.45,0-.45s0-.8,0-.44a5.33,5.33,0,0,1,.2-.81l-3.08,1.74a2.21,2.21,0,0,1,.37.08c-.31-.14-.35-.14-.11,0-.26-.21-.29-.21-.09,0-.17-.24-.21-.28-.12-.13s.07.11,0-.17a2.37,2.37,0,0,1,.09.36c0-.35-.06-.39-.06-.11a.83.83,0,0,1,.14-.55l.9-.9,2.71,1.1v1.33L119,112l-1.1-.64.12.1a2.57,2.57,0,0,0,3.54,0,2.55,2.55,0,0,0,0-3.54,3.19,3.19,0,0,0-3-.76,3,3,0,1,0,2.37,5.52c1.59-.9,1.88-3.13,1.29-4.71a4.67,4.67,0,0,0-3.42-3.08,2.56,2.56,0,0,0-3.07,1.75,9.06,9.06,0,0,0,0,5.16,2.53,2.53,0,0,0,3.08,1.75,5.37,5.37,0,0,0,3.18-2.67,3,3,0,0,0-1.72-4.45,3.79,3.79,0,0,0-3.61.87,3.38,3.38,0,0,0-.7,4.1,2.51,2.51,0,0,0,3.42.89,2.57,2.57,0,0,0,.9-3.42Z" style="fill:#383944"/><path d="M75.69,110.19l.26-2.88-4.26,1.77c.15.13.4.46,0,0,.26.36-.13-.37,0-.1s0-.57,0-.11.14-.57,0,0,.17-.35,0-.08-.1.14.07,0c-.32.36.45-.22,0,0,.31-.15.37-.12,0-.07l3.08,1.75c0,.33,0,.4,0,.21s0-.13,0,.21c-.12-.2.4-.58,0-.08.06-.06.37-.45.12-.2s.48-.37.08-.07.16-.07.22-.11c-.56.44,0-.16.09,0l-.31,0h.36l-.31,0c.26.09.24.07-.08,0l-1.15-2.83c-.1.28-.09.29,0,0l-.21.39c-.08.13-.16.25-.25.37.17-.21.15-.21,0,0s-.22.21-.33.3c.22-.15.21-.15,0,0s-.25.15-.38.22c.26-.09.25-.09,0,0a2.5,2.5,0,1,0,1.33,4.82,7.47,7.47,0,0,0,4.72-4.83,2.52,2.52,0,0,0-1.15-2.82A5.27,5.27,0,0,0,70,111.66a2.57,2.57,0,0,0,3.08,1.75c3.44-.53,4.78-5.7,2.1-7.87A2.54,2.54,0,0,0,71,107.31l-.26,2.88a2.51,2.51,0,0,0,2.5,2.5,2.55,2.55,0,0,0,2.5-2.5Z" style="fill:#383944"/><path d="M79.93,138.85c-1,2.58.17,5.05,2.49,6.51a8.21,8.21,0,0,0,4.27,1.14c2.93.09,4.07.06,6.8,1.65s5.11,2.12,8.24.8c4.18-1.78,6.48-6.55,11-7.38,3.16-.56,1.82-5.38-1.33-4.82a11.84,11.84,0,0,0-5.38,2.5c-1.9,1.48-3.89,4.46-6.28,5-2.73.64-4.37-1.58-6.83-2.43-1.08-.38-8.61-.57-8.2-1.66,1.13-3-3.7-4.32-4.82-1.33Z" style="fill:#383944"/><path d="M94.53,174.21c-1-3.29-6.12-5.43-4.71-8.56.56-1.24,2-1.8,3.26-2.25l14.3-5a3.69,3.69,0,0,1,2.83-.2c1.5.76,1.28,2.94.82,4.55-1.13,4-2.41,8.31-5.56,11.07s-8.82,3-11-.5" style="fill:#383944"/><path d="M90,179.81a16.92,16.92,0,0,0,17,2.84c2.95-1.18,1.66-6-1.33-4.82a12,12,0,0,1-12.17-1.56c-2.48-2-6,1.51-3.54,3.54Z" style="fill:#383944"/><path d="M57.12,120.22A138.51,138.51,0,0,0,81,121.41c3.21-.12,3.23-5.13,0-5a131.15,131.15,0,0,1-22.58-1c-3.15-.42-4.51,4.4-1.33,4.83Z" style="fill:#383944"/><path d="M109.63,116.84a30.48,30.48,0,0,1,10,5c2.58,1.93,5.08-2.41,2.53-4.31A34.41,34.41,0,0,0,111,112c-3.1-.89-4.42,3.93-1.33,4.82Z" style="fill:#383944"/><path d="M42.65,186.16c14.39,9.3,31.52,15.89,48.91,13.69,14.29-1.82,27.59-9.36,35-21.9,1.64-2.78-2.68-5.3-4.31-2.52-7,11.83-20.07,18.74-33.61,19.71-15.63,1.13-30.57-5-43.47-13.3-2.71-1.75-5.22,2.57-2.52,4.32Z" style="fill:#383944"/><path d="M85.66,195.31h-.29l2.41,1.83-.09-.46-.64,2.43.31-.28-3,.39c-.23-.16.44,4.57.56,5.45l1.11,7.5,2.2,15c.46,3.17,5.28,1.82,4.82-1.33L90.27,207.1c-.56-3.78,0-9.74-3.42-12.18a2.52,2.52,0,0,0-3,.39,3,3,0,0,0-.88,3.17,2.53,2.53,0,0,0,2.42,1.84h.29c3.22-.06,3.23-5.06,0-5Z" style="fill:#383944"/><path d="M539.75,117.21c-2.82,8.86-2.54,18.25-5.15,27-2.44,8.19-2.51,6.56-10.81,11.39-3.49,2-7.12,5.5-6.18,9.42a10.25,10.25,0,0,0,1.81,3.44c2.92,4.15,6.9,8.72,8,13.82,1.29,6.2-1.51,11.33,2.06,17.71a20.45,20.45,0,0,1,2,4c.58,1.95.27,4,.22,6.07-.2,6.88,2.44,13.48,5,19.85a17,17,0,0,0,3.18,5.61c3.93,4,10.53,3.17,16,1.81,13.55-3.37,30.22-6.39,41.85-14.45,5.58-3.86,10-29,7.27-28.43,14.32-3.22,23.57-20.55,18.27-34.24-1-2.6-4.79-5.11-6-2.61,3.8-20.44,7.07-42.31-1.16-61.41-1.54-3.56-3.62-7.13-7-9.07-2.47-1.43-5.4-1.83-8.24-2.16-13.84-1.62-28.72-2.13-40.75,4.9-9.69,5.66-16.26,15.62-20,26.2C540,116.42,539.88,116.82,539.75,117.21Z" style="fill:#f6a4a7"/><path d="M570.77,182.52c3.22,0,3.22-5,0-5s-3.22,5,0,5Z" style="fill:#f6a4a7"/><path d="M548.47,138.25l23.87,2.11a67.45,67.45,0,0,1-11.6,8c-2.31,1.26-4.94,2.42-7.49,1.77-4-1-5.63-5.82-6.55-9.9" style="fill:#fff"/><path d="M549.69,134.07a30.94,30.94,0,0,1,24,3.33c5.57,3.26,10.61-5.38,5-8.63A41.43,41.43,0,0,0,547,124.42c-6.22,1.63-3.58,11.28,2.66,9.65Z" style="fill:#383944"/><path d="M531.35,151.64c-6.23,1.64-13.3,3.85-15.86,10.42a10.46,10.46,0,0,0-.22,7.74c1.17,2.88,3.9,4.28,5.8,6.57,3.79,4.57,6.83,9.14,13.72,7.76,5.66-1.14,9.06-6.35,9-11.91,0-2.57-4-2.58-4,0,.07,5.65-5.33,10.1-10.75,7.24-2.91-1.53-4-5.06-6.35-7.23-3.32-3-5.54-6.17-2.54-10.5,2.71-3.92,8-5.1,12.27-6.23,2.49-.66,1.44-4.52-1.06-3.86Z" style="fill:#383944"/><path d="M537.9,197.94a97.84,97.84,0,0,1,18.2-2.43,47,47,0,0,1-4,20.19c-.39.89-.94,1.87-1.9,2a2.42,2.42,0,0,1-1.55-.42c-5.12-3.08-3.22-11.94-8-15.57-1.49-1.13-3.79-2.71-2.65-4.19" style="fill:#383944"/><path d="M560.46,230.35a170.26,170.26,0,0,1,11.74,32.87c.54,2.2,1.16,4.61,3,6,3,2.24,7.27.33,10.41-1.74,8.55-5.64,22-14.22,25.64-24.1,4.41-12.07,1.81-30.93,3.75-44" style="fill:#f6a4a7"/><path d="M551.43,87l-18.16,20c-1.11,1.22-2.29,2.68-2,4.3.24,1.41,1.48,2.38,2.65,3.19a95.38,95.38,0,0,0,31.26,14.07L594.71,81,578.66,121.4c-1.06,2.68-2.1,5.79-.7,8.31,1,1.81,3,2.78,5,3.59,4.89,2.09,28.58,6.51,30.53,10.52C616,149,596.78,166.61,593,170.39a26.44,26.44,0,0,0,6.88,6.87A97,97,0,0,1,610.45,166c3-2.73,7.43-5.37,10.76-3.08a7.64,7.64,0,0,1,2.71,4.53,18.62,18.62,0,0,1-19.24,23.26c-1.38,17.88-5.56,31.91-10.38,49-.49,1.73-1,3.6-.4,5.31a7,7,0,0,0,3.12,3.49c7.33,4.57,17.88,3.58,17.88,3.58L664.84,58.8s-51.07-17-69.42-8.77-32.54,23.34-46.2,38.08" style="fill:#383944"/><polygon points="614.89 252.1 606.54 250.57 554.75 278.98 559.2 291.79 565.88 292.34 550.29 308.5 548.06 316.29 556.42 317.41 547.5 321.86 545.83 324.09 587.25 325.49 614.89 252.1" style="fill:#d03191"/><path d="M546.28,224.59a14.82,14.82,0,0,0,11-.59,2.52,2.52,0,0,0,.9-3.42,2.57,2.57,0,0,0-3.42-.9,9.67,9.67,0,0,1-7.1.09c-3.05-1.06-4.36,3.77-1.33,4.82Z" style="fill:#383944"/><path d="M554.76,238.55c11.25.37,21.83-3.78,30.55-10.76a66.09,66.09,0,0,0,11.44-12c2.72-3.62,7.08-8.2,6.19-13-.58-3.16-5.4-1.82-4.82,1.33.5,2.67-5.87,9.44-7.39,11.28a59.82,59.82,0,0,1-9.38,9.17,41.13,41.13,0,0,1-26.59,9c-3.22-.11-3.22,4.89,0,5Z" style="fill:#383944"/><path d="M561.4,236.69a226.79,226.79,0,0,1,9.39,31.24c.71,3.13,5.53,1.81,4.83-1.33a228.22,228.22,0,0,0-9.4-31.24c-1.14-3-6-1.68-4.82,1.33Z" style="fill:#383944"/><path d="M555.13,281.72l20.63,13.82c3.72,2.5,7.89,5,10.82.16,3.65-6.05,6.07-12.7,10.08-18.64s8.9-10.87,13.62-16.24c2.35-2.68,4.31-6.65,1.53-9.84-3.55-4.07-9,.22-12.54,2.07l-43.42,22.86c-2.85,1.5-.32,5.81,2.53,4.31l30.39-16,14.76-7.77c.34-.18,3.27-2,3.47-1.83,1.65,1.26-1.08,3.47-1.79,4.2-1.8,1.83-3.55,3.71-5.22,5.67a108.89,108.89,0,0,0-15.32,23.4c-1.29,2.67-1.47,5.6-4.74,4.43-2.53-.9-5.21-3.49-7.43-5l-14.85-10c-2.68-1.79-5.19,2.54-2.52,4.32Z" style="fill:#383944"/><path d="M557.3,281.55l.26-.53-2.16,1.24h.67L553.91,281c1,1.35-.26,5.24,0,6.94a8.45,8.45,0,0,0,1.32,3.71c2.17,3.18,5.37,1.89,8.09,3.89l-.5-3.93-12.42,15.24c-2,2.47,1.5,6,3.54,3.53l12.41-15.23a2.55,2.55,0,0,0-.5-3.93c-1.4-1-2.84-.81-4.27-1.47-4-1.9-2-5.21-2.45-8.76-.26-2.21-1.32-3.75-3.69-3.75a2.5,2.5,0,0,0-2.16,1.24L553,279c-1.43,2.88,2.88,5.41,4.32,2.53Z" style="fill:#383944"/><path d="M565.88,304.82c.56-.05-.57-.14-.22-.05a1.2,1.2,0,0,1-.75-.41c.17.18.09.08-.22-.3l.09.15c0-.12-.21-.67-.12-.25s0-.76,0-.2c0,.38.16-.69,0-.31s0,.12.16-.35c-.08.14,0,.1.11-.11s.2-.24.09-.12c.4-.29.5-.37.29-.24.46-.17.57-.22.33-.16l.47-.07c.51.09.64.11.4.05.45.21.57.25.35.13.59.37.4.34.23.15.28.39.36.48.22.27l-.09-.17c.28.29.21.57.13.22,0,.51.07.64.06.38s0-.12-.07.39c0-.26.22-.35-.13.26-.32.37-.4.47-.23.29-.39.28-.48.35-.27.23l-1.26.34c.44,0,.19-.08-.73-.24a1.44,1.44,0,0,1-.5-.51,1.68,1.68,0,0,1,.06-1.65,1.46,1.46,0,0,1,2.07-.47,2.5,2.5,0,1,0-2.52,4.31,3.55,3.55,0,0,0,3.64-.14,3.39,3.39,0,0,0,1.39-3.86,3.56,3.56,0,0,0-3.41-2.44,3.28,3.28,0,0,0-2.92,2.46,4.1,4.1,0,0,0,2.57,4.84,3.41,3.41,0,0,0,2.88-.39,3.7,3.7,0,0,0,1.62-2.91c.16-2.06-1.55-4.3-3.74-4.12a2.5,2.5,0,0,0,0,5Z" style="fill:#383944"/><path d="M562.94,319.75c.21-.38,0-.17-.67.62-.48.17-.6.23-.36.16-.52,0-.65.07-.4.07-.49-.09-.64-.1-.43-.05s.06,0-.39-.17c.21.13.12.05-.28-.24.17.18.09.08-.23-.3a1.85,1.85,0,0,1-.19-1.5l2.41-1.83a1.39,1.39,0,0,1,1.05.52,1.46,1.46,0,0,1,.43,1.59,2.75,2.75,0,0,0-.25-1.93,2.56,2.56,0,0,0-1.49-1.15c-1.19-.27-2.88.37-3.08,1.75a3.57,3.57,0,0,0,.66,2.93,3.34,3.34,0,0,0,2.68,1.29,2.54,2.54,0,0,0,2.41-1.84,3.45,3.45,0,0,0-.36-2.42,3.41,3.41,0,0,0-2-1.49,3.28,3.28,0,0,0-3.86,1.46,2.5,2.5,0,0,0,4.31,2.53Z" style="fill:#383944"/><path d="M48.06,134c3.22,0,3.22-5,0-5s-3.22,5,0,5Z" style="fill:#d03191"/><path d="M61.64,130.16c3.22,0,3.22-5,0-5s-3.22,5,0,5Z" style="fill:#d03191"/><path d="M55.82,142.76c3.22,0,3.22-5,0-5s-3.22,5,0,5Z" style="fill:#d03191"/><path d="M73.28,137.91c3.21,0,3.22-5,0-5s-3.23,5,0,5Z" style="fill:#d03191"/><path d="M113,131.13c3.21,0,3.22-5,0-5s-3.23,5,0,5Z" style="fill:#d03191"/><path d="M125.64,130.16c3.22,0,3.23-5,0-5s-3.22,5,0,5Z" style="fill:#d03191"/><path d="M119.26,139.29v1a2.5,2.5,0,0,0,5,0v-1a2.5,2.5,0,0,0-5,0Z" style="fill:#d03191"/><path d="M547.9,140.92c.24,2.75.88,5.62,3.63,6.9s5.77-.52,7-3.19c1.08-2.41.52-5.59-2.39-6.25a8.89,8.89,0,0,0-3.29.12l-.68.11c.33-.05-.13,0-.24,0a5.72,5.72,0,0,0-.59,0l.24,0c-.28-.07-.24,0,.1.06-2.8-1.59-5.32,2.73-2.52,4.32a5.28,5.28,0,0,0,3.41.48l1.2-.17s.81-.12.41-.07c.24,0,.51,0,.75-.06s.3,0,.1,0-.16,0,.06,0c0,0-1.66-1-1-1.16,0,0-.23.61-.2.56a5.33,5.33,0,0,1-.5.63c.24-.28.49.64,0-.12-.05-.1-.15-.22-.21-.34a5.14,5.14,0,0,1-.35-1.91,2.56,2.56,0,0,0-2.5-2.5,2.53,2.53,0,0,0-2.5,2.5Z" style="fill:#383944"/><path d="M548.71,141.07h16c3.21,0,3.22-5,0-5h-16c-3.22,0-3.23,5,0,5Z" style="fill:#383944"/><path d="M545.11,154.37a9.49,9.49,0,0,0,5.84,4.8,2.5,2.5,0,0,0,1.33-4.82,4.88,4.88,0,0,1-1.56-.8,4.12,4.12,0,0,1-.37-.35s-.43-.46-.31-.32a8.75,8.75,0,0,1-.61-1,2.5,2.5,0,0,0-4.32,2.53Z" style="fill:#383944"/></svg>