<svg xmlns="http://www.w3.org/2000/svg" viewBox="0 0 535.8 440.27"><title>Asset 8</title><polygon points="509.21 372.53 21.77 372.53 0 0 526.14 5.12 509.21 372.53" style="fill:#773b93"/><polyline points="389.47 350.76 423.33 440.27 457.2 359.23" style="fill:#773b93"/><path d="M132.66,85.23a32.41,32.41,0,0,0,6.77,30c2.77,3.11,6.13,5.65,9.09,8.59a47.82,47.82,0,0,1,13.95,30.65,82.74,82.74,0,0,0,23-6.16,5.77,5.77,0,0,0,2.83-2,5.52,5.52,0,0,0,.61-2.12,34,34,0,0,0-9.71-28.36c-3.51-3.45-7.77-6.11-11.05-9.78-6.1-6.84-8.13-16.56-7.42-25.69A241,241,0,0,1,133,84.19" style="fill:#fff"/><path d="M131.59,85.32a36.17,36.17,0,0,0,8.11,33c4.59,5.24,10.38,9.33,14.44,15A32.9,32.9,0,0,1,160,153.74h3.34l0-1.79c0-2.15-3.31-2.15-3.34,0l0,1.79c0,2.16,3.26,2.15,3.34,0a36.74,36.74,0,0,0-3.56-17.32c-2.83-5.88-7.4-10.38-12.08-14.8-4.86-4.58-9.31-9.32-11.8-15.64a32,32,0,0,1-1.11-19.77c.53-2.08-2.69-3-3.22-.89Z" style="fill:#edefee"/><path d="M154.91,118.84c3.58-1.68,7.68-3.84,11.6-4.54l-1.29-.16.38.18-.77-1.88-.05.23L166,111.5l-.24.1,1.89.76-.1-.14c-1.19-1.78-4.08-.11-2.88,1.69l.09.14a1.71,1.71,0,0,0,1.89.77,2,2,0,0,0,1.45-1.5,1.7,1.7,0,0,0-.77-1.88c-2-1-4.4.49-6.31,1.22-2.62,1-5.2,2.11-7.74,3.3-1.95.91-.25,3.79,1.68,2.88Z" style="fill:#edefee"/><path d="M160.26,126.75a64.61,64.61,0,0,0,11.8-5.35,1.67,1.67,0,0,0-1.68-2.88,60,60,0,0,1-11,5c-2,.69-1.16,3.91.89,3.22Z" style="fill:#edefee"/><path d="M166,134.65l13-4.79-1.29-3.06a3.15,3.15,0,0,0-1.23,1.3c-1,1.9,1.88,3.59,2.88,1.68l0-.09c1.49-1,.58-3.74-1.29-3l-13,4.79c-2,.73-1.14,4,.88,3.22Z" style="fill:#edefee"/><path d="M168.32,142.84,182.19,137l-1.63-2.79-.43.41c-1.56,1.47.8,3.83,2.36,2.36l.44-.41c1.13-1.08-.05-3.45-1.63-2.79l-13.87,5.81c-2,.82-1.1,4,.89,3.22Z" style="fill:#edefee"/><path d="M149.23,89.22c-3.55-.3-5.81,3.32-5.7,6.39.08,2.3,1.08,4.79,3.19,5.76a1.2,1.2,0,0,0,.45.09,1.34,1.34,0,0,0,1.34-1.23,1.28,1.28,0,0,0-.87-1.07h0a3.66,3.66,0,0,1-2.16-3.63,3.76,3.76,0,0,1,3.71-4,3.93,3.93,0,0,1,3.95,3.83A4,4,0,0,1,151,99.08h0a1,1,0,0,0-.58,1.06,1.5,1.5,0,0,0,1.49,1.12.91.91,0,0,0,.45-.11,7.19,7.19,0,0,0,3.13-6c.12-2.91-2.71-5.67-6.27-6" style="fill:#1ca84f"/><path d="M146.78,95.48a2.39,2.39,0,1,1,2.41,2.39,2.4,2.4,0,0,1-2.41-2.39" style="fill:#1ca84f"/><path d="M275.57,250.77a32.4,32.4,0,0,0,6.78,30c2.77,3.12,6.12,5.66,9.09,8.59A47.78,47.78,0,0,1,305.38,320a82.45,82.45,0,0,0,23-6.15,5.79,5.79,0,0,0,2.83-2,5.47,5.47,0,0,0,.61-2.11,34,34,0,0,0-9.71-28.36c-3.51-3.45-7.78-6.11-11.06-9.79C305,264.71,303,255,303.67,245.86a238.86,238.86,0,0,1-27.8,3.86" style="fill:#fff"/><path d="M274.51,250.86a36.18,36.18,0,0,0,8.11,33c4.59,5.24,10.38,9.33,14.44,15a32.9,32.9,0,0,1,5.88,20.36h3.34l0-1.79c0-2.15-3.31-2.15-3.34,0l0,1.79c0,2.15,3.26,2.14,3.34,0A36.75,36.75,0,0,0,302.71,302c-2.82-5.88-7.4-10.38-12.08-14.8-4.85-4.59-9.3-9.33-11.79-15.64a31.93,31.93,0,0,1-1.11-19.77c.53-2.09-2.69-3-3.22-.89Z" style="fill:#edefee"/><path d="M297.83,284.38c3.58-1.68,7.68-3.85,11.6-4.54l-1.29-.17.38.19-.77-1.89-.05.23,1.17-1.16-.24.09,1.88.77-.09-.14c-1.19-1.78-4.09-.11-2.89,1.68l.1.15a1.7,1.7,0,0,0,1.89.76,2,2,0,0,0,1.45-1.49,1.71,1.71,0,0,0-.77-1.89c-2-1-4.41.5-6.31,1.22-2.63,1-5.2,2.11-7.75,3.3-1.94.91-.25,3.79,1.69,2.89Z" style="fill:#edefee"/><path d="M303.18,292.29a64.61,64.61,0,0,0,11.8-5.35,1.67,1.67,0,0,0-1.69-2.89,60.3,60.3,0,0,1-11,5c-2,.68-1.16,3.91.89,3.22Z" style="fill:#edefee"/><path d="M308.87,300.18l13-4.79-1.29-3.05a3.18,3.18,0,0,0-1.23,1.29c-1,1.9,1.87,3.59,2.88,1.69l0-.1c1.49-1,.58-3.74-1.29-3.05L308,297c-2,.74-1.13,4,.89,3.22Z" style="fill:#edefee"/><path d="M311.24,308.38l13.87-5.82-1.63-2.79-.43.41c-1.56,1.48.8,3.84,2.36,2.36l.43-.4c1.14-1.08,0-3.46-1.62-2.8l-13.87,5.82c-2,.81-1.1,4,.89,3.22Z" style="fill:#edefee"/><path d="M292.15,254.76c-3.56-.3-5.81,3.31-5.7,6.38.08,2.31,1.07,4.79,3.19,5.76a1,1,0,0,0,.45.1,1.33,1.33,0,0,0,1.33-1.24,1.27,1.27,0,0,0-.86-1.07h0a3.64,3.64,0,0,1-2.16-3.62,3.77,3.77,0,0,1,3.71-4,4,4,0,0,1,3.95,3.83,4.06,4.06,0,0,1-2.14,3.72h0a1,1,0,0,0-.57,1.06,1.52,1.52,0,0,0,1.49,1.12.91.91,0,0,0,.45-.11,7.24,7.24,0,0,0,3.13-5.95c.11-2.92-2.71-5.68-6.27-6" style="fill:#1ca84f"/><path d="M289.7,261a2.39,2.39,0,1,1,4.78,0,2.39,2.39,0,0,1-4.78,0" style="fill:#1ca84f"/><path d="M183.38,215.41a32.4,32.4,0,0,0,6.78,30c2.77,3.12,6.12,5.66,9.09,8.6a47.76,47.76,0,0,1,13.94,30.65,82.9,82.9,0,0,0,23-6.16,5.76,5.76,0,0,0,2.82-2,5.32,5.32,0,0,0,.62-2.11A34,34,0,0,0,230,246c-3.52-3.45-7.78-6.11-11.06-9.78-6.1-6.84-8.13-16.56-7.41-25.69a238.86,238.86,0,0,1-27.8,3.86" style="fill:#fff"/><path d="M182.32,215.5a36.18,36.18,0,0,0,8.11,33c4.58,5.24,10.37,9.33,14.44,15a32.83,32.83,0,0,1,5.87,20.36h3.34l0-1.79c0-2.15-3.3-2.15-3.34,0l0,1.79c0,2.16,3.27,2.15,3.34,0a36.62,36.62,0,0,0-3.56-17.32c-2.83-5.88-7.4-10.38-12.08-14.8-4.86-4.59-9.31-9.33-11.79-15.64a31.93,31.93,0,0,1-1.11-19.77c.53-2.09-2.69-3-3.22-.89Z" style="fill:#edefee"/><path d="M205.64,249c3.58-1.68,7.67-3.84,11.59-4.54l-1.28-.17.37.19-.76-1.89-.05.23,1.17-1.16-.25.09,1.89.77-.1-.14c-1.18-1.78-4.08-.11-2.88,1.68l.1.15a1.69,1.69,0,0,0,1.88.76,2,2,0,0,0,1.46-1.49,1.71,1.71,0,0,0-.77-1.88c-2-1-4.41.49-6.32,1.21-2.62,1-5.2,2.11-7.74,3.3-1.94.91-.25,3.79,1.69,2.89Z" style="fill:#edefee"/><path d="M211,256.93a65,65,0,0,0,11.81-5.35,1.67,1.67,0,0,0-1.69-2.88,60,60,0,0,1-11,5c-2,.68-1.15,3.91.89,3.22Z" style="fill:#edefee"/><path d="M216.68,264.82l13-4.79-1.29-3a3.17,3.17,0,0,0-1.24,1.3c-1,1.89,1.88,3.58,2.89,1.68l0-.1c1.5-1,.59-3.74-1.28-3.05l-13,4.79c-2,.74-1.13,4,.89,3.22Z" style="fill:#edefee"/><path d="M219,273l13.87-5.81-1.62-2.79-.43.4c-1.57,1.48.8,3.84,2.36,2.36l.43-.4c1.14-1.08,0-3.46-1.62-2.79l-13.88,5.81c-2,.82-1.09,4.05.89,3.22Z" style="fill:#edefee"/><path d="M200,219.4c-3.56-.3-5.81,3.31-5.71,6.39.08,2.3,1.08,4.78,3.19,5.76a1.2,1.2,0,0,0,.45.09,1.33,1.33,0,0,0,1.34-1.24,1.29,1.29,0,0,0-.86-1.07h0a3.62,3.62,0,0,1-2.16-3.62,3.76,3.76,0,0,1,3.71-4,3.93,3.93,0,0,1,3.94,3.82,4,4,0,0,1-2.13,3.72h0a.94.94,0,0,0-.57,1.06,1.52,1.52,0,0,0,1.49,1.12.91.91,0,0,0,.45-.11,7.24,7.24,0,0,0,3.13-6c.11-2.91-2.71-5.67-6.27-6" style="fill:#1ca84f"/><path d="M197.51,225.66a2.39,2.39,0,1,1,2.4,2.39,2.39,2.39,0,0,1-2.4-2.39" style="fill:#1ca84f"/><path d="M265.63,90.16a32.39,32.39,0,0,0,6.77,30c2.77,3.12,6.13,5.66,9.09,8.6a47.77,47.77,0,0,1,13.95,30.65,82.74,82.74,0,0,0,23-6.16,5.79,5.79,0,0,0,2.83-2,5.47,5.47,0,0,0,.61-2.11,34,34,0,0,0-9.71-28.36c-3.51-3.45-7.77-6.11-11.05-9.78-6.1-6.84-8.13-16.56-7.42-25.69a238.56,238.56,0,0,1-27.8,3.86" style="fill:#fff"/><path d="M264.56,90.25a36.18,36.18,0,0,0,8.11,33c4.59,5.24,10.38,9.33,14.45,15A33,33,0,0,1,293,158.67h3.34l0-1.79c0-2.15-3.31-2.15-3.34,0l0,1.79c0,2.16,3.26,2.15,3.34,0a36.74,36.74,0,0,0-3.56-17.32c-2.83-5.88-7.4-10.38-12.08-14.8-4.86-4.59-9.31-9.32-11.8-15.64a32,32,0,0,1-1.11-19.77c.53-2.09-2.69-3-3.22-.89Z" style="fill:#edefee"/><path d="M287.88,123.77c3.58-1.68,7.68-3.84,11.6-4.54l-1.29-.17.38.19-.77-1.89-.05.24,1.17-1.17-.24.09,1.89.77-.1-.14c-1.19-1.78-4.08-.11-2.88,1.68l.09.15a1.7,1.7,0,0,0,1.89.76,1.94,1.94,0,0,0,1.45-1.49,1.7,1.7,0,0,0-.77-1.88c-2-1-4.4.49-6.31,1.21-2.62,1-5.2,2.11-7.74,3.3-1.95.92-.25,3.79,1.68,2.89Z" style="fill:#edefee"/><path d="M293.23,131.68a64.61,64.61,0,0,0,11.8-5.35,1.67,1.67,0,0,0-1.68-2.88,60,60,0,0,1-11,5c-2,.68-1.16,3.91.89,3.22Z" style="fill:#edefee"/><path d="M298.92,139.57l13-4.79-1.29-3.05a3.15,3.15,0,0,0-1.23,1.3c-1,1.89,1.88,3.58,2.88,1.68l0-.1c1.5-1,.58-3.74-1.29-3.05l-13,4.79c-2,.74-1.14,4,.88,3.22Z" style="fill:#edefee"/><path d="M301.29,147.77,315.16,142l-1.63-2.79-.43.4c-1.56,1.48.8,3.84,2.36,2.36l.44-.4c1.13-1.08,0-3.46-1.63-2.79l-13.87,5.81c-1.95.82-1.09,4,.89,3.22Z" style="fill:#edefee"/><path d="M282.2,94.15c-3.55-.3-5.81,3.32-5.7,6.39.08,2.3,1.08,4.78,3.19,5.76a1.2,1.2,0,0,0,.45.09,1.34,1.34,0,0,0,1.34-1.24,1.3,1.3,0,0,0-.87-1.07h0a3.64,3.64,0,0,1-2.16-3.62,3.76,3.76,0,0,1,3.71-4,3.93,3.93,0,0,1,3.95,3.82A4,4,0,0,1,284,104h0a1,1,0,0,0-.58,1.06,1.52,1.52,0,0,0,1.49,1.12.91.91,0,0,0,.45-.11,7.19,7.19,0,0,0,3.13-6c.12-2.91-2.71-5.67-6.27-6" style="fill:#1ca84f"/><path d="M279.75,100.41a2.39,2.39,0,1,1,4.78,0,2.37,2.37,0,0,1-2.37,2.4,2.4,2.4,0,0,1-2.41-2.39" style="fill:#1ca84f"/><path d="M17.25,43.44C16,51.69,19,60.06,23.35,67.22S33.22,80.7,37.7,87.75a80.6,80.6,0,0,1,12.46,43.72,9.55,9.55,0,0,0,.64,4.45c1.67,3.22,6.23,3.16,9.82,2.64l29.11-4.24a4.59,4.59,0,0,0,3-1.2,4.42,4.42,0,0,0,.74-2.63A80.14,80.14,0,0,0,79.86,81.23c-4.41-6.51-9.79-12.36-13.77-19.14a55.55,55.55,0,0,1-7.57-29.37,180.7,180.7,0,0,0-41.77,5.7L18,44.83" style="fill:#fff"/><path d="M13.72,39.41a59.91,59.91,0,0,0,10.75,34.8c4,5.63,8.81,10.58,12.51,16.43a76.45,76.45,0,0,1,8.65,19c2.16,7.22,2.29,14.17,2.81,21.6.26,3.58.33,7.72,4.31,9,4.62,1.44,11,.84,15.7-.16,3.48-.74,6.78-2.07,10.29-2.74a99.49,99.49,0,0,1,12.43-1.25c3.19-.19,3.21-5.19,0-5-5.85.36-11.74.74-17.42,2.27-5.39,1.45-12.31,4-18,2.21-2.93-.95-2.42-5.12-2.52-8-.11-3.08-.16-6.15-.56-9.21a70.74,70.74,0,0,0-4.53-16.58C44,91.27,37.57,83,30.67,74.17a55.63,55.63,0,0,1-12-34.76c0-3.22-5-3.23-5,0Z" style="fill:#edefee"/><path d="M39.29,43.75c-4.09-.35-6.68,3.81-6.56,7.34.1,2.65,1.24,5.51,3.67,6.62a1.17,1.17,0,0,0,.52.11,1.53,1.53,0,0,0,1.54-1.42,1.48,1.48,0,0,0-1-1.23h0A4.19,4.19,0,0,1,35,51a4.33,4.33,0,0,1,4.27-4.59,4.52,4.52,0,0,1,4.53,4.4,4.62,4.62,0,0,1-2.45,4.27h0a1.1,1.1,0,0,0-.66,1.23,1.74,1.74,0,0,0,1.71,1.28,1,1,0,0,0,.52-.13,8.3,8.3,0,0,0,3.6-6.84c.13-3.35-3.11-6.52-7.21-6.87" style="fill:#1ca84f"/><path d="M36.48,50.94a2.75,2.75,0,1,1,2.76,2.75,2.75,2.75,0,0,1-2.76-2.75" style="fill:#1ca84f"/><path d="M38.89,75.36c3.32-.93,6.66-1.79,10-2.55,2.38-.53,7-2.3,9.42-1.86L56.5,68.53l0,.28,1.83-2.41-.22,0c-3.16.54-1.82,5.36,1.33,4.82l.22,0a2.52,2.52,0,0,0,1.84-2.41l0-.28a2.51,2.51,0,0,0-1.83-2.41c-3.09-.56-6.72.73-9.74,1.37-4.16.87-8.28,1.9-12.37,3.05-3.09.86-1.78,5.69,1.33,4.82Z" style="fill:#edefee"/><path d="M44.37,83.65l10.8-2.83c2.84-.75,7.77-3,10.66-2.68L63.42,75l0,.24,2.42-1.84h-.19c-3.22,0-3.23,5,0,5h.19a2.54,2.54,0,0,0,2.41-1.83l0-.24a2.55,2.55,0,0,0-2.41-3.16c-3.11-.37-7.3,1.63-10.33,2.42L43,78.83c-3.11.81-1.79,5.64,1.33,4.82Z" style="fill:#edefee"/><path d="M49.32,91.79a71.58,71.58,0,0,1,19.1-4.29c3.18-.27,3.21-5.27,0-5A76.51,76.51,0,0,0,48,87c-3,1.11-1.69,6,1.33,4.82Z" style="fill:#edefee"/><path d="M60,131.68a90.52,90.52,0,0,1,26.21-6.12c3.18-.25,3.21-5.26,0-5a94.83,94.83,0,0,0-27.54,6.3c-3,1.17-1.67,6,1.33,4.82Z" style="fill:#edefee"/><path d="M397,141.7c-.9,5.87,1.28,11.82,4.35,16.91s7,9.59,10.2,14.6a57.32,57.32,0,0,1,8.86,31.1,6.63,6.63,0,0,0,.46,3.16c1.19,2.29,4.43,2.25,7,1.88l20.71-3a3.25,3.25,0,0,0,2.1-.85,3.17,3.17,0,0,0,.53-1.87,57,57,0,0,0-9.65-35c-3.14-4.63-7-8.79-9.8-13.62a39.52,39.52,0,0,1-5.38-20.88,127.87,127.87,0,0,0-29.71,4l.89,4.56" style="fill:#fff"/><path d="M395.13,138.83a42.09,42.09,0,0,0,4.78,19.92c3.48,6.64,9.16,11.73,12.89,18.23s6.45,14,6.81,21.5c.14,3-.41,6.92.83,9.73.81,1.85,2.53,1.87,4.31,2a31.29,31.29,0,0,0,11.31-1.1,57.45,57.45,0,0,1,13.56-2.1c1.51-.09,1.53-2.46,0-2.37a58.38,58.38,0,0,0-13,1.82,33.82,33.82,0,0,1-12.41,1.35c-.9-.07-1.26.05-1.66-.79s-.33-2.66-.38-3.71c-.12-2.33-.09-4.66-.32-7A46.67,46.67,0,0,0,419,184.83a57.9,57.9,0,0,0-5-10.44A113.66,113.66,0,0,0,406.17,164a40,40,0,0,1-8.67-25.14,1.19,1.19,0,0,0-2.37,0Z" style="fill:#edefee"/><path d="M412.72,141.92c-2.91-.25-4.75,2.71-4.66,5.22.06,1.88.88,3.91,2.61,4.71a.82.82,0,0,0,.37.07,1.08,1.08,0,0,0,1.09-1,1,1,0,0,0-.71-.88h0a3,3,0,0,1-1.76-3,3.07,3.07,0,0,1,3-3.27,3.23,3.23,0,0,1,3.23,3.13,3.3,3.3,0,0,1-1.75,3h0a.78.78,0,0,0-.47.87,1.24,1.24,0,0,0,1.22.91.72.72,0,0,0,.37-.09,5.9,5.9,0,0,0,2.56-4.86c.09-2.39-2.22-4.64-5.13-4.89" style="fill:#1ca84f"/><path d="M410.72,147a2,2,0,1,1,3.91,0,2,2,0,1,1-3.91,0" style="fill:#1ca84f"/><path d="M412.28,163.83c2.36-.66,4.74-1.27,7.13-1.81,1.2-.27,2.4-.52,3.61-.75,1-.19,2.44-.76,3.4-.58l-.87-1.14v.19l.87-1.14-.16,0c-1.5.25-.87,2.54.63,2.29l.16,0a1.2,1.2,0,0,0,.87-1.15l0-.19a1.2,1.2,0,0,0-.87-1.15c-2.16-.39-4.82.59-6.93,1-2.85.6-5.67,1.31-8.48,2.1a1.19,1.19,0,0,0,.63,2.29Z" style="fill:#edefee"/><path d="M416.18,169.73l7.68-2,3.61-1c1.17-.3,2.93-1.12,4.13-1l-1.15-1.51,0,.17,1.14-.87h-.13a1.19,1.19,0,0,0,0,2.37h.13a1.19,1.19,0,0,0,1.15-.87l0-.17a1.21,1.21,0,0,0-1.14-1.5,8.66,8.66,0,0,0-3,.59l-4.52,1.18-8.59,2.25a1.19,1.19,0,0,0,.64,2.3Z" style="fill:#edefee"/><path d="M419.7,175.52a50.6,50.6,0,0,1,13.74-3.08c1.51-.12,1.52-2.5,0-2.37a52.81,52.81,0,0,0-14.37,3.16c-1.42.53-.81,2.82.63,2.29Z" style="fill:#edefee"/><path d="M427.28,203.89a63.36,63.36,0,0,1,18.79-4.38c1.52-.11,1.53-2.49,0-2.37a65.25,65.25,0,0,0-19.42,4.46c-1.4.56-.79,2.85.63,2.29Z" style="fill:#edefee"/><path d="M107,236.69c3.56,10.54,9.69,15,18.36,13.25,8.46-1.69,12.58-6.75,11.18-13.71-1.48-7.39-6.92-10.09-16.24-8.22l-4.92,1-2.28-11.35,4.39-.88c6.75-1.35,10.5-5.44,9.3-11.44s-5.94-9.06-12.69-7.71c-6.53,1.31-9.53,5.81-9.18,13.65l-13.67.18c-1.4-13.65,6.68-23.95,20.81-26.79,6.75-1.35,12.81-.56,17.95,2.31s8.49,7.33,9.75,13.64c.91,4.5.52,8.14-1,11a14.75,14.75,0,0,1-5.59,6l.07.32c3.12,0,6.4,1.39,9.94,4s5.91,6.73,7.07,12.51a21.91,21.91,0,0,1-3.79,17.8c-3.83,5.33-9.93,8.79-18.39,10.48-16.28,3.26-29-3.44-34.48-20.27Z" style="fill:#552e6b"/><path d="M157,185.69c4-7.48,10.39-12.11,19.07-13.84s16.27.08,22.81,5.45,11.1,14.27,13.59,26.69c5.49,27.41-3.18,42.52-20.74,46s-31.39-7.08-36.88-34.5C152.32,203.11,153,193.17,157,185.69Zm21.75-.45c-9.53,1.9-12.9,10.15-9.44,27.39,2,10,4.57,16.69,7.61,20.2s7.2,4.8,12.13,3.81,8.15-3.75,9.61-8.16,1.35-11.64-.65-21.6C194.52,189.64,188.24,183.33,178.71,185.24Z" style="fill:#552e6b"/><path d="M222.08,172.65c4-7.48,10.38-12.11,19.06-13.85s16.27.08,22.81,5.46,11.1,14.26,13.59,26.68c5.49,27.42-3.18,42.52-20.74,46s-31.39-7.08-36.88-34.49C217.43,190.06,218.12,180.12,222.08,172.65Zm21.74-.46c-9.53,1.91-12.89,10.16-9.44,27.4,2,10,4.57,16.69,7.61,20.2s7.2,4.79,12.13,3.81,8.16-3.75,9.61-8.17,1.35-11.63-.65-21.59C259.63,176.6,253.35,170.28,243.82,172.19Z" style="fill:#552e6b"/><path d="M287.19,159.6c4-7.47,10.38-12.1,19.06-13.84s16.28.08,22.81,5.45,11.1,14.27,13.59,26.69c5.49,27.42-3.18,42.52-20.74,46s-31.38-7.08-36.88-34.5C282.54,177,283.23,167.08,287.19,159.6Zm21.74-.45c-9.53,1.91-12.89,10.15-9.44,27.4,2,10,4.57,16.68,7.61,20.19s7.2,4.8,12.13,3.81,8.16-3.75,9.61-8.16,1.35-11.63-.65-21.59C324.74,163.55,318.46,157.24,308.93,159.15Z" style="fill:#552e6b"/><path d="M352.3,146.56c4-7.48,10.38-12.11,19.06-13.84s16.28.08,22.81,5.45,11.1,14.26,13.59,26.69c5.49,27.41-3.18,42.52-20.74,46s-31.38-7.08-36.88-34.5C347.65,164,348.34,154,352.3,146.56ZM374,146.1c-9.53,1.91-12.89,10.16-9.44,27.4,2,10,4.57,16.69,7.61,20.2s7.2,4.8,12.13,3.81,8.16-3.75,9.61-8.17,1.35-11.63-.65-21.59C389.85,150.51,383.57,144.19,374,146.1Z" style="fill:#552e6b"/><path d="M417.41,133.52c4-7.48,10.38-12.11,19.06-13.85s16.28.08,22.81,5.46,11.1,14.26,13.59,26.68c5.49,27.42-3.18,42.52-20.74,46s-31.38-7.08-36.88-34.49C412.76,150.93,413.45,141,417.41,133.52Zm21.74-.46c-9.53,1.91-12.89,10.16-9.44,27.4,2,10,4.57,16.68,7.61,20.2s7.2,4.79,12.13,3.81,8.16-3.76,9.61-8.17,1.35-11.63-.65-21.59C455,137.47,448.68,131.15,439.15,133.06Z" style="fill:#552e6b"/><path d="M508,175l-4.79-23.88-21.31,4.27-2.15-10.71,21.32-4.27-4.34-21.64L508,116.48l4.33,21.63,21.31-4.27,2.15,10.71-21.31,4.27,4.78,23.88Z" style="fill:#552e6b"/><path d="M441.61,15.57C434.55,26.93,431,41,434.4,53.92c2.67,10.19,9.33,18.87,13,28.76a51.61,51.61,0,0,1-2.92,41.51A64.92,64.92,0,0,0,475,132.47a13.84,13.84,0,0,0,6.61-1.11c2.45-1.27,4-3.75,5.27-6.22A50.13,50.13,0,0,0,490,88c-3.17-10.07-9.46-18.9-12.93-28.87A55.69,55.69,0,0,1,484.45,8.9c-15.75-2.32-28.29,2.67-43.66,6.83" style="fill:#fff"/><path d="M482.73,9.31a70.53,70.53,0,0,0-9.19,27.82c-1,10.45,1.56,20.52,5.21,30.25,3.77,10,8.51,19.79,10.51,30.39a43,43,0,0,1,.19,16.11c-.93,4.75-2.91,10.69-7,13.68-4.69,3.46-12.54,2-17.83,1a65.23,65.23,0,0,1-17.24-5.84c-1.92-1-3.61,1.92-1.69,2.88,9.25,4.63,20,7.74,30.41,7.3,10.12-.43,15-9.56,16.64-18.64C496.85,91.41,481,72.1,477.35,50.46,475,36.71,478.88,23,485.61,11c1.06-1.87-1.83-3.56-2.88-1.68Z" style="fill:#edefee"/><path d="M438.93,38.22a80.65,80.65,0,0,1,15.12-3.31c2.45-.28,4.89-.39,7.34-.5a5,5,0,0,0,1.88-.16c.05,0,1.58-.73.9-.84l-1.23-1.61,0,.3.82-1.44-.27.19,2,.27-.17-.15c-1.61-1.42-4,.94-2.36,2.36l.17.15a1.71,1.71,0,0,0,2,.26,2,2,0,0,0,1.09-1.94,1.69,1.69,0,0,0-1.22-1.61c-1.58-.25-2.2.59-3.67.89-2.52.51-5.37.25-7.95.57A84.44,84.44,0,0,0,438,35c-2,.64-1.17,3.87.89,3.22Z" style="fill:#edefee"/><path d="M441.19,51.52l23.16-1.31c2.14-.12,2.15-3.46,0-3.34l-23.16,1.31c-2.14.12-2.15,3.46,0,3.34Z" style="fill:#edefee"/><path d="M448.3,67a91.11,91.11,0,0,1,19.36-1.51c2.15.06,2.15-3.28,0-3.34a94.83,94.83,0,0,0-20.25,1.63c-2.11.39-1.21,3.61.89,3.22Z" style="fill:#edefee"/><path d="M455.06,85.12a134.27,134.27,0,0,1,20.54-1.06c2.15,0,2.15-3.29,0-3.34a134.27,134.27,0,0,0-20.54,1.06c-2.11.28-2.13,3.62,0,3.34Z" style="fill:#edefee"/><path d="M459.06,101.27a67.86,67.86,0,0,1,21.33,2.15c2.08.55,3-2.67.89-3.22a70.55,70.55,0,0,0-22.22-2.27c-2.14.13-2.15,3.47,0,3.34Z" style="fill:#edefee"/><path d="M455.92,116.08,476.49,119c2.1.3,3-2.91.89-3.22l-20.57-2.93c-2.1-.3-3,2.92-.89,3.22Z" style="fill:#edefee"/><path d="M452.79,15.68c-4.09.48-6.68,5.08-6.56,6.91a8.71,8.71,0,0,0,3.67,6,1.07,1.07,0,0,0,.51.13,1.37,1.37,0,0,0,.54-2.64h0a4.34,4.34,0,0,1-2.47-3.94,4.61,4.61,0,0,1,4.27-4.45,4.14,4.14,0,0,1,4.56,4.15,4.61,4.61,0,0,1-2.82,4.24h0a1.36,1.36,0,0,0-.85,1.27A1.37,1.37,0,0,0,455,28.75a1.47,1.47,0,0,0,.53-.1,7.34,7.34,0,0,0,4.51-6.78c0-4.05-3.18-6.67-7.27-6.19" style="fill:#1ca84f"/><path d="M450,21.88a2.78,2.78,0,0,1,2.75-2.76A2.76,2.76,0,1,1,450,21.88" style="fill:#1ca84f"/><path d="M128.75,249.42c-7.06,11.36-10.61,25.41-7.22,38.35,2.68,10.19,9.33,18.87,12.95,28.76a51.54,51.54,0,0,1-2.91,41.5,64.81,64.81,0,0,0,30.61,8.28,13.69,13.69,0,0,0,6.6-1.1c2.45-1.28,4-3.75,5.27-6.22a50.08,50.08,0,0,0,3-37.19c-3.16-10.07-9.46-18.9-12.93-28.87a55.69,55.69,0,0,1,7.43-50.18c-15.76-2.32-28.29,2.67-43.67,6.83" style="fill:#fff"/><path d="M169.86,243.15A70.62,70.62,0,0,0,160.68,271c-1,10.45,1.55,20.52,5.21,30.25,3.76,10,8.51,19.79,10.5,30.39a42.79,42.79,0,0,1,.19,16.11c-.92,4.75-2.91,10.69-7,13.68-4.69,3.46-12.55,2-17.84,1a65.35,65.35,0,0,1-17.24-5.84c-1.91-1-3.61,1.92-1.68,2.88,9.24,4.63,20,7.73,30.41,7.29,10.12-.43,15-9.55,16.64-18.63,4.07-22.82-11.76-42.14-15.43-63.77-2.33-13.75,1.54-27.5,8.27-39.47,1.05-1.88-1.83-3.56-2.89-1.69Z" style="fill:#edefee"/><path d="M126.06,272.07a80.75,80.75,0,0,1,15.13-3.31c2.44-.28,4.88-.39,7.34-.5a4.89,4.89,0,0,0,1.87-.16s1.59-.73.9-.84l-1.22-1.61v.3l.83-1.44-.28.19,2,.26-.17-.15c-1.61-1.41-4,.95-2.36,2.37l.17.14a1.7,1.7,0,0,0,2,.27,2,2,0,0,0,1.09-1.94,1.7,1.7,0,0,0-1.23-1.61c-1.58-.26-2.2.59-3.66.88-2.52.51-5.38.26-7.95.57a85.6,85.6,0,0,0-15.41,3.36c-2,.64-1.17,3.86.89,3.22Z" style="fill:#edefee"/><path d="M128.32,285.37l23.16-1.31c2.14-.12,2.16-3.46,0-3.34L128.32,282c-2.14.12-2.15,3.46,0,3.34Z" style="fill:#edefee"/><path d="M135.43,300.87a90.5,90.5,0,0,1,19.37-1.51c2.15.06,2.15-3.28,0-3.34a94.83,94.83,0,0,0-20.25,1.63c-2.11.39-1.22,3.61.88,3.22Z" style="fill:#edefee"/><path d="M142.19,319a134.47,134.47,0,0,1,20.55-1.06c2.15,0,2.15-3.29,0-3.34a134.47,134.47,0,0,0-20.55,1.06c-2.1.27-2.13,3.62,0,3.34Z" style="fill:#edefee"/><path d="M146.2,335.12a67.6,67.6,0,0,1,21.33,2.15,1.67,1.67,0,0,0,.88-3.22,70.48,70.48,0,0,0-22.21-2.27c-2.14.12-2.15,3.47,0,3.34Z" style="fill:#edefee"/><path d="M143.06,349.93l20.57,2.93c2.1.3,3-2.92.89-3.22L144,346.71c-2.11-.3-3,2.91-.89,3.22Z" style="fill:#edefee"/><path d="M139.93,249.53c-4.1.48-6.69,5.08-6.56,6.91a8.71,8.71,0,0,0,3.67,6,1,1,0,0,0,.51.13,1.38,1.38,0,0,0,.53-2.65h0a4.37,4.37,0,0,1-2.47-3.94,4.63,4.63,0,0,1,4.27-4.44,4.14,4.14,0,0,1,4.56,4.15,4.57,4.57,0,0,1-2.82,4.23h0a1.38,1.38,0,0,0,.54,2.65,1.32,1.32,0,0,0,.53-.11,7.33,7.33,0,0,0,4.5-6.77c0-4.05-3.17-6.67-7.26-6.19" style="fill:#1ca84f"/><path d="M137.11,255.73a2.75,2.75,0,1,1,2.74,2.74,2.76,2.76,0,0,1-2.74-2.74" style="fill:#1ca84f"/><path d="M352.15,118.22c1.87-1.77,2-4.62,2.75-7a83.5,83.5,0,0,1,4.15-10.69A96.22,96.22,0,0,1,369.2,84,87.56,87.56,0,0,1,383,69.42c5.09-4.27,11.27-7.4,15.28-12.79,1.2-1.62-.4-4.33-2.37-4.14-7,.68-12.65,5.5-17.58,10.15A92.62,92.62,0,0,0,364,80a84.18,84.18,0,0,0-9,19.55,86.48,86.48,0,0,0-2.75,10.87c-.46,2.53-1.44,5.39-.18,7.75a.08.08,0,0,0,.12,0Z" style="fill:#fff"/><path d="M84.69,252.69a54.92,54.92,0,0,0-24.14-15.55c-8.28-2.73-20.88-7.36-29.24-3.56-3.1,1.41-3.21,6.95,0,8.33,4.13,1.76,8.08,1.25,12.49,1.33a63,63,0,0,1,14.52,2,232.59,232.59,0,0,1,25.87,8.33c.52.2.82-.51.5-.86Z" style="fill:#fff"/><path d="M97.54,263.11c-11.92,4.13-21.77,16-29,25.87-4.76,6.53-19.9,31.54-3.3,33.44,2,.23,4-1.61,4.51-3.43.62-2.37-.27-4.11-.32-6.4,0-2.67,1.36-5.46,2.19-7.94A105.18,105.18,0,0,1,78,289c5.14-9.89,13.12-17,19.66-25.76,0-.05,0-.13-.09-.11Z" style="fill:#fff"/><path d="M354.89,222.2c8.92,7,15.73,15.48,22.84,24.2,3.49,4.29,6.88,8.68,10.11,13.18,3.06,4.26,5.45,10.45,10.14,13.06,3.33,1.85,7.78-.46,7.71-4.42-.11-5.77-4.92-10.78-8.3-15.17a92.84,92.84,0,0,0-12.14-13c-8.77-7.71-19.69-13.14-30.18-18.07-.14-.07-.32.12-.18.23Z" style="fill:#fff"/><path d="M400.79,231.7c6.15,2.18,13.09,2.54,19.41,4.33A144.24,144.24,0,0,1,439,242.57a147.76,147.76,0,0,1,17.25,8.76c5.5,3.33,10.29,7.84,16.93,8.14a3.73,3.73,0,0,0,3.57-4.7C474.58,248,468,244.64,462,241.5a100.51,100.51,0,0,0-20-8.07A99.3,99.3,0,0,0,421,230c-6.39-.32-14.14-.83-20.23,1.45a.15.15,0,0,0,0,.28Z" style="fill:#fff"/><path d="M255.1,131.32c-10.07-10-18-21.81-21.44-35.75a175.62,175.62,0,0,1-4-19.13c-.88-6.8-.65-13.57-1.09-20.37-.62-9.51-14-9.45-14.73,0-1.14,14.66,4.51,31.37,12.51,43.42s17.28,23.22,28.67,31.94c.07,0,.15-.06.09-.11Z" style="fill:#fdcc30"/><path d="M248.46,85.88a70,70,0,0,1-.6-37.79,99.47,99.47,0,0,1,6.19-16.49c2.41-5.22,6.41-10.59,7-16.37.32-3.12-3.46-4.54-5.8-3.33-5.45,2.79-8.55,10.28-10.57,15.75A67.66,67.66,0,0,0,241,47.94a86.51,86.51,0,0,0,7.08,38.11c.1.24.47.07.41-.17Z" style="fill:#1fa5bd"/><path d="M337,96.91c1.68-5.09,2.13-10.71,3.43-15.94,1.41-5.63,2.94-11.24,4.8-16.74a130.41,130.41,0,0,1,5.62-14.57c2.09-4.35,4.71-6.37,8.4-9.22,3.19-2.45,2.46-7.93-2.17-8-11.45-.17-15.91,15.69-17.75,24.44a150,150,0,0,0-2.95,19.89c-.46,6.43-1.13,13.83.34,20.14a.14.14,0,0,0,.28,0Z" style="fill:#1fa5bd"/><path d="M364,255.48c2,4.27,4.59,8.26,6.62,12.54a69.3,69.3,0,0,1,4.82,15.22c1,4.65,2,9.25,2.81,13.95s1.16,10.09,3.26,14.45a5.51,5.51,0,0,0,4.91,2.82c.51,0,1-.13,1.51-.21a5.51,5.51,0,0,0,4-4c1.93-9.68-3.62-22.21-8.56-30.38-5.09-8.41-11.45-18.33-19.12-24.6a.15.15,0,0,0-.23.18Z" style="fill:#1fa5bd"/><path d="M77.69,231.31c-3.41-8.7-13-15.67-19.85-21.6-8.09-7-15.86-14-25.38-19.15-6.54-3.53-12.29,6.88-5.73,9.81,9.1,4.06,18.7,7.76,27.15,13.1a113.52,113.52,0,0,1,12.18,9.22c3.57,3,7.12,6.77,11.31,8.87.15.07.4-.06.32-.25Z" style="fill:#1fa5bd"/><path d="M80.63,212.52A90.39,90.39,0,0,1,69.25,189.1a93,93,0,0,1-2.86-11.88c-.73-4.31-.69-8.82-1.79-13a6.07,6.07,0,0,0-5.79-4.41,10.61,10.61,0,0,0-1.6.21,6.06,6.06,0,0,0-4.42,5.8c.49,8.95,5.59,18.43,10.18,26a94.55,94.55,0,0,0,17.43,21c.12.11.33,0,.23-.18Z" style="fill:#d03191"/><path d="M203.17,95.13a123,123,0,0,1-9.81-31.44,128.24,128.24,0,0,1-1.6-15.39c-.23-4.92.86-10.61-2.83-14.4a4.29,4.29,0,0,0-6,0c-3.8,4.16-2.3,9.78-1.42,14.9a93.79,93.79,0,0,0,4.91,17.71,106.16,106.16,0,0,0,16.62,28.71c.06.07.15,0,.12-.09Z" style="fill:#d03191"/><path d="M325.33,100.34c-1.78-8.51-3.22-17.25-3.18-26,0-8.37,1.26-16.77,1.22-25.1A6.78,6.78,0,0,0,320,43.4c-2.55-1.38-4.26-1.14-6.86,0-2.23,1-3.22,3.66-3.37,5.87-.61,8.83,1.81,18.71,4.42,27.1A145.12,145.12,0,0,0,324,100.91c.41.78,1.52.22,1.36-.57Z" style="fill:#d03191"/><path d="M414.34,256.49q10.46,9.79,20,20.44c5.94,6.6,11.86,18.25,21.36,19.12,3.57.33,7.25-3.46,7-7C461.91,279,448.84,273,441,268.31a170.46,170.46,0,0,0-26.21-12.56c-.43-.16-.75.45-.44.74Z" style="fill:#d03191"/><path d="M101.57,276.5c-4.29,3.21-6.41,9.46-8.84,14.08C89.9,296,85.6,301.37,87,307.67c.76,3.33,4.68,3.65,7,1.83,4.74-3.79,4.77-11.39,5.85-17,1-4.94,3.13-11,1.82-16a.08.08,0,0,0-.08,0Z" style="fill:#d03191"/><path d="M259,282.48a202.39,202.39,0,0,0-12.63,42.06c-.9,5-3.11,12.79-.31,17.49,2,3.41,7.43,4.82,9.48.67,1.32-2.67-1.61-6.63-4.52-4.52l-.27.19c-1.75,1.26-2.28,4.24,0,5.38l.27.13,1.66-6.16-.07-.11,2.75,2.75c.29.73-.21-2.94-.4-3.77A32,32,0,0,1,254,330c-.11-5.18.13-10.39.49-15.56A228.91,228.91,0,0,1,259,282.51a0,0,0,1,0-.09,0Z" style="fill:#d03191"/><path d="M273.61,299.7c-2.57,4.92-4.79,16.13.69,19.74a2.25,2.25,0,0,0,3.27-1.33c1.15-2.93-.61-5.88-1.42-8.73-.89-3.15-1.27-6.42-2-9.61a.3.3,0,0,0-.54-.07Z" style="fill:#d03191"/><path d="M131.63,167a71.55,71.55,0,0,0-9.27-16.49c-4-5.3-9.86-8.75-15.74-11.63-5.41-2.66-10.14,5.56-4.72,8.07s10.07,5.92,15.19,8.83a59,59,0,0,1,14.29,11.36c.09.1.3,0,.25-.14Z" style="fill:#d03191"/><path d="M136.44,144.42c-.14-3.88-2.07-7.59-3.62-11.09-2.14-4.82-4.48-9.54-7-14.19-4.75-8.85-9-18.07-15.86-25.56a5.28,5.28,0,0,0-8.28,1.07c-1.46,2.07-.55,4.64.83,6.39,5.93,7.54,13.24,13.91,19,21.65,2.78,3.75,5.38,7.67,7.86,11.64,2.14,3.42,3.93,7.4,6.94,10.14,0,0,.13,0,.12-.05Z" style="fill:#d03191"/><path d="M243.44,285.42a57.51,57.51,0,0,0-15,19.7c-2.89,6.06-8.67,16.38-3.65,22.29,1.54,1.82,4.16,1.27,5.77,0,3.09-2.43,2.57-5.82,2.83-9.39a62.22,62.22,0,0,1,1.86-10.91,100.41,100.41,0,0,1,8.64-21.33.3.3,0,0,0-.47-.36Z" style="fill:#1fa5bd"/><path d="M74.45,263.6c-8.92.47-21.62-.31-27.52,7.9a5,5,0,0,0,0,5.22c3.39,4.89,10.68,3.44,9.74-3.08a3.34,3.34,0,0,0-2.4-2.4l-.45-.1c-2.17-.48-4.84,1.49-3.93,3.92l.15.4.89-3.34,2.25-.67,2.57,2-.25-.5.46,3.55c1.1-2.69,5.55-5.63,7.93-7.18,3.16-2.05,7-4.45,10.6-5.42.15,0,.13-.3,0-.29Z" style="fill:#1fa5bd"/><path d="M110.15,301.72a59.21,59.21,0,0,0-3.28,23.53c.45,6.51,1.18,16.85,7,20.65,2.42,1.57,5.56-.5,5.59-3.2,0-3.36-1.63-5.23-3.17-8.12A53.88,53.88,0,0,1,112,323.72a56.69,56.69,0,0,1-1.55-22c0-.17-.24-.19-.29,0Z" style="fill:#fdcc30"/><path d="M374,109.08c6.24-4.72,11.06-11.31,17.14-16.3a80.43,80.43,0,0,1,11.08-7.59c3.48-2,7.51-3.25,10.42-6,2.12-2,.68-6.77-2.62-6.34-8.21,1.08-16.33,8.92-22,14.55S375.39,100.72,373.9,109c0,.06.06.13.11.09Z" style="fill:#fdcc30"/><path d="M368.27,48.19c4.58-4.62,9.19-9.34,14-13.8a62.7,62.7,0,0,1,8.08-6.66c2.5-1.67,4-2.21,4.75-5.19a2.39,2.39,0,0,0-2.29-3c-3.09.25-3.93,1.32-5.91,3.72-2.37,2.88-4.92,5.57-7.35,8.4a87.36,87.36,0,0,0-11.31,16.47s0,.1.08.06Z" style="fill:#fdcc30"/><path d="M332.06,40.43c1.22-4.3,2.44-8.62,4.05-12.8,1.42-3.66,3.64-7,2.87-11-.36-1.88-2.74-2.14-4-1-2.95,2.59-3.05,6.88-3.36,10.61a66.92,66.92,0,0,0,.26,14.22c0,.08.13.11.15,0Z" style="fill:#fdcc30"/><path d="M409,294.38a62.88,62.88,0,0,0,2.1,11.19c.83,3.54,1.09,7.5,3.56,10.28,1.63,1.84,4.23.22,4.43-1.83.34-3.56-2.06-7.25-3.41-10.48a59.62,59.62,0,0,0-4.61-9.72,1.12,1.12,0,0,0-2.07.56Z" style="fill:#fdcc30"/><path d="M100.86,230.51c3.56,10.54,9.68,15,18.36,13.25,8.46-1.69,12.57-6.75,11.17-13.71-1.48-7.39-6.92-10.09-16.24-8.22l-4.92,1L107,211.47l4.4-.88c6.74-1.36,10.49-5.45,9.29-11.45s-5.94-9-12.68-7.7c-6.54,1.31-9.54,5.8-9.19,13.64l-13.67.18c-1.39-13.64,6.68-23.95,20.82-26.78,6.74-1.35,12.81-.56,18,2.31s8.48,7.32,9.75,13.64c.9,4.5.51,8.14-1,11a14.75,14.75,0,0,1-5.59,6l.07.32c3.13,0,6.4,1.39,9.94,4s5.91,6.73,7.07,12.51a21.9,21.9,0,0,1-3.78,17.8c-3.84,5.34-9.94,8.79-18.4,10.48-16.28,3.26-29-3.44-34.47-20.27Z" style="fill:#3ecc52"/><path d="M150.79,179.51c4-7.47,10.38-12.1,19.06-13.84s16.28.08,22.81,5.46,11.1,14.26,13.59,26.68c5.49,27.42-3.18,42.52-20.74,46s-31.38-7.08-36.88-34.5C146.15,196.93,146.83,187,150.79,179.51Zm21.74-.45c-9.53,1.91-12.89,10.16-9.44,27.4,2,10,4.57,16.68,7.61,20.2s7.2,4.79,12.13,3.8,8.16-3.75,9.61-8.16,1.35-11.63-.65-21.59C188.34,183.47,182.06,177.15,172.53,179.06Z" style="fill:#3ecc52"/><path d="M215.9,166.47c4-7.48,10.38-12.11,19.06-13.84s16.28.08,22.81,5.45,11.1,14.26,13.59,26.69c5.49,27.41-3.18,42.52-20.74,46s-31.38-7.08-36.87-34.5C211.26,183.89,211.94,174,215.9,166.47Zm21.74-.46c-9.53,1.91-12.89,10.16-9.44,27.4,2,10,4.57,16.69,7.61,20.2s7.2,4.8,12.13,3.81,8.16-3.75,9.61-8.16,1.35-11.64-.64-21.6C253.45,170.42,247.17,164.11,237.64,166Z" style="fill:#3ecc52"/><path d="M281,153.43c4-7.48,10.38-12.11,19.06-13.85s16.28.08,22.81,5.46,11.1,14.26,13.59,26.68c5.5,27.42-3.18,42.52-20.74,46s-31.38-7.08-36.87-34.49C276.37,170.84,277.05,160.9,281,153.43Zm21.74-.46c-9.53,1.91-12.89,10.16-9.44,27.4,2,10,4.57,16.69,7.61,20.2s7.2,4.79,12.13,3.81,8.16-3.75,9.61-8.17,1.35-11.63-.64-21.59C318.56,157.38,312.28,151.06,302.75,153Z" style="fill:#3ecc52"/><path d="M346.12,140.38c4-7.47,10.38-12.1,19.06-13.84s16.28.08,22.81,5.45,11.1,14.27,13.59,26.69c5.5,27.42-3.17,42.52-20.74,46s-31.38-7.08-36.87-34.5C341.48,157.8,342.16,147.86,346.12,140.38Zm21.74-.45c-9.53,1.91-12.89,10.15-9.44,27.4,2,10,4.57,16.68,7.61,20.19s7.2,4.8,12.13,3.81,8.16-3.75,9.62-8.16,1.34-11.63-.65-21.59C383.67,144.33,377.39,138,367.86,139.93Z" style="fill:#3ecc52"/><path d="M411.23,127.34c4-7.48,10.39-12.11,19.06-13.84s16.28.08,22.81,5.45,11.11,14.26,13.59,26.69c5.5,27.41-3.17,42.52-20.74,46s-31.38-7.08-36.87-34.5C406.59,144.76,407.27,134.82,411.23,127.34Zm21.74-.46c-9.53,1.91-12.89,10.16-9.44,27.4,2,10,4.57,16.69,7.62,20.2s7.19,4.8,12.12,3.81,8.16-3.75,9.62-8.17,1.34-11.63-.65-21.59C448.78,131.29,442.5,125,433,126.88Z" style="fill:#3ecc52"/><path d="M501.85,168.78l-4.78-23.88-21.32,4.27-2.14-10.71,21.31-4.27-4.33-21.63,11.24-2.26,4.33,21.64,21.32-4.27,2.14,10.71-21.31,4.27,4.78,23.88Z" style="fill:#3ecc52"/></svg>