<svg xmlns="http://www.w3.org/2000/svg" viewBox="0 0 484.37 695.07"><title>Asset 7</title><polygon points="410.22 546.09 447.56 625.14 449.27 625.27 484.37 0 0 26.2 34.32 594.44 74.44 541.76 410.22 546.09" style="fill:#296db2"/><polygon points="445.35 695.07 449.27 623.88 410.22 546.09 74.44 541.76 34.32 594.44 393.69 617.75 445.35 695.07" style="fill:#226093"/><path d="M72.51,634.88c-5.56,1.49-11.77-1.35-15-6.12s-3.67-11.08-2-16.58,5.29-10.27,9.55-14.14a47.9,47.9,0,0,1,30-12.28c5.5-.23,11.46.71,15.36,4.58,5.5,5.45,4.84,14.94.63,21.43S100,622.46,93.34,626.44l-9,5.37A32.51,32.51,0,0,1,75.46,636c-3.21.77-6.85.45-9.42-1.63" style="fill:#bdcfd2"/><path d="M66.92,630.83A67.39,67.39,0,0,1,80,611.59c2.25-2.3-1.29-5.84-3.54-3.53A71.44,71.44,0,0,0,62.6,628.31c-1.32,2.91,3,5.45,4.32,2.52Z" style="fill:#9eb6b9"/><path d="M61.47,606.81c5.53-2.36,14.94,2,19.74,4.59A44.72,44.72,0,0,1,95,623.34l.51-3.93-.56.34,3,.39-.51-.41c-2.48-2-6,1.52-3.54,3.54l.51.41a2.59,2.59,0,0,0,3,.39l.56-.34a2.55,2.55,0,0,0,.51-3.93,48.16,48.16,0,0,0-18.89-14.72c-6.12-2.64-14.24-5.34-20.69-2.58-2.95,1.25-.4,5.56,2.53,4.31Z" style="fill:#9eb6b9"/><path d="M436.37,339c.09-.22.17-.44.26-.65,2.4-6.2,4.61-13.13,2.29-19.36-1.32-3.56-4-6.44-6.58-9.22-23.27-24.91-50.83-46.68-77.06-68.77-8.71-7-18-13.84-28.7-17-8-2.37-16.45-2.63-24.8-2.79q-47.22-.93-94.44,1.33c-27.74,1.33-56.58,3.82-80.5,17.94-22.94,13.54-38.77,36.27-52.71,59q-20.28,33-37.31,68l-1.09-1.41c-3.43,7.81,3.34,16.07,9.55,21.92L80,420.61A8.53,8.53,0,0,0,83.6,423c3.74.95,6.67-3.09,8.47-6.5,6.55-12.42,14.48-24.61,24-35q6.91,55.68,15.26,111.18c1.24,8.21,2.69,16.86,8,23.25,7.39,8.9,20.05,10.94,31.57,12.11a803.42,803.42,0,0,0,174-1.18c7.5-.87,15.5-2.08,21.05-7.19,6.93-6.38,7.93-16.8,8.42-26.21,1.56-29.78-.33-61,3.54-90.43,2.76-.5,6.06-.78,8.64-1.94C411.38,389.9,426.44,364.38,436.37,339Z" style="fill:#773b93"/><path d="M136.22,417.14c3.66-.94,8.38.85,9.18,4.92,1,4.95-4.65,9.33-9.16,9.23-8.79-.2-6.21-11.92,0-14.15,3-1.09,1.71-5.92-1.33-4.82A14.49,14.49,0,0,0,125.46,426c.12,6.73,6.22,11.1,12.68,10.21,7-1,13.86-8,12.08-15.43-1.59-6.7-9-10-15.33-8.41C131.78,413.12,133.1,417.94,136.22,417.14Z" style="fill:#9255b7"/><path d="M84.07,320.4c3.66-.94,8.38.85,9.18,4.92,1,4.95-4.65,9.34-9.16,9.23-8.79-.2-6.21-11.92,0-14.15,3-1.08,1.71-5.92-1.33-4.82a14.49,14.49,0,0,0-9.43,13.63c.11,6.73,6.22,11.1,12.68,10.21,7-1,13.86-7.95,12.08-15.43-1.59-6.7-9-10-15.33-8.41C79.63,316.38,81,321.2,84.07,320.4Z" style="fill:#9255b7"/><path d="M123.24,341c3.66-.94,8.38.85,9.18,4.92,1,5-4.65,9.34-9.16,9.23-8.79-.2-6.21-11.92,0-14.15,3-1.08,1.71-5.92-1.33-4.82a14.49,14.49,0,0,0-9.43,13.64c.11,6.73,6.22,11.1,12.68,10.2,7-1,13.86-7.95,12.08-15.43-1.59-6.69-9-10-15.33-8.41C118.8,337,120.12,341.78,123.24,341Z" style="fill:#9255b7"/><path d="M111.13,376.46c3.65-.94,8.37.86,9.18,4.92,1,5-4.65,9.34-9.17,9.24-8.78-.21-6.2-11.93,0-14.16,3-1.08,1.7-5.91-1.33-4.82a14.51,14.51,0,0,0-9.44,13.64c.12,6.73,6.22,11.1,12.69,10.2,7-1,13.86-8,12.08-15.42-1.6-6.7-9-10.05-15.33-8.42C106.68,372.44,108,377.27,111.13,376.46Z" style="fill:#9255b7"/><path d="M144.88,373.87c3.66-.95,8.38.85,9.18,4.92,1,4.95-4.65,9.33-9.17,9.23-8.78-.2-6.2-11.92,0-14.15,3-1.09,1.71-5.92-1.33-4.83a14.49,14.49,0,0,0-9.43,13.64c.11,6.73,6.21,11.1,12.68,10.2,7-1,13.86-7.95,12.08-15.42-1.59-6.7-9-10-15.33-8.42C140.43,369.85,141.75,374.67,144.88,373.87Z" style="fill:#9255b7"/><path d="M176.9,415.41c3.66-.94,8.38.85,9.18,4.92,1,4.95-4.65,9.33-9.17,9.23-8.78-.2-6.2-11.92,0-14.15,3-1.09,1.71-5.92-1.33-4.82a14.47,14.47,0,0,0-9.43,13.63c.11,6.73,6.21,11.1,12.68,10.2,7-1,13.86-7.94,12.08-15.42-1.59-6.7-9-10-15.33-8.41C172.45,411.39,173.77,416.21,176.9,415.41Z" style="fill:#9255b7"/><path d="M239.3,331.09c3.66-.94,8.38.85,9.18,4.92,1,4.95-4.65,9.34-9.16,9.23-8.79-.2-6.21-11.92,0-14.15,3-1.08,1.71-5.92-1.33-4.82a14.49,14.49,0,0,0-9.43,13.64c.11,6.73,6.21,11.1,12.68,10.2,7-1,13.86-7.95,12.08-15.43-1.59-6.7-9-10-15.33-8.41C234.86,327.07,236.18,331.89,239.3,331.09Z" style="fill:#9255b7"/><path d="M273.92,324.17c3.66-.95,8.38.85,9.18,4.92,1,5-4.65,9.33-9.17,9.23-8.78-.2-6.2-11.92,0-14.15,3-1.09,1.7-5.92-1.33-4.83A14.51,14.51,0,0,0,263.15,333c.12,6.73,6.22,11.1,12.69,10.2,7-1,13.86-7.95,12.08-15.42-1.6-6.7-9-10-15.33-8.42C269.47,320.15,270.79,325,273.92,324.17Z" style="fill:#9255b7"/><path d="M277.29,288.19c3.66-.94,8.38.85,9.18,4.92,1,4.95-4.65,9.34-9.17,9.23-8.78-.2-6.2-11.92,0-14.15,3-1.08,1.71-5.92-1.33-4.82A14.47,14.47,0,0,0,266.53,297c.11,6.73,6.21,11.1,12.68,10.21,7-1,13.86-7.95,12.08-15.43-1.59-6.7-9-10-15.33-8.41C272.84,284.17,274.16,289,277.29,288.19Z" style="fill:#9255b7"/><path d="M302.38,303.77c3.66-.95,8.38.85,9.19,4.92,1,4.95-4.66,9.33-9.17,9.23-8.78-.2-6.2-11.92,0-14.15,3-1.09,1.71-5.92-1.32-4.82a14.49,14.49,0,0,0-9.44,13.63c.12,6.73,6.22,11.1,12.69,10.2,7-1,13.86-7.94,12.08-15.42-1.6-6.7-9-10-15.33-8.41C297.94,299.75,299.26,304.57,302.38,303.77Z" style="fill:#9255b7"/><path d="M318.83,329.73c3.66-.94,8.38.85,9.18,4.92,1,5-4.65,9.34-9.17,9.23-8.78-.2-6.2-11.92,0-14.15,3-1.08,1.71-5.92-1.33-4.82a14.48,14.48,0,0,0-9.43,13.64c.11,6.73,6.21,11.1,12.68,10.2,7-1,13.86-7.95,12.08-15.43-1.59-6.7-9-10-15.33-8.41C314.38,325.71,315.7,330.53,318.83,329.73Z" style="fill:#9255b7"/><path d="M322.29,401.56c3.66-.94,8.38.85,9.18,4.92,1,4.95-4.65,9.34-9.16,9.23-8.79-.2-6.21-11.92,0-14.15,3-1.08,1.71-5.92-1.33-4.82a14.49,14.49,0,0,0-9.43,13.64c.11,6.73,6.21,11.1,12.68,10.2,7-1,13.86-7.95,12.08-15.43-1.59-6.69-9-10-15.33-8.41C317.85,397.54,319.17,402.36,322.29,401.56Z" style="fill:#9255b7"/><path d="M292.87,231.94c3.65-.95,8.37.85,9.18,4.92,1,4.95-4.65,9.33-9.17,9.23-8.78-.2-6.2-11.92,0-14.15,3-1.09,1.7-5.92-1.33-4.83a14.51,14.51,0,0,0-9.44,13.64c.12,6.73,6.22,11.1,12.69,10.2,7-1,13.86-7.95,12.08-15.42-1.6-6.7-9-10-15.33-8.42C288.42,227.92,289.74,232.74,292.87,231.94Z" style="fill:#9255b7"/><path d="M244.4,297.71c3.66-.94,8.38.85,9.18,4.92,1,4.95-4.65,9.34-9.16,9.23-8.79-.2-6.21-11.92,0-14.15,3-1.08,1.71-5.92-1.33-4.82a14.49,14.49,0,0,0-9.43,13.63c.11,6.73,6.22,11.1,12.68,10.21,7-1,13.86-8,12.08-15.43-1.59-6.7-9-10-15.33-8.41C240,293.69,241.28,298.51,244.4,297.71Z" style="fill:#9255b7"/><path d="M260.94,357.92c3.65-.94,8.37.85,9.18,4.92,1,5-4.65,9.33-9.17,9.23-8.78-.2-6.2-11.92,0-14.15,3-1.08,1.7-5.92-1.33-4.82a14.5,14.5,0,0,0-9.44,13.63c.12,6.73,6.22,11.1,12.69,10.21,7-1,13.86-7.95,12.08-15.43-1.6-6.7-9-10-15.33-8.41C256.49,353.9,257.81,358.72,260.94,357.92Z" style="fill:#9255b7"/><path d="M298.15,261.93c3.66-.95,8.38.85,9.18,4.92,1,4.95-4.65,9.33-9.17,9.23-8.78-.2-6.2-11.92,0-14.15,3-1.09,1.71-5.92-1.33-4.83a14.49,14.49,0,0,0-9.43,13.64c.11,6.73,6.21,11.1,12.68,10.2,7-1,13.86-7.95,12.08-15.42-1.59-6.7-9-10-15.33-8.42C293.71,257.91,295,262.73,298.15,261.93Z" style="fill:#9255b7"/><path d="M325.84,273.18c3.66-.95,8.38.85,9.18,4.92,1,4.95-4.65,9.33-9.16,9.23-8.79-.2-6.21-11.92,0-14.15,3-1.09,1.71-5.92-1.33-4.83A14.5,14.5,0,0,0,315.08,282c.12,6.73,6.22,11.1,12.68,10.2,7-1,13.86-7.95,12.08-15.42-1.59-6.7-9-10-15.33-8.42C321.4,269.16,322.72,274,325.84,273.18Z" style="fill:#9255b7"/><path d="M348.25,253.57c3.66-.94,8.38.85,9.18,4.92,1,5-4.65,9.34-9.16,9.23-8.79-.2-6.21-11.92,0-14.15,3-1.08,1.71-5.91-1.33-4.82a14.5,14.5,0,0,0-9.43,13.64c.12,6.73,6.22,11.1,12.68,10.2,7-1,13.86-7.95,12.08-15.43-1.59-6.69-9-10-15.33-8.41C343.81,249.55,345.13,254.38,348.25,253.57Z" style="fill:#9255b7"/><path d="M324,236.26c3.66-.94,8.38.86,9.18,4.93,1,4.95-4.65,9.33-9.16,9.23-8.79-.21-6.21-11.93,0-14.16,3-1.08,1.71-5.91-1.33-4.82a14.5,14.5,0,0,0-9.43,13.64c.11,6.73,6.22,11.1,12.68,10.2,7-1,13.86-7.95,12.08-15.42-1.59-6.7-9-10.05-15.33-8.42C319.58,232.24,320.9,237.07,324,236.26Z" style="fill:#9255b7"/><path d="M298.06,382.52c3.66-.94,8.38.85,9.18,4.92,1,4.95-4.65,9.34-9.17,9.23-8.78-.2-6.2-11.92,0-14.15,3-1.08,1.71-5.92-1.33-4.82a14.48,14.48,0,0,0-9.43,13.64c.11,6.73,6.21,11.1,12.68,10.2,7-1,13.86-8,12.08-15.43-1.59-6.69-9-10-15.33-8.41C293.61,378.5,294.93,383.32,298.06,382.52Z" style="fill:#9255b7"/><path d="M338.73,302.9c3.66-.94,8.38.85,9.18,4.92,1,4.95-4.65,9.34-9.16,9.23-8.79-.2-6.21-11.92,0-14.15,3-1.08,1.71-5.92-1.33-4.82A14.49,14.49,0,0,0,328,311.72c.12,6.73,6.22,11.1,12.68,10.2,7-1,13.86-7.95,12.08-15.43-1.59-6.69-9-10-15.33-8.41C334.29,298.88,335.61,303.7,338.73,302.9Z" style="fill:#9255b7"/><path d="M372.48,316.75c3.66-.94,8.38.85,9.18,4.92,1,4.95-4.65,9.33-9.16,9.23-8.78-.2-6.21-11.92,0-14.15,3-1.08,1.71-5.92-1.32-4.82a14.48,14.48,0,0,0-9.44,13.63c.12,6.73,6.22,11.1,12.69,10.21,7-1,13.85-7.95,12.08-15.43-1.6-6.7-9-10-15.33-8.41C368,312.73,369.36,317.55,372.48,316.75Z" style="fill:#9255b7"/><path d="M400.18,301.17c3.66-.94,8.38.85,9.18,4.92,1,5-4.65,9.34-9.17,9.23-8.78-.2-6.2-11.92,0-14.15,3-1.08,1.71-5.92-1.33-4.82A14.48,14.48,0,0,0,389.42,310c.11,6.73,6.21,11.1,12.68,10.2,7-1,13.86-7.95,12.08-15.43-1.59-6.69-9-10-15.33-8.41C395.74,297.15,397.06,302,400.18,301.17Z" style="fill:#9255b7"/><path d="M368.16,281.27c3.66-.95,8.38.85,9.18,4.92,1,4.95-4.65,9.33-9.17,9.23-8.78-.2-6.2-11.92,0-14.15,3-1.09,1.71-5.92-1.33-4.83a14.49,14.49,0,0,0-9.43,13.64c.11,6.73,6.21,11.1,12.68,10.2,7-1,13.86-7.95,12.08-15.42-1.59-6.7-9-10.05-15.33-8.42C363.71,277.25,365,282.07,368.16,281.27Z" style="fill:#9255b7"/><path d="M350.85,340.11c3.66-.94,8.38.86,9.18,4.93,1,4.95-4.65,9.33-9.16,9.23-8.79-.2-6.21-11.92,0-14.16,3-1.08,1.71-5.91-1.33-4.82a14.49,14.49,0,0,0-9.43,13.64c.11,6.73,6.21,11.1,12.68,10.2,7-1,13.86-7.95,12.08-15.42-1.59-6.7-9-10-15.33-8.42C346.41,336.09,347.73,340.92,350.85,340.11Z" style="fill:#9255b7"/><path d="M350.07,420.23c3.66-.94,8.38.85,9.18,4.92,1,5-4.65,9.34-9.16,9.23-8.78-.2-6.21-11.92,0-14.15,3-1.08,1.71-5.92-1.32-4.82A14.48,14.48,0,0,0,339.31,429c.12,6.73,6.22,11.1,12.68,10.21,7-1,13.86-7.95,12.09-15.43-1.6-6.7-9-10-15.33-8.41C345.63,416.21,347,421,350.07,420.23Z" style="fill:#9255b7"/><path d="M293.73,349.63c3.66-.94,8.38.86,9.18,4.93,1,4.95-4.65,9.33-9.16,9.23-8.79-.2-6.21-11.93,0-14.16,3-1.08,1.71-5.91-1.33-4.82A14.5,14.5,0,0,0,283,358.45c.11,6.73,6.22,11.1,12.68,10.2,7-1,13.86-7.95,12.08-15.42-1.59-6.7-9-10.05-15.33-8.42C289.29,345.61,290.61,350.44,293.73,349.63Z" style="fill:#9255b7"/><path d="M324,364.35c3.66-1,8.38.85,9.18,4.92,1,5-4.65,9.33-9.16,9.23-8.79-.2-6.21-11.92,0-14.15,3-1.09,1.71-5.92-1.33-4.82a14.48,14.48,0,0,0-9.43,13.63c.11,6.73,6.22,11.1,12.68,10.2,7-1,13.86-7.94,12.08-15.42-1.59-6.7-9-10-15.33-8.41C319.58,360.33,320.9,365.15,324,364.35Z" style="fill:#9255b7"/><path d="M355.18,384.25c3.65-.94,8.37.85,9.18,4.92,1,5-4.65,9.34-9.17,9.23-8.78-.2-6.2-11.92,0-14.15,3-1.08,1.7-5.91-1.33-4.82a14.5,14.5,0,0,0-9.44,13.64c.12,6.73,6.22,11.1,12.69,10.2,7-1,13.86-7.95,12.08-15.43-1.6-6.69-9-10-15.33-8.41C350.73,380.23,352.05,385.06,355.18,384.25Z" style="fill:#9255b7"/><path d="M110.26,289.05c3.66-.94,8.38.86,9.18,4.93,1,4.95-4.65,9.33-9.16,9.23-8.79-.2-6.21-11.93,0-14.16,3-1.08,1.71-5.91-1.33-4.82a14.5,14.5,0,0,0-9.43,13.64c.11,6.73,6.21,11.1,12.68,10.2,7-1,13.86-7.95,12.08-15.42-1.59-6.7-9-10-15.33-8.42C105.82,285,107.14,289.86,110.26,289.05Z" style="fill:#9255b7"/><path d="M146.61,283.86c3.66-.94,8.38.85,9.18,4.92,1,5-4.65,9.34-9.17,9.23-8.78-.2-6.2-11.92,0-14.15,3-1.08,1.71-5.91-1.33-4.82a14.49,14.49,0,0,0-9.43,13.64c.11,6.73,6.21,11.1,12.68,10.2,7-1,13.86-7.95,12.08-15.43-1.59-6.69-9-10-15.33-8.41C142.16,279.84,143.48,284.67,146.61,283.86Z" style="fill:#9255b7"/><path d="M130.26,312.05c3.65-.94,8.37.85,9.18,4.92,1,4.95-4.65,9.34-9.17,9.23-8.78-.2-6.2-11.92,0-14.15,3-1.08,1.7-5.92-1.33-4.82a14.5,14.5,0,0,0-9.44,13.64c.12,6.73,6.22,11.1,12.69,10.2,7-1,13.86-7.95,12.08-15.43-1.6-6.69-9-10-15.33-8.41C125.81,308,127.13,312.85,130.26,312.05Z" style="fill:#9255b7"/><path d="M168.24,241.46c3.66-1,8.38.85,9.18,4.92,1,5-4.65,9.33-9.16,9.23-8.79-.2-6.21-11.92,0-14.15,3-1.09,1.71-5.92-1.33-4.83a14.5,14.5,0,0,0-9.43,13.64c.12,6.73,6.22,11.1,12.68,10.2,7-1,13.86-8,12.09-15.42-1.6-6.7-9-10-15.34-8.42C163.8,237.44,165.12,242.26,168.24,241.46Z" style="fill:#9255b7"/><path d="M174.39,338c3.66-.94,8.38.86,9.18,4.93,1,4.95-4.65,9.33-9.16,9.23-8.79-.21-6.21-11.93,0-14.16,3-1.08,1.71-5.91-1.33-4.82a14.5,14.5,0,0,0-9.43,13.64c.12,6.73,6.22,11.1,12.68,10.2,7-1,13.86-7.95,12.08-15.42-1.59-6.7-9-10.05-15.33-8.42C170,334,171.27,338.82,174.39,338Z" style="fill:#9255b7"/><path d="M264.31,391.17c3.65-.94,8.37.86,9.18,4.93,1,4.95-4.65,9.33-9.17,9.23-8.78-.2-6.2-11.92,0-14.16,3-1.08,1.7-5.91-1.33-4.82A14.51,14.51,0,0,0,253.54,400c.12,6.73,6.22,11.1,12.69,10.2,7-1,13.86-7.95,12.08-15.42-1.6-6.7-9-10-15.33-8.42C259.86,387.15,261.18,392,264.31,391.17Z" style="fill:#9255b7"/><path d="M289.4,420.6c3.66-.94,8.38.85,9.18,4.92,1,5-4.65,9.34-9.16,9.23-8.79-.2-6.21-11.92,0-14.15,3-1.08,1.71-5.92-1.33-4.82a14.49,14.49,0,0,0-9.43,13.64c.12,6.73,6.22,11.09,12.68,10.2,7-1,13.86-7.95,12.09-15.43-1.6-6.7-9-10-15.34-8.41C285,416.58,286.28,421.4,289.4,420.6Z" style="fill:#9255b7"/><path d="M246.13,421.46c3.66-.94,8.38.86,9.18,4.93,1,4.95-4.65,9.33-9.16,9.23-8.79-.2-6.21-11.92,0-14.16,3-1.08,1.71-5.91-1.33-4.82a14.5,14.5,0,0,0-9.43,13.64c.12,6.73,6.22,11.1,12.68,10.2,7-1,13.86-8,12.08-15.42-1.59-6.7-9-10.05-15.33-8.42C241.69,417.44,243,422.27,246.13,421.46Z" style="fill:#9255b7"/><path d="M209,352.73c3.66-1,8.38.85,9.18,4.92,1,5-4.65,9.33-9.16,9.23-8.79-.2-6.21-11.92,0-14.15,3-1.09,1.71-5.92-1.33-4.83a14.5,14.5,0,0,0-9.43,13.64c.11,6.73,6.21,11.1,12.68,10.2,7-1,13.86-7.95,12.08-15.42-1.59-6.7-9-10.05-15.33-8.42C204.57,348.71,205.89,353.53,209,352.73Z" style="fill:#9255b7"/><path d="M212.47,306.86c3.66-.94,8.38.85,9.18,4.92,1,5-4.65,9.33-9.16,9.23-8.79-.2-6.21-11.92,0-14.15,3-1.09,1.71-5.92-1.33-4.82a14.49,14.49,0,0,0-9.43,13.63c.11,6.73,6.22,11.1,12.68,10.21,7-1,13.86-7.95,12.08-15.43-1.59-6.7-9-10-15.33-8.41C208,302.84,209.35,307.66,212.47,306.86Z" style="fill:#9255b7"/><path d="M181.22,380.79c3.66-.94,8.38.85,9.19,4.92,1,5-4.66,9.34-9.17,9.23-8.78-.2-6.2-11.92,0-14.15,3-1.08,1.71-5.92-1.32-4.82a14.5,14.5,0,0,0-9.44,13.64c.12,6.73,6.22,11.1,12.69,10.2,7-1,13.86-7.95,12.08-15.43-1.6-6.69-9-10-15.33-8.41C176.78,376.77,178.1,381.59,181.22,380.79Z" style="fill:#9255b7"/><path d="M222.77,386c3.65-.94,8.37.86,9.18,4.92,1,5-4.65,9.34-9.17,9.24-8.78-.21-6.2-11.93,0-14.16,3-1.08,1.7-5.91-1.33-4.82A14.51,14.51,0,0,0,212,394.8c.12,6.73,6.22,11.1,12.69,10.2,7-1,13.86-7.95,12.08-15.42-1.6-6.7-9-10.05-15.33-8.42C218.32,382,219.64,386.79,222.77,386Z" style="fill:#9255b7"/><path d="M211.61,418.5c3.65-.94,8.37.85,9.18,4.92,1,4.95-4.65,9.33-9.17,9.23-8.78-.2-6.2-11.92,0-14.15,3-1.08,1.7-5.92-1.33-4.82a14.5,14.5,0,0,0-9.44,13.63c.12,6.73,6.22,11.1,12.69,10.21,7-1,13.86-7.95,12.08-15.43-1.6-6.7-9-10-15.33-8.41C207.16,414.48,208.48,419.3,211.61,418.5Z" style="fill:#9255b7"/><path d="M178.72,270.51c3.66-.94,8.38.85,9.18,4.92,1,4.95-4.65,9.34-9.16,9.23-8.79-.2-6.21-11.92,0-14.15,3-1.08,1.71-5.92-1.33-4.82A14.49,14.49,0,0,0,168,279.33c.11,6.73,6.21,11.1,12.68,10.2,7-1,13.86-7.95,12.08-15.43-1.59-6.7-9-10-15.33-8.41C174.28,266.49,175.6,271.31,178.72,270.51Z" style="fill:#9255b7"/><path d="M177.52,297.37c3.65-.94,8.37.85,9.18,4.92,1,4.95-4.65,9.34-9.17,9.23-8.78-.2-6.2-11.92,0-14.15,3-1.08,1.7-5.92-1.33-4.82a14.5,14.5,0,0,0-9.44,13.63c.12,6.73,6.22,11.1,12.69,10.21,7-1,13.86-7.95,12.08-15.43-1.6-6.7-9-10-15.33-8.41C173.07,293.35,174.39,298.17,177.52,297.37Z" style="fill:#9255b7"/><path d="M130.16,253.57c3.66-.94,8.38.85,9.19,4.92,1,5-4.66,9.34-9.17,9.23-8.78-.2-6.21-11.92,0-14.15,3-1.08,1.71-5.91-1.32-4.82a14.5,14.5,0,0,0-9.44,13.64c.12,6.73,6.22,11.1,12.69,10.2,7-1,13.85-7.95,12.08-15.43-1.6-6.69-9-10-15.33-8.41C125.72,249.55,127,254.38,130.16,253.57Z" style="fill:#9255b7"/><path d="M164.46,166c-14.09-8.26-19-29-10-42.65-3-2.83-3.43-7.48-3-11.6s1.42-8.32.5-12.36-4.68-7.88-8.73-7a15.55,15.55,0,0,1,19.53-1A46.73,46.73,0,0,1,184.8,59.55,21.16,21.16,0,0,0,187,68.42c6-6.11,12.4-12.18,20.27-15.6s17.63-3.7,24.54,1.38c10.06-7.68,26.42-4.91,33.39,5.65,5.82-2.41,12.3-4.12,18.39-2.52S295,64.75,294.13,71c2.34-2.5,6.95-.71,8.34,2.42s.55,6.76-.37,10.06-1.93,6.84-.85,10.09c1.61,4.83,8.27,7.11,12.5,4.28a14.22,14.22,0,0,1-8.75,13.7c4.62,5.72,5.47,13.78,4,21s-5.08,13.77-8.61,20.22" style="fill:#332928"/><path d="M167.49,125.76A424.77,424.77,0,0,0,168.63,180c1.05,12.77,2.34,32,9,43.2,3,5.07,7.73,8.85,12.34,12.53l25.28,20.12c4.33,3.45,8.77,7,14,8.73,6.39,2.16,13.35,1.53,20,.55,5-.72,10.21-1.74,14.06-5,2.78-2.35,4.57-5.62,6.3-8.81l10.87-20.11c3.28-6.06,6.59-12.2,8.31-18.88,1.88-7.31,1.79-15,1.6-22.51-.56-22.59-.42-45.9-1.89-68.2" style="fill:#f6a4a7"/><path d="M177.33,170c-3.61-4.7-7.4-9.55-12.68-12.25s-12.48-2.61-16.4,1.84c-2.71,3.09-3.29,7.51-3.21,11.62a48.57,48.57,0,0,0,4.84,20.25c2.69,5.56,6.9,10.91,12.86,12.56s13.52-2.14,13.87-8.31" style="fill:#f6a4a7"/><path d="M285.34,165.76a45.92,45.92,0,0,1,15.74-19.44c1.93-1.36,4.21-2.62,6.54-2.22,3.5.6,5.31,4.55,5.89,8.06,1.93,11.62-2.91,23.17-7.64,34-2.1,4.78-4.49,9.89-9.07,12.38s-11.82.39-12.3-4.8" style="fill:#f6a4a7"/><path d="M166.38,127.24a19.17,19.17,0,0,0,5.53,15.2,12.46,12.46,0,0,1,2.38,2.65c1.11,2,.65,4.45.24,6.7A105.42,105.42,0,0,0,173,177.67a10.46,10.46,0,0,1-5.82-.7,58,58,0,0,0-6-26.68" style="fill:#332928"/><path d="M286.93,114a27.38,27.38,0,0,1-4,19A9.32,9.32,0,0,0,281,137a8.32,8.32,0,0,0,.72,3.48c3.34,9.25,5.59,19.3,3.47,28.91-.31,1.44-.65,3.18.42,4.2,1.71,1.65,4.87-.49,6.86.81a79,79,0,0,1,4.34-33.28" style="fill:#332928"/><path d="M288.46,126.43l.74,2.93a2.52,2.52,0,0,0,3.07,1.75A2.56,2.56,0,0,0,294,128l-.74-2.93a2.5,2.5,0,0,0-4.82,1.33Z" style="fill:#332928"/><path d="M166.72,119.91a21.48,21.48,0,0,0,15.52,18.22,18.64,18.64,0,0,1,2.91-18.88,11.91,11.91,0,0,0,23.55,1.32,13.79,13.79,0,0,0,24.43-1.22,14.18,14.18,0,0,1,3.91,15,74.35,74.35,0,0,0,17.35-18.47c.7,5.32,7,8.38,12.28,7.59s9.75-4.29,13.93-7.66a19.79,19.79,0,0,1-5.79,18.87,36.33,36.33,0,0,0,20.32-26.31" style="fill:#332928"/><path d="M192.79,160.73a25.41,25.41,0,0,1,18.86,1.75c6.86,3.51,12.94-6.84,6.06-10.36a38.1,38.1,0,0,0-28.11-3c-7.42,2.08-4.27,13.67,3.19,11.57Z" style="fill:#332928"/><path d="M243.65,151.27a48.43,48.43,0,0,1,24.84-1.73l-3.58-2.76.23.32c4.52,6.16,14.94.18,10.36-6.06-3.36-4.58-10.75-4.4-16-4.44a60.13,60.13,0,0,0-19,3.1c-7.31,2.4-4.18,14,3.19,11.57Z" style="fill:#332928"/><path d="M221.92,196.93c-4.7,2.43-5.28,9.56.53,11.2a8.13,8.13,0,0,0,4-.17c1.67-.36,1.91-.63,3.71,0,2.38.9.92.66,2.5,2s3.09,2.44,5.48,2.17A6.25,6.25,0,0,0,243,209c1.28-2.52,1.24-3.22,4.5-3.6a15.49,15.49,0,0,0,4.85-1,5.63,5.63,0,0,0,3.48-5.06c0-.61-1.48-5.36-3.07-4.06,1-.81-.43-2.22-1.42-1.41l-.52.42a1,1,0,0,0-.25,1c.11.5.54,1,.64,1.37l.7.4q1.69.57-.7,3c-1.15,3.64-1.24,3-4.48,3.4-2.13.25-3.48.42-4.79,2.15-.38.49-.19,1.26-.47,1.76-.92,1.68-3.39,3.42-5.4,2.7-1.68-.61-2.28-3.12-3.73-4a4.9,4.9,0,0,0-2.93-.82,12,12,0,0,0-2.13.41,15.89,15.89,0,0,1-1.91.42q-5,1.62-2.4-7.45c1.15-.59.14-2.31-1-1.72Z" style="fill:#332928"/><path d="M208.85,246c-5,6.12-6,14.9-3.63,22.43a18.88,18.88,0,0,0,3.65,6.9,21.44,21.44,0,0,0,6.4,4.65c17.9,9.35,41.34,6.76,56.77-6.26a23.79,23.79,0,0,0,6.42-7.71c4.26-9-1-19.55-6.77-27.71" style="fill:#f6a4a7"/><path d="M197.1,179a8.22,8.22,0,0,1,7.05-.67c3,1.29,6.44.88,8.21-2.15,1.49-2.54.84-6.91-2.15-8.21-6.36-2.76-13-2.77-19.17.66-6.73,3.78-.69,14.15,6.06,10.37Z" style="fill:#fff"/><path d="M256.33,175.72a15.38,15.38,0,0,1,9.27-2c3.23.26,6-2.94,6-6,0-3.46-2.76-5.74-6-6a26.57,26.57,0,0,0-15.33,3.6c-6.69,3.85-.65,14.23,6.06,10.36Z" style="fill:#fff"/><path d="M202.4,180.41l1.14-.58a6,6,0,0,0-1.43-11,6.57,6.57,0,0,0-4.62.61l-1.15.58a6,6,0,0,0-2.15,8.21,6.07,6.07,0,0,0,3.58,2.76,6.55,6.55,0,0,0,4.63-.61Z" style="fill:#332928"/><path d="M260.31,176.57h.58a6,6,0,0,0,6-6,6.05,6.05,0,0,0-1.76-4.24,6.22,6.22,0,0,0-4.24-1.76h-.58a6.18,6.18,0,0,0-4.24,1.76,6.12,6.12,0,0,0-1.76,4.24,6.05,6.05,0,0,0,1.76,4.24,6.22,6.22,0,0,0,4.24,1.76Z" style="fill:#332928"/><path d="M169.12,194.71c2,15,4.82,28.8,15.78,39.92,5.83,5.92,12.35,11.25,18.69,16.62,5.46,4.63,11,9.61,18,11.64,6.83,2,13.9.82,20.8-.08s14.64-.24,21.19-3.18c10.1-4.53,15.4-17.92,19.45-27.41,6.49-15.22,9.37-31.93,9.54-48.42a1.5,1.5,0,0,0-3,0c-.17,16.78-3.25,33.63-10.05,49-2.89,6.55-6.11,13.37-10.77,18.88-5.92,7-13.62,6.93-22.12,7.64s-17.43,3.23-25.9.13c-8.87-3.25-16.31-11.35-23.29-17.45-6.82-6-14.21-11.94-18.47-20.13-4.37-8.38-5.64-17.94-6.86-27.18-.24-1.89-3.25-1.91-3,0Z" style="fill:#332928"/><path d="M223.5,230.07c11,.63,24.1.56,32.94-7,1.47-1.26-.66-3.38-2.12-2.13-8.14,7-20.72,6.7-30.82,6.12-1.93-.1-1.92,2.9,0,3Z" style="fill:#332928"/><path d="M252.83,221.49c1.1-.14,2.57,1.08,2,2.3-.83,1.73,1.76,3.26,2.59,1.51,1.45-3-1-7.25-4.58-6.81a1.54,1.54,0,0,0-1.5,1.5,1.51,1.51,0,0,0,1.5,1.5Z" style="fill:#332928"/><path d="M380.84,369.24A68.57,68.57,0,0,1,404.67,331c3.84-3.08,8.36-5.84,13.28-5.72,7.81.2,13.44,7.31,17.64,13.9A315.64,315.64,0,0,1,469,409.38c2.5,7.51,4.75,15.27,4.66,23.19s-2.49,15.6-5.53,22.88C457.23,481.66,438,503.73,416.23,522c-5.58,4.67-11.59,9.24-18.67,10.94s-15.51-.19-19.51-6.27a107.77,107.77,0,0,1,14.89-46c7-11.59,16.4-22.66,17.39-36.14.62-8.56-2.31-16.94-5.38-24.95a571.22,571.22,0,0,0-23.94-54" style="fill:#f6a4a7"/><path d="M43.28,371l-5.86,20.47c-2.17,7.58-4.36,15.26-4.5,23.14-.39,20.89,13,38.1,24.43,54.29a289.78,289.78,0,0,1,20.16,33.82c3,5.82,6.09,11.65,8.89,17.59,1.87,4,5.58,8.47,5.55,12.92a20.33,20.33,0,0,1-.87,5,90.19,90.19,0,0,1-3.93,12.57,60.48,60.48,0,0,1-10.93,16.49A26,26,0,0,0,71.86,573c-1.58,3.22-.82,6.66.93,9.64,5.78,9.84,35.24,16.8,44.49,9.67,6-4.61,5.79-18.09,8.34-24.9.74-2,2.82-4.29,4.45-3a17.31,17.31,0,0,0,1.89,3.22,23.11,23.11,0,0,0,.12-21.12c-1.18-2.28-2.75-4.35-3.83-6.68-6.24-13.44-4.32-35.79-6.37-50.65-2.59-18.86-6.18-37.8-14.16-55.21-6.35-13.84-15.25-28.39-11.6-43.18.7-2.83,1.86-5.6,1.88-8.51,0-6.93-6.17-12.18-12.23-15.52-7.26-4-15.4-6.9-23.69-6.54s-16.71,4.41-20.81,11.62l5.2-2.72" style="fill:#f6a4a7"/><path d="M79.26,564.44c-4.9,6.73-12.78,11.3-18.89,17.23-7.91,7.67-12.64,17.4-17.22,26.93a3.66,3.66,0,0,0-.55,2.2c.41,2.3,4.41,2.23,6.58.88,3.9-2.42,5.81-6.53,8-10.25a61.34,61.34,0,0,1,24.17-22.56" style="fill:#f6a4a7"/><path d="M78.06,577.14c-1.27,4-3.5,7.6-5.54,11.26a135.9,135.9,0,0,0-13.34,33.89c-.35,1.44-.38,3.45,1,3.88a2.82,2.82,0,0,0,2.27-.67c6.19-4.24,9.3-11.58,12.55-18.33a173.28,173.28,0,0,1,19.53-31.43" style="fill:#f6a4a7"/><path d="M93.49,584.65c-3.17,4.94-5.2,11-7.66,16.35-3.26,7.06-6.56,14.23-7.7,21.92a1.34,1.34,0,0,0,.17,1.13,1.3,1.3,0,0,0,1.06.28c4.3-.32,7.52-4,10-7.49a102.42,102.42,0,0,0,7-11.47c2.36-4.53,4.38-9.23,6.87-13.69,2.17-3.87,3.17-7.94,5-12" style="fill:#f6a4a7"/><path d="M108.74,589.06c-1.12,10.29-8.26,19.57-7.66,29.91,0,.76.34,1.72,1.1,1.74a1.49,1.49,0,0,0,.77-.27c3.11-1.85,5.19-5,6.71-8.33s2.62-6.76,4.39-9.92c1.65-2.94,3.84-5.54,5.57-8.43,3.11-5.17,6.33-15.58,3.66-21.35" style="fill:#f6a4a7"/><path d="M122.91,525.1c-.32,6,3.57,11.39,7.66,15.8s8.74,8.71,10.55,14.45c2.65,8.39-1.2,18.56,3.86,25.76,1.24,1.76,3.06,3.67,2.39,5.72a3.78,3.78,0,0,1-1.57,1.9c-2.6,1.73-6.23,1.19-8.81-.57s-4.3-4.52-5.73-7.3a61.8,61.8,0,0,1-6.34-20.37" style="fill:#f6a4a7"/><path d="M393.26,627.2H124.18L113.32,458.32a8.36,8.36,0,0,1,8.34-8.9H393.28a8.36,8.36,0,0,1,8.34,8.78Z" style="fill:#bdcfd2"/><path d="M124.18,627.2H393.34a0,0,0,0,1,0,0v0a15.69,15.69,0,0,1-15.69,15.69H139.86a15.69,15.69,0,0,1-15.69-15.69v0a0,0,0,0,1,0,0Z" style="fill:#9eb6b9"/><path d="M260.25,510.42a28,28,0,0,0-10.81,53.85,5.44,5.44,0,0,0,2,.4,5.25,5.25,0,0,0,2-10.09h0a17.51,17.51,0,1,1,13.51,0h0a5.25,5.25,0,0,0,2,10.09,5.44,5.44,0,0,0,2-.4,28,28,0,0,0-10.82-53.85" style="fill:#1ca84f"/><path d="M249.75,538.43a10.51,10.51,0,1,1,10.5,10.5,10.5,10.5,0,0,1-10.5-10.5" style="fill:#1ca84f"/></svg>