<svg xmlns="http://www.w3.org/2000/svg" xmlns:xlink="http://www.w3.org/1999/xlink" viewBox="0 0 570.22 398.06"><defs><clipPath id="a"><polygon points="43.96 293.05 0 73.26 561.68 0 501.45 377.71 459.12 296.31 43.96 293.05" style="fill:none"/></clipPath></defs><title>Asset 9</title><path d="M190.23,224.5c-10-3.9-20.62-5.59-31.18-7.25-8.85-1.4-17.74-2.8-26.7-3.09-27.62-.89-54.54,8.77-79.27,21.09A139.73,139.73,0,0,0,34.55,246l9.41,47L254,294.7c-6.54-12.72-13.46-25.25-22.09-36.62C221,243.68,207.06,231.08,190.23,224.5Z" style="fill:#389449"/><path d="M0,73.26,34.55,246a139.73,139.73,0,0,1,18.53-10.79c24.73-12.32,51.65-22,79.27-21.09,9,.29,17.85,1.69,26.7,3.09,10.56,1.66,21.22,3.35,31.18,7.25,16.83,6.58,30.77,19.18,41.7,33.58,8.63,11.37,15.55,23.9,22.09,36.62l205.1,1.61,42.33,81.4L561.69,0Z" style="fill:#d03191"/><g style="clip-path:url(#a)"><path d="M441.65,299.27a24.34,24.34,0,0,0-6.53-19.15,11.54,11.54,0,0,0-6.16-3.73c-3.38-.58-6.67,1.16-10,1.81-9.9,1.9-19-5.59-28.83-7.77A28.75,28.75,0,0,0,360.4,282.7l-1,26.93Z" style="fill:#389449"/><path d="M407.5,276.65c6.63-4.38,12-10.44,18.4-15.15s14.58-8.11,22.24-6a24,24,0,0,1,9,5.16,36,36,0,0,1,12.39,24,32,32,0,0,1-9.31,25.16c-2.14,2.07-5.2,3.91-8,2.82" style="fill:#389449"/><path d="M421.5,263.84c-1.47-9.88,4.71-19.71,13.05-25.21s18.5-7.46,28.41-8.7,20-1.93,29.44-5.32C505.31,220,516,210.56,528.66,205.3s29.8-4.86,37.28,6.63c4,6.19,4.22,14,4.26,21.39.24,46.15-1.37,94.14-22.3,135.27-6,11.76-14.35,23.45-26.85,27.68-7.6,2.57-15.91,2.05-23.77.49-7.46-1.48-14.87-3.95-20.93-8.54-14.12-10.69-19.33-31.5-35.47-38.81" style="fill:#389449"/><circle cx="474.89" cy="126.07" r="94.94" style="fill:#389449"/><path d="M461.45,86.76c-24.91,1.74-42,28.71-41.54,53.68s13.72,47.74,27.5,68.57c6.57,9.92,13.46,19.83,22.56,27.5s20.77,13,32.64,12.11c14.3-1,26.89-11,34.07-23.36s9.59-27,10.22-41.34a185.32,185.32,0,0,0-6.72-58.09c-3.53-12.55-8.59-25-17.53-34.54-20.22-21.46-59.44-20.13-78.15,2.65" style="fill:#aa5735"/><path d="M422,98.15c-6.71,11.25.59,28.11,13.39,30.91s26.47-9.47,25.07-22.5A25,25,0,0,0,500,90.78c1.7,11.6,17.78,18.06,27,10.86a5.89,5.89,0,0,0,2.31-3,6.52,6.52,0,0,0-.36-3.43A37.79,37.79,0,0,0,503.2,70.34c-8.36-2.26-17.25-1.54-25.75.08a127.86,127.86,0,0,0-62.69,31.67" style="fill:#2b2c35"/><path d="M417.36,98.34a18.43,18.43,0,0,1,2.31,33.95c12.1.53,21.09,15.33,16,26.32a14.28,14.28,0,0,1-8.08,7.72c-5.94,2-12.65-1.38-16.34-6.44s-5-11.43-5.95-17.63c-1.51-10.09-2.23-20.64,1-30.31,5-14.84,19.84-25.79,35.49-26.17" style="fill:#2b2c35"/><path d="M464.2,82.92c-7.52,3.55-15.45,6.1-23.13,9.26-5,2-11.67,3.31-16.12,6.28-10.72,7.16-14.41,24.41-13.49,36.3,2,26,21.71,44.88,35.26,65.6,1.71,2.61,3.26,6.35,1,8.53-13.7-5.66-23.22-18.25-30.72-31-7.86-13.37-14.39-28-15.51-43.43s3.89-32,15.82-41.92c6.68-5.54,15-8.68,23.09-11.73l27.41-10.28c6.13-2.3,12.36-4.62,18.89-5.14,11.91-1,23.75,4.33,32.53,12.44s14.77,18.8,19.23,29.88a143.41,143.41,0,0,1,10.31,56.12c0,2.6-.44,5.66-2.71,6.93-3.68,2-7.47-2.57-8.91-6.52-6.58-18-6.14-38-12.11-56.24S502.67,72,483.71,75C476.76,76.15,470.57,79.91,464.2,82.92Z" style="fill:#4a4a5c"/><path d="M531.17,86.52c3.93,12.84,7.85,25.85,9.27,39.26,1.3,12.19-1.29,22.78-2.93,34.66-.83,6-.48,12.36,2.5,17.6,1.34,2.34,3.48,4.56,6.17,4.67,2.17.09,4.15-1.21,5.73-2.71,6.32-6,8.1-15.32,9.19-24" style="fill:#389449"/><path d="M394,107.93c5.1,20.25,5.82,42.28,17,59.95,5.08,8,12.06,14.66,19.68,20.27,7.05,5.18,15.05,8.31,21.28,14.68,1.94,2,3.73,4.3,4.14,7s-1,5.91-3.71,6.61c-1.84.48-3.76-.26-5.51-1a128.18,128.18,0,0,1-31.15-19.41" style="fill:#389449"/><path d="M439,163c5.22-5.43,12.71-8.68,20.35-7.59,4,.58,8-1,9.23-5.24,1-3.51-1.23-8.65-5.24-9.22-13-1.87-25.7,1.82-34.95,11.44-6.69,7,3.9,17.58,10.61,10.61Z" style="fill:#2b2c35"/><path d="M489.84,138.15a40.47,40.47,0,0,1,23-11.71c4-.54,7.5-3.07,7.5-7.5,0-3.64-3.45-8-7.5-7.5-12.88,1.71-24.3,6.89-33.58,16.11-6.86,6.81,3.75,17.42,10.61,10.6Z" style="fill:#2b2c35"/><path d="M475.94,185.51c-4.7,9.2,7.81,16.38,13.24,7.53l-3.43.89c7.06,3.89,18.33,1.56,16.22-8.53l-2.41,3.16a12,12,0,0,0,11.15-14.34c-.54-3.16-5.36-1.82-4.82,1.33a6.94,6.94,0,0,1-6.33,8,2.54,2.54,0,0,0-2.41,3.16c1.23,5.93-6.26,4.33-8.87,2.9a2.55,2.55,0,0,0-3.42.89q-4,4.52-4.61-2.48c1.46-2.86-2.85-5.39-4.31-2.52Z" style="fill:#2b2c35"/><path d="M441.88,176.36A12.14,12.14,0,0,1,465,170.22a.71.71,0,0,1-.41,1.14,52.47,52.47,0,0,1-21.94,5.77c-.34-.42.36-1.11.77-.77" style="fill:#fff"/><path d="M500.05,153.17a10.64,10.64,0,0,1,16.79-12.88,2.72,2.72,0,0,1,.8,1.35c.22,1.27-1.07,2.23-2.2,2.85l-15.07,8.39c-.39-.23.3-.87.5-.47" style="fill:#fff"/><path d="M443.32,178.88c6.23.91,13.31-1.36,19.17-3.31,1.55-.52.82-3-.68-2.44-6,2.39-12.45,3.05-18.49,5.21-.23.08-.3.49,0,.54Z" style="fill:#2b2c35"/><path d="M498.46,155.22a37.45,37.45,0,0,0,9.06-4.84c2.86-1.89,6.38-3.57,8.65-6.15.72-.82,0-2.52-1.19-2-3.2,1.26-6,3.93-8.75,6a38.18,38.18,0,0,0-7.82,7s0,.1,0,.08Z" style="fill:#2b2c35"/><path d="M448.57,173.31c-.35-.55-.07-.49.3-.78a.69.69,0,0,0,.24-.24c.12-.16.14-.19.08-.08.1-.1.07-.1.09-.08s.08,0,0,0h-.14c-.15.06-.11,0,.13.06l-1.09-1.09c.05.19.07.22.06.08v.07c-.08.15,0,.16-.1.19s0-.06-.11.08c.13-.1.11-.1-.07,0a.36.36,0,0,1,.3-.07c-.23,0-.23,0,0,0l1.39,1.39c-.05-.24-.06-.23,0,0,0-.25,0-.25,0,0,0-.13.24-.57,0-.17l.13-.24c.09-.13.06-.11-.08.08.18-.18.17-.18-.05,0,.22-.12.2-.13-.06,0H448.3l-.13-.07q.21.14-.12-.09c-.12-.12-.17-.28,0,0-.1-.26-.12-.31-.07-.14s0,.11,0-.19l.05-.29c-.06.22-.06.23,0,.05a2.19,2.19,0,0,1,.41-.51c-.34.28.27-.1,0,0s-.12,0,.21,0l.31.05c-.47-.1.4.26,0,0l1.26,2.2c0-.21,0-.42,0-.62,0-.58-.14.36,0-.14,0-.14.07-.27.11-.4l-.11.27c.15-.25.13-.23-.08.05.18-.17.19-.18,0,0a1,1,0,0,1-.48.28,1,1,0,0,1-.63,0q-.39-.07-.06,0c-.39-.18-.49-.23-.3-.12s.09,0-.26-.22A1.33,1.33,0,0,1,448,172c-.21-.51,0-2-.17-.79-.07.5-.07.5,0,0-.08.25-.07.26,0,0s.08-.21-.05,0a1,1,0,0,1,.46-.46c-.42.26.39-.05.54-.06-.52,0,.46.12.59.19l.32.25c-.2-.22-.16-.15.14.2l-.08-.15a1.32,1.32,0,0,1,.22.82v-.17a1.58,1.58,0,0,1-.24.85,1.83,1.83,0,0,1-1.06.77c-.52.05-.66.06-.42.06s.1,0-.41-.07c.53.13-.61-.34-.15-.06a1.8,1.8,0,0,1-.83-1.11c0-.53-.05-.67-.06-.43a2.15,2.15,0,0,0,.1.87c.07.24.08.22,0-.06a1.34,1.34,0,0,1,0-.69,1.54,1.54,0,0,1,.73-1c-.38.25.49-.13.7-.12a1.82,1.82,0,0,1,1.2.53c-.42-.4.34.56.08.09.18.47.23.55.14.24l.07.48c0-.59-.22.65,0,.13-.22.46-.26.55-.1.27l-.26.33c.09-.1.19-.19.28-.28-.33.24-.41.31-.21.19s.11-.07-.26.1a6.19,6.19,0,0,0,.8-.34c.58-.29-.21.08,0,0l.28-.07c-.36,0-.4.06-.11,0a2.4,2.4,0,0,0,2.19-1.47,2.36,2.36,0,0,0-.5-2.61,4.82,4.82,0,0,0-8,2.06c-1,3.3,1.74,7.07,5.32,6.26a4.75,4.75,0,0,0,3.42-3.15,3.88,3.88,0,0,0,.2-1.21c0-.32-.24-.84-.15-1.13-.11.36.08.66,0,.33s-.06-.58-.13-.86a3.75,3.75,0,0,0-.49-1.08c-1.89-3-6.77-2.65-7.79.9a4.59,4.59,0,0,0,5.41,5.71,5.06,5.06,0,0,0,3.42-3.25,3,3,0,0,0,.23-1.23c0-.32-.05.29-.05.3,0-.29.12-.59.12-.88a3.74,3.74,0,0,0-1-2.48,4.23,4.23,0,0,0-7.16,1.69c-.46,1.25-.56,3.38.28,4.47a3.91,3.91,0,0,0,4.49.91,4,4,0,0,0,2.6-3.7,4.2,4.2,0,0,0-2.28-3.71,2.93,2.93,0,0,0-3,.09,4.54,4.54,0,0,0-1.51,1.63,4.47,4.47,0,0,0,0,4.23,2,2,0,0,0,1.72,1,3.8,3.8,0,0,0,3.64-2.73c.47-1.56-.17-3.66-2.1-3.57-1.28.07-2.81,1.38-2.49,2.77a2.33,2.33,0,0,0,1.51,1.85.29.29,0,0,0,.32-.42Z" style="fill:#2b2c35"/><path d="M504.1,147.65c.11-.06.09-.05-.08,0a1,1,0,0,1-.51.11h.07a1.72,1.72,0,0,1-1.21-.51l-.6-2.24c0,.13-.19,1.38,0,1.33l0,.1-.05-.46c0,.37.16-.66,0-.3l.19-.45c.31-.38.4-.5.26-.35-.34.36.65-.46.09-.09-.25.17.77-.21.38-.17l-.3.06.83-.11a2.41,2.41,0,0,1-.38,0l.86.11-.26-.07.8.34c-.38-.17-.75-.35-1.14-.5l.82.34a1,1,0,0,1-.17-.1l.69.54-.15-.14.54.69-.07-.12.35.82A2,2,0,0,1,505,146l.12.92a2.94,2.94,0,0,1,0-.42l-.12.92a2.52,2.52,0,0,1,.14-.54l-.35.84a2.22,2.22,0,0,1,.21-.37l-.55.71a2.81,2.81,0,0,1,.29-.31l-.71.55.11-.08-1.78.48h.11l-.94-.12.21.05-.85-.35a1.51,1.51,0,0,1,.28.15l-.72-.56a1.7,1.7,0,0,1,.3.3l-.55-.72a2.71,2.71,0,0,1,.21.37L500,147a2.9,2.9,0,0,1,.12.42l-.13-1a2.08,2.08,0,0,1,0,.43l.13-1a1.8,1.8,0,0,1-.1.4l.36-.86a1.07,1.07,0,0,1-.16.27l.57-.73a1.2,1.2,0,0,1-.23.22l3.52-.93-.1,0,.87.36a.59.59,0,0,1-.17-.1l.73.57a.93.93,0,0,1-.14-.14l.57.74a1.74,1.74,0,0,1-.15-.26l.36.87a2.63,2.63,0,0,1-.08-.3l.14,1a1.08,1.08,0,0,1,0-.31l-.13,1a1.72,1.72,0,0,1,.1-.39l-.37.88a1,1,0,0,1,.11-.17l-.58.74a.62.62,0,0,1,.14-.14l-.75.57a1,1,0,0,1,.17-.1l-.88.37.09,0-1,.13h.1l-1-.13,1.18.16-1-.13.1,0-.88-.36a.51.51,0,0,1,.18.09l-.73-.56a1,1,0,0,1,.15.14l-.56-.73a11.47,11.47,0,0,0,.87,1.14l-.52-.67a.24.24,0,0,1,.06.11l-.32-.75,0,.06-.11-.82v.08a3.17,3.17,0,0,0,.88,2.12,3.37,3.37,0,0,0,2.12.88,3.73,3.73,0,0,0,3.21-1.8,4.12,4.12,0,0,0-.18-4.24,4.18,4.18,0,0,0-4.6-1.87,4.53,4.53,0,0,0-3.06,3.07,4.87,4.87,0,0,0,2.08,5.53,3.83,3.83,0,0,0,5.06-1,4.94,4.94,0,0,0,1-3,5.32,5.32,0,0,0-2.58-4.59,4,4,0,0,0-4.78.41,5.15,5.15,0,0,0-1.53,2.61,5.34,5.34,0,0,0,.1,2.94,4.44,4.44,0,0,0,2.87,2.87,4.36,4.36,0,0,0,4.9-2.19,4.06,4.06,0,0,0-.37-4.77,2.45,2.45,0,0,0-3.92.51,2.57,2.57,0,0,0,0,2.44,1.63,1.63,0,0,0,2.21.58Z" style="fill:#2b2c35"/><path d="M483.92,216.22l-.32-.38-.21,0A3.74,3.74,0,0,0,483.92,216.22Z" style="fill:#2b2c35"/><path d="M494.75,215.93c3,2,17.4-6.59,25-11.45-.15-2.5-.47-5-.81-7.42q-15.12,5.77-29.7,12.83A22.07,22.07,0,0,0,494.75,215.93Z" style="fill:#fff"/><path d="M482.42,214.56a3.15,3.15,0,0,0,1,1.31l.21,0-1.09-1.29A.14.14,0,0,0,482.42,214.56Z" style="fill:#2b2c35"/><path d="M482.42,214.56c-.49,0-.52,1,0,1.22a1.58,1.58,0,0,0,1,.09A3.15,3.15,0,0,1,482.42,214.56Z" style="fill:#2b2c35"/><path d="M494.75,215.93a22.07,22.07,0,0,1-5.47-6c-2.37,1.14-4.74,2.31-7.08,3.5a2.93,2.93,0,0,0,.22,1.17.14.14,0,0,1,.09,0l1.09,1.29.5-.1c3.73-.64,6.27,3.43,8.91,6.14,6.11,6.26,17.81,5.55,23.11-1.42,3.42-4.49,4-10.21,3.67-16C512.15,209.34,497.77,217.94,494.75,215.93Z" style="fill:#2b2c35"/><path d="M405.31,112.17c-8.89,18.27-4.9,41.79,5.91,58.4,6.08,9.33,14.34,15.57,23.5,21.64A65.57,65.57,0,0,1,447.67,203c1.63,1.85,4,4.78,4.14,7.35s-1.07,4.39-.27,6.95l1.08-4.09c-.7.59-1.89,1.69-2.66,2.21a2,2,0,0,0-.71,2.7c2.11,3.4,5.11,3.22,8.48,1.7l-3.25.43c6.32,2.2,9.88-4.86,9.73-10.09-.16-6-4-11.52-8.06-15.65-8.3-8.47-20.25-11.74-29.66-18.74-20-14.88-26.18-40-21.09-63.55a0,0,0,0,0-.09,0Z" style="fill:#2b2c35"/><path d="M528.86,88.16c2.22,9.59,6,18.66,7.71,28.43,1.93,10.92,2,21.14-.67,31.94-2.17,8.7-5.42,17.72-3.73,26.82,1.21,6.56,5.82,13.13,12.81,14.08,5,.67,7.43-6.81,2.17-7.87-8.69-1.74-6.41-15.13-5.31-21.09A95.4,95.4,0,0,0,543.56,136c-1.11-16.15-5.5-34.23-14.61-47.86a.05.05,0,0,0-.09,0Z" style="fill:#2b2c35"/><path d="M491.46,242.54a17,17,0,0,0-8.73,18.17c1.17,5.61,5.26,10.31,10.21,13.19a26.87,26.87,0,0,0,37.26-10.7l-2.83-41.72" style="fill:#aa5735"/></g><g style="clip-path:url(#a)"><path d="M215,124.92l.81-17.09q-1.14,6-1.73,12.07C214.33,121.59,214.64,123.26,215,124.92Z" style="fill:#f6a4a7"/><path d="M261.82,269.14q-2.62-17.26-6.94-34.2a354.72,354.72,0,0,0-28.19-74.48c-4.7-9.13-9.83-18.16-12.57-28.06s-2.83-21,2.27-29.92c3.08-5.4,10.21-15.88-.46-11.89-6.08,2.28-12,9-16,13.88a60.72,60.72,0,0,0-10.21,18.59c-.71,2.08-2.67,19.61-3,19.78a213.41,213.41,0,0,0-40.2,25.91A14.32,14.32,0,0,0,142.6,173c-2.42,4.67.59,10.16,3.11,14.77a87.89,87.89,0,0,1,9.74,28.83c.6,3.92,1,8,2.91,11.46,5.78,10.32,20.64,9.2,31.82,13.06a56.68,56.68,0,0,1,9.75,4.75c1.68,16.74,1.09,33.49-6.43,48.24-1,2-2.14,4-2,6.19a8.52,8.52,0,0,0,1.33,3.71c3.7,6.31,10.74,10.07,17.92,11.48s14.57.79,21.85.16c8.57-.75,17.8-1.78,24.12-7.6,9.46-8.7,7.43-21.89,5.9-33.24Q262.24,272,261.82,269.14Z" style="fill:#f6a4a7"/><path d="M216.64,89.65c-16.81,11.87-27.18,29.9-29.67,50.28-.17,1.37,2,1.37,2.15,0a76.49,76.49,0,0,1,27.74-50c.17-.13-.05-.42-.22-.29Z" style="fill:#040505"/><path d="M169.12,155.87a194.55,194.55,0,0,0-18.49,7c-3.93,1.63-8.13,3.15-10.35,7.05-3.69,6.48,0,17.15,5,22,1.47,1.42,4.34,0,3.6-2.1-2.12-6.08-9.27-14.23-2.26-19.87,3.09-2.48,7.56-3.82,11.17-5.44a136.09,136.09,0,0,0,12.36-6.23,1.32,1.32,0,0,0-1-2.4Z" style="fill:#040505"/><path d="M171.41,177.34c-1.5.16-1.58,1.23-2.62,2.28-2.18,2.2-5.61,3.08-8.51,3.88-4.63,1.29-9.44,2.88-12.47,6.9-2.46,3.29-2.83,7.49-.32,10.89,2.22,3,7,5.69,10.72,4.27a1.67,1.67,0,0,0,.72-2.74c-2.22-2.8-9.08-3-7.94-7.85.89-3.77,6.18-5.51,9.22-6.68,5-1.95,10-4,12-9.38a1.2,1.2,0,0,0-.31-1.18c1.37,1.13-.38-.4-.5-.39Z" style="fill:#040505"/><path d="M179.51,203.06c-6.6-2.93-15.35-3.26-21.23,1.59-4.61,3.81-7.12,11.89-3.19,17,1.34,1.74,4.53,3.31,6.07.9s-1.84-5-1.95-7.3c-.51-10.24,13.53-9.2,20.11-10.77a.81.81,0,0,0,.19-1.46Z" style="fill:#040505"/><path d="M177,222c-7.23-3.34-21.3-4.21-21.57,7.31-.26,11,17.92,12.55,25.28,14.47,12,3.14,23.9,6.71,35.78,1.11a53.51,53.51,0,0,0,13-9.21c3.08-2.82,9.28-7,8.24-11.68a2,2,0,0,0-1.9-1.44c-3.49-.44-5.4,3-7.6,5.26a71,71,0,0,1-8.6,7.66c-7.17,5.21-14.82,7.17-23.61,5.55-9.05-1.67-18.15-4-27.08-6.21-3.44-.86-11.28-3.12-7-8.27,3.38-4.11,9.89-2.36,14.36-1.93A1.42,1.42,0,0,0,177,222Z" style="fill:#040505"/><path d="M198.8,244.23c2.28,20.92-1.35,40.15-12.8,58-1.9,3,2.19,5.56,4.6,3.54a19.62,19.62,0,0,0,2.94-3.1c1.17-1.46.16-4.31-2-3.52a23.42,23.42,0,0,0-4.44,2l4,4c11.95-17.23,16.58-41.09,10.42-61.28-.42-1.4-2.84-1.23-2.67.36Z" style="fill:#040505"/><path d="M171.69,168.75c2.28,3.58,5,7.43,6.24,11.51s.87,7.83.78,11.88c-.15,6.05,1.39,12.3,7.93,14.12l-1.55-3.83c-4,7.56-3,20.39,5.68,24.53a2.59,2.59,0,0,0,3.13-4.05c-4.45-5.34-7.67-10.81-4.32-17.85a2.63,2.63,0,0,0-1.55-3.82c-5.29-1.22-4.72-7.38-4.74-11.53a27.43,27.43,0,0,0-1.49-8.93c-1.86-5.41-4.72-9.77-10.05-12.1,0,0-.09,0-.06.07Z" style="fill:#040505"/><path d="M388.34,226c-6.78,4.54-14,9.27-13.82,19.24.15,8.51,29.52,52,27.91,54a50.78,50.78,0,0,1-39.67,18.44c-6.19-.11-12.28-1.36-18.34-2.61-5.82-1.2-12.47-3-14.86-8.47A18.72,18.72,0,0,1,328.4,300c-3-56.22-25.24-116.47-63.77-158.4,10.71.11,21.2-1.88,31.44,3.62,6.63,3.63,12,18.25,17.84,20.15,12.35,4,20.24-12.17,29.82-16.53,12.06-5.48,28.48-4,40.67.37-3,4.8-1.45,11.17,1.21,16.17s6.35,9.59,7.62,15.12c1.56,6.73-.67,14.16,2.11,20.48,1.55,3.55,4.63,6.66,4.53,10.53C399.68,218.3,394.17,222.06,388.34,226Z" style="fill:#aa5735"/><path d="M270.47,145.84c8.34,12.88,17,25.28,24.12,38.94a309.32,309.32,0,0,1,18.12,41.6,299.94,299.94,0,0,1,16,89.49c.07,2.29,3.58,2.3,3.57,0A280.76,280.76,0,0,0,316,224.59,272.9,272.9,0,0,0,297.63,183c-7.35-13.3-15.55-26.92-25.69-38.31-.7-.79-2.05.24-1.47,1.14Z" style="fill:#2b2c35"/><path d="M309,167c9.5,4.32,20.68-4.75,28.12-9.6,5.73-3.72,11.57-7.09,18.38-8.35,8.35-1.54,16.83-.07,24.79,2.59l-1.34-1.75a38.72,38.72,0,0,0,.57,6.81c.3,1.41,2.77,1.53,3,0a38.71,38.71,0,0,0,.08-6.81,1.87,1.87,0,0,0-1.33-1.75c-13-4.26-26.72-4.71-38.81,2.33-5.51,3.21-10.45,7.28-15.88,10.61-5.69,3.5-11.1,4.64-17.54,5.83a0,0,0,0,0,0,.09Z" style="fill:#2b2c35"/><path d="M363.3,162a57.24,57.24,0,0,1,11.14-1.16c1.2,0,3.95-.17,4.91.82.51.51,1.15,3.47,1.46,4.2a30.19,30.19,0,0,0,8.56,11.29c1.95,1.63,4.76-1.24,2.79-2.78a27.92,27.92,0,0,1-9.94-15,1.69,1.69,0,0,0-1.59-1.2,36,36,0,0,0-17.83,2.68c-.73.32-.18,1.32.5,1.2Z" style="fill:#2b2c35"/><path d="M368,182.6a89.25,89.25,0,0,0,9.31-1.75c3-.71,6.93-2.58,10-2.63,4.83-.09,3.34,5,3.27,8.4a47.1,47.1,0,0,0,.22,9.2,1.71,1.71,0,0,0,3.26,0c.8-4.4.25-9.11.18-13.57-.05-2.64.35-5.93-2.36-7.34-3-1.54-7.06.77-9.88,1.7a106,106,0,0,0-14.09,5.56c-.2.1-.11.46.12.43Z" style="fill:#2b2c35"/><path d="M378,203.9c6.13-2.18,15.87-8.41,19.69-.14,3.42,7.41-.69,13.24-6.75,17.34a97.42,97.42,0,0,0-14.42,11.52c-4.29,4.28-9.58,9.58-11.68,15.36-.77,2.11,2.15,3.51,3.6,2.1,3.32-3.22,5.62-7.5,8.73-11a82.45,82.45,0,0,1,10.2-9.66c6-4.77,13.81-8.57,15.23-16.86.95-5.56-1.16-12.33-6-15.62-5-3.41-15.39,2.89-18.72,6.78-.06.06,0,.19.09.15Z" style="fill:#2b2c35"/><path d="M375.21,235.21c-3,11.47-.74,23,4.1,33.61a95.14,95.14,0,0,0,9.49,16c3.16,4.4,6.48,10,11.12,12.91a1.85,1.85,0,0,0,2.69-2.06c-1.63-4.58-5.42-8.19-8.28-12a121,121,0,0,1-8.76-13.33c-5.75-10.39-8.87-22.28-7-34.16.34-2.15-2.77-3.14-3.35-.92Z" style="fill:#2b2c35"/><path d="M348.07,155c4.39,3.48,6.48,9.41,4.23,14.7a1.89,1.89,0,0,0,.66,2.51c5,3,5.34,11.07,6.41,16.24,1.12,5.42,1.5,12,4.17,16.86.87,1.59,3.12.75,3.23-.88.23-3.52-1-6.89-1.77-10.31-1-4.2-2-8.4-3-12.6-1.18-4.95-2.55-9.81-7.23-12.48l.84,2.07c2.29-6.72-.4-14-6.9-17-.53-.25-1.22.46-.68.88Z" style="fill:#2b2c35"/></g><path d="M383.68,269.34a41.27,41.27,0,0,1,28.46,13.22c1.54,1.61,4-.84,2.45-2.46a37.63,37.63,0,0,0-30.91-11.23.24.24,0,0,0,0,.47Z" style="fill:#2b2c35"/><path d="M407.47,277.27a29,29,0,0,0,8.89-4.58c2.5-1.71,5.94-3.27,7.52-5.91a1.38,1.38,0,0,0-1.54-2c-3,.7-5.53,3.56-7.91,5.4a29.07,29.07,0,0,0-7,7s0,.08.06.07Z" style="fill:#2b2c35"/><path d="M427.29,278.93c-3.61-12.72-6.55-27.8,6-36.67a75.79,75.79,0,0,1,16.33-8.41,44.92,44.92,0,0,1,10.23-2.34c1.68-.22,2.74-.16,3.93-1.49a2.13,2.13,0,0,0,0-2.92l-.26-.33a2,2,0,0,0-2.86,0l-.27.25a1.73,1.73,0,0,0,0,2.41l.13.16a1.51,1.51,0,0,0,2.12,0l.15-.16-2.06.26-.19-.09.74-2.82c-1,.75-4.39.1-5.7.25a29,29,0,0,0-4,.83A60.58,60.58,0,0,0,441.3,232c-6.24,3-12.81,6.2-17.1,11.86-8,10.58-6.79,26,2.3,35.5a.47.47,0,0,0,.79-.45Z" style="fill:#2b2c35"/><path d="M455.59,215.92c1,12.93,9.66,21.56,20.86,27.23,6,3,11.29,5.11,18.09,4.55,6.06-.5,14.25-.69,19-5,1.4-1.27-.12-3.17-1.69-2.9-2.7.46-5.22,1.68-7.91,2.27a71.82,71.82,0,0,1-9.36,1.25c-6.46.55-11.71-1.63-17.43-4.48a40.37,40.37,0,0,1-12.82-9.39c-3.52-4.09-5.51-9.23-8.6-13.58,0,0-.1,0-.1,0Z" style="fill:#2b2c35"/><path d="M486.15,247c-4.37,2-4.95,7.91-5.19,12.24-.29,5.06.43,10.48,3.85,14.45,7.28,8.47,21.56,6.6,31.46,6.54,1.64,0,3.43-1.82,2.71-3.56a10.48,10.48,0,0,0-1.46-2.77c-1-1.3-3.35-1.4-3.77.5a10.13,10.13,0,0,0-.29,3l2.81-2.81c-7.77.05-18.78,2.16-25.75-2.18-9-5.61-4.74-17.13-4.3-25.38a0,0,0,0,0-.07,0Z" style="fill:#2b2c35"/><path d="M104.07,107.08c7.12,30.14,11.6,61.35,7.75,92.08-1,8.14-2.65,16.3-6.2,23.7C100.44,233.67,93,241,81.18,243.76c-10.77,2.55-22.65,2.67-32.37-2.64-16.1-8.81-21.84-27.77-25.1-44.34-4.27-21.74-9-43.36-13.08-65.16-.32-1.75-.63-3.64.12-5.26,1-2.11,3.42-3,5.63-3.78a363.39,363.39,0,0,1,85.23-17.09l1.26,11.15" style="fill:#f6a4a7"/><path d="M25.53,110.44c4.11,9.11,13.3,16.21,23.3,16.15s19.72-8.53,19.62-18.52c3.15,12.42,19,10.71,21.29,2.19,1.42,7.59,10.38,10.23,17,3.37-4.08,6.73-2.18,15.41.49,22.82s6,15.16,4.5,22.88c5-7.18,13-11.87,18.32-18.84S137,122,129.71,117a25,25,0,0,0-6.08-42c7.22-1.21,10.2-18.66,10.2-18.66L1,73.26,11.28,137s10-3.25,12.38-7.87c5.17,2,14-3.17,9.93-11.21" style="fill:#2b2c35"/><path d="M47,237c3.34,7,6.75,14.88,4.44,22.29-.72,2.29-2,4.41-2.39,6.77-.8,4.35,1.4,8.88,4.77,11.74s7.75,4.29,12.11,5c22.41,3.79,46.45-11.18,52.94-33,1.39-4.67,1.66-10.6-2.24-13.52-1.63-1.23-3.72-1.68-5.47-2.73-3.22-1.95-4.84-5.65-6.28-9.11l-7-16.87" style="fill:#f6a4a7"/><path d="M102.69,121.7c7.66,0,7.68-11.91,0-11.91s-7.67,11.91,0,11.91Z" style="fill:#2b2c35"/><path d="M105.25,223.61c-.33,7.47,7.08,14.48,12.93,18,2,1.22,3.93-2.09,1.84-3.15a27.92,27.92,0,0,1-8.62-6.72c-2.2-2.58-3.62-5.69-5.75-8.29-.13-.17-.39,0-.4.17Z" style="fill:#2b2c35"/><path d="M117.56,232.64a48.72,48.72,0,0,1-2.34,20.89,42.88,42.88,0,0,1-4.8,9.45c-1.89,2.85-4.72,5.3-6.12,8.41-.63,1.41.47,3.79,2.33,3,6.69-2.76,10.6-11.71,12.65-18.22a40.13,40.13,0,0,0,.31-23.84c-.32-1.07-2.15-.92-2,.28Z" style="fill:#2b2c35"/><path d="M13.29,128.57A52.24,52.24,0,0,1,22.52,137c2.6,3.26,4.44,7.31,4.26,11.47-.13,3-1.62,6.18-4.44,7.1,5.06,5.85-3.11,20.18-3.11,20.18l-8.68-48.5" style="fill:#2b2c35"/><path d="M103.36,119.27c4.74,24,10.06,48.81,7.87,73.4-1.06,12-4.1,24.39-10.13,34.88A37.37,37.37,0,0,1,89,240.82c-5.46,3.47-10.79,3.64-16.91,4.58-1.91.3-1.55,3,0,3.53,10.47,3.44,22.78-5.37,28.87-13.11,7.94-10.1,11.83-23,13.55-35.62,3.75-27.53-3.26-54.77-11-81,0-.12-.2-.07-.18,0Z" style="fill:#2b2c35"/><path d="M36.61,164.14c3.31,1.16,7.12-.06,10.51-.59,3.7-.59,7.39-1.15,11.14-1.47,10.53-.89,8.7-16-1.95-14.42a46.56,46.56,0,0,0-12.63,3.43c-3.51,1.58-7.84,3.31-9.54,7a4.21,4.21,0,0,0,2.47,6.06Z" style="fill:#2b2c35"/><path d="M89.51,152.24a96,96,0,0,1,9.65-2.13c3.69-.5,6.9-2.82,6.9-6.9,0-3.43-3.17-7.29-6.9-6.9a35.07,35.07,0,0,0-14.51,4.39c-6.17,3.75-2.12,13.21,4.86,11.54Z" style="fill:#2b2c35"/><path d="M43.37,179.15c2.51-.3,4.81-1.61,7.41-2a20.27,20.27,0,0,1,8.1.1,5.58,5.58,0,0,0,5.47-1.44,5.44,5.44,0,0,0,1.65-4,5.79,5.79,0,0,0-4.13-5.43c-4.61-1.14-10.24-.75-14.22,2.06-2.81,2-6.15,6-5.64,9.64a1.4,1.4,0,0,0,1.36,1Z" style="fill:#fff"/><path d="M89.84,170.83c2.15.18,4.92-.55,7-1a17.86,17.86,0,0,1,6.36-.06c3.17.34,6-2.73,6.38-5.63A6.57,6.57,0,0,0,105,157a17.5,17.5,0,0,0-12.18,1c-3.23,1.58-6.88,5.5-6.36,9.37a3.55,3.55,0,0,0,3.42,3.42Z" style="fill:#fff"/><path d="M58.39,170.65a3,3,0,0,0,.35,1.25l.32-2.48a1.21,1.21,0,0,1,.55-.31l-.17,0c-.19.05-.08,0,.35,0-.28,0-.18,0,.31.06l1.18.69-.06-.07.71,1.22c0-.06,0-.13,0-.2a4.41,4.41,0,0,0-.86-1.44l.48.62-.06-.09.31.73a1.42,1.42,0,0,1-.07-.22l.11.83a.81.81,0,0,1,0-.22l-.11.84a.57.57,0,0,1,.07-.22l-.33.76.07-.1L61,173l.08-.08-.65.51a.49.49,0,0,1,.2-.11l-.78.33.22-.05-.87.12a.89.89,0,0,1,.23,0l-.88-.12.11,0-.79-.33a.56.56,0,0,1,.2.11l-.67-.53.08.08-.53-.67.07.09,1.21-4.6-.1.06.8-.34-.1,0,.89-.13a.37.37,0,0,1-.21,0l.9.12-.1,0,.81.35a.72.72,0,0,1-.19-.11l.69.54a.8.8,0,0,1-.17-.15l.54.69a.57.57,0,0,1-.12-.18l.35.82a.66.66,0,0,1-.06-.2l.12.92v-.1l-.12.92a.42.42,0,0,1,.06-.21l-.36.84.06-.08-.55.71.06-.07-.71.55a.56.56,0,0,1,.15-.1L60,173l.18-.05-.94.13a3.54,3.54,0,0,1,.46,0l-.93-.12a.58.58,0,0,1,.18,0,3.54,3.54,0,0,0,3.92-1.6,3.94,3.94,0,0,0,.47-1.75,3.44,3.44,0,0,0-1-2.46,4.29,4.29,0,0,0-4.08-1,4.09,4.09,0,0,0-2.95,3.84,4.18,4.18,0,0,0,2.06,3.62,4.68,4.68,0,0,0,2.13.61,3.71,3.71,0,0,0,2.11-.61,3.47,3.47,0,0,0,1.6-2.45,3.31,3.31,0,0,0-.92-2.82,4.15,4.15,0,0,0-4-1.07,3.87,3.87,0,0,0-2.84,3.59,3.92,3.92,0,0,0,1.83,3.4,3.18,3.18,0,0,0,4.39-1.1l-.95,1a3.43,3.43,0,0,0,1.82-3.2,2.13,2.13,0,0,0-2.05-2,2.16,2.16,0,0,0-.8.08,1.84,1.84,0,0,0-1.32,1.74Z" style="fill:#2b2c35"/><path d="M102.18,160.18c-.15.23-.05.11.29-.37-.14.12-.09.08.16-.12.46-.36.12-.11,0-.05l.75-.32a1.56,1.56,0,0,1-.37.1l.87-.12a1.93,1.93,0,0,1-.48,0l.92.13a2,2,0,0,1-.35-.1l.86.36-.24-.13.76.58c-.35-.29-.72-.53-1.07-.8l.76.59a.93.93,0,0,1-.14-.14l.59.76-.06-.08.38.9,0-.12.13,1a.6.6,0,0,1,0-.23l-.14,1a.83.83,0,0,1,.08-.22l-.39.9.13-.2-.59.78a.91.91,0,0,1,.17-.17l-.77.59a1.54,1.54,0,0,1,.31-.17l-.92.38a1,1,0,0,1,.23,0l-1,.14a.59.59,0,0,1,.23,0l-1-.14.11,0-.92-.39.11,0-1.92-3.34v.08l.52-2,0,.06.6-.78,0,0,1.71-1-.06,0,1-.14h-.07l1,.14a.42.42,0,0,1-.15,0l.93.39a.42.42,0,0,1-.14-.09l.79.61-.06-.06.61.79-.05-.06.4.93,0-.08.14,1v-.07l-.14,1,0-.09-.39.94.06-.11-.61.8.08-.09-.8.61a5.45,5.45,0,0,0,1.31-1.13,3.8,3.8,0,0,0,.89-2.43,3.93,3.93,0,0,0-1.91-3.34,4.28,4.28,0,1,0-3.09,7.92,4.43,4.43,0,0,0,3.19-.42,4,4,0,0,0,2-3.52,4,4,0,0,0-2.84-3.73,4.84,4.84,0,0,0-5.56,2.32,4.61,4.61,0,0,0-.42,3.56,4.48,4.48,0,0,0,3,2.93A4.79,4.79,0,0,0,106.1,165a4.6,4.6,0,0,0,1.23-4.13,2.8,2.8,0,0,0-2.34-2,2.85,2.85,0,0,0-2.81,1.35Z" style="fill:#2b2c35"/><path d="M63.17,209.86c9.31,1.78,18.2.85,27.49,1.17.64,4.37-2.83,10.61-5.88,13.89-3.53,3.8-9.58,5.79-14,3.14-3.55-2.11-5.14-6.78-4.14-10.78a3.08,3.08,0,0,0,.08-2.15,2.65,2.65,0,0,0-.87-.86l-3.52-2.53" style="fill:#2b2c35"/><path d="M84.29,177.06c2.19,5.18,6.45,11.48,3.73,17.16a8.17,8.17,0,0,1-7.61,4.85c-2.66-.15-3.73-2.18-5.66-3.59a1.61,1.61,0,0,0-2.34,1c-1.15,3.26,2,5.67,4.92,6.55A12.06,12.06,0,0,0,88,200.66c8.26-6.58,3.34-18-2.63-24.24-.42-.44-1.36,0-1.1.64Z" style="fill:#2b2c35"/><path d="M87.43,161.39a8.32,8.32,0,0,0-1.35,7.16c.54,2.19,2.1,5.33,4.56,5.77A1.57,1.57,0,0,0,92.38,172c-.95-1.58-2.53-2.43-3.22-4.26a9.37,9.37,0,0,1-.27-5.78c.26-.91-1-1.32-1.46-.61Z" style="fill:#2b2c35"/><path d="M64.16,167.5a19,19,0,0,1-.74,5.19c-.46,1.51-1.62,2.79-1.59,4.4a1.32,1.32,0,0,0,2,1.13c1.86-.85,2.37-3.51,2.63-5.35a10.18,10.18,0,0,0-.88-5.75c-.3-.71-1.39-.31-1.39.38Z" style="fill:#2b2c35"/><path d="M29.21,216.53c.84,8.18,6.29,16.77,12.27,22.21,4.93,4.49,14.45,10.85,21.46,8.46a1.71,1.71,0,0,0,.41-3.08c-2.81-1.51-6.2-1.65-9.2-2.8A32.8,32.8,0,0,1,44,235.14c-6.15-5.45-9-12.3-13.21-19-.41-.65-1.66-.46-1.57.42Z" style="fill:#2b2c35"/><path d="M295.42,132.15c1.57-9.39,3.31-19.21,2.52-28.74a61.75,61.75,0,0,0-3.49-14.58c-1.35-4-3.67-9.88-8.82-9.69-10.41.37-1.89,16.89-.5,21.55,3.15,10.56,7.66,20.06,8.54,31.22.08.93,1.58,1.3,1.75.24Z" style="fill:#fff"/><path d="M312.22,137.08l-.33.31a.25.25,0,0,0,0,.3c3.12,4.15,8.29-8.47,9.1-10,4.34-8.35,10.12-19.63,8.14-29.36-.77-3.77-4.18-7.18-8.15-5.39-4.75,2.13-3.88,8-3.89,12.25,0,5.46.71,10.86.15,16.3a58.32,58.32,0,0,1-1.51,8.61c-.29,1.1-.59,2.24-1,3.31-.07.16-2.39,4.31-2.41,3.73a0,0,0,0,0-.08,0Z" style="fill:#fff"/><path d="M328,145.37c10.49-2.34,21.5-10.09,24.64-20.77,1.41-4.82-5.58-7.75-8.09-3.41-2.41,4.17-4.2,8.66-6.88,12.7a50,50,0,0,1-10,10.85c-.31.26,0,.7.37.63Z" style="fill:#fff"/><path d="M177.18,135.18c-4.63-2.1-9.73-3.12-13.47-6.87s-5.86-8.17-10.65-10.51a5.27,5.27,0,0,0-7.64,5.87c1.56,7,7.87,10,14.11,11.83,5.45,1.56,11.77,3.4,17.39,1.74.85-.25,1.19-1.64.26-2.06Z" style="fill:#fff"/><path d="M181.74,118.35C171.08,109.45,166,95.65,165.12,82c-.54-8.2-13-8.39-12.91,0,.14,17.71,12.41,32.09,29.07,37.1.43.13.83-.47.46-.78Z" style="fill:#fff"/><path d="M189.15,103.76a60,60,0,0,1,2.59-8.7A65.11,65.11,0,0,0,195,86.84c.93-3.44.54-9.16-4.11-9.35-5.52-.22-7.12,7-6.89,11.18a34.08,34.08,0,0,0,5.05,15.1,0,0,0,0,0,.09,0Z" style="fill:#fff"/></svg>