<svg xmlns="http://www.w3.org/2000/svg" viewBox="0 0 520.75 311.16"><title>Asset 1</title><g style="isolation:isolate"><polyline points="435.27 271.8 44.99 253.8 0 98.58 520.75 23.23 435.27 271.8" style="fill:#773b93"/><polyline points="305.18 257.17 352.04 304.04 352.04 256.42" style="fill:#389449"/><path d="M401.86,207.47c-2.1-11.23-5.47-22.8-13.48-30.94-4.54-4.62-10.3-7.84-16.17-10.56A133.68,133.68,0,0,0,328,154.15a96.55,96.55,0,0,0-.78-15.94,32.71,32.71,0,0,1-6.42,13.37,43.92,43.92,0,0,1-7.74,7,113.34,113.34,0,0,1-36.27,17.92c-10.75,3.09-22.18,4.56-33.13,2.32-10.77-2.19-21-8.32-26.66-17.75a49.44,49.44,0,0,0,3.54,11.31A71.57,71.57,0,0,0,175.4,197c-15,17.84-16.37,40.26-19.29,62.21l247.38,10.73A198,198,0,0,0,401.86,207.47Z" style="fill:#389449"/><path d="M273,249.66c1.07-4.89,2.75-9.63,3.66-14.55,2.11-11.35.14-23.47,4.33-34.22.8-2,1.82-4,2-6.22a17.06,17.06,0,0,0-.43-4.66q-1.33-7.24-2.68-14.47c-1,.33-2.06.65-3.1.94a96.69,96.69,0,0,1-9.52,2.23q.73,2.44,1.44,4.92c.88,3.12,1.73,6.35,1.29,9.56s-2,5.85-2.91,8.8a42.94,42.94,0,0,0-1.43,9.79c-.69,9.59-1.56,19.23-4,28.54-1,3.75-2.18,7.42-3.18,11.16a102.92,102.92,0,0,0-2.46,12l15.61.68A59.76,59.76,0,0,1,273,249.66Z" style="fill:#040505"/><path d="M337.2,220.59a93.73,93.73,0,0,1-5.49,36.27c-1.9,5.34,2.16,11.49,7.34,12.92,5.81,1.59,11-2,12.91-7.34a109.93,109.93,0,0,0,6.24-41.85c-.6-13.46-21.61-13.53-21,0Z" style="fill:#5cb94d"/><path d="M146,258.56c-3.14-22.64-9.35-45.29-12.49-67.93a20.68,20.68,0,0,1-.08-7.8,16,16,0,0,1,3.21-5.9,35.22,35.22,0,0,1,25.29-13.05,8.81,8.81,0,0,1,5.32,1c1.94,1.26,2.75,3.65,3.42,5.86,8.71,28.56,37,90.26,37,90.26l-61.12-2.47" style="fill:#5cb94d"/><polygon points="79.86 299.91 92.44 190.81 74.23 190.81 60.74 307.79 239.57 311.16 237.95 302.9 79.86 299.91" style="fill:#9495ac"/><polygon points="237.95 302.9 215.95 190.81 92.44 190.81 79.86 299.91 237.95 302.9" style="fill:#4a4a5c"/><path d="M325.78,131.41a30.43,30.43,0,0,0-3.11-7.21c-4.06-6.65-11.22-10.68-18.17-14.21l-76,20.93a32.86,32.86,0,0,0-11.83,22.41c0,.06,0,.12,0,.19a53.62,53.62,0,0,0,.4,7.53c4.77,14.36,15.89,15.56,26.66,17.75,10.95,2.24,22.38.77,33.13-2.32a113.34,113.34,0,0,0,36.27-17.92,43.92,43.92,0,0,0,7.74-7,32.71,32.71,0,0,0,6.42-13.37A49,49,0,0,0,325.78,131.41Z" style="fill:#040505"/><path d="M246.61,136.83c-6.6,1.36-13.63,2.95-18.29,7.81s-5.25,14.16.58,17.55a15.19,15.19,0,0,0,6.28,1.63c21.16,2.1,42.45-3.79,61.7-12.82,6.95-3.26,13.93-7.11,18.6-13.21,2.2-2.88,3.88-6.58,2.91-10.08-1.58-5.76-8.86-7.45-14.83-7.65a117.34,117.34,0,0,0-59.75,14.21" style="fill:#324a24"/><path d="M192.57,114.36c.64,9.42,7.09,18.31,15.32,22.66,3.29,1.74,7.58,2.75,10.54.5.06,6.76,7.28,12.47,13.88,11s10.64-9.76,7.78-15.88" style="fill:#040505"/><path d="M309.78,72.94l3.36,9.1c1.41,3.83,2.84,7.76,2.82,11.84s-1.79,8.41-5.39,10.33c2.48,1.92,3.14,5.49,2.53,8.56A13.17,13.17,0,0,1,302.9,123a12.06,12.06,0,0,1-12.76-6.38" style="fill:#040505"/><ellipse cx="244.4" cy="71.24" rx="70.27" ry="71.24" style="fill:#040505"/><path d="M300.65,91a282,282,0,0,0-19-39.88l-8.3,3.74c3.06,4.53,4.32,10.53,4.87,16.12.77,7.92.86,16.39,5.3,23,2.06,3.08,4.95,5.53,7,8.59,3.7,5.43,4.56,12.25,5.05,18.8.47,6.21.75,12.61,3.16,18.33a42.36,42.36,0,0,0,7.71-24.18C306.38,107,303.68,98.85,300.65,91Z" style="fill:#f28c8f"/><path d="M290.51,102.53c-2.09-3.06-5-5.51-7-8.59-4.44-6.6-4.53-15.07-5.3-23-.55-5.59-1.81-11.59-4.87-16.12L231.26,33,201.45,87.23q7,15.92,14,31.84c6.59,15,14.49,31.3,29.58,37.65a40.08,40.08,0,0,0,20,2.48,48.57,48.57,0,0,0,29.14-14,44.67,44.67,0,0,0,4.55-5.54c-2.41-5.72-2.69-12.12-3.16-18.33C295.07,114.78,294.21,108,290.51,102.53Z" style="fill:#f6a4a7"/><path d="M219.49,106.75A21.45,21.45,0,0,1,242,99.88c1.36,1.67-.47,4-2.19,5.29-3.12,2.36-6.45,4.6-10.26,5.57s-8.21.48-11.11-2.13l1.17-.86" style="fill:#fff"/><path d="M263.88,88.52a21.45,21.45,0,0,1,22.49-6.86c1.35,1.66-.48,4-2.2,5.28-3.11,2.36-6.45,4.6-10.26,5.57s-8.21.48-11.11-2.13l1.17-.86" style="fill:#fff"/><path d="M221.46,106.78a17.33,17.33,0,0,1,15.76-5.84c4,.46,7.5-3.77,7.5-7.5,0-4.43-3.45-7-7.5-7.5a31.22,31.22,0,0,0-26.37,10.23c-6.41,7.18,4.16,17.83,10.61,10.61Z" style="fill:#040505"/><path d="M265.36,81.76a15.36,15.36,0,0,1,12.23-6.26c9.64-.24,9.67-15.24,0-15a31.26,31.26,0,0,0-25.18,13.68c-2.34,3.31-.59,8.35,2.69,10.27,3.75,2.19,7.91.62,10.26-2.69Z" style="fill:#040505"/><path d="M201.39,64.28a20.13,20.13,0,0,0-1.24,21.18c2.33,4.19,8.06,8,12.85,5.64s4.11-8.54,2.63-13.13c4.82.32,7.05,5.27,11.18,7.36,5.69,2.88,13.73-.91,16.09-6.34s.39-11.48-2.83-16.45c2.91-.68,5.58,1.55,6.82,3.87s1.84,5,4,6.79c4.38,3.7,12.77.64,14.93-4.42s-.23-10.66-3.64-15.06c5.5,4.54,16.16,2.78,19.6-3.24s-1.57-14.15-9.2-14.95" style="fill:#040505"/><path d="M303.45,107.19c-4.47.76-8.14-1.93-9.67-6-2.25-5.94-1.06-12.56-1.41-18.9-.74-13.14-8.53-25.44-19.52-32.67a25,25,0,0,0-6.15-3.08,27.91,27.91,0,0,0-10.19-.76c-13,1-26.09,5.47-35.78,14.25s-15.57,22.13-13.79,35.08c1.6,11.61,8.9,21.63,17,30.14,2.2,2.32,4.56,4.73,5.31,7.83a5.15,5.15,0,0,1-.35,3.82c-2.43,4.13-9.59,1.36-12.78-.19A38.3,38.3,0,0,1,203.36,126a57.29,57.29,0,0,1-11.91-25,43.34,43.34,0,0,1,3.42-27.21,59.29,59.29,0,0,1,11-14.61C218,46.9,233.41,36.7,250.59,36a75.1,75.1,0,0,1,19.26,2.21c7.29,1.62,14.58,3.71,21,7.47A44.57,44.57,0,0,1,310.11,100C308.9,103.18,306.84,106.62,303.45,107.19Z" style="fill:#686a84"/><path d="M314.66,71.24C314.66,31.9,283.2,0,244.4,0s-70.27,31.9-70.27,71.24a71.46,71.46,0,0,0,25.7,55.07,45,45,0,0,0,10,7.56,12.3,12.3,0,0,0,5.82,1.87,5.13,5.13,0,0,0,4.9-3.09c.78-2.35-.79-4.77-2.28-6.74q-5.4-7.16-10.81-14.32c-11.67-15.48-12.64-37.06,0-52.6a54.14,54.14,0,0,1,12.61-11.05c12.39-8.12,27.68-12.57,42.21-9.72C284.78,42.63,299,65.79,297.72,87.8a25.8,25.8,0,0,0,.11,7.24c.54,2.37,2.13,4.67,4.48,5.25a6.31,6.31,0,0,0,6.17-2.51,14.47,14.47,0,0,0,2.52-6.5c.16-.82.28-1.65.38-2.47.32,1.61.44,2.54.44,2.54A72.07,72.07,0,0,0,314.66,71.24Z" style="fill:#389449"/><path d="M250.31,134.67l31.64-14s2.28,13.69-9.69,20S250.31,134.67,250.31,134.67Z" style="fill:#040505"/><path d="M272.26,140.66a17.58,17.58,0,0,0,9.11-11.42,20.14,20.14,0,0,0-7.36,1.65,9.44,9.44,0,0,0-1.07,5.24,5.35,5.35,0,0,1-2.49-3.46c-3.65.78-9.33,4.55-12.52,8A15.18,15.18,0,0,0,272.26,140.66Z" style="fill:#86191e"/><path d="M282,120.7l-31.64,14a23.39,23.39,0,0,0,3.31,3.18,5,5,0,0,0,4.45-2.71A8.27,8.27,0,0,0,267,131.6c3,.4,5.94-1.22,8.59-2.78l3.81-2.24a21.08,21.08,0,0,0,2.74-1.83A19.81,19.81,0,0,0,282,120.7Z" style="fill:#fff"/><path d="M247.89,113.56a5.83,5.83,0,0,0,2.84,5.17c2.15,1.29,3.67.28,5.76.42,1.17.09,2.24.79,3.52.77a7.59,7.59,0,0,0,3.77-1.08,8,8,0,0,0,3.54-6.68l-1.83,2.41a6.83,6.83,0,0,0,5.3-8.52c-.73-3.14-5.55-1.81-4.82,1.33.32,1.36-.61,2.15-1.81,2.37a2.54,2.54,0,0,0-1.84,2.41c-.11,2.19-1.72,2.83-3.72,2.46-.59-.11-1.1-.57-1.73-.67s-4,.94-4-.39c0-3.22-5-3.23-5,0Z" style="fill:#040505"/><path d="M232.07,103.45c-.14-.14-.15-.29.08.11,0,0,.14.47.08.21s0,.5,0,.16,0,.26,0,.25a1.31,1.31,0,0,1-.34.54s-.46.28-.22.16-.29.11-.26.11l-.31,0c.14,0,.1,0-.11,0a1.48,1.48,0,0,1-1-.7,1.57,1.57,0,0,1-.2-.74s.11-.59,0-.32.13-.3.12-.28a1.39,1.39,0,0,1,.52-.53,2.08,2.08,0,0,1,1.32-.18c-.06,0,1.09.72.75.41a1.53,1.53,0,0,1,.43.72c0-.11-.05-.27,0,.11s0,.2,0,.11c0-.38,0,.32,0,.33s-.3.6-.12.29a1.39,1.39,0,0,1-.66.58,1.54,1.54,0,0,1-1.73,0l-.14-.11c.13.14.12.13,0,0a2.26,2.26,0,0,1-.25-.49c.07.21,0,.29,0-.27a1.69,1.69,0,0,1,.13-.59,1.67,1.67,0,0,1,1.48-1c-.23,0-.26-.07.28.06-.32-.08.16.08.23.12-.19-.1-.2-.23.18.16,0,0,.32.47.2.25s.14.35.13.31a1.71,1.71,0,0,1,0,.81,1.67,1.67,0,0,1-.39.67c.06-.06.24-.22-.06,0s-.12.11,0,.06c-.37.14-.47.19-.28.14s.08,0-.14,0c-.44.08.17.13-.28,0a1.82,1.82,0,0,1-.56-.17,1.61,1.61,0,0,1-.51-.53s-.18-.55-.12-.29,0-.37,0-.33c0,.39,0-.22.05-.26-.05.2-.17.31.11-.2-.16.29.09-.1.15-.17-.14.16-.28.11.18-.14a3.19,3.19,0,0,1,1.62-.09c.34.12.18.09.09,0a1.76,1.76,0,0,1,.56.56,1.48,1.48,0,0,1-.13-.21s.22.56.15.31,0,.39,0,.35c0-.44-.13.49-.06.25s-.17.35-.14.31c-.3.48-.33.38-.17.23a1.56,1.56,0,0,1-1.19.44c-.32,0-.18,0,0,0-.48-.13-.39-.16-.21,0a1.23,1.23,0,0,1-.48-.48c.18.3,0-.12-.06-.21a1.63,1.63,0,0,1,0-.76c-.08.33.07-.16.11-.22s.42-.47.14-.21c.06,0,.47-.32.18-.16.49-.27.41-.17.22-.11s.18,0,.26,0c-.39,0,.22,0,.26,0-.33-.08.16.07.22.11.49.29.33.29.19.14l.23.28c.13.37.17.46.11.28s0,.36,0,.32c0-.44-.13.47,0,.17a.76.76,0,0,0,.06-.2l-.14.33c.1-.17.09-.17-.05,0s-.07.08,0,0c-.32.22-.4.27-.23.17s.07-.06-.28.11a2.56,2.56,0,0,0,1.75-3.08,2.53,2.53,0,0,0-3.08-1.74,4.24,4.24,0,0,0-2.86,3.17,4,4,0,0,0,1.81,4.31c2.87,1.66,7.1-1,5.88-4.44a4.14,4.14,0,0,0-3.79-2.79,3.61,3.61,0,0,0-3.53,2.78,4,4,0,0,0,1.66,4.21,3.37,3.37,0,0,0,4.55-.87,4.05,4.05,0,0,0,.34-4.46,3.75,3.75,0,1,0-4.16,5.48,3.53,3.53,0,0,0,4.3-2.32,3.88,3.88,0,0,0-1.73-4.27,3.4,3.4,0,0,0-4.61,1.13,3.79,3.79,0,0,0,.26,4.16,3.29,3.29,0,0,0,5.05.24,3.63,3.63,0,0,0-.43-5.33,3.84,3.84,0,0,0-5.11.54,4.17,4.17,0,0,0,.31,5.68,2.5,2.5,0,1,0,3.53-3.53Z" style="fill:#040505"/><path d="M276.51,85.49a1.84,1.84,0,0,1,.56.55s.21.63.12.26c0,0,.05.68.06.29,0,0-.13.67,0,.3a1.73,1.73,0,0,1-3.1.3c.1.17.1.36-.12-.29.06.18,0,.42,0-.34,0,.21-.13.35,0-.35a1.61,1.61,0,0,1,.51-.76,1.58,1.58,0,0,1,2.64.35c.16.34.05.17,0,.06,0,.44.06.55.05.35s0-.09-.06.34c.06-.21.13-.21-.13.24.06-.11.17-.2-.06,0a1.49,1.49,0,0,1-1.4.54,1.55,1.55,0,0,1-.68-.3c-.29-.21-.11-.1,0,0-.4-.46-.23-.32-.15-.16-.13-.37-.18-.46-.13-.27s0,.09,0-.32a1.53,1.53,0,0,1,1-1.42c.09,0,.81-.11.53-.12s.39.06.34,0c-.37-.08.18.08.22.1-.34-.17.14.11.18.15-.29-.26.11.15.13.19l.15.36c-.07-.27-.08-.16,0,.35v.47c-.18.36-.22.46-.13.3s-.32.35-.37.4c-.24.22-.17.13-.06.07-.41.25-.49.2-.26.14-.61.16-.51,0-.3.06-.71,0-.48-.09-.3,0s.26.15-.25-.13c.35.19-.37-.35-.17-.15a1.85,1.85,0,0,1-.41-1c0,.4,0-.24,0-.27.12-.46.2-.44.08-.24,0,0,.39-.49.11-.21,0,0,.51-.35.17-.16,0,0,.58-.19.2-.11.08,0,.6,0,.26,0,.59,0,.48.08.27,0a1.58,1.58,0,0,1,.65.35c.35.35.27.38.17.19,0,0,.23.61.13.23,0,0,.05.67.06.27,0,0-.13.66,0,.27,0-.08.11-.32,0,0q-.13.31,0,.06l-.24.29c.28-.28-.18.11-.21.13.19-.12.23,0-.24.08-.07,0-.65,0-.22,0a1.32,1.32,0,0,1-.67-.18c.23.14,0,0,0,0l-.12-.1c.14.15.15.14,0,0l-.1-.14a2.39,2.39,0,0,1,.13.21c.12.28-.18-.52-.06-.08a1.42,1.42,0,0,1,0-.71c-.08.41.14-.2.21-.33.19-.35-.16.06.17-.16s-.08,0-.09,0,.61-.27.21-.11.15,0,.26,0c-.4,0,.21,0,.26.06-.46-.12.5.3.1,0a1.62,1.62,0,0,1,.41.37c.09.12.28.75.21.37.12.61,0,.48,0,.27q-.1.61,0,.33c0-.12,0-.09-.05.11-.17.36,0,.08,0,0,.15-.26-.38.44-.09.15a1.44,1.44,0,0,1-.65.39c-.25.06-.58,0-.13,0a2.51,2.51,0,0,0,2.5-2.5,2.59,2.59,0,0,0-2.5-2.5,4,4,0,0,0-2.38,7.21,4.25,4.25,0,0,0,4.33.11,4,4,0,0,0,2-4.33,4.4,4.4,0,0,0-3.16-3.36A4,4,0,0,0,272.49,84a4.19,4.19,0,0,0,.08,4.27,3.8,3.8,0,0,0,4.72,1.35,3.88,3.88,0,0,0,2.49-3.76,3.73,3.73,0,0,0-2.94-3.38,3.88,3.88,0,0,0-4.21,1.63,3.64,3.64,0,0,0,1,4.73,3.72,3.72,0,0,0,4.86-.09,3.68,3.68,0,0,0,.41-4.66A3.63,3.63,0,0,0,274,82.9a3.94,3.94,0,0,0-1.64,4.35A3.47,3.47,0,0,0,278,89,3.59,3.59,0,0,0,278,84a3.32,3.32,0,0,0-5.2.71A3.79,3.79,0,0,0,274,89.81a2.52,2.52,0,0,0,3.42-.9,2.56,2.56,0,0,0-.9-3.42Z" style="fill:#040505"/><path d="M275,15.86v-.93a7.92,7.92,0,0,0-.91-4,7.73,7.73,0,0,0-2.17-3.38,7.79,7.79,0,0,0-3.38-2.17,7.92,7.92,0,0,0-4-.91l-2.79.38a10.53,10.53,0,0,0-4.64,2.7l-1.64,2.12a10.41,10.41,0,0,0-1.43,5.3v.93a7.81,7.81,0,0,0,.9,4,7.88,7.88,0,0,0,2.17,3.38,7.79,7.79,0,0,0,3.38,2.17,7.94,7.94,0,0,0,4.05.91L267.3,26a10.49,10.49,0,0,0,4.63-2.7l1.64-2.12a10.52,10.52,0,0,0,1.44-5.3Z" style="fill:#5cb94d"/><path d="M276,34a35.84,35.84,0,0,1,16.57,22.56c3.27,13.1,23.53,7.55,20.25-5.58A57.11,57.11,0,0,0,286.57,15.9C274.94,9,264.37,27.1,276,34Z" style="fill:#5cb94d"/><path d="M154.85,168c-5.49,4.52-13.4,6.31-20.3,6.09A31.08,31.08,0,0,1,115,166.49a48.06,48.06,0,0,1-6.86-8.28c-1.16-1.63-2.35-3.34-2.48-5.41s.84-3.67.79-5.62a5,5,0,0,0-2.11-4.16,7.38,7.38,0,0,1,6.43.43,17.67,17.67,0,0,0,2.33-4.93,5.93,5.93,0,0,0-1-5.18,8.77,8.77,0,0,0-4-2.22c1.57-1,3.69-.42,5.23.63s2.77,2.51,4.37,3.45a3.78,3.78,0,0,0,1.71.57,3.09,3.09,0,0,0,2.86-2.47,6.42,6.42,0,0,0-.57-4,14.51,14.51,0,0,0-5-6.17,11.77,11.77,0,0,1,11.42,4.67c.59.83,1.18,1.83,2.17,2,1.56.32,2.71-1.47,3.07-3a14,14,0,0,0-.08-6.54c-.57-2.31-2.38-4.12-3-6.22,1.52-.75,3.49-.12,4.81.81a15.23,15.23,0,0,1,3.63,4.15L151.67,138a2.71,2.71,0,0,0,.62.72,1.91,1.91,0,0,0,2.55-.76,5.65,5.65,0,0,0,.59-2.89c.1-3.32.33-6.71,1.65-9.76s3.95-5.72,7.23-6.24c.66,1.65.2,3.51.12,5.28a31.85,31.85,0,0,0,.65,6.14,51,51,0,0,1-5.82,32.26A18.71,18.71,0,0,1,154.85,168Z" style="fill:#f28c8f"/><path d="M108.64,213.52A234.3,234.3,0,0,1,120,168c2.7-7.27,10.09-24.95,20.55-21.08,11.19,4.13,17.49,17.89,22.79,27.58a424.91,424.91,0,0,1,19.81,41.28c2.16,5.23,7,9,12.92,7.33,4.95-1.36,9.51-7.64,7.33-12.92a463.84,463.84,0,0,0-24.65-51.18c-7.81-13.83-18.47-29.45-35.13-33-19-4-33.12,11.87-40.26,27.6-7.74,17-12.1,35.83-15,54.26-.87,5.59,1.42,11.29,7.33,12.91,5,1.37,12-1.69,12.92-7.33Z" style="fill:#9495ac"/><path d="M106.7,143a3.19,3.19,0,0,0-4.22,2.21,10.53,10.53,0,0,0,.13,2.74,12.86,12.86,0,0,0,.25,3.17,6.91,6.91,0,0,0,1.36,2.16l2.56,3.12c2,2.46,4.26,5.07,7.36,5.8a12.36,12.36,0,0,0,5.34-.2,2.51,2.51,0,0,0,1.47-.7c.71-.87,0-2.15-.67-3.05l-7.7-10c-1.57-2.05-3.25-4.18-5.64-5.16" style="fill:#f6a4a7"/><path d="M130,155.17c-5-7.13-10.44-13.91-15.47-21a10,10,0,0,0-3.08-3.18,3.4,3.4,0,0,0-4.11.4c-.85,1-.83,2.38-.76,3.66.34,6.72,6.21,11.21,10.14,16.2a64.1,64.1,0,0,0,5,6.15,10.47,10.47,0,0,0,7,3.35,3,3,0,0,0,2-.52,2.59,2.59,0,0,0,.72-2.59A7.69,7.69,0,0,0,130,155.17Z" style="fill:#f6a4a7"/><path d="M130.7,134.89c-1.53-2.38-3.17-4.72-4.71-7.1a6.82,6.82,0,0,0-2.31-2.54,29.82,29.82,0,0,0-3.29-1c-.73-.29-1.37-.78-2.09-1.08a2.33,2.33,0,0,0-2.25.08c-.88.65-.81,2-.66,3a24.85,24.85,0,0,0,1.12,5.06,31.14,31.14,0,0,0,4.35,7.4l7.84,10.41a22,22,0,0,0,4,4.42,11,11,0,0,0,6.9,2.23,2.56,2.56,0,0,0,2.12-.84,2.62,2.62,0,0,0,.18-2C140.52,146,134.58,140.9,130.7,134.89Z" style="fill:#f6a4a7"/><path d="M149.75,139.84c0-1.14-2-3.47-2.56-4.49-.93-1.64-1.82-3.3-2.79-4.92-1.64-2.74-3.39-5.43-5.07-8.14-1.79-2.89-3.73-5.92-6.77-7.41a3.93,3.93,0,0,0-1.88-.49,1.87,1.87,0,0,0-1.61.94,2.83,2.83,0,0,0-.21,1.22c-.08,2.62-.12,5.36,1.06,7.69a130.41,130.41,0,0,0,7.63,13.21,19.53,19.53,0,0,0,4.21,4.88,11.25,11.25,0,0,0,8.69,2.1C151.36,143.07,150.55,141.26,149.75,139.84Z" style="fill:#f6a4a7"/><path d="M196.83,100.83S181.73,53.76,231.26,33c53.18-20,66.79,29.63,66.79,29.63s-11.24,22.5-42.74,34.87S196.83,100.83,196.83,100.83Z" style="fill:#dee8eb;opacity:0.77;mix-blend-mode:screen"/><path d="M200.7,103.48C188.62,76.6,204,46,230.18,35.07c12.39-5.16,29.41-7.63,41.82-1.31,6.82,3.47,11.07,10.05,14.91,16.4a203.49,203.49,0,0,1,10.85,20.62c1.34,2.92,5.65.39,4.32-2.52a184.87,184.87,0,0,0-13.53-24.9c-4.18-6.34-9.18-12-16.31-15-13.92-5.86-31.51-3.34-45,2.53-28.64,12.46-44,45.9-30.85,75.09,1.31,2.93,5.62.39,4.31-2.53Z" style="fill:#dee8eb"/><path d="M226,82a48.34,48.34,0,0,1,18.3-29.46c2.54-1.91.05-6.25-2.52-4.32a53.39,53.39,0,0,0-20.6,32.45c-.62,3.14,4.19,4.49,4.82,1.33Z" style="fill:#fff"/><path d="M237.1,77.5a39,39,0,0,1,7.39-10.44c2.26-2.29-1.27-5.83-3.54-3.53A43.22,43.22,0,0,0,232.78,75c-1.41,2.88,2.9,5.42,4.32,2.53Z" style="fill:#fff"/><rect x="366.15" y="122.64" width="39.37" height="12.37" rx="6.19" transform="translate(212.61 -239.22) rotate(46.33)" style="fill:#fdcc30"/><path d="M392.77,95.07a17.8,17.8,0,0,0,32.52-14.24c-1.46-4.06-5.44-6.8-9.84-5.59-3.92,1.08-7.06,5.76-5.58,9.84.1.28.43,2.11.41,1.55s0,.46-.13.67c0,0-.86,1.2-.68,1.09-1.14.67-2.14,0-2.89-1.4-4.94-9-18.76-1-13.81,8.08Z" style="fill:#d03191"/><path d="M363.21,73.63l0-.22.28,2.13,0-.21-.29,2.12.06-.2-.81,1.91a1.25,1.25,0,0,1,.22-.37l-1.25,1.61.16-.15L360,81.5a1.31,1.31,0,0,1,.37-.24l-1.91.81a1.17,1.17,0,0,1,.41-.1l-2.12.29h.21L354.78,82l.21.07-1.91-.81.2.12-1.62-1.25a1.93,1.93,0,0,1,.33.31l-1.25-1.62a2,2,0,0,1,.23.4l-.8-1.91a1.59,1.59,0,0,1,.12.44L350,75.6a1.7,1.7,0,0,1,0,.45l.29-2.13a1.26,1.26,0,0,1-.13.43l.81-1.91-.12.19L352.11,71a1.38,1.38,0,0,1-.27.27L353.45,70l-.16.1,1.91-.8a2.29,2.29,0,0,1-.37.12l2.13-.29a2,2,0,0,1-.59,0l2.13.29a1.9,1.9,0,0,1-.36-.12l1.91.8-.16-.09,1.61,1.25a1.11,1.11,0,0,1-.26-.27l1.25,1.62-.1-.17.81,1.91-.06-.19.28,2.12a1.08,1.08,0,0,1,0-.4L363.14,78l.06-.2-.81,1.91a1.65,1.65,0,0,1,.22-.36L361.35,81a1.38,1.38,0,0,1,.31-.28L360,82l.18-.09-1.91.8.19-.06-2.13.28a1,1,0,0,1,.39,0l-2.12-.28.19.06L350.05,79a1.28,1.28,0,0,1,.21.38l-.81-1.91.06.21-.29-2.13a2.09,2.09,0,0,1,0,.66l.28-2.13a2.25,2.25,0,0,1-.13.42l.8-1.92a1.31,1.31,0,0,1-.24.37l1.25-1.62-.15.15,1.62-1.25-.18.13,4-1.1-.26,0,2.13.29-.24-.09,1.91.8-.21-.14,1.62,1.25-.17-.19,1.25,1.62-.12-.23.8,1.91-.07-.24.29,2.13v-.26l-.28,2.13,0-.22-.8,1.91.1-.19-1.25,1.61a1.18,1.18,0,0,1,.32-.31L360,82.27l.2-.1-1.92.8.22-.06-2.13.28h.22l-2.12-.29.22,0-5.59-5.58c0,.21.07.43.1.64l-.29-2.12a12.86,12.86,0,0,1,.07,1.64l8-8a1.45,1.45,0,0,1-.36,0l2.13.29a1.19,1.19,0,0,1-.32-.1l1.91.8a1.67,1.67,0,0,1-.28-.18l1.62,1.25a1.43,1.43,0,0,1-.23-.26l1.25,1.62a2.68,2.68,0,0,1-.26-.47l.81,1.91a2.31,2.31,0,0,1-.12-.52l.28,2.12a2,2,0,0,1,0-.35l-.28,2.13a2.19,2.19,0,0,1,.14-.5l-.81,1.92.09-.15-1.25,1.62a.92.92,0,0,1,.23-.25l-1.62,1.25a1.63,1.63,0,0,1,.34-.19l-1.91.81.2,0-2.13.28a1.28,1.28,0,0,1,.39,0l-2.13-.28a1.26,1.26,0,0,1,.38.1l-1.91-.81a2.08,2.08,0,0,1,.36.2l-1.62-1.25a3.68,3.68,0,0,1,.45.43L351,79.23a2.16,2.16,0,0,1,.22.36l-.81-1.91a2.26,2.26,0,0,1,.16.58l-.29-2.13v.2l.28-2.13a1.24,1.24,0,0,1-.09.39l.81-1.91a1.38,1.38,0,0,1-.2.33l1.25-1.61a1,1,0,0,1-.26.23l1.62-1.25a1.46,1.46,0,0,1-.3.17l1.91-.81a1.89,1.89,0,0,1-.34.09l2.13-.29a2.44,2.44,0,0,1-.54,0l2.13.29a3.16,3.16,0,0,1-.53-.13l1.91.8a2.49,2.49,0,0,1-.48-.26l1.62,1.25a2.59,2.59,0,0,1-.37-.37l1.26,1.62a1.34,1.34,0,0,1-.17-.31l.81,1.91a1.37,1.37,0,0,1-.08-.35l.28,2.12a1.79,1.79,0,0,1,0-.4l-.28,2.13a1.29,1.29,0,0,1,.12-.38L362,79.38a1.85,1.85,0,0,1,.21-.33L361,80.67a1.54,1.54,0,0,1,.28-.29l-1.62,1.25a2.85,2.85,0,0,1,.52-.33l-1.91.8a3.06,3.06,0,0,1,.59-.17l-2.13.28a2.48,2.48,0,0,1,.61,0l-2.13-.29a2.91,2.91,0,0,1,.39.12l-1.91-.8a1.59,1.59,0,0,1,.35.22l-1.61-1.25a1.72,1.72,0,0,1,.29.31l-1.25-1.62a2.12,2.12,0,0,1,.21.36l-.8-1.91a4.4,4.4,0,0,1,.18.62l-.29-2.13a4.73,4.73,0,0,1,0,.65l.28-2.12a3.64,3.64,0,0,1-.16.63l.8-1.91a2.59,2.59,0,0,1-.33.55L352.61,72a1.77,1.77,0,0,1-.31.3l1.62-1.25a2.22,2.22,0,0,1-.39.23l1.91-.8a3.57,3.57,0,0,1-.66.18l2.13-.28a3.86,3.86,0,0,1-.68,0l2.12.28a4.11,4.11,0,0,1-.67-.17l1.91.8A2.93,2.93,0,0,1,359,71l1.62,1.25a3.2,3.2,0,0,1-.5-.47l1.25,1.62a4.18,4.18,0,0,1-.37-.65l.81,1.91a3.9,3.9,0,0,1-.18-.75l.29,2.13a4.07,4.07,0,0,1,0-.78l-.29,2.13a5,5,0,0,1,.2-.76l-.8,1.91a4.48,4.48,0,0,1,.37-.68l-1.25,1.62a2.18,2.18,0,0,1,.34-.4,8.37,8.37,0,0,0,2.34-5.66,8,8,0,0,0-13.66-5.65,11.42,11.42,0,0,0-2,13A10.51,10.51,0,0,0,358,86.26a10.08,10.08,0,0,0,8.8-9.87,9.88,9.88,0,0,0-8.38-10,10,10,0,0,0-11,7,9.62,9.62,0,0,0,6.57,11.83,9.49,9.49,0,0,0,7.24-17.48,9.23,9.23,0,0,0-13.81,7.94c-.17,5.08,4.24,10.28,9.57,9.9a8.34,8.34,0,0,0,5.65-2.35,8.55,8.55,0,0,0,2.35-5.65,22.62,22.62,0,0,0-.45-4.42,7.68,7.68,0,0,0-5.59-5.58,14.91,14.91,0,0,0-2.57-.31A9.09,9.09,0,0,0,352,68.4a9.61,9.61,0,0,0-4.2,5.35A9.21,9.21,0,0,0,354.14,85a9,9,0,0,0,10.8-6.62c1.25-4.56-1.32-9.93-6.05-11.15a9.28,9.28,0,0,0-10.31,4.49,9.14,9.14,0,0,0,3.23,12.17,9.42,9.42,0,1,0,2.55-17.28,9.56,9.56,0,0,0-5.51,4.14,9.07,9.07,0,0,0-1.09,2.49,11.19,11.19,0,0,0,0,4.68c.28,1.85,2.14,3.88,3.68,4.78a8,8,0,0,0,10.94-2.87l.81-1.91a8.06,8.06,0,0,0,0-4.25Z" style="fill:#1fa5bd"/><path d="M60.83,160.53a94,94,0,0,0,11.25-13l-13.81-8.07-.74,1.32c-2,3.66-1,8.9,2.87,10.95s8.78,1,10.95-2.87l.73-1.33c2-3.65,1-8.89-2.87-10.94-4.16-2.2-8.3-.75-10.94,2.87-.32.43-.63.86-1,1.28.71-.94-.34.42-.47.58-.76.93-1.53,1.84-2.33,2.74q-2.39,2.67-5,5.14a8.06,8.06,0,0,0,0,11.31,8.15,8.15,0,0,0,11.31,0Z" style="fill:#fdcc30"/><path d="M73.86,117.86c-.16.24.75-.21-1-.14-.24,0-.47-.61-.3-.66-.82.24-2.85,5.26-3.25,6.45a13.56,13.56,0,0,0,4.4,15.22,16.49,16.49,0,0,0,26.91-11.44c.82-10.26-15.19-10.21-16,0-.28,3.6,1-2.91,0-.84a1.78,1.78,0,0,1-.93-.17L84.3,129c.32,0,2.38-4.69,2.6-5.18a15.48,15.48,0,0,0-.85-14.8c-6.22-10-20.1-8.5-26,.81-5.53,8.72,8.31,16.75,13.82,8.08Z" style="fill:#1fa5bd"/><path d="M88.78,169.4l0-.1L88,171.21a1,1,0,0,1,.1-.18l-1.25,1.62a.44.44,0,0,1,.14-.13l-1.62,1.25.16-.1-1.91.81a1.47,1.47,0,0,1,.28-.08l-2.12.29h.31L80,174.4a2,2,0,0,1,.42.1l-1.91-.8a1.62,1.62,0,0,1,.36.21l-1.61-1.25a2.18,2.18,0,0,1,.21.22l-1.25-1.62a1,1,0,0,1,.1.17l-.81-1.91a.7.7,0,0,1,.06.19l-.29-2.12a.65.65,0,0,1,0,.2l.28-2.12a1.25,1.25,0,0,1-.08.32l.8-1.91a.81.81,0,0,1-.1.18l1.25-1.62a1.2,1.2,0,0,1-.23.22l1.62-1.25a1.51,1.51,0,0,1-.28.15l1.91-.8-.32.09,2.13-.29a2.36,2.36,0,0,1-.46,0l2.13.29a2.18,2.18,0,0,1-.44-.11l1.91.81a2.69,2.69,0,0,1-.29-.16l1.62,1.25a1.31,1.31,0,0,1-.24-.23l1.25,1.62a1.18,1.18,0,0,1-.16-.29l.8,1.91c0-.1-.05-.19-.07-.29l.29,2.13a1.41,1.41,0,0,1,0-.29l-.29,2.13a2,2,0,0,1,.11-.42L87.6,171a2.36,2.36,0,0,1,.22-.38l-1.25,1.62a2.14,2.14,0,0,1,.43-.42l-1.62,1.25a2.16,2.16,0,0,1,.39-.22l-1.91.8a3.39,3.39,0,0,1,.43-.11l-2.12.29a1.41,1.41,0,0,1,.29,0l-2.12-.28.15,0L77,171.53a1,1,0,0,1,.17.18l-1.25-1.62a2.29,2.29,0,0,1,.18.31l-.81-1.92c0,.12.07.23.1.35l-.29-2.13a1.93,1.93,0,0,1,0,.48l.29-2.12a2.62,2.62,0,0,1-.17.59l.81-1.91a3.66,3.66,0,0,1-.26.42L77,162.54a2.81,2.81,0,0,1-.35.34l1.62-1.26a1.92,1.92,0,0,1-.31.18l1.91-.81a1.89,1.89,0,0,1-.34.09l2.12-.29a1,1,0,0,1-.24,0l4,1.1-.1-.07,1.62,1.25a.77.77,0,0,1-.18-.18L88,164.51a1.07,1.07,0,0,1-.13-.21l.81,1.91a1.43,1.43,0,0,1-.09-.37l.28,2.13a2.09,2.09,0,0,1,0-.25l-.28,2.12a1.48,1.48,0,0,1,.1-.36l-.81,1.91a.74.74,0,0,1,.13-.21l-1.25,1.62a.77.77,0,0,1,.18-.18l-1.62,1.25.11-.06A8.36,8.36,0,0,0,89.11,169a6,6,0,0,0,.14-3.19,5.92,5.92,0,0,0-.94-3,8.08,8.08,0,0,0-4.79-3.67,8.18,8.18,0,0,0-6.16.8,9.22,9.22,0,0,0-4.1,10.47,8.93,8.93,0,0,0,6,6,9.26,9.26,0,0,0,4.5,0,7.07,7.07,0,0,0,2.42-1,10.42,10.42,0,0,0,3.44-3.39,8.77,8.77,0,0,0,1.3-3.89,6.93,6.93,0,0,0,.14-1.55,11.44,11.44,0,0,0-.38-2.47,8.93,8.93,0,0,0-6-6.08,9.81,9.81,0,0,0-10.75,4.54A9.48,9.48,0,0,0,75.24,174a9.78,9.78,0,0,0,9.24,2.43,9.36,9.36,0,0,0,4.15-2.38,7.23,7.23,0,0,0,1.46-1.92,9.36,9.36,0,0,0,1.18-4.36A9.16,9.16,0,0,0,84.43,159a12.71,12.71,0,0,0-2.54-.33,7,7,0,0,0-3.47.77,7.15,7.15,0,0,0-2.84,1.85,9,9,0,0,0-2.23,3.85,9,9,0,0,0,.81,6.16,8,8,0,0,0,11,2.87l1.61-1.25a8,8,0,0,0,2.06-3.53Z" style="fill:#d03191"/><path d="M422.21,56l0-.11.81,1.91a.86.86,0,0,1-.06-.23l.29,2.13a1,1,0,0,1,0-.24l-.29,2.13a2,2,0,0,1,.09-.35l-.81,1.91a1.92,1.92,0,0,1,.18-.31l-1.25,1.62a2.06,2.06,0,0,1,.25-.26l-1.62,1.26a1.13,1.13,0,0,1,.21-.12l-1.91.8a.86.86,0,0,1,.23-.06H414l.11,0-1.91-.8a1.2,1.2,0,0,1,.31.18l-1.62-1.25a1,1,0,0,1,.17.18l-1.25-1.62a1.62,1.62,0,0,1,.17.32l-.8-1.92a1.05,1.05,0,0,1,.06.24L409,59.3a2.2,2.2,0,0,1,0,.36l.28-2.12a1,1,0,0,1-.06.23l.81-1.91a1.13,1.13,0,0,1-.12.21l1.25-1.62a1.31,1.31,0,0,1-.24.23l1.62-1.25a1,1,0,0,1-.2.11l1.91-.8-.33.09,2.12-.29a1.29,1.29,0,0,1-.34,0l2.13.29a1.26,1.26,0,0,1-.33-.1l1.91.81a1.06,1.06,0,0,1-.2-.12l1.62,1.25-.08-.07,2.34,5.65a.82.82,0,0,1,0-.27l-.29,2.13,0-.14L422,63.89a1.23,1.23,0,0,1,.14-.25l-1.25,1.62a1.19,1.19,0,0,1,.19-.2l-1.62,1.26a1,1,0,0,1,.24-.14l-1.91.81.13,0-2.12.28a.82.82,0,0,1,.27,0,9,9,0,0,0,5.66-2.34,6,6,0,0,0,1.65-2.58,6,6,0,0,0,.69-3.08,8.05,8.05,0,0,0-2.34-5.65l-1.62-1.26a8.08,8.08,0,0,0-4-1.09.82.82,0,0,0-.27,0l-2.13.29a7.78,7.78,0,0,0-2.17.9,9.31,9.31,0,0,0-3.25,3.26,9,9,0,0,0-1.2,4.57,8.23,8.23,0,0,0,4.14,7,9.39,9.39,0,0,0,4.47,1.24,8.75,8.75,0,0,0,2.69-.33,9.22,9.22,0,0,0,3.93-2.28,1.29,1.29,0,0,0,.16-.17l1.25-1.62a10.18,10.18,0,0,0,.94-2.17,9.52,9.52,0,0,0-1-7.21A8.8,8.8,0,0,0,414,50.65a8.09,8.09,0,0,0-4.79,3.29,9,9,0,0,0-.79,10.13,6,6,0,0,0,2.06,2.24,8.26,8.26,0,0,0,8.89.63A8,8,0,0,0,423,62.16L423.3,60a8,8,0,0,0-1.09-4Z" style="fill:#fdcc30"/><path d="M409.93,119.14c-4.8,12.8,10.86,23.07,21.58,16.16a17.59,17.59,0,0,0,7.72-15.87c-.17-2.12.44.56-.2-.85.35.78.44,1.31-.27,3-1.63,4,1.77,8.79,5.59,9.84,4.58,1.26,8.2-1.57,9.84-5.58,4.73-11.63-5.05-25-17.67-22.84a15.66,15.66,0,0,0-11.72,8.72c-1.1,2.34-2.59,7.22-1.66,9.71.33.9-1.74-.42,1.41.66.38.14.66,1.64.8,1.26,1.52-4.05-1.68-8.77-5.58-9.84-4.49-1.24-8.32,1.52-9.84,5.58Z" style="fill:#1fa5bd"/><path d="M99.52,102.82c1.88,9.91,13.26,16.33,22.7,12.85,10.05-3.7,13.67-15.49,9.16-24.72-1.89-3.88-7.41-4.94-10.94-2.87-4,2.32-4.78,7-2.87,10.94-.39-.79-.3,1-.06,0-.64,2.66.62-1.43-.27,1.21.41-1.22-.36,1.25-.1.09l-.47.46a.6.6,0,0,1,.51-.24c-.13.42-1.58,0-.15.21-1.11-.13-.38,0-1.39-.53.72.41-.71-.84-.37-.36-.42-.59-.13-.3-.32-1.3-.81-4.25-5.92-6.67-9.84-5.59-4.45,1.22-6.4,5.58-5.59,9.84Z" style="fill:#d03191"/><path d="M352,141.89c.38-1.44-.16-.08-.44.35q.9-.84.27-.33c-.44.31-.31.25.39-.19l-.58.24c.82-.19.94-.24.35-.13a1.35,1.35,0,0,1-1-.1c.81.24.93.26.37.06-1.38-.74-.36-.12-.36-.12-.45-.66-.52-.74-.22-.26s.26.38-.07-.36l.2.65c-.06-1-.08-1,0-.1l.14-.78a6,6,0,0,1-.42,1.3c-1.55,4,1.71,8.78,5.59,9.84,4.51,1.24,8.28-1.54,9.84-5.59,3-7.76-1.91-17.31-9.76-19.76a15.81,15.81,0,0,0-19.65,11A8,8,0,1,0,352,141.89Z" style="fill:#d03191"/><path d="M176.45,145.46l7.91,16.44c1.88,3.89,7.43,4.92,10.95,2.87,4-2.33,4.75-7,2.87-11l-7.91-16.43c-1.87-3.89-7.43-4.93-11-2.87-4,2.33-4.75,7-2.87,10.94Z" style="fill:#fdcc30"/><path d="M219,6.82a16.35,16.35,0,0,0-2.89,1c-5.3,2.44-8.21,7.13-6.49,10.47C211,21,215.1,22,219.45,20.94a16.54,16.54,0,0,0,2.88-1c5.3-2.44,8.21-7.13,6.49-10.46C227.41,6.72,223.34,5.74,219,6.82Z" style="fill:#fff"/><path d="M217,33.3a5,5,0,0,0,.5-.11,8.27,8.27,0,0,0,1.47-.51c2.66-1.22,4.11-3.56,3.25-5.23-.64-1.26-2.41-1.78-4.38-1.44-6.55,1.14-12.46-.57-14.61-4.76a8.72,8.72,0,0,1,.29-7.95,70.92,70.92,0,0,0-10.87,9.76,11.71,11.71,0,0,0,1,2.62C197.05,32.35,206.41,35.1,217,33.3Z" style="fill:#fff"/><path d="M235.22,6.51c2.16,4.18-.05,9.64-5,13.81-1.5,1.26-2.16,2.89-1.52,4.15s2.74,1.85,4.92,1.31a7.18,7.18,0,0,0,1.45-.51,7.68,7.68,0,0,0,1.72-1.08c8-6.77,11.51-15.43,8.06-22.1A12.4,12.4,0,0,0,243.46,0a70,70,0,0,0-15,1.83C231.54,2.55,234,4.13,235.22,6.51Z" style="fill:#fff"/><path d="M317.74,214.65a16.26,16.26,0,0,0-6.28,31.27,3.14,3.14,0,0,0,1.18.24,3.05,3.05,0,0,0,1.17-5.87h0a10.17,10.17,0,1,1,7.84,0h0a3.05,3.05,0,0,0,1.17,5.87,3.14,3.14,0,0,0,1.18-.24,16.26,16.26,0,0,0-6.28-31.27" style="fill:#fff"/><path d="M311.64,230.92a6.1,6.1,0,1,1,6.1,6.09,6.1,6.1,0,0,1-6.1-6.09" style="fill:#fff"/><path d="M155.43,224.93A25,25,0,0,0,145.78,273a4.69,4.69,0,1,0,3.62-8.65h0a15.63,15.63,0,1,1,12.07,0h0a4.69,4.69,0,0,0,1.81,9,4.75,4.75,0,0,0,1.81-.37,25,25,0,0,0-9.66-48.07" style="fill:#1ca84f"/><path d="M146.06,249.94a9.38,9.38,0,1,1,9.37,9.37,9.38,9.38,0,0,1-9.37-9.37" style="fill:#1ca84f"/></g></svg>