<svg xmlns="http://www.w3.org/2000/svg" xmlns:xlink="http://www.w3.org/1999/xlink" viewBox="0 0 820.34 763.95"><defs><clipPath id="a"><polygon points="667.81 142.47 199.73 132.03 221.81 655.76 442 691.66 482.35 763.95 520.11 704.4 628.07 722 667.81 142.47" style="fill:none"/></clipPath><clipPath id="b"><polygon points="667.81 142.47 199.73 167.8 221.81 655.76 442 691.66 482.35 763.95 520.11 704.4 628.07 722 667.81 142.47" style="fill:none"/></clipPath><clipPath id="c"><path d="M503.24,406.93a2.25,2.25,0,0,0-1.32,1.84l0-11.35a2.24,2.24,0,0,1,1.32-1.84,7.06,7.06,0,0,1,6.42,0l0,11.35A7.06,7.06,0,0,0,503.24,406.93Z" style="fill:none"/></clipPath><clipPath id="d"><path d="M501.92,408.78l0-11.36a2.3,2.3,0,0,0,1.34,1.88l0,11.35A2.3,2.3,0,0,1,501.92,408.78Z" style="fill:none"/></clipPath><clipPath id="e"><path d="M437.15,417.81l-.23-.11,0-11.35a1,1,0,0,1,.23.11Z" style="fill:none"/></clipPath><clipPath id="f"><path d="M481.66,426.78l0-11.35c0-.18.12-.37.41-.53l15.56-9,0,11.36-15.56,9C481.78,426.42,481.66,426.6,481.66,426.78Z" style="fill:none"/></clipPath><clipPath id="g"><path d="M485,426.82l-.47-.27c0-3.78,0-7.57,0-11.35l.46.27C485,418.88,485,423.42,485,426.82Z" style="fill:none"/></clipPath><clipPath id="h"><path d="M499.6,418.35,485,426.82l0-11.35L499.63,407C499.62,410.4,499.61,414.94,499.6,418.35Z" style="fill:none"/></clipPath><clipPath id="i"><path d="M484.55,426.55c-1-.56-2.37,0-2.37.6l0-11.35c0-.62,1.4-1.17,2.38-.6C484.58,419,484.56,422.77,484.55,426.55Z" style="fill:none"/></clipPath><clipPath id="j"><path d="M481.66,426.78l0-11.35a.75.75,0,0,0,.45.59l0,11.35A.74.74,0,0,1,481.66,426.78Z" style="fill:none"/></clipPath><clipPath id="k"><path d="M482.32,427.48l-.22-.11,0-11.35a1,1,0,0,0,.21.1C482.34,419.53,482.33,424.07,482.32,427.48Z" style="fill:none"/></clipPath><clipPath id="l"><path d="M464.82,433.79l-27.67-16,0-11.35,27.67,16C464.84,425.84,464.83,430.38,464.82,433.79Z" style="fill:none"/></clipPath><clipPath id="m"><path d="M435.19,419a1.74,1.74,0,0,1-.2-.13l0-11.35a1.74,1.74,0,0,0,.2.13l26.16,15.1,0,11.36Z" style="fill:none"/></clipPath><clipPath id="n"><path d="M465.23,434.33c0-.19-.12-.38-.41-.54l0-11.36c.29.17.42.36.41.55C465.25,426.38,465.24,430.92,465.23,434.33Z" style="fill:none"/></clipPath><clipPath id="o"><path d="M463.75,433.81a2,2,0,0,0-1.94,0l0-11.36a2.07,2.07,0,0,1,1.94,0,.75.75,0,0,1,.44.59l0,11.35A.73.73,0,0,0,463.75,433.81Z" style="fill:none"/></clipPath><clipPath id="p"><path d="M513.29,426.25l-14.58,8.47,0-11.35,14.58-8.47C513.31,418.3,513.3,422.85,513.29,426.25Z" style="fill:none"/></clipPath><clipPath id="q"><path d="M498.74,423.37l0,11.35L485,426.82l0-11.35Z" style="fill:none"/></clipPath><clipPath id="r"><path d="M464.88,434.85l0-11.35a.67.67,0,0,0,.35-.53l0,11.36A.67.67,0,0,1,464.88,434.85Z" style="fill:none"/></clipPath><clipPath id="s"><path d="M556.63,435.13a2.3,2.3,0,0,0-1.34-1.86l0-11.35a2.27,2.27,0,0,1,1.34,1.86Z" style="fill:none"/></clipPath><clipPath id="t"><path d="M556.66,423.79l0,11.36a2.25,2.25,0,0,1-1.32,1.84,7.06,7.06,0,0,1-6.42,0l0-11.35a7.06,7.06,0,0,0,6.42,0A2.25,2.25,0,0,0,556.66,423.79Z" style="fill:none"/></clipPath><clipPath id="u"><path d="M556.63,435.15v0l0-11.35h0C556.65,427.2,556.64,431.74,556.63,435.15Z" style="fill:none"/></clipPath><clipPath id="v"><path d="M461.38,422.7l0,11.36L442,445.27l0-11.35Z" style="fill:none"/></clipPath><clipPath id="w"><path d="M436.61,442.13l-20.94-12.08,0-11.36,20.94,12.09,5.44,3.14,0,11.35Z" style="fill:none"/></clipPath><clipPath id="x"><path d="M440.08,446.42l-26.37-15.23,0-11.35,26.37,15.22C440.1,438.47,440.09,443,440.08,446.42Z" style="fill:none"/></clipPath><clipPath id="y"><path d="M429.77,454.7l-76,44.17,0-11.36,76-44.17,12.29-7.14,2-1.14,19.41-11.28.36-.21a.65.65,0,0,0,.4-.53l0,11.35c0,.18-.12.37-.41.54l-.35.2L444,446.41l-2,1.15Z" style="fill:none"/></clipPath><clipPath id="z"><path d="M464.88,434.85a2,2,0,0,1-1.45.28l0-11.35a2,2,0,0,0,1.45-.28Z" style="fill:none"/></clipPath><clipPath id="aa"><path d="M515.26,427.39l-14.58,8.47,0-11.35L515.29,416C515.28,419.44,515.27,424,515.26,427.39Z" style="fill:none"/></clipPath><clipPath id="ab"><path d="M500.71,424.51l0,11.35-2-1.14,0-11.35Z" style="fill:none"/></clipPath><clipPath id="ac"><path d="M561.4,440.45a3.22,3.22,0,0,0-1,.84c0-3.78,0-7.57,0-11.35a2.87,2.87,0,0,1,1-.84,6.82,6.82,0,0,1,6.22,0l0,11.35A6.91,6.91,0,0,0,561.4,440.45Z" style="fill:none"/></clipPath><clipPath id="ad"><path d="M560.27,441.61l0-11.36a1.65,1.65,0,0,1,.18-.31c0,3.78,0,7.57,0,11.35A1.41,1.41,0,0,0,560.27,441.61Z" style="fill:none"/></clipPath><clipPath id="ae"><path d="M496.75,435.86l-9.92,5.76,0-11.35,9.91-5.76,0,11.34Z" style="fill:none"/></clipPath><clipPath id="af"><path d="M560.27,441.61a1.41,1.41,0,0,0-.14.63l0-11.36a1.6,1.6,0,0,1,.14-.63q0,3.76,0,7.53c0,.64,0,1.28,0,1.91v1.47A3.38,3.38,0,0,1,560.27,441.61Z" style="fill:none"/></clipPath><clipPath id="ag"><path d="M568.93,442.27a2.2,2.2,0,0,0-1.3-1.82l0-11.35a2.2,2.2,0,0,1,1.3,1.82C569,434.32,568.94,438.86,568.93,442.27Z" style="fill:none"/></clipPath><clipPath id="ah"><path d="M486.53,441.61c-.88,0-1.66.46-1.66.92l0-11.35c0-.47.79-.9,1.66-.92Z" style="fill:none"/></clipPath><clipPath id="ai"><path d="M527.42,423l0,11.35-14.58,8.47,0-11.35Z" style="fill:none"/></clipPath><clipPath id="aj"><path d="M512.8,442.86l-12.12-7,0-11.35,12.13,7C512.83,434.92,512.81,439.46,512.8,442.86Z" style="fill:none"/></clipPath><clipPath id="ak"><path d="M488.81,442.76l-.06,0,0-11.36.06,0,9.91-5.76,0,11.35Z" style="fill:none"/></clipPath><clipPath id="al"><path d="M512.84,431.51l0,11.35-1,.57,0-11.35Z" style="fill:none"/></clipPath><clipPath id="am"><path d="M511.82,443.43c-.28.17-.4.35-.4.54l0-11.36c0-.18.12-.37.41-.53C511.85,435.48,511.83,440,511.82,443.43Z" style="fill:none"/></clipPath><clipPath id="an"><path d="M511.42,444l0-11.36a.75.75,0,0,0,.45.59,2,2,0,0,0,.94.26,1.84,1.84,0,0,0,1-.24l15.56-9,0,11.35-15.56,9a1.86,1.86,0,0,1-1,.24,2.15,2.15,0,0,1-.95-.25A.75.75,0,0,1,511.42,444Z" style="fill:none"/></clipPath><clipPath id="ao"><path d="M511.83,444.57l-.53-.31,0-11.35.53.31.13.07,0,11.35Z" style="fill:none"/></clipPath><clipPath id="ap"><path d="M512,444.66l-.05,0,0-11.35,0,0C512,437.1,512,440.88,512,444.66Z" style="fill:none"/></clipPath><clipPath id="aq"><path d="M512,444.66c0-3.78,0-7.56,0-11.35a2,2,0,0,0,.8.15l0,11.35A1.87,1.87,0,0,1,512,444.66Z" style="fill:none"/></clipPath><clipPath id="ar"><path d="M569,430.91l0,11.36a2.19,2.19,0,0,1-1.28,1.79,6.88,6.88,0,0,1-6.22,0,2.22,2.22,0,0,1-1.3-1.82l0-11.35a2.2,2.2,0,0,0,1.3,1.81,6.82,6.82,0,0,0,6.22,0A2.18,2.18,0,0,0,569,430.91Z" style="fill:none"/></clipPath><clipPath id="as"><path d="M541.48,442.53,515,457.94l0-11.36,26.52-15.4C541.51,434.58,541.49,439.12,541.48,442.53Z" style="fill:none"/></clipPath><clipPath id="at"><path d="M515,457.94,488.75,442.8l0-11.36L515,446.58C515,450,515,454.53,515,457.94Z" style="fill:none"/></clipPath><clipPath id="au"><path d="M502.61,465.12c0-3,0-8.4,0-11.36l10.39-6,0,11.35h0Z" style="fill:none"/></clipPath><clipPath id="av"><path d="M504,465.77a8.56,8.56,0,0,0-1.4-.65c0-3.79,0-7.57,0-11.36a9.89,9.89,0,0,1,1.39.66Z" style="fill:none"/></clipPath><clipPath id="aw"><path d="M502.61,465.12a13.34,13.34,0,0,0-10.57.65l0-11.35a13.37,13.37,0,0,1,10.58-.66C502.64,457.17,502.62,461.71,502.61,465.12Z" style="fill:none"/></clipPath><clipPath id="ax"><path d="M543.49,432.32l0,11.35L506.4,465.2l-1.72,1,0-11.36,1.72-1Z" style="fill:none"/></clipPath><clipPath id="ay"><path d="M504.68,466.21a6.46,6.46,0,0,0-.67-.44l0-11.35a7,7,0,0,1,.67.43C504.7,458.26,504.69,462.8,504.68,466.21Z" style="fill:none"/></clipPath><clipPath id="az"><path d="M500.42,456.44c0,3.79,0,7.57,0,11.36l0-11.36Z" style="fill:none"/></clipPath><clipPath id="ba"><path d="M500.38,467.79a6.27,6.27,0,0,0-5.66,0l0-11.35a6.27,6.27,0,0,1,5.66,0l0,11.36Z" style="fill:none"/></clipPath><clipPath id="bb"><path d="M494.72,467.79h0l0-11.36h0Z" style="fill:none"/></clipPath><clipPath id="bc"><path d="M494.72,467.8a2,2,0,0,0-1.16,1.62l0-11.35a2,2,0,0,1,1.16-1.63Z" style="fill:none"/></clipPath><clipPath id="bd"><path d="M501.56,469.44a2,2,0,0,0-1.18-1.64c0-3.79,0-7.57,0-11.36a2,2,0,0,1,1.17,1.65C501.58,461.5,501.57,466,501.56,469.44Z" style="fill:none"/></clipPath><clipPath id="be"><path d="M487.41,471.46l-43.39-25,0-11.35,43.39,25.05C487.43,463.52,487.42,468.06,487.41,471.46Z" style="fill:none"/></clipPath><clipPath id="bf"><path d="M492,465.77c-1.5.87-3.21,3.3-4.63,5.69l0-11.35c1.42-2.39,3.13-4.82,4.63-5.69Z" style="fill:none"/></clipPath><clipPath id="bg"><path d="M501.59,458.09l0,11.35a2,2,0,0,1-1.17,1.63,6.19,6.19,0,0,1-5.65,0,2,2,0,0,1-1.18-1.65l0-11.35a2,2,0,0,0,1.18,1.65,6.24,6.24,0,0,0,5.66,0A2,2,0,0,0,501.59,458.09Z" style="fill:none"/></clipPath><clipPath id="bh"><path d="M486.43,473.18l-44.38-25.62,0-11.36,44.38,25.62C486.46,465.23,486.44,469.77,486.43,473.18Z" style="fill:none"/></clipPath><clipPath id="bi"><path d="M486.43,473.18c-.38.7-.72,1.36-1,1.93l0-11.35c.29-.57.63-1.23,1-1.94C486.46,465.23,487.28,469.88,486.43,473.18Z" style="fill:none"/></clipPath><clipPath id="bj"><path d="M506.54,457.91l0,11.35c0,1.25-.82,2.49-2.46,3.44s-5.69,1.87-9.82,2.7c-1,.2-2,.4-3,.57-1.91.36-3.64.66-4.89.86l0-11.35c1.25-.21,3-.51,4.89-.86l2.95-.57c4.13-.83,8.32-1.83,9.82-2.7S506.54,459.15,506.54,457.91Z" style="fill:none"/></clipPath><clipPath id="bk"><path d="M512.53,486l-18.3-10.57,0-11.35,18.3,10.56C512.55,478,512.54,482.56,512.53,486Z" style="fill:none"/></clipPath><clipPath id="bl"><path d="M564.49,444.44l0,11.35L512.53,486l0-11.36Z" style="fill:none"/></clipPath><clipPath id="bm"><path d="M514.54,475.76l0,11.35-2-1.14,0-11.36Z" style="fill:none"/></clipPath><clipPath id="bn"><path d="M566.43,456.93l-51.92,30.18,0-11.35,51.92-30.18C566.45,449,566.44,453.53,566.43,456.93Z" style="fill:none"/></clipPath><clipPath id="bo"><path d="M528,483.53l0,11.36-13.47-7.78,0-11.35Z" style="fill:none"/></clipPath><clipPath id="bp"><path d="M491.28,476c0-3.08,0-8.28,0-11.35l10.51,6.07,24.22,14L526,496l-24.22-14Z" style="fill:none"/></clipPath><clipPath id="bq"><path d="M351.82,486.37l0,11.36-2.11-1.22-24.27-14,0-11.35,24.28,14Z" style="fill:none"/></clipPath><clipPath id="br"><path d="M353.79,487.51l0,11.36-2-1.14,0-11.36Z" style="fill:none"/></clipPath><clipPath id="bs"><path d="M341.77,503.55l-34,19.77,0-11.36,34-19.77,8.06-4.68,0,11.36Z" style="fill:none"/></clipPath><clipPath id="bt"><path d="M351.83,488.65l0,11.36-2-1.14-26.37-15.23,0-11.35,26.38,15.22Z" style="fill:none"/></clipPath><clipPath id="bu"><path d="M437.18,522.43a2,2,0,0,0-1.93,0l0-11.35a2,2,0,0,1,1.93,0Z" style="fill:none"/></clipPath><clipPath id="bv"><path d="M437.57,522.79a1.06,1.06,0,0,0-.39-.36l0-11.35a1,1,0,0,1,.39.36C437.59,514.84,437.58,519.38,437.57,522.79Z" style="fill:none"/></clipPath><clipPath id="bw"><path d="M459,523.63,459,535l-20.73-12a1.92,1.92,0,0,0-.69-.22l0-11.35a1.79,1.79,0,0,1,.7.22Z" style="fill:none"/></clipPath><clipPath id="bx"><path d="M437.63,523a.46.46,0,0,0-.06-.23l0-11.35a.46.46,0,0,1,.06.23C437.65,515.07,437.64,519.61,437.63,523Z" style="fill:none"/></clipPath><clipPath id="by"><path d="M307.75,523.32a.65.65,0,0,0-.4.53l0-11.35c0-.18.12-.37.4-.54Z" style="fill:none"/></clipPath><clipPath id="bz"><path d="M351.83,488.65l0,11.36-42.08,24.45,0-11.36Z" style="fill:none"/></clipPath><clipPath id="ca"><path d="M307.79,524.44c-.27-.16-.45-.37-.44-.59l0-11.35a.73.73,0,0,0,.44.58,2,2,0,0,0,1.94,0l0,11.36A2.05,2.05,0,0,1,307.79,524.44Z" style="fill:none"/></clipPath><clipPath id="cb"><path d="M399.33,513.81l0,11.35-45.54-26.29,0-11.36Z" style="fill:none"/></clipPath><clipPath id="cc"><path d="M485.41,475.11l-86.11,50,0-11.35,86.12-50C485.44,467.17,485.42,471.71,485.41,475.11Z" style="fill:none"/></clipPath><clipPath id="cd"><path d="M486.39,476.83,401.27,526.3l0-11.35,85.12-49.47C486.41,468.89,486.4,473.43,486.39,476.83Z" style="fill:none"/></clipPath><clipPath id="ce"><path d="M401.3,515l0,11.35-2-1.14,0-11.35Z" style="fill:none"/></clipPath><clipPath id="cf"><path d="M241.2,522.39l0-11.35c0,2.92,1.92,5.85,5.79,8.09l0,11.35C243.12,528.25,241.19,525.32,241.2,522.39Z" style="fill:none"/></clipPath><clipPath id="cg"><path d="M435.25,522.41,415,534.2l0-11.35,20.29-11.79Z" style="fill:none"/></clipPath><clipPath id="ch"><path d="M415,534.2l-13.69-7.9,0-11.35,13.69,7.9C415,526.25,415,530.79,415,534.2Z" style="fill:none"/></clipPath><clipPath id="ci"><path d="M397.34,526.3,351.8,500l0-11.36L397.37,515l2,1.13,13.07,7.55.62.36,0,11.35-.62-.36-13.07-7.54Z" style="fill:none"/></clipPath><clipPath id="cj"><path d="M415,522.85l0,11.35-2,1.14L413,524Z" style="fill:none"/></clipPath><clipPath id="ck"><path d="M413,535.34l-14.58,8.47,0-11.35L413,524C413,527.39,413,531.93,413,535.34Z" style="fill:none"/></clipPath><clipPath id="cl"><path d="M437.66,511.67l0,11.35c0,.18-.12.37-.41.53l-1,.57-19.3,11.22-2,1.14L400.4,545l0-11.36L415,525.13l2-1.14,19.31-11.22,1-.57C437.54,512,437.66,511.85,437.66,511.67Z" style="fill:none"/></clipPath><clipPath id="cm"><path d="M436.3,524.16l-.06,0,0-11.35.05,0,20.72,12,0,11.35Z" style="fill:none"/></clipPath><clipPath id="cn"><path d="M437.72,547.34l-20.78-12L417,524l20.78,12C437.74,539.39,437.73,543.93,437.72,547.34Z" style="fill:none"/></clipPath><clipPath id="co"><path d="M435.76,548.48l-20.78-12,0-11.35,20.78,12C435.78,540.53,435.76,545.07,435.76,548.48Z" style="fill:none"/></clipPath><clipPath id="cp"><path d="M396.47,526.8l-42.25,24.55,0-11.35,42.24-24.55.87-.5,0,11.35Z" style="fill:none"/></clipPath><clipPath id="cq"><path d="M353.82,551.89l0-11.36c0-.18.12-.37.41-.53l0,11.35C353.94,551.52,353.82,551.7,353.82,551.89Z" style="fill:none"/></clipPath><clipPath id="cr"><path d="M353.9,552.15a.52.52,0,0,1-.08-.26l0-11.36a.56.56,0,0,0,.08.27C353.93,544.2,353.91,548.74,353.9,552.15Z" style="fill:none"/></clipPath><clipPath id="cs"><path d="M307.38,546.24c-2.77,1.61-4.16,3.72-4.17,5.83l0-11.36c0-2.11,1.4-4.22,4.17-5.83,5.59-3.24,14.67-3.24,20.3,0,2.83,1.64,4.24,3.79,4.23,5.93l0,11.35c0-2.14-1.4-4.29-4.24-5.92C322.05,543,313,543,307.38,546.24Z" style="fill:none"/></clipPath><clipPath id="ct"><path d="M399.31,527.44l-43.11,25,0-11.35,43.11-25.06C399.33,519.49,399.32,524,399.31,527.44Z" style="fill:none"/></clipPath><clipPath id="cu"><path d="M356.23,541.14l0,11.35a2,2,0,0,1-1.37.19l0-11.35A2,2,0,0,0,356.23,541.14Z" style="fill:none"/></clipPath><clipPath id="cv"><path d="M421.15,545.63l0,11.36-20.78-12,0-11.36Z" style="fill:none"/></clipPath><clipPath id="cw"><path d="M397,545l0-11.35c0,.18.12.37.41.54l21.77,12.56,0,11.36-21.76-12.57C397.09,545.39,397,545.2,397,545Z" style="fill:none"/></clipPath><clipPath id="cx"><path d="M331.94,540.8l0,11.36c0,2.11-1.4,4.22-4.17,5.83-5.59,3.25-14.67,3.25-20.3,0-2.83-1.63-4.24-3.77-4.23-5.91l0-11.36c0,2.14,1.41,4.29,4.23,5.92,5.63,3.25,14.72,3.25,20.3,0C330.55,545,331.94,542.92,331.94,540.8Z" style="fill:none"/></clipPath><clipPath id="cy"><path d="M610.85,444.44l0,11.35c0,2.89-1.91,5.77-5.7,8l0-11.35C608.94,450.21,610.84,447.32,610.85,444.44Z" style="fill:none"/></clipPath><clipPath id="cz"><path d="M382.9,581.57l0,11.36c-7.63,4.43-20,4.43-27.72,0l0-11.35C362.85,586,375.27,586,382.9,581.57Z" style="fill:none"/></clipPath></defs><title>Asset 5</title><g style="clip-path:url(#a)"><polygon points="667.81 142.47 199.73 132.03 221.81 655.76 442 691.66 482.35 763.95 520.11 704.4 628.07 722 667.81 142.47" style="fill:#296db2"/><path d="M8.2,515.91C86.24,394,243,151,288.74,80.16A51.65,51.65,0,0,1,324.87,57L723.59.52a51.64,51.64,0,0,1,58.76,47.65l37.88,563.66a51.63,51.63,0,0,1-56.64,54.83l-717-71.56C8.23,591.28-12.56,548.35,8.2,515.91Z" style="fill:#383944"/><path d="M34.68,503.89C107.58,390,254,163,296.74,96.84a48.2,48.2,0,0,1,33.74-21.59L703,22.45A48.22,48.22,0,0,1,757.83,67l35.38,526.53a48.22,48.22,0,0,1-52.9,51.22L70.51,577.87C34.71,574.3,15.29,534.19,34.68,503.89Z" style="fill:#2b2c35"/><path d="M137.58,345.05c45.8-71.56,137.84-214.21,164.68-255.79a30.25,30.25,0,0,1,21.2-13.57L557.52,42.51a30.3,30.3,0,0,1,34.49,28l22.24,330.88A30.31,30.31,0,0,1,581,433.54l-420.91-42A30.3,30.3,0,0,1,137.58,345.05Z" style="fill:#4d4e59"/><path d="M659.18,382.09a57.43,57.43,0,0,1,45.32-4.41c18.65,6.11,33,21.69,41.76,39.28s12.42,37.17,15.44,56.56A959.84,959.84,0,0,1,773.1,619c0,7.25-.46,15.45-6,20.18-3.34,2.89-7.91,3.85-12.29,4.47-23.46,3.36-48.64-.19-68-13.86s-31.48-38.57-26.24-61.68" style="fill:#4a4a5c"/><path d="M681.76,139c12.61-6.08,28.52.59,36.85,11.83S729.23,176.62,730,190.6a228.3,228.3,0,0,1-38.81,139.14c-11,16.16-27.3,32.28-46.74,30.37-1.49-.15-3.23-.6-3.76-2s1.79-3,2.44-1.64" style="fill:#4a4a5c"/><path d="M109.49,578.19a267.61,267.61,0,0,1,13.75-42.7l-3.83,9.08a207.35,207.35,0,0,1,25.73-44.51l-5.95,7.69a172.58,172.58,0,0,1,30.13-30.2l-7.69,5.94a151.12,151.12,0,0,1,32.61-19.06l-9.08,3.83a132.63,132.63,0,0,1,31.39-8.62L206.45,461a126.6,126.6,0,0,1,33.23,0l-10.1-1.36a116.46,116.46,0,0,1,27.14,7.34l-9.07-3.83a103.82,103.82,0,0,1,21.9,12.59l-7.69-5.94A104.33,104.33,0,0,1,280,487.83L274,480.14a101.42,101.42,0,0,1,12.17,20.69l-3.83-9.08a92.52,92.52,0,0,1,6.36,23l-1.36-10.1c.36,3,.58,6,.67,9a39.62,39.62,0,0,0,11.13,26.87c6.59,6.59,17.4,11.55,26.87,11.13,20.12-.9,38.58-16.71,38-38-.9-32.89-14.52-63.85-37.21-87.56a126.29,126.29,0,0,0-36.29-26.57c-17.79-8.44-34.68-12.81-54.17-15-31.55-3.48-64.09,4.93-91.9,19.64-27.52,14.55-49.81,36.59-68,61.54C56.74,492.83,43.84,525.48,36.21,558c-2.31,9.82-1.34,20.45,3.83,29.28,4.61,7.88,13.65,15.4,22.71,17.46,19.44,4.43,41.88-5.84,46.74-26.54Z" style="fill:#9495ac"/><path d="M104.09,544.78C92.55,533.92,86.67,519.08,73.25,509c1.64-15,4.63-32.17,17.66-39.77,2.18-1.27,4.6-2.23,6.42-4a26.61,26.61,0,0,0,3.63-5.12c3.54-5.52,8.6-9.87,13.6-14.13l9.58-8.18c7.61-6.49,16-13.32,26-13.73a7.31,7.31,0,0,1,4.35.88c1.59,1,2.31,3,2.93,4.78q11.53,33.64,23.08,67.3" style="fill:#f6a4a7"/><path d="M589,430.67l.18.24a.37.37,0,0,1-.18-.24l-26.4-34.76-49.35,26.4c-3.92,2.1-8.12,4.49-9.88,8.58-1.13,2.61-1.08,5.55-1,8.39q.39,17.84.79,35.66a213.83,213.83,0,0,1,7.6-41.59c6.49,1.53,8.58,9.57,9.45,16.18q2,15.18,4,30.35l65-47.41c.68-.5,1.44-1.24,1.17-2S589,430.25,589,430.67Z" style="fill:#2752a0"/><path d="M589.19,430.91l-.18-.24A.37.37,0,0,0,589.19,430.91Z" style="fill:#2752a0"/><path d="M535.1,111.61c-29.1,11.57-47.62,41.48-52.72,72.09l1-1.78a338,338,0,0,0-3.3,82.91c2.24,26.77,8,54,22.63,76.62s39.65,40.12,66.82,40.42c26.53.3,51.24-15.79,66.41-37.23s22-47.61,25.47-73.58c5.43-40.48,2.77-84.07-19.55-118.56S573.42,96.38,535.1,111.61Z" style="fill:#f6a4a7"/><path d="M629.08,259.63l2.48-8.85c-1.06,2.82-2.2,5.61-3.44,8.35A5.54,5.54,0,0,0,629.08,259.63Z" style="fill:#86191e"/><path d="M643.76,91.13c-38.36-25-91.59-18.78-129.28,7.21-30,20.71-55.18,55.22-57,92.63-.38,7.95-.37,16.95,2,23.06l26.74-2.62c7.29-11.18,6.39-28.67,19.23-34.94a69.41,69.41,0,0,0-4,33.44l10.2-1,18.46-18.38q.23,8.26.46,16.52l66.26-6.51A54.67,54.67,0,0,0,611,170.67c-1,9.54-.69,20,5.16,27.57l.31.38,30.55-3-8.63,30.82a144.65,144.65,0,0,1-6.82,24.34l-2.48,8.85c7.43,3,9.33-18.11,18.74-17.86,5.69.16,7.19,8,6.14,13.62a62.33,62.33,0,0,1-16.47,31.72q2.41,24.06,4.82,48.1c24.18-38.29,46.07-79.66,50.71-124.71S681.71,115.85,643.76,91.13Z" style="fill:#fff"/><path d="M638.77,294.15,538.54,342q5.73,40,11.45,80c.74,5.21,1.64,10.75,5.18,14.63a21,21,0,0,0,7.28,4.78c13.38,5.84,28.95,5.47,42.84.94s26.23-12.93,37.14-22.64a36.76,36.76,0,0,0,7.75-8.77c5.32-9.27,2.68-20.85.26-31.27A463.47,463.47,0,0,1,638.77,294.15Z" style="fill:#f6a4a7"/><path d="M660.07,355.26c-.84-2.85-1.79-5.83-3.92-7.9s-5.85-2.84-8.07-.86c4.28,4.76,4.69,12.09,2.47,18.09S643.92,375.5,639.32,380c-25.6,24.76-59.05,39.41-91.53,54-1.54.7-3.19,1.49-4,3s-.57,3.25-.32,4.9a535.59,535.59,0,0,0,11.9,57.2l-.9,3.38a504.29,504.29,0,0,0,108.42-75c2.47-2.24,5-4.56,6.51-7.51,2.8-5.31,2.09-11.72,1.16-17.65A370.64,370.64,0,0,0,660.07,355.26Z" style="fill:#0eaf57"/><path d="M722,509.33c1.26-9.28,1.31-18.85-1.16-27.89-5.21-19.14-20.75-33.44-35.57-46.63-3.55-3.16-7.28-6.41-11.86-7.68-11.32-3.12-21.66,6.69-29.82,15.13-52.63,54.41-126.23,86.4-201.49,94.39s-152-7-221.62-36.67c-23.95-10.19-51.3-22.17-74.78-10.92-9.2,4.4-16.51,12-22.69,20.09a136.63,136.63,0,0,0-19.75,36.24c.59-1,1.2-2,1.85-3l-4.62,11.54c.83-2.86,1.76-5.7,2.77-8.5a70.08,70.08,0,0,0-9.33,33.87,857,857,0,0,1,90.38,10l405.47,40.46a237.68,237.68,0,0,0,40-12.73C675.29,597.7,715.29,558.31,722,509.33Z" style="fill:#029a4a"/><path d="M105.08,542.35c-.65,1-1.26,2-1.85,3-1,2.8-1.94,5.64-2.77,8.5Z" style="fill:#2752a0"/><path d="M387.3,594.84A221.33,221.33,0,0,1,491,468.81c22.26-12.16,46.42-20.34,70.45-28.47l55-18.6c12.43-4.21,25.17-8.46,38.29-8.23,30.39.54,56,25.8,66.22,54.42s8.3,60,5.36,90.26q-4.1,42-10.38,83.69" style="fill:#029a4a"/><path d="M551.31,252.35a27.9,27.9,0,0,1,38.39-11.91c-.6,3.09-3.47,5.15-6.24,6.65a56.67,56.67,0,0,1-31.45,6.6c-.75-.06-1.7-.33-1.77-1.08s1.55-.43,1,.06" style="fill:#fff"/><path d="M520.44,252.35a27.9,27.9,0,0,0-38.39-11.91c.6,3.09,3.47,5.15,6.24,6.65a56.65,56.65,0,0,0,31.45,6.6c.75-.06,1.7-.33,1.77-1.08s-1.55-.43-1,.06" style="fill:#fff"/><path d="M581.91,249.58l.91-.91a8.26,8.26,0,0,0,2.34-5.66,9,9,0,0,0-2.34-5.66,8,8,0,0,0-5.66-2.34,8.35,8.35,0,0,0-5.66,2.34l-.9.91a8.23,8.23,0,0,0-2.35,5.66,8.9,8.9,0,0,0,2.35,5.66,8,8,0,0,0,5.65,2.34,8.37,8.37,0,0,0,5.66-2.34Z" style="fill:#2b2c35"/><path d="M511,253.21l.91-.91a8.24,8.24,0,0,0,2.34-5.65,6.07,6.07,0,0,0-.69-3.09A5.93,5.93,0,0,0,511.9,241a8,8,0,0,0-5.66-2.34,8.3,8.3,0,0,0-5.65,2.34l-.91.91a8.25,8.25,0,0,0-2.35,5.66,6.06,6.06,0,0,0,.69,3.08,6,6,0,0,0,1.66,2.57,8.05,8.05,0,0,0,5.65,2.35,8.38,8.38,0,0,0,5.66-2.35Z" style="fill:#2b2c35"/><path d="M493.55,235.8c6.39-6,17.12-2.59,23.64,1.27,8.87,5.27,16.93-8.56,8.07-13.81-13.14-7.79-31.1-9.9-43,1.23-7.54,7,3.79,18.33,11.32,11.31Z" style="fill:#2b2c35"/><path d="M558.77,241a23.51,23.51,0,0,1,20-5.94c10.07,1.83,14.39-13.59,4.25-15.43a40.62,40.62,0,0,0-35.52,10.05c-7.61,7,3.73,18.26,11.32,11.32Z" style="fill:#2b2c35"/><path d="M565.42,317.61a61.58,61.58,0,0,0-.31-6.23,80.44,80.44,0,0,0-36.37,5.51,49.49,49.49,0,0,0,2.13,6.3C531.54,324.41,553.64,321.93,565.42,317.61Z" style="fill:#fff"/><path d="M542.14,334.15s-4,1.59-3.81,2.7a36,36,0,0,0,1.79,7.58c7.41,2.4,16.14-1.77,20.51-8.4a26.16,26.16,0,0,0,1.82-3.27c-2.27,1.86-7.7,5.68-14,5.68C540.24,338.44,539.76,336.53,542.14,334.15Z" style="fill:#fff"/><path d="M530.87,323.19a49.49,49.49,0,0,1-2.13-6.3,80.67,80.67,0,0,0-8.32,3.9l6.48,2.88s2.22,14,11.63,20.14a15.38,15.38,0,0,0,1.59.62,36,36,0,0,1-1.79-7.58c-.16-1.11,3.81-2.7,3.81-2.7-2.38,2.38-1.9,4.29,6.36,4.29,6.25,0,11.68-3.82,14-5.68a36.09,36.09,0,0,0,3-15.15C553.64,321.93,531.54,324.41,530.87,323.19Z" style="fill:#2b2c35"/><path d="M523.74,278.7c-8.28,8.43-2.28,23.11,9.82,22.45,6.4-.35,6.44-10.35,0-10-3.17.17-5.18-2.9-2.75-5.38,4.51-4.59-2.55-11.67-7.07-7.07Z" style="fill:#2b2c35"/><path d="M476.14,215.69c-.23,33.4,2.42,67.87,10.72,100.32,6.66,26,20.43,51.82,47.38,60.83,13.17,4.41,27.84,3.75,39.69-3.87,3.78-2.43.27-8.49-3.53-6-13.32,8.56-30,6.64-43.36-.88-14.39-8.11-23.52-22.56-29.09-37.74-6.12-16.7-9-34.63-11.22-52.2a448.59,448.59,0,0,1-3.59-60.42c0-4.51-7-4.51-7,0Z" style="fill:#2b2c35"/><path d="M542,375.76c.17,8.79.68,17.55,1.59,26.3q.6,5.81,1.42,11.58.4,2.91.87,5.79c.17,1.09,1.75,6.1,1.14,6.93l4.79-1.25-.47-.22,1.73,3-.05-.59-2.57,3.38.36-.09c4.39-1,2.53-7.75-1.86-6.75l-.36.09a3.5,3.5,0,0,0-2.57,3.37c.16,1.72.58,3.05,2.26,3.83a3.64,3.64,0,0,0,4.79-1.25c2.14-3,.42-7.12-.13-10.4q-1.2-7.25-2-14.53c-1.1-9.71-1.71-19.45-1.9-29.21-.09-4.5-7.1-4.51-7,0Z" style="fill:#2b2c35"/></g><g style="clip-path:url(#b)"><path d="M257.19,543.22c-15.14,6.21-25.78,20.54-31.34,35.93s-6.73,32-7.85,48.3c-.48,7-.94,14.18.88,21,2,7.39,6.54,13.82,11.55,19.61,25.1,29,64.11,45.48,102.42,43.17,10.58-.63,22.25-3.34,28.15-12.16,2.75-4.11,3.88-9.08,4.95-13.91l8.88-40c2-8.84,3.93-17.87,3-26.88s-5.26-18.16-13.18-22.56c-2.12-1.18-5.36-1.68-6.49.47" style="fill:#773b93"/><path d="M497.59,463.59c6.68-3.8,15.8-7,23.45-5.57a77.78,77.78,0,0,1,24.31,9.06c6.92,4,13.4,9.33,17,16.48s3.78,16.39-1.08,22.74c-4.1,5.36-11,7.87-17.69,8.76s-13.51.44-20.21,1.25c-5.62.67-12.1,3.22-13.18,8.78-.46,2.34.19,4.77,0,7.15-.44,5.22-5,9.37-10,10.89s-10.4.9-15.57.06c-4.07-.66-8.55-1.39-12.09.74-3,1.81-4.89,5.47-8.3,6.3.6,9-6.64,17.75-15.55,18.88-3.6.45-7.24-.2-10.87-.18-5.11,0-8.26,2.6-12.63,4.63-5,2.32-10.09,4.55-15.23,6.61-25.36,10.18-53.85,16.92-80.71,8.47" style="fill:#8e4527"/><path d="M597.47,431.22q-1.29,3.93.94-2a23.19,23.19,0,0,1-1.6,2.55q3.86-4.82,1.14-1.76c-.7.73-1.43,1.44-2.18,2.12-3.74,3.89,4.74-3,.21,0-1.82,1.17-3.59,2.36-5.5,3.38-1,.51-1.92,1-2.9,1.44q5.63-2.28,1.73-.79c-1.56.46-3.07,1-4.64,1.43q-1.56.41-3.15.72c-2.82.48-2.11.42,2.12-.21-1.38-.55-4.88.28-6.45.27-13.6-.06-26.63,12-26,26s11.42,25.94,26,26c28.9.13,61.38-16.23,70.42-45.26,4-13-4.78-28.93-18.16-32-14.12-3.22-27.65,4.25-32,18.16Z" style="fill:#aa5735"/><path d="M244.58,573.17c19.2-22.31,3.78-58.24,15.27-85.32,5.25-12.39,15.74-21.78,26.8-29.44a174.08,174.08,0,0,1,53.12-24.77c23.52-6.42,48.19-7.83,71.71-14.26,13.16-3.59,26-8.77,39.64-9.9,24.31-2,47.58,9,69.48,19.75,5.78,2.83,11.6,5.7,16.63,9.71,9.51,7.6,16.59,19.47,28.47,22.1,5.59,1.23,13.88,2.69,12.87,8.33a8,8,0,0,1-2,3.63c-8.27,9.86-20.34,15.55-32,21.07A1820.49,1820.49,0,0,0,380.2,582.79C370,589,359.49,595.67,353.47,606c-2.06,3.52-3.54,7.4-6,10.63-6.06,7.84-16.71,10.28-26.53,11.64-14.33,2-29.15,2.7-43.06-1.3S251,613.56,245.65,600.12a37.92,37.92,0,0,1,1.94-31.69" style="fill:#aa5735"/><g style="isolation:isolate"><g style="isolation:isolate"><g style="clip-path:url(#c)"><g style="isolation:isolate"><path d="M509.69,395.58l0,11.35a4.33,4.33,0,0,0-.65-.31l0-11.36a4.36,4.36,0,0,1,.65.32" style="fill:#4d4d59"/><path d="M509,395.26l0,11.36a5.27,5.27,0,0,0-.56-.19l0-11.35a5.05,5.05,0,0,1,.55.18" style="fill:#50505d"/><path d="M508.49,395.08l0,11.35-.47-.12L508,395l.48.12" style="fill:#535360"/><path d="M508,395l0,11.35-.45-.07,0-11.36.45.08" style="fill:#565664"/><path d="M507.56,394.88l0,11.36-.44-.05,0-11.36.44.05" style="fill:#595967"/><path d="M507.12,394.83l0,11.36-.45,0,0-11.35.45,0" style="fill:#5c5c6b"/><path d="M506.67,394.81l0,11.35h-.46l0-11.35h.46" style="fill:#5f5f6e"/><path d="M506.21,394.81l0,11.35-.51,0,0-11.36.51,0" style="fill:#626272"/><path d="M505.7,394.84l0,11.36a5.77,5.77,0,0,0-.58.08l0-11.35.57-.09" style="fill:#656575"/><path d="M505.13,394.93l0,11.35a6.34,6.34,0,0,0-.86.21l0-11.35a5.69,5.69,0,0,1,.86-.21" style="fill:#686878"/><path d="M504.27,395.14l0,11.35a5.22,5.22,0,0,0-1,.44l-.06,0,0-11.35.06,0a5,5,0,0,1,1-.44" style="fill:#6b6b7c"/><path d="M503.21,395.61l0,11.35a3.85,3.85,0,0,0-.57.43l0-11.35a3.27,3.27,0,0,1,.57-.43" style="fill:#686878"/><path d="M502.64,396l0,11.35a2.56,2.56,0,0,0-.28.3l0-11.35a2,2,0,0,1,.28-.3" style="fill:#656575"/><path d="M502.36,396.34l0,11.35a2.11,2.11,0,0,0-.18.27l0-11.35a2.11,2.11,0,0,1,.18-.27" style="fill:#626272"/><path d="M502.18,396.61l0,11.35-.13.26,0-11.35a1.23,1.23,0,0,1,.12-.26" style="fill:#5f5f6e"/><path d="M502.06,396.87l0,11.35a2,2,0,0,0-.07.26l0-11.36a1.21,1.21,0,0,1,.08-.25" style="fill:#5c5c6b"/><path d="M502,397.12l0,11.36a1.09,1.09,0,0,0,0,.26l0-11.36,0-.26" style="fill:#595967"/><path d="M502,397.38l0,11.36v0l0-11.36v0" style="fill:#565664"/></g></g></g><g style="isolation:isolate"><g style="clip-path:url(#d)"><g style="isolation:isolate"><path d="M503.29,399.3l0,11.35a2.3,2.3,0,0,1-1.34-1.87l0-11.36a2.3,2.3,0,0,0,1.34,1.88" style="fill:#363745"/></g></g></g><polygon points="497.66 405.85 497.62 417.21 467.6 399.87 467.63 388.52 497.66 405.85" style="fill:#4f505c"/><polygon points="467.63 388.52 467.6 399.87 279.49 509.19 279.52 497.83 467.63 388.52" style="fill:#727385"/><g style="isolation:isolate"><g style="clip-path:url(#e)"><g style="isolation:isolate"><path d="M464.85,422.43l0,11.36-27.67-16a.88.88,0,0,0-.22-.1l0-11.36a1.51,1.51,0,0,1,.22.11l27.67,16" style="fill:#363745"/><path d="M437,406.35l0,11.36h0l0-11.35h0" style="fill:#383947"/></g></g></g><polygon points="555.32 421.92 555.29 433.27 509.66 406.93 509.69 395.58 555.32 421.92" style="fill:#4f505c"/><polygon points="548.92 425.64 548.89 436.99 503.26 410.65 503.3 399.3 548.92 425.64" style="fill:#383947"/><polygon points="513.32 414.9 513.29 426.25 499.6 418.35 499.63 407 513.32 414.9" style="fill:#4f505c"/><g style="isolation:isolate"><g style="clip-path:url(#f)"><g style="isolation:isolate"><path d="M497.66,405.85l0,11.36-15.56,9h0l0-11.35h0l15.56-9" style="fill:#4b4c5f"/><path d="M482.08,414.91l0,11.35a1.56,1.56,0,0,0-.19.14l0-11.35a1,1,0,0,1,.2-.14" style="fill:#494a5c"/><path d="M481.88,415.05l0,11.35-.08.09,0-11.35.08-.09" style="fill:#47485a"/><path d="M481.8,415.14l0,11.35a.35.35,0,0,0,0,.08l0-11.36.05-.07" style="fill:#454657"/><path d="M481.75,415.21l0,11.36a.16.16,0,0,0,0,.07l0-11.36,0-.07" style="fill:#434454"/><path d="M481.72,415.28l0,11.36s0,0,0,.06l0-11.35a.25.25,0,0,1,0-.07" style="fill:#404252"/><path d="M481.7,415.35l0,11.35a.2.2,0,0,0,0,.07l0-11.35a.17.17,0,0,1,0-.07" style="fill:#3e404f"/><polyline points="481.69 415.42 481.66 426.77 481.66 426.78 481.69 415.43 481.69 415.42" style="fill:#3c3d4d"/></g></g></g><g style="isolation:isolate"><g style="clip-path:url(#g)"><g style="isolation:isolate"><path d="M485.05,415.47l0,11.35-.47-.27-.21-.1,0-11.36.22.11.46.27" style="fill:#71797b"/></g></g></g><g style="isolation:isolate"><g style="clip-path:url(#h)"><g style="isolation:isolate"><path d="M499.63,407l0,11.35L485,426.82l0-11.35L499.63,407" style="fill:#9da7aa"/></g></g></g><g style="isolation:isolate"><g style="clip-path:url(#i)"><g style="isolation:isolate"><path d="M485.05,415.47l0,11.35-.47-.27-.21-.1,0-11.36.22.11.46.27" style="fill:#71797b"/><path d="M484.37,415.09l0,11.36-.17-.06,0-11.35.17,0" style="fill:#767d7f"/><path d="M484.2,415l0,11.35-.14,0,0-11.36.13,0" style="fill:#7a8284"/><path d="M484.07,415l0,11.36-.12,0L484,415l.12,0" style="fill:#7e8789"/><path d="M484,415l0,11.36-.12,0,0-11.35H484" style="fill:#838b8e"/><path d="M483.83,415l0,11.35h-.11l0-11.36h.12" style="fill:#879092"/><path d="M483.71,415l0,11.36h-.13l0-11.36h.13" style="fill:#8c9497"/><path d="M483.58,415l0,11.36h-.14l0-11.36h.14" style="fill:#90999c"/><path d="M483.44,415l0,11.36-.17,0,0-11.35.17,0" style="fill:#949ea0"/><path d="M483.27,415l0,11.35-.28.07,0-11.35.28-.07" style="fill:#99a2a5"/><path d="M483,415.07l0,11.35a2,2,0,0,0-.36.16l0-11.35a2,2,0,0,1,.36-.16" style="fill:#9da7aa"/><path d="M482.63,415.23l0,11.35-.2.15,0-11.35a1,1,0,0,1,.2-.15" style="fill:#99a2a5"/><path d="M482.43,415.38l0,11.35-.1.1,0-11.35a.41.41,0,0,1,.09-.1" style="fill:#949ea0"/><path d="M482.34,415.48l0,11.35a.41.41,0,0,0-.05.09l0-11.35a.24.24,0,0,1,.06-.09" style="fill:#90999c"/><path d="M482.28,415.57l0,11.35a.2.2,0,0,0,0,.08l0-11.36a.25.25,0,0,1,0-.07" style="fill:#8c9497"/><path d="M482.24,415.64l0,11.36a.14.14,0,0,0,0,.07l0-11.35,0-.08" style="fill:#879092"/><path d="M482.22,415.72l0,11.35a.17.17,0,0,0,0,.07l0-11.35s0-.05,0-.07" style="fill:#838b8e"/><polyline points="482.21 415.79 482.18 427.14 482.18 427.15 482.21 415.8 482.21 415.79" style="fill:#7e8789"/></g></g></g><polygon points="515.29 416.04 515.26 427.39 513.29 426.25 513.32 414.9 515.29 416.04" style="fill:#4f505c"/><g style="isolation:isolate"><g style="clip-path:url(#j)"><g style="isolation:isolate"><path d="M482.14,416l0,11.35a.74.74,0,0,1-.44-.59l0-11.35a.75.75,0,0,0,.45.59" style="fill:#71797b"/></g></g></g><g style="isolation:isolate"><g style="clip-path:url(#k)"><g style="isolation:isolate"><path d="M482.35,416.12l0,11.36-.22-.11,0-11.35a1,1,0,0,0,.21.1" style="fill:#71797b"/></g></g></g><path d="M482.14,416c-.5-.29-.68-.76,0-1.12l15.56-9,2,1.15-14.58,8.47-.46-.27c-1.16-.67-2.87.21-2.24.92A1,1,0,0,1,482.14,416Z" style="fill:#bcc8cb"/><g style="isolation:isolate"><g style="clip-path:url(#l)"><g style="isolation:isolate"><path d="M464.85,422.43l0,11.36-27.67-16a.88.88,0,0,0-.22-.1l0-11.36a1.51,1.51,0,0,1,.22.11l27.67,16" style="fill:#363745"/></g></g></g><g style="isolation:isolate"><g style="clip-path:url(#m)"><g style="isolation:isolate"><path d="M461.38,422.7l0,11.36L435.19,419a1.74,1.74,0,0,1-.2-.13l0-11.35a1.74,1.74,0,0,0,.2.13l26.16,15.1" style="fill:#71797b"/></g></g></g><polygon points="527.42 423.04 527.38 434.39 515.26 427.39 515.29 416.04 527.42 423.04" style="fill:#4f505c"/><g style="isolation:isolate"><g style="clip-path:url(#n)"><g style="isolation:isolate"><path d="M465.26,423l0,11.36c0-.19-.12-.38-.41-.54l0-11.36c.29.17.41.36.41.54" style="fill:#363745"/></g></g></g><g style="isolation:isolate"><g style="clip-path:url(#o)"><g style="isolation:isolate"><path d="M464.22,423l0,11.35a.73.73,0,0,0-.44-.58,1.75,1.75,0,0,0-.24-.11l0-11.36.23.11a.75.75,0,0,1,.44.59" style="fill:#71797b"/><path d="M463.55,422.34l0,11.36-.18-.07,0-11.35.19.06" style="fill:#767d7f"/><path d="M463.36,422.28l0,11.35-.15,0,0-11.36.15,0" style="fill:#7a8284"/><path d="M463.21,422.24l0,11.36-.14,0,0-11.35.14,0" style="fill:#7e8789"/><path d="M463.07,422.22l0,11.35h-.13l0-11.36.12,0" style="fill:#838b8e"/><path d="M463,422.2l0,11.36h-.12l0-11.35H463" style="fill:#879092"/><path d="M462.82,422.2l0,11.35h-.13l0-11.35h.12" style="fill:#8c9497"/><path d="M462.7,422.2l0,11.35h-.13l0-11.35h.14" style="fill:#90999c"/><path d="M462.56,422.21l0,11.35-.15,0,0-11.35.15,0" style="fill:#949ea0"/><path d="M462.41,422.23l0,11.35-.24.06,0-11.35a1.05,1.05,0,0,1,.24-.06" style="fill:#99a2a5"/><path d="M462.17,422.29l0,11.35a1.66,1.66,0,0,0-.33.15l-.46.27,0-11.36.46-.27a2.33,2.33,0,0,1,.33-.14" style="fill:#9da7aa"/></g></g></g><g style="isolation:isolate"><g style="clip-path:url(#p)"><g style="isolation:isolate"><path d="M513.32,414.9l0,11.35-14.58,8.47,0-11.35,14.58-8.47" style="fill:#4b4c5f"/></g></g></g><g style="isolation:isolate"><g style="clip-path:url(#q)"><g style="isolation:isolate"><path d="M498.74,423.37l0,11.35L485,426.82l0-11.35,13.69,7.9" style="fill:#363745"/></g></g></g><g style="isolation:isolate"><g style="clip-path:url(#r)"><g style="isolation:isolate"><polyline points="465.26 422.97 465.23 434.33 465.23 434.34 465.26 422.99 465.26 422.97" style="fill:#7e8789"/><path d="M465.26,423l0,11.36a.17.17,0,0,1,0,.07l0-11.35V423" style="fill:#838b8e"/><path d="M465.26,423.06l0,11.35a.19.19,0,0,1,0,.07l0-11.35,0-.07" style="fill:#879092"/><path d="M465.23,423.13l0,11.35,0,.08,0-11.35,0-.08" style="fill:#8c9497"/><path d="M465.2,423.21l0,11.35-.06.09,0-11.36.06-.08" style="fill:#90999c"/><path d="M465.14,423.29l0,11.36a.94.94,0,0,1-.1.1l0-11.35.1-.11" style="fill:#949ea0"/><path d="M465,423.4l0,11.35-.21.15,0-11.35.2-.15" style="fill:#99a2a5"/></g></g></g><g style="isolation:isolate"><g style="clip-path:url(#s)"><g style="isolation:isolate"><path d="M556.66,423.79l0,11.36a2.3,2.3,0,0,0-1.34-1.88l0-11.35a2.28,2.28,0,0,1,1.34,1.87" style="fill:#4d4d59"/></g></g></g><g style="isolation:isolate"><g style="clip-path:url(#t)"><g style="isolation:isolate"><path d="M556.66,423.79l0,11.36v0l0-11.36v0" style="fill:#3c3d4d"/><path d="M556.66,423.83l0,11.36,0,.26,0-11.36a1.09,1.09,0,0,0,0-.26" style="fill:#3e404f"/><path d="M556.63,424.09l0,11.36a1.21,1.21,0,0,1-.08.25l0-11.35a2.5,2.5,0,0,0,.07-.26" style="fill:#404252"/><path d="M556.56,424.35l0,11.35a1.23,1.23,0,0,1-.12.26l0-11.35.12-.26" style="fill:#434454"/><path d="M556.44,424.61l0,11.35a2.11,2.11,0,0,1-.18.27l0-11.35.19-.27" style="fill:#454657"/><path d="M556.25,424.88l0,11.35a2,2,0,0,1-.28.3l0-11.35a2.56,2.56,0,0,0,.28-.3" style="fill:#47485a"/><path d="M556,425.18l0,11.35a3.36,3.36,0,0,1-.58.43l0-11.35a3.49,3.49,0,0,0,.58-.43" style="fill:#494a5c"/><path d="M555.39,425.61l0,11.35-.05,0a5.31,5.31,0,0,1-1,.44l0-11.35a5.22,5.22,0,0,0,1-.44l0,0" style="fill:#4b4c5f"/><path d="M554.35,426.08l0,11.35a5.86,5.86,0,0,1-.85.21l0-11.35a6.34,6.34,0,0,0,.86-.21" style="fill:#494a5c"/><path d="M553.49,426.29l0,11.35a5.77,5.77,0,0,1-.58.08l0-11.35.58-.08" style="fill:#47485a"/><path d="M552.91,426.37l0,11.35-.51,0,0-11.36.5,0" style="fill:#454657"/><path d="M552.41,426.4l0,11.36h-.46l0-11.35h.47" style="fill:#434454"/><path d="M551.94,426.41l0,11.35-.45,0,0-11.36.45,0" style="fill:#404252"/><path d="M551.49,426.38l0,11.36-.44-.05,0-11.36.44.05" style="fill:#3e404f"/><path d="M551.05,426.33l0,11.36-.45-.08,0-11.35.45.07" style="fill:#3c3d4d"/><path d="M550.6,426.26l0,11.35a4.21,4.21,0,0,1-.48-.12l0-11.35.47.12" style="fill:#3a3b4a"/><path d="M550.13,426.14l0,11.35a5.05,5.05,0,0,1-.55-.18l0-11.36.56.19" style="fill:#383947"/><path d="M549.57,426l0,11.36a5.61,5.61,0,0,1-.65-.32l0-11.35a4.33,4.33,0,0,0,.65.31" style="fill:#363745"/></g></g></g><g style="isolation:isolate"><g style="clip-path:url(#u)"><g style="isolation:isolate"><path d="M556.66,423.79l0,11.36a2.3,2.3,0,0,0-1.34-1.88l0-11.35a2.28,2.28,0,0,1,1.34,1.87" style="fill:#4d4d59"/></g></g></g><g style="isolation:isolate"><g style="clip-path:url(#v)"><g style="isolation:isolate"><path d="M461.38,422.7l0,11.36L442,445.27l0-11.35,19.3-11.22" style="fill:#4b4c5f"/></g></g></g><g style="isolation:isolate"><g style="clip-path:url(#w)"><g style="isolation:isolate"><path d="M442.08,433.92l0,11.35-5.43-3.14-20.94-12.08,0-11.36,20.94,12.09,5.44,3.14" style="fill:#363745"/></g></g></g><g style="isolation:isolate"><g style="clip-path:url(#x)"><g style="isolation:isolate"><path d="M440.11,435.06l0,11.36-26.37-15.23,0-11.35,26.37,15.22" style="fill:#71797b"/></g></g></g><g style="isolation:isolate"><g style="clip-path:url(#y)"><g style="isolation:isolate"><polyline points="464.22 423.04 464.19 434.39 464.19 434.4 464.22 423.05 464.22 423.04" style="fill:#7e8789"/><path d="M464.22,423.05l0,11.35a.15.15,0,0,1,0,.07l0-11.35a.17.17,0,0,0,0-.07" style="fill:#838b8e"/><path d="M464.21,423.12l0,11.35a.14.14,0,0,1,0,.07l0-11.35s0-.05,0-.07" style="fill:#879092"/><path d="M464.2,423.19l0,11.35,0,.07,0-11.35,0-.07" style="fill:#8c9497"/><path d="M464.16,423.26l0,11.35-.05.07,0-11.35.05-.07" style="fill:#90999c"/><path d="M464.11,423.33l0,11.35-.08.09,0-11.35.08-.09" style="fill:#949ea0"/><path d="M464,423.42l0,11.35-.2.15,0-11.36a.94.94,0,0,0,.19-.14" style="fill:#99a2a5"/><path d="M463.84,423.56l0,11.36h0l-.35.2L444,446.41l-2,1.15-12.28,7.14-76,44.17,0-11.36,76-44.17,12.29-7.14,2-1.14,19.41-11.28.36-.21h0" style="fill:#9da7aa"/></g></g></g><g style="isolation:isolate"><g style="clip-path:url(#z)"><g style="isolation:isolate"><path d="M465,423.4l0,11.35-.21.15,0-11.35.2-.15" style="fill:#99a2a5"/><path d="M464.84,423.55l0,11.35a1.5,1.5,0,0,1-.36.16l0-11.35a2,2,0,0,0,.36-.16" style="fill:#9da7aa"/><path d="M464.48,423.71l0,11.35-.27.07,0-11.35.28-.07" style="fill:#99a2a5"/><path d="M464.2,423.78l0,11.35-.17,0,0-11.35.17,0" style="fill:#949ea0"/><path d="M464,423.8l0,11.35h-.14l0-11.35H464" style="fill:#90999c"/><path d="M463.89,423.81l0,11.35h-.13l0-11.35h.13" style="fill:#8c9497"/><path d="M463.76,423.81l0,11.35h-.12l0-11.36h.11" style="fill:#879092"/><path d="M463.65,423.8l0,11.36-.11,0,0-11.35h.12" style="fill:#838b8e"/><path d="M463.53,423.79l0,11.35h-.07l0-11.35h.07" style="fill:#7e8789"/></g></g></g><polygon points="529.39 424.18 529.36 435.53 527.38 434.39 527.42 423.04 529.39 424.18" style="fill:#4f505c"/><path d="M500.71,424.51l-2-1.14,14.58-8.47,2,1.14Z" style="fill:#bcc8cb"/><g style="isolation:isolate"><g style="clip-path:url(#aa)"><g style="isolation:isolate"><path d="M515.29,416l0,11.35-14.58,8.47,0-11.35L515.29,416" style="fill:#9da7aa"/></g></g></g><g style="isolation:isolate"><g style="clip-path:url(#ab)"><g style="isolation:isolate"><path d="M500.71,424.51l0,11.35-2-1.14,0-11.35,2,1.14" style="fill:#71797b"/></g></g></g><g style="isolation:isolate"><g style="clip-path:url(#ac)"><g style="isolation:isolate"><path d="M567.66,429.1l0,11.35a4.18,4.18,0,0,0-.64-.3l0-11.36a4.6,4.6,0,0,1,.63.31" style="fill:#4d4d59"/><path d="M567,428.79l0,11.36a4.72,4.72,0,0,0-.53-.18l0-11.36.54.18" style="fill:#50505d"/><path d="M566.49,428.61l0,11.36c-.15-.05-.3-.08-.46-.12l0-11.35.46.11" style="fill:#535360"/><path d="M566,428.5l0,11.35-.44-.07,0-11.36.43.08" style="fill:#565664"/><path d="M565.6,428.42l0,11.36-.42,0,0-11.35.43,0" style="fill:#595967"/><path d="M565.17,428.38l0,11.35-.44,0,0-11.36.44,0" style="fill:#5c5c6b"/><path d="M564.73,428.35l0,11.36h-.45l0-11.35h.45" style="fill:#5f5f6e"/><path d="M564.28,428.36l0,11.35-.49,0,0-11.35.48,0" style="fill:#626272"/><path d="M563.8,428.39l0,11.35-.56.08,0-11.35a5.58,5.58,0,0,1,.57-.08" style="fill:#656575"/><path d="M563.23,428.47l0,11.35a5.93,5.93,0,0,0-.83.21l0-11.36a7.72,7.72,0,0,1,.83-.2" style="fill:#686878"/><path d="M562.4,428.67l0,11.36a5,5,0,0,0-1,.42l0,0,0-11.35.06,0a5.27,5.27,0,0,1,1-.43" style="fill:#6b6b7c"/><path d="M561.38,429.13l0,11.35a4.27,4.27,0,0,0-.56.41l0-11.35a3.58,3.58,0,0,1,.55-.41" style="fill:#686878"/><path d="M560.83,429.54l0,11.35a3.65,3.65,0,0,0-.27.3l0-11.36a2.51,2.51,0,0,1,.28-.29" style="fill:#656575"/><path d="M560.55,429.83l0,11.36a1.51,1.51,0,0,0-.18.26l0-11.35c0-.09.11-.18.17-.27" style="fill:#626272"/></g></g></g><g style="isolation:isolate"><g style="clip-path:url(#ad)"><g style="isolation:isolate"><path d="M560.55,429.83l0,11.36a1.51,1.51,0,0,0-.18.26l0-11.35c0-.09.11-.18.17-.27" style="fill:#626272"/><path d="M560.38,430.1l0,11.35a2.72,2.72,0,0,0-.11.25l0-11.35a1.15,1.15,0,0,1,.12-.25" style="fill:#5f5f6e"/></g></g></g><g style="isolation:isolate"><g style="clip-path:url(#ae)"><g style="isolation:isolate"><path d="M496.78,424.51l0,11.35-9.92,5.76,0-11.35,9.91-5.76" style="fill:#4b4c5f"/></g></g></g><g style="isolation:isolate"><g style="clip-path:url(#af)"><g style="isolation:isolate"><path d="M560.38,430.1l0,11.35a2.72,2.72,0,0,0-.11.25l0-11.35a1.15,1.15,0,0,1,.12-.25" style="fill:#5f5f6e"/><path d="M560.26,430.35l0,11.35a1.17,1.17,0,0,0-.07.25l0-11.35a1.82,1.82,0,0,1,.07-.25" style="fill:#5c5c6b"/><path d="M560.19,430.6l0,11.35a1.07,1.07,0,0,0,0,.25l0-11.35a1,1,0,0,1,0-.25" style="fill:#595967"/><path d="M560.16,430.85l0,11.35v0l0-11.35v0" style="fill:#565664"/></g></g></g><g style="isolation:isolate"><g style="clip-path:url(#ag)"><g style="isolation:isolate"><path d="M569,430.91l0,11.36a2.2,2.2,0,0,0-1.3-1.82l0-11.35a2.2,2.2,0,0,1,1.3,1.81" style="fill:#4d4d59"/></g></g></g><polygon points="541.52 431.18 541.48 442.53 529.36 435.53 529.39 424.18 541.52 431.18" style="fill:#4f505c"/><g style="isolation:isolate"><g style="clip-path:url(#ah)"><g style="isolation:isolate"><path d="M486.68,430.26l0,11.35h-.16l0-11.35h.16" style="fill:#434454"/><path d="M486.52,430.26l0,11.35-.18,0,0-11.36h.18" style="fill:#454657"/><path d="M486.34,430.27l0,11.36a.78.78,0,0,0-.22,0l0-11.36.22,0" style="fill:#47485a"/><path d="M486.12,430.3l0,11.36-.34.08,0-11.35.34-.09" style="fill:#494a5c"/><path d="M485.78,430.39l0,11.35a2,2,0,0,0-.42.19l0-11.35a2,2,0,0,1,.42-.19" style="fill:#4b4c5f"/><path d="M485.36,430.58l0,11.35a1.06,1.06,0,0,0-.23.17l0-11.36a1.34,1.34,0,0,1,.23-.16" style="fill:#494a5c"/><path d="M485.13,430.74l0,11.36a.94.94,0,0,0-.1.1l0-11.35.1-.11" style="fill:#47485a"/><path d="M485,430.85l0,11.35-.06.09,0-11.35.06-.09" style="fill:#454657"/><path d="M485,430.94l0,11.35,0,.08,0-11.35,0-.08" style="fill:#434454"/><path d="M484.93,431l0,11.35s0,.05,0,.08l0-11.36s0,0,0-.07" style="fill:#404252"/><path d="M484.91,431.09l0,11.36s0,0,0,.07l0-11.35s0-.05,0-.08" style="fill:#3e404f"/><polyline points="484.9 431.17 484.87 442.52 484.87 442.53 484.9 431.18 484.9 431.17" style="fill:#3c3d4d"/></g></g></g><g style="isolation:isolate"><g style="clip-path:url(#ai)"><g style="isolation:isolate"><path d="M527.42,423l0,11.35-14.58,8.47,0-11.35L527.42,423" style="fill:#4b4c5f"/></g></g></g><g style="isolation:isolate"><g style="clip-path:url(#aj)"><g style="isolation:isolate"><path d="M512.84,431.51l0,11.35-12.12-7,0-11.35,12.13,7" style="fill:#363745"/></g></g></g><g style="isolation:isolate"><g style="clip-path:url(#ak)"><g style="isolation:isolate"><path d="M498.75,425.65l0,11.35-9.91,5.76-.06,0,0-11.36.06,0,9.91-5.76" style="fill:#9da7aa"/></g></g></g><g style="isolation:isolate"><g style="clip-path:url(#al)"><g style="isolation:isolate"><path d="M512.84,431.51l0,11.35-1,.57,0-11.35,1-.57" style="fill:#9da7aa"/></g></g></g><polygon points="543.49 432.32 543.46 443.67 541.48 442.53 541.52 431.18 543.49 432.32" style="fill:#4f505c"/><g style="isolation:isolate"><g style="clip-path:url(#am)"><g style="isolation:isolate"><path d="M511.86,432.08l0,11.35h0l0-11.35h0" style="fill:#9da7aa"/><path d="M511.84,432.09l0,11.35a1.57,1.57,0,0,0-.19.15l0-11.36.2-.14" style="fill:#99a2a5"/><path d="M511.64,432.23l0,11.36-.08.08,0-11.35.08-.09" style="fill:#949ea0"/><path d="M511.56,432.32l0,11.35a.35.35,0,0,0,0,.08l0-11.35a.35.35,0,0,1,.05-.08" style="fill:#90999c"/><path d="M511.51,432.4l0,11.35a.11.11,0,0,0,0,.07l0-11.35,0-.07" style="fill:#8c9497"/><path d="M511.48,432.47l0,11.35a.14.14,0,0,0,0,.07l0-11.36a.14.14,0,0,1,0-.06" style="fill:#879092"/><path d="M511.46,432.53l0,11.36a.15.15,0,0,0,0,.07l0-11.36a.2.2,0,0,1,0-.07" style="fill:#838b8e"/><polyline points="511.45 432.6 511.42 443.96 511.42 443.97 511.45 432.61 511.45 432.6" style="fill:#7e8789"/></g></g></g><g style="isolation:isolate"><g style="clip-path:url(#an)"><g style="isolation:isolate"><path d="M529.39,424.18l0,11.35-15.56,9a1.4,1.4,0,0,1-.33.15l0-11.35a1.66,1.66,0,0,0,.33-.15l15.56-9" style="fill:#9da7aa"/><path d="M513.5,433.37l0,11.35-.24.06,0-11.35.23-.06" style="fill:#99a2a5"/><path d="M513.27,433.43l0,11.35-.15,0,0-11.35.16,0" style="fill:#949ea0"/><path d="M513.11,433.45l0,11.35h-.14l0-11.35h.13" style="fill:#90999c"/><path d="M513,433.46l0,11.35h-.12l0-11.35H513" style="fill:#8c9497"/><path d="M512.85,433.46l0,11.35h-.12l0-11.35h.12" style="fill:#879092"/><path d="M512.73,433.45l0,11.35h-.13l0-11.35h.13" style="fill:#838b8e"/><path d="M512.6,433.44l0,11.35-.14,0,0-11.36.13,0" style="fill:#7e8789"/><path d="M512.47,433.41l0,11.36-.15,0,0-11.35.16,0" style="fill:#7a8284"/><path d="M512.31,433.38l0,11.35-.18-.06,0-11.36.18.07" style="fill:#767d7f"/><path d="M512.13,433.31l0,11.36-.24-.11a.75.75,0,0,1-.44-.59l0-11.36a.75.75,0,0,0,.45.59l.23.11" style="fill:#71797b"/></g></g></g><g style="isolation:isolate"><g style="clip-path:url(#ao)"><g style="isolation:isolate"><path d="M512.09,433.33l0,11.35a1,1,0,0,1-.23-.11L498.72,437l-2-1.14-14.16-8.17a1.05,1.05,0,0,1-.27-.21.48.48,0,0,1-.14-.33l0-11.35a.44.44,0,0,0,.14.32.94.94,0,0,0,.28.22l14.15,8.17,2,1.14,13.11,7.57.23.11" style="fill:#71797b"/></g></g></g><g style="isolation:isolate"><g style="clip-path:url(#ap)"><g style="isolation:isolate"><path d="M512.09,433.33l0,11.35a1,1,0,0,1-.23-.11L498.72,437l-2-1.14-14.16-8.17a1.05,1.05,0,0,1-.27-.21.48.48,0,0,1-.14-.33l0-11.35a.44.44,0,0,0,.14.32.94.94,0,0,0,.28.22l14.15,8.17,2,1.14,13.11,7.57.23.11" style="fill:#71797b"/></g></g></g><g style="isolation:isolate"><g style="clip-path:url(#aq)"><g style="isolation:isolate"><path d="M512.84,433.46l0,11.35h-.1l0-11.35h.1" style="fill:#8c9497"/><path d="M512.74,433.46l0,11.35h-.12l0-11.35h.12" style="fill:#879092"/><path d="M512.62,433.45l0,11.35h-.12l0-11.35h.11" style="fill:#838b8e"/><path d="M512.51,433.44l0,11.35-.12,0,0-11.35.13,0" style="fill:#7e8789"/><path d="M512.38,433.42l0,11.35-.13,0,0-11.36.13,0" style="fill:#7a8284"/><path d="M512.25,433.38l0,11.36-.16-.06,0-11.35.16.05" style="fill:#767d7f"/><path d="M512.09,433.33l0,11.35a1,1,0,0,1-.23-.11L498.72,437l-2-1.14-14.16-8.17a1.05,1.05,0,0,1-.27-.21.48.48,0,0,1-.14-.33l0-11.35a.44.44,0,0,0,.14.32.94.94,0,0,0,.28.22l14.15,8.17,2,1.14,13.11,7.57.23.11" style="fill:#71797b"/></g></g></g><path d="M511.86,432.08c-.64.37-.46.84,0,1.12a2,2,0,0,0,.94.26,1.92,1.92,0,0,1-1-.24l-13.11-7.57-2-1.14-14.15-8.17a.94.94,0,0,1-.28-.22c-.63-.71,1.08-1.59,2.24-.92l.46.27,13.69,7.9,2,1.14,12.13,7Z" style="fill:#bcc8cb"/><path d="M511.86,432.08l1-.57L527.42,423l2,1.14-15.56,9a1.84,1.84,0,0,1-1,.24,2,2,0,0,1-.94-.26C511.4,432.92,511.22,432.45,511.86,432.08Z" style="fill:#bcc8cb"/><g style="isolation:isolate"><g style="clip-path:url(#ar)"><g style="isolation:isolate"><path d="M569,430.91l0,11.36v0L569,431v0" style="fill:#3c3d4d"/><path d="M569,431l0,11.36a1.13,1.13,0,0,1,0,.25l0-11.35a1.15,1.15,0,0,0,0-.26" style="fill:#3e404f"/><path d="M568.93,431.21l0,11.35c0,.08,0,.16-.07.25l0-11.36a2.17,2.17,0,0,0,.07-.24" style="fill:#404252"/><path d="M568.86,431.45l0,11.36a1.87,1.87,0,0,1-.12.25l0-11.36a1.15,1.15,0,0,0,.12-.25" style="fill:#434454"/><path d="M568.74,431.7l0,11.36a2,2,0,0,1-.18.26l0-11.35c.06-.09.12-.18.17-.27" style="fill:#454657"/><path d="M568.57,432l0,11.35a2.44,2.44,0,0,1-.27.29l0-11.35a2.51,2.51,0,0,0,.28-.29" style="fill:#47485a"/><path d="M568.29,432.26l0,11.35a3.15,3.15,0,0,1-.56.42l0-11.36a3.42,3.42,0,0,0,.55-.41" style="fill:#494a5c"/><path d="M567.74,432.67l0,11.36-.05,0a4.89,4.89,0,0,1-1,.42l0-11.35a4.92,4.92,0,0,0,1-.43l.06,0" style="fill:#4b4c5f"/><path d="M566.72,433.13l0,11.35a5.93,5.93,0,0,1-.83.21l0-11.36a7.72,7.72,0,0,0,.83-.2" style="fill:#494a5c"/><path d="M565.89,433.33l0,11.36-.57.08,0-11.36a5.39,5.39,0,0,0,.56-.08" style="fill:#47485a"/><path d="M565.33,433.41l0,11.36-.48,0,0-11.35.49,0" style="fill:#454657"/><path d="M564.84,433.45l0,11.35h-.45l0-11.35h.45" style="fill:#434454"/><path d="M564.39,433.45l0,11.35-.44,0,0-11.36.44,0" style="fill:#404252"/><path d="M564,433.42l0,11.36-.43,0,0-11.35.42,0" style="fill:#3e404f"/><path d="M563.53,433.38l0,11.35-.43-.08,0-11.35.44.08" style="fill:#3c3d4d"/><path d="M563.09,433.3l0,11.35-.46-.11,0-11.35.46.11" style="fill:#3a3b4a"/><path d="M562.63,433.19l0,11.35a4.88,4.88,0,0,1-.54-.18l0-11.35.54.18" style="fill:#383947"/><path d="M562.09,433l0,11.35a6.09,6.09,0,0,1-.63-.3,2.22,2.22,0,0,1-1.3-1.82l0-11.35a2.2,2.2,0,0,0,1.3,1.81,4.6,4.6,0,0,0,.63.31" style="fill:#363745"/></g></g></g><polygon points="564.49 444.44 564.45 455.79 543.46 443.67 543.49 432.32 564.49 444.44" style="fill:#4f505c"/><polygon points="566.46 445.58 566.43 456.93 564.45 455.79 564.49 444.44 566.46 445.58" style="fill:#4f505c"/><g style="isolation:isolate"><g style="clip-path:url(#as)"><g style="isolation:isolate"><path d="M541.52,431.18l0,11.35L515,457.94l0-11.36,26.52-15.4" style="fill:#4b4c5f"/></g></g></g><g style="isolation:isolate"><g style="clip-path:url(#at)"><g style="isolation:isolate"><path d="M515,446.58l0,11.36L488.75,442.8l0-11.36L515,446.58" style="fill:#363745"/></g></g></g><path d="M515.47,446.85c1.27.74-.69,1.87-2,1.14l-.47-.27-27.73-16c-1.09-.63.21-1.56,1.41-1.34a2,2,0,0,1,.56.2l1.5.87L515,446.58Z" style="fill:#bcc8cb"/><polygon points="579.93 453.36 579.9 464.71 566.43 456.93 566.46 445.58 579.93 453.36" style="fill:#4f505c"/><g style="isolation:isolate"><g style="clip-path:url(#au)"><g style="isolation:isolate"><path d="M513,447.72l0,11.36-10.4,6,0-11.36,10.39-6" style="fill:#4b4c5f"/></g></g></g><g style="isolation:isolate"><g style="clip-path:url(#av)"><g style="isolation:isolate"><path d="M504.71,454.85l0,11.36a6.46,6.46,0,0,0-.67-.44,9.44,9.44,0,0,0-1.24-.59l0-11.35a8.7,8.7,0,0,1,1.23.59,7,7,0,0,1,.67.43" style="fill:#71797b"/><path d="M502.81,453.83l0,11.35-.16-.06,0-11.36.16.07" style="fill:#767d7f"/></g></g></g><g style="isolation:isolate"><g style="clip-path:url(#aw)"><g style="isolation:isolate"><path d="M502.65,453.76l0,11.36a7.69,7.69,0,0,0-.85-.28l0-11.36.86.28" style="fill:#383947"/><path d="M501.79,453.48l0,11.36a8.89,8.89,0,0,0-.89-.22l0-11.35c.3.06.6.13.89.21" style="fill:#3a3b4a"/><path d="M500.9,453.27l0,11.35q-.42-.09-.84-.15l0-11.35q.44.06.84.15" style="fill:#3c3d4d"/><path d="M500.06,453.12l0,11.35c-.27,0-.54-.07-.82-.09l0-11.35c.28,0,.55.05.82.09" style="fill:#3e404f"/><path d="M499.24,453l0,11.35c-.28,0-.55,0-.83,0l0-11.36.83,0" style="fill:#404252"/><path d="M498.41,453l0,11.36h-.87l0-11.35h.87" style="fill:#434454"/><path d="M497.54,453l0,11.35-.93.06,0-11.35q.47,0,.93-.06" style="fill:#454657"/><path d="M496.61,453.05l0,11.35q-.56.06-1.08.15l0-11.35q.53-.09,1.08-.15" style="fill:#47485a"/><path d="M495.53,453.2l0,11.35a12.86,12.86,0,0,0-1.57.39l0-11.35a12.86,12.86,0,0,1,1.57-.39" style="fill:#494a5c"/><path d="M494,453.59l0,11.35a9.24,9.24,0,0,0-1.89.83l-.06,0,0-11.35.06,0a9.24,9.24,0,0,1,1.89-.83" style="fill:#4b4c5f"/></g></g></g><g style="isolation:isolate"><g style="clip-path:url(#ax)"><g style="isolation:isolate"><path d="M543.49,432.32l0,11.35L506.4,465.2l-1.72,1,0-11.36,1.72-1,37.06-21.53" style="fill:#9da7aa"/></g></g></g><g style="isolation:isolate"><g style="clip-path:url(#ay)"><g style="isolation:isolate"><path d="M504.71,454.85l0,11.36a6.46,6.46,0,0,0-.67-.44,9.44,9.44,0,0,0-1.24-.59l0-11.35a8.7,8.7,0,0,1,1.23.59,7,7,0,0,1,.67.43" style="fill:#71797b"/></g></g></g><g style="isolation:isolate"><g style="clip-path:url(#az)"><g style="isolation:isolate"><path d="M501.59,458.09l0,11.35a2,2,0,0,0-1.18-1.65,4.43,4.43,0,0,0-.58-.27l0-11.36a5,5,0,0,1,.57.28,2,2,0,0,1,1.18,1.65" style="fill:#015026"/></g></g></g><g style="isolation:isolate"><g style="clip-path:url(#ba)"><g style="isolation:isolate"><path d="M501.59,458.09l0,11.35a2,2,0,0,0-1.18-1.65,4.43,4.43,0,0,0-.58-.27l0-11.36a5,5,0,0,1,.57.28,2,2,0,0,1,1.18,1.65" style="fill:#015026"/><path d="M499.84,456.16l0,11.36c-.15-.06-.31-.12-.48-.17l0-11.35.49.16" style="fill:#015328"/><path d="M499.35,456l0,11.35-.42-.1,0-11.35.42.1" style="fill:#015629"/><path d="M498.93,455.9l0,11.35-.4-.07,0-11.35.39.07" style="fill:#01592b"/><path d="M498.54,455.83l0,11.35-.38,0,0-11.35.39,0" style="fill:#015c2c"/><path d="M498.15,455.79l0,11.35-.4,0,0-11.36.4,0" style="fill:#015f2e"/><path d="M497.75,455.76l0,11.36h-.41l0-11.35h.41" style="fill:#01632f"/><path d="M497.34,455.77l0,11.35-.45,0,0-11.35a3.15,3.15,0,0,1,.44,0" style="fill:#016631"/><path d="M496.9,455.8l0,11.35-.51.07,0-11.35a4.34,4.34,0,0,1,.52-.07" style="fill:#016932"/><path d="M496.38,455.87l0,11.35a6.49,6.49,0,0,0-.76.19l0-11.35a4.58,4.58,0,0,1,.75-.19" style="fill:#016c34"/><path d="M495.63,456.06l0,11.35a4,4,0,0,0-.87.39l-.05,0,0-11.35.05,0a4.67,4.67,0,0,1,.88-.38" style="fill:#016f35"/></g></g></g><g style="isolation:isolate"><g style="clip-path:url(#bb)"><g style="isolation:isolate"><path d="M495.63,456.06l0,11.35a4,4,0,0,0-.87.39l-.05,0,0-11.35.05,0a4.67,4.67,0,0,1,.88-.38" style="fill:#016f35"/></g></g></g><g style="isolation:isolate"><g style="clip-path:url(#bc)"><g style="isolation:isolate"><path d="M495.63,456.06l0,11.35a4,4,0,0,0-.87.39l-.05,0,0-11.35.05,0a4.67,4.67,0,0,1,.88-.38" style="fill:#016f35"/><path d="M494.7,456.47l0,11.35a3.56,3.56,0,0,0-.51.38l0-11.36a3.41,3.41,0,0,1,.5-.37" style="fill:#016c34"/><path d="M494.2,456.84l0,11.36a2,2,0,0,0-.24.26l0-11.35a2.05,2.05,0,0,1,.25-.27" style="fill:#016932"/><path d="M494,457.11l0,11.35a1.77,1.77,0,0,0-.17.24l0-11.35a1.67,1.67,0,0,1,.16-.24" style="fill:#016631"/><path d="M493.79,457.35l0,11.35a2.29,2.29,0,0,0-.1.23l0-11.35a1.2,1.2,0,0,1,.11-.23" style="fill:#01632f"/><path d="M493.68,457.58l0,11.35a2,2,0,0,0-.07.23l0-11.36a.9.9,0,0,1,.06-.22" style="fill:#015f2e"/><path d="M493.62,457.8l0,11.36a1.64,1.64,0,0,0,0,.23l0-11.36a1,1,0,0,1,0-.23" style="fill:#015c2c"/><path d="M493.59,458l0,11.36v0l0-11.35v0" style="fill:#01592b"/></g></g></g><g style="isolation:isolate"><g style="clip-path:url(#bd)"><g style="isolation:isolate"><path d="M501.59,458.09l0,11.35a2,2,0,0,0-1.18-1.65,4.43,4.43,0,0,0-.58-.27l0-11.36a5,5,0,0,1,.57.28,2,2,0,0,1,1.18,1.65" style="fill:#015026"/></g></g></g><g style="isolation:isolate"><g style="clip-path:url(#be)"><g style="isolation:isolate"><path d="M487.44,460.11l0,11.35-43.39-25,0-11.35,43.39,25.05" style="fill:#363745"/></g></g></g><g style="isolation:isolate"><g style="clip-path:url(#bf)"><g style="isolation:isolate"><path d="M494,453.59l0,11.35a9.24,9.24,0,0,0-1.89.83l-.06,0,0-11.35.06,0a9.24,9.24,0,0,1,1.89-.83" style="fill:#4b4c5f"/><path d="M492,454.45l0,11.35a5.81,5.81,0,0,0-.9.7l0-11.36a5.7,5.7,0,0,1,.9-.69" style="fill:#494a5c"/><path d="M491.11,455.14l0,11.36a13.43,13.43,0,0,0-1.34,1.49l0-11.35a12.73,12.73,0,0,1,1.34-1.5" style="fill:#47485a"/><path d="M489.77,456.64l0,11.35a33.29,33.29,0,0,0-2.33,3.47l0-11.35a31.29,31.29,0,0,1,2.33-3.47" style="fill:#454657"/></g></g></g><g style="isolation:isolate"><g style="clip-path:url(#bg)"><g style="isolation:isolate"><path d="M501.59,458.09l0,11.35v0l0-11.36v0" style="fill:#7e8789"/><path d="M501.59,458.12l0,11.36a1,1,0,0,1,0,.23l0-11.36a.85.85,0,0,0,0-.23" style="fill:#838b8e"/><path d="M501.56,458.35l0,11.36a.9.9,0,0,1-.06.22l0-11.35a.86.86,0,0,0,.06-.23" style="fill:#879092"/><path d="M501.5,458.58l0,11.35a1.63,1.63,0,0,1-.11.23l0-11.35a1.2,1.2,0,0,0,.11-.23" style="fill:#8c9497"/><path d="M501.39,458.81l0,11.35-.16.24,0-11.35a1.67,1.67,0,0,0,.16-.24" style="fill:#90999c"/><path d="M501.23,459.05l0,11.35a3.08,3.08,0,0,1-.25.27l0-11.36a1.52,1.52,0,0,0,.25-.26" style="fill:#949ea0"/><path d="M501,459.31l0,11.36a2.58,2.58,0,0,1-.51.37l0-11.35a2.6,2.6,0,0,0,.51-.38" style="fill:#99a2a5"/><path d="M500.47,459.69l0,11.35-.05,0a4,4,0,0,1-.87.39l0-11.36a5,5,0,0,0,.88-.38l0,0" style="fill:#9da7aa"/><path d="M499.55,460.1l0,11.36a6,6,0,0,1-.76.19l0-11.36a4.69,4.69,0,0,0,.76-.19" style="fill:#99a2a5"/><path d="M498.79,460.29l0,11.36-.51.07,0-11.36a4.46,4.46,0,0,0,.51-.07" style="fill:#949ea0"/><path d="M498.28,460.36l0,11.36-.44,0,0-11.36a3.25,3.25,0,0,0,.44,0" style="fill:#90999c"/><path d="M497.84,460.39l0,11.36h-.41l0-11.35h.41" style="fill:#8c9497"/><path d="M497.43,460.4l0,11.35-.4,0,0-11.35.4,0" style="fill:#879092"/><path d="M497,460.38l0,11.35-.39-.05,0-11.35.39.05" style="fill:#838b8e"/><path d="M496.64,460.33l0,11.35-.39-.06,0-11.36.39.07" style="fill:#7e8789"/><path d="M496.25,460.26l0,11.36-.42-.11,0-11.35.42.1" style="fill:#7a8284"/><path d="M495.83,460.16l0,11.35a4,4,0,0,1-.49-.16l0-11.35.49.16" style="fill:#767d7f"/><path d="M495.34,460l0,11.35a3.77,3.77,0,0,1-.57-.28,2,2,0,0,1-1.18-1.65l0-11.35a2,2,0,0,0,1.18,1.65,5,5,0,0,0,.57.28" style="fill:#71797b"/></g></g></g><g style="isolation:isolate"><g style="clip-path:url(#bh)"><g style="isolation:isolate"><path d="M486.47,461.82l0,11.36-44.38-25.62,0-11.36,44.38,25.62" style="fill:#71797b"/></g></g></g><g style="isolation:isolate"><g style="clip-path:url(#bi)"><g style="isolation:isolate"><path d="M486.47,461.82l0,11.36c-.38.7-.72,1.36-1,1.93l0-11.35c.29-.57.63-1.23,1-1.94" style="fill:#434454"/></g></g></g><g style="isolation:isolate"><g style="clip-path:url(#bj)"><g style="isolation:isolate"><path d="M506.54,457.91l0,11.35v.08l0-11.36v-.07" style="fill:#01592b"/><path d="M506.54,458l0,11.36a3.93,3.93,0,0,1-.06.48l0-11.35a2.73,2.73,0,0,0,.06-.49" style="fill:#015c2c"/><path d="M506.48,458.47l0,11.35a2.9,2.9,0,0,1-.14.48l0-11.36a2.52,2.52,0,0,0,.13-.47" style="fill:#015f2e"/><path d="M506.35,458.94l0,11.36a3.41,3.41,0,0,1-.22.48l0-11.35a3.12,3.12,0,0,0,.23-.49" style="fill:#01632f"/><path d="M506.12,459.43l0,11.35a4,4,0,0,1-.34.5l0-11.35a4.91,4.91,0,0,0,.34-.5" style="fill:#016631"/><path d="M505.78,459.93l0,11.35a4.49,4.49,0,0,1-.52.56l0-11.35a4.49,4.49,0,0,0,.52-.56" style="fill:#016932"/><path d="M505.26,460.49l0,11.35a6.31,6.31,0,0,1-1.08.8l0-11.35a6.31,6.31,0,0,0,1.08-.8" style="fill:#016c34"/><path d="M504.18,461.29l0,11.35-.1.06a10.49,10.49,0,0,1-2,.82l0-11.35a11.18,11.18,0,0,0,2-.82l.1-.06" style="fill:#016f35"/><path d="M502.06,462.17l0,11.35c-2,.64-4.92,1.3-7.8,1.88-1,.2-2,.4-3,.57l-1.4.26,0-11.35,1.39-.26,2.95-.57c2.88-.58,5.8-1.24,7.8-1.88" style="fill:#016c34"/><path d="M489.92,464.88l0,11.35-3.49.6,0-11.35c.94-.15,2.15-.36,3.5-.6" style="fill:#016932"/></g></g></g><g style="isolation:isolate"><g style="clip-path:url(#bk)"><g style="isolation:isolate"><path d="M512.56,474.61l0,11.36-18.3-10.57,0-11.35,18.3,10.56" style="fill:#363745"/></g></g></g><path d="M504.08,461.35c3.06-1.78,3.26-4.57.63-6.5l1.72-1,37.06-21.53,21,12.12-51.93,30.17-18.3-10.56C498.39,463.22,502.58,462.22,504.08,461.35Z" style="fill:#5a5b72"/><g style="isolation:isolate"><g style="clip-path:url(#bl)"><g style="isolation:isolate"><path d="M564.49,444.44l0,11.35L512.53,486l0-11.36,51.93-30.17" style="fill:#4b4c5f"/></g></g></g><g style="isolation:isolate"><g style="clip-path:url(#bm)"><g style="isolation:isolate"><path d="M514.54,475.76l0,11.35-2-1.14,0-11.36,2,1.15" style="fill:#71797b"/></g></g></g><path d="M514.54,475.76l-2-1.15,51.93-30.17,2,1.14Z" style="fill:#bcc8cb"/><g style="isolation:isolate"><g style="clip-path:url(#bn)"><g style="isolation:isolate"><path d="M566.46,445.58l0,11.35-51.92,30.18,0-11.35,51.92-30.18" style="fill:#9da7aa"/></g></g></g><path d="M566.46,445.58l13.47,7.78L528,483.53l-13.47-7.77Z" style="fill:#5a5b72"/><polygon points="579.93 453.36 579.9 464.71 527.98 494.89 528.01 483.53 579.93 453.36" style="fill:#505266"/><g style="isolation:isolate"><g style="clip-path:url(#bo)"><g style="isolation:isolate"><path d="M528,483.53l0,11.36-13.47-7.78,0-11.35L528,483.53" style="fill:#363745"/></g></g></g><polygon points="528.01 483.53 527.98 494.89 526.01 496.03 526.04 484.68 528.01 483.53" style="fill:#a8b3b6"/><g style="isolation:isolate"><g style="clip-path:url(#bp)"><g style="isolation:isolate"><path d="M526,484.67,526,496l-24.22-14L491.28,476l0-11.35,10.51,6.07,24.22,14" style="fill:#71797b"/></g></g></g><g style="isolation:isolate"><g style="clip-path:url(#bq)"><g style="isolation:isolate"><path d="M351.82,486.37l0,11.36-2.11-1.22-24.27-14,0-11.35,24.28,14,2.1,1.21" style="fill:#363745"/></g></g></g><g style="isolation:isolate"><g style="clip-path:url(#br)"><g style="isolation:isolate"><path d="M353.79,487.51l0,11.36-2-1.14,0-11.36,2,1.14" style="fill:#71797b"/></g></g></g><g style="isolation:isolate"><g style="clip-path:url(#bs)"><g style="isolation:isolate"><path d="M349.86,487.51l0,11.36-8.05,4.68-34,19.77h0l0-11.35,0,0,34-19.77,8.06-4.68" style="fill:#4b4c5f"/></g></g></g><g style="isolation:isolate"><g style="clip-path:url(#bt)"><g style="isolation:isolate"><path d="M351.83,488.65l0,11.36-2-1.14-26.37-15.23,0-11.35,26.38,15.22,2,1.14" style="fill:#71797b"/></g></g></g><g style="isolation:isolate"><g style="clip-path:url(#bu)"><g style="isolation:isolate"><path d="M437.6,511.44l0,11.35a1.06,1.06,0,0,0-.39-.36l-.23-.11L437,511a1.23,1.23,0,0,1,.23.11,1,1,0,0,1,.39.36" style="fill:#363745"/><path d="M437,511l0,11.35a1.06,1.06,0,0,0-.19-.06l0-11.36.18.07" style="fill:#383947"/><path d="M436.8,510.9l0,11.36-.15,0,0-11.35.16,0" style="fill:#3a3b4a"/><path d="M436.64,510.87l0,11.35-.13,0,0-11.36.13,0" style="fill:#3c3d4d"/><path d="M436.51,510.84l0,11.36-.13,0,0-11.35h.13" style="fill:#3e404f"/><path d="M436.38,510.83l0,11.35h-.12l0-11.35h.12" style="fill:#404252"/><path d="M436.26,510.82l0,11.35h-.13l0-11.36h.13" style="fill:#434454"/><path d="M436.13,510.82l0,11.36H436l0-11.35h.13" style="fill:#454657"/><path d="M436,510.83l0,11.35-.16,0,0-11.36.16,0" style="fill:#47485a"/><path d="M435.84,510.85l0,11.36-.24.06,0-11.36.23-.06" style="fill:#494a5c"/><path d="M435.61,510.91l0,11.36a1.3,1.3,0,0,0-.32.14L415,534.2l0-11.35,20.29-11.79a1.66,1.66,0,0,1,.33-.15" style="fill:#4b4c5f"/></g></g></g><g style="isolation:isolate"><g style="clip-path:url(#bv)"><g style="isolation:isolate"><path d="M437.6,511.44l0,11.35a1.06,1.06,0,0,0-.39-.36l-.23-.11L437,511a1.23,1.23,0,0,1,.23.11,1,1,0,0,1,.39.36" style="fill:#363745"/></g></g></g><g style="isolation:isolate"><g style="clip-path:url(#bw)"><g style="isolation:isolate"><path d="M459,523.63,459,535l-20.73-12-.22-.1,0-11.36.23.11,20.72,12" style="fill:#363745"/><path d="M438.07,511.55l0,11.36-.17-.06,0-11.35.16.05" style="fill:#383947"/><path d="M437.91,511.5l0,11.35-.13,0,0-11.35a.7.7,0,0,1,.14,0" style="fill:#3a3b4a"/><path d="M437.77,511.47l0,11.35-.12,0,0-11.36.12,0" style="fill:#3c3d4d"/><path d="M437.65,511.44l0,11.36h-.05l0-11.35h0" style="fill:#3e404f"/></g></g></g><g style="isolation:isolate"><g style="clip-path:url(#bx)"><g style="isolation:isolate"><path d="M437.66,511.67l0,11.35a.46.46,0,0,0-.06-.23l0-11.35a.46.46,0,0,1,.06.23" style="fill:#71797b"/></g></g></g><g style="isolation:isolate"><g style="clip-path:url(#by)"><g style="isolation:isolate"><path d="M349.86,487.51l0,11.36-8.05,4.68-34,19.77h0l0-11.35,0,0,34-19.77,8.06-4.68" style="fill:#4b4c5f"/><path d="M307.76,512l0,11.35a.72.72,0,0,0-.19.14l0-11.35a.94.94,0,0,1,.19-.14" style="fill:#494a5c"/><path d="M307.57,512.12l0,11.35-.08.09,0-11.35.08-.09" style="fill:#47485a"/><path d="M307.49,512.21l0,11.35,0,.07,0-11.35.05-.07" style="fill:#454657"/><path d="M307.44,512.28l0,11.35,0,.07,0-11.35a.25.25,0,0,1,0-.07" style="fill:#434454"/><path d="M307.4,512.35l0,11.35a.64.64,0,0,1,0,.07l0-11.35s0,0,0-.07" style="fill:#404252"/><path d="M307.39,512.42l0,11.35v.07l0-11.35a.15.15,0,0,1,0-.07" style="fill:#3e404f"/><polyline points="307.38 512.49 307.35 523.84 307.35 523.85 307.38 512.5 307.38 512.49" style="fill:#3c3d4d"/></g></g></g><g style="isolation:isolate"><g style="clip-path:url(#bz)"><g style="isolation:isolate"><path d="M351.83,488.65l0,11.36-42.08,24.45,0-11.36,42.07-24.45" style="fill:#9da7aa"/></g></g></g><g style="isolation:isolate"><g style="clip-path:url(#ca)"><g style="isolation:isolate"><path d="M309.76,513.1l0,11.36a1.3,1.3,0,0,1-.32.14l0-11.35.33-.15" style="fill:#9da7aa"/><path d="M309.43,513.25l0,11.35-.24.06,0-11.35.24-.06" style="fill:#99a2a5"/><path d="M309.19,513.31l0,11.35-.16,0,0-11.35.15,0" style="fill:#949ea0"/><path d="M309,513.33l0,11.35h-.13l0-11.35H309" style="fill:#90999c"/><path d="M308.9,513.34l0,11.35h-.12l0-11.35h.12" style="fill:#8c9497"/><path d="M308.78,513.34l0,11.35h-.13l0-11.36h.12" style="fill:#879092"/><path d="M308.66,513.33l0,11.36-.12,0,0-11.35h.13" style="fill:#838b8e"/><path d="M308.53,513.32l0,11.35-.14,0,0-11.35.14,0" style="fill:#7e8789"/><path d="M308.39,513.3l0,11.35-.15,0,0-11.35.15,0" style="fill:#7a8284"/><path d="M308.24,513.26l0,11.35-.19-.06,0-11.35.18.06" style="fill:#767d7f"/><path d="M308.06,513.2l0,11.35-.23-.11c-.27-.16-.45-.37-.44-.59l0-11.35a.73.73,0,0,0,.44.58,1.34,1.34,0,0,0,.24.12" style="fill:#71797b"/></g></g></g><path d="M429.8,443.34l12.29-7.14,44.38,25.62c-.39.71-.73,1.37-1,1.94l-86.12,50-45.54-26.3Z" style="fill:#5a5b72"/><g style="isolation:isolate"><g style="clip-path:url(#cb)"><g style="isolation:isolate"><path d="M399.33,513.81l0,11.35-45.54-26.29,0-11.36,45.54,26.3" style="fill:#363745"/></g></g></g><g style="isolation:isolate"><g style="clip-path:url(#cc)"><g style="isolation:isolate"><path d="M485.45,463.76l0,11.35-86.11,50,0-11.35,86.12-50" style="fill:#4b4c5f"/></g></g></g><g style="isolation:isolate"><g style="clip-path:url(#cd)"><g style="isolation:isolate"><path d="M486.42,465.48l0,11.35L401.27,526.3l0-11.35,85.12-49.47" style="fill:#9da7aa"/></g></g></g><path d="M486.42,465.48,401.3,515l-2-1.14,86.12-50c-.62,1.21-1,2-1,2Z" style="fill:#bcc8cb"/><g style="isolation:isolate"><g style="clip-path:url(#ce)"><g style="isolation:isolate"><path d="M401.3,515l0,11.35-2-1.14,0-11.35,2,1.14" style="fill:#71797b"/></g></g></g><g style="isolation:isolate"><g style="clip-path:url(#cf)"><g style="isolation:isolate"><path d="M247,519.13l0,11.35c-3.87-2.23-5.8-5.16-5.79-8.09l0-11.35c0,2.92,1.92,5.85,5.79,8.09" style="fill:#4d4d59"/></g></g></g><g style="isolation:isolate"><g style="clip-path:url(#cg)"><g style="isolation:isolate"><path d="M435.61,510.91l0,11.36a1.3,1.3,0,0,0-.32.14L415,534.2l0-11.35,20.29-11.79a1.66,1.66,0,0,1,.33-.15" style="fill:#4b4c5f"/></g></g></g><g style="isolation:isolate"><g style="clip-path:url(#ch)"><g style="isolation:isolate"><path d="M415,522.85l0,11.35-13.69-7.9,0-11.35,13.69,7.9" style="fill:#363745"/></g></g></g><polygon points="526.04 484.68 526.01 496.03 458.99 534.98 459.02 523.63 526.04 484.68" style="fill:#505266"/><g style="isolation:isolate"><g style="clip-path:url(#ci)"><g style="isolation:isolate"><path d="M413,524l0,11.35-.62-.36-13.07-7.54-2-1.14L351.8,500l0-11.36L397.37,515l2,1.13,13.07,7.55.62.36" style="fill:#71797b"/></g></g></g><g style="isolation:isolate"><g style="clip-path:url(#cj)"><g style="isolation:isolate"><path d="M415,522.85l0,11.35-2,1.14L413,524l2-1.14" style="fill:#9da7aa"/></g></g></g><path d="M351.83,488.65l-2-1.14-26.38-15.22,2-1.14,24.28,14,2.1,1.21,2,1.14,45.54,26.3,2,1.14,13.69,7.9L413,524l-.62-.36-13.07-7.55-2-1.13Z" style="fill:#bcc8cb"/><g style="isolation:isolate"><g style="clip-path:url(#ck)"><g style="isolation:isolate"><path d="M413,524l0,11.35-14.58,8.47,0,0,0-11.36h0L413,524" style="fill:#4b4c5f"/></g></g></g><g style="isolation:isolate"><g style="clip-path:url(#cl)"><g style="isolation:isolate"><polyline points="437.66 511.67 437.63 523.02 437.63 523.03 437.66 511.68 437.66 511.67" style="fill:#7e8789"/><path d="M437.66,511.68l0,11.35a.17.17,0,0,1,0,.07l0-11.35a.2.2,0,0,0,0-.07" style="fill:#838b8e"/><path d="M437.65,511.75l0,11.35a.19.19,0,0,1,0,.07l0-11.36a.14.14,0,0,0,0-.06" style="fill:#879092"/><path d="M437.63,511.81l0,11.36,0,.07,0-11.36a.15.15,0,0,0,0-.07" style="fill:#8c9497"/><path d="M437.6,511.88l0,11.36-.05.07,0-11.35a.35.35,0,0,0,.05-.08" style="fill:#90999c"/><path d="M437.55,512l0,11.35-.08.09,0-11.35.08-.09" style="fill:#949ea0"/><path d="M437.47,512.05l0,11.35a1.56,1.56,0,0,1-.19.14l0-11.35.19-.14" style="fill:#99a2a5"/><path d="M437.28,512.19l0,11.35h0l-1,.57-19.3,11.22-2,1.14L400.4,545l0-11.36L415,525.13l2-1.14,19.31-11.22,1-.57h0" style="fill:#9da7aa"/></g></g></g><g style="isolation:isolate"><g style="clip-path:url(#cm)"><g style="isolation:isolate"><path d="M457.05,524.77l0,11.35-20.72-12-.06,0,0-11.35.05,0,20.72,12" style="fill:#71797b"/></g></g></g><polygon points="459.02 523.63 458.99 534.98 457.02 536.12 457.05 524.77 459.02 523.63" style="fill:#a8b3b6"/><path d="M437.6,511.44c.13.24.06.52-.34.76l-1,.57L417,524l-2,1.14-14.58,8.47a8.59,8.59,0,0,1-1.05-.54,2,2,0,0,0-1.32-.2.82.82,0,0,1,.39-.4L413,524l2-1.14,20.29-11.79a2,2,0,0,1,1.93,0A1,1,0,0,1,437.6,511.44Z" style="fill:#bcc8cb"/><path d="M436.28,512.77l20.77,12L437.75,536,417,524Z" style="fill:#5a5b72"/><g style="isolation:isolate"><g style="clip-path:url(#cn)"><g style="isolation:isolate"><path d="M437.75,536l0,11.35-20.78-12L417,524l20.78,12" style="fill:#363745"/></g></g></g><polygon points="457.05 524.77 457.02 536.12 437.72 547.34 437.75 535.99 457.05 524.77" style="fill:#505266"/><polygon points="437.75 535.99 437.72 547.34 435.75 548.48 435.79 537.13 437.75 535.99" style="fill:#a8b3b6"/><g style="isolation:isolate"><g style="clip-path:url(#co)"><g style="isolation:isolate"><path d="M435.79,537.13l0,11.35-20.78-12,0-11.35,20.78,12" style="fill:#71797b"/></g></g></g><g style="isolation:isolate"><g style="clip-path:url(#cp)"><g style="isolation:isolate"><path d="M397.37,515l0,11.35-.87.5-42.25,24.55,0-11.35,42.24-24.55.87-.5" style="fill:#4b4c5f"/></g></g></g><g style="isolation:isolate"><g style="clip-path:url(#cq)"><g style="isolation:isolate"><path d="M354.26,540l0,11.35,0,0,0-11.36h0" style="fill:#4b4c5f"/><path d="M354.24,540l0,11.36a.94.94,0,0,0-.19.14l0-11.36.2-.14" style="fill:#494a5c"/><path d="M354,540.15l0,11.36-.08.08,0-11.35.08-.09" style="fill:#47485a"/><path d="M354,540.24l0,11.35a.35.35,0,0,0-.05.08l0-11.35,0-.08" style="fill:#454657"/><path d="M353.91,540.32l0,11.35,0,.07,0-11.36,0-.06" style="fill:#434454"/><path d="M353.88,540.38l0,11.36a.14.14,0,0,0,0,.07l0-11.36a.25.25,0,0,1,0-.07" style="fill:#404252"/><path d="M353.86,540.45l0,11.36a.13.13,0,0,0,0,.06l0-11.35s0,0,0-.07" style="fill:#3e404f"/><polyline points="353.85 540.52 353.82 551.87 353.82 551.88 353.85 540.53 353.85 540.52" style="fill:#3c3d4d"/></g></g></g><g style="isolation:isolate"><g style="clip-path:url(#cr)"><g style="isolation:isolate"><path d="M353.93,540.8l0,11.35a.53.53,0,0,1-.08-.27l0-11.35a.56.56,0,0,0,.08.27" style="fill:#71797b"/></g></g></g><path d="M354.26,540c-.43.25-.49.54-.33.8l-74.41-43,44-25.54,26.38,15.22-8.06,4.68-34,19.77c-.63.37-.45.84,0,1.12a2,2,0,0,0,1.94,0l42.07-24.45L397.37,515l-.87.5Z" style="fill:#5a5b72"/><polygon points="353.94 540.8 353.9 552.15 279.49 509.19 279.52 497.83 353.94 540.8" style="fill:#383947"/><g style="isolation:isolate"><g style="clip-path:url(#cs)"><g style="isolation:isolate"><path d="M331.94,540.8l0,11.35c0-2.14-1.41-4.28-4.24-5.91a14.68,14.68,0,0,0-2.07-1l0-11.35a17.16,17.16,0,0,1,2.07,1c2.83,1.64,4.24,3.78,4.23,5.92" style="fill:#4d4d59"/><path d="M325.64,533.89l0,11.35c-.56-.22-1.14-.41-1.74-.58l0-11.36c.6.17,1.18.37,1.75.59" style="fill:#50505d"/><path d="M323.89,533.3l0,11.36c-.49-.14-1-.27-1.5-.37l0-11.35c.51.1,1,.22,1.49.36" style="fill:#535360"/><path d="M322.4,532.94l0,11.35c-.46-.1-.94-.18-1.42-.25l0-11.35c.48.07,1,.15,1.43.25" style="fill:#565664"/><path d="M321,532.69l0,11.35c-.46-.06-.92-.12-1.39-.15l0-11.36c.47,0,.93.09,1.39.16" style="fill:#595967"/><path d="M319.58,532.53l0,11.36c-.47,0-.94-.07-1.42-.08l0-11.35c.47,0,.94,0,1.41.07" style="fill:#5c5c6b"/><path d="M318.17,532.46l0,11.35c-.49,0-1,0-1.47,0l0-11.36c.48,0,1,0,1.47,0" style="fill:#5f5f6e"/><path d="M316.7,532.46l0,11.36c-.53,0-1.06,0-1.59.1l0-11.35c.53-.05,1.06-.09,1.6-.11" style="fill:#626272"/><path d="M315.1,532.57l0,11.35c-.62.06-1.23.15-1.83.26l0-11.35c.6-.11,1.22-.2,1.83-.26" style="fill:#656575"/><path d="M313.27,532.83l0,11.35a21.61,21.61,0,0,0-2.72.67l0-11.35a19.87,19.87,0,0,1,2.71-.67" style="fill:#686878"/><path d="M310.56,533.5l0,11.35a16.52,16.52,0,0,0-3.14,1.39l-.18.1,0-11.35.17-.11a17,17,0,0,1,3.15-1.38" style="fill:#6b6b7c"/><path d="M307.24,535l0,11.35a10.93,10.93,0,0,0-1.81,1.35l0-11.36a11.14,11.14,0,0,1,1.82-1.34" style="fill:#686878"/><path d="M305.42,536.33l0,11.36a7.8,7.8,0,0,0-.89.95l0-11.35a7.91,7.91,0,0,1,.89-1" style="fill:#656575"/><path d="M304.53,537.29l0,11.35a6.19,6.19,0,0,0-.58.86l0-11.35a6.49,6.49,0,0,1,.58-.86" style="fill:#626272"/><path d="M304,538.15l0,11.35a5.5,5.5,0,0,0-.38.82l0-11.35a5.5,5.5,0,0,1,.38-.82" style="fill:#5f5f6e"/><path d="M303.57,539l0,11.35a6.21,6.21,0,0,0-.24.81l0-11.36a4.55,4.55,0,0,1,.23-.8" style="fill:#5c5c6b"/><path d="M303.34,539.77l0,11.36a5.71,5.71,0,0,0-.09.82l0-11.35a4.7,4.7,0,0,1,.1-.83" style="fill:#595967"/><path d="M303.24,540.6l0,11.35v.13l0-11.36v-.12" style="fill:#565664"/></g></g></g><g style="isolation:isolate"><g style="clip-path:url(#ct)"><g style="isolation:isolate"><path d="M399.34,516.08l0,11.36-43.11,25,0-11.35,43.11-25.06" style="fill:#9da7aa"/></g></g></g><polygon points="354.86 541.33 354.83 552.68 353.9 552.15 353.94 540.8 354.86 541.33" style="fill:#757c7f"/><g style="isolation:isolate"><g style="clip-path:url(#cu)"><g style="isolation:isolate"><path d="M356.23,541.14l0,11.35-.33.15,0-11.35a2.41,2.41,0,0,0,.33-.15" style="fill:#9da7aa"/><path d="M355.9,541.29l0,11.35-.24.06,0-11.36.24-.05" style="fill:#99a2a5"/><path d="M355.66,541.34l0,11.36-.15,0,0-11.35.15,0" style="fill:#949ea0"/><path d="M355.51,541.37l0,11.35h-.14l0-11.36h.13" style="fill:#90999c"/><path d="M355.38,541.37l0,11.36h-.12l0-11.35h.13" style="fill:#8c9497"/><path d="M355.25,541.38l0,11.35h-.12l0-11.35h.12" style="fill:#879092"/><path d="M355.13,541.37l0,11.35H355l0-11.36.13,0" style="fill:#838b8e"/><path d="M355,541.35l0,11.36-.14,0,0-11.35.13,0" style="fill:#7e8789"/><polyline points="354.87 541.33 354.83 552.68 354.83 552.68 354.86 541.33 354.87 541.33" style="fill:#7a8284"/></g></g></g><g style="isolation:isolate"><g style="clip-path:url(#cv)"><g style="isolation:isolate"><path d="M421.15,545.63l0,11.36-20.78-12,0-11.36,20.78,12" style="fill:#363745"/></g></g></g><polygon points="435.79 537.13 435.75 548.48 421.12 556.99 421.15 545.63 435.79 537.13" style="fill:#505266"/><path d="M400.43,533.6,415,525.13l20.78,12-14.64,8.5-20.78-12Z" style="fill:#5a5b72"/><polygon points="421.15 545.63 421.12 556.99 419.15 558.13 419.19 546.77 421.15 545.63" style="fill:#a8b3b6"/><g style="isolation:isolate"><g style="clip-path:url(#cw)"><g style="isolation:isolate"><path d="M419.19,546.77l0,11.36-21.76-12.57c-.3-.17-.42-.36-.42-.54l0-11.35c0,.18.12.37.41.54l21.77,12.56" style="fill:#71797b"/></g></g></g><g style="isolation:isolate"><g style="clip-path:url(#cx)"><g style="isolation:isolate"><path d="M331.94,540.8l0,11.36v.12l0-11.35v-.13" style="fill:#3c3d4d"/><path d="M331.94,540.93l0,11.35a4.48,4.48,0,0,1-.1.82l0-11.35a5.71,5.71,0,0,0,.09-.82" style="fill:#3e404f"/><path d="M331.85,541.75l0,11.35a4.42,4.42,0,0,1-.23.81l0-11.35a6.21,6.21,0,0,0,.24-.81" style="fill:#404252"/><path d="M331.61,542.56l0,11.35a5.5,5.5,0,0,1-.38.82l0-11.35a6,6,0,0,0,.38-.82" style="fill:#434454"/><path d="M331.23,543.38l0,11.35a7.63,7.63,0,0,1-.58.86l0-11.36a6.4,6.4,0,0,0,.58-.85" style="fill:#454657"/><path d="M330.65,544.23l0,11.36a8.67,8.67,0,0,1-.89.95l0-11.35a7.19,7.19,0,0,0,.89-1" style="fill:#47485a"/><path d="M329.76,545.19l0,11.35a10.62,10.62,0,0,1-1.82,1.35l0-11.35a10.93,10.93,0,0,0,1.81-1.35" style="fill:#494a5c"/><path d="M328,546.54l0,11.35-.17.1a16.34,16.34,0,0,1-3.15,1.39l0-11.36a15.89,15.89,0,0,0,3.14-1.38l.18-.1" style="fill:#4b4c5f"/><path d="M324.63,548l0,11.36a21.19,21.19,0,0,1-2.72.67l0-11.35a22.07,22.07,0,0,0,2.72-.68" style="fill:#494a5c"/><path d="M321.91,548.7l0,11.35c-.6.11-1.21.2-1.83.26l0-11.36c.61-.06,1.23-.14,1.83-.25" style="fill:#47485a"/><path d="M320.08,549l0,11.36c-.52.05-1.06.09-1.59.1l0-11.35c.54,0,1.07,0,1.6-.11" style="fill:#454657"/><path d="M318.48,549.06l0,11.35c-.49,0-1,0-1.47,0l0-11.35c.49,0,1,0,1.47,0" style="fill:#434454"/><path d="M317,549.07l0,11.35c-.47,0-.94,0-1.41-.08l0-11.35c.47,0,.94.07,1.41.08" style="fill:#404252"/><path d="M315.6,549l0,11.35c-.47,0-.94-.09-1.4-.15l0-11.35c.46.06.92.11,1.39.15" style="fill:#3e404f"/><path d="M314.21,548.84l0,11.35c-.48-.07-.95-.15-1.42-.25l0-11.35c.47.1,1,.18,1.43.25" style="fill:#3c3d4d"/><path d="M312.78,548.59l0,11.35c-.51-.1-1-.23-1.5-.37l0-11.35c.49.14,1,.26,1.49.37" style="fill:#3a3b4a"/><path d="M311.29,548.22l0,11.35c-.59-.17-1.18-.36-1.74-.58l0-11.36c.57.22,1.15.42,1.75.59" style="fill:#383947"/><path d="M309.54,547.63l0,11.36a15.23,15.23,0,0,1-2.07-1c-2.83-1.63-4.24-3.77-4.23-5.91l0-11.36c0,2.14,1.41,4.29,4.23,5.92a15.77,15.77,0,0,0,2.07,1" style="fill:#363745"/></g></g></g><polygon points="419.19 546.77 419.15 558.13 391.8 574.03 391.83 562.67 419.19 546.77" style="fill:#505266"/><path d="M398.06,532.86c-.88.17-1.5.85-.64,1.35l21.77,12.56-27.36,15.9-37-21.34a2,2,0,0,0,1.37-.19l43.11-25.06,13.07,7.55.62.36-14.58,8.47A.82.82,0,0,0,398.06,532.86Z" style="fill:#5a5b72"/><polygon points="391.83 562.67 391.8 574.03 354.83 552.68 354.86 541.33 391.83 562.67" style="fill:#383947"/><path d="M605.06,436.35c7.68,4.44,7.73,11.62.09,16.06L382.9,581.57c-7.63,4.44-20,4.43-27.72,0L247,519.13c-7.68-4.44-7.73-11.63-.1-16.06L469.18,373.91c7.63-4.44,20.05-4.44,27.72,0Zm-77,47.18,51.92-30.17-13.47-7.78-2-1.14-21-12.12-2-1.14-12.13-7-2-1.14-12.13-7-2-1.14L499.63,407l-2-1.15-30-17.33L279.52,497.83l112.31,64.84,27.36-15.9,2-1.14,14.64-8.5,2-1.14,19.3-11.22,2-1.14,67-39,2-1.14M307.47,546.64c5.63,3.25,14.71,3.25,20.3,0s5.56-8.51-.06-11.76-14.71-3.24-20.3,0-5.56,8.51.06,11.76M509.69,395.58a7.06,7.06,0,0,0-6.42,0c-1.77,1-1.75,2.69,0,3.72l45.63,26.34a7.09,7.09,0,0,0,6.42,0c1.77-1,1.76-2.69,0-3.72l-45.63-26.34m58,33.52a6.82,6.82,0,0,0-6.22,0c-1.71,1-1.71,2.61,0,3.6a6.82,6.82,0,0,0,6.22,0c1.72-1,1.71-2.61,0-3.6" style="fill:#9495ac"/><path d="M513.32,414.9l-14.58,8.47-13.69-7.9L499.63,407Z" style="fill:#5a5b72"/><path d="M461.38,422.7l-26.16-15.1a1.74,1.74,0,0,1-.2-.13l1.93-1.12a1,1,0,0,1,.23.11l27.67,16c1.09.63-.2,1.56-1.39,1.35l.36-.21c.63-.36.45-.83,0-1.12a2.07,2.07,0,0,0-1.94,0Z" style="fill:#bcc8cb"/><path d="M555.32,421.92c1.78,1,1.79,2.69,0,3.72a7.06,7.06,0,0,1-6.42,0L503.29,399.3c-1.77-1-1.79-2.7,0-3.72a7.06,7.06,0,0,1,6.42,0Z" style="fill:#5a5b72"/><path d="M527.42,423l-14.58,8.47-12.13-7L515.29,416Z" style="fill:#5a5b72"/><path d="M487.28,430.57a2,2,0,0,0-.56-.2l.15-.1,9.91-5.76,2,1.14-9.91,5.76-.06,0Z" style="fill:#bcc8cb"/><path d="M567.66,429.1c1.73,1,1.74,2.61,0,3.6a6.82,6.82,0,0,1-6.22,0c-1.73-1-1.73-2.61,0-3.6A6.82,6.82,0,0,1,567.66,429.1Z" style="fill:#5a5b72"/><path d="M442.08,433.92l-5.44-3.14L415.7,418.69,435,407.47a1.74,1.74,0,0,0,.2.13l26.16,15.1Z" style="fill:#5a5b72"/><path d="M442.08,433.92l-2,1.14-26.37-15.22,2-1.15,20.94,12.09Z" style="fill:#bcc8cb"/><path d="M541.52,431.18,515,446.58l-26.22-15.14,10-5.79,13.11,7.57a1.92,1.92,0,0,0,1,.24,1.84,1.84,0,0,0,1-.24l15.56-9Z" style="fill:#5a5b72"/><g style="isolation:isolate"><g style="clip-path:url(#cy)"><g style="isolation:isolate"><path d="M610.85,444.44l0,11.35V456l0-11.35v-.17" style="fill:#565664"/><path d="M610.85,444.61l0,11.35a8.69,8.69,0,0,1-.13,1.13l0-11.36a7,7,0,0,0,.13-1.12" style="fill:#595967"/><path d="M610.72,445.73l0,11.36a7.25,7.25,0,0,1-.32,1.1l0-11.35a7.73,7.73,0,0,0,.32-1.11" style="fill:#5c5c6b"/><path d="M610.4,446.84l0,11.35a7.52,7.52,0,0,1-.52,1.12l0-11.36a7.42,7.42,0,0,0,.52-1.11" style="fill:#5f5f6e"/><path d="M609.88,448l0,11.36a11.46,11.46,0,0,1-.79,1.17l0-11.36a8.59,8.59,0,0,0,.79-1.17" style="fill:#626272"/><path d="M609.09,449.12l0,11.36a11.29,11.29,0,0,1-1.22,1.3l0-11.35a11.31,11.31,0,0,0,1.21-1.31" style="fill:#656575"/><path d="M607.88,450.43l0,11.35a14.93,14.93,0,0,1-2.48,1.84l0-11.35a15.46,15.46,0,0,0,2.49-1.84" style="fill:#686878"/><path d="M605.39,452.27l0,11.35-.24.14,0-11.35.24-.14" style="fill:#6b6b7c"/></g></g></g><path d="M515.47,446.85l-.47-.27,26.52-15.4,2,1.14-37.06,21.53-1.72,1a7,7,0,0,0-.67-.43,9.89,9.89,0,0,0-1.39-.66l10.39-6,.47.27C514.78,448.72,516.74,447.59,515.47,446.85Z" style="fill:#bcc8cb"/><path d="M464.85,422.43l-27.67-16a1,1,0,0,0-.23-.11l30.68-17.83,30,17.33-15.56,9c-.64.36-.46.83,0,1.12l.49.32,14.15,8.17-9.91,5.76c-1.35-.12-2.65.81-1.56,1.44l27.73,16-10.39,6a13.37,13.37,0,0,0-10.58.66c-1.5.87-3.21,3.3-4.63,5.69l-43.39-25.05,19.41-11.28C464.65,424,465.94,423.06,464.85,422.43Z" style="fill:#5a5b72"/><path d="M500.41,456.44c1.57.91,1.57,2.37,0,3.28a6.24,6.24,0,0,1-5.66,0c-1.57-.9-1.58-2.37,0-3.28A6.27,6.27,0,0,1,500.41,456.44Z" style="fill:#bcc8cb"/><path d="M444.05,435.06l43.39,25.05c-.34.58-.67,1.16-1,1.71L442.09,436.2Z" style="fill:#bcc8cb"/><path d="M504.71,454.85c2.63,1.93,2.43,4.72-.63,6.5-1.5.87-5.69,1.87-9.82,2.7l-2.95.57c-1.91.35-3.64.65-4.89.86l-2,.32s.38-.83,1-2c.29-.57.63-1.23,1-1.94.3-.55.63-1.13,1-1.71,1.42-2.39,3.13-4.82,4.63-5.69a13.37,13.37,0,0,1,10.58-.66,9.89,9.89,0,0,1,1.39.66C504.28,454.56,504.5,454.7,504.71,454.85Zm-9.94,4.87a6.24,6.24,0,0,0,5.66,0c1.55-.91,1.55-2.37,0-3.28a6.27,6.27,0,0,0-5.66,0c-1.56.91-1.55,2.38,0,3.28" style="fill:#028540"/><path d="M512.56,474.61l2,1.15L528,483.53l-2,1.14-24.22-14-10.51-6.07,2.95-.57Z" style="fill:#bcc8cb"/><path d="M351.82,486.37l-2.1-1.21-24.28-14,88.3-51.31,26.37,15.22Z" style="fill:#5a5b72"/><path d="M463.78,422.45c.49.29.67.76,0,1.12l-.36.21-19.41,11.28-2,1.14-12.29,7.14-76,44.17-2-1.14,88.29-51.31,2-1.14,19.3-11.22.46-.27A2.07,2.07,0,0,1,463.78,422.45Z" style="fill:#bcc8cb"/><path d="M309.76,513.1a2,2,0,0,1-1.94,0c-.49-.28-.67-.75,0-1.12l34-19.77,8.06-4.68,2,1.14Z" style="fill:#bcc8cb"/><path d="M491.31,464.62l10.51,6.07,24.22,14-67,39-20.72-12a1.79,1.79,0,0,0-.7-.22,1,1,0,0,0-.39-.36,2,2,0,0,0-1.93,0L415,522.85,401.3,515l85.12-49.47C487.67,465.27,489.4,465,491.31,464.62Z" style="fill:#5a5b72"/><path d="M437.6,511.44a1.79,1.79,0,0,1,.7.22l20.72,12-2,1.14-20.72-12-.05,0,1-.57C437.66,512,437.73,511.68,437.6,511.44Z" style="fill:#bcc8cb"/><path d="M415,525.13l2-1.14,20.78,12-2,1.14Z" style="fill:#bcc8cb"/><path d="M356.23,541.14a2,2,0,0,1-1.37.19l-.93-.53c-.16-.26-.1-.55.33-.8l42.24-24.55.87-.5,2,1.13Z" style="fill:#bcc8cb"/><path d="M399.38,533.06l1,.57,20.78,12-2,1.14-21.77-12.56c-.86-.5-.24-1.18.64-1.35A2,2,0,0,1,399.38,533.06Z" style="fill:#bcc8cb"/><path d="M327.71,534.88c5.62,3.25,5.65,8.51.06,11.76s-14.67,3.25-20.3,0-5.64-8.51-.06-11.76S322.08,531.64,327.71,534.88Z" style="fill:#5a5b72"/><polygon points="605.15 452.41 605.12 463.76 382.87 592.92 382.9 581.57 605.15 452.41" style="fill:#727385"/><polygon points="355.18 581.57 355.14 592.92 246.99 530.48 247.02 519.13 355.18 581.57" style="fill:#4f505c"/><g style="isolation:isolate"><g style="clip-path:url(#cz)"><g style="isolation:isolate"><path d="M382.9,581.57l0,11.36a22.53,22.53,0,0,1-4.29,1.88l0-11.35a22.3,22.3,0,0,0,4.3-1.89" style="fill:#6b6b7c"/><path d="M378.6,583.46l0,11.35a27.57,27.57,0,0,1-3.71.93l0-11.36a27.55,27.55,0,0,0,3.71-.92" style="fill:#686878"/><path d="M374.89,584.38l0,11.36c-.82.14-1.66.26-2.5.34l0-11.35c.85-.08,1.68-.2,2.5-.35" style="fill:#656575"/><path d="M372.39,584.73l0,11.35c-.72.08-1.45.12-2.17.15l0-11.35c.73,0,1.45-.08,2.17-.15" style="fill:#626272"/><path d="M370.22,584.88l0,11.35c-.67,0-1.34,0-2,0l0-11.35c.67,0,1.34,0,2,0" style="fill:#5f5f6e"/><path d="M368.21,584.89l0,11.35c-.65,0-1.29,0-1.93-.1l0-11.36c.64.06,1.29.09,1.93.11" style="fill:#5c5c6b"/><path d="M366.28,584.78l0,11.36c-.64-.06-1.28-.13-1.91-.22l0-11.35c.63.09,1.27.16,1.91.21" style="fill:#595967"/><path d="M364.37,584.57l0,11.35c-.65-.09-1.3-.2-1.94-.34l0-11.35c.64.13,1.29.25,1.94.34" style="fill:#565664"/><path d="M362.43,584.23l0,11.35c-.7-.14-1.38-.31-2-.5l0-11.35c.67.19,1.36.36,2.05.5" style="fill:#535360"/><path d="M360.38,583.73l0,11.35c-.82-.23-1.61-.5-2.38-.8l0-11.35c.77.3,1.57.57,2.38.8" style="fill:#50505d"/><path d="M358,582.93l0,11.35a21.72,21.72,0,0,1-2.83-1.36l0-11.35a22.27,22.27,0,0,0,2.82,1.36" style="fill:#4d4d59"/></g></g></g></g><path d="M311.83,445.08a138.34,138.34,0,0,1,78.06-8.94c1.47.26,3.17.73,3.7,2.13a4.13,4.13,0,0,1-.12,2.55c-3.07,10.84-12.78,18.85-23.43,22.52s-22.2,3.62-33.44,2.91c-8.87-.57-17.72-1.53-26.5-2.87l2.71-1.66" style="fill:#aa5735"/><path d="M494.16,518.64c9.84,2,19.28,2.19,29.22,1.8,4-.16,8-.05,12-.08,5.07-.05-5.5-1.5-.26-.14,1.74.45,8.73,3,1.75-.07,6.65,2.9,12.74,4.63,20,2.62,6-1.66,12.56-6.32,15.54-11.95,6.67-12.62,3.1-28-9.33-35.57l-2.64-1.6c-11.65-7-29.09-2.95-35.57,9.33-6.68,12.62-3.11,28,9.32,35.57l2.64,1.6,26.25-44.9a80.06,80.06,0,0,0-34.56-7c-4,.07-8.08.34-12.12.43-2.3,0-4.6.06-6.9-.06-1.14-.06-2.28-.14-3.42-.26q6.13.9,1.86.11c-13.29-2.66-28.71,3.8-32,18.16-2.94,12.93,3.9,29.13,18.16,32Z" style="fill:#aa5735"/><path d="M463.89,546.74c2.49.07,5,.26,7.43.42,3.51.23.15-.34-1.36-.28a22.57,22.57,0,0,1,4.59.76,79.4,79.4,0,0,1,14.78,4l-11.47-6.69,1,.86-6.68-11.48.26.87V521.32l-.21.86,11.95-15.54-.66.49c-5.63,4.21-10,8.5-11.95,15.54-1.71,6.23-.94,14.51,2.62,20,6.93,10.74,23.92,18,35.58,9.32,6-4.47,10.45-8.58,12.6-16a27.13,27.13,0,0,0,0-15.54c-3.4-11.58-13-17.46-24-20.61a141.22,141.22,0,0,0-34.44-5.11c-13.6-.41-26.61,12.25-26,26,.65,14.44,11.42,25.56,26,26Z" style="fill:#aa5735"/><path d="M423.72,569a53.7,53.7,0,0,1,10.58,3.18l-6.22-2.62a53.56,53.56,0,0,1,9.57,5.52c5.16,3.73,14.14,4.24,20,2.62s12.57-6.32,15.54-11.95c3.19-6,4.79-13.34,2.62-20s-6.18-11.37-11.95-15.54a67.64,67.64,0,0,0-26.34-11.33c-6.95-1.34-13.76-1.05-20,2.62-5.39,3.16-10.53,9.34-11.95,15.54-2.92,12.85,3.88,29.23,18.16,32Z" style="fill:#aa5735"/><path d="M295,476.31c20-5.81,41,.7,61.42-1.64,18.74-2.15,35.73-11.13,43.16-29.17,1.86-4.5-2-9.9-6.28-11.07-5.17-1.42-9.21,1.77-11.07,6.28-5.72,13.9-24.1,16.58-37.07,16.54-18.48-.07-36.8-3.56-54.95,1.7-11.1,3.22-6.38,20.6,4.79,17.36Z" style="fill:#8e4527"/><path d="M399.65,534c1.45.84,1.46,2.2,0,3l-17.74,10.3a5.76,5.76,0,0,1-5.24,0L298.14,502c-1.45-.84-1.46-2.2,0-3l17.74-10.31a5.76,5.76,0,0,1,5.24,0Zm-59.17-14.71a14.3,14.3,0,0,0,7.07-2.07c2.15-1.24,3.27-2.67,3.23-3.92s-.78-2.35-2.25-3.2a11.15,11.15,0,0,0-5.54-1.3,14,14,0,0,0-6.74,1.89c-2.39,1.39-3.56,2.87-3.56,4.1a4,4,0,0,0,2.36,3.15,11,11,0,0,0,5.43,1.35m12.81,7.39a14.3,14.3,0,0,0,7.06-2.07c2.15-1.24,3.27-2.67,3.23-3.92s-.78-2.35-2.25-3.2a11.13,11.13,0,0,0-5.54-1.3,14,14,0,0,0-6.74,1.89c-2.39,1.39-3.56,2.87-3.56,4.1a4,4,0,0,0,2.36,3.15,11,11,0,0,0,5.44,1.35m10,7.24,2,1.15a.91.91,0,0,0,1.33-.55l1.48-5.45a.91.91,0,0,1,.83-.67l6.83-.33a.91.91,0,0,0,.41-1.7h0a1,1,0,0,0-.5-.12l-6.09.3a.91.91,0,0,1-.5-1.69l.86-.51a.92.92,0,0,0,0-1.58l-.71-.4a.92.92,0,0,0-.91,0l-11.12,6.46a.92.92,0,0,0,0,1.58l.7.4a.92.92,0,0,0,.91,0l3.41-2a.89.89,0,0,1,.39-.12l2-.17,0,0-1.4,5.36m-35.16-21.54a7.86,7.86,0,0,0,4.09-1.07c.95-.55,1.4-1.21,1.39-1.86a.93.93,0,0,1,.94-.87,5.3,5.3,0,0,0,2.62-.7,2.27,2.27,0,0,0,1.4-2c0-.8-.6-1.53-1.76-2.19l-5.06-2.93a.94.94,0,0,0-.92,0l-11.11,6.46a.91.91,0,0,0,0,1.58l3.6,2.08a10.13,10.13,0,0,0,4.81,1.54" style="fill:#029a4a"/><path d="M334.55,508.58a.93.93,0,0,0-.95.87,2.31,2.31,0,0,1-1.4,1.86,7.86,7.86,0,0,1-4.09,1.07,10.13,10.13,0,0,1-4.81-1.54l-3.6-2.08a.91.91,0,0,1,0-1.58l11.11-6.46a.94.94,0,0,1,.92,0l5.06,2.93c1.16.66,1.76,1.39,1.76,2.19a2.27,2.27,0,0,1-1.4,2A5.36,5.36,0,0,1,334.55,508.58Zm-8.36,1.25a3.26,3.26,0,0,0,3.5,0c1.06-.61,1-1.35-.1-2l-2.6-1.5a.92.92,0,0,0-.91,0l-1.57.91a.91.91,0,0,0,0,1.58l1.67,1m5.28-6.58-1.54.89a.92.92,0,0,0,0,1.58l1.34.77a3,3,0,0,0,3.06.12c1-.57.88-1.2-.16-1.8l-2.7-1.56" style="fill:#dcdcdc"/><path d="M329.59,507.88c1.09.63,1.16,1.37.1,2a3.26,3.26,0,0,1-3.5,0l-1.67-1a.91.91,0,0,1,0-1.58l1.57-.91a.92.92,0,0,1,.91,0Z" style="fill:#029a4a"/><path d="M346.23,511.44c1.71,1,1.53,2.65-1.28,4.28-3.2,1.85-5.83,1.92-7.61.89s-1.65-2.58,1.51-4.41C341.66,510.57,344.5,510.45,346.23,511.44Z" style="fill:#029a4a"/><path d="M350.78,513.3c0,1.25-1.08,2.68-3.23,3.92a14.3,14.3,0,0,1-7.07,2.07,11,11,0,0,1-5.43-1.35,4,4,0,0,1-2.36-3.15c0-1.23,1.17-2.71,3.56-4.1A14,14,0,0,1,343,508.8a11.15,11.15,0,0,1,5.54,1.3C350,511,350.81,512.05,350.78,513.3Zm-13.44,3.31c1.78,1,4.41,1,7.61-.89,2.81-1.63,3-3.29,1.28-4.28s-4.57-.87-7.38.76c-3.16,1.83-3.3,3.38-1.51,4.41" style="fill:#dcdcdc"/><path d="M363.58,520.69c0,1.25-1.08,2.68-3.23,3.92a14.3,14.3,0,0,1-7.06,2.07,11,11,0,0,1-5.44-1.35,4,4,0,0,1-2.36-3.15c0-1.23,1.17-2.71,3.56-4.1a14,14,0,0,1,6.74-1.89,11.13,11.13,0,0,1,5.54,1.3C362.8,518.34,363.61,519.45,363.58,520.69ZM350.14,524c1.79,1,4.42,1,7.61-.89,2.81-1.63,3-3.29,1.28-4.27s-4.57-.88-7.38.75c-3.16,1.84-3.3,3.38-1.51,4.41" style="fill:#dcdcdc"/><path d="M359,518.84c1.71,1,1.53,2.64-1.28,4.27-3.19,1.86-5.82,1.92-7.61.89s-1.65-2.57,1.51-4.41C354.46,518,357.3,517.84,359,518.84Z" style="fill:#029a4a"/><path d="M375.75,528.07l-6.83.33a.91.91,0,0,0-.83.67l-1.48,5.45a.91.91,0,0,1-1.33.55l-1.41-.81a.9.9,0,0,1-.42-1l1.22-4.68,0,0-2,.17a.89.89,0,0,0-.39.12l-3.41,2a.92.92,0,0,1-.91,0l-.7-.4a.92.92,0,0,1,0-1.58l11.12-6.46a.92.92,0,0,1,.91,0l.7.4a.91.91,0,0,1,0,1.57l-.85.5a.91.91,0,0,0,.5,1.7l6.09-.29a1,1,0,0,1,.5.12h0A.91.91,0,0,1,375.75,528.07Z" style="fill:#dcdcdc"/><path d="M331.47,503.25l-1.54.89a.92.92,0,0,0,0,1.58l1.34.77a3,3,0,0,0,3.06.12c1-.57.88-1.2-.16-1.8l-2.7-1.56" style="fill:#029a4a"/><path d="M297.44,476.21c5.35-4.48,12.58-4.44,19.2-4.06,7.6.45,15.1,1.23,22.74,1.06,13.86-.32,28.84-1.94,41.2-8.73,9-4.93,19.3-15.18,16-26.52-1.55-5.38-6.19-7.94-11.46-8.62-8.21-1.06-16.78-.77-25.05-1.09-4.5-.18-4.49,6.82,0,7,7.18.27,14.38.43,21.55.83,3.07.17,6.94.24,8.15,3.63.89,2.48,0,5.47-1.05,7.75-4.83,10.14-18,14.55-28.16,16.59-13,2.62-26.36,2.54-39.51,1.44-10.13-.85-20.41-1.1-28.6,5.77-3.46,2.9,1.51,7.83,4.95,4.95Z" style="fill:#222525"/><path d="M244.58,564.87c-5.35,14-6.35,29.82.26,43.62,6.09,12.7,17.36,20.18,30.94,22.87a119.35,119.35,0,0,0,47.37-.4c12.22-2.55,28.3-6.51,33.05-19.62,1.54-4.24-5.22-6.07-6.75-1.86-3.89,10.72-21.23,13.48-30.86,15.26a110.08,110.08,0,0,1-40.94-.13c-12-2.35-21.43-8.46-26.76-19.65-5.77-12.11-4.21-26.05.44-38.23,1.6-4.21-5.16-6-6.75-1.86Z" style="fill:#222525"/><path d="M419.56,530.13c-5.07,6.44-11,16.12-4.33,23.73,3,3.44,7.78,4.79,11.88,6.41l18.4,7.3c4.19,1.66,6-5.11,1.86-6.75-6.75-2.68-13.51-5.31-20.24-8-3.38-1.36-7.54-2.57-7.81-6.91-.26-4.08,2.83-7.81,5.19-10.8,2.75-3.5-2.17-8.49-4.95-5Z" style="fill:#222525"/><path d="M447.84,509.57c-4.94,9.7-.75,20.45,9.17,24.64,8.92,3.77,21.12,1.59,28.35,8.82,3.19,3.19,8.14-1.76,4.95-4.95-5.7-5.71-13.41-6.74-21-8-8.42-1.37-21.18-5.65-15.39-17,2-4-4-7.55-6.05-3.53Z" style="fill:#222525"/><path d="M485.33,484c-4.57,9.26-1.37,21.4,8.09,26.29,6.46,3.33,13.77,1.92,20.69,1.67,8.64-.3,17.07,1.46,25.47,3.26,4.4.94,6.28-5.81,1.87-6.75-5.6-1.2-11.21-2.36-16.9-3-6-.7-11.7-.28-17.67,0-5.35.25-10.8-.2-14.21-4.84a12.82,12.82,0,0,1-1.3-13.07c2-4-4.05-7.58-6-3.54Z" style="fill:#222525"/><path d="M615.18,453.37c2.08-7.46-6.91-19,3.64-22.74,4.21-1.5,2.4-8.27-1.86-6.75a15.44,15.44,0,0,0-10,10,14.68,14.68,0,0,0-.37,7.12c.62,3.45,2.86,7,1.87,10.52-1.22,4.35,5.53,6.2,6.75,1.86Z" style="fill:#222525"/></g><path d="M629.62,263.94l17.75-66.12c1-3.78-4.44-6.22-6.39-2.69l-1.38,2.47c-2.19,3.94,3.86,7.48,6,3.53l1.37-2.47-6.4-2.7-17.75,66.12c-1.17,4.35,5.58,6.21,6.75,1.86Z" style="fill:#2b2c35"/><path d="M638.44,259.35a26.51,26.51,0,0,1,6.68-9.31c.71-.61,2.42-2.61,3.3-1.48,1,1.28.43,5.75.28,7.31-.78,8.08-4.86,15.37-9.42,21.9-1.9,2.71-5.76,6-6.66,9.05s1.14,6.6,1.87,9.51A123.13,123.13,0,0,1,637,309.24c.52,3.68.23,7.75,1.16,11.31a3.6,3.6,0,0,0,3.38,2.57c1.79.11,2.83-.74,3.82-2.15,1.18-1.66.15-3.73-1.26-4.78l-.24-.19c-3.6-2.71-7.1,3.37-3.53,6.05l.24.18-1.25-4.79-.32.44,3-1.73-.48,0,3.37,2.57c-1.21-4.66-.91-10.21-1.74-15a134.48,134.48,0,0,0-4-16.42l-.9,3.41c9.32-12,19.41-25.71,17.21-41.85-.77-5.64-3.78-9.4-9.85-7.29s-10.74,8.78-13.27,14.31c-1.85,4.07,4.18,7.63,6.05,3.53Z" style="fill:#2b2c35"/><path d="M587.52,284.74l11.68-10.41c4.51-4,4.4-12.23,0-16.26a11.76,11.76,0,0,0-16.26,0l-11.69,10.4c-4.5,4-4.39,12.23,0,16.27a11.78,11.78,0,0,0,16.27,0Z" style="fill:#f28c8f"/><path d="M499.51,282.57l.29-.07-3.06.41.28,0-3-.41a1.52,1.52,0,0,1,.52.12l-2.74-1.15a2,2,0,0,1,.48.29l-2.32-1.8a7.92,7.92,0,0,1,.88.95l-1.8-2.33c1.69,2.29,3.16,4.63,5.69,6.13a14,14,0,0,0,10.46,1.41,12.81,12.81,0,0,0,8.05-5.91,12.43,12.43,0,0,0-2-14.73c-4.14-4.38-12.14-4.48-16.26,0a11.73,11.73,0,0,0,0,16.27l.16.16-1.8-2.32.1.16L492.2,277l0,.16-.41-3.06v.15l.41-3.06-.06.15,1.16-2.75-.1.14,1.8-2.33-.14.13,2.33-1.8a1.65,1.65,0,0,1-.37.2l2.75-1.15a4.23,4.23,0,0,1-.7.18l3.06-.41a5,5,0,0,1-.77,0l3.06.41a2.75,2.75,0,0,1-.49-.14l2.75,1.15a1.41,1.41,0,0,1-.42-.26l2.33,1.8-.17-.19,1.79,2.33a36,36,0,0,0-3.76-4.84,13.56,13.56,0,0,0-12.89-3.39,11.5,11.5,0,0,0,6.12,22.18Z" style="fill:#f28c8f"/></svg>