<svg xmlns="http://www.w3.org/2000/svg" viewBox="0 0 428.5 489.13"><title>Asset 4</title><polygon points="44.44 436.26 11.78 14.88 428.5 35.09 332.1 489.13 277.68 437.82 44.44 436.26" style="fill:#d03191"/><path d="M217.75,133l.7-1.39a24.53,24.53,0,0,0,3.91-12.27,24.88,24.88,0,0,0-.59-13.16A24.93,24.93,0,0,0,215.87,95a25.08,25.08,0,0,0-9.26-8.5l-7.88-3.32a33.08,33.08,0,0,0-17.55,0l-7.88,3.32a33.17,33.17,0,0,0-11.84,11.84l-.7,1.39A24.59,24.59,0,0,0,156.85,112a24.87,24.87,0,0,0,.59,13.16,24.82,24.82,0,0,0,5.9,11.22,24.92,24.92,0,0,0,9.26,8.5l7.88,3.33a33.29,33.29,0,0,0,17.55,0l7.88-3.33A33.09,33.09,0,0,0,217.75,133Z" style="fill:#383944"/><path d="M210.65,101.75a137.86,137.86,0,0,1,.56-21c.29-3.06-.85,4.66.06,0,.35-1.8.67-3.6,1.06-5.39s.84-3.56,1.32-5.33c.53-2,2.82-7-.52-.2l-8.61,8.61.58-.31L176,74.4l.26.26-6.17-23.35-.08.4,23.14-17.62-.27,0c-12.51.73-24.61,10.52-24,24,.55,12.38,10.57,24.78,24,24l.27,0c9.88-.57,21.13-7,23.15-17.62,1.68-8.9.22-17.39-6.36-24-7.73-7.77-19.68-8.8-29.09-3.76-11.57,6.21-14.26,21.21-16.19,33.11a147.38,147.38,0,0,0-2,31.94c.71,12.51,10.53,24.6,24,24,12.39-.56,24.76-10.58,24-24Z" style="fill:#2b2c35"/><path d="M151.24,389.89v-.25l-2.33-.45Z" style="fill:#fef2ec"/><path d="M360,292.34c-.12-19.78-.26-39.74-4.76-59-.87-3.7-2-7.58-4.91-10.06-2.23-1.93-5.2-2.73-8.06-3.48-17.49-4.55-35-10.12-52.51-14.25-14.44-3.4-27-1.31-42.06-1.12-9,.12-18.05-.29-26.94,1.13-20.81,3.32-38.61,16.27-55.53,28.83-7.27,5.4-14.79,11.08-19,19.1-3.68,7-4.48,15.1-5.14,23a1243.73,1243.73,0,0,0-3.84,139.61,1076.91,1076.91,0,0,0,189.41,20.21c4.61.08,10.64.93,16.46,1L360.37,356Q360.18,324.16,360,292.34Z" style="fill:#fef2ec"/><path d="M206.58,214.86l-10,12.24a9.55,9.55,0,0,0-2.21,3.76c-.47,2.09.52,4.21,1.51,6.11a168.89,168.89,0,0,0,26.8,37.5l13.5-22.79,37.58,27,42-52.55c1-1.28,2.09-2.68,2.11-4.3a7.41,7.41,0,0,0-1.55-4c-3.64-5.71-16.57-10.39-20.21-16.1" style="fill:#fdd8c1"/><path d="M223.9,147.91c-2.6,16,.62,33.47-7.21,47.65-4.82,8.74-13.84,22.91-2.46,31.2a20.83,20.83,0,0,0,6.59,2.85c14.75,4.25,31.08,5.17,45.1-1.08,10.06-4.48,19.27-13.6,22.26-24.42,3.24-11.69-5.92-20.81-7.08-32.86a412.57,412.57,0,0,1-.57-72" style="fill:#f6a4a7"/><path d="M177.54,67.93,182,116.28c1.17,12.64,2.38,25.44,6.77,37.35s12.41,23,23.92,28.35c21.12,9.8,47.33-3.45,59.19-23.49s12.68-44.59,11.56-67.84c-.75-15.46-2.69-32.08-13-43.6-7.25-8.08-17.74-12.52-28.25-15.23-13.86-3.56-29.08-4.4-42.07,1.62s-22.83,20.27-20.3,34.37" style="fill:#f6a4a7"/><path d="M189.34,65.78c-6.53,5.88-17.82,3.62-23.31-3.25s-5.89-16.73-3.21-25.1c5-15.61,20.48-27.26,36.87-27.72,5.67-.16,11.3.89,16.95,1.35,13.45,1.08,27-1.18,40.44-1s27.84,3.28,37.2,13C307,36.2,306.67,57.37,301.14,74.79S285.78,108.19,281.7,126l-5.22-1.13a105.25,105.25,0,0,0-1.58-23.71A100.59,100.59,0,0,0,263,115.67a8.39,8.39,0,0,1-4.83-5A249.08,249.08,0,0,0,273,81.11c1.34-3.19,2.5-7.21.22-9.81-1.86-2.12-5.06-2.16-7.83-2.68A18.64,18.64,0,0,1,252,58.09c-4.82,5.65-12.69,7.94-20.11,7.71s-14.58-2.67-21.61-5.08a14.38,14.38,0,0,1-26.62-1.07" style="fill:#86191e"/><path d="M211.34,204.34l24.54,27.32a3.16,3.16,0,0,1,0,5.17l-17.29,20.56-21.84-31.6a4.82,4.82,0,0,1,.23-7.21l13.36-17.21" style="fill:#fff"/><path d="M238.46,234.54a154,154,0,0,0,23.08,23.21,314.74,314.74,0,0,0,40.62-41.49,4.46,4.46,0,0,0,1.21-2.33,4.38,4.38,0,0,0-.75-2.34,169.39,169.39,0,0,0-19.53-28.4c3,3.93,6.11,8.81,4.43,13.44-.87,2.39-2.87,4.15-4.81,5.78a374.61,374.61,0,0,1-42.94,31.24c-.45.28-1.05.56-1.48.23s.29-1.17.51-.68" style="fill:#fff"/><path d="M286.55,285.76c.68,20.31,1.57,41.42,11.08,59.39A95.16,95.16,0,0,0,313.24,366c3.71,3.88,8.08,7.79,13.44,8.12,7.07.42,14.16-5.59,20.7-2.83l-12.92,18.31c-1.12,1.59-2.32,3.24-4.09,4-2.19,1-4.72.42-7-.21a137.27,137.27,0,0,1-48.68-24.58,8.27,8.27,0,0,1-2.82-3.21,8.41,8.41,0,0,1-.08-4.43q6-37.18,12-74.36" style="fill:#fdd8c1"/><path d="M363.76,177.58a269.39,269.39,0,0,1-26.42-40.16c-1.41-2.63-2.15-6.94.74-7.72,1.95-.53,3.67,1.3,4.86,2.93l11.15,15.2c9.1-6,17.55-12.72,26.29-19,12.23-8.84,14.12-2.2,19.12,9.7-1-15,9-30.14,23.27-35.05-1.12,7-7.53,12.12-9.16,19-1.05,4.47,0,9.18-.54,13.74-.49,3.92-2.17,7.58-3.45,11.32a57.4,57.4,0,0,0-1.65,31l-1-3.78" style="fill:#f6a4a7"/><path d="M298.92,321.75a750.44,750.44,0,0,1,54.53-135.62c2.08-4,4.29-8.09,7.85-10.85,4.59-3.55,10.7-4.34,16.49-4.63a136.25,136.25,0,0,1,33.9,2.55,1627.79,1627.79,0,0,1-32.38,180.46c-.76,3.18-1.62,6.53-3.93,8.83s-5.45,3.1-8.52,3.83a226.11,226.11,0,0,1-50,6" style="fill:#fef2ec"/><path d="M362.78,172.53l4.65,27.06a2.45,2.45,0,0,0,3,2.45,213.84,213.84,0,0,0,34.94-2l4.85-27.34a298.33,298.33,0,0,0-45.61-1.88c-1.08,0-2.34,1.56-1.28,1.72" style="fill:#fff"/><path d="M305.44,313.29a1385.89,1385.89,0,0,0,60.17-138.6c.59-1.59-2-2.65-2.74-1.15L361,177.06c-.9,1.71,1.69,3.22,2.59,1.51l1.86-3.52-2.74-1.16a1377.38,1377.38,0,0,1-59.87,137.89c-.86,1.72,1.72,3.24,2.59,1.51Z" style="fill:#fff"/><path d="M376.37,182.92c-.26.13-.05,0,0,.14.1.47.27-.08,0,.26l.89-.69a.88.88,0,0,1-1-1,1.48,1.48,0,0,1,.28-.45s.46-.27.18-.23,0-.05.09.13.2.25.27.39c.3.66.16,2.3-.88,1.66-.55-.34-1.06-1.74-.08-1,.2.15.24.35.4.5s-.07.08,0,.07c.46-.26.55-.34.28-.25a.46.46,0,0,1-.23,0,3.06,3.06,0,0,1-.41-.1,1,1,0,0,1-.59-.69v.79c.06-.15.51-.72.49-.87s-.76-.21-.87-.53.66-.8.67-.8h.8l.09.07c-1.74-.82-3.26,1.77-1.51,2.59,2.55,1.19,4-2.47,2-3.92a2.66,2.66,0,0,0-3.53.78,3.11,3.11,0,0,0-.57,3.75c1.28,2.1,5.37,3,6.26,0,.64-2.1-1.2-4.28-3.23-4.62-2.65-.45-4.26,2.32-3.31,4.61s3.55,3.53,5.65,2.13a4.49,4.49,0,0,0,1-6,3.17,3.17,0,0,0-3.2-1.65,4,4,0,0,0-2.88,2.62,3.72,3.72,0,0,0,1.2,4.06c1.12.93,3.32,1.54,4.33.15a3,3,0,0,0-.28-3.63,3,3,0,0,0-3.83-.88c-1.73.86-.21,3.44,1.51,2.59Z" style="fill:#eb252e"/><path d="M245,271.1c0,.32.36-.76.36-.76a1.05,1.05,0,0,1,1-.34c.43,0-.2,0,.18.05.19,0,.1.05,0,0l.13.1c-.14-.13.09.14.1.16l0-.05a.71.71,0,0,1,.05.73.62.62,0,0,1-.27.69c-.23.2-.28.26-.12.17l-1.16.15c.29.06-.26-.18,0,0a.61.61,0,0,1-.24-.21c-.07-.11-.08-.12,0,0-.09-.19,0-.23,0,0l0-.22a.65.65,0,0,1,0,.14.65.65,0,0,1,0,.14c0-.23,0-.28,0-.17s0,.07,0-.06c-.13.25.23-.22,0,0a.55.55,0,0,1,.27-.17c.13,0,.13,0,0,0a1,1,0,0,1,.83.2c-.18-.14,0,.06.08.15s0,.12,0,0l0,.2c.05-.28-.07.22-.11.28a.87.87,0,0,1-.69.39.4.4,0,0,1-.26-.06c-.11-.06-.1-.05,0,0-.09-.07-.25-.37-.16-.14l-.08-.15c0-.51,0-.63,0-.37a1.5,1.5,0,1,0,2.89.79c.69-2.19-2.26-4.11-3.93-2.45a2.44,2.44,0,0,0,2.11,4.06c1.73-.32,2.39-2.5,1.62-3.93a2.14,2.14,0,0,0-2.54-1.13,1.78,1.78,0,0,0-.93,2.53,2.58,2.58,0,0,0,1.64,1.22A1.82,1.82,0,0,0,248,271.1a1.5,1.5,0,0,0-3,0Z" style="fill:#eb252e"/><path d="M248.66,299.53a.87.87,0,0,1-.41.53c-.22.08-.25.09-.09.05a.67.67,0,0,1-.42,0c.16,0,.13,0-.09,0-.91-.48-.36-1.94.64-1.41a1.5,1.5,0,1,0-1.52,2.59,2.31,2.31,0,0,0,2.74-.41,2.17,2.17,0,0,0,.38-2.63,2.31,2.31,0,0,0-4.12.54,1.51,1.51,0,0,0,1,1.84,1.53,1.53,0,0,0,1.84-1.05Z" style="fill:#eb252e"/><path d="M249.22,329.23a2.14,2.14,0,1,0-1.41-2.48,1.53,1.53,0,0,0,1.05,1.84,1.51,1.51,0,0,0,1.84-1c.05-.17,0-.13-.1.12a.57.57,0,0,1-.26.33.76.76,0,0,1-.57.1l-.6-.46a.88.88,0,0,1,.1-1.1.86.86,0,0,1,.75-.19,1.5,1.5,0,0,0-1.84,1,1.54,1.54,0,0,0,1,1.85Z" style="fill:#eb252e"/><path d="M251.69,358.05l.29,1.06q-.43.61-.21.39c.09-.09,0-.05-.18.09-.38.29-.8.24-1.27-.16a1.54,1.54,0,0,0,2.12,0,1.51,1.51,0,0,0,0-2.12,2,2,0,0,0-2.87,2.86,1.5,1.5,0,0,0,2.12-2.12Z" style="fill:#eb252e"/><path d="M216.59,100.58a68.91,68.91,0,0,1,16.52-1.47A10.64,10.64,0,0,1,214.34,102" style="fill:#fff"/><path d="M215.72,87.9a52.07,52.07,0,0,1,18.16.9c6.26,1.45,8.93-8.19,2.65-9.65a60.22,60.22,0,0,0-20.81-1.25c-6.31.76-6.39,10.76,0,10Z" style="fill:#86191e"/><path d="M226.94,106.8c5.15,0,5.16-8,0-8s-5.15,8,0,8Z" style="fill:#86191e"/><path d="M198.62,139.22a23.1,23.1,0,0,0,13,.75c5-1.11,2.9-8.82-2.13-7.72a15.25,15.25,0,0,1-8.76-.74c-2-.75-4.39.83-4.93,2.79a4.09,4.09,0,0,0,2.8,4.92Z" style="fill:#86191e"/><path d="M200.3,151.33A308,308,0,0,1,232,143.61c1.38,4.68,2.48,10,0,14.21-1.58,2.75-4.43,4.54-7.38,5.68-4.94,1.9-11.14,2-14.93-1.66-2.14-2.08-3.17-5-4.1-7.85a10.8,10.8,0,0,1-4.3-.45,2.47,2.47,0,0,1-1.42-.89,1,1,0,0,1,.33-1.46" style="fill:#2b2c35"/><path d="M231.66,155.16c1.1-.12,1.63.36.67,2.14a31.73,31.73,0,0,1-3.15,3.58,29.25,29.25,0,0,1-6.34,3.38c-3.33,1.05-7.28.61-9.23-2.52a4.88,4.88,0,0,1-.94-3.75c.18-.76,2.71-3,2.71-2.86.06.55-.59.89-.85,1.38a1.52,1.52,0,0,0,.87,1.93c3.13,1.42,7.19.11,10.21-1C226.5,157.14,229.85,155.35,231.66,155.16Z" style="fill:#fff"/><path d="M332,385.67l4.43,52.42c.16,1.9,3.14,1.93,3,0l-.42-5.71c-.14-1.92-3.14-1.93-3,0l.42,5.71h3L335,385.67c-.16-1.91-3.16-1.93-3,0Z" style="fill:#fdd8c1"/><path d="M213.37,376.25l-1.08.4c-6,2.25-3.71,10.92,2.66,9.65A433.36,433.36,0,0,1,298,378c6.43,0,6.44-10,0-10a448.2,448.2,0,0,0-85.75,8.67L215,386.3l1.07-.41c6-2.23,3.39-11.9-2.65-9.64Z" style="fill:#fdd8c1"/><path d="M223.9,409.38q26.94-13.32,54.82-24.57,7.13-2.85,14.3-5.57c3.34-1.26,7.51-2.07,10.28-4.37a5.76,5.76,0,0,0-6.51-9.48,5.11,5.11,0,0,0-2.3,5.64l.1.43c1.37,6.28,11,3.62,9.64-2.66l-.1-.42L301.84,374l-1.45.46L296.07,372l.34.45-.51-3.86c.64-2.05-3.27.14-3.74.32L286.78,371q-4.48,1.71-8.94,3.49-9.94,4-19.8,8.19-19.85,8.5-39.19,18.09c-5.77,2.85-.71,11.48,5.05,8.64Z" style="fill:#fdd8c1"/><path d="M213.62,294.51a254.75,254.75,0,0,1,29.54-38.93c4.36-4.72-2.69-11.81-7.07-7.07A267.86,267.86,0,0,0,205,289.46c-3.39,5.49,5.25,10.52,8.63,5.05Z" style="fill:#fdd8c1"/><path d="M231.47,255.11V421.49c0,6.44,10,6.45,10,0V255.11c0-6.43-10-6.44-10,0Z" style="fill:#fdd8c1"/><path d="M304.07,133l.69-1.39a24.54,24.54,0,0,0,3.92-12.27,25.08,25.08,0,0,0-.59-13.16A24.85,24.85,0,0,0,302.18,95a25,25,0,0,0-9.26-8.5L285,83.16a33.08,33.08,0,0,0-17.55,0l-7.88,3.32a33.25,33.25,0,0,0-11.84,11.84l-.69,1.39A24.5,24.5,0,0,0,243.16,112a25,25,0,0,0,.59,13.16,24.74,24.74,0,0,0,5.91,11.22,24.77,24.77,0,0,0,9.26,8.5l7.88,3.33a33.25,33.25,0,0,0,17.54,0l7.89-3.33A33.17,33.17,0,0,0,304.07,133Z" style="fill:#383944"/><path d="M278.35,91.39h-.69a16.31,16.31,0,0,0-8.29,1.85A19.4,19.4,0,0,0,258,104.61a16.15,16.15,0,0,0-1.85,8.28l.77,5.72a21.39,21.39,0,0,0,5.53,9.48l4.35,3.36a21.32,21.32,0,0,0,10.85,2.94h.69a23.88,23.88,0,0,0,15.21-6.3,16,16,0,0,0,4.44-6.92,16.05,16.05,0,0,0,1.85-8.28l-.76-5.72a21.58,21.58,0,0,0-5.53-9.48l-4.35-3.36a21.36,21.36,0,0,0-10.86-2.94Z" style="fill:#2b2c35"/><path d="M235.22,29.06c-2.37-.26,2.24.53,3.11.77s1.78.56,2.67.85c4,1.35-1.09-.63,1.05.47A53.56,53.56,0,0,1,246.92,34c.21.13,2.36,1.67,1.41.94s1.1,1,1.29,1.13a45.88,45.88,0,0,1,12.35,17c-.47-1.11.51,1.39.59,1.62.39,1.09.75,2.19,1.09,3.3.71,2.33,1.31,4.69,1.82,7.07a79.82,79.82,0,0,1,1.58,13.38c.47,10.46-.27,20.92-1.15,31.34h29l0-3.16a14.5,14.5,0,0,0-29,0l0,3.16c-.1,7.84,6.74,14.5,14.5,14.5,8.4,0,13.84-6.66,14.5-14.5,2.09-24.65,2.55-50.17-8.65-72.91-9.95-20.17-28.62-34.37-51-36.82-7.8-.85-14.5,7.27-14.5,14.5,0,8.55,6.68,13.65,14.5,14.5Z" style="fill:#2b2c35"/><path d="M241.66,165l6.51-2.83c1.71-.74,3.21-3.07,3.68-4.78a8.18,8.18,0,0,0-.81-6.16,8.09,8.09,0,0,0-4.78-3.68,9.37,9.37,0,0,0-6.17.81l-6.51,2.82c-1.71.74-3.2,3.07-3.67,4.78a8.2,8.2,0,0,0,.8,6.17,8.07,8.07,0,0,0,4.78,3.67,9.37,9.37,0,0,0,6.17-.8Z" style="fill:#383944"/><path d="M245.69,156.51c6.75-3.1,13.73-6.39,18.65-12.14s6.12-13.08,8.08-20c.71-2.49-3.15-3.54-3.85-1.07-1.92,6.78-3.14,14.11-8.1,19.42-4.54,4.85-10.87,7.64-16.8,10.36-2.34,1.07-.31,4.52,2,3.45Z" style="fill:#2b2c35"/><path d="M175.51,69.94c1.86,19.69,3.68,39.38,5.59,59.06,1.54,15.89,4.05,31.64,14.71,44.19,8.41,9.89,21,16.43,34.18,14.83,12.17-1.47,23.12-9.08,27.17-20.85.84-2.44-3-3.49-3.86-1.06-4.08,11.84-16.66,18.7-28.84,18.16-13-.58-24.16-9.75-30.54-20.59-7.84-13.34-8.33-29.41-9.75-44.42l-4.66-49.32c-.24-2.54-4.24-2.56-4,0Z" style="fill:#2b2c35"/><path d="M217.73,186.27a35.93,35.93,0,0,1-4.92,18.51c-1.29,2.23,2.16,4.25,3.45,2a40.15,40.15,0,0,0,5.47-20.53c0-2.58-4-2.58-4,0Z" style="fill:#2b2c35"/><path d="M283.72,196.11a199.07,199.07,0,0,1-37.83,29.37c-4.92,2.93-9.2,5.85-10.37,11.84-1.41,7.19-.33,15.11-.2,22.39q.9,52.07,1.79,104.13l1,59.5c0,2.57,4,2.58,4,0l-1.71-99.17-.87-50.58-.43-24.79c-.06-3.63-.48-7.6.39-11.17,1.1-4.5,4.7-6.5,8.39-8.7a203.52,203.52,0,0,0,38.64-30c1.84-1.82-1-4.64-2.83-2.83Z" style="fill:#2b2c35"/><path d="M358.26,151.36a188.09,188.09,0,0,0-16.52-22.74c-1.66-2-4.48.87-2.82,2.82a181.89,181.89,0,0,1,15.88,21.94c1.35,2.19,4.81.18,3.46-2Z" style="fill:#2b2c35"/><path d="M354.35,148.91a130,130,0,0,1,21.95-15c3.48-1.89,7.6-4.59,11.49-5.48,6.28-1.44,7.65,6.35,9.76,10.94,1.07,2.34,4.52.31,3.45-2-1.75-3.81-3.49-11.12-7.58-13.16-3.84-1.91-8.7,1.14-12.1,2.72a133,133,0,0,0-29.8,19.22c-2,1.66.87,4.48,2.83,2.82Z" style="fill:#2b2c35"/><path d="M400.34,136.71a39.33,39.33,0,0,1,20.82-31.28c2.28-1.21.26-4.67-2-3.46a43.44,43.44,0,0,0-22.8,34.74c-.23,2.56,3.78,2.55,4,0Z" style="fill:#2b2c35"/><polygon points="277.68 437.82 332.1 489.13 343.65 434.72 41.4 397.1 44.44 436.26 277.68 437.82" style="fill:#9495ac"/><path d="M184.74,103a23.17,23.17,0,0,1,12.89-.47,6.86,6.86,0,0,1-12.42,2.79.78.78,0,0,1-.18-.69c.09-.23.52-.24.53,0" style="fill:#fff"/><path d="M186.92,98.74A22.52,22.52,0,0,1,197.61,98a5.14,5.14,0,0,0,6.15-3.5c.66-2.42-.82-5.66-3.5-6.15a33.72,33.72,0,0,0-16,.76c-6.14,1.85-3.53,11.51,2.66,9.65Z" style="fill:#86191e"/><path d="M192.43,109c5.15,0,5.16-8,0-8s-5.15,8,0,8Z" style="fill:#86191e"/><path d="M227.09,235.77c-.38-24.62-22.21-42.67-45.16-37.37L29.16,233.69C11.57,237.76-.7,254.44,0,273.28l2.49,64.21c.73,19,14.47,34.66,32.49,37L187.18,394.6c22.44,3,42.18-15.58,41.8-39.26ZM155.26,380.66,30.65,364.23c-14.75-2-26-14.78-26.6-30.34L2,281.32c-.59-15.43,9.46-29.09,23.85-32.42L151,220c18.79-4.34,36.66,10.44,37,30.6l1.54,97.91C189.8,367.9,173.64,383.09,155.26,380.66Z" style="fill:#383944"/><path d="M151,220,25.86,248.9c-14.39,3.33-24.44,17-23.85,32.42l2,52.57c.6,15.56,11.85,28.39,26.6,30.34l124.61,16.43c18.38,2.43,34.54-12.76,34.23-32.15L188,250.6C187.63,230.44,169.76,215.66,151,220Z" style="fill:#2b2c35"/><path d="M76.78,324a212.78,212.78,0,0,0-18.09,83.39,14.5,14.5,0,0,0,29,0,176.94,176.94,0,0,1,14.13-68.76c3.11-7.18,2.12-15.55-5.2-19.84-6.13-3.58-16.71-2-19.84,5.21Z" style="fill:#383944"/><path d="M94.71,332.22a150.62,150.62,0,0,0-17.15,77c.36,7.17,5.23,13.37,12.57,14.24,6.93.82,14.16-3.26,15.91-10.39l1.24-5c1.87-7.6-2.43-15.72-10.13-17.84-7.41-2-16,2.49-17.84,10.13l-1.23,5,28.48,3.86a120.66,120.66,0,0,1,13.19-62.36c3.61-6.94,1.79-15.74-5.2-19.83-6.51-3.81-16.21-1.78-19.84,5.2Z" style="fill:#2b2c35"/><path d="M61.9,431.28a178.12,178.12,0,0,0,47.18,2.27c7.8-.71,14.5-6.15,14.5-14.5,0-7.28-6.65-15.22-14.5-14.5a150.8,150.8,0,0,1-39.47-1.24C61.9,402,54,405.38,51.77,413.44c-1.92,7,2.37,16.49,10.13,17.84Z" style="fill:#383944"/><path d="M163.39,350.41h9.33c2.57,0,2.58-4,0-4h-9.33c-2.58,0-2.58,4,0,4Z" style="fill:#bb232b"/><path d="M176.32,73.6h.78a2,2,0,0,0,0-4h-.78a2,2,0,0,0,0,4Z" style="fill:#2b2c35"/></svg>