<svg xmlns="http://www.w3.org/2000/svg" viewBox="0 0 337.65 671.22"><title>Asset 12</title><polygon points="310.77 516.94 54.21 516.94 0 45.4 310.77 0 310.77 516.94" style="fill:#d03191"/><polyline points="162.56 494.71 162.56 570.67 263.54 469.69" style="fill:#d03191"/><path d="M203.07,358.11c17.2-17.88,45.44-24.13,68.57-15.17,3.73,1.45,17.25,9.13,19.25,12.59s-10.83,12.66-11,16.58c-2.37,50.4-1.07,143.47-1.07,143.47l-54.75-.69S220.91,405.37,202.49,354" style="fill:#040505"/><path d="M199.44,403c-11.81,11.38-21.38,25.17-33.24,36.36C156,449,145.69,456.18,138,468.55c-2.7,4.36-5.12,9-9,12.41-5.94,5.22-14.56,6.6-22.33,5.13s-14.82-5.5-21.3-10c-5.33-3.73-10.58-8.08-13.2-14-5.12-11.61,1.32-25.15,9.72-34.65,15.72-17.78,29-33.57,41.83-53.5,10.87-16.85,24.3-35.42,44.33-41.73,6.34-2,13-2.51,19.66-3l29-2.18c17.39-1.3,43.44-2,56.6,11.79,25.65,26.9-17,26.63-32.48,34.22S211.74,391.17,199.44,403Z" style="fill:#040505"/><path d="M308.27,291c-7.57,1.52-15.33-3-19.86-9.28s-6.48-14-8.29-21.46q-7.71-32-14.26-64.21c-1.48-7.26-2.93-14.55-3.27-21.95a74.76,74.76,0,0,1,9.9-40.66c.84-1.45,1.94-3,3.6-3.21a5.24,5.24,0,0,1,3.19,1c10,6,16.34,16.71,20.57,27.61,9.73,25.11,10.32,52.69,10.79,79.61.31,17.66-.11,35.32.19,53" style="fill:#029a4a"/><path d="M85.33,234.44c6.27-14.32,22.11-21.68,36.11-29.11A266,266,0,0,0,170.26,172c4.65-4,9.24-8.23,14.81-10.89s12.41-3.55,17.88-.71c8.62,4.48,10.41,16.05,8.24,25.35-2.64,11.26-9.34,21.18-16.57,30.31A251.9,251.9,0,0,1,142,265.7c-11.27,7.91-26.24,15.07-38.37,8.49-8.44-4.58-12.26-14.26-15.45-23.18-2.39-6.69-4.7-14.37-1.16-20.55" style="fill:#029a4a"/><path d="M144.21,615.1c0-12.27-3.53-30.53-14.68-31.05-10.62-.53-22.06,3.59-27.68,12.63-5.39,8.68-3.18,21.91,5.6,26.79a37.91,37.91,0,0,0-8,11.93,34.6,34.6,0,0,0-5.71,2,38.35,38.35,0,0,0-21.3,27l-.59,1.5c-4.77,12.12,42.76-.21,44.91-1.08,3.18-1.29,6.5-2.67,8.7-5.31,3.85-4.63,3.08-11.51,5.35-17.09,3.12-7.66,11.87-12.63,13-20.83A48.84,48.84,0,0,0,144.21,615.1Z" style="fill:#040505"/><path d="M217,150.45c-11.65-2.89-30.31,4.15-34.68,16.19-1.92,5.32-.82,11.17-.12,16.78,3.26,25.88-2.42,52-8.07,77.44-4.29,19.37-8.71,39.05-18.38,56.37-5.08,9.11-16.25,20.12-17.28,30.57,7.93.14,17.86-12.9,26.67-15.48a68,68,0,0,1,13.8-2l28-2.19c8.75-.68,17.54-1.37,26.29-.68a85.29,85.29,0,0,1,51.79,23.13c1.65,1.58,3.35,3.47,3.37,5.76,0,6-10.52,7.26-11.1,13.25,8.7,1.64,17.16-5.33,20.32-13.59s2.35-17.45,1.48-26.26c-3.69-37.44-2.93-75.1-2.86-112.66,0-16.69,1.39-34.29-1.94-50.67-2.47-12.11-3.31-35.66-19.17-37.6-6.25-.76-12.48,1.65-18,4.78s-10.53,7-16.27,9.62" style="fill:#029a4a"/><path d="M202.33,82.85c-8.71.49-16.16-8.25-16-17S193,49.41,200.88,45.7s17-4,25.66-2.87,17.11,3.45,25.74,4.75c3.26.48,6.62.84,9.55,2.34,6.88,3.49,9.42,12,10,19.71,1.15,15.34-2.72,30.56-6.56,45.45-4,2.4-11-.76-10.83-5.78a3,3,0,0,0,2-1A21.15,21.15,0,0,0,261,97.91c.62-6-2.12-10.91-8.33-11.29-2-.12-4.47.06-5.49-1.67s0-4.21-1.57-5.26a3.55,3.55,0,0,0-2.33-.31l-46.71,4.49" style="fill:#040505"/><path d="M222.52,136.53c6.58.84,13.45.65,19.61-1.8,9.93-4,15.27-14.6,14.89-25,0-1.06,3.91-5.37,4.51-6.83a22,22,0,0,0,1.62-8.49c-.07-6.06-5.1-8.61-10.69-9.82-2.47-.53-5.38-.92-6.64-3.11-.76-1.31-.68-2.93-.95-4.43-.9-4.93-5.58-8.18-10.1-10.35-3.14-1.5-6.62-2.79-10.05-2.13-5.09,1-8.65,6-13.7,7.11-2.34.54-4.91.25-7,1.41-3.86,2.16-3.77,7.65-3.16,12,1.56,11.3,4.84,22.33,7.24,33.51.91,4.25,2.09,8.52,4.48,12.14s6.16,6.55,10.48,7a8.24,8.24,0,0,1,3.43.68c4.61,2.72-1,12.71-3.5,15.23a7.94,7.94,0,0,1-5.52,2.67c-.05.3.25.53.51.69,5.45,3.39,11.64,6.36,18.26,5.76s14.09-3.67,19.82-7.05a6,6,0,0,0,3-3,6.27,6.27,0,0,0,.15-2c-.2-7.28-.9-14.75-.5-22,.09-1.73,1.44-17.12.69-18.68-1.55-3.22-12.1,9.49-15.67,9.66a31,31,0,0,0-23,12.3" style="fill:#f6a4a7"/><path d="M74.43,241a28.56,28.56,0,0,0-24.84,14.76c-2.46,4.58-3.54,10.33-1.14,14.94s9.12,6.95,13.1,3.6" style="fill:#f6a4a7"/><path d="M74.83,240.35A44.73,44.73,0,0,0,56.7,262.79c-1.25,3.45-2.05,7.37-.55,10.72s6.11,5.42,9,3.18" style="fill:#f6a4a7"/><path d="M76.21,242.84c-8.33,4.85-16.47,18.77-12.18,28.64,6.64,15.31,16.47-3,19.89-10.32,2.64-5.65,6.23-11.75,12.54-13.43-4.28,10-5.49,21.77-7.74,32.41,1.12-5.27,12.94-14.8,16.21-20,4.41-7,9-14.46,12.87-21.69,2.76-5.18,2.65-12.86-2.52-15.63a146.54,146.54,0,0,0-31.63,10.33C77,236.25,70.32,240,66,246a25.18,25.18,0,0,0-4.5,11.09" style="fill:#f6a4a7"/><path d="M304.14,223.8c-4.92,3.2-10.36,7.29-10.63,13.15-.13,2.86,1.05,5.62,1.24,8.48.34,5.08-2.47,10-1.91,15.07.34,3.06,1.88,5.83,2.85,8.75,1.12,3.35,1.52,7,3.34,10s5.8,5.21,8.88,3.5l3-56.06c.08-1.43.11-3-.79-4.13s-3.08-1.16-3.49.22" style="fill:#f6a4a7"/><path d="M304.59,225.91l15.46-2.76c4-.72,9.14-.94,11.1,2.63,1.19,2.17.55,5-1,6.94a15.41,15.41,0,0,1-6.07,4.16,51.86,51.86,0,0,1-19.4,4.34" style="fill:#f6a4a7"/><path d="M300,242.59c10.91.3,21.28-5.84,32.17-5.24,1.69.09,3.67.56,4.31,2.13a4.48,4.48,0,0,1-.67,3.72c-3.12,5.63-8.86,9.43-14.94,11.53s-12.57,2.69-19,3.26" style="fill:#f6a4a7"/><path d="M301,257.06a178.43,178.43,0,0,0,28.43-8.61,8.35,8.35,0,0,1,4.56-.89c3.11.58,4.43,4.71,3.21,7.63s-4.08,4.78-6.87,6.25A64.93,64.93,0,0,1,300,268.86" style="fill:#f6a4a7"/><path d="M302,280.31c2,3.78,7.35,3.62,11.56,2.91l18.57-3.14c-1.3-4.25-6.44-5.75-10.8-6.59l-18.66-3.58" style="fill:#f6a4a7"/><path d="M91,436.19c25.41-12.56,46.07,18.14,19.35,33.28a26.55,26.55,0,0,1-28.46-1.93c-3.66-2.79-6.63-6.75-7.35-11.3C73.12,447.47,84,439.64,91,436.19Z" style="fill:#9495ac"/><rect x="82.28" y="459.96" width="11.79" height="34.06" style="fill:#9495ac"/><rect x="108.75" y="457.82" width="11.79" height="34.06" transform="translate(-93.83 33.08) rotate(-11.69)" style="fill:#9495ac"/><path d="M78.69,506.66c-4.09-2.89-4-9.43-1-13.42s8-5.94,12.85-7.2a73.71,73.71,0,0,1,26.7-1.9c5.67.64,12.78,4,11.77,9.62-.39,2.18-2,3.92-3.63,5.42A55.58,55.58,0,0,1,87.64,513.7c-4.57,0-9.91-1.19-11.82-5.34" style="fill:#9495ac"/><path d="M83.45,503.17c-5.46,2.2-8.67,8.15-9.24,14s1,11.68,2.71,17.32q5,16.61,11.15,32.82c3.88,10.21,8.11,20.28,12.57,30.25,1.91,4.28,4,8.66,7.4,11.83s8.7,4.85,12.94,2.84c5.57-2.64,6.86-9.9,7.14-16.06,1.46-32.11-4.73-64-11.57-95.46-.2-.9-.64-2-1.56-2s-.47,1.94.13,1.24" style="fill:#9495ac"/><path d="M71.67,450.77a33.47,33.47,0,0,0,7.51,22.76c2,2.52,5.52-1,3.54-3.53a28.2,28.2,0,0,1-6-19.23c.15-3.22-4.85-3.21-5,0Z" style="fill:#040505"/><path d="M81.46,458a153.77,153.77,0,0,0-2.34,33.39c.12,3.21,5.13,3.23,5,0a147.8,147.8,0,0,1,2.16-32.06c.57-3.15-4.25-4.5-4.82-1.33Z" style="fill:#040505"/><path d="M90.43,460l-1.68,30.11c-.18,3.22,4.82,3.21,5,0L95.43,460c.18-3.22-4.82-3.21-5,0Z" style="fill:#040505"/><path d="M102.05,460.7l2.6,15c.77,4.43.88,9.87,2.51,14.05,1.47,3.76,7.26,4.12,6.89-.7a2.63,2.63,0,0,0-1.84-2.41l-.45-.17c-3-1.11-4.32,3.72-1.32,4.83l.44.16L109.05,489c2.53-.33,3.32-1.48,2.38-3.43l-.66-3.75-1.3-7.49-2.6-15c-.55-3.17-5.37-1.82-4.82,1.33Z" style="fill:#040505"/><path d="M77,487.74c-6,4.78-7,13.74-3.16,20.24,4.46,7.52,14,10.93,22.36,10.61,17.31-.67,32-15.41,33-32.55.19-3.22-4.81-3.21-5,0-.75,12.81-10.78,24.08-23.26,26.9-6.25,1.41-13.37.65-18.69-3.14-6.15-4.38-8.15-13.45-1.74-18.52,2.53-2-1-5.51-3.53-3.54Z" style="fill:#040505"/><path d="M72.32,509.81c-3.41,6.1-.87,13.51,4.75,17.36,7.47,5.11,18.91,4,27.25,2,7.52-1.82,15-6.69,16.84-14.67.62-2.7.51-6.15-2.18-7.66a4.12,4.12,0,0,0-5.78,1.77c-1.47,2.86,2.85,5.39,4.31,2.52-2.34,4.59-3.85,8.53-8.68,11.12-4.18,2.23-9.09,2.87-13.73,3.2-4.14.3-8.65.49-12.6-1.05-4.69-1.83-8.65-7.09-5.86-12.06,1.57-2.81-2.74-5.34-4.32-2.53Z" style="fill:#040505"/><path d="M75.72,516.18c3.22,0,3.23-5,0-5s-3.22,5,0,5Z" style="fill:#040505"/><path d="M71.86,515.47c-2.58,6.65-.57,13.42,1.41,20q3.65,12,8.16,23.8C87.11,574,93.35,589.57,101.87,603c5,7.93,16.74,16.09,23.86,5.44,2.9-4.33,3.41-10,3.3-15.06-.18-8.46-.95-17-1.65-25.41q-2.37-28.83-6.92-57.41c-.5-3.17-5.31-1.83-4.82,1.33Q120,539.3,122.3,567c.7,8.36,1.38,16.75,1.69,25.14.19,5.44,0,16.93-8,16.43-7.75-.49-12.22-12.33-15.16-18.07q-6-11.75-11.08-23.94T80.62,542.1c-2.53-7.67-7-17.31-3.93-25.31,1.16-3-3.67-4.3-4.83-1.32Z" style="fill:#040505"/><path d="M112.5,497c5.43,8.56,10.61,18.08,11.29,28.41a33.76,33.76,0,0,1-1.62,13.35c-.94,2.72-3.73,9.42-7.21,9.59-8.33.38-8.38,13.38,0,13,14.28-.67,20.81-17.66,21.79-29.81,1.19-14.79-5.29-28.92-13-41.1-4.47-7-15.72-.53-11.22,6.56Z" style="fill:#040505"/><path d="M104.11,542.33c-3.6,9.74.5,20.06,8.6,26,4.33,3.18,9.43-1.23,9.78-5.61a43.11,43.11,0,0,0-5.36-24.25c-4-7.35-15.25-.79-11.23,6.56a30.73,30.73,0,0,1,3.59,17.69l9.78-5.61c-3.61-2.65-4.06-7.44-2.62-11.32,2.9-7.86-9.66-11.26-12.54-3.46Z" style="fill:#040505"/><path d="M57.41,244.37C50,250.84,36.63,270,51,276.69c1.74.82,3.27-1.77,1.52-2.59-12.18-5.71,1-22.4,7-27.61,1.46-1.27-.67-3.39-2.12-2.12Z" style="fill:#040505"/><path d="M53.81,255a27.94,27.94,0,0,0-3.25,21.44c.46,1.87,3.35,1.08,2.89-.8a24.85,24.85,0,0,1,2.95-19.13A1.5,1.5,0,0,0,53.81,255Z" style="fill:#040505"/><path d="M60.05,255.74c-2.78,5.73-7.31,15.35-4.29,21.72,1.93,4.06,8.82,4.86,9.85-.28.38-1.88-2.51-2.69-2.89-.8-3.31,1.42-4.9.59-4.77-2.47v-1.2a26.22,26.22,0,0,1,1-5.54,51.27,51.27,0,0,1,3.67-9.91c.84-1.73-1.75-3.26-2.59-1.52Z" style="fill:#040505"/><path d="M77.32,247.21a107,107,0,0,0-13.35,23c-1.63,4-1.17,11.89,5.28,9.64,6-2.1,10.79-8.83,14.33-13.77,2.24-3.13,4.33-6.37,6.57-9.5,2.46-3.45,6.9-10.66,11.82-10.15,1.92.2,1.9-2.81,0-3-5.36-.56-9.09,4.65-12,8.43-3.49,4.47-6.42,9.32-9.79,13.87a49.56,49.56,0,0,1-6.75,7.64c-.85.75-3.3,3.42-4.2,3.14l-3-4c.6-1.47,1.24-2.93,1.92-4.36a117.34,117.34,0,0,1,11.75-19.46c1.15-1.55-1.45-3.05-2.59-1.51Z" style="fill:#040505"/><path d="M93.71,249.67,90.28,265.3c-.87,3.95-3.24,9.49-2.77,13.52.76,6.6,7.35,0,9.16-2.18,9.16-11,10.24-28.07,22.72-36.43,1.59-1.07.09-3.67-1.52-2.59-9.46,6.34-12.77,17.22-17.44,27a57.41,57.41,0,0,1-3.93,7.18,30,30,0,0,1-3.59,4.51c-1.35,1.37-1.52,2.64-2-.14-.24-1.5.87-3.95,1.21-5.52l1.62-7.35,2.82-12.87c.42-1.88-2.47-2.69-2.89-.8Z" style="fill:#040505"/><path d="M102.76,223c5.79-3.8,11.12,1.65,12.89,7,1.51,4.63,1.38,9.6,2,14.38.68,5,2.57,10,2.74,15.14.17,5.42-3.85,14.42-10.49,10-2.69-1.79-5.19,2.54-2.53,4.32,5.07,3.39,11.72,1.56,15.16-3.29,5.11-7.22,2-16.07.52-23.89-1.55-8.14-.49-17.22-5.69-24.25-4-5.4-11.34-7.54-17.14-3.74-2.68,1.75-.18,6.08,2.53,4.31Z" style="fill:#040505"/><path d="M142.43,269.26a135.58,135.58,0,0,0,31.88-28.56c9.2-11.43,14.86-25.52,24.79-36.3,2.18-2.36-1.35-5.91-3.53-3.54-9.5,10.3-14.91,23.56-23.46,34.6A130.67,130.67,0,0,1,139.91,265c-2.69,1.74-.19,6.07,2.52,4.31Z" style="fill:#040505"/><path d="M253.43,179.45c2.84,27.81-4.2,57.28,7.11,83.83,7.33,17.21,29.5,37.89,49.52,27.12,2.84-1.53.32-5.85-2.52-4.32-9.7,5.22-22.15-.37-29.72-7-8.15-7.12-13.2-16.86-15.9-27.23-6.15-23.64-1-48.4-3.49-72.42-.33-3.17-5.33-3.2-5,0Z" style="fill:#040505"/><path d="M293.72,278.84c-14.49-9.93-7.28-33.81,1.64-44.85,2-2.48-1.51-6-3.54-3.53-11.11,13.75-18.11,40.72-.63,52.7,2.66,1.82,5.17-2.51,2.53-4.32Z" style="fill:#040505"/><path d="M215.42,158.66A30.75,30.75,0,0,0,261.53,152c1.77-2.7-2.56-5.2-4.32-2.52A25.65,25.65,0,0,1,219,155.12c-2.44-2.06-6,1.46-3.53,3.54Z" style="fill:#040505"/><path d="M205.05,92.66l8.33-3.7a2.51,2.51,0,0,0,.9-3.42,2.55,2.55,0,0,0-3.42-.9l-8.34,3.71a2.52,2.52,0,0,0-.89,3.42,2.55,2.55,0,0,0,3.42.89Z" style="fill:#040505"/><path d="M224.75,83.47a20.33,20.33,0,0,1,10.8-1.58c3.15.45,4.51-4.37,1.33-4.82a25,25,0,0,0-13.46,1.58c-2.92,1.23-1.64,6.07,1.33,4.82Z" style="fill:#040505"/><path d="M208.67,98.71a3.89,3.89,0,0,1,3.45-1.43,2.52,2.52,0,0,0,2.5-2.5,2.55,2.55,0,0,0-2.5-2.5,8.94,8.94,0,0,0-7.76,3.91,2.53,2.53,0,0,0,.89,3.42,2.56,2.56,0,0,0,3.42-.9Z" style="fill:#fff"/><path d="M228.47,91.86a7,7,0,0,1,2.14-1.43,7.16,7.16,0,0,1,1.17-.36c.37-.08,1.09.1.59-.21l-.9-.9.15.28c1.47,2.86,5.78.33,4.31-2.53-1.09-2.13-3.71-1.93-5.69-1.41a12.2,12.2,0,0,0-5.3,3c-2.34,2.22,1.2,5.75,3.53,3.53Z" style="fill:#fff"/><path d="M207.37,98.91l.62-.12L204.92,97a2,2,0,0,1,1.32-2.35l1.93.25-.08,0,.9.89-1.26,3.12H206.4l.09,0a2.5,2.5,0,1,0,1.33-4.83,2.84,2.84,0,0,0-2.76,4.72,2.77,2.77,0,0,0,3.83,0,3.1,3.1,0,0,0,.85-3.07A2.56,2.56,0,0,0,206.66,94l-.62.12a2.52,2.52,0,0,0-1.75,3.08,2.57,2.57,0,0,0,3.08,1.74Z" style="fill:#040505"/><path d="M229.57,90.17l-2.72.75-.9-3.43a2,2,0,0,1,1.05-.75,2.5,2.5,0,1,0,1.33,4.82A3.31,3.31,0,0,0,230.27,90a2.53,2.53,0,0,0-.9-3.42,3.1,3.1,0,0,0-2.31-.32,3.26,3.26,0,0,0-1.81,1.37,2.48,2.48,0,0,0-.25,1.92,2.58,2.58,0,0,0,1.15,1.5,2.49,2.49,0,0,0,1.92.25,2.94,2.94,0,0,0,1.5-1.15Z" style="fill:#040505"/><path d="M219.51,119c4.33-2.31,8.9-4.57,13.77-4.64a1.67,1.67,0,0,1,1.22.32,1.78,1.78,0,0,1,.43,1c.59,3,.37,6.46-1.8,8.52a5.46,5.46,0,0,1-4.93,1.36,5.64,5.64,0,0,1-3.88-3.39c-.17-.42-.34-.92-.76-1a1.55,1.55,0,0,0-.79.1,3.92,3.92,0,0,1-3-.43c-.47-.28-.77-1.16-.24-1.24" style="fill:#040505"/><path d="M246,78.08c-.39,5.24-.71,10.5-1,15.75a1,1,0,0,0,.93,1.22l4.37,1.21a.59.59,0,0,0,.37,0c.21-.08.26-.35.28-.58.18-2,.39-3.93.62-5.89.51-4.31,1.39-9,4.78-11.73" style="fill:#040505"/><path d="M222.14,107.7a1.77,1.77,0,0,1-2.22-2.12,3,3,0,0,1,2.77-2.3c1.26-.22.73-2.15-.53-1.93a4.82,4.82,0,0,0-4.25,5,3.73,3.73,0,0,0,4.76,3.29,1,1,0,0,0-.53-1.93Z" style="fill:#040505"/><path d="M201,75.06c-2.63,8.81.67,18.39,2.37,27.12s2.66,18.16,6.87,26a19.24,19.24,0,0,0,16,10.34c8.43.47,14.77-5.41,21.26-10,.52-.37,0-1.24-.51-.87-6.07,4.26-12.18,10-20,9.85s-14.06-5.19-17.05-12.38c-3.11-7.46-4.15-15.81-5.68-23.7C202.63,93,199.46,83.8,202,75.33a.5.5,0,0,0-1-.27Z" style="fill:#040505"/></svg>