<svg xmlns="http://www.w3.org/2000/svg" xmlns:xlink="http://www.w3.org/1999/xlink" viewBox="0 0 703.33 527.26"><defs><clipPath id="a"><polygon points="671.24 0 6.57 91 74.53 458.47 162.99 452.24 180.51 487.27 206.45 449.18 679.3 415.85 671.24 0" style="fill:none"/></clipPath></defs><title>Asset 6</title><g style="clip-path:url(#a)"><polygon points="671.24 0 6.57 91 74.53 458.47 162.99 452.24 180.51 487.27 206.45 449.18 679.3 415.85 671.24 0" style="fill:#d03191"/><rect y="67.31" width="509.68" height="308.81" rx="19.54" style="fill:#296db2"/><path d="M30,323.65c4.5-4.5,63-19.49,63-19.49l21-7.5,7.49,6,21-1.5,73.46-70.45,16.49,9,75.45-81.15,55,61.66,78-7.49,36,1.5,31.48-4.5,1.5,118.42Z" style="fill:#1fa5bd"/><path d="M65.46,330.32a5,5,0,0,0-6.09-5.84,2.52,2.52,0,0,0-1.75,3.08,2.56,2.56,0,0,0,3.07,1.74c.53-.12-.56,0,0,0-.25,0-.47-.15-.12,0s-.45-.29-.09,0l.21.13c.15.1.09.06-.19-.14l.11.11c.14.16.15.16,0,0s-.13-.17,0,0l.08.14c-.13-.34-.16-.41-.1-.23l.06.22,0-.35c0,.28,0,.21.06-.19a2.8,2.8,0,0,0,.26,1.93,2.53,2.53,0,0,0,1.49,1.15c1.18.27,2.88-.36,3.08-1.75Z" style="fill:#296db2"/><path d="M51,107.78V322.15c0,9,14,9,14,0V107.78c0-9-14-9-14,0Z" style="fill:#fff"/><path d="M33,332.15H464.71c9,0,9-14,0-14H33c-9,0-9,14,0,14Z" style="fill:#fff"/><path d="M224.87,230.71v-3a9.32,9.32,0,0,0-2.64-6.37,6.9,6.9,0,0,0-2.9-1.86,6.74,6.74,0,0,0-3.46-.77,9.11,9.11,0,0,0-6.37,2.63,9.39,9.39,0,0,0-2.63,6.37v3a9.29,9.29,0,0,0,2.63,6.36,6.71,6.71,0,0,0,2.9,1.86,6.89,6.89,0,0,0,3.47.78,9.11,9.11,0,0,0,6.36-2.64,9.35,9.35,0,0,0,2.64-6.36Z" style="fill:#fff"/><path d="M313.67,165.11l1.5-1.5a10,10,0,0,0,2.64-6.36,10,10,0,0,0-2.64-6.36,9,9,0,0,0-6.36-2.64,9.39,9.39,0,0,0-6.37,2.64l-1.49,1.5a9.88,9.88,0,0,0-2.64,6.36,9.88,9.88,0,0,0,2.64,6.36,9,9,0,0,0,6.36,2.64,9.35,9.35,0,0,0,6.36-2.64Z" style="fill:#fff"/><path d="M121.43,296.66v-1.49a9.94,9.94,0,0,0-2.64-6.37,6.68,6.68,0,0,0-2.89-1.86,6.78,6.78,0,0,0-3.47-.77,9,9,0,0,0-6.36,2.63,9.35,9.35,0,0,0-2.64,6.37v1.49a8.7,8.7,0,0,0,5.53,8.23,6.8,6.8,0,0,0,3.47.77,9,9,0,0,0,6.36-2.63,9.35,9.35,0,0,0,2.64-6.37Z" style="fill:#fff"/><path d="M433.56,241.17c-8,1.43-16.26,1-24.4.45-32.22-1.94-64.59-3.91-96.14-10.73-8.55-1.84-17.07-4-25.78-4.9-1.38-.13-2.91-.19-4,.66a5.21,5.21,0,0,0-1.56,3.57c-1.47,11,3.74,22.09,11.66,29.83s18.27,12.51,28.76,16a159.88,159.88,0,0,0,118-7" style="fill:#8e4527"/><path d="M294.23,229.27c-.42-2.87-3.16-4.74-5.65-6.23-5.63-3.36-11.39-6.74-17.78-8.19s-13.62-.69-18.63,3.53c-4.73,4-6.76,10.37-7.46,16.52-1.07,9.43,1.13,20.18,8.94,25.56,7,4.78,16.16,4,24.53,3.05,4.64-.53,9.49-1.14,13.28-3.87s5.94-8.3,3.37-12.19" style="fill:#8e4527"/><path d="M214.33,229.59l52.57,4.88c5.66.52,10.5-5.2,10.5-10.5,0-6.12-4.83-10-10.5-10.5l-52.57-4.88c-5.65-.52-10.5,5.2-10.5,10.5,0,6.12,4.83,10,10.5,10.5Z" style="fill:#8e4527"/><path d="M276,216c8.33,1.4,14.11,7.88,13.79,16.27-.51,13.52,20.49,13.5,21,0,.65-17.07-12.17-33.67-29.21-36.52-5.58-.93-11.3,1.47-12.91,7.34-1.38,5,1.71,12,7.33,12.91Z" style="fill:#8e4527"/><path d="M252,259a15.08,15.08,0,0,0,7.42,13.81c5.39,3.22,11.58,2.37,17.38,1,10.52-2.45,21-5,31.54-7.5,13.14-3.12,7.58-23.37-5.58-20.25l-18.16,4.32-8.61,2-3.82.9c-.93.23-1.85.45-2.79.66q-4.38.59,3.62,5c.49-5.66-5.18-10.5-10.5-10.5-6.09,0-10,4.82-10.5,10.5Z" style="fill:#8e4527"/><path d="M394.28,232.57A525.32,525.32,0,0,0,554.9,219.7c22.09-5.27,44.22-12,66.93-11.56s46.77,9.71,58.18,29.34c6.16,10.58,8.07,23,9.72,35.17a1501.45,1501.45,0,0,1,13.6,192.08A748.87,748.87,0,0,1,549,464.51c-5.31-.56-10.91-1.29-15.15-4.55-6.47-5-7.71-14.07-8.45-22.2L514.21,314.35a702.58,702.58,0,0,1-94.3-5c-8.75-1.05-18.09-2.56-24.52-8.59-5-4.7-7.49-11.51-8.9-18.24a78.32,78.32,0,0,1,5.4-48.2" style="fill:#f8a231"/><path d="M538.22,193.3c-.05-1.35,2.16-.35,2.68.89l21.45,51.26c.72,1.72,1.55,3.56,3.18,4.47a8.11,8.11,0,0,0,4.15.68,71.93,71.93,0,0,0,44.43-17.12c2.44-2.1,4.83-4.49,5.84-7.55,1.26-3.81.19-8-.89-11.83L598.2,139.26" style="fill:#8e4527"/><path d="M348.77,424.51c-31.63-1.74-63.42,17.36-76.73,46.11a13.08,13.08,0,0,0-1.44,4.79c-.27,6.51,7.64,9.74,14,11.12l13.58,2.93c3.75.81,7.76,1.6,11.36.27,4.48-1.66,7.16-6.11,10.08-9.88a49.31,49.31,0,0,1,38.66-18.76,125.73,125.73,0,0,0-8.68-35.63" style="fill:#f6a4a7"/><path d="M372.55,489.57A642.83,642.83,0,0,1,336.08,379.7c-4-17.13-7.27-35.44-1.41-52,6.1-17.27,21.18-29.84,37-39s33.16-15.84,48.24-26.24c4.76-3.28,9.81-8.79,7.46-14.07,18.33.76,33.61,13.87,46.23,27.18,60.87,64.2,96.66,147.57,146.14,220.9-12.39,4.08-25.6,4.77-38.62,5.44-56.86,2.9-113.79,5.8-170.7,4.36-11-.28-22.54-.88-31.85-6.72l4.64,1.32" style="fill:#773b93"/><polyline points="406.17 234.41 410.21 232.14 419.11 232.89 419.87 247.35 410.74 249.63" style="fill:#492464"/><path d="M369,194.42c4.77-11,9-22.18,13.37-32,10.69-23.87,19.67-52.28,9.39-77.86-9.1-22.64-35-38.91-58.5-32.35-39.06,10.9-56.77,62.65-63.45,98.52-5.71,30.67-2.38,66.19,20.83,87a40.3,40.3,0,0,0,14.05,8.59c14.68,4.86,31.2-2.35,41.7-13.72C355.81,222.48,362.86,208.6,369,194.42Z" style="fill:#f6a4a7"/><path d="M322,218.63a650.38,650.38,0,0,0,46.64,69.62c1,1.3,2.12,2.68,3.71,3.1,1.81.5,3.68-.4,5.35-1.26l51.75-26.84c-18.6-28.75-37.32-57.74-50-89.56-4.9-12.32-8.86-25-12.72-37.66" style="fill:#f6a4a7"/><path d="M391.08,57.9c-6-5.57-18.44-12.77-26.64-14.14-4.38-.73-8.9-.35-13.23-1.32-7-1.58-12.78-6.51-19.45-9.22-9.78-4-20.95-2.93-31.05.13A47.08,47.08,0,0,0,285.09,41c-12.51,9.84-16,29.11-8.5,43.14,5.24,9.79,15.23,16.52,26,18.75,11.87,2.47,23.63-2.36,35.7-1.39,11.26.9,23.43,7.41,25.42,18.52,1.62,9.07-3.93,17.66-8.49,25.67a143,143,0,0,0-9.86,21.23c-2.11,5.72-2.61,14.15,3.22,15.91a76.82,76.82,0,0,1,10.23-22.45c1.88-2.8,4.13-5.62,7.33-6.71,7.42-2.51,14.67,5.52,13.28,12.66-.47,2.41-1.55,4.66-2.15,7.05a32.66,32.66,0,0,0-.75,5.49q-.36,4.78-.46,9.58a2.62,2.62,0,0,0,.39,1.79,2.49,2.49,0,0,0,1.24.68A24.53,24.53,0,0,0,387,192a32.85,32.85,0,0,1-1.25-18,67.74,67.74,0,0,1,1.88-6.54c4.61-14.12,9.23-28.34,13.33-42.64C407.46,101.94,408.5,74,391.08,57.9Z" style="fill:#2b2c35"/><path d="M284.73,146.79c.06-3.83.33-7.8,2.16-11.17s5.64-5.93,9.4-5.17c4.34.87,6.81,5.69,7,10.11a14.79,14.79,0,0,1-3.66,10.82A10.7,10.7,0,0,1,289,154.49c-3.73-1.17-6.51-5.17-5.83-9" style="fill:#fff"/><path d="M287.47,149.5a3.62,3.62,0,0,1-.08-3.91l-2,.81a1,1,0,0,1,.37,1.52l2-.8c-.52-.1-.6-.62-.28-.57l-.77-.45c.33.3.05.11.16.47s-.44,0,0,.14.18,0,.2,0c.42-.19-.18-.08-.06-.07v-.22a.49.49,0,0,1-.25.46c1.83-1.3.08-4.35-1.77-3a3.54,3.54,0,0,0,.29,5.9c2.39,1.47,5-.69,5.08-3.18a3.61,3.61,0,0,0-1.37-3.09c-1.17-.84-3-.34-4,.54a3.77,3.77,0,0,0,1.79,6.48,1.83,1.83,0,0,0,2-.8,4.57,4.57,0,0,0-2.47-6.69,1.77,1.77,0,0,0-2,.81,7.13,7.13,0,0,0,.08,7.45c1.21,1.9,4.25.14,3-1.77Z" style="fill:#2b2c35"/><path d="M287.12,128.38a31.14,31.14,0,0,0,18.13.84c5.7-1.4,3.29-10.2-2.42-8.8a22.36,22.36,0,0,1-13.29-.83c-5.53-2-7.91,6.81-2.42,8.79Z" style="fill:#2b2c35"/><path d="M275.7,163.25c-6.47,1.06-14.25.91-18,5.75-3.2,4.07-1.44,10.28,3,13.23s10.81,2.89,15.81.74c.38-.16.81-.41.79-.79s-.86-.39-.73,0" style="fill:#f6a4a7"/><path d="M301.35,213.38c5.17-2.39,10.39.48,12.92-1.79,2.22-2,2.59-6,0-7.94-5.2-3.91-12.61-5.09-18.58-1.68a13.39,13.39,0,0,0-6.37,15.77C291.63,224.64,296.19,215.77,301.35,213.38Z" style="fill:#2b2c35"/><path d="M345.92,286c9.16-5.63,76.61-39.23,70.72-51.71-1-2.17-7-2.14-7-2.14s10.53-4.51,12.46-.6c3.06,7.11,10.75,24.3,7.81,32.07a4.1,4.1,0,0,1-2.09,1.9c-25.73,14.27-51.91,36.75-78.48,49.42-.76-6.82-1.53-22.63-2.29-29.44" style="fill:#96529d"/><path d="M457.45,431.26a333.68,333.68,0,0,1-60.38-44.39c-11.33-10.49-22.16-22.1-28.09-36.35s-6.16-31.68,2.8-44.25c10.5-14.73,31.14-19.31,48.82-15.51s33,14.42,47.51,25.29c38.14,28.66,69.54,72.1,83.22,118,2.62,8.8,4.62,18.56.86,26.94-3.67,8.2-12,13.19-20.14,17-51.17,24.09-110.34,21.76-166.8,18.38l-14.37-57.54c-1.56-6.26-3.08-13.13-.31-19,3.62-7.62,21-9,28.42-8.34a234.75,234.75,0,0,1,78.16,21.37" style="fill:#773b93"/><path d="M367.5,494.89q30.3,0,60.56-2.37c29.95-2.33,60.28-6.52,87.62-19,11.69-5.32,23.62-13.24,27.17-25.58,3.38-11.77-1.78-24.17-7.42-35a331.46,331.46,0,0,0-72.29-93.37c15.56.83,29.68,9.3,41.83,19a189.05,189.05,0,0,1,47.88,57.63c9.84,18.25,26.18,48.08,14.93,68.4-8,14.54-25.24,21.07-41.3,25.31a349.89,349.89,0,0,1-159,4.36" style="fill:#96529d"/><polygon points="333.18 412.44 375.81 402.54 391.6 502.69 347.39 501.26 333.18 412.44" style="fill:#96529d"/><path d="M348.87,289.4a725.35,725.35,0,0,0,7.22,100.19c.29,2.11,3.26,1.33,3.44-.46l.44-4.21c.23-2.24-3.28-2.23-3.51,0l-.44,4.21,3.45-.47a719.73,719.73,0,0,1-7.09-99.26,1.76,1.76,0,0,0-3.51,0Z" style="fill:#96529d"/><path d="M263,510.86a133.6,133.6,0,0,1,7.88-20q2.22-4.56,4.66-9,1.37-2.51,2.78-5c.42-.73.84-1.46,1.27-2.19.67-1.17,1.74-1.73-.22-1.24l-5.16-2.1.14.26V467l-.17.28,5.15-2.09-.2-.08c-5.49-2.08-7.87,6.74-2.42,8.8l.19.08c1.88.71,4.19-.48,5.16-2.1a5,5,0,0,0,0-5.15,4.63,4.63,0,0,0-5.15-2.09c-3.61.89-5.14,5.23-6.81,8.18-2.2,3.85-4.31,7.75-6.29,11.72a150.18,150.18,0,0,0-9.64,23.93c-1.69,5.63,7.12,8,8.8,2.42Z" style="fill:#f6a4a7"/><path d="M276.17,519.43a134.1,134.1,0,0,1,16.44-42.51c3-5.05-4.86-9.65-7.88-4.61A141.88,141.88,0,0,0,267.37,517c-1.16,5.73,7.64,8.19,8.8,2.43Z" style="fill:#f6a4a7"/><path d="M291.33,524a164.27,164.27,0,0,1,12.55-41.63c2.42-5.3-5.44-9.94-7.88-4.6a172.78,172.78,0,0,0-13.47,43.81c-.95,5.74,7.84,8.21,8.8,2.42Z" style="fill:#f6a4a7"/><path d="M309.67,517.19a105.33,105.33,0,0,1,17.23-46.45c3.27-4.89-4.63-9.47-7.88-4.6a114.93,114.93,0,0,0-18.47,51.05c-.67,5.83,8.46,5.78,9.12,0Z" style="fill:#f6a4a7"/><path d="M603.22,101.73c-1.83-12.86-12.2-23-23.66-29.1-6-3.19-12.66-5.59-19.41-5-5.68.51-11,3.11-15.76,6.24-27.33,17.9-39.35,51.79-44.72,84-1.95,11.71-3.25,23.84-.41,35.37s10.55,22.46,21.79,26.27c15.22,5.16,31.61-3.78,43.55-14.54a134.66,134.66,0,0,0,41.06-70.82c2.77-12.73,3.57-26.43-1.5-38.43" style="fill:#8e4527"/><path d="M522.26,115.67,502.84,128c-4.16,2.65-8.42,5.39-11.37,9.36s-4.33,9.48-2.16,13.91c3.09,6.29,11.29,7.65,18.28,8.21" style="fill:#8e4527"/><path d="M566.33,92.44c-6.08,3.49-14.39,3.44-20.05-.78-2.16-1.61-9.58-11.09-8.08-13.73a10.84,10.84,0,0,0-.59,9.33,33.09,33.09,0,0,1-11-24.75,31,31,0,0,1,22.47-29.67c3.34-1,34.64-.13,31,8.21,5.13-11.92,19.42-19.06,32-16s22.09,15.89,21.25,28.84c9.54-11.91,30.4-8.12,39.36,4.23s8.47,29.31,4.42,44c-2.31,8.36-5.77,16.65-11.79,22.88s-15,10.1-23.5,8.27a35.92,35.92,0,0,1-47.48,39.38c-.25,6.21-9.12,8.77-14.43,5.53s-7.67-9.59-9.69-15.47a25.47,25.47,0,0,1-22.17,0l30.29-20.14c3.26-2.17,6.66-4.49,8.49-8,3.83-7.28-.57-16.84,3.15-24.18a15.11,15.11,0,0,1-23.77-18Z" style="fill:#040505"/><path d="M520.92,132.12l.07.23,3-11.19-.22.21,8.13-3.37-.29,0,9.93,5.7-.21-.41,1.57,5.81,0-.51-.41,3.06a23.8,23.8,0,0,1,1.45-4.88l-1.16,2.75a24.28,24.28,0,0,1,2.17-3.89c3.39-5,1.1-13-4.13-15.74-5.83-3.08-12.11-1.19-15.73,4.13a30.91,30.91,0,0,0-4.66,10.89c-.95,4.58-.42,9.27,3,12.72,4.71,4.72,12.12,4.26,16.77-.19a11.46,11.46,0,0,0,3-11.19l-.07-.22c-1.72-5.76-8.15-10-14.15-8-5.83,1.89-9.87,8-8,14.15Z" style="fill:#fff"/><path d="M537,111.79a9.86,9.86,0,0,1,1.38-.79c-.81.37-.74.41.21.1-1,.09-.92.11.1.05s1.06,0,.12-.08a12.07,12.07,0,0,1,1.54.41c-.8-.37-.75-.33.14.12s.89.57.18.08q1,1.08.21.09c2.68,3.72,7.4,5.52,11.63,3,3.68-2.15,5.75-7.89,3-11.63-6.16-8.57-17.84-11.94-27.14-6.08a8.68,8.68,0,0,0-3,11.63c2.26,3.87,7.73,5.51,11.63,3.05Z" style="fill:#2b2c35"/><path d="M533.77,133.35l.56-1.09a9.46,9.46,0,0,0,.85-6.55,6.41,6.41,0,0,0-1.52-2.89,6.51,6.51,0,0,0-2.38-2.19,8.64,8.64,0,0,0-6.55-.86,8.5,8.5,0,0,0-5.08,3.91l-.56,1.09a6.34,6.34,0,0,0-1,3.16,6.52,6.52,0,0,0,.15,3.39,9.61,9.61,0,0,0,3.91,5.08,8.62,8.62,0,0,0,6.55.86,8.5,8.5,0,0,0,5.08-3.91Z" style="fill:#2b2c35"/><path d="M507.22,172.48a48.6,48.6,0,0,0,.85,20.68c1.44,5.3,7.53,9.08,12.92,7.34a10.7,10.7,0,0,0,7.33-12.92c-.29-1.06-.54-2.11-.75-3.18-.6-3.05-.07,1.58-.15-1.53,0-1.09-.07-2.18,0-3.27,0-.37.36-3.36.08-1.54.83-5.41-1.37-11.56-7.34-12.92-5-1.14-12,1.53-12.91,7.34Z" style="fill:#040505"/><path d="M551.85,260.69c16.81,2.34,33.63.83,49.42-5.66A94.33,94.33,0,0,0,623.85,242c3-2.35,6.06-4.66,7.88-8.1,2.56-4.87,2.29-11.58-2.25-15.22s-10.53-4.32-14.85,0c-3.67,3.67-4.44,11.28,0,14.85l.71.57-2.7-4.63.16.88v-5.58q2.1-2.72.52-1.18c-.6.54-1.2,1.06-1.82,1.57s-1.09.88-1.66,1.3a72.46,72.46,0,0,1-7.36,4.79,73.15,73.15,0,0,1-45.05,9.21c-5.61-.78-11.28,1.36-12.92,7.33-1.35,4.91,1.69,12.13,7.34,12.92Z" style="fill:#fdcc30"/><path d="M666,256.11c29.11,15.22,5.24,67.16-4,88.76-7.84,18.31-22.07,35.49-41.51,39.77-7.08,1.56-14.43,1.31-21.65.68-9.23-.8-18.61-2.3-26.78-6.68s-15-12.09-16.25-21.27c-1.2-8.94,3-17.86,8.81-24.76s13.18-12.28,19.87-18.32C604.05,296.56,629.77,237.21,666,256.11Z" style="fill:#fdcc30"/><path d="M616.89,314c9.41-3.07,21.1-.88,26.43,8.2,4.46,7.61,3.19,18-1.23,25.69s-11.42,13-18.54,17.53c-32.31,20.59-71.16,28.48-108,21.95-7.21-1.28-14.51-3.17-20.64-7.52s-11-11.6-11.16-19.63c-.48-20.61,25.85-14.63,40-16.06a566.47,566.47,0,0,0,59.92-9.31,24,24,0,0,0-6.85,5.89C591.58,333.72,601.63,319,616.89,314Z" style="fill:#8e4527"/><path d="M494.51,350.27l-31-6.07a7.83,7.83,0,0,0-4.1-.07c-2.19.77-3.29,3.42-3.08,5.76a15.48,15.48,0,0,0,2.67,6.45c5.58,9.1,8,23.86,18.2,28.6,6.89,3.2,15.08,2.5,22.1-.38s13.06-7.77,18.69-12.91" style="fill:#8e4527"/><path d="M424,353.78c16.35,1.12,33.26,9.85,43.5,23.35,2.62,3.45,6.84,5.3,10.89,2.9,3.35-2,5.5-7.59,2.86-11.07-13.94-18.38-34.39-29.79-57.25-31.36-4.3-.3-8,3.93-8,8.09,0,4.62,3.65,7.79,8,8.09Z" style="fill:#8e4527"/><path d="M418.05,330.66a92.46,92.46,0,0,1,52,25c7.42,7.17,18.7-4.25,11.26-11.44a106.34,106.34,0,0,0-59-29.14c-4.26-.58-8.55,1-9.8,5.65-1,3.77,1.28,9.36,5.57,10Z" style="fill:#8e4527"/><path d="M444.47,317.12c-1-.4.61.28.78.37.62.31,1.24.62,1.85,1,1.22.67,2.4,1.4,3.55,2.18a38.39,38.39,0,0,1,5.62,4.52c4.35,4,8.29,8.4,12.31,12.72,8.36,9,17.34,17.39,29.12,21.35,4.09,1.38,8.7-1.59,9.8-5.65a8.26,8.26,0,0,0-5.56-9.95c-.66-.22-1.32-.45-2-.7s-.52-.21,0,0l-.75-.35c-1.23-.6-2.44-1.26-3.61-2s-2.32-1.5-3.43-2.32c-.61-.44-1.18-.9-2.3-1.88a158.86,158.86,0,0,1-12.38-12.51c-8.45-9.14-17.16-17.62-28.78-22.36-4-1.63-8.75,1.77-9.79,5.65-1.25,4.61,1.55,8.31,5.56,9.95Z" style="fill:#8e4527"/><path d="M448,380.84c8.57-3.87,18.25-3.4,26.85,0,4,1.57,8.73-1.74,9.79-5.65,1.24-4.57-1.53-8.37-5.56-9.95-12.79-5-26.73-4-39.11,1.65-3.93,1.78-4.86,7.6-2.86,11.07,2.37,4.11,6.95,4.69,10.89,2.9Z" style="fill:#8e4527"/><path d="M364.27,411.59h98.94c3.22,0,3.23-5,0-5H364.27c-3.21,0-3.22,5,0,5Z" style="fill:#96529d"/><path d="M377.77,449.07h61.46c3.21,0,3.22-5,0-5H377.77c-3.22,0-3.23,5,0,5Z" style="fill:#96529d"/><path d="M532.16,78.79a82.12,82.12,0,0,0-18.57,25.94,122,122,0,0,0-4.71,13.3c-.9,2.89-1.93,5.65-4.28,7.67-2.16,1.84-5,2.61-7.42,4-6.66,3.7-12.3,11.35-10.7,19.32,1.5,7.45,9,12.74,16.44,10.73,3.11-.84,1.79-5.66-1.32-4.82-5,1.35-10-2.81-10.36-7.88-.3-4.05,2-7.9,4.92-10.53,5.41-4.91,12.46-5.32,15.84-12.56,3.21-6.88,4.51-14.34,8.08-21.15A78.08,78.08,0,0,1,535.7,82.32c2.34-2.22-1.2-5.75-3.54-3.53Z" style="fill:#040505"/></g><path d="M38.82,147.54H55c9,0,9-14,0-14H38.82c-9,0-9,14,0,14Z" style="fill:#fff"/><path d="M38.82,177.49H52.64c9,0,9-14,0-14H38.82c-9,0-9,14,0,14Z" style="fill:#fff"/><path d="M38.82,207.87H52.64c9,0,9-14,0-14H38.82c-9,0-9,14,0,14Z" style="fill:#fff"/><path d="M40,237.39H55c9,0,9-14,0-14H40c-9,0-9,14,0,14Z" style="fill:#fff"/><path d="M496.6,164.29c-1.52,20.16.22,46.12,21.5,55.24,18.11,7.78,37.8-1.39,47.82-17.34,1.37-2.18-2.09-4.19-3.45-2-9.32,14.83-28,23.22-44.52,14.9-18.12-9.13-18.69-33.09-17.35-50.78.19-2.56-3.81-2.55-4,0Z" style="fill:#040505"/><path d="M282.83,97.52a197.84,197.84,0,0,0-16.15,67.36l2.53-1.93a11.75,11.75,0,0,0-15.91,12.82c1.63,9.82,12.38,13.17,20.51,8.8,2.26-1.22.25-4.67-2-3.45-5.57,3-13.38,1.12-14.49-5.89-1-6.37,5-10.72,10.85-8.43,1.29.51,2.46-.76,2.53-1.92a192.19,192.19,0,0,1,15.6-65.34c1-2.34-2.43-4.38-3.45-2Z" style="fill:#040505"/><path d="M265.23,185.08c-.25,23.27,10.5,48.46,31.91,59.66a39.6,39.6,0,0,0,53.32-16.25c1.22-2.27-2.23-4.29-3.45-2-9.88,18.45-32.75,24.1-50.43,13.36C278,228.57,269,206.08,269.23,185.08c0-2.58-4-2.58-4,0Z" style="fill:#040505"/></svg>