<svg xmlns="http://www.w3.org/2000/svg" xmlns:xlink="http://www.w3.org/1999/xlink" viewBox="0 0 529.11 430.81"><defs><clipPath id="a"><path d="M282.32,182c-31.07-5.72-54.3-33.59-63.84-63.71S210,55.5,211.79,24.44c2.75-2.36,6.28,1.88,7.38,5.34,5.54,17.49,10.13,35.47,18.9,51.59s22.54,30.52,40.25,35.3c24.36,6.57,49.42-6.08,71-19.19,1.35-.82,4.65,35.86,4.28,39.38-1,9.74-3.12,23.27-9.56,31.26C331.18,184.06,300.6,185.36,282.32,182Z" style="fill:none"/></clipPath></defs><title>Asset 10</title><polygon points="517.76 76.32 0 89.17 37.79 362.79 70.88 362.79 83.14 430.81 119.08 362.79 473.16 362.79 517.76 76.32" style="fill:#389449"/><path d="M103.94,391.12,7.44,224.25a21,21,0,0,1,8.94-29.33L124,142.29a21,21,0,0,1,28.4,10.38l92.47,210.1-125.81,0Z" style="fill:#2b2c35"/><path d="M37.42,227.07a13.14,13.14,0,0,1,6-18.51l84.71-41.42a13.14,13.14,0,0,1,17.13,6.06l84.25,192-110.42-2.41-3,5.65Z" style="fill:#9495ac"/><polygon points="163.88 217.76 156.59 229.91 127.43 215.33 128.24 189.41 109.61 176.44 104.75 179.68 121.76 195.08 118.52 222.62 143.63 235.58 133.91 247.73 113.66 236.39 107.99 215.33 88.55 211.28 99.89 216.95 107.99 246.92 131.48 256.64 124.19 272.85 144.44 269.61 129.86 279.33 139.58 290.67 160.64 288.24 155.78 310.92 180.9 317.4 182.52 336.84 210.06 343.32 189 331.98 192.24 305.25 172.8 300.39 179.28 284.19 188.19 293.91 200.34 292.29 163.88 217.76" style="fill:#2b2c35"/><path d="M329.55,361.28c-4.76-30.32-3.33-62.4-5.15-93-2.52-42.55-2.13-85.75,8.11-127.13s31-81.11,63.86-108.29S475-7.45,515.92,4.35c2.51.72,5.21,1.69,6.55,3.93s7,4.82,6.63,7.29L474.34,362.79" style="fill:#2b2c35"/><path d="M335.74,214a741.66,741.66,0,0,0-81.39-1.57c-25.41.91-54,.79-78.83,6.29-4.43,1-8.75,3.26-11.26,7.05-1.84,2.78-2.56,6.14-3.11,9.43A120.81,120.81,0,0,0,160,266.3a7.78,7.78,0,0,0,.63,2.79c1.24,2.42,4.44,2.88,7.15,3,3.63.21,30.65,4.26,31.19,1,1.78-10.7,20.62-9.25,24.42-19.4.91-2.42.82-5.29,2.5-7.25,2-2.27,5.39-2.33,8.39-2.17q28,1.43,55.78,5.42c9.23,1.32,18.51,2.68,27.63,4.6,7.64,1.6,15.3,4.66,23.19,2.18a20.92,20.92,0,0,0,14-14.4c2-8.05-1.59-16.52-6.61-23.11C345.36,215.2,340.29,214.35,335.74,214Z" style="fill:#9495ac"/><path d="M159.6,235.9c-2.31,9.11-4.31,19.45-2,28.78,1.32,5.39,6.56,11.32,12.53,8.37,1-.49.28-1.93-.72-1.71-16,3.5-11.8-27.09-9.69-35.41a.05.05,0,0,0-.1,0Z" style="fill:#2b2c35"/><path d="M166.05,245.29c-1.45,7.24-2.39,16.51,0,23.69,1.59,4.86,6.34,9,11.63,6.85,1.61-.67,1-3.23-.75-2.71-11.64,3.33-10-21-10.76-27.81,0-.05-.08-.08-.09,0Z" style="fill:#2b2c35"/><path d="M175.52,248.9c-1.42,4.64-1.51,9.71-1.86,14.52-.26,3.63-.63,7.59,1.8,10.6a10.18,10.18,0,0,0,13.47,1.91c1.55-1,.11-3.54-1.46-2.51a7.13,7.13,0,0,1-7.4.49c-3.7-2-3.83-5.71-3.85-9.52,0-5.15.59-10.41-.43-15.49,0-.14-.23-.12-.27,0Z" style="fill:#2b2c35"/><path d="M184.07,247.41c.91,9-3.68,31.45,12.49,29.41,4.65-.59,9-4.72,9.1-9.55.09-2.79-1.27-4.11-3-6a11.94,11.94,0,0,1-2.23-12.9c1-2.57-3.18-3.73-4.16-1.15a16,16,0,0,0,0,11.6c1.57,4,7.62,7.6,3.83,12a7.09,7.09,0,0,1-11.37-.9c-1.76-2.65-1.87-6.24-1.89-9.29,0-4.52.37-9.41-2.36-13.28-.12-.17-.46-.13-.44.12Z" style="fill:#2b2c35"/><path d="M198.36,252.85A12,12,0,0,0,209,250.54c2.4-1.77,6.51-5.95,5.22-9.22a1.71,1.71,0,0,0-2.82-.75c-1.09.94-1.16,2.09-1.75,3.36a11.66,11.66,0,0,1-2.83,3.78,16.51,16.51,0,0,1-8.43,3.61c-.81.12-.71,1.34,0,1.53Z" style="fill:#2b2c35"/><path d="M201,264.78c5.66,7.29,18.22.69,23.18-4.24,5.66-5.62,11.07-18.17,5.44-25.34-.85-1.09-2.77-.44-3.06.81-.71,3.14.14,6.35-.31,9.57a21.44,21.44,0,0,1-4.95,11c-5.53,6.34-12.45,7.2-20.26,8.08,0,0-.06.05,0,.08Z" style="fill:#2b2c35"/><ellipse cx="402.66" cy="159.43" rx="29.77" ry="35.24" style="fill:#9495ac"/><path d="M397.35,130.65c5.77,5.77,13.26,12.66,15.78,20.65a29.76,29.76,0,0,1,.71,14.46c-1.1,5.55-5.44,11-2.17,16.48a6,6,0,0,0,5.2,3c8.47-.67,10.76-10.75,11.88-17.88a41.27,41.27,0,0,0-1.84-21.3c-4.37-11.43-15.57-23.21-28.81-18.22a1.71,1.71,0,0,0-.75,2.82Z" style="fill:#fff"/><path d="M387.1,171.31a40.66,40.66,0,0,1-1.37-10c.1-2.38,1.33-10.88,5.39-8.44,2.81,1.69,2.86,6.56,2.44,9.31-.36,2.38-2.05,8-4.65,8.56l3.6.47c-2.16-1.13-2.83-5.82-2.95-7.9a15.63,15.63,0,0,1,.27-3.92c.19-.93,1.5-3,.62-2.82l-3.71-.49c2.68,1.42.29,7.92-1.69,9.93h6.86c-3.31-2.93,1-1,1.15-3.66a3.26,3.26,0,0,0-3.18-3.19c-6.42-.48-6.62,8.57-1.7,10.91,6,2.88,11.73-3.32,10.34-9.26-1.5-6.42-9-8.36-13.95-4.48-5.54,4.35-4.47,12.18.48,16.54a4.94,4.94,0,0,0,6.86,0,18.5,18.5,0,0,0,4.72-18.33c-1.91-6.25-8.9-10.55-13.49-4.08-4,5.68-4,14.39-1.61,20.67,2.28,6.08,8.2,12.33,14.27,6.1,4.84-5,6.87-12.76,5.91-19.5-.82-5.78-4.73-12.37-11.17-12.93s-9.89,5.91-10.56,11.44c-.74,6.08.9,12.31,6.15,15.77a.67.67,0,0,0,1-.74Z" style="fill:#fff"/><path d="M389.5,171.32a1,1,0,0,1-1.19.47c-.5-.12-.57-.07-.22.14.75.26-.55-.64-.73-.9-.71-1-.63-1.13-.22-2.67.21-.76.57-1.31.81-2.05q1.24-1.47-1.5-.8a1.6,1.6,0,0,1-2-.22,9.1,9.1,0,0,1,.33,1.27c0,.05,0,1.59,0,2.12,0,.21-.09.87-.06,1,0-.06,5.54-3.94,4,.8a18,18,0,0,0-.55-3.61c.36.41-2.3.87-1.94.88q-3.5-2.62-2.1-.63l.34.64c-.38-.89.17.79.23,1-.05-.54-.07-.44,0,.29,0-1.39.83-2.42,2.47-3.08-7.54,2.13-4.34,13.9,3.23,11.75,10.23-2.9,7.19-19-1.55-21.74-5.24-1.66-10.84,2.2-12.27,7.26-1.24,4.38-.51,11.06,2.63,14.58a9.3,9.3,0,0,0,13.74.05c3.54-3.64,3.56-9.52,2.33-14.15-1.14-4.29-4.39-8.2-9.18-7.78-5.24.46-7.62,6-8.25,10.58-.58,4.27,1.87,10.19,6.92,10.24a4.89,4.89,0,0,0,5.07-5.29.19.19,0,0,0-.35-.09Z" style="fill:#2b2c35"/><path d="M370.52,128.55c4.73-.53,8.38-3,12.55-5.11s8-4.46,12.06-6.67A72.69,72.69,0,0,1,405.65,112c2-.73,4.1-1.41,6.18-2,1-.3,2.09-.58,3.14-.84,2.11-.51,3.45.23.11-.68C428.08,112,435.5,94,424.16,87c-6.09-3.76-13.06-1.66-19.45.26a100.64,100.64,0,0,0-17.1,7,62.5,62.5,0,0,0-14.4,9.9c-3.78,3.6-9.33,9.35-10.06,14.73-.59,4.33,1.84,10.29,7.37,9.68Z" style="fill:#9495ac"/><path d="M493.33,240.68s-12-2.42-17.78-4.75c-13.3-5.38-26.81-11.94-35.56-23.32-3,28,12.73,73.67,46.47,73" style="fill:#9495ac"/><path d="M370.71,301.74a69.62,69.62,0,0,1,9.91-12.89c3.25-3.35,7-6.1,9.81-9.88,2.49-3.4-3-7.56-5.82-4.49-3.39,3.7-5.15,8.44-7.26,12.93-2.24,4.76-4.38,9.58-6.73,14.28,0,.06.06.11.09.05Z" style="fill:#9495ac"/><path d="M396.5,326.38c4.37-5,8.94-9.68,13.47-14.48,3.77-4,8.48-8.18,9.14-13.87.18-1.63-1.67-2.62-3-2.3-5.72,1.31-9.57,7.73-12.35,12.5a119.59,119.59,0,0,0-8.17,17.6c-.2.52.57.95.94.55Z" style="fill:#9495ac"/><path d="M390.2,305.42A76.55,76.55,0,0,1,403,290.49c3.54-3.09,9.14-5.8,9.55-10.87a2.08,2.08,0,0,0-2.06-2.06c-5.24.21-8.21,6.52-10.61,10.53-3.42,5.69-6.72,11.35-9.73,17.28,0,.06.05.11.08.05Z" style="fill:#9495ac"/><path d="M427.34,324.68c2.92-2.86,3.55-7.63,6.29-10.85s6.48-5.9,7.11-10.5c.26-1.84-1-3.55-3.05-3.05-5.08,1.24-7.06,5.91-8.33,10.58-1.07,3.95-3.75,9.8-2.1,13.8a0,0,0,0,0,.08,0Z" style="fill:#9495ac"/><path d="M442.65,339.15a82.36,82.36,0,0,1,4.42-10.43c1.49-2.9,3.94-5.14,4.94-8.25,1.09-3.38-3.56-4.85-5.39-2.27-2,2.82-2.26,7.21-2.93,10.56a64.64,64.64,0,0,0-1.14,10.38c0,.06.08.06.1,0Z" style="fill:#9495ac"/><path d="M467.07,331.14c1.41-2.85,2.5-5.83,3.71-8.77,1.09-2.69,2.69-5,.6-7.52a1.77,1.77,0,0,0-1.82-.48c-2.9,1.2-2.72,3.47-3,6.29-.33,3.36-.81,6.72-.9,10.1a.76.76,0,0,0,1.4.38Z" style="fill:#9495ac"/><path d="M368.76,276.77a54.52,54.52,0,0,1,5.88-5.49c1.93-1.59,4.65-2.92,5.7-5.29.34-.79.17-2.12-.93-2.27-3.13-.43-5.84,1.77-7.82,4a19.78,19.78,0,0,0-4.32,8.15.9.9,0,0,0,1.49.87Z" style="fill:#9495ac"/><path d="M88.58,212.59c3.29.85,9.73,2.74,10.76,6.52.8,2.93.5,6.34,1,9.38.69,3.89,1.68,7.73,2.67,11.55.67,2.62,1.06,5.81,2.64,8.11,2.9,4.23,9.79,6.61,14.3,8.51,1.55.66,3.12,1.28,4.71,1.83.33.12,3.49.81,3.75,1.31.39.74-6.77,9.28-7.32,10.05-1.6,2.18,2.09,4.35,3.64,2.12l4.05-5.82c1.09-1.56,3.09-3.53,3.54-5.43a3.42,3.42,0,0,0-1-3.62c-2.34-2.32-7.38-2.75-10.39-4-3.57-1.45-8.23-3.12-11.16-5.68-3.24-2.83-3.79-8.68-4.83-12.68-1.22-4.67-2.35-9.42-3.15-14.18-.64-3.82-.16-4-3.78-5.75a29.1,29.1,0,0,0-9.45-2.35c-.06,0-.07.08,0,.09Z" style="fill:#fff"/><path d="M104.88,180.31c5.27,4.6,16,12,15.44,19.52s-2.3,14.94-2.53,22.63a1.23,1.23,0,0,0,.63,1.09,127.53,127.53,0,0,1,11.92,6.26c3.83,2.31,7.37,5.25,11.33,7.29,1.28.66,2.7-1,1.59-2.06-4.48-4.36-10.76-7.36-16.27-10.18-3.54-1.81-6.31-2.09-6.59-6.31s.61-9.07,1.24-13.31c.67-4.52,2.58-8.48-.72-12.12-4.54-5-10.42-9.12-16-12.88,0,0-.1,0-.06.07Z" style="fill:#fff"/><path d="M142,271.3c-4.31,1.58-9.49,4.38-12,8.4a.42.42,0,0,0,.66.51c1.78-1.67,3.22-3.58,5.16-5.11a29.1,29.1,0,0,1,6.23-3.72s0-.1,0-.08Z" style="fill:#fff"/><path d="M158.83,289c-1.19,7.33-2.3,14.64-3.93,21.88a1.12,1.12,0,0,0,.75,1.33c8.1,2.74,16.76,5.52,25.31,6.27,1.63.15,2-2.49.39-2.85-8.41-1.89-16.82-3.07-25.12-5.5l.75,1.32a152.56,152.56,0,0,0,2.68-22.34c0-.46-.75-.59-.83-.11Z" style="fill:#fff"/><path d="M82.05,287.3c6.9.75,13.73,1,20.67,1.24s13.76,1,20.62.16c4.08-.51,4.27-6.93,0-6.56-6.44.56-12.73,2.15-19.12,3.06-7.31,1.05-14.8,1.38-22.17,1.91a.1.1,0,0,0,0,.19Z" style="fill:#fff"/><path d="M81.48,326.89c8.3-1.52,16.3-5.78,23.9-9.3,7.43-3.44,17-6.76,23.12-12.23,2.14-1.91-.12-6.15-2.92-5-7.55,3.05-14.39,9.12-21.44,13.29-7.47,4.42-15.79,7.84-22.77,13a.14.14,0,0,0,.11.26Z" style="fill:#fff"/><path d="M115.64,345.34c5.66-5.32,10.47-11.61,15.41-17.58,2.28-2.75,4.51-5.55,6.92-8.19,1.61-1.77,2.87-3.26,3.14-5.69.2-1.74-1.89-3.12-3.44-2.62-2,.64-3.16,2.13-4.27,3.83-2.09,3.22-4.18,6.42-6.32,9.61-4.34,6.44-9,12.85-12.54,19.79a.7.7,0,0,0,1.1.85Z" style="fill:#fff"/><path d="M282.32,182c-31.07-5.72-54.3-33.59-63.84-63.71S210,55.5,211.79,24.44c2.75-2.36,6.28,1.88,7.38,5.34,5.54,17.49,10.13,35.47,18.9,51.59s22.54,30.52,40.25,35.3c24.36,6.57,49.42-6.08,71-19.19,1.35-.82,4.65,35.86,4.28,39.38-1,9.74-3.12,23.27-9.56,31.26C331.18,184.06,300.6,185.36,282.32,182Z" style="fill:#2b2c35"/><g style="clip-path:url(#a)"><path d="M206.76,83.67q-2.26,4.32-6.3,4.71c-1.24.15-1.08.19.49.11,1.1.1,2.22.12,3.32.18a60.86,60.86,0,0,0,8.54-.17,74.66,74.66,0,0,0,19.22-4,75.55,75.55,0,0,0,17.4-8.82,91.7,91.7,0,0,0,8-6.28q1.76-1.55,3.36-3.23c.94-1,4.16-3.16.6-1.14l-7.82,2.11.92.07-13.38-7.67.28.51V44.35l-.28.59,5.56-5.56-.47.31L265,42.11l-.31-.33c-5.67-6.15-16.16-5.75-21.92,0-6.13,6.13-5.69,15.75,0,21.92l.31.33c4.44,4.81,13.23,6,18.78,2.42,7.4-4.85,10.91-13.89,6.31-22.1a16.59,16.59,0,0,0-22.41-6.14c-4,2.17-7,6.08-10.24,9.22q-2.13,1.74-.47.52c-.83.62-1.67,1.22-2.53,1.8a61.08,61.08,0,0,1-5.34,3.18c-.92.49-1.84,1-2.78,1.39q2-.78-.6.23c-2,.7-3.92,1.35-5.93,1.88a48.68,48.68,0,0,1-6.09,1.24c2.89-.36-3.05.08-3.61.08-4.74.07-9.18-.56-13.9.41C187.85,59.46,183.85,63,180,68c-5,6.47-1.21,17.63,5.56,21.21,8.2,4.33,15.92,1.34,21.21-5.56Z" style="fill:#d03191"/><path d="M205,127.6c26.11-7.75,60.46-13.77,74.1-40.59,3.67-7.22,2.13-17.14-5.56-21.2-7.07-3.74-17.29-2.16-21.21,5.56-.65,1.27-1.35,2.46-2.08,3.69-1.9,3.18,1.68-1.31-1,1.23-.84.8-1.6,1.66-2.45,2.44s-2.41,1.94-.65.65a55.43,55.43,0,0,1-7.28,4.46c-1.08.56-2.17,1.07-3.26,1.59s-.88.42.35-.09c-.68.28-1.37.55-2,.81-12.07,4.7-24.78,7.88-37.18,11.56-7.76,2.3-13.43,11-10.82,19.07,2.54,7.86,10.74,13.29,19.07,10.82Z" style="fill:#d03191"/><path d="M223.21,164.43C250,158.68,273.3,141.74,288,118.79c4.38-6.84,1.64-17.41-5.56-21.21a15.84,15.84,0,0,0-21.21,5.56,50,50,0,0,1-8.52,10.78c-1.79,1.84-3.66,3.61-5.61,5.29-1,.83-2,1.67-3,2.45,2-1.56-1.83,1.23-1.84,1.23a87.13,87.13,0,0,1-13.44,7.52c2.45-1.1-2,.74-2,.76-1.21.44-2.43.85-3.65,1.23-2.7.85-5.44,1.54-8.21,2.13-7.94,1.71-13.3,11.42-10.83,19.07,2.71,8.37,10.57,12.65,19.07,10.83Z" style="fill:#d03191"/><path d="M240,196.88c21.95.38,37.48-17,50.53-32.39,13.17-15.57,25.29-33.11,28.69-53.65,1.31-8-2.08-17.07-10.83-19.07-7.47-1.7-17.65,2.28-19.07,10.83-2.47,15-10.41,27.63-19.63,38.68a197.44,197.44,0,0,1-16,17.55c-.43.41-4.64,4-3,2.74a39,39,0,0,1-3.93,2.57q-1.33.77-2.73,1.41c1.35-.6,1.17-.6-.56,0-1.84.38-2,.46-.34.26a24.52,24.52,0,0,1-3.09,0c-8.11-.14-15.87,7.23-15.5,15.5.38,8.52,6.81,15.35,15.5,15.5Z" style="fill:#d03191"/><path d="M302.51,208.15c19.64-16.54,34-38.72,42.3-62.94a141.13,141.13,0,0,0,7.12-37.36c.46-8,.6-16.08-5-22.44-7.62-8.58-21.55-8.26-27.42,2.22-4,7.07-1.94,17.25,5.56,21.2,7.31,3.87,17,2,21.2-5.56l.38-.67-9.26,7.12.59-.14H329.7l.72.28-6.84-4c2.88,2.41-3.21-5.57-2.46-5.92-.27.13,0,3.61,0,4q-.07,3.16-.32,6.31c-.1,1.32-.23,2.63-.37,3.94-.09.91-.31,2.28,0,.58-.31,2.08-.68,4.16-1.09,6.23a129.08,129.08,0,0,1-3.35,13c-.72,2.27-1.49,4.51-2.33,6.73-.37,1-.75,2-1.15,2.95.78-1.92-.32.71-.62,1.38a129.69,129.69,0,0,1-13.62,23.12c-1.56,2.12,1.17-1.43-.47.62-.66.82-1.33,1.64-2,2.44q-2.29,2.72-4.74,5.3a127.23,127.23,0,0,1-10.38,9.73c-6.4,5.39-5.56,16.35,0,21.92,6.35,6.34,15.5,5.41,21.92,0Z" style="fill:#d03191"/></g></svg>