<svg xmlns="http://www.w3.org/2000/svg" xmlns:xlink="http://www.w3.org/1999/xlink" viewBox="0 0 340.06 462.09"><defs><clipPath id="a"><path d="M76.37,89.17c-.19-2-1-4.22-3.24-4.52s-3.8,1.63-4.36,3.63a1.37,1.37,0,0,0,.06,1,5.69,5.69,0,0,0,1.32,4.37,3.46,3.46,0,0,0,4.8.53C76.39,92.91,76.54,90.93,76.37,89.17Z" style="fill:none"/></clipPath></defs><title>Asset 3</title><polyline points="47.81 379.67 16.81 26.71 251.05 12.93 251.05 373.48 226.93 373.48 226.93 417.11 183.88 374.05" style="fill:#296db2"/><path d="M247.28,64.74a13.52,13.52,0,0,0-5.06,1.89q-7.17-14.22-14.32-28.45l-.23-.45a12.48,12.48,0,0,0,.9-5.5,12.83,12.83,0,0,0-6.74-10.33c-5.05-2.63-11.2-1.58-16.62.16s-10.82,4.12-16.51,4a26.07,26.07,0,0,0-4.59,0,10,10,0,0,0-7,5.6c-3.3,6.57-.45,15.16,5.44,19.55a19.27,19.27,0,0,0,12.92,3.64l9.56,12c2.6,3.27,5.31,6.64,9,8.57a15.17,15.17,0,0,0,13.52.16c.29-.15.58-.3.86-.47.14.34.28.69.41,1-10.57,8.28-19.86,18.17-21.6,31.1-1.61,11.89,3.67,23.45,7.5,34.81A151,151,0,0,1,222.6,194a13.5,13.5,0,0,0,.66,5.62c-3.14,39.27-6.13,78.68-3.9,118,.29,5.2.71,10.54,3,15.22a16.89,16.89,0,0,0-18.54,10.5,46.65,46.65,0,0,0,34.88-5.25c6.32-23.13,2.79-47.71,5.27-71.55.36-3.46.87-7,2.62-10a24.52,24.52,0,0,1,4.49-5.28v-186A7.75,7.75,0,0,0,247.28,64.74Z" style="fill:#2752a0"/><path d="M80.54,102.09c1.65-9.25,0-18.72-.51-28.11s.59-19.53,6.68-26.69a24.73,24.73,0,0,1,20.69-8.23,28.76,28.76,0,0,1,19.69,10.87c3.33,4.2,5.51,9.17,7.65,14.08l6.72,15.39a2.07,2.07,0,0,1,.25,1.25c-.12.58-.69.93-1.2,1.21a113.65,113.65,0,0,1-16.86,6.81L82.6,102.76c-1,.35-2.83-.3-2.1-1.11" style="fill:#2752a0"/><path d="M96.28,56.51c-.93-.44-1.94.45-2.53,1.3-3.5,5-4.59,11.4-3.9,17.45s3,11.82,5.91,17.19c2.4,4.48,5.72,9.13,10.69,10.12a11.9,11.9,0,0,0,10-3.1,21.34,21.34,0,0,0,5.63-9.15,35.94,35.94,0,0,0-1-25.58c-2.24-5.17-6-10-11.29-11.93s-12.16,0-14.5,5.08" style="fill:#2752a0"/><path d="M104.59,91.13a40.89,40.89,0,0,1-.65,19.51,5.56,5.56,0,0,0-.3,3.21c.56,1.73,2.66,2.37,4.47,2.55a26.23,26.23,0,0,0,12.75-1.88c2-.85,4.18-2.29,4.39-4.48a6.9,6.9,0,0,0-.53-2.82l-7-20.88" style="fill:#2752a0"/><path d="M87.41,137.05c-.06-7.94.22-16.74,5.73-22.45,3.34-3.47,8.09-5.16,12.73-6.46a118.4,118.4,0,0,1,16.69-3.4c6.38-.82,13.57-.89,18.41,3.35,4,3.48,5.32,9,6.41,14.13a523.49,523.49,0,0,1,8.91,59.33c.12,1.34.2,2.84-.66,3.88a5.13,5.13,0,0,1-2.9,1.43,146.49,146.49,0,0,1-59.19,2.19c-2.69-.46-5.67-1.17-7.17-3.46a10.27,10.27,0,0,1-1.24-5.12,422.27,422.27,0,0,1,.21-54.88" style="fill:#2752a0"/><path d="M95,113.51a1.83,1.83,0,0,0-1.24-1.83L57,145.6a3.35,3.35,0,0,0-1.12,1.52,3.39,3.39,0,0,0,.2,1.77L60.94,165c.19.63.5,1.37,1.15,1.45a1.76,1.76,0,0,0,1-.27L83.2,155.84c6-3.09,12.18-6.27,17-11.06" style="fill:#2752a0"/><path d="M139,107.63a197.21,197.21,0,0,1,37.93,26.44,6.34,6.34,0,0,1,2.6,6.78l-.73,9.66a2.91,2.91,0,0,1-.86,2.26,2.7,2.7,0,0,1-1.62.36c-4.62,0-9.09-1.5-13.46-3l-15.5-5.29c-4.15-1.41-8.37-2.87-11.89-5.47" style="fill:#2752a0"/><path d="M98.73,185.9a30.79,30.79,0,0,1-4.83,11.82,2.8,2.8,0,0,0-.64,1.49c0,.8.69,1.4,1.34,1.86,6.57,4.62,15.06,5.37,23.09,5.33a150.34,150.34,0,0,0,33.74-4l-11.79-22.59" style="fill:#2752a0"/><path d="M90.35,196A594.66,594.66,0,0,0,92,333.82,56.37,56.37,0,0,1,108.18,335c6.31-31.2,3.63-63.89,11.87-94.64q14.8,38.11,31.85,75.3c1.18,2.57,2.41,5.2,4.45,7.15,5.37,5.14,14,3.87,21.22,2.26L151.32,197.92" style="fill:#2752a0"/><path d="M97.42,327.37a17.32,17.32,0,0,0-12.6,11.07c-.51,1.46-.78,3.17.06,4.47,1,1.5,3,1.82,4.82,1.72a17.9,17.9,0,0,0,16-13.79" style="fill:#2752a0"/><path d="M163.3,324.73c-.25-1.62-2.91-1.56-3.75-.17s-.43,3.18,0,4.75c.52,1.86,1.09,3.81,2.49,5.14,1.95,1.84,5,2,7.09,3.68,1.18.95,2,2.32,3.2,3.2,2.56,1.84,6.1,1,9.11.11,1.58-.5,3.39-1.23,3.83-2.82s-.67-3.12-1.72-4.37L171.62,320" style="fill:#2752a0"/><path d="M33.35,84c-1.09,3.54-2.19,7.15-2.22,10.85s1.15,7.6,3.95,10c1.18,1,2.73,1.93,2.93,3.47.28,2.09-2,3.49-4,4.14a39.66,39.66,0,0,1-8.69,1.76L18,42.65a35.4,35.4,0,0,0,7.35.08c4.43-.42,8.74-1.66,13.1-2.56s8.9-1.45,13.24-.48,8.49,3.72,10.18,7.83.28,9.56-3.7,11.57c-1.29.66-2.75.93-4.07,1.55-3.66,1.74-5.55,5.84-6.46,9.79s-1.16,8.1-2.9,11.75c-3.65,7.7-14.24,11.13-21.71,7" style="fill:#2752a0"/><path d="M133.13,189.39c-6.91,23.86-7.39,49-7.83,73.88q-.57,33-1.16,65.92c-.07,4-.08,8.29,2,11.74s7.07,5.46,10.26,3a1198.68,1198.68,0,0,1,22.9-135.87" style="fill:#aa5735"/><path d="M129.71,177.72a225,225,0,0,0-9.24,67.49,12.82,12.82,0,0,0,1,5.83c1.56,3,5,4.26,8.22,5.31l17.61,5.82c3.6,1.19,7.92,2.27,10.91-.08a9.37,9.37,0,0,0,2.93-5.58c1.14-5.36.42-11,1.85-16.32s6.36-10.45,11.7-9.17a89.51,89.51,0,0,0,2.77,21.12c.32,1.22.76,2.58,1.89,3.14a4.62,4.62,0,0,0,3.19-.08l21.21-5.77a365.91,365.91,0,0,0-7.11-61.28" style="fill:#2752a0"/><path d="M214.7,69.55c13.09.41,25.49-4.16,37.44-9,11.26-4.56,21.22-13.74,26.6.33-8,8.69-16.3,17.62-27.12,22.32-11.83,5.14-25.65,4.76-37,10.9-4,2.19-7.92,5.24-12.51,5.45A32.11,32.11,0,0,1,205.5,91" style="fill:#aa5735"/><path d="M130.39,189.13Q127.26,161,125,132.73c-.72-9.06-1.37-18.26.37-27.18,4.94-25.3,31.35-44.4,56.92-41.18,6.44.81,12.93,3,17.57,7.51,6.75,6.58,10.38,18.37,7,27.12-4.66,12.19-8.31,20.47-8.23,34.26a521.54,521.54,0,0,0,3.19,54.6c.26,2.35.53,4.79-.2,7-1.3,4-5.41,6.41-9.37,7.94-22.11,8.53-46.3.07-62.51-16.19" style="fill:#ee5d44"/><path d="M188,66.78a130.74,130.74,0,0,1,28.6-3.72c4-.08,8.67.34,11,3.6a13.21,13.21,0,0,1,1.86,5.65l2.45,14.5a9.72,9.72,0,0,1,.15,3.52c-.73,3.62-5,5.07-8.56,6A136.4,136.4,0,0,0,204.38,103c-4.74,2.07-9.69,4.73-11.92,9.39" style="fill:#ee5d44"/><path d="M156.63,100.19a174.19,174.19,0,0,0,20.89,23.53,21.24,21.24,0,0,1,4.42,5.05,15.49,15.49,0,0,1,1.5,8.16,28.52,28.52,0,0,1-8.32,19.18,23.29,23.29,0,0,1-19.63,6.4c-.84-.14-1.84-.49-2-1.33s.74-1.56,1.52-2A56.64,56.64,0,0,0,167.69,149c3.18-3.45,6.08-7.77,5.62-12.44a19.14,19.14,0,0,0-1.94-6q-6-13.25-12.57-26.18" style="fill:#eb252e"/><path d="M158.05,48a7.34,7.34,0,0,1-3-14.09,12.45,12.45,0,0,1-4.77-11.32,12.49,12.49,0,0,1,7.46-9.77,8.48,8.48,0,0,0,3.16-1.66,8.75,8.75,0,0,0,1.41-2.67C165.14,2,174.24-.65,180.09,3.24a13.17,13.17,0,0,1,21.51,6.89,11.22,11.22,0,0,1,11.09,5.45,11.2,11.2,0,0,1-1.08,12.3,10,10,0,0,1-2,18.22c1.91,5.21-2.74,11.62-8.29,11.43a8.82,8.82,0,0,1-17.64-.2" style="fill:#2b2c35"/><path d="M187.73,62c4.68-9.61,14.35-25.82,4.77-35.2-5.3-5.2-14-6.06-20.74-2.93-10.33,4.78-13.69,15.89-16.26,26.05-1,3.85-1.62,7.89-.83,11.78a16,16,0,0,0,12.77,12.5C175.67,75.45,184.32,69,187.73,62Z" style="fill:#aa5735"/><path d="M168,33.37c-5.26-.36-9.41-6.21-8-11.3s8-8,12.66-5.6A9.74,9.74,0,0,1,192,15.33,9.46,9.46,0,0,1,203.23,19a9.44,9.44,0,0,1-1.78,11.66c2.61.41,3.62,3.7,3.34,6.32a14.73,14.73,0,0,1-8.72,11.78c2.36,3.81-1.43,9.63-5.87,9a14.06,14.06,0,0,0-.7-16.28A19.86,19.86,0,0,1,168.41,30.7" style="fill:#2b2c35"/><path d="M158.09,59.63a41.24,41.24,0,0,0,3.12,20.11,8.09,8.09,0,0,0,1.92,3c1.59,1.42,3.93,1.54,6.06,1.44a44.4,44.4,0,0,0,12.07-2.32,3.68,3.68,0,0,0,2.13-1.4,3.82,3.82,0,0,0,.17-2.46l-3-19.85" style="fill:#aa5735"/><path d="M166.39,76a17.8,17.8,0,0,0-7.08,1.74c-2.13,1.22-3.78,3.63-3.33,6,.57,3,3.82,4.51,6.74,5.24A37.65,37.65,0,0,0,179,89.5c3-.57,6-1.57,8.1-3.7s3.13-5.63,1.65-8.26c-2.44-4.34-9-3.53-13.16-6.3" style="fill:#aa5735"/><path d="M150.34,81c1.08,11.38,12.51,14.71,22.39,13,7.92-1.35,22.25-7.69,19.61-17.85-1.13-4.36-7.88-2.51-6.75,1.86s-10.2,8.3-13.15,8.94c-5.15,1.11-14.44,1-15.1-6-.42-4.45-7.42-4.49-7,0Z" style="fill:#ee5d44"/><path d="M266.08,58.07a16,16,0,0,1,6.29-6.77,7.73,7.73,0,0,1,8.14.37,9.41,9.41,0,0,1,3.42,8.85,9.92,9.92,0,0,1-3.75,6,19.94,19.94,0,0,1-5.87,2.85c-1.55.54-3.25,1-4.72.25s-2.4-2.91-3.12-4.82" style="fill:#aa5735"/><path d="M269.86,46.41a6.23,6.23,0,0,1-1.05,4.92,4.5,4.5,0,1,0,7.77,4.54,15.43,15.43,0,0,0,2-11.85A4.55,4.55,0,0,0,273,40.87a4.6,4.6,0,0,0-3.15,5.54Z" style="fill:#aa5735"/><path d="M276.71,39.29a25.16,25.16,0,0,1-2.61,12.9l8.22,3.46-.54,1.13c4.43-3.74-2-10.07-6.37-6.36a6.35,6.35,0,0,0-1.77,2.84c-1.85,4.74,5.94,8,8.23,3.47a34.44,34.44,0,0,0,3.84-17.44c-.29-5.77-9.3-5.8-9,0Z" style="fill:#aa5735"/><path d="M284.21,40.22a17.32,17.32,0,0,1-6.9,12.72c-1.92,1.53-1.57,4.77,0,6.36,1.85,1.9,4.47,1.51,6.36,0a26,26,0,0,0,9.54-19.08c.32-5.78-8.68-5.76-9,0Z" style="fill:#aa5735"/><path d="M291,45.49a26.48,26.48,0,0,1-5.18,6.09c-.92.83-1.88,1.62-2.85,2.39a29.46,29.46,0,0,1-2.55,2.11c-5.74.42-5.79,9.42,0,9,4.15-.3,7.3-3.35,10.36-5.92a36.3,36.3,0,0,0,8-9.13c3-5-4.79-9.51-7.77-4.54Z" style="fill:#aa5735"/><path d="M274.5,64.34a8.9,8.9,0,0,0,6.39,4.35c3.09.48,6.74-1.69,9.59-.78l-2.69-2.07.36.5V61.8c.53-1.08-3.55.71-3.58.72-1.66.58-3.33,1.23-5,1.7-2.73.75-7.57,1.81-8.68-1.88-1.67-5.53-10.36-3.17-8.68,2.39,1.92,6.38,7.9,9.64,14.38,9.17,3.94-.28,7.61-1.72,11.29-3,2.86-1,6.61-1.57,8.07-4.55a4.5,4.5,0,0,0,0-4.54A6.56,6.56,0,0,0,291,58.86c-1-.14-8.55,1.23-8.74.94-3.21-4.79-11-.29-7.77,4.54Z" style="fill:#aa5735"/><path d="M60.88,218.54c-.35,11.4,5.91,21.83,11.95,31.51,9.46,15.14,20.08,29.9,26.86,46.36a242,242,0,0,1,15.13,52.34l11.42-.7c4.24-.26-4.9-60.42-6.14-65.86-5-21.72-12.84-42.85-19.73-64" style="fill:#222525"/><path d="M62.15,219.62c10.46,24.14,14.8,50.59,15.46,76.89s-2.25,52.56-5.79,78.62a78.19,78.19,0,0,0,18.66.31,5.18,5.18,0,0,0,2.94-.95,5.31,5.31,0,0,0,1.39-3.09q15.18-72.24,25.8-145.34c.86-5.88,1.49-12.55-2.29-17.14" style="fill:#17254c"/><path d="M110.39,178.28c-.58-9.76-6.32-25.84-6.32-25.84L121,167q-.06-18.78-.11-37.58c0-5.65-.16-11.71-3.43-16.32-2.35-3.31-6-5.42-9.81-6.91C97,102,85.1,102.16,74,104.55c-10.13,2.17-17.8,8.27-28.55,7.47-4.44-.33-9-1.47-13.25,0-6.62,2.26-9.72,10.3-8.86,17.24C24.49,138.65,31,140.55,38.44,144a35.8,35.8,0,0,0,17.25,3.15l.17,61.29c0,3.93.07,8,2,11.49,4.2,7.64,14.74,8.28,23.45,7.94l29.16-1.13C110.52,218.25,110.88,186.7,110.39,178.28Z" style="fill:#f8a231"/><path d="M104.07,152.44s5.74,16.08,6.32,25.84c.49,8.42.13,40,0,48.42l.4,0c2.47-.09,5.1-.25,7.08-1.73,3-2.27,3.28-6.64,3.27-10.43q-.06-23.73-.14-47.48Z" style="fill:#f17730"/><path d="M74.52,93.49c1.79,2.8,3.67,6,3,9.26-.57,2.66-2.71,4.65-4.27,6.88-2,2.84-3.08,6.62-1.71,9.8s4.74,5,8.11,5.46a16,16,0,0,0,18.26-17.34,33.25,33.25,0,0,0-1.35-6L89.72,78.44" style="fill:#f6a4a7"/><path d="M52.59,53.71a47.65,47.65,0,0,1-2.38,19.18c-1.51,4.42-3.69,8.75-3.78,13.42S49.3,96.19,54,96.53c3.23.23,6.2-1.88,9.43-2,2.33-.12,4.66.8,6.95.38" style="fill:#040505"/><rect x="39.89" y="163.91" width="4.85" height="171.74" transform="translate(-47.56 12.92) rotate(-11.16)" style="fill:#9495ac"/><path d="M27.44,171A49,49,0,0,1,46,160.78c2.47-.72,5.87-.83,6.83,1.56.42,1,.18,2.25.56,3.31,1,2.83,5.07,2.57,7.93,1.65a116.84,116.84,0,0,0,24.35-11.09,117.63,117.63,0,0,0,11.84,26.25A72.47,72.47,0,0,1,58.66,201c-3.37.49-7.78.1-8.8-3.14-.36-1.14-.18-2.42-.68-3.5-1.33-2.83-5.54-1.92-8.35-.58-3.13,1.49-3.71.43-6.84,1.92" style="fill:#fff"/><path d="M57.16,174.66c-4.86-4.32-8.8,2.2-8.8,7.06a8.79,8.79,0,0,0,5.4,8.12,2.07,2.07,0,0,0,.64.14c.91.09,1.65.05,1.65-.86A3.15,3.15,0,0,0,55,187h0c-2-1.67-3.38-3-3.38-5.26,0-3,2.46-6.46,5.5-3.76s5.5,3.73,5.5,6.77c0,2.28-1.39,5.37-3.38,5.36h0c-.59,0-1,.22-1,.91,0,.91.74,2.34,1.65,2.44a1.23,1.23,0,0,0,.64-.14A10.84,10.84,0,0,0,66,184c0-4.86-3.94-5.06-8.8-9.38" style="fill:#1ca84f"/><path d="M53.86,181.72c0-1.82,1.48-3.18,3.3-1.56s3.3,3.2,3.3,5-1.48,3.2-3.3,1.58-3.3-3.22-3.3-5" style="fill:#1ca84f"/><rect x="186.51" y="99.84" width="4.85" height="171.74" transform="translate(-32.38 40.09) rotate(-11.16)" style="fill:#9495ac"/><path d="M174.05,107a49,49,0,0,1,18.57-10.26c2.48-.72,5.88-.83,6.84,1.56.42,1,.18,2.24.56,3.3,1,2.84,5.07,2.58,7.93,1.65A116.76,116.76,0,0,0,232.3,92.14a117.36,117.36,0,0,0,11.84,26.24A72.55,72.55,0,0,1,205.27,137c-3.36.48-7.77.1-8.79-3.14-.36-1.14-.18-2.43-.69-3.51-1.32-2.82-5.53-1.92-8.34-.58-3.13,1.49-3.71.44-6.84,1.93" style="fill:#fff"/><path d="M203.78,110.58c-4.86-4.32-8.8,2.21-8.8,7.07a8.8,8.8,0,0,0,5.4,8.12,2.88,2.88,0,0,0,.64.14c.91.09,1.65,0,1.65-.87a3.14,3.14,0,0,0-1-2.14h0c-2-1.67-3.37-3-3.37-5.25,0-3,2.46-6.47,5.5-3.77s5.5,3.73,5.5,6.77c0,2.29-1.39,5.38-3.38,5.37h0c-.59,0-1,.22-1,.9,0,.92.74,2.35,1.65,2.44a1.14,1.14,0,0,0,.64-.14,10.83,10.83,0,0,0,5.4-9.25c0-4.87-3.94-5.07-8.8-9.39" style="fill:#1ca84f"/><path d="M200.48,117.65c0-1.83,1.47-3.19,3.3-1.57s3.3,3.21,3.3,5-1.48,3.2-3.3,1.58-3.3-3.22-3.3-5" style="fill:#1ca84f"/><path d="M328.19,207.48l-.17.66H323.7l.38.57.39-3-.44.53,4.18,1.1-.46-1.46L325.34,209l-.38-.08-.64-2.43-.12.8,3.67-1.49-.82-.61.65,2.43-.49.77h-2.53l.35.26c2.48,1.86,4.6-1.91,3-3.92-2.47-3.18-6.08-4.45-9.79-5.67-5.23-1.71-10.41-3.06-15.95-2.94l2.41,1.83c.07.27,5.3.53,5.1.49a19.77,19.77,0,0,1,5.11,1.84A50.11,50.11,0,0,1,324.2,207c2.44,2.07,6-1.45,3.54-3.53-5.38-4.57-11.13-9.33-18.41-10.16-4-.46-10.75.38-9.42,5.94a2.54,2.54,0,0,0,2.41,1.84c6.46-.13,17.92,1.64,22.2,7.14l3-3.92-.34-.26a2.52,2.52,0,0,0-2.53,0c-3,1.39-1.92,4.93.67,6,1.29.55,3.41.29,3.67-1.49.39-2.65-.8-4.64-3.68-4.62a2.52,2.52,0,0,0-2.41,3.17l.46,1.46c.51,1.66,2.91,2.62,4.18,1.11l.44-.53a2.58,2.58,0,0,0,.39-3l-.38-.58c-.94-1.39-3.5-1.84-4.32,0a3.92,3.92,0,0,0-.33,3.2c.94,3.07,5.77,1.76,4.82-1.33Z" style="fill:#2b2c35"/><path d="M146.47,273.81c2.52-3.43,7.2-4.78,11.41-4.16s8,2.94,11.25,5.66c13.7,11.42,19.66,31.32,14.5,48.39a24,24,0,0,1-5.85,10.52c-7.59,7.34-21,5.23-28.51-2.19s-10.19-18.46-10.86-29a56.57,56.57,0,0,1,1-16.48,39.7,39.7,0,0,1,5.84-13.36" style="fill:#2b2c35"/><path d="M301.5,330.06c9.73.24,18.78,6.23,24.08,14.39s7.16,18.2,6.69,27.92c-.43,9-2.93,18.23-8.89,25s-15.84,10.5-24.34,7.52a27.38,27.38,0,0,1-10.54-7.42c-13.61-14.44-17.28-37.38-8.86-55.35,2.66-5.69,6.87-11.19,12.92-12.88a14.18,14.18,0,0,1,9.66.77" style="fill:#2b2c35"/><path d="M291.83,344.6c9.53,10.12,11.35,25.39,9.57,39.17-.59,4.61-2.34,10.06-6.86,11.11-4.28,1-8.19-2.71-10.46-6.47-6.13-10.17-7-22.69-6-34.52.3-3.39.9-7.08,3.42-9.38s7.54-1.82,8.37,1.48" style="fill:#4a4a5c"/><path d="M154,279.49c9.53,10.11,11.35,25.39,9.57,39.17-.6,4.6-2.34,10-6.86,11.1-4.28,1-8.19-2.71-10.46-6.47-6.13-10.17-7-22.68-6-34.51.3-3.4.9-7.09,3.42-9.38s7.54-1.83,8.37,1.48" style="fill:#4a4a5c"/><path d="M327.4,184.59a243.11,243.11,0,0,1-28.46,3.54c-9.58.62-9.65,15.62,0,15a274.11,274.11,0,0,0,32.44-4.08c9.48-1.76,5.47-16.22-4-14.46Z" style="fill:#4a4a5c"/><path d="M294.68,315.32c-14.27.63-33.09-.39-42.64-12.72-5.73-7.41-6.7-17.45-6-26.78.61-8,5.31-21.33,2.3-28.95-3.36-8.48-17.64-16.41-24.9-21.17-15.63-10.24-32.55-19.84-51.17-21.37-7.44-.61-15.94.61-20.35,6.62-3.94,5.37-3.32,12.73-2.17,19.28,8.83,50.17,42.37,97.69,90.66,113.88,12.33,4.13,25.93,6.15,38.26,2s22.79-15.66,22.44-28.66" style="fill:#4a4a5c"/><path d="M258.12,349.86c23.6,3.31,60.81-1.91,71.66-26.79,5.86-13.44,4.63-28.89,1.68-43.25-4.46-21.73-12.11-51.24-31.2-65-7.86-5.68-18.85-7.89-27.39-3.31-7.31,3.93-11.59,12.12-12.71,20.34s.46,16.57,2.38,24.64c5,21,12.34,42.08,10.88,63.65-.32,4.74-1.2,9.74-4.38,13.27-4.48,5-12,5.51-18.69,5.16-13-.68-27.27-4.19-34.79-14.88-6.53-9.27-6.36-21.51-5.93-32.84L211,255.34c.08-2.19.14-4.48-.8-6.45-1-2.19-3.14-3.64-5.14-5-17-11.46-35.81-23.41-56.29-21.87.15,29.42,1.38,61.76,21.15,83.55,6.4,7.05,14.38,12.48,22.46,17.53C212.59,335.73,234.51,346.54,258.12,349.86Z" style="fill:#f17730"/><path d="M210.58,263.87l20.53.86c6.16.25,13,.3,17.65-3.57s5.63-10.61,3.9-16.24-5.73-10.33-9.9-14.62a148.87,148.87,0,0,0-54.06-35.2c-13.47-5.06-30.42-7.6-41,1.87-2.87,2.57-5.06,6-5.35,9.78-.69,9.15,9.27,15.38,18.09,18.85,9.66,3.8,19.69,6.91,28.73,12s17.19,12.4,20.49,21.94a8.82,8.82,0,0,0,2,3.86c1.1,1,3.16,1.15,3.94-.1" style="fill:#2b2c35"/><path d="M197.63,318.44s10.15-56.14-32.75-75.08c-21.31-8.88-30.92-4.08-31.78,9.68s-.86,32.7-.86,32.7S151.17,318.44,197.63,318.44Z" style="fill:#e86b2d"/><path d="M185.1,310.57c1.37-7.41,2.75-14.93,2.07-22.44-1-11.45-6.92-22.22-15.42-30S152.3,245.63,141,243.69a4.31,4.31,0,0,0-2.17,0,4.18,4.18,0,0,0-1.91,1.7c-5.77,8.32-4.42,19.39-4.74,29.51-.1,3.19-.38,6.43.4,9.53,1.3,5.14,5.37,9.13,9.7,12.19,12.77,9,28.67,12.14,44.11,14.49" style="fill:#f17730"/><path d="M129.91,204.94c4.19-3.61,10.63-4.63,15.91-6.05a14.12,14.12,0,0,0-3.46,7.56c-1.8.5-3.6,1-5.32,1.71-1.29.5-2.92,1.17-3.68,2.4-1.19,1.91.48,4.13,1.69,5.61a71.66,71.66,0,0,0,8.45,8.53c2.38,2.08,6.65,5.26,9.73,2.54s7.63,1.8,4.53,4.53c-4.26,3.76-10,3.49-14.74.58-5.13-3.18-10.11-8.34-13.7-13.16C126,214.69,125.36,208.85,129.91,204.94Z" style="fill:#9495ac"/><path d="M155.05,227.77a2.82,2.82,0,0,1-1.93,1.13,1.51,1.51,0,0,0-1.05,1.84,1.53,1.53,0,0,0,1.84,1,5.57,5.57,0,0,0,3.26-1.9,1.54,1.54,0,0,0,0-2.12,1.52,1.52,0,0,0-2.12,0Z" style="fill:#dee7eb"/><path d="M150.35,232.39a1.5,1.5,0,0,0,0-3,1.5,1.5,0,0,0,0,3Z" style="fill:#dee7eb"/><path d="M141.08,201.2a63.22,63.22,0,0,0-7.54,2.81c-1.77.78-.24,3.37,1.51,2.59a57,57,0,0,1,6.83-2.51c1.84-.56,1.06-3.45-.8-2.89Z" style="fill:#dee7eb"/><path d="M152.47,245.4c-7-3.82-16.41-5.64-19.38,3.91-1.53,4.91-1.2,10.6-1.5,15.68-.36,6.12-1.34,12.63-.7,18.75,1,9.64,10.93,14.12,18.61,18A132.25,132.25,0,0,0,182,312.88c3.14.64,4.48-4.17,1.33-4.82a130,130,0,0,1-23.23-7c-6.85-2.81-15.16-6.17-20.72-11.23-6.14-5.58-3.24-17.38-2.8-24.85.25-4.22.06-8.91,1-13,1.52-6.71,7.79-4.74,12.36-2.23,2.82,1.55,5.35-2.76,2.52-4.32Z" style="fill:#f8a231"/><path d="M139.18,263v4.72a2.58,2.58,0,0,0,1.84,2.41,2.8,2.8,0,0,0,2.89-.8,2.88,2.88,0,0,0,.36-3.36,2.52,2.52,0,0,0-3.42-.9,2.56,2.56,0,0,0-.89,3.42l.07.16-.25-1.92-.05.17.64-1.1-.12.14,1.1-.65-.16.07h1.33l-.17-.05,1.83,2.41V263c0-3.21-5-3.22-5,0Z" style="fill:#f8a231"/><path d="M280.37,208.58c-12.59,2.75-20.11,14.9-21.36,27.1-.85,8.35.8,16.7,2.82,24.76,2.3,9.21,4.88,18.35,7.34,27.52,4.31,16.1,9.34,37-8.28,47.16-7.83,4.51-17,3.79-25.26.94-7.95-2.73-19.33-7.8-24.09-15-1.76-2.68-6.09-.17-4.32,2.53,4.51,6.85,12.64,10.93,19.88,14.35s15.13,6,23.19,5.44a30.45,30.45,0,0,0,28.14-27.84c.83-8.8-1.43-17.57-3.67-26-2.61-9.83-5.36-19.63-7.88-29.48-4-15.81-6.39-42,14.82-46.63,3.14-.69,1.81-5.51-1.33-4.82Z" style="fill:#f8a231"/><path d="M328.7,335.81a253.23,253.23,0,0,0-28.67-93l-10.23,2.93a4.58,4.58,0,0,0-2.6,1.42c-.78,1.08-.48,2.58-.13,3.87,8.29,31.18,17.5,62.57,18,94.83l23.4-9.53" style="fill:#f8a231"/><path d="M320.53,322.67c-10.85-2.88-23.39,1.81-29.33,11.33-4,6.35-5,14.11-5,21.6a6.72,6.72,0,0,0,.61,3.36,6,6,0,0,0,2.26,2c5.17,3,11.36,3.75,17.36,3.94,7.15.23,14.48-.22,21.08-3A55.58,55.58,0,0,0,338,356.37a5,5,0,0,0,1.59-1.55,5.09,5.09,0,0,0,.45-2.51,37,37,0,0,0-4-17.56A24.71,24.71,0,0,0,320.53,322.67Z" style="fill:#f8a231"/><path d="M301.36,323.51a80.75,80.75,0,0,0-4.64,40.16,43,43,0,0,1-16.69-5c-4.13-2.24-8.29-6-8-10.65.32-5,5.43-8.15,8.17-12.37" style="fill:#f17730"/><path d="M298,220.89c1.35,1.52,3.58-.73,4.26-2.65,3.28-9.4,4.34-20.89-2.19-28.42a23.41,23.41,0,0,0-12.18-6.91c-8.06-2-18.34.08-21.44,7.79a17.92,17.92,0,0,0-1.08,6.26c-.23,9.54,3.61,19.55,11.49,24.92s19.92,4.71,25.88-2.73" style="fill:#f17730"/><path d="M295.28,225.74c9.07-5.11,13.26-16.39,11.85-26.45-1.32-9.46-10.53-18.38-20.43-14-17.38,7.72-10.49,50.09,9.6,39.75,2.86-1.48.34-5.79-2.52-4.32-12.67,6.52-18.84-30.72-2.32-31.58,9.18-.48,11.77,10.73,10.62,17.74-1,6-3.93,11.49-9.33,14.52-2.8,1.58-.28,5.9,2.53,4.32Z" style="fill:#f8a231"/><path d="M299.93,189c-4.81-2.74-9.77-5.41-15.19-6.51s-11.46-.42-15.79,3c-6.94,5.51-7.2,16.75-2.19,24.06S280.64,220.68,289.4,222c-7.15-2.61-9.4-11.65-9.2-19.26.14-5.3,1.33-11.22,5.75-14.16,4.23-2.81,10-1.82,14.57.38" style="fill:#f8a231"/><path d="M289.7,190c4.77.34,7.17,5.9,7.9,10.63.59,3.84.73,8-1.16,11.4s-6.42,5.57-9.84,3.7c-2.17-1.19-3.35-3.63-4-6a21.07,21.07,0,0,1,5.69-19.95" style="fill:#fff7e6"/><path d="M265.74,194.39l-31.39,4.37c-4,.56-6.23,5.69-5.23,9.23,1.2,4.32,5.18,5.8,9.22,5.23l31.39-4.37c4-.56,6.23-5.69,5.24-9.23-1.21-4.31-5.19-5.8-9.23-5.23Z" style="fill:#4a4a5c"/><path d="M247.48,221.42a3.88,3.88,0,0,0-1.17-3,2.52,2.52,0,0,0-3.92.51c-1.24,2-.22,4,1.86,4.71a2.51,2.51,0,0,0,3.07-1.75,6.89,6.89,0,0,0,0-2.86c-.26-1.45-1.85-1.93-3.08-1.75a3.49,3.49,0,0,0-2.3,5.43,2.55,2.55,0,0,0,3.93.5c2.12-1.74,2.39-5.53-1-6a2.69,2.69,0,0,0-2.83,1.15l-.25.34,4.57,1.93c1.33-3.52,5.44-5.65,8.43-7.6a36,36,0,0,1,10.57-5,2.57,2.57,0,0,0,1.84-2.41c.19-6-7.76-4.41-11.12-2.9-6.48,2.92-10.57,8.95-14.34,14.71-1.76,2.7,2.57,5.21,4.32,2.52a53.52,53.52,0,0,1,6.49-8.63,19.28,19.28,0,0,1,4.25-3.38c.62-.35,5.38-1.67,5.4-2.32l1.83-2.41c-5.18,1.36-9.67,4.05-14.06,7.06-3.61,2.47-6.84,4.82-8.44,9-1.08,2.86,3,4,4.57,1.92l.26-.34-2.82,1.15-1.26-2.34,3.93.5-.69,1.92-3.08-1.74,0,.2,3.08-1.74-.45-.16,1.75,1.75-.18,1-3.92.51-.3-.57c0,3.21,5,3.22,5,0Z" style="fill:#2b2c35"/><path d="M297.07,338.63c-2.11,7.68-2.85,15.55-4.54,23.32a1.21,1.21,0,0,0,1.14,1.72,62,62,0,0,0,31.16-.84q-1.44-9.22-3.6-18.29a45.4,45.4,0,0,0-4-11.45c-1.07-2-2.41-3.78-3.31-5.83-1.19-2.66-1.11-5.8-1.77-8.65-.8-3.51-1.45-7.05-2.26-10.56q-2.44-10.53-5.58-20.88-3.23-10.59-7.15-20.94-1.92-5.06-4-10c-.75-1.8-2.48-8.54-4.13-9.43s-2.43,1.9-2.1,3.63l12,62.25c.8,4.15,1.6,8.35,1.3,12.57C299.91,329.8,298.29,334.19,297.07,338.63Z" style="fill:#e86b2d"/><path d="M289.55,376.24a35.26,35.26,0,0,1-3.64-23.83c.61-3.15-4.21-4.49-4.82-1.33a40.72,40.72,0,0,0,4.15,27.68c1.52,2.84,5.84.32,4.31-2.52Z" style="fill:#f17730"/><path d="M151.22,311.49a79.78,79.78,0,0,1-1.37-17.17c.08-3.22-4.92-3.22-5,0a85.74,85.74,0,0,0,1.54,18.5c.61,3.15,5.43,1.82,4.83-1.33Z" style="fill:#f17730"/><path d="M147.47,320l-20.53.86c-6.16.26-13,.31-17.65-3.57s-5.63-10.6-3.9-16.23,5.73-10.34,9.9-14.62a148.9,148.9,0,0,1,54.06-35.21c13.47-5.06,30.42-7.6,41,1.88,2.87,2.56,5.06,6,5.35,9.77.69,9.16-9.27,15.39-18.09,18.86-9.66,3.8-19.69,6.9-28.73,11.94s-17.19,12.4-20.49,22a8.78,8.78,0,0,1-2,3.85c-1.1,1-3.16,1.15-3.94-.09" style="fill:#2b2c35"/><path d="M228.14,261.1c-4.19-3.6-10.63-4.62-15.91-6.05a14.16,14.16,0,0,1,3.46,7.56c1.8.5,3.6,1,5.32,1.71,1.29.5,2.92,1.17,3.68,2.4,1.19,1.91-.48,4.13-1.69,5.61a70.92,70.92,0,0,1-8.45,8.53c-2.38,2.08-6.65,5.26-9.73,2.55s-7.63,1.79-4.53,4.52c4.26,3.77,10.05,3.49,14.74.58a53.73,53.73,0,0,0,13.7-13.16C232.07,270.85,232.69,265,228.14,261.1Z" style="fill:#9495ac"/><path d="M216.17,260.25a58.74,58.74,0,0,1,6.83,2.51c1.75.78,3.28-1.81,1.51-2.59a63.22,63.22,0,0,0-7.54-2.81c-1.85-.56-2.65,2.34-.8,2.89Z" style="fill:#dee7eb"/><path d="M92,257c9,0,9-14,0-14s-9,14,0,14Z" style="fill:#9e2828"/><path d="M34.68,265a3.9,3.9,0,0,0-.33-3.2c-.82-1.85-3.38-1.39-4.32,0l-.38.57a2.54,2.54,0,0,0,.39,3l.44.53c1.27,1.51,3.67.55,4.18-1.1l.46-1.47a2.53,2.53,0,0,0-2.41-3.17c-2.88,0-4.07,2-3.68,4.62.26,1.78,2.38,2,3.67,1.5,2.59-1.1,3.69-4.64.67-6a2.52,2.52,0,0,0-2.53,0l-.34.26,3,3.93c4.26-5.48,15.76-7.28,22.2-7.15a2.54,2.54,0,0,0,2.41-1.84c1.33-5.54-5.45-6.4-9.42-5.94-7.28.83-13,5.59-18.41,10.16-2.45,2.09,1.1,5.61,3.54,3.53a50.31,50.31,0,0,1,9.27-6.75,18.63,18.63,0,0,1,5.1-1.83c.65-.12,5,0,5.1-.49l2.41-1.84c-5.54-.11-10.71,1.23-15.95,3-3.71,1.21-7.32,2.48-9.79,5.66-1.55,2,.53,5.8,3,3.93l.35-.26H30.84l-.48-.77.64-2.44-.82.61,3.67,1.49-.12-.8-.64,2.43-.38.08L30.3,262l-.46,1.47L34,262.37l-.44-.52.39,3,.38-.57H30l-.17-.65c-.95,3.08,3.87,4.4,4.82,1.33Z" style="fill:#2b2c35"/><path d="M211.58,330c-2.52-3.43-7.2-4.78-11.41-4.15s-8,2.94-11.25,5.66c-13.7,11.42-19.66,31.31-14.5,48.38a24,24,0,0,0,5.85,10.52c7.59,7.34,21,5.23,28.51-2.19s10.19-18.46,10.86-29a56.57,56.57,0,0,0-1-16.48,39.7,39.7,0,0,0-5.84-13.36" style="fill:#2b2c35"/><path d="M56.55,386.22c-9.73.24-18.78,6.24-24.08,14.39s-7.16,18.21-6.69,27.92c.43,9,2.93,18.23,8.89,25S50.51,464,59,461.05a27.47,27.47,0,0,0,10.55-7.41c13.6-14.45,17.27-37.39,8.85-55.36-2.66-5.68-6.87-11.19-12.92-12.88a14.18,14.18,0,0,0-9.66.77" style="fill:#2b2c35"/><path d="M68.16,402.16c.83-3.31,5.85-3.78,8.37-1.48s3.12,6,3.42,9.38c1,11.83.15,24.34-6,34.51C71.7,448.33,67.79,452,63.51,451c-4.52-1.05-6.27-6.5-6.86-11.1-1.78-13.78,0-29.06,9.57-39.17" style="fill:#4a4a5c"/><path d="M204.06,335.65c-9.53,10.12-11.35,25.39-9.57,39.17.6,4.61,2.34,10.06,6.86,11.1,4.28,1,8.19-2.71,10.46-6.47,6.13-10.16,7-22.68,6-34.51-.3-3.4-.9-7.08-3.42-9.38s-7.54-1.83-8.37,1.48" style="fill:#4a4a5c"/><path d="M26.67,255.22a276.19,276.19,0,0,0,32.44,4.07c9.64.62,9.6-14.38,0-15a241,241,0,0,1-28.46-3.54c-9.43-1.75-13.48,12.7-4,14.47Z" style="fill:#4a4a5c"/><path d="M63.37,371.49c14.27.62,33.09-.4,42.64-12.73,5.73-7.4,6.7-17.45,6-26.78-.61-8-5.31-21.33-2.3-29,3.36-8.47,17.64-16.41,24.9-21.17,15.63-10.24,32.55-19.84,51.17-21.37,7.44-.61,15.94.61,20.35,6.63,3.94,5.36,3.32,12.72,2.17,19.28-8.83,50.16-42.37,97.68-90.66,113.87-12.33,4.13-25.93,6.16-38.26,2s-22.79-15.67-22.44-28.66" style="fill:#4a4a5c"/><path d="M99.93,406c-23.6,3.32-60.81-1.9-71.66-26.79-5.86-13.44-4.63-28.89-1.68-43.25,4.46-21.73,12.11-51.23,31.2-65,7.86-5.67,18.85-7.89,27.39-3.3,7.31,3.92,11.59,12.11,12.71,20.34s-.46,16.56-2.38,24.64c-5,21-12.34,42.07-10.88,63.65C85,381,85.83,386,89,389.56c4.48,5,12,5.5,18.69,5.15,13-.68,27.27-4.19,34.79-14.87,6.53-9.27,6.36-21.52,5.93-32.85l-1.35-35.49c-.08-2.19-.14-4.47.8-6.45,1-2.18,3.14-3.63,5.14-5,17-11.47,35.81-23.42,56.29-21.88-.15,29.42-1.37,61.76-21.15,83.55-6.4,7.05-14.38,12.49-22.46,17.53C145.46,391.89,123.54,402.7,99.93,406Z" style="fill:#bb232b"/><path d="M160.42,374.6s-10.15-56.14,32.75-75.08c21.31-8.87,30.92-4.08,31.78,9.69s.86,32.69.86,32.69S206.88,374.6,160.42,374.6Z" style="fill:#86191e"/><path d="M173,366.73c-1.37-7.41-2.75-14.93-2.07-22.44,1-11.45,6.92-22.22,15.42-30s19.45-12.54,30.78-14.49a4.55,4.55,0,0,1,2.17,0,4.15,4.15,0,0,1,1.91,1.71c5.78,8.31,4.42,19.38,4.74,29.5.1,3.19.38,6.44-.4,9.53-1.3,5.15-5.37,9.13-9.7,12.19-12.77,9-28.67,12.14-44.11,14.49" style="fill:#bb232b"/><path d="M200.88,286.06a5.55,5.55,0,0,0,3.26,1.89A1.54,1.54,0,0,0,206,286.9a1.5,1.5,0,0,0-1-1.84,2.84,2.84,0,0,1-1.93-1.12,1.5,1.5,0,0,0-2.12,0,1.53,1.53,0,0,0,0,2.12Z" style="fill:#dee7eb"/><path d="M207.7,288.55a1.5,1.5,0,0,0,0-3,1.5,1.5,0,0,0,0,3Z" style="fill:#dee7eb"/><path d="M208.1,305.89c4.52-2.48,10.87-4.55,12.36,2.22.93,4.17.75,8.8,1,13,.44,7.44,3.4,19.29-2.8,24.85-5.62,5.05-13.82,8.4-20.72,11.24a130,130,0,0,1-23.23,7c-3.15.65-1.82,5.47,1.33,4.82a132.23,132.23,0,0,0,31.73-10.79c7.87-3.87,18.37-8.47,19.39-18.35.64-6.11-.34-12.63-.7-18.75-.29-4.92-.09-10.22-1.34-15-2.62-10.07-12.27-8.56-19.54-4.56-2.82,1.55-.3,5.87,2.52,4.32Z" style="fill:#eb252e"/><path d="M213.87,319.17v4.71l1.83-2.41-.16,0h1.32l-.16-.06,1.1.64-.12-.14.64,1.1-.05-.17-.25,1.93.07-.16a2.57,2.57,0,0,0-.89-3.42,2.52,2.52,0,0,0-3.42.89,2.86,2.86,0,0,0,.36,3.36,2.78,2.78,0,0,0,2.89.8,2.58,2.58,0,0,0,1.84-2.41v-4.71c0-3.22-5-3.22-5,0Z" style="fill:#eb252e"/><path d="M76.35,269.57c20.78,4.54,19,30,15.05,45.71-2.55,10.17-5.42,20.26-8.11,30.39-2.24,8.44-4.5,17.2-3.67,26,1.39,14.58,12.54,26.4,27.28,27.76,8.37.78,16.57-1.83,24-5.36,7.24-3.41,15.37-7.5,19.88-14.35,1.77-2.7-2.56-5.2-4.32-2.52-4.77,7.24-16.17,12.29-24.09,15-8.28,2.86-17.42,3.57-25.26-.94-17.62-10.14-12.59-31.06-8.28-47.17,2.46-9.16,5-18.31,7.34-27.51,2-8.06,3.67-16.42,2.82-24.76-1.25-12.21-8.77-24.35-21.36-27.11-3.13-.68-4.47,4.14-1.33,4.83Z" style="fill:#eb252e"/><path d="M29.35,392A253.23,253.23,0,0,1,58,299l10.23,2.93a4.64,4.64,0,0,1,2.6,1.42c.78,1.08.48,2.58.13,3.88-8.29,31.17-17.5,62.56-18,94.82l-23.4-9.53" style="fill:#eb252e"/><path d="M37.52,378.83c10.85-2.87,23.39,1.81,29.33,11.33,4,6.35,5,14.11,5,21.6a6.72,6.72,0,0,1-.61,3.36,5.85,5.85,0,0,1-2.26,2c-5.16,3.05-11.36,3.76-17.36,3.95-7.15.22-14.48-.22-21.08-3A55,55,0,0,1,20,412.53,5,5,0,0,1,18.44,411a5.09,5.09,0,0,1-.45-2.51,36.93,36.93,0,0,1,4-17.55A24.72,24.72,0,0,1,37.52,378.83Z" style="fill:#eb252e"/><path d="M56.69,379.67a80.75,80.75,0,0,1,4.64,40.16,42.94,42.94,0,0,0,16.69-5c4.13-2.23,8.29-6,8-10.65-.32-5-5.43-8.15-8.17-12.37" style="fill:#bb232b"/><path d="M60.05,277.05c-1.35,1.52-3.58-.72-4.25-2.64C52.51,265,51.45,253.51,58,246c3.11-3.58,7.58-5.76,12.18-6.91,8.06-2,18.34.09,21.44,7.79a18,18,0,0,1,1.08,6.26c.23,9.54-3.61,19.55-11.49,24.93s-19.92,4.71-25.88-2.74" style="fill:#bb232b"/><path d="M65.3,277.59c-5.4-3-8.33-8.54-9.33-14.53-1.17-7,1.48-18.21,10.62-17.74,16.58.87,10.31,38.08-2.32,31.58-2.86-1.47-5.39,2.84-2.52,4.32,20.1,10.34,27-32,9.6-39.75-9.91-4.42-19.1,4.54-20.43,14-1.42,10.06,2.79,21.35,11.85,26.45,2.81,1.58,5.34-2.74,2.53-4.31Z" style="fill:#eb252e"/><path d="M58.12,245.14c4.81-2.74,9.77-5.42,15.19-6.52s11.46-.41,15.8,3c6.93,5.52,7.19,16.75,2.18,24.07s-13.88,11.13-22.64,12.44c7.15-2.61,9.4-11.65,9.2-19.26-.14-5.3-1.33-11.22-5.75-14.15-4.23-2.82-10-1.83-14.57.37" style="fill:#eb252e"/><path d="M68.35,246.19c-4.77.34-7.17,5.91-7.9,10.63-.59,3.85-.73,8,1.16,11.4s6.42,5.57,9.84,3.71c2.17-1.19,3.35-3.64,4-6a21.08,21.08,0,0,0-5.69-19.95" style="fill:#fff7e6"/><path d="M88.32,265l31.39,4.38c4,.56,8-1,9.23-5.24,1-3.5-1.23-8.67-5.24-9.23l-31.39-4.37c-4-.56-8,1-9.23,5.24-1,3.5,1.23,8.66,5.24,9.22Z" style="fill:#4a4a5c"/><path d="M115.57,277.58l-.3.57-3.92-.51-.18-1,1.75-1.74-.45.15,3.08,1.75,0-.21-3.08,1.75-.69-1.92,3.93-.51-1.26,2.34-2.82-1.15.26.35c1.53,2.06,5.66,1,4.57-1.93-1.6-4.19-4.84-6.57-8.44-9-4.39-3-8.87-5.69-14.06-7.06l1.83,2.41c0,.65,4.78,2,5.4,2.33a19.54,19.54,0,0,1,4.25,3.37,53.6,53.6,0,0,1,6.49,8.64c1.75,2.68,6.08.18,4.32-2.53-3.77-5.76-7.86-11.79-14.34-14.71-3.37-1.51-11.31-3.13-11.12,2.9a2.56,2.56,0,0,0,1.84,2.41,36.49,36.49,0,0,1,10.57,5c3,2,7.1,4.09,8.43,7.6l4.57-1.93-.25-.34a2.69,2.69,0,0,0-2.83-1.15c-3.34.49-3.06,4.27-.95,6a2.55,2.55,0,0,0,3.93-.51,3.5,3.5,0,0,0-2.3-5.43c-1.24-.18-2.82.29-3.08,1.75a6.94,6.94,0,0,0,0,2.87,2.51,2.51,0,0,0,3.07,1.74c2.08-.72,3.1-2.72,1.86-4.71a2.52,2.52,0,0,0-3.92-.51,3.87,3.87,0,0,0-1.17,3c0,3.21,5,3.22,5,0Z" style="fill:#2b2c35"/><path d="M61,394.79c2.11,7.69,2.85,15.55,4.54,23.32a1.59,1.59,0,0,1,0,1.1,1.58,1.58,0,0,1-1.11.62A62,62,0,0,1,33.22,419q1.44-9.21,3.6-18.29a45.4,45.4,0,0,1,4-11.45c1.07-2,2.41-3.78,3.31-5.82,1.19-2.67,1.11-5.81,1.77-8.65.81-3.51,1.45-7.06,2.26-10.57q2.45-10.53,5.58-20.88,3.23-10.59,7.15-20.94,1.92-5.06,4-10c.75-1.79,2.48-8.54,4.13-9.42s2.43,1.89,2.1,3.62l-12,62.26c-.8,4.14-1.6,8.35-1.3,12.56C58.14,386,59.76,390.35,61,394.79Z" style="fill:#86191e"/><path d="M72.81,434.93A40.76,40.76,0,0,0,77,407.24c-.61-3.15-5.43-1.82-4.82,1.33A35.25,35.25,0,0,1,68.5,432.4c-1.53,2.84,2.79,5.36,4.31,2.53Z" style="fill:#bb232b"/><path d="M211.66,369a85.69,85.69,0,0,0,1.54-18.5c-.08-3.21-5.08-3.23-5,0a79.15,79.15,0,0,1-1.37,17.17c-.6,3.14,4.22,4.49,4.83,1.33Z" style="fill:#bb232b"/><path d="M86.24,252.69a6.86,6.86,0,0,0,.28,9.74c1.44,1.28,3.57-.83,2.13-2.12a3.82,3.82,0,0,1-.29-5.5c1.34-1.4-.78-3.52-2.12-2.12Z" style="fill:#fff"/><path d="M86.18,276.85c10.81,13.63,7.18,31.54,1.46,46.47-.69,1.81,2.21,2.59,2.89.8,6.18-16.13,9.31-34.84-2.22-49.39-1.2-1.52-3.31.62-2.13,2.12Z" style="fill:#fff"/><path d="M67.11,302.53c-10.77,25.37-21.44,51-24.71,78.61-.23,1.91,2.77,1.9,3,0,3.2-27,13.75-52.26,24.3-77.1.74-1.76-1.84-3.29-2.59-1.51Z" style="fill:#fff"/><path d="M288.69,184.88a20.07,20.07,0,0,0-11.1,17.51c0,1.93,3,1.93,3,0a17.06,17.06,0,0,1,9.61-14.92c1.73-.86.21-3.45-1.51-2.59Z" style="fill:#fff"/><path d="M268.36,218.59a31,31,0,0,0-5.63,25c.37,1.89,3.26,1.09,2.89-.8A28.06,28.06,0,0,1,271,220.1c1.16-1.54-1.44-3-2.59-1.51Z" style="fill:#fff"/><path d="M289,247.73c2.76,3.92,4.06,8.79,5.57,13.29q2.58,7.69,4.72,15.52A298.43,298.43,0,0,1,306,307.29l1.45-1.9-.16,0,1.45,1.9,0-.16c.25-1.89-2.64-2.7-2.89-.8l0,.16c-.12.86.36,2,1.44,1.9l.16,0a1.53,1.53,0,0,0,1.44-1.9,297.25,297.25,0,0,0-7.16-32.59c-2.51-8.94-4.66-20-10.08-27.68-1.1-1.57-3.7-.07-2.59,1.51Z" style="fill:#fff"/><path d="M56.68,58.86c-.66,6.75-1.24,13.59-.21,20.29s3.85,13.34,9,17.78,12.8,6.25,18.93,3.36c4.77-2.25,8-7,9.6-12s1.62-10.42,1.4-15.7c-.2-4.93-.63-9.86-1.27-14.75-.06-.41.08-1,.49-.93.62.14-.21,1-.85.94" style="fill:#f6a4a7"/><path d="M90.37,83.58c-.12.2,4.33-2.09,5.84-.2-.6-7.31,5.8-12.08,7.86-19.11s2.54-21.91-5.65-25.74c-2.6-1.21-6.24-.21-7.26,2.48-9.49-8.46-30.48-5.81-38.32,4.4a13.94,13.94,0,0,0-3.11,9.73,9.2,9.2,0,0,0,6,7.84c4.29,1.3,7.29-1.95,9.78-4.8,1.54,3.38,4.74,6,8.74,5.72,3.83-.3,7.17-2.8,9.71-5.68-.29,5.56,6.25,10.24,11.42,8.16a13.81,13.81,0,0,0-.39,5c2.31-4.82,5.81-9,8.15-13.8s3.4-10.77.64-15.35c-1.9-3.18-5.38-5.18-9-6a36.85,36.85,0,0,0-11-.48c-2.31.16-5,.34-7.75.63" style="fill:#040505"/><path d="M91.24,75.62l-3,12.81c-.32,1.38-.62,2.92.12,4.12a4,4,0,0,0,4,1.46,38.2,38.2,0,0,0,4.36-1.31c4.35-1.18,9.57.16,13-2.7,3.66-3,3.09-8.66,2.18-13.3L107.6,54.19c-.61-3.11-1.7-6.77-4.74-7.64" style="fill:#040505"/><path d="M119.64,165.85l-3.74-3.22A38.26,38.26,0,0,0,119.64,165.85Z" style="fill:#f8a231"/><path d="M122.69,118.4c-2.38-3.43-5.37-7.2-9.48-7.29-15.73-.34-13.74,26-9.49,34.68a67.58,67.58,0,0,0,12.18,16.84l3.74,3.22c3.7,2.74,7.63,4.34,11.41,3.62a15.19,15.19,0,0,0,8.37-5.38,19.22,19.22,0,0,0,4.79-11.28C144.8,140.84,129.05,127.55,122.69,118.4Z" style="fill:#f8a231"/><path d="M66.9,108.57c-3.17,10.07,2.75,19.25,13.64,19,9.68-.18,18.88-5.26,22.35-14.5,2.49-6.63-8.13-9.49-10.61-2.92-1.36,3.62-5.48,5.37-9,6.09-1.49.31-4.1.87-5.45-.1-1.52-1.11-.83-3.07-.32-4.69,2.13-6.76-8.48-9.66-10.61-2.92Z" style="fill:#f17730"/><path d="M69.76,111a53,53,0,0,0-.35,23.22l9.06-10.87c.34-.4.87-.84,1.32-.57a1.17,1.17,0,0,1,.39.53L85,133.65c.35.77,1,1.68,1.81,1.43a1.81,1.81,0,0,0,.88-.83c5.3-8.22,8.36-16.35,12-25.2-2.6,5.45-9.4,7.13-15.34,8.18-3.22.58-6.64,1.13-9.67-.1A9,9,0,0,1,69.27,108" style="fill:#f17730"/><path d="M89.89,153.18a57.9,57.9,0,0,0,12.46,1c4.5-.12,4.51-7.13,0-7a49.54,49.54,0,0,1-10.6-.79c-4.4-.83-6.29,5.92-1.86,6.75Z" style="fill:#f17730"/><path d="M29.43,133.38a12.34,12.34,0,0,1-7.74-5.25,33.42,33.42,0,0,1-4.06-8.68c-3.12-8.92-5.79-18.1-6.33-27.53A18.79,18.79,0,0,1,12,84.71a7.81,7.81,0,0,1,4.87-5,2,2,0,0,1,1.1-.08c.82.21,1.2,1.13,1.46,1.94q2.36,7.31,4.72,14.59c2.52,7.81,5.32,16,11.59,21.33" style="fill:#f6a4a7"/><path d="M146.77,157.83c-3.09-4.61-10.32-4.37-14.91-1.25s-7.4,8.16-10.72,12.6c-5.9,7.88-13.71,14.1-21.67,19.89a3.3,3.3,0,0,0-1.37,1.52,3.11,3.11,0,0,0,.3,2.06,23.66,23.66,0,0,0,6.86,9.24c6.68-6.08,15-10.06,22.58-14.91s15-11.07,18-19.57a45.63,45.63,0,0,0,2-9.27c.08-.5.05-1.17-.44-1.33s-.45,1-.08.63" style="fill:#f6a4a7"/><path d="M103,190.38c-1.52-2.4-4.78-2.89-7.61-2.82s-5.89.4-8.29-1.13a5.91,5.91,0,0,0-1.83-1c-.69-.15-1.57.25-1.59,1,1.54,4.33,7.2,5.12,11.78,5.18a42.74,42.74,0,0,0-8.83,6.83,3,3,0,0,0-1.18,2.34,3.13,3.13,0,0,0,1,1.61l8.32,8.6c1.39,1.45,3.39,3,5.18,2.11,1.16-.58,1.63-2,2-3.2a42.39,42.39,0,0,1,9-15.06" style="fill:#f6a4a7"/><path d="M74.22,208A42.18,42.18,0,0,0,91,204.37c4.12-1.79.56-7.82-3.53-6.05A33.35,33.35,0,0,1,74.22,201c-4.51,0-4.52,7,0,7Z" style="fill:#f6a4a7"/><path d="M76.45,216.07A181.44,181.44,0,0,0,94,206.83c3.86-2.31.34-8.37-3.54-6A182.33,182.33,0,0,1,72.92,210c-4.09,1.88-.54,7.92,3.53,6Z" style="fill:#f6a4a7"/><path d="M83.57,220.53A97.75,97.75,0,0,0,97.82,209.9c3.35-3-1.61-8-4.95-5A87.4,87.4,0,0,1,80,214.49c-3.83,2.34-.32,8.4,3.54,6Z" style="fill:#f6a4a7"/><path d="M95,222a39.61,39.61,0,0,0,10.17-17.54c1.2-4.35-5.55-6.2-6.75-1.86A32.46,32.46,0,0,1,90,217.06c-3.18,3.2,1.77,8.15,4.95,4.95Z" style="fill:#f6a4a7"/><path d="M79.73,184.25a8.24,8.24,0,0,0,4.29,9,14.55,14.55,0,0,0,5.17,1.43c1.88.24,4.43.06,6,1.32,3.47,2.82,8.45-2.11,5-4.95a13.49,13.49,0,0,0-7.35-3c-1-.13-6.61-.22-6.28-2,.82-4.4-5.92-6.29-6.75-1.86Z" style="fill:#f6a4a7"/><path d="M34.13,136l4.36-10.68c1.3-3.19,2.47-6.12,1.4-9.54-1.34-4.29-8.1-2.46-6.75,1.86.78,2.5-1.52,6.11-2.43,8.33l-3.33,8.17c-1.7,4.17,5.07,6,6.75,1.86Z" style="fill:#f17730"/><path d="M127.61,166a16.36,16.36,0,0,1,18.45-5.49,3.52,3.52,0,0,0,4.3-4.3,37.19,37.19,0,0,0-10-15.86c-3.29-3.07-8.26,1.87-4.95,5A30,30,0,0,1,143.61,158l4.31-4.31a23.5,23.5,0,0,0-26.36,8.71c-2.68,3.63,3.4,7.12,6,3.53Z" style="fill:#f17730"/><path d="M.52,63.67a17.19,17.19,0,0,1,3.76,11c-.06,4.5,6.94,4.51,7,0A23.28,23.28,0,0,0,6.56,60.14a3.62,3.62,0,0,0-4.79-1.25c-1.48.84-2.4,3.29-1.25,4.78Z" style="fill:#f6a4a7"/><path d="M4.1,52A41.77,41.77,0,0,1,8.8,68.62c.3,4.47,7.3,4.5,7,0a50.39,50.39,0,0,0-5.66-20.18C8.06,44.45,2,48,4.1,52Z" style="fill:#f6a4a7"/><path d="M13.54,50.58a46.48,46.48,0,0,1,.37,17.67c-.76,4.4,6,6.3,6.75,1.86a55.58,55.58,0,0,0-.37-21.39c-.93-4.4-7.68-2.54-6.75,1.86Z" style="fill:#f6a4a7"/><path d="M20.06,53.71a51.49,51.49,0,0,1-1.24,18.63c-1.11,4.37,5.64,6.23,6.75,1.86a56.82,56.82,0,0,0,1.49-20.49c-.5-4.43-7.5-4.48-7,0Z" style="fill:#f6a4a7"/><path d="M16.58,93c-3.45.14-7.5.08-9.57-2a6.14,6.14,0,0,1-1.49-3.76,38.9,38.9,0,0,1,.07-10.56c.4-2.78,1.26-5.75,4.06-7.59,3.07-2,7.54-2.06,11.61-2,1.35,0,2.91.11,3.67,1a2.62,2.62,0,0,1,.49,1.87Q25.33,79,25.07,88a7.72,7.72,0,0,1-.95,4.21,4.86,4.86,0,0,1-4.6,2" style="fill:#f6a4a7"/><path d="M31.59,69.47a25.67,25.67,0,0,0-8,7c-.56.75-5.05,9.68-4.9,9.72-4.35-1.23-6.2,5.52-1.87,6.75,4.76,1.35,7.9-2.08,9.4-6.21,1.78-4.89,4.29-8.59,8.91-11.21,3.92-2.22.39-8.27-3.54-6Z" style="fill:#f6a4a7"/><path d="M149.5,84.44c10.59,15.49,33,7.29,43.55-3.68,3.13-3.24-1.81-8.2-5-5-7,7.27-24.76,16.5-32.56,5.1-2.53-3.7-8.6-.2-6,3.53Z" style="fill:#eb252e"/><path d="M155.43,149.88A24.69,24.69,0,0,1,161.57,135c1.18-1.28,2.63-2.45,4.25-2.41a7.18,7.18,0,0,1,3.21,1.23,67.16,67.16,0,0,0,43.61,8.1c1.15,5.33,1.88,12.1-2,15.27-1.65,1.35-3.76,1.64-5.78,1.89-8.55,1.05-17.17,2.12-25.74,1.33s-17.21-3.55-24.11-9.47" style="fill:#aa5735"/><path d="M208,156.61c2.23-.23,3.74,2.74,6,2.76a3.54,3.54,0,0,0,2.68-1.48,22.63,22.63,0,0,0,1.65-2.72c.87-1.47,2-2.77,2.79-4.27a6,6,0,0,0,.65-4.92,5.36,5.36,0,0,0-2.81-2.81,15.67,15.67,0,0,0-3.89-1.06c-1.3-.24-2.78-.44-3.84.38" style="fill:#aa5735"/><path d="M220.66,166A43.1,43.1,0,0,0,216,154.53c-2.92-5-10.7-.47-7.77,4.55a34.13,34.13,0,0,1,3.73,9.28c1.38,5.63,10.06,3.25,8.68-2.39Z" style="fill:#aa5735"/><path d="M227.85,164.76c-1.47-5-5.13-8.42-8.11-12.56a4.62,4.62,0,0,0-6.15-1.62c-2,1.14-3,4.18-1.62,6.16,2.39,3.32,6,6.39,7.2,10.41,1.61,5.56,10.29,3.2,8.68-2.39Z" style="fill:#aa5735"/><path d="M233.23,157A118.67,118.67,0,0,0,222,146.93c-1.9-1.51-4.5-1.86-6.36,0-1.57,1.56-1.92,4.84,0,6.36a121.5,121.5,0,0,1,11.19,10.08c4.06,4.15,10.42-2.22,6.36-6.36Z" style="fill:#aa5735"/><path d="M234.4,160.39c5.79,0,5.8-9,0-9s-5.8,9,0,9Z" style="fill:#aa5735"/><path d="M237.88,152.41a53.49,53.49,0,0,0-18.34-11.84c-5.38-2.13-7.72,6.57-2.39,8.68a42.44,42.44,0,0,1,14.36,9.53c4.12,4.08,10.48-2.28,6.37-6.37Z" style="fill:#aa5735"/><path d="M221.24,149A16.49,16.49,0,0,0,235,143.18a4.61,4.61,0,0,0,0-6.36c-1.59-1.59-4.8-1.88-6.36,0a8.14,8.14,0,0,1-7.35,3.17c-2.42-.18-4.5,2.2-4.5,4.5a4.59,4.59,0,0,0,4.5,4.5Z" style="fill:#aa5735"/><path d="M58.15,73.89a7.52,7.52,0,0,1,8.09-.41,2.36,2.36,0,0,1-1.32,1.79,5.59,5.59,0,0,1-2.26.48c-1.62.09-3.48-.15-4.43-1.47" style="fill:#fff"/><path d="M72.62,72.81a7.51,7.51,0,0,1,8.09-.41,2.34,2.34,0,0,1-1.32,1.79,5.58,5.58,0,0,1-2.25.48c-1.62.09-3.48-.15-4.43-1.47" style="fill:#fff"/><path d="M60.14,72a4.24,4.24,0,0,1,3.35-.82,2.56,2.56,0,0,0,3.07-1.75,2.51,2.51,0,0,0-1.74-3.07,9.71,9.71,0,0,0-8.22,2.1A2.5,2.5,0,1,0,60.14,72Z" style="fill:#040505"/><path d="M74,71.21a6,6,0,0,1,4.11-.38c3.13.78,4.46-4,1.33-4.82a11.57,11.57,0,0,0-8,.88A2.5,2.5,0,0,0,74,71.21Z" style="fill:#040505"/><path d="M66.1,80.46A1.74,1.74,0,0,0,66.39,83a2.44,2.44,0,0,0,3.22-.11l-.49.13a2.41,2.41,0,0,0,3.23-2.93c-.19-.61-1.15-.35-1,.27a1.42,1.42,0,0,1-2,1.69.49.49,0,0,0-.49.13,1.4,1.4,0,0,1-1.52.26c-.38-.2-1-.79-.58-1.28s-.27-1.19-.7-.71Z" style="fill:#040505"/><path d="M60,73.31a1.55,1.55,0,0,0,3.09,0,.87.87,0,0,0-.11-.55c-.28-.41-.9-.3-1.38-.15l-1.61.52.21-.15" style="fill:#040505"/><path d="M75.1,72a1.35,1.35,0,1,0,2.69.07.51.51,0,0,0-.56-.57,5.75,5.75,0,0,0-2.06.22.09.09,0,0,1-.1,0s.06-.06.05,0" style="fill:#040505"/><path d="M76.37,89.17c-.19-2-1-4.22-3.24-4.52s-3.8,1.63-4.36,3.63a1.37,1.37,0,0,0,.06,1,5.69,5.69,0,0,0,1.32,4.37,3.46,3.46,0,0,0,4.8.53C76.39,92.91,76.54,90.93,76.37,89.17Z" style="fill:#040505"/><g style="clip-path:url(#a)"><path d="M76.8,85c-.28-1-1.08-1.24-2-1.21-1.13,0-2.27.22-3.38.35A3,3,0,0,0,70,84.6h-.11A1.46,1.46,0,0,0,68.41,86a5.13,5.13,0,0,0,.74,2.8,2.73,2.73,0,0,0,2.37.81,22.65,22.65,0,0,0,3.17-.47c.91-.19,1.79-.41,2.08-1.41A5.77,5.77,0,0,0,76.8,85Z" style="fill:#fff"/></g><g style="clip-path:url(#a)"><path d="M71.74,90.49a1.89,1.89,0,0,0-.49.53.68.68,0,0,0,0,.7A1,1,0,0,0,72,92a9.64,9.64,0,0,0,4.93-.94,7.39,7.39,0,0,1-.26,2.14,2.2,2.2,0,0,1-.39.85,2.15,2.15,0,0,1-.62.45,6.57,6.57,0,0,1-3.13.75,1.58,1.58,0,0,1-.68-.12,1.83,1.83,0,0,1-.43-.35,4.54,4.54,0,0,1-1-1.28,2.62,2.62,0,0,1,.84-3c.13-.11.38-.16.41,0" style="fill:#fff"/></g><path d="M160.81,41.82A8.15,8.15,0,0,1,166,44.56c2.14,2.41,5.67-1.14,3.53-3.54a12.31,12.31,0,0,0-7.42-4,2.59,2.59,0,0,0-3.07,1.75,2.52,2.52,0,0,0,1.74,3.08Z" style="fill:#2b2c35"/><path d="M177,48.72a22.77,22.77,0,0,1,7.37,1.07c3.08,1,4.39-3.86,1.33-4.82a27.31,27.31,0,0,0-8.7-1.25c-3.22.05-3.23,5.05,0,5Z" style="fill:#2b2c35"/><path d="M159.29,44.86a4.56,4.56,0,0,1,5.84,3.4,5.11,5.11,0,0,1-6.22-2.43" style="fill:#fff"/><path d="M175.64,50.88c1.74-1.16,4.05-.62,6.05-.05.74.21,1.65.67,1.54,1.43-.08.51-.61.81-1.1,1a7.2,7.2,0,0,1-7.43-1.84" style="fill:#fff"/><path d="M161.36,45l0,0,.43,1.06v-.07l-.21.76-.13.19-.66.38h.07l-1.16-.15.07,0-.69-.89,0,.08v-.79l0,.08.38-.66-.07.07.66-.38-.09,0h.8l-.09,0,.66.38-.07-.07.39.66,0-.1v.8l-.09.17L161,47l.09-.07L159,46.44l.15.28a1.52,1.52,0,0,0,2,.54,1.54,1.54,0,0,0,.54-2.06l-.15-.28a1.51,1.51,0,0,0-2.05-.54,2,2,0,0,0-.84,1.15,1.73,1.73,0,0,0,.48,1.63,1.7,1.7,0,0,0,2.78-.78,1.63,1.63,0,0,0-2-2,1.66,1.66,0,0,0-.72,2.74A1.5,1.5,0,1,0,161.36,45Z" style="fill:#2b2c35"/><path d="M177.31,52.65l.1,0-.76.2h.11l-.75-.2.1,0-.54-.54.06.09-.2-.75v.11l.21-.76.1-.12.66-.39-.1,0,1.84,1a.8.8,0,0,1-.1.5,1.55,1.55,0,0,0-.54-2,1.52,1.52,0,0,0-2.05.54,2.53,2.53,0,0,0-.2,1.81,1.52,1.52,0,0,0,1.84,1,1.75,1.75,0,0,0,1.21-2.34,1.78,1.78,0,0,0-2.51-.82,1.5,1.5,0,1,0,1.52,2.59Z" style="fill:#2b2c35"/><path d="M164.1,58.42a5.74,5.74,0,0,0,6.07,3,1.51,1.51,0,0,0,1.05-1.85,1.54,1.54,0,0,0-1.84-1.05,2.7,2.7,0,0,1-2.69-1.57c-.88-1.72-3.46-.2-2.59,1.51Z" style="fill:#2b2c35"/><path d="M163,61.48c2.16,2.49,6,2.48,9.26,2.26a7,7,0,0,1-2.72,3.15,5.63,5.63,0,0,1-2,.75,4.61,4.61,0,0,1-5.17-5.85" style="fill:#2b2c35"/><path d="M160.93,31.21c-5.4,11.44-15.59,33.47-.32,41.95,14.83,8.22,27.66-7.19,32.53-19.51.71-1.79-2.19-2.57-2.89-.79C186,63.7,174,78.65,161,69.87c-11.8-8-1.9-27.74,2.54-37.15.82-1.73-1.76-3.26-2.59-1.51Z" style="fill:#2b2c35"/><path d="M157.33,71.55a27.58,27.58,0,0,1,.65,3.81c0,1.8-.44,1.82-1.32,3a10.5,10.5,0,0,0-1.89,4.86c-.26,1.89,2.63,2.71,2.89.8A8.32,8.32,0,0,1,159,80.24c.57-.8,1.51-1.46,1.89-2.39.81-2-.37-5.12-.7-7.1s-3.22-1.09-2.9.8Z" style="fill:#2b2c35"/><path d="M53.49,63.78c.84,5.43-.09,10.93.83,16.37a30.61,30.61,0,0,0,5.31,12.93,22.86,22.86,0,0,0,21,9.48c1.89-.22,1.92-3.22,0-3-9,1.06-17-4.09-20.88-12.11s-2-16.12-3.34-24.47c-.29-1.9-3.18-1.09-2.89.8Z" style="fill:#2b2c35"/><path d="M76.4,101.56l-2.63,13.71c-.37,1.89,2.53,2.69,2.89.8l2.64-13.72c.36-1.88-2.53-2.69-2.9-.79Z" style="fill:#2b2c35"/><path d="M76.94,106.57c-3.17-2.75-7-.83-8.19,2.94-1,3.27-.6,7.17-.71,10.55l-.45,14.26a1.52,1.52,0,0,0,2.57,1.06A62.34,62.34,0,0,0,79,123.92a1.5,1.5,0,0,0-2.59-1.52A58.61,58.61,0,0,1,68,133.26l2.56,1.06L71,122l.18-5.7.09-2.85q-.33-3.34,3.57-4.72c1.46,1.25,3.59-.86,2.12-2.12Z" style="fill:#2b2c35"/><path d="M74.69,127.2a7.46,7.46,0,0,0,7.85-.31c1.58-1.09.08-3.69-1.52-2.59a4.46,4.46,0,0,1-4.82.31c-1.69-.93-3.21,1.66-1.51,2.59Z" style="fill:#2b2c35"/><path d="M80.1,123a75,75,0,0,0,3.32,13.78,1.53,1.53,0,0,0,2.75.36,121.11,121.11,0,0,0,13.64-22.33c.81-1.74-1.77-3.26-2.59-1.52a121.11,121.11,0,0,1-13.64,22.33l2.74.36A74.92,74.92,0,0,1,83,122.22c-.27-1.91-3.16-1.1-2.89.79Z" style="fill:#2b2c35"/><path d="M89.24,153a38.5,38.5,0,0,0,14.83,2c1.92-.11,1.93-3.11,0-3a36.3,36.3,0,0,1-14-1.93c-1.83-.63-2.62,2.27-.8,2.89Z" style="fill:#2b2c35"/><path d="M22.46,132.38c-.28,6.31,4.63,9.86,10.09,11.74a74,74,0,0,0,25.59,3.52c1.93,0,1.94-3,0-3-8,.19-33.22-.13-32.68-12.26.08-1.93-2.92-1.93-3,0Z" style="fill:#2b2c35"/></svg>