<svg xmlns="http://www.w3.org/2000/svg" viewBox="0 0 967.29 797.87"><title>One</title><path d="M474.38,564.44a87,87,0,0,0-29.8-19.05c-5.45-2.07-11.35-3.61-17.09-2.59s-11.26,5.15-12.33,10.89c-1.23,6.56,3.39,12.87,3.46,19.54,0,4.08-1.64,8-1.75,12.09-.2,6.92,4.31,13.43,10.32,16.87s13.27,4.14,20.15,3.35c9.65-1.11,19.54-5.59,24.22-14.1s1.84-21.21-7.23-24.67" transform="translate(-113.37 -50.33)" style="fill:#9eb6ba"/><path d="M130.4,682.57c-20.57,19.91-17.09,56.56,2.51,77.43s50.54,27.76,79.05,25.14c15.73-1.45,31.65-5.42,47.12-2.2,19.6,4.07,34.86,18.82,51.6,29.8,24.62,16.14,53.48,24.51,82.27,30.69,17.67,3.79,36,6.83,53.7,3s34.63-15.88,39.24-33.36c6.07-23-12.51-47.56-35.61-53.18-14.48-3.52-32.35-2.33-41-14.44-4.32-6-5-13.89-8-20.66-8-17.92-29.95-24.07-49.17-28.15l-184.9-39.3" transform="translate(-113.37 -50.33)" style="fill:#9eb6ba"/><path d="M734,717.38c-13.09,2.91-25.17-10.06-21.68-20.56s16.86-17.09,30.11-19.47c15.52-2.78,31.65-1.24,47.5-.23,47.67,3,95.6,1.06,143.28-1.79,37.78-2.25,79.24-4.28,109.84,13.58,3.19,1.87,6.32,4.05,7.78,7,3.73,7.51-5,15.22-13.66,19.32-23.79,11.23-52.59,12.87-80.2,13.54A1661.78,1661.78,0,0,1,741.38,720" transform="translate(-113.37 -50.33)" style="fill:#9eb6ba"/><path d="M509.83,50.9c-50,3.56-126.44,25.47-164.64,52.71s-41.75,57.75,8.89,66,114.59-3.85,166.42-29S585.64,87,582.38,67.78,524.64,49.72,509.83,50.9Z" transform="translate(-113.37 -50.33)" style="fill:#f2f8fb"/><path d="M1018.57,270.92c0,32.57-12.44,78.77-42.35,123.48L970,403.29A297.15,297.15,0,0,1,933.29,445c-5.93,5.33-11.85,10.66-18.36,16-2.67,2.07-5,4.14-7.7,5.92-3,2.37-6.22,4.44-9.48,6.81C843,512,766.87,538.91,664.41,538.91c-92.39,0-174.12-17.77-239.86-45.6-4.14-1.78-8-3.56-11.84-5.33-1.48-.6-3-1.48-4.44-2.08-4.74-2.37-9.78-4.44-14.22-7.1-3.55-1.78-7.1-3.85-10.66-5.63a29.17,29.17,0,0,1-4.14-2.37c-6.52-3.55-12.74-7.11-18.66-11-.3-.29-.59-.29-.89-.59-82-51.52-124.37-119.63-110.75-177.37a85.24,85.24,0,0,1,9.78-24.58c18.95-32.87,58-51.53,109.56-59.52,4.74-.59,9.48-1.48,14.21-1.78a483,483,0,0,1,51.82-2.66C617,193.34,661.45,52.68,818.39,52.68c138,0,192.18,113.41,199.29,198.7Q1018.57,261.6,1018.57,270.92Z" transform="translate(-113.37 -50.33)" style="fill:#f2f8fb"/><path d="M1017.68,251.38c-5.63.29-9.77,0-8.29-2.37,3.55-5.92,2.66-18.66-10.07-18.36-13,.29-19.54,16.28-19.54,16.28-.89-8.29-16.29-13.32-16.29-13.32.3-2.67-4.15-7.4-8.88-5.92s-6.22,10.95-6.22,10.95-5-3.85-10.66-4.44c-5.63-.29-36.43,16-31.69,5.33s8-28.43,11-40.27,3-9.77,6.22-14.21,3.55-14.51,1.77-15.7-4.14-7.11-5.92-8.88-5.33-3.26-4.44-.59c1.18,2.66-1.18,16.58-2.07,16.28s-2.67-3.25-4.74-4.44-3.26-.3-2.67.59c.89.89.6,4.44,2.67,6.52a8,8,0,0,1,2.37,4.74c-.59,19-18.66,57.15-21.62,53.3-3-3.56-33.76-10.37-33.76-10.37s-16.88-4.74-22.8-5.33-4.14-16-2.66-24.87A15.12,15.12,0,0,0,814,178.53c-10.36.3-15.1,9.77-15.1,9.77s-4.44-12.73-11-14.21a6.71,6.71,0,0,0-8.59,4.44s-8.58,0-12.14,3.85-1.77,9.77-1.48,14.21-8,8-7.7,6.52-10.07-11.55-12.73-12.44c-3-.89-4.15-2.07-.59-6.81s.29-13.62-8.89-18.06-10.95.59-10.95.59-7.11-2.66-14.51,4.15c-7.11,6.81-3,21.91-3,21.91-11.55,0-11.85,13-11.85,13s-15.69-5-20.73,1.18,4.74,18.66,0,27.25-21,8.88-21,8.88,3.55-8.88,8.88-33.46,4.15-49.16,5.92-53A57.59,57.59,0,0,0,672.11,140c0-3.56-4.44-8.59-8.59-10.37s-7.4,1.19-6.51,6.22-.3,12.14-1.48,11.55c-1.19-.3-2.67-2.07-4.45-3s-4.14,0-2.66,1.48c1.48,1.77,2.07,4.14,4.44,5.92s3.85,6.22,3.85,6.22c.59,30.5-19.84,81.14-24,83.21-4.14,2.37-47.67-8.29-47.67-8.29s-5.63-14.81-13.62-22.8-24-8.89-31.39,3,6.81,35.24,6.81,35.24-27.54,7.1-42.94,7.1c-15.1,0-38.49-1.48-33.46-11s-5-23.4-8.88-26.65-16.88,3-24.58,8.58c-7.4,5.63,11,29.32,11,29.32l-48.86,17.77s-2.67-14.81-5.33-41.17a107.62,107.62,0,0,0-10.66-37c-.89-1.48-1.48-2.66-2.08-3.55h0c-2.07-3.56-3.85-21.62-11.25-23.69s-16,.59-13.62,2.07,6.22,11,6.81,12.14-4.44-.3-6.22,0-3.85,2.07-3,2.07,5.63,3,7.4,3.26,5.33,5.33,5.33,5.33c.6,1.19,1.48,2.67,2.37,4.44,2.08,4.44,4.74,10.07,5.92,14.81,2.37,9.47,8.59,63.37.6,61.89s-29-7.11-21.32-13.33-4.45-18.36-4.45-18.36-2.36-15.69-22.2-7.4-8.3,25.17-8.3,25.17-10.66-5-19.24-.59-5,20.43-13.33,21.32c-9.47,1.48-15.4-5.92-15.4-5.92s.6-12.44-4.73-15.11a35.48,35.48,0,0,0-8-2.66,106.16,106.16,0,0,0-9.77,24.58C235,339.62,277.38,407.73,359.41,459.25c.29.3.59.3.88.59,5.93,3.85,12.15,7.41,18.66,11,1.48.89,2.67,1.48,4.15,2.37,134.73-.59,419.3-3.26,532.12-12.44,6.52-5.33,12.44-10.66,18.36-16A296,296,0,0,0,970.3,403l6.22-8.88c29.91-44.72,42.34-90.91,42.34-123.49C1018.57,264.7,1018.27,258.19,1017.68,251.38Z" transform="translate(-113.37 -50.33)" style="fill:#dee7eb"/><path d="M933.58,445A267.28,267.28,0,0,1,907.52,467c-3,2.37-6.22,4.44-9.47,6.81-54.79,38.2-130.89,65.15-233.34,65.15-92.39,0-174.12-17.77-239.86-45.6-4.15-1.78-8-3.56-11.85-5.33-1.48-.6-3-1.48-4.44-2.08-4.74-2.37-9.77-4.44-14.21-7.1-5-2.67-10.07-5.33-14.81-8-6.51-3.55-12.73-7.11-18.65-11-.3-.29-.6-.29-.89-.59C440.84,453,594.23,442.67,736.66,440,835,438.23,896.27,441.19,933.58,445Z" transform="translate(-113.37 -50.33)" style="fill:#9eb6ba"/><path d="M907.23,467c-3,2.37-6.22,4.44-9.48,6.81-3.55-7.7-9.77-23.69-15.4-38.49A43.19,43.19,0,0,0,901,423.42C903.38,440.3,905.75,457.48,907.23,467Z" transform="translate(-113.37 -50.33)" style="fill:#f4b28e"/><path d="M976.22,394.4,970,403.29c-7.4-1.78-15.1-3.85-20.72-6.22a111.91,111.91,0,0,1-19-10.37,60,60,0,0,0,13.92-16A195,195,0,0,0,976.22,394.4Z" transform="translate(-113.37 -50.33)" style="fill:#f4b28e"/><path d="M944.24,371a70.91,70.91,0,0,1-13.92,16c-15.69-10.07-31.09-22.21-31.09-22.21l-3.85,12.44s3,23.09,5.92,46.78c-3.85,3.85-10.06,9.18-18.65,11.85-6.22-16.58-11.85-31.69-11.85-31.69L890.35,358l33.76-6.22C923.81,351.17,932.1,360.05,944.24,371Z" transform="translate(-113.37 -50.33)" style="fill:#332928"/><path d="M790.85,470.5c0,4.15-.29,6.82-.59,7.11-1.78,1.78-6.81,5-15.1,7.11-8,2.07-13,2.07-5-5,2.08-2.07,3.85-3.25,5-4.44,3.55-3,4.44-3.85,3.85-8-.3-2.67-3.26-18.07-6.22-33.17a99.65,99.65,0,0,0,16.88,3.26C790.56,449.78,790.85,462.81,790.85,470.5Z" transform="translate(-113.37 -50.33)" style="fill:#f4b28e"/><path d="M820.46,484.42c-3.55,0-18.36-3.85-19.54-6.22-.3-.29-.3-2.66-.3-5.92-.29-7.4,0-21,0-34A102.85,102.85,0,0,0,816.91,437l-5.33,32.28,5,5,1.19,1.19C821.65,478.8,824.31,484.72,820.46,484.42Z" transform="translate(-113.37 -50.33)" style="fill:#f4b28e"/><path d="M822.24,405.06l-5.33,32a102.85,102.85,0,0,1-16.29,1.19c.3-17.18.3-33.17.3-33.17Z" transform="translate(-113.37 -50.33)" style="fill:#332928"/><path d="M790.26,437.64a144.52,144.52,0,0,1-16.88-3.26c-3-16-6.22-31.39-6.22-31.39l21.92,4.74C788.78,407.43,789.67,421.65,790.26,437.64Z" transform="translate(-113.37 -50.33)" style="fill:#332928"/><path d="M732.22,404.47s7.4,59.82,7.7,63.37c.3,3.26,1.18,11.55,1.18,11.55s16,1.18,18.36-1.48-8.29-8.59-8.29-8.59l-.89-66.63Z" transform="translate(-113.37 -50.33)" style="fill:#332928"/><path d="M692,421.94s.89,45.31,0,47.68-7.7,3.25-10.66,5.62-3,4.15,5.62,4.15a39.44,39.44,0,0,0,15.4-3.26l5.63-47.08Z" transform="translate(-113.37 -50.33)" style="fill:#332928"/><path d="M654.64,455.11l-2.37,25.76-.59,5.63s-15.11,3-19.84,1.18c-3.56-1.48-2.67-6.22,4.14-8.59a25.21,25.21,0,0,1,7.4-1.48l1.78-26.95Z" transform="translate(-113.37 -50.33)" style="fill:#f4b28e"/><path d="M752.06,487.09c-10.36.89-20.14,2.37-21.91,0a69.15,69.15,0,0,1-4.15-5.63c-6.22-8.88-17.17-24.87-17.17-24.87l15.1-8.59,13.32,30.8,8.89,1.77c2.07.3,4.44.89,5.92,1.19C756.8,482.35,762.42,486.2,752.06,487.09Z" transform="translate(-113.37 -50.33)" style="fill:#f4b28e"/><path d="M895.09,270.92c-1.48-.89-4.74-2.07-11.85-4.74-5-1.77-13-8.29-17.17-11.55l.29-.29c2.67-3.85,2.08-9.77,2.08-9.77l-.3-5.63s4.44,5.92,10.07,6.51h3c0,1.48-.3,4.74.89,6.52.88,1.18,5.33,5.92,9.77,10.66C894.2,266.77,896,271.22,895.09,270.92Z" transform="translate(-113.37 -50.33)" style="fill:#d3927a"/><path d="M909,283.65a34,34,0,0,1-11-1.77c-3.56-1.48-11.26-25.17-11.26-25.17s11,8.88,20.44,9.47C908.71,270.62,910.78,278,909,283.65Z" transform="translate(-113.37 -50.33)" style="fill:#3080b2"/><path d="M636.28,312.67,570,316.23S581.2,269.44,580,254.34c-1.19-14.81-17.77-38.2-17.77-38.2l3.26-5.33s5.92-10.37,14.21-12.73c7.7,14.21,20.14,23.39,27.24,24.87,6.52,1.18,14.51-10.66,18.66-25.17a37.77,37.77,0,0,0,14.21,10.66c-1.18,12.73-3.26,23.39-4.14,31.09C634.5,252.26,636.28,312.67,636.28,312.67Z" transform="translate(-113.37 -50.33)" style="fill:#3080b2"/><path d="M506.87,204.59a230.79,230.79,0,0,1-18.65,24.87c-3,3.56-6.22,7.41-9.77,11.26a235.83,235.83,0,0,1-17.18,16.88,104.15,104.15,0,0,1-11.55-13.92c3.85-2.67,8.29-5.92,12.44-8.89a176.82,176.82,0,0,0,13.92-11.25c1.48-1.48,3-2.66,4.44-4.14,18.06-17.77,22.5-24.58,22.5-24.58Z" transform="translate(-113.37 -50.33)" style="fill:#f4b28e"/><path d="M488.22,229.46c-3,3.56-6.22,7.41-9.77,11.26a126.86,126.86,0,0,1-16.29-5.93,176.82,176.82,0,0,0,13.92-11.25Z" transform="translate(-113.37 -50.33)" style="fill:#d3927a"/><path d="M369.47,430.82s-4.14,11.85-4.44,19-3.85,1.18-4.44-1.78c-.59-3.26-.89-13.62-.89-13.62s-1.77-1.19-4.44-3.26a39,39,0,0,1,6.52-8A47.05,47.05,0,0,0,369.47,430.82Z" transform="translate(-113.37 -50.33)" style="fill:#332928"/><path d="M396.72,378.41c-2.37,14.81-5.33,28.43-5.92,42.94v3.26a60.06,60.06,0,0,1-20.44-3.85c-2.37-21.32-.89-35.83-.89-35.83s-15.39-.6-20.13,5.33c-6.52-5.93-15.7-5.63-22.8-4.15.89-9.18,9.47-14.21,15.4-15.1,2.36-.3,5-2.07,7.1-4.44C359.41,374.86,377.77,385.52,396.72,378.41Z" transform="translate(-113.37 -50.33)" style="fill:#332928"/><path d="M410.93,481.17c0,.88-1.18,2.66-2.66,4.73-4.74-2.37-9.78-4.44-14.22-7.1a39.66,39.66,0,0,0-2.66-3.26l9.77-5C407.38,478.8,410.93,480,410.93,481.17Z" transform="translate(-113.37 -50.33)" style="fill:#332928"/><path d="M422.78,264.41a95.35,95.35,0,0,1-8.59,26.35c-6.52,13.33-23.69,19.84-24.58,20.14h0s12.14,14.21,10.66,40.86A233.74,233.74,0,0,1,397,378.41c-19.24,7.4-37.6-3.55-47.67-11.84,5.92-7.41,8-22.8-11.85-42.05,0,0-20.43-3-33.16-13-6.22-4.74-11-13-14.51-20.43a33.49,33.49,0,0,0,8-5c4.15,5.92,10.07,12.44,16.88,15.7,7.41,3.55,16.88,5.33,24.88,5.92h.59a137,137,0,0,0,14.51.3l12.73-8s4.44-7.7,8.89-8c4.44,0,21.32-6.21,27.24-13s9.18-19.25,9.18-19.25Z" transform="translate(-113.37 -50.33)" style="fill:#9eb6ba"/><path d="M422.78,264.41a95.35,95.35,0,0,1-8.59,26.35c-6.52,13.62-24,19.84-24.58,20.14h0s-3.85-15.11-13.32-18.36c4.44,0,21.32-6.22,27.24-13s9.18-19.25,9.18-19.25Z" transform="translate(-113.37 -50.33)" style="fill:#5ba4db"/><path d="M369.18,284.54c-.3,3.26-2.67,2.67-2.67,2.67a39.29,39.29,0,0,1,0,6.51,33.72,33.72,0,0,1-1.18,5.33c-1.78,4.15-5.33,10.66-11,9.18-.59,0-.89-.29-1.48-.59-6.22-3.26-10.66-11.25-11.55-13.33s-3.85-6.81-3.85-6.81c4.45-2.66,5-11.55,5-11.55s.89.3,5,0c3.85-.29,3-3,5.92-3.25s9.48,8.58,9.48,8.58,0-4.44,2.37-4.44c.59,0,.89.3,1.48.6C368.29,278.92,369.18,282.17,369.18,284.54Z" transform="translate(-113.37 -50.33)" style="fill:#f4b28e"/><path d="M366.51,277.73c-.59-.29-.89-.59-1.48-.59-2.37,0-2.37,4.44-2.37,4.44s-6.51-8.88-9.47-8.59-2.07,2.67-5.92,3.26a19.07,19.07,0,0,1-5,0s-.29,8.59-5,11.55c-2.67.89-7.11.89-7.11-3.55s.89-11.26,5.33-15.7c4.44-4.74,13.92-3.85,13.92-3.85s-.3-2.37,3.85-2.66c3.85-.6,12.43,5.33,13.62,8.58C367.4,272.1,367.11,275.36,366.51,277.73Z" transform="translate(-113.37 -50.33)" style="fill:#332928"/><path d="M369.47,305.86c0,5-.88,10.66-5,12.44s-7.4-1.48-8.59-3.85a27.76,27.76,0,0,1-1.48-6.22c5.63,1.48,9.18-5,11-9.18a27.81,27.81,0,0,0,1.18-5.33C366.51,294,369.47,301.12,369.47,305.86Z" transform="translate(-113.37 -50.33)" style="fill:#d3927a"/><path d="M297.52,286a99,99,0,0,1-6.81-11.55h0a26.81,26.81,0,0,1,0-5c.29-1.48.59-5.63.89-6.22s-1.19-.29-2.08.89-.89,3-1.48,3-1.78-4.74-1.48-5.92,1.78-.59,3-1.19c1.19-.29,2.08-2.07.59-1.77-1.48,0-5-.3-5.62.89s0-3.26,0-3.85c0-.89-5.63,2.37-6.52,6.21-.88,3.56,2.67,11.26,6.22,16.88h0c.89,2.67,2.67,7.7,5,13A30.91,30.91,0,0,0,297.52,286Z" transform="translate(-113.37 -50.33)" style="fill:#f4b28e"/><path d="M853,169.65l-2.37,1.18L809.8,132a10.36,10.36,0,0,1,3.56-1.18Z" transform="translate(-113.37 -50.33)" style="fill:#332928"/><path d="M458,142.11l-51.22,28.43V165.8s26.35-14.81,49.15-27.54C458.9,140,458,142.11,458,142.11Z" transform="translate(-113.37 -50.33)" style="fill:#332928"/><path d="M502.43,209s-.89-3.26-1.48-5.33c-.89-2.07-3-10.66-.89-14.8,2.08-4.45,8.29-9.48,18.07-8.3s11,8.59,11,8.59,5.33.3,5.92,4.15.89,9.77-2.36,13.91a34.17,34.17,0,0,1-7.41,6.82Z" transform="translate(-113.37 -50.33)" style="fill:#332928"/><path d="M568.76,265.29A23.47,23.47,0,0,1,554.25,278a72.93,72.93,0,0,0-4.14-6.22l.59,45.6-54.78-1.18L497.1,241s-9.47-2.66-21.32-7.1c3.26-6.52,3.85-13.92,3.85-18.66a139.24,139.24,0,0,0,23.1,3.85,135.48,135.48,0,0,0,22.5-.3s14.81,3.85,21.62,8.59a16.71,16.71,0,0,1,2.37,2.07C553.36,233.91,562.25,250.78,568.76,265.29Z" transform="translate(-113.37 -50.33)" style="fill:#d8a339"/><path d="M526.71,208.44c0,1.78-.88,3.55-2.07,5.63h0a27.68,27.68,0,0,1-7.7,8.58,14.4,14.4,0,0,1-5.33,2.08c-2.66.59-5.62,0-7.11-3-2.36-5-3-12.73-2.07-16.28s0-11,0-11A37.65,37.65,0,0,0,512.5,199c5,1.19,11.84-2.07,11.84-2.07S527,203.7,526.71,208.44Z" transform="translate(-113.37 -50.33)" style="fill:#f4b28e"/><path d="M522.57,232.13c-3,2.07-6.52,2.37-8,1.18-.89-.59-2.07-5.33-2.66-8.29a19.7,19.7,0,0,0,5.33-2.07c2.37-1.48,5.62-5,7.7-8.59a69.78,69.78,0,0,0,.89,8.29C526.12,225.32,525.53,229.76,522.57,232.13Z" transform="translate(-113.37 -50.33)" style="fill:#d3927a"/><path d="M392.87,255.52h0S384,259.37,382.8,276a88.18,88.18,0,0,1-24.28-32c-12.14-27.24-12.74-43.53-13.62-48.56s-7.11-12.44-5.33-17.47c2.07-4.74,8-5.33,8.88-4.74s1.48,2.67,1.48,3.26c0-.59-.59-4.15.59-4.74s2.08,2.67,2.37,5.33a45.8,45.8,0,0,0,1.48,7.4c.3.89,4.15-3.55,5.92-3.85s1.78,1.78.89,3.26-3.25,4.44-4.44,7.11-3,14.51,11.25,37.31C376,241.31,384.28,249.9,392.87,255.52Z" transform="translate(-113.37 -50.33)" style="fill:#f4b28e"/><path d="M475.19,278s-2.07-10.66-2.67-12.44,5.33-8,13.63-9.18,15.39,5.63,19.54,6.81c3.85,1.19,6.81.59,6.81,1.48.3.59-3.55,8-9.18,10.66s-21.62,6.22-21.62,6.22Z" transform="translate(-113.37 -50.33)" style="fill:#332928"/><path d="M464.82,366.86A77.62,77.62,0,0,1,426,381.37c-23.39,2.08-40.86-15.4-40.86-15.4s-1.19-29.9,16.29-55.07a7.07,7.07,0,0,0,1.18-4.45c-.3-2.66-5.63-3.84-5.92-9.77-.59-5.92,2.37-8.88-1.19-11.25-1.48-1.18-6.51-3.85-12.73-9.18,1.48-16.88,10.07-20.43,10.07-20.43a66.73,66.73,0,0,0,19.54,8.88l16-6.81s9.48-5.92,21-13.92A104.15,104.15,0,0,0,461,257.89l3.25,3.55s-13.92,7.11-18.06,19C442.32,291.94,451.5,345.25,464.82,366.86Z" transform="translate(-113.37 -50.33)" style="fill:#db3f2a"/><path d="M480.52,294s-5.92-6.81-15.1-6.22c-9.48.59-24,16-32,31.09l103.93,1.48s-13.91-12.43-18.06-20.73c-4.14-8-7.11-10.66-11.84-10.95s-9.78,2.37-9.78,2.37Z" transform="translate(-113.37 -50.33)" style="fill:#3c9e32"/><path d="M503.32,275.36s-2.66,18.07-6.22,22.51c-3.85,4.44-11.25,3.25-15.1-1.48h0c-3.85-4.74-3.85-12.14-3.85-12.14a8.05,8.05,0,0,1-3.85-2.08c-1.18-1.48-1.18-4.14,1.19-4.73,2.07-.6,4.44,2.07,4.44,2.07a6.58,6.58,0,0,1,3.85-5.33C493,280.4,503.32,275.36,503.32,275.36Z" transform="translate(-113.37 -50.33)" style="fill:#f4b28e"/><path d="M497.1,297.87c-1.48,5-6.81,9.47-10.66,6.22a13.77,13.77,0,0,1-4.44-7.7C485.85,301.12,493.55,302.31,497.1,297.87Z" transform="translate(-113.37 -50.33)" style="fill:#d3927a"/><path d="M475.78,233.91c-12.44-4.74-27.24-11.26-36.13-18.36-17.76-14.22-32.86-37.61-32.86-37.61l6.81-7.4s15.39,21.61,41.16,35.23a101.72,101.72,0,0,0,24.87,9.48A43.69,43.69,0,0,1,475.78,233.91Z" transform="translate(-113.37 -50.33)" style="fill:#f4b28e"/><path d="M579.72,315.93l-8.59.3H567s.29-8.29-4.45-20.73A85.53,85.53,0,0,0,554,278c8.58-2.67,12.73-8.29,14.51-12.74,1.77,4.15,3.55,8.3,4.73,11.85C579.42,292.83,579.72,315.93,579.72,315.93Z" transform="translate(-113.37 -50.33)" style="fill:#f4b28e"/><path d="M572.91,308.82c0,3.26-.59,5.63-1.78,7.41H567s.29-8.29-4.45-20.73C567,297,572.91,300.53,572.91,308.82Z" transform="translate(-113.37 -50.33)" style="fill:#d3927a"/><path d="M406.79,177.64a4.11,4.11,0,0,1-4.15-.89c-1.78-1.77-4.44-5.92-4.44-6.81s3.55-3.25,4.44-4.44,2.07-3.55,3.85-3.55a7.26,7.26,0,0,1,4.74,2.37c.59.89,3.25,4.14,2.37,6.22C413,172.31,408.86,176.75,406.79,177.64Z" transform="translate(-113.37 -50.33)" style="fill:#d3927a"/><path d="M416.85,174.39a32.93,32.93,0,0,1-1.18-3.85c-.59-2.67-1.19-4.74-1.48-5.63-.59-.89-3.85.3-4.74.89s-2.37,3.85-2.66,5c0,.89,1.48.59,2.66,0a5.11,5.11,0,0,1,2.37-.59Z" transform="translate(-113.37 -50.33)" style="fill:#f4b28e"/><path d="M594.82,208.14l-2.07-5.33a18.43,18.43,0,0,1-3,.89c-.6-.29.29-6.22,1.77-8.88s9.48-11.55,14.22-11.55,6.81,6.81,6.81,6.81,3.85-1.78,5.92,0,3.85,6.22,3.55,10.36-.59,5.93-.59,5.93l-13,6.51Z" transform="translate(-113.37 -50.33)" style="fill:#332928"/><path d="M622.06,211.4c-.88,3.55-3.55,2.67-3.55,2.67a9.38,9.38,0,0,1-.3,2.07,20.21,20.21,0,0,1-1.77,5.62c-1.78,2.67-7.11,9.18-10.07,8-1.48-.59-3.26-3-5.33-5.92a48.83,48.83,0,0,1-5.33-9.77c-.89-2.67-.89-12.44-.89-12.44s19.25-6.22,19.25-4.44,3.55,10.36,3.55,10.36,1.48-2.66,3-2.37C621.77,205.48,623,208.14,622.06,211.4Z" transform="translate(-113.37 -50.33)" style="fill:#f4b28e"/><path d="M619.4,225c-.3,3.26-3.26,15.7-10.66,13-7.4-3-7.7-13.92-7.7-13.92,1.78,3,3.85,5.33,5.33,5.93,3.26,1.18,8.29-5.33,10.07-8a17.65,17.65,0,0,0,1.77-5.63A46.81,46.81,0,0,1,619.4,225Z" transform="translate(-113.37 -50.33)" style="fill:#d3927a"/><path d="M580,139.15c-.3,1.18,2.66-.89,3.84-1.78s4.45-1.18,4.74.3c.59,1.48-2.07,1.18-3.25,2.66s-3,4.15-5.33,5.33a12.69,12.69,0,0,1-5,1.19,68.69,68.69,0,0,0-.89,38.49,50.32,50.32,0,0,0,5.33,13c-8,2.37-14.21,12.73-14.21,12.73s-6.81-18.65-6.52-36.71,7.41-31.1,8.3-33.47,2.66-8.58,4.73-13c1.78-4.14,3.56-6.21,5.63-6.51,2.37-.3,5.92-.59,6.81,0,1.19.59.3,3.26-.3,4.44s3.56-1.77,5.33-1.48c2.08.3.3,1.48-2.66,3.55C583.86,130,580.31,138,580,139.15Z" transform="translate(-113.37 -50.33)" style="fill:#f4b28e"/><path d="M639.83,208.44c-7.7-3.26-12.14-7.7-14.21-10.66a62.41,62.41,0,0,0,2.66-19.54c-.89-20.73-4.44-30.21-5.92-31.69s-5.63-1.48-6.81-2.37-3.26-2.66-4.15-3c-1.18-.3.6-2.37,2.67-1.78a23.56,23.56,0,0,0,5.92.89c1.48-.29-2.37-11.25-5.92-15.1s1.78-3.85,5.92-2.67c3.85,1.19,9.77,6.22,11.55,12.44a173.4,173.4,0,0,1,9.18,46.79C640.72,191.86,640.42,200.44,639.83,208.44Z" transform="translate(-113.37 -50.33)" style="fill:#f4b28e"/><path d="M635.09,304.68l2.37,8.59-8.88.29s-4.15-25.46-.89-31.09c1.78-3,5.63-5.33,9.18-6.81Z" transform="translate(-113.37 -50.33)" style="fill:#3c9e32"/><path d="M665.59,261.15c2.37-3.85,4.15-10.37,4.15-13.33,0-4.14-2.67-10.06-2.37-22.21V214.07a17.86,17.86,0,0,0,9.77.29c.89,5.63,1.48,11.25,2.07,17.18,1.19,11.25,2.37,28.42,3.26,43.82A215.38,215.38,0,0,0,665.59,261.15Z" transform="translate(-113.37 -50.33)" style="fill:#3c9e32"/><path d="M655.53,257.89a18.5,18.5,0,0,0-.89,2.37c-2.37,4.74-7.7,11.55-10.66,10.36-3.56-1.48-9.18-12.14-9.18-12.14l-3.56-3.55,1.78-13,13.92,1.19C646.94,242.79,656.71,253.45,655.53,257.89Z" transform="translate(-113.37 -50.33)" style="fill:#f4b28e"/><path d="M655.53,288.1c-5-.6-11.85-9.48-14.81-13.92a16.14,16.14,0,0,0,2.37-1.19,3.75,3.75,0,0,0,.89-2.37c3,1.19,8.29-5.62,10.66-10.36,0,0,3.25,3,6.22,3.85C661.74,273.59,662.34,289,655.53,288.1Z" transform="translate(-113.37 -50.33)" style="fill:#d3927a"/><path d="M684.55,310.9l-47.09,2.37-2.37-8.59L636.87,276c1.48-.59,2.67-1.18,3.85-1.77,3,4.44,9.48,13.32,14.81,13.92,6.81.88,6.21-14.51,5-24.29a3.21,3.21,0,0,0,2.37,0c.89-.29,1.48-1.48,2.37-2.66,3.25,2.66,13,10.36,17.17,13.92C683.66,294,684.55,310.9,684.55,310.9Z" transform="translate(-113.37 -50.33)" style="fill:#9eb6ba"/><path d="M677.14,214.07a15.42,15.42,0,0,1-9.77-.3c0-8.29-.59-15.1-1.48-16a15.31,15.31,0,0,0-4.44-2.07c-2.37-.89-5.33.29-6.22-.3s.3-3,1.48-3c1.18-.3,4.74-.3,3.85-2.07s-3.26-6.22-4.44-8.3-.3-4.44.29-3.84c.89.59,3,4.14,3,3-.3-1.19-.6-3.85.59-4.45s8.29-1.77,9.77,2.08C671.22,181.49,674.48,196,677.14,214.07Z" transform="translate(-113.37 -50.33)" style="fill:#f4b28e"/><path d="M718.6,220s-.89-2.37,0-3.56a6.25,6.25,0,0,1,2.37-1.77s.29-1.78-2.67-1.19c-3.25.6-1.18-5.33,4.44-8.29s12.44-1.18,14.51,2.07c2.37,3.26,3.85,5,6.52,4.74s6.51-.29,7.4,6.52-6.51,17.76-9.47,19.84c-3.26,2.07-8.59,1.48-8.59,1.48Z" transform="translate(-113.37 -50.33)" style="fill:#332928"/><path d="M759.17,302.61l-29.32,2.66c-.29-8-1.18-26.06-.89-36.42.3-13.62,4.44-19.25,5.93-21.92a25.29,25.29,0,0,0,1.18-3.55c4.74,3.85,14.81,12.73,18.95,21.91C760.65,277.44,759.17,302.61,759.17,302.61Z" transform="translate(-113.37 -50.33)" style="fill:#db3f2a"/><path d="M726.89,237.16l-10.36,3s-6.81,5.63-6.81,25.17c0,13.63,3,31.69,4.73,41.16l-12.14,1.19s-5.92-27.24-5.92-43.53,1.18-20.43,1.18-20.43a102.78,102.78,0,0,1-19.24-48.27c-1.48-13.92.88-28.13,4.14-38.79a26,26,0,0,0,15.7,1.18c-.89,8.59-.89,21,2.07,37.61,5,28.13,16.58,35.83,16.58,35.83Z" transform="translate(-113.37 -50.33)" style="fill:#db3f2a"/><path d="M729.26,268.85c-.3,10.36.59,28.13.89,36.42l-15.7,1.48c-1.77-9.47-4.73-27.54-4.73-41.16,0-19.54,6.81-25.17,6.81-25.17l10.36-3,6.51,3.85a6.32,6.32,0,0,1,1.49,1.18c.29.3.88.6,1.18.89a16.81,16.81,0,0,1-1.18,3.55C733.7,249.6,729.56,255.23,729.26,268.85Z" transform="translate(-113.37 -50.33)" style="fill:#dee7eb"/><path d="M742.29,233.31c-3,3.26-5.33,2.08-5.33,2.08a10.7,10.7,0,0,1-2.67,4.73c-.29.3-.59.3-.89.6-2.66,2.07-12.14,4.14-15.1,3-.29,0-.29-.3-.59-.3-2.07-1.78-2.07-11.84-1.78-16.29a13,13,0,0,1,2.67-7.4c.59-.89,3.55-4.14,3.55-4.14,3-1.48,3,2.37,4.15,3.25,1.48.89,5.33-.88,8.29-.29,2.66.29,5.63,4.14,5.63,5.92s-3.56,4.15-2.67,5c.89,1.19,3.26,0,3.26,0C743.18,229.46,745.25,230.35,742.29,233.31Z" transform="translate(-113.37 -50.33)" style="fill:#f4b28e"/><path d="M734.89,242.2c-1.19,3-4.45,8.88-10.07,10.06-7.7,1.49-9.18-3.55-9.18-5.92a2.14,2.14,0,0,1,1.48-1.48c.59,0,.89-.59.89-1.18,3,1.18,12.43-.89,15.1-3A11.77,11.77,0,0,0,734.89,242.2Z" transform="translate(-113.37 -50.33)" style="fill:#d3927a"/><path d="M711.49,132c-1.48,1.48-2.37,5.33-4.74,6.52s-5.33,2.66-6.51,7.4a62.93,62.93,0,0,0-2.07,12.14,25.86,25.86,0,0,1-15.7-1.19,137.34,137.34,0,0,1,6.81-18.35,50.38,50.38,0,0,1,0-12.74c.89-6.81,1.78-10.36,4.44-10.95s9.48-.6,10.07,0-.59,7.4-.59,7.4,1.78-6.22,3.55-7.11,1.78,1.19,1.19,3.85c-.3,2.67-3,11.25-3.26,13.33,0,2.07,2.37-.6,3.55-2.37,1.49-1.78,3-2.37,4.45-2.08S713,130.56,711.49,132Z" transform="translate(-113.37 -50.33)" style="fill:#f4b28e"/><path d="M779.3,245.16c1.19,5.62,7.11,36.72,14.81,52.71L760.06,305s-.6-13.62,0-23.69,3.85-25.76,8.29-29.61C770.42,249.9,775.16,247.53,779.3,245.16Z" transform="translate(-113.37 -50.33)" style="fill:#3c9e32"/><path d="M827.27,297.57l-19.84-2.37c-.29-11.25-.88-41.16.6-60.7a13.4,13.4,0,0,0,1.48-.59s16.88-31.69,21.91-39.39q2.67-4,6.22-8.88a65.09,65.09,0,0,1,9.47,5.33c-6.51,11.55-17.17,32.57-21.61,50C819.28,265.29,827.27,297.57,827.27,297.57Z" transform="translate(-113.37 -50.33)" style="fill:#3c9e32"/><path d="M803.19,224.91a21.44,21.44,0,0,1-2.66,6.51c-1.48,2.67-3.55,4.45-5.63,4.45-2.37,0-5.62-2.08-8.29-3.85-1.48-1.19-3-2.37-3.85-3-.59-6.81-.89-13.32-.29-14.51.88-2.66,9.77-6.81,9.77-6.81a21.13,21.13,0,0,1,2.37-6.21s5.62,2.66,7.7,17.17A21.16,21.16,0,0,1,803.19,224.91Z" transform="translate(-113.37 -50.33)" style="fill:#f4b28e"/><path d="M807.43,295.2l-13.32,3c-7.7-16-13.62-47.38-14.81-52.71,1.19-.59,2.37-1.48,3.56-2.07,1.77,3.26,7.1,13.33,13.32,16.88,0,0,6.81-6.51,9.18-24.58a17.16,17.16,0,0,0,3-.89C806.55,254,807.14,283.65,807.43,295.2Z" transform="translate(-113.37 -50.33)" style="fill:#d8a339"/><path d="M805.36,235.77c-2.37,18.35-9.18,24.57-9.18,24.57-5.92-3.55-11.55-13.32-13.32-16.88a15.57,15.57,0,0,0,3.85-3.25c1.48-3.56,0-8.29,0-8.29,2.66,2.07,5.92,3.85,8.29,3.85,2.07,0,4.14-1.78,5.62-4.45,0,2.08,0,4.15,1.19,4.45C802.7,236.36,803.88,236.06,805.36,235.77Z" transform="translate(-113.37 -50.33)" style="fill:#d3927a"/><path d="M888,242.2c-.3.89-2.67,2.66-6.52,3h-3c-5.62-.3-10.06-6.52-10.06-6.52s-.89,1.19-2.37-.29a3.22,3.22,0,0,1-1.19-1.48c-2.37-3.26-3.55-8,0-7.11s3.56,1.48,4.74,1.78c.89.29-1.78-8-2.07-11s2.07-5.92,2.07-5.92a15.53,15.53,0,0,0,9.18,3.26s6.22,6.81,6.22,8.29-1.48,3.85-1.48,3.85S888.28,241,888,242.2Z" transform="translate(-113.37 -50.33)" style="fill:#f4b28e"/><path d="M885,216.14c-1.19,1.78-6.52,1.78-6.52,1.78a15.53,15.53,0,0,1-9.18-3.26s-2.37,3-2.07,5.92,3,11.25,2.07,11-1.18-.6-4.73-1.78c-3.56-.89-2.37,3.85,0,7.11.59.59.88,1.18,1.18,1.48s.59.59.89.59H867a1.27,1.27,0,0,0,.89-.3l.3,5.63c-4.44,1.18-10.07-4.15-9.77-7.11a8.44,8.44,0,0,0-1.48-5.33c-13.33-1.18-8.59,7.41-6.52,20.73,1.78,13.33-13.92,18.06-13.92,18.06a93.15,93.15,0,0,0,.89-14.51c-.29-5.92-7.1-24-1.77-29.9,5-5.93,18.06.29,18.65.59-.29-.3-4.74-5.33-2.66-9.18,1.77-3.85,14.8-13.33,18.06-14.21,3-.89,6.51,6.21,6.51,6.21a9.73,9.73,0,0,1,3.85-.88C881.76,209.33,886.2,214.36,885,216.14Z" transform="translate(-113.37 -50.33)" style="fill:#332928"/><path d="M923.81,351.17a57.07,57.07,0,0,1-48.56,29.91l-34.06-74.33s-1.18-24,5.63-35.83c6.81-11.55,16.28-12.73,19.25-16.29,4.14,3.56,11.84,9.78,17.17,11.55,7.11,2.67,10.37,3.85,11.85,4.74.88.59-.89-4.15-3-8.59a90.29,90.29,0,0,1,8.59,10.37c3.26,5,1.48,8.58-.29,11.84s-5.33,5-.89,22.21S923.81,351.17,923.81,351.17Z" transform="translate(-113.37 -50.33)" style="fill:#5ba4db"/><path d="M924.4,270c-.59,10.66-8.29,13.62-15.4,13.62,1.48-5.92-.29-13-1.77-17.47H909c9.48-.59-3.25-27.24-6.22-30.79-2.66-3.56-2.66-4.74-.59-5.33,2.37-.6,3-6.52,5.63-3C911.08,230.35,925.59,251.67,924.4,270Z" transform="translate(-113.37 -50.33)" style="fill:#f4b28e"/><path d="M909.3,225.61a4.12,4.12,0,0,1-.59,2.08c-1.19,1.48-5.63,4.14-7.7,4.44-1.78.29-4.44-2.67-5-3.26a8.07,8.07,0,0,1-1.18-4.74c.3-1.48,2.66-2.07,3.85-2.66s3.85-3.26,4.74-3c.29,0,1.18.89,2.07,1.77h0a15.78,15.78,0,0,1,3,3.56A2.3,2.3,0,0,1,909.3,225.61Z" transform="translate(-113.37 -50.33)" style="fill:#d3927a"/><path d="M903.67,236a24.82,24.82,0,0,0-3.55-2.07c-2.37-1.19-4.44-2.08-5-2.67s1.18-3.55,2.07-4.44,4.44-1.48,5.33-1.48.29,1.48-.59,2.37a3.75,3.75,0,0,0-.89,2.37Z" transform="translate(-113.37 -50.33)" style="fill:#f4b28e"/><path d="M953.72,224.13l-44.42,1.78a4.35,4.35,0,0,0-.59-1.78,15.74,15.74,0,0,0-3-3.55h0l29-35.24C935.06,185.34,958.16,191.86,953.72,224.13Z" transform="translate(-113.37 -50.33)" style="fill:#3c9e32"/><path d="M431.66,479.39a25.25,25.25,0,0,1-12.14,2.07c-3-4.74-11-17.77-20.14-45.9C388.43,401.81,384.87,366,384.87,366h35.24s-5,29.62-.59,59.52C423.07,448.3,428.4,469.32,431.66,479.39Z" transform="translate(-113.37 -50.33)" style="fill:#332928"/><path d="M462.75,432.6c-3.26,27.24-8.29,41.75-10.36,47.68a82.15,82.15,0,0,1-12.44-.89,460.56,460.56,0,0,0,1.19-53c-1.19-30.2-11.85-58-11.85-58l34.65-6.81C463.64,361.53,467.19,397.36,462.75,432.6Z" transform="translate(-113.37 -50.33)" style="fill:#332928"/><path d="M401.16,470.5l-9.77,5-.3-.3s-16.88-24-20.13-48.56a39.6,39.6,0,0,1-.6-5.92,61.73,61.73,0,0,0,20.44,3.85c.29,21.61,8,42.34,8,42.34C399.68,468.43,400.57,469.32,401.16,470.5Z" transform="translate(-113.37 -50.33)" style="fill:#d3927a"/><path d="M431.36,414.83l-52.11,56.56c-6.52-3.55-12.74-7.1-18.66-10.95h0c4.15-5,57.74-75.81,57.74-75.81Z" transform="translate(-113.37 -50.33)" style="fill:#454c54"/><polygon points="362.42 381.68 362.42 426.09 382.85 426.09 384.92 375.16 362.42 381.68" style="fill:#454c54"/><path d="M510.43,421.35s9.47,56.26,10.07,58-13.63,4.74-15.11,9.47,10.37,2.37,17.18,2.37,14.21-1.18,15.4-3.85-6.22-68.7-6.22-68.7Z" transform="translate(-113.37 -50.33)" style="fill:#332928"/><path d="M496.21,476.43l-.88,9.77s7.4,3,11.84,3.55,5.92,3.56,4.44,5-28.43,1.48-28.43,1.48V476.43Z" transform="translate(-113.37 -50.33)" style="fill:#332928"/><path d="M544.18,419.87S564,487.68,565.8,489.46s12.14,3.25,17.77,2.37c5.33-.89,10.95-1.49,10.07-6.22-.89-4.44-6.81-7.41-12.14-6.22l-12.44-64.85Z" transform="translate(-113.37 -50.33)" style="fill:#332928"/><path d="M578.53,420.46s3.56,27.54,9.18,32.87c5.33,5,14.22-3.26,13.33-9.48-1.18-6.21-8-15.69-7.4-23.39C594.23,412.47,578.53,420.46,578.53,420.46Z" transform="translate(-113.37 -50.33)" style="fill:#454c54"/><path d="M616.73,416.91S615.25,432.31,615,440s2.66,14.22,6.81,13.33,2.66-9.77,5-18.06,5.92-18.36,5.92-18.36Z" transform="translate(-113.37 -50.33)" style="fill:#454c54"/><path d="M635.69,405.06s-5.33,47.38-4.15,48.27,29.32,1.48,29.32,1.48L665,407.14Z" transform="translate(-113.37 -50.33)" style="fill:#454c54"/><path d="M680.1,417.5l22.8,40s21.62-1.19,34.06-13l-22.51-32.28Z" transform="translate(-113.37 -50.33)" style="fill:#454c54"/><path d="M851,287.21s4.74-3.85,6.52-3.85,2.07,3.25,1.78,3.85-4.45,5.92-4.45,5.92Z" transform="translate(-113.37 -50.33)" style="fill:#d3927a"/><path d="M902.49,411H880.87c-7.7,0-19.84,10.67-39.68,11.85-19.54,1.18-43.23-6.22-66-8s-32.58,0-61.6,2.37-133.54,12.14-167,10.66c-33.46-1.18-135.62,13.63-135.62,13.63s-1.48-33.47-1.18-52.71c.29-19-5.93-74.92-5.93-74.92s17.48-.59,30.5-.3c4.45,0,13.33-.59,23.4-1.48,4.14-.3,8.29-.59,12.43-1.18,16.88-1.48,34.65-3,42.05-3,14.22,0,54.49.59,74.92,0s121.11-6.22,137.11-7.7,158.42-11.85,158.42-11.85,4.44,30.5,7.11,51.82C892.12,360.94,902.49,411,902.49,411Z" transform="translate(-113.37 -50.33)" style="fill:#f9f5f4"/><path d="M838.82,294s-3.55-3-3-5.33,8.29-6.52,11.25-5.92,4.15,3.84,5,3.84,4.14,7.7,2.66,9.48-3.25-1.18-3.55-.59c-.59.59.89,1.78-1.78,3S843.56,299.05,838.82,294Z" transform="translate(-113.37 -50.33)" style="fill:#f4b28e"/><path d="M769.24,293.13s0-.89,1.48-1.48,5-4.15,8.88-2.67c3.55,1.48,3.26,6.52,3.55,8.59s-1.48,4.15-5.33,4.15-7.4-.89-8-2.37A29.63,29.63,0,0,1,769.24,293.13Z" transform="translate(-113.37 -50.33)" style="fill:#f4b28e"/><path d="M742,299.94a38,38,0,0,1,4.15-6.51c2.07-2.08,4.74-4.45,6.51-3.26s3.85,0,5.92,0,3.56,1.77,4.15,3.55-1.18,4.44-1.18,6.22-1.19,3.85-2.08,4.15-1.18-3.26-1.18-4.74c0-1.19-2.67,5-4.44,5.92s-7.7-1.48-8.29-2.66C744.66,301.72,742.29,301.12,742,299.94Z" transform="translate(-113.37 -50.33)" style="fill:#f4b28e"/><path d="M624.14,309.42s-1.19-3.56-.6-6.22,3.56-3,5.33-2.67c2.08,0,3.85-1.77,6.22-1.77s5,3.55,6.22,7.1-.29,5-.59,5.63-1.48-1.19-1.78-2.37-.89-2.67-1.77-2.67.59,3-.6,4.45S625.62,313.27,624.14,309.42Z" transform="translate(-113.37 -50.33)" style="fill:#f4b28e"/><path d="M543.3,307.64s5.62-5.92,8-5.92,5,.89,8,.59,4.44-2.67,6.81-.59,4.44,6.51,3.85,9.18c-.89,2.66-9.48,7.1-12.74,7.7-3,.59-3.85-10.37-5-11Z" transform="translate(-113.37 -50.33)" style="fill:#f4b28e"/><path d="M457.42,311.78s4.15-4.73,7.4-5,4.15,1.78,5.93,1.78,5.33-1.48,6.81-.3,3.85,4.74,3.85,6.52-2.67,4.14-3.56,5-8.88,3-12.14.89-.89-5-.89-6.52-1.77-2.66-1.77-2.66Z" transform="translate(-113.37 -50.33)" style="fill:#f4b28e"/><path d="M427.81,261.15c-2.67,7.11-9.18,8-13.33,5a10.19,10.19,0,0,1-1.77-1.77,80.42,80.42,0,0,1-7.41-10.07,24.16,24.16,0,0,1,3.85-23.69l19,10.66C427.81,241,430.18,254,427.81,261.15Z" transform="translate(-113.37 -50.33)" style="fill:#f4b28e"/><path d="M408.27,236.27a82.21,82.21,0,0,0-2.67,14.81c-.3,8,0,8.29-1.48,9.18s-7.11-.89-9.77-4.74-1.78-6.51-1.78-6.51a2.27,2.27,0,0,1-1.18-2.67,8.61,8.61,0,0,1,2.37-3.25s-4.15-2.67-3.56-5.93a6.87,6.87,0,0,1,2.37-4.44,4.56,4.56,0,0,1-.89-4.14c.89-2.67,4.45-4.15,4.45-4.15s-2.08-2.67-1.78-4.15,2.66-2.07,2.66-2.07,0-3.55,2.67-5.33c2.66-1.48,4.14,0,4.14,0a6.81,6.81,0,0,1,4.45-1.78,3.28,3.28,0,0,1,3.25,2.37s4.15-2.66,7.41-2.37c3,.3,3,5.93,3,5.93s2.66-1.48,4.44.59c0,0,4.74-1.19,7.11.59s0,6.22,0,6.22a4.1,4.1,0,0,1,2.07,2.66,4.19,4.19,0,0,1-1.19,3.26s5.93,6.22,2.67,13.62-17.77,5.33-23.1-.29C409.15,238.05,408.27,236.27,408.27,236.27Z" transform="translate(-113.37 -50.33)" style="fill:#332928"/><path d="M418.33,275.07c-3.25-2.67-5-8-5.62-10.66l1.77,1.77c4.15,3,11,2.37,13.33-5C428.4,269.44,422.78,278.92,418.33,275.07Z" transform="translate(-113.37 -50.33)" style="fill:#d3927a"/><path d="M635.69,245.75a114.43,114.43,0,0,0-.89,12.44c0,5.92,2.37,10.36,2.07,11.25s-9.48.3-13.33-3c-4.14-3.55-4.14-5.92-2.66-11s7.4-13.32,10.66-13.62c0,0-.59-3,.89-4.14S641,233,649.6,234.5s11.85,13.92,12.14,21.61c0,7.41-3,13-5,14.81,0,0-2.07-16.88-6.51-21.62C650.2,249.6,639.83,250.49,635.69,245.75Z" transform="translate(-113.37 -50.33)" style="fill:#332928"/><path d="M803.81,243.65c-2.37.89-.3-7.11-.89-18.36a47.73,47.73,0,0,0-.59-6.51c-2.07-14.22-7.7-17.18-7.7-17.18a14.87,14.87,0,0,0-2.37,6.22s-8.59,4.15-9.77,6.81c-.59,1.19-.3,8,.3,14.51A124.69,124.69,0,0,0,784.86,244c1.78,4.44-11.85-4.44-13.62-8.89-1.78-4.73,2.37-23.09,8-32.57s11.85-11,18.07-6.22,14.8,20.73,15.1,29.32C813,234.77,806.48,242.47,803.81,243.65Z" transform="translate(-113.37 -50.33)" style="fill:#332928"/><path d="M852.44,183a58.82,58.82,0,0,0-5.33,8.29,44.89,44.89,0,0,0-9.47-5.33c4.74-6.21,9.47-12.14,9.47-12.14S854.81,180.9,852.44,183Z" transform="translate(-113.37 -50.33)" style="fill:#f4b28e"/><path d="M853,182.68a4.09,4.09,0,0,0,4.14-.89c1.78-1.78,4.44-5.92,4.44-6.81s-3.55-3.26-4.44-4.44-2.07-3.56-3.85-3.56a7.24,7.24,0,0,0-4.73,2.37c-.6.89-3.26,4.15-2.37,6.22C846.82,177.35,851,181.79,853,182.68Z" transform="translate(-113.37 -50.33)" style="fill:#d3927a"/><path d="M843,179.42a32.93,32.93,0,0,0,1.18-3.85c.6-2.37,1.19-4.74,1.48-5.63.6-.88,3.85.3,4.74.89,1.19.59,2.37,3.85,2.67,5,0,.88-1.48.59-2.67,0a6.74,6.74,0,0,0-2.66-.6Z" transform="translate(-113.37 -50.33)" style="fill:#f4b28e"/><path d="M813.06,130.56c-2.07.59-3.55,1.18-3.55,1.18h0a41.31,41.31,0,0,0-15.7,11.85c-7.1,8.29-20.43,11.84-24.87,11.55s-19-7.7-24.58-15.1c0,0,17.18,1.48,26.65-8.3s16.29-18.35,24.58-18.35Z" transform="translate(-113.37 -50.33)" style="fill:#3c9e32"/><path d="M540,141.81s-24,20.73-31.09,24.28-22.21-.59-29.32-8.29S461.27,142.4,458,142.4c0,0,.89-2.07-2.07-3.84,16.58-9.18,31.09-17.18,32.28-17.48,3-.88,15.1,4.45,20.73,13.63C514.87,143.59,532.34,146,540,141.81Z" transform="translate(-113.37 -50.33)" style="fill:#3c9e32"/><path d="M469.56,493.6c-1.77.89-19.84.3-22.8.3s-8.88-2.37-8-5.92c.29-.89.59-4.15,1.18-8.59a82.15,82.15,0,0,0,12.44.89c-.59,1.77-1.19,2.66-1.19,3.25-.59,1.78,6.81,2.37,11.85,3.56C467.79,488.27,471.34,492.71,469.56,493.6Z" transform="translate(-113.37 -50.33)" style="fill:#454c54"/><path d="M426.92,492.71a13.35,13.35,0,0,0-2.37.6c-4.14-1.78-8-3.56-11.84-5.33,4.14-1.78,8.59-3.26,8-4.45,0-.29-.59-.88-1.18-1.77a35.54,35.54,0,0,0,12.14-2.08,38,38,0,0,0,2.07,5.93C435.21,488.86,429.88,492.42,426.92,492.71Z" transform="translate(-113.37 -50.33)" style="fill:#454c54"/><path d="M497.1,241s-9.47-2.66-21.32-7.1c3.26-6.52,3.85-13.92,3.85-18.66a139.24,139.24,0,0,0,23.1,3.85C496.51,228.87,497.1,241,497.1,241Z" transform="translate(-113.37 -50.33)" style="fill:#d8a339"/><path d="M568.76,265.29A23.47,23.47,0,0,1,554.25,278a72.93,72.93,0,0,0-4.14-6.22s-7.11-8.29-10.37-16.29c-3-7.1.89-23.39,7.11-28.13a16.71,16.71,0,0,1,2.37,2.07C553.36,233.91,562.25,250.78,568.76,265.29Z" transform="translate(-113.37 -50.33)" style="fill:#d8a339"/><path d="M566.15,365.56h-13.3a7.43,7.43,0,0,0-3.13.78,8.16,8.16,0,0,0-2.34,1.56,7.83,7.83,0,0,0-1.57,3.13,16.22,16.22,0,0,0-.39,4.7l.39,7.43a19.92,19.92,0,0,0,.78,5.09,23.28,23.28,0,0,0,1.57,3.13,8.06,8.06,0,0,0,2.35,1.56,5,5,0,0,0,2.34.39c1.57,0,3.13-.39,4.7-.39l-.78-13.3c0-.39,0-.78.39-.78.39-.39.39-.39.78-.39l7.43-.39c.39,0,.78,0,.78.39.4.39.4.39.4.78l.78,19.56c0,.78-.39,1.18-1.18,1.57-1.56.39-3.52.78-5.47,1.17a39.63,39.63,0,0,1-7.44.78h-3.52a7.56,7.56,0,0,1-3.91-1.17,15.53,15.53,0,0,1-3.52-2,11.8,11.8,0,0,1-3.13-3.13,26.73,26.73,0,0,1-2.35-4.69c-.78-2-.78-3.91-1.17-6.65l-.39-7.44a30.65,30.65,0,0,1,1.17-9.39,15.49,15.49,0,0,1,3.91-5.86,11.12,11.12,0,0,1,5.48-3.13,17.56,17.56,0,0,1,6.26-1.18h7.43c2,.39,3.53.39,4.7.78.78,0,1.17.4,1.17.79l.78,6.26Z" transform="translate(-113.37 -50.33)" style="fill:#3c9e32"/><path d="M608.8,380c0,3.52,0,6.26-.78,8.61a14.9,14.9,0,0,1-3.52,5.87A13.31,13.31,0,0,1,599,398a23.19,23.19,0,0,1-13.3.39,11.08,11.08,0,0,1-5.48-3.13,13.91,13.91,0,0,1-3.91-5.48c-1.18-2.34-1.57-5.08-1.57-8.6l-.39-7c0-3.52,0-6.26.78-8.6a14.83,14.83,0,0,1,3.52-5.87,13.21,13.21,0,0,1,5.48-3.52,23,23,0,0,1,13.3-.39,11.08,11.08,0,0,1,5.48,3.13,14,14,0,0,1,3.91,5.47c1.18,2.35,1.57,5.09,1.57,8.61Zm-10.56-6.26c0-3.52-.79-6.26-2-7.43a5.44,5.44,0,0,0-5.48-2,6.85,6.85,0,0,0-5.47,2.74c-1.18,1.57-1.57,4.31-1.57,7.83l.39,7c0,3.52.78,6.26,2,7.43a5.44,5.44,0,0,0,5.48,2,6.85,6.85,0,0,0,5.47-2.74c1.18-1.57,1.57-4.3,1.57-7.82Z" transform="translate(-113.37 -50.33)" style="fill:#3c9e32"/><path d="M689.78,392.55a8.45,8.45,0,0,1-1.95,3.13,8.55,8.55,0,0,1-3.13,2,14.15,14.15,0,0,1-4.31.78h-3.91c-.78,0-.78-.39-.78-.78l-.39-5.87v-.39l.39-.39h2.74a1.71,1.71,0,0,0,1.17-.39c0-.4.39-.79,0-1.57l-2-32.86c0-.39,0-.39.39-.79s.39-.39.78-.39l7.82-.39c.4,0,.79,0,.79.39.39.39.39.39.39.79l1.95,32.86C690.57,389.42,690.18,391.38,689.78,392.55Z" transform="translate(-113.37 -50.33)" style="fill:#3c9e32"/><path d="M724.21,395.29c-1.17.39-2.34.39-3.91.78s-4.3.39-7.43.79a25.3,25.3,0,0,1-5.48-.4,22.15,22.15,0,0,1-4.7-1.56,15.17,15.17,0,0,1-3.52-3.52,24.43,24.43,0,0,1-1.56-6.26l-.78-19.56c0-2.74,0-4.7.78-6.65.78-1.57,1.56-3.13,3.13-3.92a13.07,13.07,0,0,1,4.69-1.95,23.19,23.19,0,0,1,5.48-.78h11.35a1,1,0,0,1,1.17,1.17l.39,5.48c0,.39,0,.78-.39.78-.39.39-.39.39-.78.39l-11.74.39a3.06,3.06,0,0,0-2.74,1.17,6.11,6.11,0,0,0-.78,3.13l.39,5.48,15.26-.78c.39,0,.78,0,.78.39.39.39.39.39.39.78l.39,5.48c0,.39,0,.78-.39.78-.39.39-.39.39-.78.39l-15.26.79.39,6.26c0,1.56.39,2.73,1.18,3.13a6.05,6.05,0,0,0,3.13.78l11.73-.39c.4,0,.79,0,.79.39.39.39.39.39.39.78l.39,5.48C725.39,394.9,725,395.29,724.21,395.29Z" transform="translate(-113.37 -50.33)" style="fill:#3c9e32"/><path d="M764.9,350.69c0,.39,0,.39-.39.78L751.6,371.82l14.87,20.34a1.36,1.36,0,0,1,.39.78.85.85,0,0,1-.79.79l-10.17.39c-.39,0-.78,0-.78-.39l-.39-.4-12.91-18.77.78,19.17c0,.39,0,.78-.39.78-.39.39-.39.39-.78.39l-7.83.39c-.39,0-.78,0-.78-.39-.39-.39-.39-.39-.39-.78l-2-41.08c0-.39,0-.39.39-.78s.39-.4.79-.4l7.82-.39c.39,0,.78,0,.78.39.39.4.39.4.39.79l.79,18.78,12.12-19.57c.4-.39.79-.78,1.18-.78l9-.39C764.51,349.91,764.9,350.3,764.9,350.69Z" transform="translate(-113.37 -50.33)" style="fill:#3c9e32"/><path d="M642.45,329.56c.78.39,1.56,0,2.34.39a33.81,33.81,0,0,1,16,6.26c.39.4.39.4.79.79a1.19,1.19,0,0,1,0,1.56c-.4.39-.79.39-1.18.78-.39,0-.39,0-.78-.39a31.64,31.64,0,0,0-13.3-5.87,35.11,35.11,0,0,0-18,1.57,41.6,41.6,0,0,0-8.22,4.3c-1.17.79-2.73.39-2.73-1.17,0-.39,0-.78.39-.78A45.28,45.28,0,0,1,635,329.56a2.37,2.37,0,0,0,1.57-.39h1.56C639.71,330,641.27,329.56,642.45,329.56Z" transform="translate(-113.37 -50.33)" style="fill:#3c9e32"/><path d="M638.53,330c-.39,0-.39.4-.78,0Z" transform="translate(-113.37 -50.33)" style="fill:#3c9e32"/><path d="M656.92,344c0,.78-.39,1.17-.78,1.17a.74.74,0,0,1-1.18,0c-3.52-2.34-7-4.3-11.34-4.69a22.83,22.83,0,0,0-12.52,1.56,44,44,0,0,0-5.87,3.13,1.1,1.1,0,0,1-2-.78c0-.39,0-.78.4-.78,3.91-2.74,8.21-5.09,13.3-5.87a24.27,24.27,0,0,1,19.17,4.69l1.17,1.18A.38.38,0,0,0,656.92,344Z" transform="translate(-113.37 -50.33)" style="fill:#3c9e32"/><path d="M651.44,349.91a.84.84,0,0,1-.78.78c-.39.39-.39,0-.78-.39-3.13-2.35-6.65-3.91-10.56-3.52a18.12,18.12,0,0,0-9,3.52c-.79.39-1.18.39-1.57-.39-.39-.39,0-.78.39-1.18,2.74-2,5.87-3.91,9.39-3.91a15.28,15.28,0,0,1,12.13,3.91C651.05,349.52,651.44,349.52,651.44,349.91Z" transform="translate(-113.37 -50.33)" style="fill:#3c9e32"/><path d="M666.7,380.82a9.69,9.69,0,0,0-7.43-.4c-.39,0-.39.4-.78,0a17.66,17.66,0,0,1-2-3.91c0-.39,0-.39.39-.39h1.57c.39,0,.39,0,.39-.39v-3.52a3,3,0,0,0-.39-2c0-.39-.4-.78-.79-.39-.39,0-.78.39-1.17.39a9.23,9.23,0,0,1-3.13.78c-.39,0-.78,0-.78-.39v-1.56a.84.84,0,0,0-.79-.78c-2,0-3.91-1.18-5.47-2.35-2-1.57-4.31-3.13-6.65-4.7,2.34-.39,3.13-.39,3.91-1.17a3.76,3.76,0,0,0,1.17-3.91,4.26,4.26,0,0,0-5.47-3.52c-2.74.78-3.92,3.13-2.74,6.65-.79,0-1.18,0-1.57.78-1.56,3.52-3.52,7.43-5.08,10.95a.73.73,0,0,0,0,1.18c.39.39.39.78.78,1.17h-.39c-2.35,0-4.7.39-7.05.39-.39,0-.78.39-1.17.79-.39.78-.78,1.17-.78,1.95a3.77,3.77,0,0,1-2,2.35c-3.13,1.17-4.69,3.52-6.26,6.26v.39a1.43,1.43,0,0,1,.79,2v.39c0,.39,0,.39-.4.39h-1.56a.84.84,0,0,0-.78.78c0,.39,0,.78.39.78h1.56c.39,0,.39,0,.39.39v1.57a9.62,9.62,0,0,0,7.44,7.82,10.17,10.17,0,0,0,10.17-3.91c1.17-1.17,1.56-2.74,2-4.69a.85.85,0,0,1,.78-.79h9.39a4.78,4.78,0,0,0,3.52-1.56c0-.39.39-.39.39-.78V382c0-.78,0-.78.78-.78h.78a2.94,2.94,0,0,0,2.74-1.57c.39-.78.79-1.17,1.18-1.95l2.34,3.52c.4.39.4.39,0,.78a9.62,9.62,0,0,0-3.13,8.21,9.39,9.39,0,0,0,11.35,8.22,9.56,9.56,0,0,0,7.43-8.22C672.57,386.29,670.22,382.38,666.7,380.82ZM619,387.47c.78-2.74,3.52-4.31,6.65-4.31.39,0,.39,0,.39.39-.39.79-.39,1.57-.78,2a.38.38,0,0,1-.39.39,4,4,0,0,0-3.13,2c0,.39-.39.39-.78.39h-1.57C618.58,388.64,618.58,388.64,619,387.47Zm12.52,3.13a6.66,6.66,0,0,1-5.87,5.47,6,6,0,0,1-6.65-4.69c-.39-1.57-.39-1.57,1.17-1.57h1.18c.39,0,0,.79.39,1.18a3.89,3.89,0,0,0,3.91,2.74,4.16,4.16,0,0,0,3.52-3.13c0-.4.39-.79.79-.4a2.3,2.3,0,0,1,1.56.4Zm-.78-2h0c-.78,0-1.57.39-2.35,0-.39-.39-.78-1.17-1.17-1.57v-.39a6.59,6.59,0,0,0,.78-1.95c0-.39.39-.39.39,0a5.62,5.62,0,0,1,2.35,3.91Zm20.34-18.39c0,.39-.39.39-.78.39A22.89,22.89,0,0,0,640.1,373h-.39l-.39-.39a2.94,2.94,0,0,1-.4-3.13c.79-1.57,1.18-2.74,2-4.3a22,22,0,0,0,6.65,3.52c1.17.39,2,.78,3.13,1.17C651.44,369.47,651.05,369.86,651.05,370.25ZM668.66,391c-.78,2.74-2.35,3.91-5.09,4.69H662.4a5.85,5.85,0,0,1-5.87-3.91q-1.75-3.52,1.17-7c.39-.39.39-.39.79,0a3,3,0,0,1,.78,1.56c.39.39,0,.39,0,.78a3.58,3.58,0,0,0,0,3.92,4.25,4.25,0,0,0,3.52,1.56,3.35,3.35,0,0,0-.39-6.65c-.39,0-.78,0-.78-.39-.4-.78-.79-1.17-1.18-2-.39-.39,0-.39.39-.39a5.31,5.31,0,0,1,5.87,1.18A6,6,0,0,1,668.66,391Z" transform="translate(-113.37 -50.33)" style="fill:#3c9e32"/><path d="M337.49,324.81s-20.43-3-33.16-13c-6.22-4.73-11-13-14.51-20.43a33.48,33.48,0,0,0,8-5c4.15,5.92,10.07,12.44,16.88,15.69,7.41,3.56,16.88,5.33,24.88,5.93h.59C334.53,314.15,337.49,324.81,337.49,324.81Z" transform="translate(-113.37 -50.33)" style="fill:#5ba4db"/><path d="M752.06,487.09c-10.36.89-20.14,2.37-21.91,0a69.15,69.15,0,0,1-4.15-5.63c1.48-.29,15.4,2.07,18.07,1.19a3.62,3.62,0,0,0,2.07-2.08c2.07.3,4.44.89,5.92,1.19C756.8,482.35,762.42,486.2,752.06,487.09Z" transform="translate(-113.37 -50.33)" style="fill:#332928"/><path d="M652,480.87l-.59,5.63s-15.1,3-19.84,1.18c-3.55-1.48-2.67-6.22,4.15-8.59-.6.59-1.19,1.48-.89,2.07.89,1.19,12.73,1.19,15.69.3C651.08,481.17,651.68,481.17,652,480.87Z" transform="translate(-113.37 -50.33)" style="fill:#332928"/><path d="M790.85,470.5c0,4.15-.29,6.82-.59,7.11-1.78,1.78-6.81,5-15.1,7.11-8,2.07-13,2.07-5-5,2.08-2.07,3.85-3.25,5-4.44a2.19,2.19,0,0,0,1.48,1.78C779.6,478.2,787.3,473.47,790.85,470.5Z" transform="translate(-113.37 -50.33)" style="fill:#332928"/><path d="M820.46,484.42c-3.55,0-18.36-3.85-19.54-6.22-.3-.29-.3-2.66-.3-5.92,3,1.78,10.07,5.33,13.63,5,2.07-.3,2.36-1.49,2.36-3l1.19,1.19C821.65,478.8,824.31,484.72,820.46,484.42Z" transform="translate(-113.37 -50.33)" style="fill:#332928"/><path d="M362.07,423.13a39,39,0,0,0-6.51,8,115.76,115.76,0,0,1-24-28.43c-4.14-6.51-5.33-12.14-4.74-16.58,7.11-1.48,16.59-1.48,22.8,4.15a5.63,5.63,0,0,0-1.18,2.66C346.67,399.44,354.37,413.35,362.07,423.13Z" transform="translate(-113.37 -50.33)" style="fill:#d3927a"/><path d="M893.77,520.4a29.17,29.17,0,0,0,4.89,13.74,24.87,24.87,0,0,0,6.77,6.83,5.74,5.74,0,0,0,3.47,1.21c1.63-.12,2.9-1.4,4-2.61l5.19-5.6a16.16,16.16,0,0,0,2.4-3.08,8.09,8.09,0,0,0-1.61-9.53,1.81,1.81,0,0,0-.9-.51c-.73-.09-1.33.69-1.37,1.43a6,6,0,0,0,.54,2.14,5.29,5.29,0,0,1-.08,4.15,3,3,0,0,1-3.58,1.51c-1.61-.68-1.93-2.76-2.36-4.46-1.35-5.43-5.82-9.43-10.06-13.07" transform="translate(-113.37 -50.33)" style="fill:#f4b28e"/><path d="M893.18,650.67c-6.21-7.09-12.71-14.48-18-21.28-7.68-9.76-15.66-28.67-18-34.88a271.43,271.43,0,0,1-11.53-41.67L818.7,517.07l-26,22.46s-6.5,36.06,28.37,73.9c3.55,3.84,10.05,11.23,15.08,16.25,14.18,13.3,26.3,24.24,36.65,33.11q19.5,4.88,39.9,8.86C906.78,665.45,900,658.35,893.18,650.67Z" transform="translate(-113.37 -50.33)" style="fill:#332928"/><path d="M793,483.67a41.56,41.56,0,0,1-30.74,2.66c-23.94-7.39-28.37-21.57-31.33-27.78s-9.16-10.35-12.41-14.48-4.43-11.53-5.32-13.6c-.59-2.07-3-6.21-5.62-11.53s-.88-6.8.89-6.8,5.62-3.84,7.69-4.13c2.36-.3,5.91,0,8,2.95,2.06,2.66,7.38,16.85,8,16.55.88-.29.88-4.13,2.06-9.75.89-5.62,5.62-5.32,5-3.84s.59,9.46.59,13.3-.89,13.3,2.66,19.21c3.25,5.91,10.94,21.28,26.6,18a20.32,20.32,0,0,0,8.87-3.84C782.64,464.16,789.14,471.26,793,483.67Z" transform="translate(-113.37 -50.33)" style="fill:#f4b28e"/><path d="M806.28,408.89s-9.45,10.94-14.48,24.54c-3.55,10-5.32,20.09-12.41,26-2.37,1.77-5.91,2.95-11.23,2.66-6.51-.3-11.83-8-14.78-9.46a6.38,6.38,0,0,0-5.62,0s-3-5.32-3.55-6.51-1.77,0-1.77,0c-3,9.46-13.3,13.31-13,15.08.29,1.48,5.91,7.09,5.91,7.09s-5,8.87-3.25,13.6,17.73,13.59,38.72,12.71c21-.59,34.87-17.14,34.87-17.14l-2.07-2.07Z" transform="translate(-113.37 -50.33)" style="fill:#844d3c"/><path d="M871,514.71a119.93,119.93,0,0,1-6.5,24.53c-10.64-1.48-17.14-7.09-24.24-10.94a27.6,27.6,0,0,0-25.41,0h0c-.6.3-15.37,9.76-22.17,10.94,0,0,4.73-37.24,4.73-57.05s0-58.22,4.73-68,16.84-16,16.84-16l.89-.29,16.26-4.44s4.13,1.48,9.16,3.85c9.16,3.84,22.46,9.45,25.12,12.71C875.15,415.1,877.81,469.19,871,514.71Z" transform="translate(-113.37 -50.33)" style="fill:#c98165"/><path d="M814.56,424.85s16.85-8.86,23.94-14.48,15.07-9.46,18.33-9.46-17.74-15.66-17.74-15.66l-10.64,1.18S811.6,395,810.72,402.09c-.59,4.14,2.95,11.24,2.95,14.78A40,40,0,0,0,814.56,424.85Z" transform="translate(-113.37 -50.33)" style="fill:#844d3c"/><path d="M838.5,396.48a24.75,24.75,0,0,1-9.46,16c-11.52,8.57-13.89,10.34-14.18,6.8a34.45,34.45,0,0,1,.29-10.94,14.9,14.9,0,0,0,.59-3.25c0-4.73-3-10.34-3-10.34l13.59-12.12L837,374.31v10.05s.3,1.77.59,4.14A61,61,0,0,1,838.5,396.48Z" transform="translate(-113.37 -50.33)" style="fill:#f4b28e"/><path d="M837.61,388.5c-3.54,5.91-8.57,14.19-13,16.85a21.62,21.62,0,0,1-9.46,2.95,14.9,14.9,0,0,0,.59-3.25c0-4.73-3-10.34-3-10.34l13.59-12.12L837,374.31v10.05S837.32,386.13,837.61,388.5Z" transform="translate(-113.37 -50.33)" style="fill:#c98165"/><path d="M794.46,354.21s0,11.23.59,16c.59,4.44,6.5,16.26,8,19.22,1.18,2.66,4.73,8.27,9.76,8.57s11.52-3.55,14.18-6.21,12.12-18.62,12.12-18.62l4.73-8.87-7.39-10.93-38.72-5.62Z" transform="translate(-113.37 -50.33)" style="fill:#f4b28e"/><path d="M829.63,329.38s-7.68-2.95-11.52-2.06-31.33,16.25-34.29,18.32-3.55,6.8.89,8.28,11.23,1.18,14.18,3.54,8.87.89,10.94,0c2.37-.88,10.94-3.54,12.71-2.95,1.77.29,3.55,5,4.73,5.91s3.55.3,4.73,1.48,2.07,5.61,2.66,5.32,2.07-5.91,3.84-6.5C840.57,359.83,829.63,329.38,829.63,329.38Z" transform="translate(-113.37 -50.33)" style="fill:#332928"/><path d="M840.27,528.6a27.54,27.54,0,0,0-25.41,0l-22.17,55a173.59,173.59,0,0,0-12.12,44.93c.89.3,1.77.89,2.66,1.18,8,3.85,4.3,28.66,12.87,32.2.89-9.16,16.69-41.65,26.44-54.66,0,0,28.37-31.63,42-68C853.87,537.76,847.37,532.15,840.27,528.6Z" transform="translate(-113.37 -50.33)" style="fill:#454c54"/><path d="M804.81,370.47s3.25-.3,3.54,0a41.86,41.86,0,0,1,3,7.68,4.56,4.56,0,0,1-3.25,4.73c-1.48.3-5-2.07-5.32-2.95,0-.89,2.66-4.73,2.66-4.73Z" transform="translate(-113.37 -50.33)" style="fill:#c98165"/><path d="M812.2,384.07s8-1.19,11.23-5a9.59,9.59,0,0,1-1.19,10C818.4,394.41,812.79,388.5,812.2,384.07Z" transform="translate(-113.37 -50.33)" style="fill:#332928"/><path d="M812.2,369.58s.29-2.36,2.06-2.95A4.18,4.18,0,0,1,819,368.7s-2.66-1.48-4.73-.89C812.49,368.7,812.2,369.58,812.2,369.58Z" transform="translate(-113.37 -50.33)" style="fill:#332928"/><path d="M797.42,371.36s0-2.37,1.47-3a2.6,2.6,0,0,1,3.26,2.07s-1.78-1.48-3.26-.89C797.42,370.47,797.42,371.36,797.42,371.36Z" transform="translate(-113.37 -50.33)" style="fill:#332928"/><path d="M804.51,484.56s13.3-7.39,19.8-7.39,5.32,2.07,7.1,7.39,9.75,8.57,14.48,9.46-.3,20.39-3,23.64-20.39.59-29,4.73a210.1,210.1,0,0,1-20.1,8.28s-3.25-18.92,0-26.9c0,0,6.21-4.14,7.68-9.16C803,489.88,800.67,486.33,804.51,484.56Z" transform="translate(-113.37 -50.33)" style="fill:#844d3c"/><path d="M822.54,447.91h-1.77s.29-12.42.29-19.21c.3-7.1,2.66-10.35,3-10.64h1.77a19.59,19.59,0,0,0-2.95,10.64C822.54,435.49,822.54,447.61,822.54,447.91Z" transform="translate(-113.37 -50.33)" style="fill:#844d3c"/><path d="M808.06,452.64l-1.48-.59S809.83,437,811,429s2.66-15.66,2.66-16l.89,3c0,1.18-.59,5.32-1.77,13.3S808.35,452.34,808.06,452.64Z" transform="translate(-113.37 -50.33)" style="fill:#844d3c"/><circle cx="693.21" cy="402.3" r="1.77" style="fill:#844d3c"/><circle cx="707.99" cy="398.17" r="1.77" style="fill:#844d3c"/><path d="M273.41,434.92s-7.28,6.48-8.36,9.88,2,17.56,2,17.56l19.75-23.54-2.58-5.89Z" transform="translate(-113.37 -50.33)" style="fill:#e24733"/><path d="M280.29,440.17s-4.72-1.67-7.82.44-3.59,6.26-3.68,8.47,1.65,6,1.65,6,4.39-4.66,6.43-7.47A29.59,29.59,0,0,0,280.29,440.17Z" transform="translate(-113.37 -50.33)" style="fill:#d9dd83"/><path d="M527.18,375.32c-.91.51-3.48-.36-4.92,0a52.76,52.76,0,0,1-1.45-5.5,50.57,50.57,0,0,0-1.59-11.64l7.73-1.88C528.73,361.93,531.17,373.05,527.18,375.32Z" transform="translate(-113.37 -50.33)" style="fill:#becfd3"/><path d="M517.39,353.33s.72-2.87,5-4.06c2.94-.82,6.56-.29,11,.62a2.16,2.16,0,0,1,.48,4.07c-6.42,3-15.3,8-13.67,12.13Z" transform="translate(-113.37 -50.33)" style="fill:#c6392e"/><path d="M507.23,378.9c-7.32-.7-13.3-5.95-13.3-13.3s6.13-11.66,13.3-13.3c7-1.58,16-3.44,16-3.44-4.77,4.5-4.33,24.16,3.08,28.14C526.27,377,519.58,380.09,507.23,378.9Z" transform="translate(-113.37 -50.33)" style="fill:#809b9e"/><path d="M511,391.33a6.65,6.65,0,0,0-2.82-5.51,10.92,10.92,0,0,0-6.06-1.92,2,2,0,0,1-1.51-.47,1.88,1.88,0,0,1-.31-1l-.73-7.37A55.3,55.3,0,0,0,522,380.51" transform="translate(-113.37 -50.33)" style="fill:#454c54"/><path d="M509,398.45a69,69,0,0,1-18.24,10.37c-1.56.6-3.26,1.21-4.2,2.59a7.75,7.75,0,0,0-1,3.55q-1.4,11.58-2.09,23.23c-.27,4.59-.45,9.3.93,13.69,2.52,8,9.71,13.55,16.5,18.53a3.18,3.18,0,0,0,2.44.88c1.28-.29,1.65-1.9,1.76-3.2q1.82-20.59,3.64-41.18" transform="translate(-113.37 -50.33)" style="fill:#454c54"/><circle cx="431.31" cy="465.88" r="38.86" style="fill:#332928"/><circle cx="431.31" cy="465.88" r="21.99" style="fill:#becfd3"/><path d="M530.49,481.31,538,511a4.32,4.32,0,0,0,5.07,3.18h0a4.33,4.33,0,0,0,3.42-4.77l-5-39.59" transform="translate(-113.37 -50.33)" style="fill:#e24733"/><path d="M529.51,457.38c3.23-1.93,6.53-3.89,10.34-4.78,7.91-1.86,16.54,1.41,22.12,6.5a37.58,37.58,0,0,1,7.76,10.41c2.1,4-.7,8.53-5.7,9.53-5.26,1-10.48,2.29-15.69,3.52l-23.45,5.56a44.63,44.63,0,0,1,1.88-28.07" transform="translate(-113.37 -50.33)" style="fill:#454c54"/><path d="M467.71,534.17c7.76-2.08,13.2-9.1,16.74-16.32,8.64-17.62,9.24-37.9,11.51-57.39a316.32,316.32,0,0,1,12-56.8c1.85-6,4-12.15,8.2-16.81a7.44,7.44,0,0,1,4.17-2.68c3.67-.54,6.3,3.5,7.3,7.08,1.36,4.85,1.65,9.93,1.88,15q1.95,41.52.2,83.1c-.4,9.51-1.11,19.53-6.42,27.43-3.51,5.21-8.76,9-14.3,12a71.2,71.2,0,0,1-49.69,6.42" transform="translate(-113.37 -50.33)" style="fill:#e24733"/><path d="M376.52,507.88v-7.45s8.41-3.1,24.88,0,17.16,7.09,41,6.47a236.3,236.3,0,0,0,46-6.26L483.7,515s-12.41,9-33.22,8.43C421.69,523.41,391.68,507.25,376.52,507.88Z" transform="translate(-113.37 -50.33)" style="fill:#332928"/><circle cx="188.59" cy="465.88" r="38.86" style="fill:#332928"/><circle cx="188.59" cy="465.88" r="21.99" style="fill:#becfd3"/><path d="M508.12,354.41s-1-15.34-14.15-23.07l-1.73.58.76,2.41s9.42,3.6,10.15,18.43Z" transform="translate(-113.37 -50.33)" style="fill:#454c54"/><path d="M511.38,354.41c-1.34-1.2-12.36-2-12.36-2a42,42,0,0,0-5,5.43c-1.18,1.88-1,4.62.48,7.46s3.76,2.74,5.2,3.85c.45.38,0,2.1,0,2.1l5.3.59s.3-1.27.68-2.39,4.48-.22,6.65-4.81S512.73,355.6,511.38,354.41Z" transform="translate(-113.37 -50.33)" style="fill:#454c54"/><polygon points="393.84 310.99 387.13 306.79 386.17 310.23 392.9 312.2 393.84 310.99" style="fill:#332928"/><circle cx="384.49" cy="309.05" r="3.89" style="fill:#332928"/><path d="M494,329.76a21.92,21.92,0,0,1-1.75,9.47c-1.1,2.43-2.43,3.57-3,3.59-1.76,0-3.31-4.73-3.42-11.47-.1-6.42.49-12.81,3.42-15.13,1.42-1.12,3.35,2,4.27,7.43A38.48,38.48,0,0,1,494,329.76Z" transform="translate(-113.37 -50.33)" style="fill:#c6392e"/><path d="M494,329.76a21.92,21.92,0,0,1-1.75,9.47c-1.1-.78-1.69-4.13-1.33-8.05.33-3.7,1.4-6.72,2.56-7.53A38.48,38.48,0,0,1,494,329.76Z" transform="translate(-113.37 -50.33)" style="fill:#454c54"/><circle cx="393.97" cy="312.21" r="1.61" style="fill:#332928"/><path d="M274.15,432.83c3.61-12.68,17-20.46,30.14-21.92s26.18,2,39.08,4.77c10.32,2.21,20.84,4,31.39,3.48,6.95-.32,14.18-1.58,20.68.88s11.49,10.66,7.69,16.48c-20.73,8.61-44.16,6.38-66.46,3.87q-30.89-3.48-61.74-7.33" transform="translate(-113.37 -50.33)" style="fill:#332928"/><path d="M412.94,514.58c-12.08-2.78-24.19-6.92-36.42-7.94,0-5.41.28-10.81.78-16.2.38-4,.91-8.15,2.6-11.89,2.71-6,8.08-10.4,12.21-15.59a44,44,0,0,0,9.39-23.16,12.12,12.12,0,0,0,1.68-1.05c2.25-1.73,3.67-4.72,2.61-7.27-7.13,1.7-14.35,3.06-21.61,4.1l-97.38-5.45q-6.15-1.61-12.2-3.53l-.93,1.71c.05.24.11.47.17.7a4.36,4.36,0,0,0-.7,5.11c.71,1.18,2,2,2.66,3.19,1,1.63.7,3.63.29,5.45a41.47,41.47,0,0,1-14.72,23.07c4.54-.72,8.64,2.45,11.95,5.46q10.49,9.52,20.13,19.82c5.56,5.93,11,12.1,17.7,16.83,14-11.09,21-.67,21-.67l7,17.25s37.92,2.17,47,5.14c9.77,3.19,23.94,2.86,33.78,5.86,11.77,3.6,7.45.09,19.82.62,10,.43,20.22.4,29.54-2.94s17.63-10.65,19.18-19.93C457.62,515.23,443,521.47,412.94,514.58Z" transform="translate(-113.37 -50.33)" style="fill:#454c54"/><path d="M348.89,500.12a52.46,52.46,0,0,0-89-37.66,52.46,52.46,0,0,1,77,45.53,96,96,0,0,0,11.84-4.57C348.85,502.33,348.89,501.23,348.89,500.12Z" transform="translate(-113.37 -50.33)" style="fill:#c6392e"/><path d="M284.48,456.34a52.19,52.19,0,0,0-24.58,6.12,52.27,52.27,0,0,0-16,37.66,53.75,53.75,0,0,0,.33,5.85,83.08,83.08,0,0,0,27.27,8.68c15.46,2.2,31.22.69,46.57-2.12A154.45,154.45,0,0,0,336.94,508,52.47,52.47,0,0,0,284.48,456.34Z" transform="translate(-113.37 -50.33)" style="fill:#e24733"/><path d="M333.29,509.1c.55,5.47,2.15,10.75,3.48,16.07a2.42,2.42,0,0,0,1.71,1.71c22.09,4.27,44.27,8,66.48,11.64,21.21,3.43,25.94,2.56,47.51.8,8.57-.7,17.85-1.83,25.34-6.4,7.1-4.32,11-11.45,13.44-19.2,6.4-20.58,8.71-42.69,12.16-63.89,2-12.1,4.07-24.18,6.7-36.16,1.85-8.46,3.07-24.61,12.62-28.59a2.17,2.17,0,0,0-.58-4.23c-16.33-1.34-18.88,25.47-21.09,36.46-4.29,21.36-7,43-10.73,64.44-1.74,10-3.34,20.25-6.25,30-3.3,11-10.27,16.84-21.42,19.17-22.32,4.68-29,5.38-51.13,1.84-24.09-3.84-48.21-7.55-72.4-10.67l2.35,1.79c-1.66-5.22-3.07-10.56-5.48-15.5a1.46,1.46,0,0,0-2.71.73Z" transform="translate(-113.37 -50.33)" style="fill:#c6392e"/><path d="M369,442.87c10.39-.24,21.81-.55,31.92-3,1.58,8.46-2.82,16.87-7.9,23.81s-11.12,13.53-13.65,21.76c-2.05,6.7-1.57,13.88-1.06,20.87l-13.21,2.63a3.34,3.34,0,0,1-2.05,0,3.24,3.24,0,0,1-1.38-1.58,37.79,37.79,0,0,1-1.82-31.16c1.5-3.84,3.64-7.41,5.22-11.21,2.9-7,3.88-14.67,4.08-22.25" transform="translate(-113.37 -50.33)" style="fill:#e24733"/><path d="M315.54,437.31c-14.42,2.44-30.94-4-43.2-12-3.43-2.23-5.12-5.57-4.32-9.58a2.41,2.41,0,0,1,.44-1c1.07-1.32,3.13-.11,4.39,1,8.59,7.79,20,11.58,31.14,14.81,4.63,1.34,12.51,1.26,11.78,7" transform="translate(-113.37 -50.33)" style="fill:#809b9e"/><path d="M520.28,382.39c4.12-.47,12.88,78,8.76,78.48,5.63-1.66,14.11-4.23,15.41-9.95a16.44,16.44,0,0,0-.05-5.64c-2.33-17.65-9.57-64.48-24.12-62.89" transform="translate(-113.37 -50.33)" style="fill:#c6392e"/><path d="M1046.35,570.71s8.48,7.54,9.74,11.5-2.32,20.43-2.32,20.43l-23-27.39,3-6.86Z" transform="translate(-113.37 -50.33)" style="fill:#5381f4"/><path d="M1038.35,576.82s5.49-1.94,9.1.51,4.18,7.29,4.28,9.85-1.92,7-1.92,7-5.11-5.42-7.49-8.69A34.84,34.84,0,0,1,1038.35,576.82Z" transform="translate(-113.37 -50.33)" style="fill:#d9dd83"/><path d="M751.05,501.35c1.06.6,4.05-.42,5.72,0a62.47,62.47,0,0,0,1.69-6.41,58.83,58.83,0,0,1,1.85-13.54l-9-2.19C749.24,485.77,746.4,498.71,751.05,501.35Z" transform="translate(-113.37 -50.33)" style="fill:#becfd3"/><path d="M762.44,475.76s-.84-3.33-5.84-4.72c-3.43-1-7.64-.34-12.81.72a2.51,2.51,0,0,0-.56,4.74c7.46,3.51,17.8,9.36,15.91,14.12Z" transform="translate(-113.37 -50.33)" style="fill:#3061c4"/><path d="M774.26,505.52c8.51-.82,15.48-6.93,15.48-15.47s-7.14-13.58-15.48-15.48c-8.1-1.85-18.57-4-18.57-4,5.55,5.23,5,28.11-3.58,32.74C752.11,503.31,759.88,506.91,774.26,505.52Z" transform="translate(-113.37 -50.33)" style="fill:#809b9e"/><path d="M769.93,520a7.77,7.77,0,0,1,3.28-6.42,12.73,12.73,0,0,1,7.06-2.23,2.26,2.26,0,0,0,1.75-.55,2.08,2.08,0,0,0,.36-1.18l.85-8.57a64.3,64.3,0,0,1-26.15,6.35" transform="translate(-113.37 -50.33)" style="fill:#454c54"/><path d="M772.18,528.27a80.11,80.11,0,0,0,21.22,12.07c1.82.69,3.79,1.41,4.89,3a9.1,9.1,0,0,1,1.2,4.12q1.62,13.49,2.43,27c.32,5.34.52,10.82-1.08,15.92-2.94,9.35-11.3,15.77-19.21,21.56a3.66,3.66,0,0,1-2.84,1c-1.48-.34-1.91-2.21-2-3.73l-4.23-47.92" transform="translate(-113.37 -50.33)" style="fill:#454c54"/><circle cx="617.31" cy="614.98" r="45.22" style="fill:#332928"/><circle cx="617.31" cy="614.98" r="25.59" style="fill:#becfd3"/><path d="M747.2,624.69l-8.7,34.5a5,5,0,0,1-5.9,3.7h0a5.06,5.06,0,0,1-4-5.56l5.81-46.07" transform="translate(-113.37 -50.33)" style="fill:#5381f4"/><path d="M748.33,596.85c-3.75-2.24-7.6-4.53-12-5.57-9.21-2.16-19.25,1.64-25.74,7.57a43.73,43.73,0,0,0-9,12.11c-2.44,4.62.81,9.93,6.63,11.09,6.13,1.22,12.2,2.66,18.26,4.1l27.29,6.46A51.86,51.86,0,0,0,751.52,600" transform="translate(-113.37 -50.33)" style="fill:#454c54"/><path d="M820.25,686.2c-9-2.42-15.36-10.58-19.48-19-10-20.5-10.76-44.1-13.39-66.79a368.19,368.19,0,0,0-13.91-66.09c-2.16-7-4.64-14.13-9.55-19.57a8.63,8.63,0,0,0-4.84-3.11c-4.28-.63-7.34,4.07-8.5,8.23-1.59,5.65-1.92,11.57-2.19,17.42q-2.26,48.32-.23,96.71c.47,11.06,1.29,22.72,7.47,31.91,4.08,6.07,10.19,10.52,16.64,14a82.91,82.91,0,0,0,57.82,7.47" transform="translate(-113.37 -50.33)" style="fill:#5381f4"/><path d="M926.37,655.61V647s-9.79-3.62-29,0-20,8.25-47.75,7.52a275.13,275.13,0,0,1-53.56-7.28l5.54,16.68s14.45,10.54,38.66,9.82C873.8,673.69,908.73,654.88,926.37,655.61Z" transform="translate(-113.37 -50.33)" style="fill:#332928"/><circle cx="899.77" cy="614.98" r="45.22" style="fill:#332928"/><circle cx="899.77" cy="614.98" r="25.59" style="fill:#becfd3"/><path d="M773.22,477s1.21-17.85,16.47-26.85l2,.68-.88,2.81s-11,4.18-11.82,21.44Z" transform="translate(-113.37 -50.33)" style="fill:#454c54"/><path d="M769.43,477c1.56-1.39,14.39-2.27,14.39-2.27s4.5,4.13,5.87,6.32,1.13,5.37-.56,8.68-4.37,3.19-6,4.49c-.52.43,0,2.43,0,2.43l-6.17.7s-.35-1.48-.78-2.79-5.22-.26-7.74-5.6S767.86,478.41,769.43,477Z" transform="translate(-113.37 -50.33)" style="fill:#454c54"/><polygon points="660.92 434.73 668.73 429.84 669.85 433.85 662.01 436.15 660.92 434.73" style="fill:#332928"/><circle cx="671.81" cy="432.47" r="4.52" style="fill:#332928"/><path d="M789.7,448.33a25.43,25.43,0,0,0,2,11c1.27,2.82,2.82,4.15,3.54,4.17,2.05,0,3.84-5.5,4-13.35.11-7.46-.58-14.9-4-17.61-1.66-1.3-3.9,2.38-5,8.66A45.58,45.58,0,0,0,789.7,448.33Z" transform="translate(-113.37 -50.33)" style="fill:#3061c4"/><path d="M789.7,448.33a25.43,25.43,0,0,0,2,11c1.27-.91,2-4.81,1.55-9.37-.39-4.31-1.63-7.82-3-8.76A45.58,45.58,0,0,0,789.7,448.33Z" transform="translate(-113.37 -50.33)" style="fill:#454c54"/><circle cx="660.76" cy="436.15" r="1.87" style="fill:#332928"/><path d="M1045.5,568.28c-4.2-14.76-19.83-23.81-35.08-25.51s-30.47,2.35-45.48,5.56c-12,2.56-24.25,4.61-36.52,4-8.09-.38-16.5-1.84-24.07,1s-13.37,12.4-8.94,19.17c24.11,10,51.37,7.43,77.33,4.51q35.94-4.05,71.85-8.53" transform="translate(-113.37 -50.33)" style="fill:#332928"/><path d="M884,663.4c14.06-3.22,28.14-8,42.38-9.23,0-6.29-.33-12.58-.91-18.85-.44-4.71-1.06-9.48-3-13.83-3.15-6.94-9.4-12.11-14.21-18.15a51.2,51.2,0,0,1-10.92-27,13.08,13.08,0,0,1-1.95-1.23c-2.62-2-4.28-5.49-3-8.45q12.45,3,25.15,4.77l113.32-6.34q7.15-1.87,14.19-4.11l1.08,2c0,.28-.13.54-.2.81a5,5,0,0,1,.82,5.94c-.82,1.38-2.29,2.34-3.1,3.72-1.11,1.89-.81,4.22-.33,6.34a48.28,48.28,0,0,0,17.13,26.85c-5.28-.84-10.06,2.85-13.91,6.35q-12.21,11.09-23.43,23.07c-6.47,6.9-12.75,14.08-20.59,19.58-16.29-12.9-24.41-.78-24.41-.78L969.88,675s-44.13,2.52-54.71,6c-11.37,3.71-27.85,3.33-39.31,6.82-13.7,4.19-8.67.1-23.06.72-11.59.5-23.53.47-34.38-3.42s-20.51-12.4-22.32-23.2C832,664.17,849,671.43,884,663.4Z" transform="translate(-113.37 -50.33)" style="fill:#454c54"/><path d="M958.52,646.59a61.05,61.05,0,0,1,103.56-43.84,61.06,61.06,0,0,0-89.65,53,110,110,0,0,1-13.78-5.32C958.57,649.15,958.52,647.88,958.52,646.59Z" transform="translate(-113.37 -50.33)" style="fill:#3061c4"/><path d="M1033.47,595.64a60.83,60.83,0,0,1,28.61,7.11,60.86,60.86,0,0,1,18.57,43.84,63.68,63.68,0,0,1-.38,6.8,96.59,96.59,0,0,1-31.74,10.1c-18,2.56-36.33.8-54.19-2.46a181.9,181.9,0,0,1-21.91-5.29A61.05,61.05,0,0,1,1033.47,595.64Z" transform="translate(-113.37 -50.33)" style="fill:#5381f4"/><path d="M976.67,657c-.64,6.36-2.5,12.5-4,18.7a2.79,2.79,0,0,1-2,2c-25.71,5-51.52,9.37-77.37,13.55-24.69,4-30.18,3-55.28.93-10-.81-20.77-2.13-29.49-7.44-8.26-5-12.84-13.33-15.65-22.36-7.44-23.94-10.13-49.67-14.14-74.34-2.3-14.09-4.74-28.14-7.8-42.08-2.16-9.84-3.57-28.64-14.68-33.27-2.58-1.08-2.29-4.69.66-4.93,19-1.56,22,29.65,24.55,42.44,5,24.85,8.13,50,12.48,75,2,11.64,3.9,23.57,7.28,34.9,3.84,12.84,12,19.6,24.93,22.31,26,5.45,33.69,6.27,59.5,2.15,28-4.48,56.09-8.8,84.25-12.42l-2.74,2.08c1.94-6.07,3.58-12.29,6.38-18,.71-1.47,3.32-.81,3.15.86Z" transform="translate(-113.37 -50.33)" style="fill:#3061c4"/><path d="M935.11,580c-12.1-.28-25.39-.64-37.15-3.49-1.84,9.85,3.28,19.63,9.19,27.71s13,15.74,15.89,25.32c2.39,7.8,1.82,16.15,1.23,24.29l15.38,3.06a4,4,0,0,0,2.38,0,3.82,3.82,0,0,0,1.61-1.84,44,44,0,0,0,2.11-36.27c-1.75-4.47-4.23-8.61-6.07-13.05-3.38-8.15-4.51-17.06-4.74-25.88" transform="translate(-113.37 -50.33)" style="fill:#5381f4"/><path d="M997.33,573.49c16.78,2.84,36-4.69,50.27-14,4-2.59,6-6.48,5-11.15a2.81,2.81,0,0,0-.51-1.22c-1.25-1.52-3.65-.12-5.11,1.2-10,9.07-23.27,13.48-36.23,17.24-5.39,1.56-14.57,1.47-13.72,8.16" transform="translate(-113.37 -50.33)" style="fill:#809b9e"/><path d="M759.08,509.57c-4.8-.53-15,90.8-10.2,91.34C742.33,599,732.47,596,731,589.32a18.49,18.49,0,0,1,.06-6.55c2.71-20.54,11.13-75,28.07-73.2" transform="translate(-113.37 -50.33)" style="fill:#3061c4"/><path d="M452,528.44s-4.65,2.41-5.17,4.31,7.83,14.45,11,16.52-2.26,4.7-5.49,3.38-15.8-11.13-19.42-16.46-1.37-8.43,6.2-15.15S452,528.44,452,528.44Z" transform="translate(-113.37 -50.33)" style="fill:#332928"/><path d="M444.87,561.88s1.36,7.48,1.77,8.3,7.2,4.49,7.88,5,1.3,3.35,1,4.35c-.86,2.49-12.38,4.22-17.41,1.36a8.43,8.43,0,0,1-2.35-3.8c-1.05-2.86-2.55-4.36-2.68-6s1.22-1.9,0-8.16S444.87,561.88,444.87,561.88Z" transform="translate(-113.37 -50.33)" style="fill:#332928"/><path d="M440.79,475.08c7.69,10.06,9.72,26.82,5.39,33.47-1.49,2.27-3.14,4.34-4.51,6.29-2.64,3.76-4.23,7.06-1.57,10.48a14.53,14.53,0,0,0,3.22,3,21.63,21.63,0,0,0,8.06,3.36s25.17-13.32,29.8-37.32-16.88-57.95-17.11-58.32c0,0,0,0,0,0s-9.28,4.35-25.58,6.49c-1.8.23-3.67.43-5.63.6a37.55,37.55,0,0,0,4.94,27.57A49.55,49.55,0,0,0,440.79,475.08Z" transform="translate(-113.37 -50.33)" style="fill:#332928"/><path d="M396.94,441.83a314.21,314.21,0,0,0,13.38,59.49c10.41,31.25,17.92,61.17,17.92,61.17s12.15,7.36,19.38,0c0,0-2.07-16-4.3-34.15-.55-4.44-1.11-9-1.65-13.5-1.39-11.52-2.65-22.54-3.33-29.62,0,0,0,0,0-.12l0-.36c-.15-1.3-.4-6.92-.51-14.05-.06-3.31-.08-7-.05-10.65.06-6.17.26-12.45.74-17.52-1.8.23-3.67.43-5.63.6A150,150,0,0,1,396.94,441.83Z" transform="translate(-113.37 -50.33)" style="fill:#454c54"/><path d="M533,431.82s.49,2.93-1,3.68-5.39,2.15-9,.53a7.63,7.63,0,0,1-1-.53c-3.84-2.4-4-8.41-6.58-9s-32.44,0-44-26.34l-2.08-6.83-1.5-4.94,20-7.14s-.42,19.9,15.46,28.42,24.51,6.54,26.5,7.78,7.64,6.91,7.64,8.65S533,431.82,533,431.82Z" transform="translate(-113.37 -50.33)" style="fill:#f4b28e"/><path d="M523.06,436a7.63,7.63,0,0,1-1-.53c-3.84-2.4-4-8.41-6.58-9s-32.44,0-44-26.34l-2.08-6.83L471,390l7.31-1.19s-1.06,17.38,16.8,27,23.65,9.25,24.76,11.08C520.72,428.31,521,432.92,523.06,436Z" transform="translate(-113.37 -50.33)" style="fill:#e09773"/><path d="M481.33,362.19c-1.88,10.83-8.58,30.22-8.78,30.82h0l-1,7.18s-5.88,24.6-4.75,40.54c0,0-10.35,9.76-34.16,10.2h-.35c-2.77,0-5.39-.07-7.85-.27C405.85,449.14,396,441.6,396,441.6s.08-.67.26-1.91c0-.28.08-.59.13-.92,1.14-7.82,4.94-30.46,13.3-51,1.46-3.61,2.92-7,4.32-10.24,8.39-19.27,15.09-31,15.09-31h0A53.56,53.56,0,0,1,449,342.67a80.9,80.9,0,0,1,10.54.52c7.41.81,12.8,2.29,16.69,4.19l.14.07C477.36,348.05,483.07,352.1,481.33,362.19Z" transform="translate(-113.37 -50.33)" style="fill:#b74941"/><path d="M424.37,450.67C405.85,449.14,396,441.6,396,441.6s.08-.67.26-1.91c0-.28.08-.59.13-.92,1.14-7.82,4.94-30.46,13.3-51,1.46-3.61,2.92-7,4.32-10.24l20.45-8.28s-14.5,14.47-18.73,41.29A57.74,57.74,0,0,0,424.37,450.67Z" transform="translate(-113.37 -50.33)" style="fill:#9b3232"/><path d="M434.49,369.28c-5.65,7.92-13.6,12-18.78,14l.05-.07a49.06,49.06,0,0,1-5.14,1.63l-.18,0a42.87,42.87,0,0,1-8.3,1.36c7.61-9.84,6.18-21.07,4.77-26.63a17.48,17.48,0,0,0,5.45-2.72c.25-.18.52-.35.78-.53,4.18-3,9-6.87,16-9.76h0C435.23,344.54,443.55,356.56,434.49,369.28Z" transform="translate(-113.37 -50.33)" style="fill:#b74941"/><path d="M432.17,312.66c-2.12,1.57-6.82,5.72-9.27,9.85s-6.49,8.17-10.07,9.74-8.5,7.09-10.27,17.05c-1.32,7.46,0,11.3,4.35,10.27a33,33,0,0,1-.75,19.49,27.72,27.72,0,0,1-4,7.14,39.18,39.18,0,0,1-5.41,0c-10.13-.75-17.82-12.74-12.74-30.69s14.26-27.34,14.73-30.87a84,84,0,0,1,3.2-12.72c.86-2.25,3.2-4.57,3.82-7.24s1.7-3.29,2.45-3,1.37,2,1.5,5.1c.11,2.83-.17,3.38-.22,3.47,2.3-2,4.86-4.22,6.67-5.55,4-2.91,10.33-5.74,11.11-5.36s1.23,1.92,0,3.16c0,0,2.8-.89,3.82-.23s.77,2.79,1.1,4.82S434.31,311.1,432.17,312.66Z" transform="translate(-113.37 -50.33)" style="fill:#f4b28e"/><path d="M476.27,347.38a29.69,29.69,0,0,1-3.73,9.78c-4.46,7.24-12.39,11.33-18.62,9.07s-6.62-8.78-5.61-14.28a49.39,49.39,0,0,0,.73-9.28,82.57,82.57,0,0,1,10.54.51C467,344,472.38,345.48,476.27,347.38Z" transform="translate(-113.37 -50.33)" style="fill:#9b3232"/><path d="M452.07,334.41l-.54,8.26A67,67,0,0,1,451.8,353c-.27,6.14,2,11,7.84,10.26s10.4-9.18,10.4-9.18.39-4.68.73-6.66S468.74,330.22,452.07,334.41Z" transform="translate(-113.37 -50.33)" style="fill:#e09773"/><path d="M487.89,381.29s-3.16,7.84-15.34,11.72c.2-.6,6.9-20,8.78-30.82,1.74-10.09-4-14.14-4.92-14.74,10.44,5.11,10.21,13.22,10.39,20,.07,2.14.17,5.21.51,8.74C487.44,377.81,487.64,379.53,487.89,381.29Z" transform="translate(-113.37 -50.33)" style="fill:#b74941"/><path d="M487.88,381.29s-3.15,7.84-15.34,11.73c0,0,3-12.74,4.92-19.28a67,67,0,0,0,2.45-15.59c0-1.52,3,3.93.95,14.73s-.95,10.18-.95,10.18,5-3.05,7.4-6.87C487.44,377.81,487.64,379.53,487.88,381.29Z" transform="translate(-113.37 -50.33)" style="fill:#9b3232"/><path d="M410.44,384.85a43.71,43.71,0,0,1-8.3,1.35c7.62-9.83,6.18-21.07,4.77-26.63a17.48,17.48,0,0,0,5.45-2.72c.25-.18.51-.35.78-.53C417.33,371.78,413.45,380.68,410.44,384.85Z" transform="translate(-113.37 -50.33)" style="fill:#9b3232"/><path d="M398.72,330.42c-4.37,8.21-10.12,20.62-9.08,35.57.84,12.08,12.21,13.12,16.52,13.07a27.72,27.72,0,0,1-4,7.14,39.18,39.18,0,0,1-5.41,0c-10.13-.75-17.82-12.74-12.74-30.69s14.26-27.34,14.73-30.87a84,84,0,0,1,3.2-12.72c.86-2.25,3.2-4.57,3.82-7.24s1.7-3.29,2.45-3,1.37,2,1.5,5.1c.11,2.83-.17,3.38-.22,3.47C405.39,313.75,403.09,322.18,398.72,330.42Z" transform="translate(-113.37 -50.33)" style="fill:#e09773"/><path d="M410.62,384.81a49.06,49.06,0,0,0,5.14-1.63l-.05.07A35.88,35.88,0,0,1,410.62,384.81Z" transform="translate(-113.37 -50.33)" style="fill:#b74941"/><path d="M533,431.67a16.63,16.63,0,0,1-2.83.35c-.79,0-.95-1.73-.68-2a16.22,16.22,0,0,1,4.1-2,5.85,5.85,0,0,0,2.52-.94c.37-.42-1.63,2.21-2.58,2.47S533,431.67,533,431.67Z" transform="translate(-113.37 -50.33)" style="fill:#c98165"/><path d="M436.36,323.16a5.17,5.17,0,0,1-2.81-4.44c-.15-3.26,4.43-5.33,4.43-5.33s-2.66-3.84-.88-7.39,7.54-3.41,7.54-3.41-.44-3.1.89-4.43,4.73-.74,4.73-.74-.89-4,2.67-4.59,5.62,2.66,5.62,2.66,2.81-5.18,6.8-8,14.94-4.14,21.75,2.08,4.44,12.72,4.44,12.72,4.58-.3,4.43,5.17-8.87,6.37-8.87,6.37L485,320.12l.9-.07s6.22-2.66,7.84.44a5.68,5.68,0,0,1,0,5.62s4.74-2.21,7.4,2.22c2.66,4.59.3,8.58-2.51,8.88,0,0,3.25,2.37,3.69,5.77.45,4.29-3.55,9.47-12.57,9.47a16.25,16.25,0,0,1-13.46-7.1L451.67,345a4.64,4.64,0,0,0-.37.67c-2.66,6.07-20.56,9.17-24.56-5.77S436.36,323.16,436.36,323.16Z" transform="translate(-113.37 -50.33)" style="fill:#332928"/><path d="M482.81,327s1.92-2.51,4.14-2.37,3.85,3.85,1.92,7.7-6.51,2.36-6.51,2.36Z" transform="translate(-113.37 -50.33)" style="fill:#f4b28e"/><path d="M447.16,328s-1.34-2.22-4.44-1.19c-3.4,1.19-3.11,6.22,0,7.7a5.63,5.63,0,0,0,4.44,0Z" transform="translate(-113.37 -50.33)" style="fill:#f4b28e"/><path d="M447.6,340.32a17.36,17.36,0,0,0,4.59,7.54c3.55,3.4,9,5.18,16.56,4a16.48,16.48,0,0,0,5-1.48c7.84-3.69,9.18-12,9.18-17.89a86,86,0,0,1,.74-11.54l.88-4.59s-6.76-7-19.9-6c-11.74,1.27-15.88,7.21-15.88,7.21s-.9,6.33-1.35,8.69C446.86,330,446.12,335.58,447.6,340.32Z" transform="translate(-113.37 -50.33)" style="fill:#f4b28e"/><path d="M466.68,328.92c.15-.73.45-2.66,1.33-2.81,1,0,2.22,3.7,2.67,5.48s.44,3-.89,3.55c-1.48.74-3.55-.3-4.59-1.19s-1.18-2.36-.74-2.81S466.39,330.4,466.68,328.92Z" transform="translate(-113.37 -50.33)" style="fill:#c98165"/><ellipse cx="346.66" cy="275.63" rx="1.48" ry="1.78" style="fill:#332928"/><ellipse cx="361.3" cy="275.63" rx="1.48" ry="1.78" style="fill:#332928"/><path d="M465.5,337.65s-5.77,0-9.32-3.84a7.17,7.17,0,0,0,.59,7.25c2.52,4,5.92,3.84,7.25,2.07S465.5,337.65,465.5,337.65Z" transform="translate(-113.37 -50.33)" style="fill:#332928"/><path d="M483.1,329.81s1.33-3,3-2.81,1.33,3.26-.59,4.74S483.1,329.81,483.1,329.81Z" transform="translate(-113.37 -50.33)" style="fill:#c98165"/><path d="M446.86,330.55a3.32,3.32,0,0,0-2.81-1.63c-1.78.15-1.78,2.52,0,3.41C445.82,332.92,447.75,332.33,446.86,330.55Z" transform="translate(-113.37 -50.33)" style="fill:#c98165"/><path d="M478.37,324a.55.55,0,0,0,.44-.14.65.65,0,0,0,0-.74c-1-.89-3.84-2.22-6.36-.6-.29.15-.29.45-.15.74s.45.3.74.15c2.37-1.63,5,.59,5,.59Z" transform="translate(-113.37 -50.33)" style="fill:#332928"/><path d="M457.22,321.38c.14,0,.29,0,.29-.15h0c.15-.15,2.66-2.22,5-.59.3.15.59.15.74-.15s.15-.59-.15-.74c-2.51-1.62-5.17-.29-6.36.59a.42.42,0,0,0,0,.74C456.92,321.23,457.07,321.38,457.22,321.38Z" transform="translate(-113.37 -50.33)" style="fill:#332928"/><path d="M442.87,321.52a4.86,4.86,0,0,0,.66,1.4c.9,1.39,2.53,3,3.92,3.34.44-2.36.89-4,.89-4s8.88-5.77,17.9-6.36c11.54-.89,17.6,3.84,17.6,3.84a6.5,6.5,0,0,1-.15,1.18s2.08.45,3.41-2.5c.1-.2.2-.39.28-.58,1.18-2.62,1-5.15-1-6.38-2.22-1.33-16.27-8-30.92-4.44S442.72,320.05,442.87,321.52Z" transform="translate(-113.37 -50.33)" style="fill:#b74941"/><path d="M443.53,322.92c.9,1.39,2.53,3,3.92,3.34.44-2.36.89-4,.89-4s8.88-5.77,17.9-6.36c11.54-.89,17.6,3.84,17.6,3.84a6.5,6.5,0,0,1-.15,1.18s2.08.45,3.41-2.5c.1-.2.2-.39.28-.58a36.65,36.65,0,0,0-21-4.45C454.09,314.27,446,319.1,443.53,322.92Z" transform="translate(-113.37 -50.33)" style="fill:#9b3232"/><path d="M377.82,675.88s1.44,19.44,3.12,20,25.46,10.72,26.43,13.6-1.69,7.06-9.37,7.32-33.16-5.23-35.32-6-1.67-7.28-1.2-12.42a134.77,134.77,0,0,0,0-17.15Z" transform="translate(-113.37 -50.33)" style="fill:#332928"/><path d="M318.4,675.88s-1.44,19.44-3.12,20-25.47,10.72-26.43,13.6,1.68,7.06,9.37,7.32,33.16-5.23,35.32-6,1.66-7.28,1.2-12.42a132.75,132.75,0,0,1,0-17.15Z" transform="translate(-113.37 -50.33)" style="fill:#332928"/><path d="M353.06,522c-18.81,92-11.77,163.45-11.77,163.45a27.53,27.53,0,0,1-28.88,0s-3.48-29.37-9.32-80.75a781.37,781.37,0,0,1-4.93-93.75s16.64-8.78,41.13-10.7a118,118,0,0,1,17.67-.07Z" transform="translate(-113.37 -50.33)" style="fill:#332928"/><path d="M392.76,604.68c-5.86,51.38-9.32,80.75-9.32,80.75s-13.62,9.3-28.9,0c0,0,7.06-71.44-11.75-163.45l-3.5-21.75a114,114,0,0,1,58.4,10.7A781.37,781.37,0,0,1,392.76,604.68Z" transform="translate(-113.37 -50.33)" style="fill:#454c54"/><path d="M264.35,402.24s1.46-1.95,6-3.1-2.24,5.45-2.24,5.45Z" transform="translate(-113.37 -50.33)" style="fill:#332928"/><path d="M341.06,365.18s-2.64,6.62-7.22,17.57c-3.9,9.27-9.18,21.63-15.44,35.72a112.11,112.11,0,0,1-9.06,16.61c-1.24,1.87-2.48,3.59-3.7,5.18-9.15,11.81-17.77,16.47-21.24,17.88l-.53.23a2.15,2.15,0,0,1-.45.14h0a.27.27,0,0,1-.12,0h0c-1-.05-1.28-4.16-1.19-9.83.1-6,.6-13.75,1.1-20.23.55-7.28,1.12-13,1.12-13a41.8,41.8,0,0,1,2.33-5.14c4.16-8,14.85-33.87,44.76-43,1.45-.43,2.93-.85,4.47-1.19s3.27-.71,5-1A1.46,1.46,0,0,1,341.06,365.18Z" transform="translate(-113.37 -50.33)" style="fill:#e2bf17"/><path d="M309.34,403.23v31.85c-10.43,15.66-21,21.46-24.94,23.06l-.53.23a2.15,2.15,0,0,1-.45.14h0a.27.27,0,0,1-.12,0s0,0,0,0a7.32,7.32,0,0,1-3.16,0l-.64-.16a60.33,60.33,0,0,1,2.61-9.67,172.59,172.59,0,0,1,7.26-17.4S300.86,413.85,309.34,403.23Z" transform="translate(-113.37 -50.33)" style="fill:#d39313"/><path d="M289.2,449.71a20.57,20.57,0,0,1-1.92,5.62,6.18,6.18,0,0,1-7.19,3.21c-4.36-.91-9.33-5.17-12.07-11.78a29.18,29.18,0,0,1-1.78-6.68,58.52,58.52,0,0,1-.5-6.7c-.26-10.65,1.61-23.1,2.52-30.26.4-3.12.64-5.22.43-5.76-.74-2-6.05-4.83-8.57-7.31s-23.16-2-24.58-3.67a1.25,1.25,0,0,1-.33-.76l0,0c.09-1.17,3.22-1.79,6-2.21,3.28-.51,11.32-1.14,11.84-1.77s-20.24-3.88-22.82-4.49-1.42-3,2.21-2.84,18.93.22,19.48-.18-13.07-8.9-15.5-10.83-1.45-4.71,2.1-3.45,18.34,8,19.36,8.37-7.87-8.49-10-11.25-3.55-6-2.05-6.47,8.07,5.9,14,10.08a130,130,0,0,0,17,9.53c.05-.17-1.47-8.81-1.73-11.29s-1.2-4.95.19-6,3.73.1,5.42,6.52A83,83,0,0,0,286,373.82c1.81,4,1.6,10.3.17,16.8,0,0-.17,2.21-.21,6h0a138.54,138.54,0,0,0,1.52,21.17c.41,2.74.81,5.43,1.15,8.05C289.89,435,290.54,443.26,289.2,449.71Z" transform="translate(-113.37 -50.33)" style="fill:#f4b28e"/><path d="M275.61,394.28c.15,1-2.38,3.36-3.84,7.48a104.73,104.73,0,0,0-5,22.3c-.35,3.47-.72,6.67-1,9.31-.36-15.28,3.59-34.25,2.94-36-.75-2-6.06-4.82-8.58-7.31s-23.16-2-24.57-3.68a1.15,1.15,0,0,1-.32-.75l0,0s1.49,1.15,9.26.62,15.29-.74,15.65-.26,4.13,5.66,8.32,7S275.46,393.3,275.61,394.28Z" transform="translate(-113.37 -50.33)" style="fill:#e09773"/><path d="M254.33,382.74s.27-4.87.92-8.86,3.54-7.78,4.78-8.3.06.39-1.38,4-2.33,9.4-2.88,11.6S254.16,385.07,254.33,382.74Z" transform="translate(-113.37 -50.33)" style="fill:#e09773"/><path d="M267.72,369.38S264,378.09,263.84,382s.58-.35,2.23-4.38,1.51-4.91,2.82-.36a13.36,13.36,0,0,0,8.24,8.59c2.86.86-3.88-2.44-5.7-8.07S269.65,366.84,267.72,369.38Z" transform="translate(-113.37 -50.33)" style="fill:#e09773"/><path d="M417.68,439.05a193.86,193.86,0,0,1-5.4,20c-1.26,3.83-2.52,7.38-3.71,10.51-.26.69-.52,1.37-.78,2l-.41,1.11,0,0c-.5,1.3-1,2.47-1.41,3.54-.19.43-.36.84-.52,1.24l-.29.71c-.1.24-.21.46-.29.67-.26.62-.5,1.19-.73,1.67-.12.3-.24.55-.34.8l-.62,1.36s0,.24,0,.7c0,.18,0,.38,0,.63,0,.48-.05,1.08-.08,1.79,0,.26,0,.53,0,.83,0,.46-.07,1-.08,1.52,0,.2,0,.43,0,.65s0,.29,0,.45c0,.55-.07,1.12-.11,1.72-.14,2.16-.27,4.54-.45,6.85-.07.74-.12,1.48-.19,2.23s-.15,1.79-.24,2.63-.19,1.78-.27,2.59c-.06.4-.11.78-.16,1.14a18.78,18.78,0,0,1-.57,2.95c-1.15,3.83-9,12.56-18.54,18.8-.45.29-5.24,2.07-13.31,3.47a128.41,128.41,0,0,1-31.38,1.25c-1.76-.15-3.46-.34-5.12-.56-1.28-.18-2.52-.38-3.73-.61a84.28,84.28,0,0,1-24-8.19,48,48,0,0,1-5.52-3.33s-3.71-21.58.4-37.82a234.66,234.66,0,0,0,4.33-26.18c.72-5.95,1.29-11.61,1.71-16,.5-5.09.75-8.44.75-8.44s-1.24-43.72,19.89-60.4c1.38-.88,2.92-1.79,4.59-2.64.71-.38,1.45-.75,2.21-1.1a37.22,37.22,0,0,1,7.76-2.47,1.46,1.46,0,0,1,.22,0,87.53,87.53,0,0,1,10.09-1.43c1.21-.11,2.42-.14,3.64-.14a53.57,53.57,0,0,1,15.92,1.9l1.1.31,1.28.41a96,96,0,0,1,24.63,12.28c7.28,4.95,14,11.42,18.37,19.8,0,0,0,0,0,.05C421.57,409,420.71,424.37,417.68,439.05Z" transform="translate(-113.37 -50.33)" style="fill:#e2bf17"/><path d="M412.27,459.09a228.38,228.38,0,0,1-9.13,23.65s-.92,22.12-2.29,26.68c-1.16,3.82-9,12.56-18.55,18.79,9.62-21.16,2.44-61.69-.4-88.23-3.39-31.74,7-43.39,7-43.39A655.22,655.22,0,0,1,412.27,459.09Z" transform="translate(-113.37 -50.33)" style="fill:#d39313"/><path d="M426.47,436.17c0,1.31,0,2.61,0,3.88a65.83,65.83,0,0,1-23.61,48.81,78.94,78.94,0,0,1-23.2,13.62c-.47.2-.94.39-1.43.56a109.21,109.21,0,0,1-11.93,3.62,52.33,52.33,0,0,0-.54-7.71A70.64,70.64,0,0,0,362,484.51a33.58,33.58,0,0,0,7.56-1.49,26.47,26.47,0,0,0,4.44-1.83c12.72-6.42,22.55-22.64,19.47-44.25-3.43-24.07-9.75-43.84,1.43-49.43a7.41,7.41,0,0,1,1.85-.66c5.54-1.33,13.21,2.37,19.38,11.47,0,0,0,0,0,.05,5.16,7.64,9.28,19,10.22,34.38C426.4,433.92,426.45,435.06,426.47,436.17Z" transform="translate(-113.37 -50.33)" style="fill:#e2bf17"/><path d="M426.47,436.17c0,1.31,0,2.61,0,3.88a65.83,65.83,0,0,1-23.61,48.81,78.94,78.94,0,0,1-23.2,13.62c-.47.2-.94.39-1.43.56a109.21,109.21,0,0,1-11.93,3.62,52.33,52.33,0,0,0-.54-7.71,85.52,85.52,0,0,1,11-5c43.67-17,45.2-54.77,45.2-54.77Z" transform="translate(-113.37 -50.33)" style="fill:#d39313"/><path d="M362,484.51s-9-.25-14-.6S338,492.85,338,495.2s4.83,12,6.24,14,7.41,2.35,9.64,2.12,3.53-2.71,3.3-3.65-2.36-1.76-2.36-1.76.12-.71,3.42.12a34.84,34.84,0,0,0,8,.63S370.33,493.22,362,484.51Z" transform="translate(-113.37 -50.33)" style="fill:#f4b28e"/><path d="M345.27,384.28c0,.68-5.89,68.08-8.8,88.82-2.27,16.3-3.54,47-4,59.28-1.28-.17-2.53-.38-3.74-.6.45-12.67,1.73-42.94,4-59.2,2.89-20.66,8.72-87.94,8.78-88.61Z" transform="translate(-113.37 -50.33)" style="fill:#332928"/><path d="M289.2,449.71a20.57,20.57,0,0,1-1.92,5.62,6,6,0,0,1-2.88,2.81l-.53.23a2.15,2.15,0,0,1-.45.14l-.15,0h0a7.32,7.32,0,0,1-3.16,0l-.64-.16h0c-3.19-.89-6.61-3.51-9.21-7.46-6.49-9.13-7.06-26.72-6.64-38.09.22-5.79.69-10,.76-10.59a.45.45,0,0,0,0-.08,15.33,15.33,0,0,0,3.9,1,20,20,0,0,0,9.09-1c7.18-2.45,8.56-5.38,8.64-5.56,0,3.14.07,7.37.48,12.28.06.49.09,1,.14,1.47.21,2.35.5,4.83.9,7.42.41,2.74.81,5.43,1.15,8.05.25,1.86.47,3.71.66,5.49C290.08,438.29,290.27,444.57,289.2,449.71Z" transform="translate(-113.37 -50.33)" style="fill:#e2bf17"/><path d="M365.73,364s-3.13-3.86-10.35-4.63,9.37-14.52,9.37-14.52l5.34,9Z" transform="translate(-113.37 -50.33)" style="fill:#332928"/><path d="M325.28,290.13s-10,3.25-12.79,13.69,2.38,16.54,3.72,26.73c1.56,10.23-4.09,25.16-11.68,29.31,0,0,6.37,9.87,24.33,7.5s6.88-15.19,6.88-15.19l28.88-3.81s.42,15.49-6.59,25.91c0,0,22.45-.89,29.06-22.76s-2.95-49.14-12.62-59.1-34.78-15.7-39.09-15.49S326.24,283.18,325.28,290.13Z" transform="translate(-113.37 -50.33)" style="fill:#332928"/><path d="M334.83,360.1s-.55,12.09,1.33,15.07,8,5,16.71,0,9.3-9.26,10.27-13.42a67.76,67.76,0,0,0,1.47-10.55Z" transform="translate(-113.37 -50.33)" style="fill:#e09773"/><path d="M364.61,351.2c.79-6,.29-19.64,0-26.33A48.18,48.18,0,0,1,350,321.65c-12.88-5.06-19.9-23.58-19.9-23.58-3.74,1-2.92,7.33-4.4,11.82s-3.84,5.74-3.84,5.74.72,11-.7,17.91c-1.46,7.1-2.4,26.39,17.33,31.68,12.66,3.59,21.52-6.51,26.13-14Z" transform="translate(-113.37 -50.33)" style="fill:#f4b28e"/><path d="M336.66,328.85s-1.29,4.76-2.14,5.56c-1.08.76-2.23.57-2.62,1.45s1.67,4.08,2.93,5,4-1.21,5-2.94-.53-7.92-.53-7.92S337.66,328.55,336.66,328.85Z" transform="translate(-113.37 -50.33)" style="fill:#c98165"/><path d="M355,350.27a1.77,1.77,0,0,1-.62.84,9,9,0,0,1-4.75,4.17,8.51,8.51,0,0,1-9.25-1.35,2.4,2.4,0,0,1-1-1.12,8.54,8.54,0,0,1-2-6.51l.23,0a37.29,37.29,0,0,0,17-2.3c.77-.34,1.27-.49,2-.83A21.55,21.55,0,0,1,355,350.27Z" transform="translate(-113.37 -50.33)" style="fill:#332928"/><path d="M352.28,348.37a32.33,32.33,0,0,1-11.34,1.14,3.18,3.18,0,0,1-3-3.13,37.29,37.29,0,0,0,17-2.3C354.68,345.46,354.05,347.73,352.28,348.37Z" transform="translate(-113.37 -50.33)" style="fill:#fff"/><path d="M355,350.27a1.77,1.77,0,0,1-.62.84,9,9,0,0,1-4.75,4.17,8.51,8.51,0,0,1-9.25-1.35,7.48,7.48,0,0,1,.93-1.27c.73-.11,4.83.83,8.11-.27s3-2.09,4.7-2.51A1.76,1.76,0,0,0,355,350.27Z" transform="translate(-113.37 -50.33)" style="fill:#fff"/><path d="M333,326.79a4.44,4.44,0,0,0-3.33-2.7,4.68,4.68,0,0,0-4.62,2.05c-.35.65.15.5,1.46-.22a4.49,4.49,0,0,1,5.34.68C333.16,328.49,333,326.79,333,326.79Z" transform="translate(-113.37 -50.33)" style="fill:#332928"/><path d="M353.39,326.74a4.84,4.84,0,0,0-4-2.82,4.32,4.32,0,0,0-4.55,3q-.18,1,1.5-.45c1.12-1,4.08-1.68,5.69,0S353.39,326.74,353.39,326.74Z" transform="translate(-113.37 -50.33)" style="fill:#332928"/><path d="M129.36,572.36c-2.06-3.8-1.2-8.39,1.53-11.9s7.12-6.05,11.85-7.64a8,8,0,0,1,3.52-.56c1.19.15,2.34,1,2.3,1.94-.06,1.28-1.86,1.93-3.3,2.47a15.39,15.39,0,0,0-9.21,8.56,16.67,16.67,0,0,1-1.57,3.85,4.39,4.39,0,0,1-4.07,1.9" transform="translate(-113.37 -50.33)" style="fill:#454c54"/><path d="M291.18,735.27c32.94,12.42,69.74,5.13,103.84-3.67,13.08-3.37,26.41-7.09,37.4-15,16.49-11.79,25.68-31.72,28.74-51.76s.72-40.48-1.78-60.6c-2.14-17.18-4.4-34.48-9.88-50.9-3.65-10.94-9.19-22-19-28.1-6.07-3.81-13.25-5.38-20.27-6.84-11.26-2.35-23.14-4.55-34.1-1-18.57,5.94-28.46,26.11-33.17,45-10,40.24-6,82.43-6.3,123.89-.1,12.79-.79,26.15-7.16,37.24s-20.2,18.92-32.16,14.41" transform="translate(-113.37 -50.33)" style="fill:#e59f13"/><path d="M150.94,575.4a116.33,116.33,0,0,0-30.29,84c.23,4.27.72,8.62,2.56,12.48a30.28,30.28,0,0,0,7.23,9c12.89,11.78,29.42,18.62,45.68,25,27,10.58,54.5,20.58,83.24,24.3,12.87,1.67,25.87,2.07,38.84,2.46a259.27,259.27,0,0,0,27.6-.14c2.85-.22,5.94-.66,7.91-2.73,1.61-1.7,2.11-4.15,2.54-6.46,3.1-16.79-2.63-33.58.48-50.37C313,670,296,666,279.8,648.45a52,52,0,0,1-13-42.55l-30.4-7.2" transform="translate(-113.37 -50.33)" style="fill:#454c54"/><path d="M149.94,585.28a15.84,15.84,0,0,1-6.47-29.08,25.94,25.94,0,0,1,9.86-3.27,71.48,71.48,0,0,1,38.5,4.45c17.84,7.37,33.19,22.12,52.45,23.46,7,.48,14.14-.89,21,.54s13.76,7.1,13,14.09c-.41,4-3.19,7.34-6.24,10-9.49,8.16-22.39,11.55-34.91,11.46s-24.78-3.41-36.66-7.35c-20-6.61-39.41-15.11-57.09-26.52" transform="translate(-113.37 -50.33)" style="fill:#332928"/><path d="M213,706.16a74.64,74.64,0,0,0-20.24-53.06,57.37,57.37,0,0,0-20.38-14c-.83.12-1.67.27-2.5.45-6.42,1.44-12.25,4.71-18,7.95-10,5.68-21.25,13-22.58,24.48l-4.68-5.92c-2.78,2.49-3.21,6.63-3.32,10.36-.45,15.42,1.5,31.09,7.48,45.31S145,748.71,158.58,756a54.19,54.19,0,0,0,8.79,3.76,45,45,0,0,0,16.17-4C201.89,747.21,212.33,726.39,213,706.16Z" transform="translate(-113.37 -50.33)" style="fill:#454c54"/><path d="M212.34,655.64C202,644.78,187,637,172.35,639.15a57.37,57.37,0,0,1,20.38,14A74.64,74.64,0,0,1,213,706.16c-.64,20.23-11.08,41.05-29.43,49.58a45,45,0,0,1-16.17,4c11.68,3.81,24.68,3.66,35.78-1.5,18.35-8.54,28.79-29.36,29.43-49.59A74.66,74.66,0,0,0,212.34,655.64Z" transform="translate(-113.37 -50.33)" style="fill:#332928"/><ellipse cx="54.07" cy="653.43" rx="24.1" ry="29.47" style="fill:#becfd3"/><path d="M169.61,619.9a58.85,58.85,0,0,0-7.53-1.9,60.4,60.4,0,0,0-27.65,12.5c-15.5,12.71-23.51,33.53-20.4,53l.22-.22C145.8,707.1,178,725,216.51,729.78c.26-.1.52-.19.77-.3C226.77,725.22,224,640.26,169.61,619.9Z" transform="translate(-113.37 -50.33)" style="fill:#e59f13"/><path d="M191.61,619.9a61.18,61.18,0,0,0-29.53-1.9,58.85,58.85,0,0,1,7.53,1.9c54.37,20.36,57.16,105.32,47.67,109.58-.25.11-.51.2-.77.3q5.81.72,11.81,1c3.72.18,7.58.19,11-1.33C248.77,725.22,246,640.26,191.61,619.9Z" transform="translate(-113.37 -50.33)" style="fill:#a35d1d"/><path d="M463.08,771a81.78,81.78,0,0,0-22.18-58.17,62.87,62.87,0,0,0-22.34-15.28c-.91.13-1.83.29-2.74.49-7,1.58-13.42,5.17-19.69,8.71-11,6.23-23.3,14.26-24.76,26.84l-5.13-6.49c-3.05,2.73-3.52,7.26-3.64,11.35-.49,16.91,1.64,34.09,8.2,49.68s17.78,29.51,32.67,37.53a58.51,58.51,0,0,0,9.63,4.12,49.36,49.36,0,0,0,17.73-4.43C450.94,816,462.39,793.13,463.08,771Z" transform="translate(-113.37 -50.33)" style="fill:#454c54"/><path d="M462.39,715.58c-11.31-11.9-27.74-20.4-43.83-18.07a62.87,62.87,0,0,1,22.34,15.28A81.78,81.78,0,0,1,463.08,771c-.69,22.17-12.14,45-32.25,54.35a49.36,49.36,0,0,1-17.73,4.43c12.81,4.18,27.06,4,39.23-1.64,20.11-9.36,31.56-32.18,32.25-54.35A81.78,81.78,0,0,0,462.39,715.58Z" transform="translate(-113.37 -50.33)" style="fill:#332928"/><ellipse cx="299.81" cy="718" rx="26.42" ry="32.3" style="fill:#becfd3"/><path d="M415.56,676.41a63.44,63.44,0,0,0-8.25-2.08A66.1,66.1,0,0,0,377,688c-17,13.93-25.77,36.75-22.35,58.1l.24-.24c34.58,26.09,69.84,45.76,112.09,51,.28-.11.57-.2.84-.33C478.21,791.85,475.16,698.72,415.56,676.41Z" transform="translate(-113.37 -50.33)" style="fill:#e59f13"/><path d="M439.67,676.41a67,67,0,0,0-32.36-2.08,63.44,63.44,0,0,1,8.25,2.08c59.6,22.31,62.65,115.44,52.25,120.11-.27.13-.56.22-.84.33q6.36.78,12.95,1.12c4.07.21,8.31.22,12-1.45C502.33,791.85,499.27,698.72,439.67,676.41Z" transform="translate(-113.37 -50.33)" style="fill:#a35d1d"/><path d="M234.93,670.67c5.35,14.68,9,30.66,6.33,46.27-.92,5.31.26,8.69,5,11.5a83.74,83.74,0,0,0,20.47,8.37A127.27,127.27,0,0,0,310,741c13.33-1,27.06-4.11,30.59-18.85,1.49-6.26,1.21-12.8,1.38-19.19l.7-25.58,1.26-47.21c.4-14.91.62-29.83,1-44.74.33-13.87,3.67-28.8,9.93-41.22,3.38-6.7,7.7-13.18,13.64-17.89,6.68-5.29,14.17-6.33,22.35-7.38,15.74-2,33.21,1.47,45.09,12.48,1.5,1.39,3.76-.86,2.25-2.26-9.08-8.42-20.94-13.34-33-15.5-12.78-2.29-25.42-3.6-37.18,3.17-24,13.79-29,44.22-32.88,69-2.23,14-2,28.28-2.37,42.41q-.57,24.6-1.15,49.18l-.49,21.65c-.16,6.65.8,15.08-2.13,21.3-2.79,5.92-9.58,6.92-15.33,8.07a107.65,107.65,0,0,1-23,2,117.06,117.06,0,0,1-23.22-2.73c-4-.89-8-2-12-3.09a33.78,33.78,0,0,1-5.05-1.52c-3.65-1.69-4.49-3.67-4.69-7.35-.85-16-2.27-31-9.79-45.49-.26-.51-1.14-.15-.94.4Z" transform="translate(-113.37 -50.33)" style="fill:#809b9e"/><path d="M302.61,735.48l-1.59-.8c-.16-.08-.3.16-.14.24l1.59.8c.16.08.3-.16.14-.24Z" transform="translate(-113.37 -50.33)" style="fill:#e59f13"/><path d="M301,734.85a0,0,0,1,0,0-.09,0,0,0,1,0,0,.09Z" transform="translate(-113.37 -50.33)" style="fill:#e59f13"/><path d="M372.12,687.24c7.11-22.41,8.15-46.22,9.13-69.71q2-47,3.94-93.95a1023.34,1023.34,0,0,1,16.74,149.95" transform="translate(-113.37 -50.33)" style="fill:#a35d1d"/><path d="M396.36,523c-.61,5.77,1,12,1.93,17.64,1,6.07,2.09,12.11,3.15,18.16q3.26,18.61,6,37.32t5,37.68c1.42,12.39,1.9,25,3.83,37.33.48,3,5.29,2.24,5.25-.71-.14-12.79-2.25-25.85-3.76-38.55q-2.14-18.15-4.87-36.25-2.82-18.67-6.43-37.2c-1.23-6.33-2.5-12.65-4-18.92-1.33-5.55-2.34-11.76-5.28-16.71a.43.43,0,0,0-.79.21Z" transform="translate(-113.37 -50.33)" style="fill:#a35d1d"/><path d="M435.44,663.14Q428.36,600.64,415.5,539c11.08,28.28,16.52,58.4,21.9,88.3l8.1,45-4.66-.21" transform="translate(-113.37 -50.33)" style="fill:#f7cf28"/><path d="M355.81,740.42c4-8.69,6.4-18.18,10.37-26.95,3.55-7.84,7.61-15.73,13.62-22C386.06,685,394.74,680,404,680c8.94,0,16.86,5.16,23.17,11.07,11.58,10.87,19.07,25.25,24.25,40.09,2.55,7.33,4.66,14.81,6.6,22.32q1.54,6,3,12c1.18,4.93,1.49,10.14,2.9,15,1.23,4.25,7.74,4.5,8.86,0,1.87-7.57-1.41-16.3-3.22-23.69s-3.65-14.55-5.95-21.69c-4.4-13.64-10.08-27.16-18.77-38.66-8.4-11.13-20.68-21.8-34.92-23.84-14.47-2.08-27.64,6.24-36,17.45-5.14,6.85-8.66,14.72-11.39,22.79-2.94,8.67-6.32,18.4-6.71,27.6,0,.05.07.07.09,0Z" transform="translate(-113.37 -50.33)" style="fill:#f7cf28"/><path d="M388,678.29,401.64,664s6-5.11,16.7-5.63,19.48,6.83,23.72,19c-17.46-6.92-35.82-6.92-54,.67" transform="translate(-113.37 -50.33)" style="fill:#454c54"/><path d="M414,672.07a56.82,56.82,0,0,1-2.85-7.9,3.68,3.68,0,0,1-.17-1.88,3.35,3.35,0,0,1,2-1.91,13.29,13.29,0,0,1,7-1.18,4,4,0,0,1,2.23.79,4.63,4.63,0,0,1,1.21,2.73c.59,3,1.52,7.45,2.11,10.41-3-1.1-8.35-1.29-11.48-1" transform="translate(-113.37 -50.33)" style="fill:#809b9e"/><path d="M160.9,600.14q-10.53-7-20.45-14.79a46.7,46.7,0,0,1-9-8.59c-2.47-3.34-4.13-7.45-3.79-11.6.13-1.58.77-3.38,2.29-3.82,1.9-.55,3.53,1.34,4.65,3,9.54,13.91,22.29,25.25,34.9,36.45a6.26,6.26,0,0,1-8.6-1" transform="translate(-113.37 -50.33)" style="fill:#809b9e"/><path d="M408.25,506.18c-1.59.9-6.09-.64-8.6.05a93.3,93.3,0,0,1-2.54-9.62,88.58,88.58,0,0,0-2.78-20.36L407.85,473C411,482.76,415.24,502.21,408.25,506.18Z" transform="translate(-113.37 -50.33)" style="fill:#becfd3"/><path d="M391.13,467.73s1.25-5,8.78-7.11c5.15-1.43,11.48-.51,19.25,1.09a3.78,3.78,0,0,1,.84,7.12c-11.22,5.27-26.76,14.06-23.91,21.21Z" transform="translate(-113.37 -50.33)" style="fill:#a35d1d"/><path d="M373.36,512.45c-12.79-1.24-23.26-10.42-23.26-23.26s10.73-20.4,23.26-23.26c12.17-2.78,27.91-6,27.91-6-8.33,7.87-7.58,42.25,5.38,49.21C406.65,509.12,395,514.53,373.36,512.45Z" transform="translate(-113.37 -50.33)" style="fill:#809b9e"/><path d="M374.92,469.61s-1.81-26.82-24.75-40.35l-3,1,1.32,4.22s16.49,6.29,17.76,32.23Z" transform="translate(-113.37 -50.33)" style="fill:#454c54"/><path d="M380.62,469.61c-2.35-2.09-21.62-3.4-21.62-3.4s-6.76,6.2-8.83,9.48-1.69,8.08.85,13.06,6.57,4.79,9.08,6.74c.79.65,0,3.65,0,3.65l9.28,1.05s.53-2.22,1.18-4.18,7.84-.39,11.63-8.42S383,471.7,380.62,469.61Z" transform="translate(-113.37 -50.33)" style="fill:#454c54"/><polygon points="259.95 431.37 248.22 424.01 246.54 430.04 258.32 433.49 259.95 431.37" style="fill:#332928"/><circle cx="243.6" cy="427.97" r="6.8" style="fill:#332928"/><path d="M350.16,426.49c.09,7.36-1.33,12.84-3.07,16.58-1.91,4.24-4.24,6.23-5.32,6.28-3.07,0-5.77-8.27-6-20.07-.17-11.22.87-22.39,6-26.47,2.49-1.95,5.86,3.58,7.48,13A68,68,0,0,1,350.16,426.49Z" transform="translate(-113.37 -50.33)" style="fill:#a35d1d"/><path d="M350.16,426.49c.09,7.36-1.33,12.84-3.07,16.58-1.91-1.37-2.95-7.23-2.33-14.08.58-6.48,2.45-11.76,4.49-13.17A68,68,0,0,1,350.16,426.49Z" transform="translate(-113.37 -50.33)" style="fill:#454c54"/><circle cx="260.19" cy="433.49" r="2.81" style="fill:#332928"/><path d="M888.65,522.27c-6.34-10-4.68-23-7.12-34.57-3.07-14.59-12.59-26.83-20.13-39.7s-13.36-28.47-8.25-42.49a6.86,6.86,0,0,1,2-3.2c1.7-1.29,4.11-.95,6.16-.33,14.56,4.37,24.23,18.4,29.28,32.74s6.69,29.71,11.73,44c2.08,5.93,4.78,12,3.83,18.24-.82,5.39-4.29,11.09-1.62,15.84.91,1.62,2.55,3.18,2.13,5a5,5,0,0,1-1.82,2.44c-2.24,2-4.58,4-7.42,4.83s-6.36.28-8-2.17" transform="translate(-113.37 -50.33)" style="fill:#844d3c"/></svg>