<svg xmlns="http://www.w3.org/2000/svg" viewBox="0 0 499.16 604.54"><title>Asset 14</title><circle cx="431.79" cy="326.47" r="67.38" style="fill:#f1f8fa"/><path d="M147.83,0A300.81,300.81,0,0,0,0,38.58V74.86A269.92,269.92,0,0,1,147.83,31.05c149.79,0,271.22,121.43,271.22,271.22S297.62,573.49,147.83,573.49A269.92,269.92,0,0,1,0,529.68V566a300.81,300.81,0,0,0,147.83,38.58c166.93,0,302.27-135.33,302.27-302.27S314.76,0,147.83,0Z" style="fill:#f1f8fa"/><path d="M431.32,277.81A50,50,0,0,0,412,374a9.85,9.85,0,0,0,3.62.72,9.37,9.37,0,0,0,3.62-18h0a31.25,31.25,0,1,1,24.14,0h0a9.37,9.37,0,0,0,3.62,18,9.85,9.85,0,0,0,3.62-.72,50,50,0,0,0-19.31-96.14" style="fill:#1ca84f"/><path d="M412.57,327.81a18.75,18.75,0,1,1,18.75,18.76,18.75,18.75,0,0,1-18.75-18.76" style="fill:#1ca84f"/></svg>