<svg xmlns="http://www.w3.org/2000/svg" viewBox="0 0 499.16 604.54"><title>Asset 15</title><circle cx="67.38" cy="326.47" r="67.38" style="fill:#f1f8fa"/><path d="M351.34,0A300.8,300.8,0,0,1,499.16,38.58V74.86A269.91,269.91,0,0,0,351.34,31.05c-149.79,0-271.22,121.43-271.22,271.22S201.55,573.49,351.34,573.49a269.91,269.91,0,0,0,147.82-43.81V566a300.8,300.8,0,0,1-147.82,38.58c-166.94,0-302.27-135.33-302.27-302.27S184.4,0,351.34,0Z" style="fill:#f1f8fa"/><path d="M67.84,277.81A50,50,0,0,1,87.15,374a9.85,9.85,0,0,1-3.62.72,9.37,9.37,0,0,1-3.62-18h0a31.25,31.25,0,1,0-24.14,0h0a9.37,9.37,0,0,1-3.62,18,9.85,9.85,0,0,1-3.62-.72,50,50,0,0,1,19.31-96.14" style="fill:#1ca84f"/><path d="M86.59,327.81a18.75,18.75,0,1,0-18.75,18.76,18.75,18.75,0,0,0,18.75-18.76" style="fill:#1ca84f"/></svg>