<?xml version="1.0" encoding="UTF-8"?>
<svg width="162px" height="49px" viewBox="0 0 162 49" version="1.1" xmlns="http://www.w3.org/2000/svg" xmlns:xlink="http://www.w3.org/1999/xlink">
    <!-- Generator: Sketch 46.2 (44496) - http://www.bohemiancoding.com/sketch -->
    <title>GO-JEK</title>
    <desc>Created with Sketch.</desc>
    <defs>
        <polygon id="path-1" points="1.4834523e-20 0.356545712 1.4834523e-20 31.4429436 21.6014959 31.4429436 21.6014959 0.356545712 0 0.356545712"></polygon>
        <polygon id="path-3" points="24.2781081 30.7481986 24.2781081 0.396833457 0.557695946 0.396833457 0.557695946 30.7481986 24.2781081 30.7481986"></polygon>
        <polygon id="path-5" points="30.7520824 0.0103379046 0.642001712 0.0103379046 0.642001712 7.03845728 30.7520824 7.03845728 30.7520824 0.0103379046"></polygon>
        <polygon id="path-7" points="0.463232432 30.7177845 12.0211064 30.7177845 12.0211064 0.0763556356 0.463232432 0.0763556356"></polygon>
    </defs>
    <g id="Symbols" stroke="none" stroke-width="1" fill="none" fill-rule="evenodd">
        <g id="Navbar" transform="translate(-102.000000, -15.000000)">
            <g id="GO-JEK">
                <g transform="translate(102.000000, 15.000000)">
                    <g id="Group-5" transform="translate(0.000000, 16.218577)">
                        <mask id="mask-2" fill="white">
                            <use xlink:href="#path-1"></use>
                        </mask>
                        <g id="Clip-4"></g>
                        <path d="M21.4384014,6.66795335 C21.3289419,6.7359713 21.180077,6.76998028 20.9896176,6.76998028 L20.8681176,6.76998028 C19.88955,6.71622416 18.6668878,6.64710914 17.2001311,6.56592643 C15.7322797,6.48364665 14.1286986,6.44305529 12.3904824,6.44305529 C11.5750095,6.44305529 10.8339689,6.55276166 10.1684554,6.76998028 C9.50294189,6.98829596 8.93922568,7.36239469 8.47730676,7.89337354 C8.01538784,8.42435239 7.66183378,9.13963794 7.41773919,10.0381331 C7.17364459,10.9366283 7.05105,12.0534392 7.05105,13.3874687 L7.05105,18.4943004 C7.05105,19.9106096 7.1933473,21.0669148 7.47903649,21.9665071 C7.76472568,22.8650023 8.13141486,23.5737054 8.57910405,24.0904225 C9.02788784,24.6082365 9.52264459,24.9614911 10.0666581,25.1523801 C10.6106716,25.3432692 11.1262257,25.4387138 11.6155095,25.4387138 C12.7298068,25.4387138 13.7762392,25.3970254 14.7537122,25.3158426 L14.7537122,15.9205889 C14.7537122,15.7022732 14.8281446,15.5113841 14.9781041,15.3490187 C15.1269689,15.1855562 15.3108608,15.1032764 15.5286851,15.1032764 L20.745523,15.1032764 C20.9622527,15.1032764 21.1527122,15.1855562 21.3158068,15.3490187 C21.4789014,15.5113841 21.5609959,15.7022732 21.5609959,15.9205889 L21.5609959,29.6459532 C21.5609959,30.1637673 21.2884419,30.4764304 20.745523,30.5850397 C19.6312257,30.8033554 18.3406986,31.0008269 16.8739419,31.1774542 C15.4060905,31.3540814 13.6536446,31.4429436 11.6155095,31.4429436 C10.8547662,31.4429436 10.0327257,31.3617609 9.14938784,31.1982984 C8.26714459,31.0348359 7.39694189,30.7627641 6.54206351,30.3809859 C5.68609054,30.0003048 4.86295541,29.4824907 4.07594189,28.8286407 C3.28783378,28.1747907 2.58838784,27.3717401 1.97650946,26.4183917 C1.36572568,25.4661404 0.883009459,24.3284853 0.529455405,23.0076206 C0.175901351,21.6867558 -0.000328378378,20.1684196 -0.000328378378,18.453709 L-0.000328378378,13.3874687 C-0.000328378378,10.7731658 0.366360811,8.62840624 1.10083378,6.95428699 C1.83421216,5.27907067 2.79198243,3.95162356 3.97414459,2.97084858 C5.15630676,1.99117067 6.48623919,1.30989409 7.96832027,0.928115916 C9.44821216,0.547434801 10.9226311,0.356545712 12.3904824,0.356545712 C14.4286176,0.356545712 16.1668338,0.472834468 17.6073203,0.704314915 C19.0467122,0.935795362 20.1478743,1.13326683 20.9086176,1.29672933 C21.3705365,1.37791205 21.6014959,1.5819659 21.6014959,1.90889089 L21.6014959,6.23900143 C21.6014959,6.45731712 21.5467662,6.5999354 21.4384014,6.66795335" id="Fill-3" fill="#231F20" mask="url(#mask-2)"></path>
                    </g>
                    <path d="M43.5285243,29.677245 C43.5285243,27.1880074 43.113673,25.3965023 42.2850649,24.3027298 C41.4564568,23.2089573 40.186727,22.6615225 38.4747811,22.6615225 C36.7628351,22.6615225 35.499673,23.2089573 34.6842,24.3027298 C33.868727,25.3965023 33.4615378,27.1880074 33.4615378,29.677245 L33.4615378,34.5602757 C33.4615378,37.0495133 33.868727,38.8399213 34.6842,39.9347909 C35.499673,41.0285634 36.7628351,41.5749012 38.4747811,41.5749012 C40.186727,41.5749012 41.4564568,41.0285634 42.2850649,39.9347909 C43.113673,38.8399213 43.5285243,37.0495133 43.5285243,34.5602757 L43.5285243,29.677245 Z M50.4978081,34.549305 C50.4978081,36.9178656 50.1858486,38.9342688 49.5619297,40.5952233 C48.9380108,42.2561777 48.084227,43.6110514 46.9983892,44.6598444 C45.9136459,45.7075402 44.6384432,46.4710966 43.1738757,46.9472223 C41.7093081,47.4233479 40.1352811,47.6614107 38.4539838,47.6614107 C36.7726865,47.6614107 35.1986595,47.4233479 33.7340919,46.9472223 C32.2695243,46.4710966 30.9943216,45.7075402 29.9095784,44.6598444 C28.8237405,43.6110514 27.9699568,42.2561777 27.3460378,40.5952233 C26.7221189,38.9342688 26.4101595,36.9178656 26.4101595,34.549305 L26.4101595,29.6882156 C26.4101595,27.318558 26.7221189,25.3032519 27.3460378,23.6422974 C27.9699568,21.9813429 28.8237405,20.6264692 29.9095784,19.5776763 C30.9943216,18.5299804 32.2695243,17.7675212 33.7340919,17.2902984 C35.1986595,16.8141728 36.7726865,16.5750129 38.4539838,16.5750129 C40.1352811,16.5750129 41.7093081,16.8141728 43.1738757,17.2902984 C44.6384432,17.7675212 45.9136459,18.5299804 46.9983892,19.5776763 C48.084227,20.6264692 48.9380108,21.9813429 49.5619297,23.6422974 C50.1858486,25.3032519 50.4978081,27.318558 50.4978081,29.6882156 L50.4978081,34.549305 Z" id="Fill-6" fill="#231F20"></path>
                    <path d="M131.472304,47.4655849 C130.766291,47.5752912 129.821655,47.6904829 128.639493,47.8133541 C127.458426,47.9351281 125.766182,47.9965637 123.566047,47.9965637 C122.261291,47.9965637 121.009074,47.8879544 119.808304,47.6696387 C118.607534,47.4524201 117.549061,47.0300506 116.63398,46.4036272 C115.717804,45.7772038 114.986615,44.885291 114.440412,43.7278887 C113.894209,42.5704865 113.620561,41.0664121 113.620561,39.2145685 L113.620561,25.6515696 C113.620561,23.8008231 113.894209,22.3022341 114.440412,21.1579966 C114.986615,20.0148562 115.717804,19.1306228 116.63398,18.5031024 C117.549061,17.876679 118.614101,17.4554065 119.828007,17.2370908 C121.041912,17.0198722 122.301791,16.9101658 123.606547,16.9101658 C124.692385,16.9101658 125.650155,16.9310101 126.479858,16.9716014 C127.308466,17.0121928 128.035277,17.0604636 128.660291,17.1142197 C129.285304,17.1690729 129.821655,17.2239261 130.269345,17.2776822 C130.718128,17.3325354 131.11875,17.3873886 131.472304,17.4411447 C132.015223,17.5234245 132.287777,17.7954963 132.287777,18.2584572 L132.287777,22.0575889 C132.287777,22.2759046 132.205682,22.4656966 132.042588,22.6291591 C131.879493,22.7926216 131.689034,22.8738043 131.472304,22.8738043 L123.199358,22.8738043 C122.247061,22.8738043 121.57498,23.0723728 121.180926,23.4662187 C120.786872,23.8622587 120.589845,24.589612 120.589845,25.6515696 L120.589845,29.3695186 L131.146115,29.3695186 C131.362845,29.3695186 131.553304,29.4507013 131.716399,29.6141638 C131.879493,29.7776263 131.961588,29.9685154 131.961588,30.1868311 L131.961588,34.0671455 C131.961588,34.2854612 131.879493,34.4752532 131.716399,34.6387157 C131.553304,34.8021782 131.362845,34.884458 131.146115,34.884458 L120.589845,34.884458 L120.589845,39.2145685 C120.589845,40.2765262 120.786872,41.0049766 121.180926,41.3999195 C121.57498,41.7948624 122.247061,41.9923339 123.199358,41.9923339 L131.472304,41.9923339 C131.689034,41.9923339 131.879493,42.0735166 132.042588,42.2369791 C132.205682,42.4004416 132.287777,42.5913307 132.287777,42.8085493 L132.287777,46.607681 C132.287777,47.0980685 132.015223,47.3844021 131.472304,47.4655849" id="Fill-8" fill="#231F20"></path>
                    <g id="Group-12" transform="translate(136.824324, 16.880739)">
                        <mask id="mask-4" fill="white">
                            <use xlink:href="#path-3"></use>
                        </mask>
                        <g id="Clip-11"></g>
                        <path d="M24.2786554,0.846629586 C24.2786554,1.01009208 24.2107905,1.20098117 24.0750608,1.41819979 L14.3747635,15.2258439 L24.1155608,29.8902948 C24.2239257,30.0274278 24.2786554,30.1766284 24.2786554,30.3400909 C24.2786554,30.6121627 24.0881959,30.7481986 23.7083716,30.7481986 L16.6974932,30.7481986 C16.4533986,30.7481986 16.2695068,30.6944425 16.1469122,30.5847361 C16.0243176,30.4761268 15.9093851,30.3400909 15.8010203,30.1766284 L7.52697973,16.6959093 L7.52697973,29.9319832 C7.52697973,30.1492018 7.44597973,30.3400909 7.28288514,30.5035534 C7.11979054,30.6670159 6.92933108,30.7481986 6.71150676,30.7481986 L1.37316892,30.7481986 C1.15534459,30.7481986 0.964885135,30.6670159 0.801790541,30.5035534 C0.638695946,30.3400909 0.557695946,30.1492018 0.557695946,29.9319832 L0.557695946,1.17355458 C0.557695946,0.955238896 0.638695946,0.772029253 0.801790541,0.621731522 C0.964885135,0.472530854 1.15534459,0.396833457 1.37316892,0.396833457 L6.71150676,0.396833457 C6.92933108,0.396833457 7.11979054,0.472530854 7.28288514,0.621731522 C7.44597973,0.772029253 7.52697973,0.955238896 7.52697973,1.17355458 L7.52697973,14.1638862 L16.4938986,0.887220944 C16.6832635,0.560295953 16.9820878,0.396833457 17.3903716,0.396833457 L23.626277,0.396833457 C24.0608311,0.396833457 24.2786554,0.547131188 24.2786554,0.846629586" id="Fill-10" fill="#231F20" mask="url(#mask-4)"></path>
                    </g>
                    <polygon id="Fill-13" fill="#8CC63F" points="80.0105959 44.4250458 73.4430284 44.4234271 73.4430284 44.4765178 80.1835419 44.4784602"></polygon>
                    <polygon id="Fill-15" fill="#8CC63F" points="81.0466297 46.2446411 70.912873 46.2433462 70.912873 46.2964369 81.2567919 46.300969"></polygon>
                    <polygon id="Fill-17" fill="#8CC63F" points="79.6697392 42.5660875 75.1534419 42.56544 75.1534419 42.6437811 79.7233743 42.6224154"></polygon>
                    <g id="Group-21" transform="translate(56.918919, 0.424783)">
                        <mask id="mask-6" fill="white">
                            <use xlink:href="#path-5"></use>
                        </mask>
                        <g id="Clip-20"></g>
                    </g>
                    <g id="Group-2" transform="translate(53.077869, 0.000000)" fill="#8CC63F">
                        <path d="M9.25984061,10.9794393 C10.0851649,10.4429752 19.8555163,3.20125747 29.9060839,11.4687297 C29.9060839,11.4687297 31.0641649,11.1966579 30.9952055,10.4352957 C30.9240568,9.67722467 20.6764622,0.884258872 8.13678655,9.78583398 C7.76134061,10.0524205 8.43451628,11.5137094 9.25984061,10.9794393" id="Fill-22"></path>
                        <g id="Group">
                            <path d="M33.7403393,45.4971234 C31.3333257,45.3950965 29.4637582,43.3512668 29.5666501,40.9377265 C29.6202852,39.7013357 30.1840014,38.6086603 31.0421636,37.8505892 L32.0404339,39.5905323 C31.6387176,39.9865723 31.3782041,40.5274247 31.3519339,41.134101 C31.2982987,42.408889 32.2845284,43.4851085 33.5564474,43.5410588 C34.8261771,43.595912 35.901069,42.6063605 35.9568933,41.3348636 C36.0105284,40.0600756 35.0242987,38.9816619 33.7534744,38.9279058 C33.6582447,38.9235175 33.5641095,38.9268087 33.471069,38.9344882 C33.2390149,38.4923715 32.8723257,37.794639 32.464042,37.0069472 C32.9785014,36.8237376 33.5367447,36.7304871 34.1168798,36.7557196 C36.5249879,36.8588436 38.3934609,38.9026733 38.290569,41.3151165 C38.1843933,43.7297537 36.1473528,45.6035386 33.7403393,45.4971234 L33.7403393,45.4971234 Z M26.4842717,28.4695973 C22.5032311,28.1591282 19.0486906,29.8409269 19.0486906,29.8409269 C19.0486906,29.8409269 18.931569,30.0010982 18.8133528,29.8321504 C18.1193798,28.8404048 18.040569,28.1020809 18.040569,28.1020809 L19.6988798,24.2404166 C20.9806501,25.8574885 26.5225825,27.587558 26.5225825,27.587558 L26.4842717,28.4695973 Z M8.37420412,45.1789749 C6.04819061,45.076948 4.23225817,43.1680571 4.20817709,40.8642233 L6.05585277,40.9432119 C5.99455547,42.3244151 7.06506899,43.492788 8.44316358,43.5531265 C9.82454196,43.6123679 10.988096,42.5405367 11.0472041,41.1571393 L12.8926906,41.2394191 C12.6715825,43.5333793 10.6980284,45.2788077 8.37420412,45.1789749 L8.37420412,45.1789749 Z M8.75074466,36.4507359 C8.95652844,36.4595124 9.15465007,36.4891331 9.35277169,36.5264333 L8.73542034,38.5560012 C8.70805547,38.5538071 8.68506899,38.55271 8.65989331,38.5494188 C7.61565007,38.5044392 6.69290682,39.1078242 6.28243385,40.0030283 L4.30231223,39.9174573 C4.73029872,37.8604628 6.58782574,36.3563884 8.75074466,36.4507359 L8.75074466,36.4507359 Z M10.9092852,37.140789 C11.9819879,37.8330362 12.7285014,38.9750795 12.8850284,40.2904589 L10.901623,40.204888 C10.739623,39.7507036 10.4517447,39.3568577 10.0741095,39.0661358 L10.9092852,37.140789 Z M34.1442447,34.7426077 C33.2215014,34.7020163 32.3337852,34.8588964 31.5237852,35.1737537 C30.6864203,33.5160904 29.9672717,32.0098219 30.1205149,32.0175014 C30.4587447,32.0317632 31.8083798,32.0899076 31.8083798,32.0899076 C31.8083798,32.0899076 32.0349609,29.997807 31.9484879,28.8425989 C31.8631095,27.6851967 31.4592041,27.6654495 31.4592041,27.6654495 L29.947569,28.1404781 C28.1633798,28.7449603 27.8984879,28.5968566 27.8984879,28.5968566 C27.8984879,28.5968566 27.9203798,26.8108369 27.5810555,26.795478 C27.2428257,26.7812162 25.5943663,26.3632349 25.5943663,26.3632349 C25.4542582,26.0922602 24.3454339,25.5053311 23.7663933,25.0719909 C23.1183933,24.333667 20.8613393,22.697945 19.2314879,21.5569987 C19.4482176,21.6184343 19.6758933,21.6579286 19.9112311,21.6667051 C21.5323257,21.7380142 22.9049474,20.477488 22.976096,18.8505425 C23.0450555,17.223597 21.7862717,15.8500732 20.1651771,15.778764 C18.5397041,15.7063578 17.1692717,16.9701752 17.098123,18.5960237 C17.068569,19.2992415 17.2885825,19.9563827 17.6771636,20.4818762 C17.5337717,20.3853346 17.4549609,20.3315785 17.4549609,20.3315785 C17.0641906,19.9750328 16.612123,20.4445761 16.612123,20.4445761 C16.612123,20.4445761 12.8379609,27.9452008 12.6146636,28.4092587 C12.3913663,28.8744138 13.296596,29.8639653 13.296596,29.8639653 L8.14871763,29.9780599 C7.26756899,30.0087777 6.59986628,32.9642674 6.59986628,32.9642674 C3.19020412,33.5643612 1.18162304,37.7496593 1.18162304,37.7496593 L2.03540682,38.3958299 L1.97301493,39.8165274 L0.419785202,39.7496065 C-0.146120204,40.3332444 0.379285202,40.6974696 0.379285202,40.6974696 L1.93142034,40.7654875 L1.93142034,40.7918171 L1.92156899,41.0364623 L1.92704196,41.0364623 C1.92266358,44.5788811 4.70621763,47.5255943 8.27240682,47.6802802 C11.8407852,47.8327721 14.8695284,45.1350924 15.1683528,41.600353 C15.8853122,41.5937707 19.1526771,41.5696353 21.2488257,41.600353 C23.6164339,41.6354591 24.2162717,40.2367028 24.2162717,40.2367028 L24.4297176,35.2966248 C24.4297176,35.2966248 25.9172717,35.3613516 26.6079609,35.0508826 C27.2942717,34.7426077 28.316623,33.0926238 28.316623,33.0926238 L29.9946366,36.022881 C28.4862852,37.1484684 27.4781636,38.9202263 27.3895014,40.9486972 C27.234069,44.5328044 30.0088663,47.5628944 33.5838122,47.7197745 C37.1587582,47.8744605 40.1842176,45.094501 40.3385555,41.5092968 C40.4939879,37.9262866 37.718096,34.8961966 34.1442447,34.7426077 L34.1442447,34.7426077 Z" id="Fill-1"></path>
                            <path d="M6.17231763,6.85327292 C7.25487169,6.18625817 20.0660068,-2.83489688 33.2449257,7.46324036 C33.2449257,7.46324036 34.6788447,7.11985941 34.5890879,6.17528754 C34.4982366,5.22852154 21.0577095,-5.72565981 4.61470953,5.36346038 C4.12323655,5.69806481 5.08866899,7.51809354 6.17231763,6.85327292" id="Fill-19"></path>
                            <path d="M12.8184771,14.6786285 C13.3635852,14.2957533 19.7998014,9.08140936 26.4199095,15.0329801 C26.4199095,15.0329801 27.142342,14.7477435 27.096369,14.2003087 C27.0514906,13.653971 20.2967474,7.32391326 12.0347474,13.7329596 C11.787369,13.9238487 12.2744636,15.0636979 12.8184771,14.6786285" id="Fill-24"></path>
                        </g>
                    </g>
                    <g id="Group-28" transform="translate(96.324324, 17.315641)">
                        <mask id="mask-8" fill="white">
                            <use xlink:href="#path-7"></use>
                        </mask>
                        <g id="Clip-27"></g>
                        <path d="M11.7288,27.7256528 C11.4234081,28.4541031 11.0118405,29.0322557 10.4897189,29.4568194 C9.96869189,29.880286 9.35352973,30.1808815 8.64642162,30.3564117 C7.94040811,30.5297477 7.17419189,30.6175128 6.35105676,30.6175128 C5.97889459,30.6175128 5.48851622,30.688822 5.19625946,30.6668807 C4.90290811,30.6449394 1.4823,30.7513546 1.04774595,30.7074721 C0.721556757,30.6635895 0.559556757,30.4792828 0.559556757,30.1512607 L0.463232432,24.7734543 C0.463232432,24.664845 0.494975676,24.5628181 0.561745946,24.4640824 C0.626327027,24.3653466 0.7128,24.3159788 0.822259459,24.3159788 L3.83348919,24.336823 C4.20236757,24.336823 4.43551622,24.2446696 4.53402973,24.0592658 C4.63254324,23.872765 4.68070541,23.5732666 4.68070541,23.1585765 L4.61940811,0.697293707 C4.61940811,0.523957638 4.68289459,0.37475697 4.81315135,0.255177024 C4.9455973,0.136694141 5.09665135,0.0763556356 5.2695973,0.0763556356 L11.369773,0.118044057 C11.5416243,0.118044057 11.6959622,0.177285499 11.8262189,0.296865445 C11.9564757,0.417542456 12.0210568,0.564548996 12.0210568,0.738982129 L12.0210568,24.5935359 C12.0210568,25.7026673 12.0320027,26.9961055 11.7288,27.7256528" id="Fill-26" fill="#231F20" mask="url(#mask-8)"></path>
                    </g>
                </g>
            </g>
        </g>
    </g>
</svg>