<svg xmlns="http://www.w3.org/2000/svg" viewBox="0 0 491.56 615"><title>1</title><path d="M491,0q0,305.25-.14,610.5c0,1.29,2.47,4.63-1.86,4.5-.88-1.78-2.72-1.65-4.25-2.09Q288.64,556,92.49,499.11c-22.31-6.45-42.25-16.87-59.18-32.84-15-14.11-25.85-30.75-30.91-50.91C1.7,412.55,2,409.45,0,407V375c1.63-.74,1-2.31,1.17-3.51C4.54,340,19.46,315,44,295.26c7.53-6.05,15.21-11.9,23.16-17.39,28.1-19.37,57-37.57,85.2-56.76C258.64,148.86,367,79.78,474.93,10,480.23,6.56,485.64,3.32,491,0Z" style="fill:#70ce1c"/></svg>