<svg xmlns="http://www.w3.org/2000/svg" viewBox="0 0 188.22 680"><title>2</title><path d="M0,0C15.13,7.72,29.19,17.25,43.67,26.07q48.58,29.57,97,59.51A104.22,104.22,0,0,1,178.29,126c10.67,20,12.75,40.69,6.2,62.7-9.18,30.83-27.89,52.43-58,64l-22.32,8.58c-2.62-3-5.36-5.86-7.82-9A280.48,280.48,0,0,0,10,179.85C6.89,178.14,4,175.63,0,176Z" style="fill:#70cf1d"/><path d="M0,176c4-.37,6.89,2.14,10,3.85A280.48,280.48,0,0,1,96.34,252.3c2.46,3.11,5.2,6,7.82,9,7.13,11.94,14.86,23.56,21.28,35.86,14.67,28.12,24.7,57.8,28.75,89.43,1.89,14.78,4.39,29.54,3.67,44.45a400.25,400.25,0,0,1-5.15,48.25c-5,29.11-14.85,56.37-28.58,82.32-9.5,17.94-21.59,34.07-34.31,49.88-15.15,18.84-33.68,33.72-52.64,48.22-10.3,7.89-22.07,13.46-33.25,19.94-1,.6-2.61.28-3.93.38V652c10.43-3.09,18.58-10.15,27.09-16.31C64.81,608.38,92.85,573,111.58,530.54c9.64-21.88,15.36-45,18.69-68.79,2.55-18.29,1.94-36.53,1.46-54.73-.43-16.52-4.07-32.83-8.7-48.73-8-27.62-19.69-53.58-36.32-77.21a53.5,53.5,0,0,0-10.07-10.94c.16-3.37-2.29-5.39-4.16-7.59A260.36,260.36,0,0,0,7.24,206.87C5,205.53,2.84,203.87,0,204Z" style="fill:#ebebea"/><path d="M0,204c2.84-.13,5,1.53,7.24,2.87a260.36,260.36,0,0,1,65.24,55.68c1.87,2.2,4.32,4.22,4.16,7.59C50.73,277.67,25.67,287.74,0,296Z" style="fill:#70cf1d"/></svg>