<svg xmlns="http://www.w3.org/2000/svg" viewBox="0 0 452.08 778.08"><title>3</title><path d="M452.08,464c-25.87-8.65-51.79-17.13-77.58-26A408.59,408.59,0,0,1,324,416.55q-60.11-30.26-85.59-92.42c-10.19-25.06-18.92-50.52-18.85-78.09,1.48-1.57,3.5-1.75,5.45-2.18,42.39-9.38,84.62-8.58,126.42,3.08,37.75,10.52,71.65,28.37,100.64,55.06Z" style="fill:#70cf1d"/><path d="M222.18,218c-.39-9.93,3.23-19.07,6.55-28,11.26-30.32,29.49-56.25,52.13-79.09C293.55,98,308.44,87.94,323.65,78.42c21.52-13.47,43.27-26.57,64.9-39.86q30.84-19,61.64-38A7.58,7.58,0,0,1,452.08,0V270c-18-15.15-38.41-26.2-59.93-35.2-42.07-17.58-85.81-25-131.46-21.43C247.76,214.4,235.13,217.43,222.18,218Z" style="fill:#70cf1d"/><path d="M222.18,218c12.95-.53,25.58-3.56,38.51-4.59,45.65-3.61,89.39,3.85,131.46,21.43,21.52,9,42,20,59.93,35.2v32c-29-26.69-62.89-44.54-100.64-55.06-41.8-11.66-84-12.46-126.42-3.08-2,.43-4,.61-5.45,2.18-10.89.36-20.57,5.21-30.49,8.76a228,228,0,0,0-64.87,36.57C94.76,314.75,71,343,53.53,376.64,41.94,399,34.17,422.53,29,447c-1.63,7.67-3.33,15.59-2.89,23.61.41,7.37-2.37,14.32-2.13,21.76,1.26,38.15,7.93,74.93,24,110a257.27,257.27,0,0,0,64.28,86.56c35.36,31.11,76.61,50.66,123.16,59.41,23.15,4.36,46.37,4.82,69.49,3.37,24.5-1.54,48.38-7.74,71.37-16.75,22.74-8.91,43.6-21.12,63.22-35.6,4.19-3.09,6.5-8.74,12.57-9.26v32a8.1,8.1,0,0,0-4.59,1.67c-33,24.66-69.88,40.38-110.21,48.63a199.15,199.15,0,0,1-34.48,3.94c-8.23.23-16.39,2.15-24.75,1.79-39.4-1.71-77.47-8.41-113.58-25.57-24.18-11.48-46.9-25-66.94-42.47a291.32,291.32,0,0,1-58.11-69.17A287,287,0,0,1,7.27,563.88C3,547.6-.18,531,.05,513.9c.15-11,.22-22,0-33-.47-21.46,4.19-42.06,9.64-62.62,7.67-28.9,20.52-55.42,36.66-80.32a247.26,247.26,0,0,1,26.36-33.59c16.11-17.36,33.76-33,53.74-45.72,25.6-16.33,52.66-29.59,82.4-36.77C213.33,220.81,217.73,219.29,222.18,218Z" style="fill:#ebebea"/></svg>