<svg xmlns="http://www.w3.org/2000/svg" viewBox="0 0 221.64 794.27"><title>Asset 1</title><path d="M95.57,314c-20,5-39.22,12.31-58.64,19-9.4,3.26-18.84,6.42-28.23,9.73-2.84,1-5.6,2.12-8.7,1.51V.26c3.4-1,5.71,1.27,8.19,2.79C60.72,35.22,113.36,67.2,165.66,99.73c26.44,16.45,44.53,39.73,52.91,70.06a77.82,77.82,0,0,1,0,43.37q-2.81,9.57-6.2,19c-9.64,26.74-27.66,45.81-53.2,58.08-11.43,5.48-23.47,9.38-35.1,14.33C114.47,307.43,104.74,309.86,95.57,314Z" style="fill:#70cf1c"/><path d="M95.57,314c9.17-4.12,18.9-6.55,28.47-9.44.36,3.82,2.65,6.67,4.7,9.73,22.42,33.39,38.9,69.41,47.78,108.77a333.65,333.65,0,0,1,7.84,50.89c.7,10.25,2,20.48,1.56,30.74-1.59,40.33-8.83,79.55-23.74,117.21A331.09,331.09,0,0,1,115,703.55C101.13,721.34,85,737.17,67.81,752c-15.71,13.52-33,24.46-50.47,35.33-5.24,3.26-10.57,7.14-17.34,7v-28a12.68,12.68,0,0,0,6.62-1.63C37.83,747.37,64.2,724,87.4,697.43a289.8,289.8,0,0,0,58-102.38,322.75,322.75,0,0,0,13-60c2.43-19.95,1.88-39.84,1.29-59.67-.58-19.47-5.09-38.63-10.1-57.5-9.4-35.35-25.77-67.43-46.63-97.33A19.12,19.12,0,0,0,95.57,314Z" style="fill:#ebebeb"/></svg>