<?xml version="1.0" encoding="UTF-8"?>
<svg width="24px" height="28px" viewBox="0 0 24 28" version="1.1" xmlns="http://www.w3.org/2000/svg" xmlns:xlink="http://www.w3.org/1999/xlink">
    <!-- Generator: Sketch 46.2 (44496) - http://www.bohemiancoding.com/sketch -->
    <title>apple</title>
    <desc>Created with Sketch.</desc>
    <defs></defs>
    <g id="Symbols" stroke="none" stroke-width="1" fill="none" fill-rule="evenodd">
        <g id="footer" transform="translate(-814.000000, -197.000000)" fill-rule="nonzero" fill="#000000">
            <g transform="translate(101.000000, 87.000000)" id="download">
                <g transform="translate(501.000000, 110.000000)">
                    <g id="apple" transform="translate(212.000000, 0.000000)">
                        <path d="M17.8392523,6.53818182 C15.3271028,6.53818182 14.2654206,7.73818182 12.5158879,7.73818182 C10.7214953,7.73818182 9.35327103,6.54545455 7.17757009,6.54545455 C5.04672897,6.54545455 2.77383178,7.84727273 1.33084112,10.0654545 C-0.695327103,13.1927273 -0.351401869,19.0836364 2.93084112,24.1018182 C4.1046729,25.8981818 5.67476636,27.9127273 7.73084112,27.9345455 L7.7682243,27.9345455 C9.55514019,27.9345455 10.0859813,26.7636364 12.5457944,26.7490909 L12.5831776,26.7490909 C15.0056075,26.7490909 15.4915888,27.9272727 17.271028,27.9272727 L17.3084112,27.9272727 C19.364486,27.9054545 21.0168224,25.6727273 22.1906542,23.8836364 C23.035514,22.5963636 23.3495327,21.9490909 24,20.4945455 C19.2523364,18.6909091 18.4897196,11.9563636 23.1850467,9.37454545 C21.7495327,7.57818182 19.7383178,6.53818182 17.8392523,6.53818182 L17.8392523,6.53818182 Z" id="Shape"></path>
                        <path d="M17.2859813,0 C15.7906542,0.101818182 14.0485981,1.05454545 13.0242991,2.29818182 C12.0971963,3.42545455 11.3345794,5.09818182 11.6336449,6.72 L11.753271,6.72 C13.3457944,6.72 14.9757009,5.76 15.9252336,4.53090909 C16.8448598,3.36 17.5401869,1.70181818 17.2859813,0 L17.2859813,0 Z" id="Shape"></path>
                    </g>
                </g>
            </g>
        </g>
    </g>
</svg>