<?xml version="1.0" encoding="UTF-8"?>
<svg width="24px" height="26px" viewBox="0 0 24 26" version="1.1" xmlns="http://www.w3.org/2000/svg" xmlns:xlink="http://www.w3.org/1999/xlink">
    <!-- Generator: Sketch 46.2 (44496) - http://www.bohemiancoding.com/sketch -->
    <title>playstore</title>
    <desc>Created with Sketch.</desc>
    <defs></defs>
    <g id="Symbols" stroke="none" stroke-width="1" fill="none" fill-rule="evenodd">
        <g id="footer" transform="translate(-774.000000, -201.000000)" fill-rule="nonzero" fill="#303C42">
            <g transform="translate(101.000000, 87.000000)" id="download">
                <g transform="translate(501.000000, 110.000000)">
                    <g id="playstore" transform="translate(172.000000, 3.000000)">
                        <path d="M12.5127273,13.6338462 L0.949090909,1.24923077 C0.797020685,1.08405495 0.557487039,1.0286193 0.346896432,1.10986395 C0.136305824,1.1911086 -0.00167844881,1.39218851 -3.87731026e-16,1.61538462 L-3.87731026e-16,26.3846154 C-0.00167844881,26.6078115 0.136305824,26.8088914 0.346896432,26.8901361 C0.557487039,26.9713807 0.797020685,26.9159451 0.949090909,26.7507692 L12.5127273,14.3661538 C12.7067548,14.1596252 12.7067548,13.8403748 12.5127273,13.6338462 Z" id="Shape"></path>
                        <path d="M14.04,15.2707692 C13.933418,15.1642223 13.78805,15.1042516 13.6363636,15.1042516 C13.4846773,15.1042516 13.3393093,15.1642223 13.2327273,15.2707692 L4.2,24.9630769 C4.0179424,25.1592541 4.00831541,25.4572845 4.17734216,25.6645136 C4.34636891,25.8717426 4.64337314,25.9260405 4.87636364,25.7923077 C8.36727273,23.8 12.7090909,21.28 16.6036364,18.9969231 C16.7451536,18.9136146 16.8409395,18.77162 16.8642414,18.6105981 C16.8875433,18.4495763 16.8358636,18.2867852 16.7236364,18.1676923 L14.04,15.2707692 Z" id="Shape"></path>
                        <path d="M23.4545455,13.0523077 L23.4545455,13.0523077 L18.5454545,10.1769231 C18.3249021,10.0485054 18.0435529,10.0888228 17.8690909,10.2738462 L14.7272727,13.6338462 C14.5332452,13.8403748 14.5332452,14.1596252 14.7272727,14.3661538 L17.8690909,17.7261538 C18.0435529,17.9111772 18.3249021,17.9514946 18.5454545,17.8230769 L23.4109091,14.9476923 C23.7694233,14.7614991 23.9939007,14.3945226 23.9939007,13.9946154 C23.9939007,13.5947082 23.7694233,13.2277316 23.4109091,13.0415385 L23.4545455,13.0523077 Z" id="Shape"></path>
                        <path d="M13.2436364,12.7292308 C13.3470133,12.8415077 13.4935767,12.9055194 13.6472727,12.9055194 C13.8009687,12.9055194 13.9475321,12.8415077 14.0509091,12.7292308 L16.7454545,9.84307692 C16.8576818,9.723984 16.9093614,9.56119298 16.8860596,9.40017109 C16.8627577,9.23914919 16.7669718,9.09715461 16.6254545,9.01384615 C12.7090909,6.73076923 8.36727273,4.22153846 4.88727273,2.21846154 C4.65428223,2.08472873 4.357278,2.13902662 4.18825125,2.34625566 C4.0192245,2.55348469 4.02885149,2.85151509 4.21090909,3.04769231 L13.2436364,12.7292308 Z" id="Shape"></path>
                    </g>
                </g>
            </g>
        </g>
    </g>
</svg>