<?xml version="1.0" encoding="UTF-8"?>
<svg width="1440px" height="315px" viewBox="0 0 1440 315" version="1.1" xmlns="http://www.w3.org/2000/svg" xmlns:xlink="http://www.w3.org/1999/xlink">
    <!-- Generator: Sketch 46.2 (44496) - http://www.bohemiancoding.com/sketch -->
    <title>waves</title>
    <desc>Created with Sketch.</desc>
    <defs>
        <linearGradient x1="50%" y1="0%" x2="50%" y2="100%" id="linearGradient-1">
            <stop stop-color="#70F6E9" offset="0%"></stop>
            <stop stop-color="#CAE9E6" offset="15.5034279%"></stop>
            <stop stop-color="#FFFFFF" offset="100%"></stop>
        </linearGradient>
        <linearGradient x1="50%" y1="0%" x2="50%" y2="100%" id="linearGradient-2">
            <stop stop-color="#63DACD" offset="0%"></stop>
            <stop stop-color="#DCF2F0" offset="10.8637596%"></stop>
            <stop stop-color="#FFFFFF" offset="100%"></stop>
        </linearGradient>
    </defs>
    <g id="Symbols" stroke="none" stroke-width="1" fill="none" fill-rule="evenodd" fill-opacity="0.3">
        <g id="footer">
            <g id="waves">
                <path d="M-2.83106837e-14,59.4073774 C-2.83106837e-14,59.4073774 208.023253,-14.6748791 490,2.73087383 C740,18.1627783 852,122.555073 1036,108.938687 C1220,95.3223008 1440,49.0265873 1440,49.0265873 L1440,314.092241 L-2.83106837e-14,315 L-2.83106837e-14,59.4073774 Z" id="Rectangle-14" fill="url(#linearGradient-1)"></path>
                <path d="M0,49.832578 C0,49.832578 156,-10.5967324 445,42.617138 C733,115.673469 941.831585,54.9678696 1081,42.617138 C1223.17047,29.999984 1440,87.7136383 1440,87.7136383 L1440,315 L0,314.09807 L0,49.832578 Z" id="Rectangle-14-Copy" fill="url(#linearGradient-2)" transform="translate(720.000000, 167.851217) scale(-1, 1) translate(-720.000000, -167.851217) "></path>
            </g>
        </g>
    </g>
</svg>