<?xml version="1.0" encoding="UTF-8"?>
<svg width="25px" height="25px" viewBox="0 0 25 25" version="1.1" xmlns="http://www.w3.org/2000/svg" xmlns:xlink="http://www.w3.org/1999/xlink">
    <!-- Generator: Sketch 46.2 (44496) - http://www.bohemiancoding.com/sketch -->
    <title>linkedin</title>
    <desc>Created with Sketch.</desc>
    <defs></defs>
    <g id="Symbols" stroke="none" stroke-width="1" fill="none" fill-rule="evenodd">
        <g id="footer" transform="translate(-1298.000000, -198.000000)" fill-rule="nonzero" fill="#000000">
            <g transform="translate(101.000000, 87.000000)" id="linkedin">
                <g transform="translate(1197.000000, 111.000000)">
                    <path d="M0.432692308,8.3011583 L5.60576923,8.3011583 L5.60576923,25 L0.432692308,25 L0.432692308,8.3011583 Z M3.02884615,0 C4.68269231,0 6.02884615,1.35135135 6.02884615,3.01158301 C6.02884615,4.67181467 4.68269231,6.02316602 3.02884615,6.02316602 C1.36538462,6.02316602 0.0288461538,4.67181467 0.0288461538,3.01158301 C0.0288461538,1.35135135 1.36538462,0 3.02884615,0 L3.02884615,0 Z" id="XMLID_195_"></path>
                    <path d="M8.85576923,8.3011583 L13.8076923,8.3011583 L13.8076923,10.5888031 L13.875,10.5888031 C14.5673077,9.27606178 16.25,7.8957529 18.7692308,7.8957529 C24,7.8957529 24.9711538,11.3513514 24.9711538,15.8494208 L24.9711538,25 L19.8076923,25 L19.8076923,16.8822394 C19.8076923,14.9420849 19.7788462,12.4517375 17.125,12.4517375 C14.4326923,12.4517375 14.0288462,14.5656371 14.0288462,16.7374517 L14.0288462,25 L8.86538462,25 L8.85576923,8.3011583 L8.85576923,8.3011583 Z" id="XMLID_192_"></path>
                </g>
            </g>
        </g>
    </g>
</svg>