<?xml version="1.0" encoding="UTF-8"?>
<svg width="29px" height="23px" viewBox="0 0 29 23" version="1.1" xmlns="http://www.w3.org/2000/svg" xmlns:xlink="http://www.w3.org/1999/xlink">
    <!-- Generator: Sketch 46.2 (44496) - http://www.bohemiancoding.com/sketch -->
    <title>twitter</title>
    <desc>Created with Sketch.</desc>
    <defs></defs>
    <g id="Symbols" stroke="none" stroke-width="1" fill="none" fill-rule="evenodd">
        <g id="footer" transform="translate(-1167.000000, -200.000000)" fill-rule="nonzero" fill="#000000">
            <g transform="translate(101.000000, 87.000000)" id="twitter">
                <g transform="translate(1066.666667, 113.000000)">
                    <path d="M8.82875,23 C19.355,23 25.1125,14.1803846 25.1125,6.53730769 C25.1125,6.28961538 25.1125,6.04192308 25.095,5.78538462 C26.215,4.96269231 27.1775,3.95423077 27.9475,2.78653846 C26.90625,3.25538462 25.795,3.565 24.6575,3.69769231 C25.85625,2.97230769 26.74875,1.84 27.1775,0.495384615 C26.0575,1.16769231 24.82375,1.64538462 23.54625,1.90192308 C21.37625,-0.424615385 17.75375,-0.539615385 15.4525,1.65423077 C13.965,3.06961538 13.335,5.175 13.79875,7.18307692 C9.19625,6.95307692 4.90875,4.75038462 2.00375,1.14115385 C0.48125,3.78615385 1.26,7.16538462 3.77125,8.86384615 C2.86125,8.83730769 1.96875,8.58961538 1.1725,8.13846154 L1.1725,8.20923077 C1.1725,10.9603846 3.0975,13.3311538 5.76625,13.8796154 C4.92625,14.1096154 4.0425,14.145 3.185,13.9769231 C3.9375,16.33 6.08125,17.9488462 8.53125,17.9930769 C6.50125,19.6030769 3.99875,20.4788462 1.42625,20.4788462 C0.97125,20.4788462 0.51625,20.4523077 0.06125,20.3992308 C2.66875,22.0976923 5.71375,23 8.82875,23" id="XMLID_22_"></path>
                </g>
            </g>
        </g>
    </g>
</svg>