<?xml version="1.0" encoding="UTF-8"?>
<svg width="1000px" height="1000px" viewBox="0 0 1000 1000" version="1.1" xmlns="http://www.w3.org/2000/svg" xmlns:xlink="http://www.w3.org/1999/xlink">
    <!-- Generator: Sketch 46.2 (44496) - http://www.bohemiancoding.com/sketch -->
    <title>allocationviz</title>
    <desc>Created with Sketch.</desc>
    <defs>
        <filter x="-6.2%" y="-6.2%" width="112.3%" height="112.3%" filterUnits="objectBoundingBox" id="filter-1">
            <feGaussianBlur stdDeviation="0.546875" in="SourceGraphic"></feGaussianBlur>
        </filter>
        <filter x="-6.2%" y="-6.2%" width="112.3%" height="112.3%" filterUnits="objectBoundingBox" id="filter-2">
            <feGaussianBlur stdDeviation="0.546875" in="SourceGraphic"></feGaussianBlur>
        </filter>
        <filter x="-6.0%" y="-6.0%" width="112.0%" height="112.0%" filterUnits="objectBoundingBox" id="filter-3">
            <feGaussianBlur stdDeviation="0.546875" in="SourceGraphic"></feGaussianBlur>
        </filter>
        <filter x="-6.2%" y="-6.2%" width="112.3%" height="112.3%" filterUnits="objectBoundingBox" id="filter-4">
            <feGaussianBlur stdDeviation="0.546875" in="SourceGraphic"></feGaussianBlur>
        </filter>
        <filter x="-6.1%" y="-6.1%" width="112.3%" height="112.2%" filterUnits="objectBoundingBox" id="filter-5">
            <feGaussianBlur stdDeviation="0.546875" in="SourceGraphic"></feGaussianBlur>
        </filter>
        <filter x="-6.0%" y="-6.0%" width="112.1%" height="112.1%" filterUnits="objectBoundingBox" id="filter-6">
            <feGaussianBlur stdDeviation="0.546875" in="SourceGraphic"></feGaussianBlur>
        </filter>
        <filter x="-6.1%" y="-6.1%" width="112.3%" height="112.2%" filterUnits="objectBoundingBox" id="filter-7">
            <feGaussianBlur stdDeviation="0.546875" in="SourceGraphic"></feGaussianBlur>
        </filter>
        <filter x="-24.4%" y="-24.4%" width="148.9%" height="148.8%" filterUnits="objectBoundingBox" id="filter-8">
            <feGaussianBlur stdDeviation="40" in="SourceGraphic"></feGaussianBlur>
        </filter>
        <ellipse id="path-9" cx="141.5" cy="142" rx="141.5" ry="142"></ellipse>
        <filter x="-11.0%" y="-10.9%" width="121.9%" height="121.8%" filterUnits="objectBoundingBox" id="filter-10">
            <feGaussianBlur stdDeviation="2" in="SourceGraphic"></feGaussianBlur>
        </filter>
        <filter x="-15.4%" y="-15.3%" width="130.7%" height="130.6%" filterUnits="objectBoundingBox" id="filter-11">
            <feMorphology radius="5" operator="dilate" in="SourceAlpha" result="shadowSpreadOuter1"></feMorphology>
            <feOffset dx="0" dy="0" in="shadowSpreadOuter1" result="shadowOffsetOuter1"></feOffset>
            <feGaussianBlur stdDeviation="7.5" in="shadowOffsetOuter1" result="shadowBlurOuter1"></feGaussianBlur>
            <feColorMatrix values="0 0 0 0 0.356862745   0 0 0 0 0.968627451   0 0 0 0 0.968627451  0 0 0 0.204625226 0" type="matrix" in="shadowBlurOuter1"></feColorMatrix>
        </filter>
        <path d="M130.763392,12.4017467 L152.328044,12.4017467 L152.328044,12.4017467 C153.432614,12.4017467 154.328044,13.2971772 154.328044,14.4017467 C154.328044,14.5049243 154.32006,14.6079471 154.304163,14.7098927 L151.53072,32.4957947 C151.378866,33.4696224 150.540197,34.1876488 149.554601,34.1876488 L134.230197,34.1876488 C133.273156,34.1876488 132.45024,33.5096475 132.26714,32.570285 L128.800336,14.784383 C128.589012,13.700217 129.29659,12.6500147 130.380756,12.4386906 C130.506819,12.4141185 130.634957,12.4017467 130.763392,12.4017467 L130.763392,12.4017467 Z M181.139716,18.1084598 L200.990082,26.5344406 C202.006844,26.9660303 202.48122,28.140151 202.04963,29.1569126 C202.009315,29.251888 201.961711,29.3436014 201.907245,29.4312313 L192.404771,44.7195699 C191.884485,45.556649 190.83193,45.8899017 189.924684,45.5047985 L175.818495,39.5170766 C174.937535,39.143131 174.444953,38.1974886 174.643447,37.2612583 L178.401743,19.5346609 C178.630835,18.4541099 179.692511,17.7638664 180.773062,17.9929589 C180.898705,18.019597 181.02149,18.0582759 181.139716,18.1084598 L181.139716,18.1084598 Z M225.252322,42.7682683 L240.500833,58.01678 C241.281882,58.7978285 241.281882,60.0641585 240.500833,60.8452071 C240.427876,60.9181646 240.349382,60.9853671 240.266055,61.0462127 L225.728402,71.6616241 C224.932425,72.2428475 223.831676,72.1575402 223.134754,71.4606185 L212.298763,60.624628 C211.622033,59.947898 211.519563,58.8865891 212.054322,58.0928888 L222.179453,43.0649562 C222.796646,42.1489063 224.039584,41.9066344 224.955634,42.5238268 C225.062149,42.5955919 225.161504,42.6774505 225.252322,42.7682683 Z M256.861004,82.538067 L264.939264,102.532464 C265.353043,103.556603 264.858249,104.722266 263.83411,105.136045 C263.738445,105.174696 263.639933,105.205886 263.539456,105.229337 L246.009705,109.320561 C245.049902,109.544567 244.069989,109.035944 243.700778,108.122115 L237.960155,93.9135744 C237.601641,93.0262216 237.922003,92.0092433 238.724374,91.4875853 L253.916488,81.6105043 C254.842546,81.0084322 256.08134,81.2710745 256.683412,82.1971323 C256.753419,82.3048113 256.812891,82.4189835 256.861004,82.538067 Z M270.680277,131.263392 L270.680277,152.828044 C270.680277,153.932614 269.784846,154.828044 268.680277,154.828044 C268.577099,154.828044 268.474076,154.82006 268.372131,154.804163 L250.586229,152.03072 C249.612401,151.878866 248.894375,151.040197 248.894375,150.054601 L248.894375,134.730197 C248.894375,133.773156 249.572376,132.95024 250.511739,132.76714 L268.297641,129.300336 C269.381807,129.089012 270.432009,129.79659 270.643333,130.880756 C270.667905,131.006819 270.680277,131.134957 270.680277,131.263392 Z M265.00538,181.799668 L256.5794,201.650035 C256.14781,202.666797 254.973689,203.141172 253.956928,202.709582 C253.861952,202.669268 253.770239,202.621664 253.682609,202.567198 L238.39427,193.064724 L238.39427,193.064724 C237.557191,192.544437 237.223938,191.491883 237.609042,190.584637 L243.596764,176.478448 C243.970709,175.597487 244.916352,175.104905 245.852582,175.3034 L263.579179,179.061695 C264.65973,179.290788 265.349974,180.352464 265.120881,181.433015 C265.094243,181.558658 265.055564,181.681442 265.00538,181.799668 Z M240.436178,226.047876 L225.187666,241.296387 C224.406618,242.077436 223.140288,242.077436 222.359239,241.296387 C222.286281,241.22343 222.219079,241.144936 222.158233,241.061609 L211.542822,226.523956 L211.542822,226.523956 C210.961599,225.727979 211.046906,224.62723 211.743828,223.930308 L222.579818,213.094317 C223.256548,212.417587 224.317857,212.315117 225.111557,212.849876 L240.13949,222.975007 C241.05554,223.592199 241.297812,224.835138 240.680619,225.751188 C240.608854,225.857703 240.526996,225.957058 240.436178,226.047876 Z M200.80198,257.747163 L180.807583,265.825424 C179.783444,266.239203 178.617781,265.744409 178.204002,264.72027 C178.165351,264.624605 178.134161,264.526093 178.110711,264.425616 L174.019486,246.895864 C173.795481,245.936062 174.304103,244.956148 175.217932,244.586938 L189.426473,238.846315 C190.313826,238.487801 191.330804,238.808163 191.852462,239.610534 L201.729543,254.802648 C202.331615,255.728706 202.068973,256.9675 201.142915,257.569572 C201.035236,257.639579 200.921064,257.699051 200.80198,257.747163 Z M152.236608,271.598253 L130.671956,271.598253 C129.567386,271.598253 128.671956,270.702823 128.671956,269.598253 C128.671956,269.495076 128.67994,269.392053 128.695837,269.290107 L131.46928,251.504205 C131.621134,250.530378 132.459803,249.812351 133.445399,249.812351 L148.769803,249.812351 C149.726844,249.812351 150.54976,250.490353 150.73286,251.429715 L154.199664,269.215617 C154.410988,270.299783 153.70341,271.349985 152.619244,271.561309 C152.493181,271.585882 152.365043,271.598253 152.236608,271.598253 Z M101.860284,265.89154 L82.0099176,257.465559 C80.993156,257.03397 80.5187805,255.859849 80.9503702,254.843087 C80.9906848,254.748112 81.0382886,254.656399 81.092755,254.568769 L90.5952286,239.28043 C91.1155155,238.443351 92.1680696,238.110098 93.0753157,238.495201 L107.181505,244.482923 C108.062465,244.856869 108.555047,245.802511 108.356553,246.738742 L104.598257,264.465339 C104.369165,265.54589 103.307489,266.236134 102.226938,266.007041 C102.101295,265.980403 101.97851,265.941724 101.860284,265.89154 Z M57.7476783,241.231732 L42.4991666,225.98322 C41.718118,225.202171 41.718118,223.935842 42.4991666,223.154793 C42.5721241,223.081835 42.6506179,223.014633 42.7339451,222.953787 L57.2715976,212.338376 L57.2715976,212.338376 C58.0675746,211.757153 59.1683244,211.84246 59.8652462,212.539382 L70.7012366,223.375372 L70.7012366,223.375372 C71.3779667,224.052102 71.4804369,225.113411 70.9456781,225.907111 L60.8205468,240.935044 C60.2033545,241.851094 58.9604161,242.093366 58.0443662,241.476173 C57.9378509,241.404408 57.8384961,241.32255 57.7476783,241.231732 Z M26.3848732,201.565867 L17.9588924,181.7155 C17.5273027,180.698738 18.0016782,179.524618 19.0184398,179.093028 C19.1134153,179.052713 19.211368,179.019809 19.3114208,178.994609 L36.7671005,174.598071 L36.7671005,174.598071 C37.7228476,174.357348 38.7114884,174.848792 39.0965916,175.756038 L45.0843135,189.862227 C45.4582591,190.743188 45.1556946,191.765602 44.3625495,192.301184 L29.3451286,202.441899 C28.4297195,203.060042 27.1865304,202.819059 26.5683881,201.90365 C26.4965125,201.79721 26.4350571,201.684093 26.3848732,201.565867 Z M12.3197231,152.736608 L12.3197231,131.171956 C12.3197231,130.067386 13.2151536,129.171956 14.3197231,129.171956 C14.4229007,129.171956 14.5259235,129.17994 14.6278691,129.195837 L32.4137711,131.96928 C33.3875988,132.121134 34.1056252,132.959803 34.1056252,133.945399 L34.1056252,149.269803 C34.1056252,150.226844 33.4276239,151.04976 32.4882614,151.23286 L14.7023594,154.699664 L14.7023594,154.699664 C13.6181934,154.910988 12.5679912,154.20341 12.356667,153.119244 C12.3320949,152.993181 12.3197231,152.865043 12.3197231,152.736608 L12.3197231,152.736608 Z M17.9946196,102.200332 L26.4206005,82.349965 C26.8521901,81.3332034 28.0263108,80.8588278 29.0430724,81.2904175 C29.1380479,81.3307322 29.2297612,81.3783359 29.3173912,81.4328024 L44.6057297,90.9352759 C45.4428088,91.4555628 45.7760615,92.5081169 45.3909584,93.415363 L39.4032365,107.521552 C39.0292908,108.402513 38.0836484,108.895095 37.1474182,108.6966 L19.4208207,104.938305 L19.4208207,104.938305 C18.3402697,104.709212 17.6500262,103.647536 17.8791187,102.566985 C17.9057568,102.441342 17.9444358,102.318558 17.9946196,102.200332 L17.9946196,102.200332 Z M42.5638222,57.9521243 L57.8123339,42.7036126 C58.5933825,41.922564 59.8597125,41.922564 60.640761,42.7036126 C60.7137186,42.7765701 60.7809211,42.855064 60.8417667,42.9383912 L71.4571781,57.4760436 C72.0384014,58.2720206 71.9530942,59.3727704 71.2561724,60.0696922 L60.420182,70.9056827 C59.7434519,71.5824127 58.6821431,71.684883 57.8884428,71.1501241 L42.8605102,61.0249929 C41.9444603,60.4078005 41.7021884,59.1648621 42.3193808,58.2488122 C42.3911459,58.1422969 42.4730044,58.0429421 42.5638222,57.9521243 L42.5638222,57.9521243 Z M82.1980197,26.2528365 L102.192417,18.1745757 C103.216556,17.7607967 104.382219,18.2555912 104.795998,19.2797302 C104.834649,19.3753948 104.865839,19.4739068 104.889289,19.5743842 L108.980514,37.1041355 L108.980514,37.1041355 C109.204519,38.0639382 108.695897,39.0438516 107.782068,39.4130624 L93.573527,45.1536855 C92.6861742,45.5121993 91.6691959,45.1918372 91.1475379,44.3894657 L81.270457,29.1973522 C80.6683849,28.2712944 80.9310272,27.0325004 81.8570849,26.4304283 C81.9647639,26.3604213 82.0789361,26.3009494 82.1980197,26.2528365 Z" id="path-12"></path>
        <filter x="-1.9%" y="-1.9%" width="103.9%" height="103.9%" filterUnits="objectBoundingBox" id="filter-13">
            <feGaussianBlur stdDeviation="1" in="SourceGraphic"></feGaussianBlur>
        </filter>
        <filter x="-2.3%" y="-2.3%" width="104.6%" height="104.6%" filterUnits="objectBoundingBox" id="filter-14">
            <feMorphology radius="0.5" operator="dilate" in="SourceAlpha" result="shadowSpreadOuter1"></feMorphology>
            <feOffset dx="0" dy="0" in="shadowSpreadOuter1" result="shadowOffsetOuter1"></feOffset>
            <feGaussianBlur stdDeviation="0.5" in="shadowOffsetOuter1" result="shadowBlurOuter1"></feGaussianBlur>
            <feColorMatrix values="0 0 0 0 0.356862745   0 0 0 0 0.968627451   0 0 0 0 0.968627451  0 0 0 1 0" type="matrix" in="shadowBlurOuter1"></feColorMatrix>
        </filter>
        <ellipse id="path-15" cx="141.5" cy="142" rx="40.1637555" ry="40.3056769"></ellipse>
        <filter x="-19.9%" y="-19.8%" width="139.8%" height="139.7%" filterUnits="objectBoundingBox" id="filter-16">
            <feGaussianBlur stdDeviation="1" in="SourceGraphic"></feGaussianBlur>
        </filter>
        <filter x="-28.0%" y="-27.9%" width="156.0%" height="155.8%" filterUnits="objectBoundingBox" id="filter-17">
            <feMorphology radius="1.5" operator="dilate" in="SourceAlpha" result="shadowSpreadOuter1"></feMorphology>
            <feOffset dx="0" dy="0" in="shadowSpreadOuter1" result="shadowOffsetOuter1"></feOffset>
            <feGaussianBlur stdDeviation="5" in="shadowOffsetOuter1" result="shadowBlurOuter1"></feGaussianBlur>
            <feColorMatrix values="0 0 0 0 0.356862745   0 0 0 0 0.968627451   0 0 0 0 0.968627451  0 0 0 1 0" type="matrix" in="shadowBlurOuter1"></feColorMatrix>
        </filter>
        <path d="M132.287614,87.1665627 C129.801299,87.1665627 127.785743,85.1438841 127.785743,82.6487835 C127.785743,80.153683 129.801299,78.1310044 132.287614,78.1310044 C134.773929,78.1310044 136.789486,80.153683 136.789486,82.6487835 C136.789486,85.1438841 134.773929,87.1665627 132.287614,87.1665627 Z M153.572884,87.9774745 C151.284219,87.0059939 150.219213,84.3565677 151.194127,82.0598156 C152.16904,79.7630634 154.814693,78.6887186 157.103358,79.6601993 C159.392023,80.6316799 160.457029,83.2811061 159.482116,85.5778582 C158.507202,87.8746104 155.861549,88.9489552 153.572884,87.9774745 Z M172.993277,96.9465945 C171.235187,95.1885044 171.240223,92.3330409 173.004526,90.5687384 C174.768828,88.8044359 177.624292,88.7993998 179.382382,90.55749 C181.140472,92.3155802 181.135436,95.1710436 179.371134,96.9353461 C177.606831,98.6996486 174.751368,98.7046847 172.993277,96.9465945 Z M187.473748,112.628549 C186.542358,110.323278 187.662713,107.696778 189.97613,106.762097 C192.289546,105.827415 194.919982,106.938498 195.851372,109.243769 C196.782762,111.54904 195.662408,114.175541 193.348991,115.110222 C191.035574,116.044903 188.405138,114.93382 187.473748,112.628549 Z M194.888646,132.755062 C194.888646,130.268747 196.911325,128.25319 199.406425,128.25319 C201.901526,128.25319 203.924205,130.268747 203.924205,132.755062 C203.924205,135.241377 201.901526,137.256933 199.406425,137.256933 C196.911325,137.256933 194.888646,135.241377 194.888646,132.755062 Z M194.081854,154.121782 C195.053335,151.833117 197.702761,150.768111 199.999513,151.743025 C202.296265,152.717938 203.37061,155.363591 202.39913,157.652256 C201.427649,159.940921 198.778223,161.005927 196.481471,160.031014 C194.184719,159.0561 193.110374,156.410447 194.081854,154.121782 Z M185.14771,173.615849 C186.905801,171.857759 189.761264,171.862795 191.525567,173.627098 C193.289869,175.3914 193.294905,178.246864 191.536815,180.004954 C189.778725,181.763044 186.923261,181.758008 185.158959,179.993705 C183.394656,178.229403 183.38962,175.37394 185.14771,173.615849 Z M169.526263,188.151001 C171.831535,187.219611 174.458035,188.339965 175.392716,190.653382 C176.327397,192.966799 175.216314,195.597235 172.911043,196.528625 C170.605772,197.460015 167.979272,196.339661 167.044591,194.026244 C166.10991,191.712827 167.220992,189.082391 169.526263,188.151001 Z M149.476578,195.593263 C151.962893,195.593263 153.978449,197.615941 153.978449,200.111042 C153.978449,202.606142 151.962893,204.628821 149.476578,204.628821 C146.990263,204.628821 144.974707,202.606142 144.974707,200.111042 C144.974707,197.615941 146.990263,195.593263 149.476578,195.593263 Z M128.191308,194.782351 C130.479973,195.753831 131.544979,198.403258 130.570065,200.70001 C129.595152,202.996762 126.949499,204.071107 124.660834,203.099626 C122.372169,202.128145 121.307163,199.478719 122.282076,197.181967 C123.25699,194.885215 125.902643,193.81087 128.191308,194.782351 Z M108.770915,185.813231 C110.529005,187.571321 110.523969,190.426784 108.759666,192.191087 C106.995364,193.955389 104.1399,193.960426 102.38181,192.202335 C100.62372,190.444245 100.628756,187.588782 102.393058,185.824479 C104.157361,184.060177 107.012824,184.055141 108.770915,185.813231 Z M94.2602695,170.058429 C95.2317501,172.347094 94.1574053,174.992747 91.8606532,175.967661 C89.563901,176.942574 86.9144749,175.877568 85.9429942,173.588903 C84.9715135,171.300238 86.0458584,168.654585 88.3426105,167.679672 C90.6393627,166.704758 93.2887888,167.769764 94.2602695,170.058429 Z M86.8755459,150.004764 C86.8755459,152.491079 84.8528672,154.506635 82.3577667,154.506635 C79.8626662,154.506635 77.8399875,152.491079 77.8399875,150.004764 C77.8399875,147.518449 79.8626662,145.502892 82.3577667,145.502892 C84.8528672,145.502892 86.8755459,147.518449 86.8755459,150.004764 Z M87.6823378,128.638043 C86.7108571,130.926708 84.061431,131.991714 81.7646788,131.016801 C79.4679267,130.041887 78.3935819,127.396234 79.3650625,125.107569 C80.3365432,122.818904 82.9859693,121.753898 85.2827215,122.728811 C87.5794736,123.703725 88.6538185,126.349378 87.6823378,128.638043 Z M96.6164817,109.143976 C94.8583915,110.902066 92.0029281,110.89703 90.2386256,109.132728 C88.4743231,107.368425 88.469287,104.512962 90.2273772,102.754871 C91.9854673,100.996781 94.8409308,101.001817 96.6052333,102.76612 C98.3695358,104.530422 98.3745719,107.385886 96.6164817,109.143976 Z M112.237929,94.6088241 C109.932658,95.5402141 107.306157,94.4198598 106.371476,92.1064429 C105.436795,89.793026 106.547878,87.1625903 108.853149,86.2312003 C111.15842,85.2998103 113.78492,86.4201645 114.719601,88.7335814 C115.654283,91.0469984 114.5432,93.6774341 112.237929,94.6088241 Z" id="path-18"></path>
        <filter x="-2.4%" y="-2.4%" width="104.8%" height="104.7%" filterUnits="objectBoundingBox" id="filter-19">
            <feMorphology radius="0.5" operator="dilate" in="SourceAlpha" result="shadowSpreadOuter1"></feMorphology>
            <feOffset dx="0" dy="0" in="shadowSpreadOuter1" result="shadowOffsetOuter1"></feOffset>
            <feGaussianBlur stdDeviation="0.5" in="shadowOffsetOuter1" result="shadowBlurOuter1"></feGaussianBlur>
            <feColorMatrix values="0 0 0 0 0.356862745   0 0 0 0 0.968627451   0 0 0 0 0.968627451  0 0 0 1 0" type="matrix" in="shadowBlurOuter1"></feColorMatrix>
        </filter>
    </defs>
    <g id="Page-1" stroke="none" stroke-width="1" fill="none" fill-rule="evenodd">
        <g id="earth" transform="translate(-3829.000000, -1041.000000)">
            <g id="allocationviz" transform="translate(3829.000000, 1041.000000)">
                <g id="viz">
                    <rect id="Rectangle" fill="#FFFFFF" x="0" y="0" width="1000" height="1000"></rect>
                    <g id="driver1" transform="translate(198.000000, 255.000000)">
                        <polyline id="Path-5" stroke="#3DC057" stroke-width="2" stroke-linecap="square" points="16.5913785 14.7782483 83.1754419 14.7782483 285.714128 217.452836"></polyline>
                        <g id="navigation" transform="translate(13.736954, 14.016363) rotate(-89.000000) translate(-13.736954, -14.016363) translate(0.236954, 0.516363)">
                            <ellipse id="Oval" fill-opacity="0.8" fill="#AD04D5" filter="url(#filter-1)" cx="13.5017241" cy="13.3939052" rx="13.325" ry="13.323225"></ellipse>
                            <polygon id="Shape" fill="#FFFFFF" fill-rule="nonzero" points="8.14749687 7.04834526 13.5307103 22.1021645 18.919548 7.04834526 13.5307103 9.24432623"></polygon>
                        </g>
                    </g>
                    <g id="driver1-copy-6" transform="translate(742.000000, 709.500000) scale(-1, -1) translate(-742.000000, -709.500000) translate(598.000000, 601.000000)">
                        <polyline id="Path-5" stroke="#3DC057" stroke-width="2" stroke-linecap="square" points="18.8129614 13.5574041 85.3422609 13.5574041 287.714363 216.452241"></polyline>
                        <g id="navigation" transform="translate(14.710313, 14.021074) rotate(-89.000000) translate(-14.710313, -14.021074) translate(1.210313, 0.521074)">
                            <ellipse id="Oval" fill-opacity="0.8" fill="#AD04D5" filter="url(#filter-2)" cx="13.4906193" cy="13.4084606" rx="13.3140405" ry="13.3377035"></ellipse>
                            <polygon id="Shape" fill="#FFFFFF" fill-rule="nonzero" points="8.14079572 7.05600481 13.5195816 22.1261833 18.9039871 7.05600481 13.5195816 9.25437218"></polygon>
                        </g>
                    </g>
                    <g id="driver1-copy-4" transform="translate(724.000000, 407.500000) scale(-1, 1) translate(-724.000000, -407.500000) translate(534.000000, 304.000000)">
                        <polyline id="Path-5" stroke="#3DC057" stroke-width="2" stroke-linecap="square" points="17.6015609 14.5740704 85.1124157 14.5740704 379.373581 206.858091"></polyline>
                        <g id="navigation" transform="translate(15.158879, 14.566266) rotate(-89.000000) translate(-15.158879, -14.566266) translate(1.158879, 0.566266)">
                            <ellipse id="Oval" fill-opacity="0.8" fill="#AD04D5" filter="url(#filter-3)" cx="13.6156352" cy="13.7005988" rx="13.6156352" ry="13.7005988"></ellipse>
                            <polygon id="Shape" fill="#FFFFFF" fill-rule="nonzero" points="8.66449511 7.47305389 14.2316195 22.4191617 19.8045603 7.47305389 14.2316195 9.65332241"></polygon>
                        </g>
                    </g>
                    <g id="driver1-copy-3" transform="translate(405.000000, 649.500000) scale(1, -1) translate(-405.000000, -649.500000) translate(288.000000, 519.000000)">
                        <polyline id="Path-5" stroke="#3DC057" stroke-width="2" stroke-linecap="square" points="16.3197312 13.7788172 82.8468464 13.7788172 234 260.934738"></polyline>
                        <g id="navigation" transform="translate(13.750160, 13.881676) rotate(-89.000000) translate(-13.750160, -13.881676) translate(0.250160, 0.381676)">
                            <ellipse id="Oval" fill-opacity="0.8" fill="#AD04D5" filter="url(#filter-4)" cx="13.4990037" cy="13.3817277" rx="13.3223151" ry="13.3111117"></ellipse>
                            <polygon id="Shape" fill="#FFFFFF" fill-rule="nonzero" points="8.14585523 7.04193705 13.527984 22.0820697 18.9157359 7.04193705 13.527984 9.23592147"></polygon>
                        </g>
                    </g>
                    <g id="driver1-copy-2" transform="translate(310.500000, 508.000000) scale(1, -1) translate(-310.500000, -508.000000) translate(86.000000, 494.000000)">
                        <path d="M16.4485632,12.4363841 L448.753392,12.4363841" id="Path-5" stroke="#3DC057" stroke-width="2" stroke-linecap="square"></path>
                        <g id="navigation" transform="translate(14.700053, 14.192038) rotate(-89.000000) translate(-14.700053, -14.192038) translate(1.200053, 0.692038)">
                            <ellipse id="Oval" fill-opacity="0.8" fill="#AD04D5" filter="url(#filter-5)" cx="13.5357325" cy="13.5184493" rx="13.3585632" ry="13.4471119"></ellipse>
                            <polygon id="Shape" fill="#FFFFFF" fill-rule="nonzero" points="9.40801496 7.0920971 14.8047878 22.2858953 20.2071989 7.0920971 14.8047878 9.30849754"></polygon>
                        </g>
                    </g>
                    <g id="driver1-copy" transform="translate(649.500000, 337.500000) scale(-1, 1) translate(-649.500000, -337.500000) translate(544.000000, 181.000000)">
                        <polyline id="Path-5" stroke="#3DC057" stroke-width="2" stroke-linecap="square" points="16.3126548 14.476308 82.7271274 14.476308 210.80558 312.240352"></polyline>
                        <g id="navigation" transform="translate(15.205475, 14.425677) rotate(-89.000000) translate(-15.205475, -14.425677) translate(1.205475, 0.425677)">
                            <ellipse id="Oval" fill-opacity="0.8" fill="#AD04D5" filter="url(#filter-6)" cx="13.5730994" cy="13.6086957" rx="13.5730994" ry="13.6086957"></ellipse>
                            <polygon id="Shape" fill="#FFFFFF" fill-rule="nonzero" points="8.6374269 7.4229249 14.1871594 22.2687747 19.7426901 7.4229249 14.1871594 9.58856825"></polygon>
                        </g>
                    </g>
                    <g id="driver1-copy-5" transform="translate(663.500000, 514.000000) scale(-1, 1) translate(-663.500000, -514.000000) translate(483.000000, 500.000000)">
                        <polyline id="Path-5" stroke="#3DC057" stroke-width="2" stroke-linecap="square" points="16.3893114 14.9331953 83.1158794 14.9331953 360.957362 14.9331953"></polyline>
                        <g id="navigation" transform="translate(14.641331, 14.187203) rotate(-89.000000) translate(-14.641331, -14.187203) translate(1.141331, 0.687203)">
                            <ellipse id="Oval" fill-opacity="0.8" fill="#AD04D5" filter="url(#filter-7)" cx="13.5306208" cy="13.5184493" rx="13.3535185" ry="13.4471119"></ellipse>
                            <polygon id="Shape" fill="#FFFFFF" fill-rule="nonzero" points="8.16493431 7.11388479 13.5596691 22.307683 18.96004 7.11388479 13.5596691 9.33028523"></polygon>
                        </g>
                    </g>
                    <g id="outer-ring" transform="translate(207.000000, 222.000000)">
                        <ellipse id="Oval-3" stroke-opacity="0.188490716" stroke="#08F565" stroke-width="2" fill="#FFFFFF" stroke-linecap="square" filter="url(#filter-8)" cx="288.505155" cy="290.000859" rx="247.646048" ry="248.073024"></ellipse>
                        <path d="M302.162625,46.9692894 C301.592605,46.9692894 301.130512,46.5111404 301.130512,45.9459849 C301.130512,45.3808294 301.592605,44.9226804 302.162625,44.9226804 C302.732645,44.9226804 303.194738,45.3808294 303.194738,45.9459849 C303.194738,46.5111404 302.732645,46.9692894 302.162625,46.9692894 Z M339.463821,51.9062274 C338.900819,51.8170566 338.515812,51.2939872 338.603885,50.7379193 C338.691957,50.1818513 339.219758,49.8033564 339.78276,49.8925272 C340.345762,49.981698 340.730769,50.5047674 340.642697,51.0608354 C340.554624,51.6169033 340.026824,51.9953983 339.463821,51.9062274 Z M375.567962,62.4327271 C375.02584,62.2565811 374.726974,61.6810334 374.900425,61.1472054 C375.073877,60.6133773 375.653963,60.3234186 376.196084,60.4995646 C376.738206,60.6757106 377.037072,61.2512582 376.863621,61.7850863 C376.69017,62.3189144 376.110083,62.608873 375.567962,62.4327271 Z M409.644667,78.3099824 C409.132337,78.0601019 408.916022,77.4494988 409.161516,76.9461622 C409.40701,76.4428255 410.021348,76.2373587 410.533679,76.4872391 C411.04601,76.7371196 411.262324,77.3477227 411.01683,77.8510593 C410.771336,78.354396 410.156998,78.5598628 409.644667,78.3099824 Z M440.862165,99.1508254 C440.395232,98.8238752 440.276495,98.1878156 440.596958,97.7301465 C440.917421,97.2724774 441.555732,97.1665088 442.022666,97.493459 C442.489599,97.8204092 442.608336,98.4564689 442.287873,98.914138 C441.96741,99.371807 441.329099,99.4777756 440.862165,99.1508254 Z M468.505981,124.472748 C468.095942,124.076778 468.077478,123.43069 468.464739,123.029669 C468.852001,122.628648 469.49834,122.624553 469.908378,123.020523 C470.318416,123.416492 470.336881,124.06258 469.949619,124.463601 C469.562358,124.864622 468.916019,124.868717 468.505981,124.472748 Z M491.928284,153.682151 C491.585237,153.226913 491.667284,152.586483 492.111542,152.251711 C492.555799,151.916939 493.194035,152.014597 493.537082,152.469835 C493.880129,152.925073 493.798081,153.565503 493.353824,153.900275 C492.909567,154.235047 492.271331,154.13739 491.928284,153.682151 Z M510.588151,186.110056 C510.311799,185.611505 510.481386,184.989166 510.966932,184.720023 C511.452479,184.45088 512.070119,184.636852 512.346471,185.135403 C512.622822,185.633954 512.453236,186.256293 511.967689,186.525436 C511.482142,186.794579 510.864502,186.608607 510.588151,186.110056 Z M524.029982,220.966443 C523.835023,220.430799 524.098835,219.84303 524.619222,219.653625 C525.139608,219.46422 525.71951,219.744902 525.914468,220.280546 C526.109427,220.81619 525.845615,221.403958 525.325229,221.593363 C524.804842,221.782768 524.22494,221.502087 524.029982,220.966443 Z M531.949302,257.448633 C531.840537,256.889085 532.191792,256.350067 532.733853,256.244701 C533.275913,256.139335 533.803512,256.507522 533.912277,257.067069 C534.021042,257.626616 533.669786,258.165635 533.127726,258.271001 C532.585665,258.376367 532.058067,258.00818 531.949302,257.448633 Z M534.160725,294.701543 C534.140831,294.131869 534.570509,293.65449 535.120438,293.635286 C535.670366,293.616082 536.132298,294.062326 536.152191,294.631999 C536.172084,295.201672 535.742406,295.679051 535.192478,295.698255 C534.64255,295.717459 534.180618,295.271216 534.160725,294.701543 Z M530.599247,331.853363 C530.668715,331.287592 531.168697,330.883419 531.715987,330.950618 C532.263277,331.017817 532.650629,331.53094 532.581161,332.096712 C532.511693,332.662483 532.011712,333.066656 531.464421,332.999457 C530.917131,332.932259 530.529779,332.419135 530.599247,331.853363 Z M521.35378,368.047717 C521.501312,367.49712 522.053884,367.166788 522.587984,367.309899 C523.122084,367.453011 523.43546,368.015373 523.287928,368.565971 C523.140396,369.116568 522.587823,369.4469 522.053723,369.303789 C521.519623,369.160677 521.206248,368.598315 521.35378,368.047717 Z M506.649803,402.402296 C506.881651,401.881556 507.480184,401.642217 507.986663,401.867716 C508.493143,402.093215 508.715776,402.698162 508.483928,403.218901 C508.25208,403.73964 507.653547,403.97898 507.147067,403.753481 C506.640587,403.527981 506.417955,402.923035 506.649803,402.402296 Z M486.830609,434.129722 C487.141065,433.651663 487.770559,433.509478 488.236624,433.812145 C488.702689,434.114811 488.828835,434.747714 488.51838,435.225773 C488.207925,435.703832 487.578431,435.846016 487.112366,435.54335 C486.646301,435.240684 486.520154,434.607781 486.830609,434.129722 Z M462.360586,462.486779 C462.742004,462.063171 463.386731,462.021878 463.800623,462.394549 C464.214515,462.767219 464.240841,463.41273 463.859423,463.836337 C463.478005,464.259945 462.833278,464.301238 462.419386,463.928567 C462.005494,463.555897 461.979168,462.910386 462.360586,462.486779 Z M433.799632,486.820268 C434.236293,486.453866 434.881053,486.503373 435.239744,486.930844 C435.598436,487.358316 435.535229,488.001877 435.098568,488.368279 C434.661907,488.734681 434.017147,488.685175 433.658455,488.257703 C433.299764,487.830232 433.362971,487.18667 433.799632,486.820268 Z M401.842035,506.535844 C402.330637,506.242262 402.960238,506.392892 403.248286,506.872285 C403.536334,507.351678 403.373753,507.978298 402.88515,508.27188 C402.396548,508.565462 401.766947,508.414833 401.478899,507.93544 C401.19085,507.456047 401.353432,506.829426 401.842035,506.535844 Z M367.225308,521.184761 C367.753822,520.971228 368.35252,521.219517 368.562539,521.73933 C368.772557,522.259144 368.514366,522.853639 367.985852,523.067172 C367.457338,523.280706 366.85864,523.032417 366.648622,522.512603 C366.438603,521.99279 366.696795,521.398295 367.225308,521.184761 Z M330.760769,530.423875 C331.316179,530.295649 331.868951,530.635774 331.995419,531.183567 C332.121887,531.73136 331.77416,532.279382 331.21875,532.407608 C330.663339,532.535835 330.110567,532.19571 329.984099,531.647917 C329.857631,531.100124 330.205358,530.552102 330.760769,530.423875 Z M293.303118,534.036835 C293.87175,533.997072 294.364618,534.421036 294.403969,534.983785 C294.44332,535.546533 294.014253,536.034965 293.445622,536.074728 C292.87699,536.11449 292.384122,535.690526 292.344771,535.127778 C292.30542,534.565029 292.734486,534.076597 293.303118,534.036835 Z M255.707881,531.934831 C256.276513,531.974593 256.70558,532.463025 256.666229,533.025774 C256.626877,533.588523 256.13401,534.012487 255.565378,533.972724 C254.996746,533.932961 254.56768,533.444529 254.607031,532.881781 C254.646382,532.319032 255.13925,531.895068 255.707881,531.934831 Z M218.89007,524.167133 C219.445481,524.29536 219.793207,524.843382 219.66674,525.391175 C219.540272,525.938967 218.9875,526.279093 218.432089,526.150866 C217.876678,526.02264 217.528951,525.474617 217.655419,524.926825 C217.781887,524.379032 218.334659,524.038906 218.89007,524.167133 Z M183.699122,510.919933 C184.227635,511.133467 184.485827,511.727962 184.275808,512.247775 C184.06579,512.767589 183.467092,513.015878 182.938578,512.802344 C182.410065,512.588811 182.151873,511.994316 182.361891,511.474503 C182.57191,510.954689 183.170608,510.7064 183.699122,510.919933 Z M150.959894,492.50353 C151.448497,492.797112 151.611078,493.423732 151.32303,493.903125 C151.034981,494.382518 150.405381,494.533148 149.916778,494.239566 C149.428176,493.945983 149.265594,493.319363 149.553643,492.83997 C149.841691,492.360577 150.471291,492.209947 150.959894,492.50353 Z M121.4397,469.349372 C121.876361,469.715774 121.939568,470.359336 121.580877,470.786807 C121.222186,471.214279 120.577426,471.263785 120.140765,470.897383 C119.704104,470.530981 119.640897,469.88742 119.999588,469.459948 C120.358279,469.032477 121.00304,468.98297 121.4397,469.349372 Z M95.8188421,441.986804 C96.2002602,442.410412 96.1739345,443.055923 95.7600422,443.428593 C95.3461498,443.801264 94.7014234,443.759971 94.3200054,443.336363 C93.9385873,442.912756 93.964913,442.267245 94.3788053,441.894574 C94.7926977,441.521904 95.4374241,441.563197 95.8188421,441.986804 Z M74.7226453,411.081171 C75.0331006,411.559231 74.906954,412.192134 74.440889,412.4948 C73.9748239,412.797466 73.3453298,412.655282 73.0348745,412.177223 C72.7244192,411.699163 72.8505658,411.06626 73.3166308,410.763594 C73.7826959,410.460928 74.41219,410.603112 74.7226453,411.081171 Z M58.6320603,377.345408 C58.8639084,377.866147 58.6412756,378.471093 58.1347959,378.696592 C57.6283163,378.922092 57.0297833,378.682752 56.7979352,378.162013 C56.5660871,377.641273 56.7887199,377.036327 57.2951995,376.810828 C57.8016792,376.585329 58.4002121,376.824668 58.6320603,377.345408 Z M47.9240741,341.569804 C48.0716062,342.120401 47.7582308,342.682763 47.2241306,342.825875 C46.6900304,342.968987 46.1374582,342.638654 45.9899261,342.088057 C45.842394,341.53746 46.1557693,340.975098 46.6898696,340.831986 C47.2239698,340.688874 47.7765419,341.019206 47.9240741,341.569804 Z M42.847447,304.575044 C42.916915,305.140816 42.5295634,305.653939 41.9822729,305.721138 C41.4349825,305.788337 40.935001,305.384164 40.865533,304.818392 C40.796065,304.252621 41.1834166,303.739497 41.730707,303.672298 C42.2779975,303.6051 42.777979,304.009273 42.847447,304.575044 Z M43.5275597,267.262198 C43.5076663,267.831871 43.0457345,268.278115 42.4958063,268.258911 C41.945878,268.239707 41.5161999,267.762328 41.5360933,267.192655 C41.5559867,266.622982 42.0179185,266.176738 42.5678467,266.195942 C43.117775,266.215146 43.5474531,266.692525 43.5275597,267.262198 Z M49.9434321,230.491418 C49.8346671,231.050966 49.3070687,231.419153 48.7650082,231.313787 C48.2229477,231.208421 47.8716922,230.669402 47.9804572,230.109855 C48.0892222,229.550307 48.6168206,229.18212 49.1588811,229.287486 C49.7009416,229.392852 50.0521971,229.931871 49.9434321,230.491418 Z M61.9452297,195.123213 C61.7502713,195.658856 61.1703696,195.939538 60.649983,195.750133 C60.1295965,195.560728 59.8657849,194.97296 60.0607433,194.437316 C60.2557017,193.901672 60.8356034,193.62099 61.35599,193.810395 C61.8763765,193.9998 62.1401881,194.587569 61.9452297,195.123213 Z M79.2518838,161.986553 C78.9755325,162.485104 78.3578922,162.671076 77.8723455,162.401933 C77.3867989,162.132791 77.2172126,161.510452 77.493564,161.011901 C77.7699153,160.51335 78.3875556,160.327378 78.8731022,160.596521 C79.3586488,160.865663 79.5282351,161.488002 79.2518838,161.986553 Z M101.468517,131.843811 C101.12547,132.29905 100.487234,132.396707 100.042977,132.061935 C99.5987195,131.727163 99.5166721,131.086733 99.8597189,130.631495 C100.202766,130.176256 100.841002,130.078599 101.285259,130.413371 C101.729517,130.748143 101.811564,131.388573 101.468517,131.843811 Z M128.05559,105.431442 C127.645552,105.827411 126.999213,105.823316 126.611951,105.422295 C126.22469,105.021274 126.243154,104.375186 126.653193,103.979217 C127.063231,103.583247 127.70957,103.587342 128.096831,103.988363 C128.484093,104.389384 128.465628,105.035472 128.05559,105.431442 Z M158.398394,83.3528658 C157.931461,83.679816 157.29315,83.5738474 156.972686,83.1161783 C156.652223,82.6585092 156.77096,82.0224496 157.237894,81.6954994 C157.704827,81.3685492 158.343138,81.4745178 158.663601,81.9321868 C158.984065,82.3898559 158.865327,83.0259156 158.398394,83.3528658 Z M191.785836,66.1256599 C191.273505,66.3755403 190.659167,66.1700735 190.413673,65.6667368 C190.168179,65.1634002 190.384494,64.5527971 190.896825,64.3029166 C191.409155,64.0530362 192.023494,64.258503 192.268987,64.7618397 C192.514481,65.2651763 192.298167,65.8757794 191.785836,66.1256599 Z M227.451935,54.1476319 C226.909813,54.3237779 226.329727,54.0338192 226.156275,53.4999912 C225.982824,52.9661631 226.28169,52.3906154 226.823812,52.2144694 C227.365933,52.0383235 227.94602,52.3282821 228.119471,52.8621102 C228.292922,53.3959383 227.994056,53.971486 227.451935,54.1476319 Z M264.52874,47.7145553 C263.965737,47.8037261 263.437937,47.4252311 263.349864,46.8691632 C263.261792,46.3130952 263.646799,45.7900258 264.209801,45.700855 C264.772803,45.6116842 265.300604,45.9901791 265.388676,46.5462471 C265.476749,47.102315 265.091742,47.6253844 264.52874,47.7145553 Z" id="Oval-5" fill-opacity="0.3" fill="#08911E"></path>
                        <path d="M280.704703,29.9484536 L280.704703,41.1457974 M334.187701,34.0729591 L331.859642,45.025614 M384.664643,47.8746131 L380.289492,58.1818224 M432.191856,72.7897921 L425.769324,81.9621191 M472.467789,104.524359 L464.831219,112.713578 M505.339068,146.075079 L496.280227,152.656712 M531.19935,192.694634 L520.970068,197.249004 M546.022774,244.541296 L534.995543,246.485694 M550.078158,299.11713 L538.887635,298.726348 M543.319564,351.237932 L532.366909,348.909874 M525.89406,402.266217 L515.829954,397.357624 M498.646236,446.569666 L489.822608,439.675893 M462.723677,485.354186 L455.377559,476.903443 M419.465314,517.130141 L414.036734,507.336723 M372.685158,538.532754 L369.411372,527.824681 M320.517986,549.626791 L319.347544,538.490787 M266.892853,550.947839 L268.063294,539.811835 M214.101606,540.427944 L217.561776,529.778637 M166.634607,520.625789 L171.543199,510.561683 M127.778451,495.038445 L134.672224,486.214818 M91.0258749,458.259199 L99.2150937,450.622629 M60.4653449,414.418914 L70.0633418,408.651856 M40.5831822,365.71361 L51.0368032,361.700841 M30.0594048,312.935104 L41.0866358,310.990705 M31.3354886,258.925128 L42.4902231,259.901041 M40.4588589,214.51022 L51.166932,217.784006 M61.75086,164.851393 L71.7277663,169.934881 M91.4117034,121.58208 L100.235331,128.475854 M131.166256,84.515678 L138.363769,93.0933409 M176.369799,55.2188412 L181.626634,65.105509 M227.109341,36.7960387 L230.195747,47.5596164" id="Path-4" stroke="#2FE557" stroke-linecap="square"></path>
                        <path d="M280.704713,29.9484628 L280.704713,41.1458066 M334.187711,34.0729683 L331.859652,45.0256233 M384.664653,47.8746223 L380.289502,58.1818316 M432.191867,72.7898013 L425.769334,81.9621283 M472.467799,104.524368 L464.831229,112.713587 M505.339079,146.075088 L496.280237,152.656721 M531.199361,192.694644 L520.970078,197.249014 M546.022785,244.541305 L534.995554,246.485703 M550.078168,299.117139 L538.887645,298.726358 M543.319574,351.237942 L532.366919,348.909883 M525.89407,402.266226 L515.829964,397.357634 M498.646246,446.569675 L489.822619,439.675902 M462.723687,485.354195 L455.377569,476.903452 M419.465324,517.13015 L414.036744,507.336732 M372.685169,538.532763 L369.411382,527.82469 M320.517996,549.6268 L319.347555,538.490796 M266.892863,550.947848 L268.063304,539.811845 M214.101617,540.427953 L217.561786,529.778646 M166.634617,520.625799 L171.54321,510.561693 M127.778461,495.038454 L134.672234,486.214827 M91.0258853,458.259208 L99.2151041,450.622638 M60.4653552,414.418923 L70.0633521,408.651865 M40.5831925,365.713619 L51.0368135,361.70085 M30.0594152,312.935113 L41.0866461,310.990714 M31.335499,258.925137 L42.4902335,259.90105 M40.4588693,214.510229 L51.1669424,217.784016 M61.7508703,164.851402 L71.7277767,169.93489 M91.4117138,121.58209 L100.235341,128.475863 M131.166266,84.5156872 L138.36378,93.0933502 M176.36981,55.2188505 L181.626644,65.1055182 M227.109351,36.7960479 L230.195758,47.5596256" id="Path-4-Copy-2" stroke="#2FE557" stroke-linecap="square" transform="translate(290.000081, 290.499920) rotate(7.000000) translate(-290.000081, -290.499920) "></path>
                        <path d="M281.485764,19.9656378 L281.485764,41.362122 M337.037051,24.2549426 L332.588471,45.1838624 M389.399111,38.5302669 L381.038838,58.2258346 M438.754739,64.2869345 L426.48222,81.8139083 M480.347877,96.8858042 L465.75551,112.534202 M514.486526,139.711947 L497.176407,152.288485 M541.366833,187.862845 L521.820172,196.565579 M556.831579,241.572039 L535.760156,245.287499 M561.037892,297.923478 L539.654442,297.176752 M554.04304,351.60859 L533.114121,347.160011 M535.885691,404.475284 L516.654658,395.095683 M507.559886,450.26031 L490.699226,437.087318 M470.286545,490.260656 L456.249188,474.112525 M425.339897,523.062825 L414.966676,504.349038 M376.697837,545.161264 L370.442111,524.699704 M322.587903,556.595258 L320.351361,535.315986 M266.886026,557.93392 L269.122568,536.654648 M212.056906,547.055351 L218.668784,526.706085 M163.029664,526.726556 L172.409265,507.495523 M122.539886,500.241374 L135.712877,483.380714 M84.5016985,462.439039 L100.150096,447.846672 M52.7243354,417.175261 L71.0647021,406.155257 M32.077672,367.033305 L52.0530109,359.365491 M21.0954217,312.622891 L42.1668453,308.90743 M22.3392516,256.582271 L43.6543158,258.447097 M31.8375203,210.543977 L52.29908,216.799703 M53.8657032,159.410918 L72.9301103,169.124718 M84.6121457,114.752304 L101.472805,127.925295 M125.857558,76.4360253 L139.610953,92.8266832 M172.79718,46.1611393 L182.842221,65.0531136 M225.481882,27.0991799 L231.379552,47.6668007" id="Path-4-Copy" stroke="#2FE557" stroke-linecap="square" transform="translate(290.996622, 289.002541) rotate(2.000000) translate(-290.996622, -289.002541) "></path>
                    </g>
                    <g id="arc-reactor" transform="translate(356.000000, 369.000000)">
                        <g id="Oval-2" filter="url(#filter-10)">
                            <use fill="black" fill-opacity="1" filter="url(#filter-11)" xlink:href="#path-9"></use>
                            <use fill="#FFFFFF" fill-rule="evenodd" xlink:href="#path-9"></use>
                        </g>
                        <g id="Rectangle-2" filter="url(#filter-13)">
                            <use fill="black" fill-opacity="1" filter="url(#filter-14)" xlink:href="#path-12"></use>
                            <use fill="#5BF7F7" fill-rule="evenodd" xlink:href="#path-12"></use>
                        </g>
                        <g id="Oval-6" filter="url(#filter-16)">
                            <use fill="black" fill-opacity="1" filter="url(#filter-17)" xlink:href="#path-15"></use>
                            <use fill="#5BF7F7" fill-rule="evenodd" xlink:href="#path-15"></use>
                        </g>
                        <path d="M127.515288,153.205497 C130.799359,157.337258 135.843619,159.982533 141.5,159.982533 L141.5,159.982533 C145.633707,159.982533 149.440495,158.569758 152.47227,156.19649 M158.478326,147.695011 C159.088424,145.874626 159.419214,143.924298 159.419214,141.895989 C159.419214,134.854695 155.432744,128.753185 149.613573,125.765341 M138.773512,124.017467 C130.170988,125.342958 123.580786,132.842675 123.580786,141.895989" id="Oval-7" stroke="#FFFFFF" stroke-width="5" stroke-linecap="square"></path>
                        <g id="Oval-9">
                            <use fill="black" fill-opacity="1" filter="url(#filter-19)" xlink:href="#path-18"></use>
                            <use fill="#5BF7F7" fill-rule="evenodd" xlink:href="#path-18"></use>
                        </g>
                    </g>
                </g>
            </g>
        </g>
    </g>
</svg>