<svg xmlns="http://www.w3.org/2000/svg" viewBox="0 0 88.73 19.1"><defs><style>.cls-1{fill:#e6e7e8;}</style></defs><title>Asset 35</title><g id="Layer_2" data-name="Layer 2"><g id="Layer_1-2" data-name="Layer 1"><path class="cls-1" d="M24.33,19.1c0-.53,0-1.06,0-1.58s.08-.49.47-.49h9.12a3.45,3.45,0,0,0,1.35-.26A1.1,1.1,0,0,0,36,15.66c0-1,0-1-1-1H29.37A7.85,7.85,0,0,1,26.13,14a3.87,3.87,0,0,1-1.23-.85,2.24,2.24,0,0,1-.65-1.61c0-2.18,0-4.36,0-6.54,0-.26.08-.34.34-.33.79,0,1.58,0,2.38,0,.32,0,.39.12.39.42,0,2,0,4,0,6,0,1,.29,1.55,1.6,1.64.67.05,1.35,0,2,0h4.6c.33,0,.42-.1.42-.42,0-2.41,0-4.81,0-7.22,0-.38.11-.5.49-.48.77,0,1.53,0,2.3,0,.27,0,.37.08.37.36,0,3.6,0,7.19,0,10.78a2.74,2.74,0,0,1-1.51,2.48,6.59,6.59,0,0,1-2.16.74l-.34.09Z"/><path class="cls-1" d="M3.19,2.63a.81.81,0,0,0,0,.46V14.23c0,.52,0,.52-.51.52H.37c-.27,0-.37-.08-.37-.36,0-4,0-8,0-12A1.88,1.88,0,0,1,1.62.27,5.62,5.62,0,0,1,3.3,0,2.93,2.93,0,0,1,6.19,1.88L9.34,9.19,10.54,12c.05.13.12.26.18.4.2-.1.22-.29.28-.44,1.45-3.24,2.94-6.46,4.33-9.73a3.26,3.26,0,0,1,4-2.07,6.82,6.82,0,0,1,1.07.3A1.71,1.71,0,0,1,21.63,2a5.06,5.06,0,0,1,0,.55V14.23c0,.52,0,.52-.51.52-.72,0-1.43,0-2.14,0-.36,0-.47-.09-.47-.46,0-3.76,0-7.53,0-11.29V2.58l-.07,0-.18.38q-2.22,4.92-4.42,9.86c0,.1-.09.19-.13.29A2.72,2.72,0,0,1,11,15a2.8,2.8,0,0,1-3.08-1.9L3.41,3C3.35,2.87,3.33,2.72,3.19,2.63Z"/><path class="cls-1" d="M73.69,16.5l-2.38-2.15c-.17-.15-.21-.24,0-.36a2.66,2.66,0,0,0,1.58-2.65V3.77a2.86,2.86,0,0,0-1.6-2.68,6.18,6.18,0,0,0-3-.76q-3.21,0-6.42,0A6.34,6.34,0,0,0,59.15,1,2.91,2.91,0,0,0,57.4,3.79c0,2.49,0,5,0,7.46a3,3,0,0,0,2,2.94,7,7,0,0,0,2.92.63,50.8,50.8,0,0,0,5.38-.15.76.76,0,0,1,.64.22c.64.6,1.29,1.18,1.94,1.76.11.11.22.24.39.24H74A.71.71,0,0,0,73.69,16.5ZM70,11.15a1.28,1.28,0,0,1-.15.61c-.34.66-.62.71-1.15.23s-1-.94-1.55-1.41a.59.59,0,0,0-.41-.21H63.53a.43.43,0,0,0-.15.06l2.4,2.19s0,.08-.06.08a23,23,0,0,1-3.32-.05,1.7,1.7,0,0,1-1.62-1.89V4.36a1.67,1.67,0,0,1,1.73-1.91,17.22,17.22,0,0,1,1.9-.05c1.27,0,2.54,0,3.8,0a2.37,2.37,0,0,1,1.16.37A1.31,1.31,0,0,1,70,3.94Z"/><path class="cls-1" d="M50.34.3c1.58,0,3.17,0,4.75,0,.35,0,.48.1.45.45s0,.74,0,1.11c0,.53,0,.53-.52.53h-8.2a5.37,5.37,0,0,0-1.33.15,1,1,0,0,0-.79,1q0,.81,0,1.62a1.32,1.32,0,0,0,1.08,1.3,5.06,5.06,0,0,0,1.1.09c1.51,0,3-.07,4.52.06a6.27,6.27,0,0,1,2.9,1,2.22,2.22,0,0,1,1.11,2.09,17.61,17.61,0,0,0,0,1.78,2.52,2.52,0,0,1-1.17,2.25A5.67,5.67,0,0,1,51,14.73c-3,0-6.08,0-9.12,0-.27,0-.37-.09-.36-.37,0-.43,0-.87,0-1.31s.13-.41.44-.41h7.81a6.71,6.71,0,0,0,1.1-.08A1.44,1.44,0,0,0,52.25,11c0-.37,0-.74,0-1.11a1.17,1.17,0,0,0-.92-1.26,5.17,5.17,0,0,0-1.52-.21c-1.2,0-2.4,0-3.61,0A6.84,6.84,0,0,1,43,7.58,2.57,2.57,0,0,1,41.55,5c0-.59,0-1.18,0-1.78A2.61,2.61,0,0,1,43,1.11,5.78,5.78,0,0,1,45.9.31c1.48,0,3,0,4.44,0Z"/><path class="cls-1" d="M78,5.92v5a1.47,1.47,0,0,0,1.48,1.69,8.77,8.77,0,0,0,1.15.08h7.6c.38,0,.52.1.5.48s0,.82,0,1.23-.08.38-.36.38c-2.83,0-5.65,0-8.48,0a7.82,7.82,0,0,1-3-.62,3.1,3.1,0,0,1-2-3.06q0-5.13,0-10.26c0-.37.08-.52.48-.5.72,0,1.45,0,2.18,0,.37,0,.46.12.46.48C78,2.48,78,4.2,78,5.92Z"/></g></g></svg>