<svg xmlns="http://www.w3.org/2000/svg" viewBox="0 0 48.08 24.1"><defs><style>.cls-1{fill:#e6e7e8;}</style></defs><title>Asset 29</title><g id="Layer_2" data-name="Layer 2"><g id="Layer_1-2" data-name="Layer 1"><path id="path3" class="cls-1" d="M46.05,5.2h-.34V5h.91V5.2h-.33v.94h-.24Zm1.81,0h0l-.33.89h-.15L47,5.25h0v.89h-.22V5h.33l.3.8.31-.8h.33V6.14h-.22V5.25Z"/><path id="path21" class="cls-1" d="M16.34,15.8a5,5,0,0,1-3.13,1.41A2,2,0,0,1,11,15c0-1.47.82-2.54,4.09-2.54h1.21V15.8M19.22,19V9c0-2.57-1.47-4.26-5-4.26A13.1,13.1,0,0,0,8.9,5.9l.42,1.77a12.52,12.52,0,0,1,4.12-.81c2,0,2.9.81,2.9,2.51v1.27h-1c-4.94,0-7.17,1.91-7.17,4.79,0,2.48,1.47,3.89,4.24,3.89a6.36,6.36,0,0,0,4.34-1.81L17,19Z"/><path id="path23" class="cls-1" d="M28.81,19H25.23L20.91,5H24l2.68,8.63.6,2.6A54.23,54.23,0,0,0,30.11,5h3A56.55,56.55,0,0,1,28.81,19"/><path id="path25" class="cls-1" d="M42.57,15.8a5.07,5.07,0,0,1-3.14,1.41A2,2,0,0,1,37.26,15c0-1.47.82-2.54,4.09-2.54h1.22V15.8M45.44,19V9c0-2.57-1.46-4.26-5-4.26A13.14,13.14,0,0,0,35.12,5.9l.42,1.77a12.57,12.57,0,0,1,4.12-.81c2,0,2.91.81,2.91,2.51v1.27h-1c-4.94,0-7.16,1.91-7.16,4.79,0,2.48,1.46,3.89,4.23,3.89A6.36,6.36,0,0,0,43,17.51L43.19,19Z"/><path id="path27" class="cls-1" d="M5,21.42A7.49,7.49,0,0,1,1.42,24.1L0,22.43A6,6,0,0,0,2.49,20.1C2.87,19.34,3,18.37,3,16V0H6.08V15.81c0,3.12-.25,4.38-1.07,5.61"/></g></g></svg>