<svg xmlns="http://www.w3.org/2000/svg" viewBox="0 0 81.08 22.45"><defs><style>.cls-1{fill:#e6e7e8;}</style></defs><title>Asset 34</title><g id="Layer_2" data-name="Layer 2"><g id="Layer_1-2" data-name="Layer 1"><path class="cls-1" d="M12.94,15.72c-.88,4.11-2.14,6.73-7.33,6.73S0,19.82,0,18.27H4.41c0,.6.36,1.23,1.5,1.23s2-.72,2.43-2.93L8.47,16a4.21,4.21,0,0,1-3.33,1.23C2.45,17.21,1,15.29,1,12.48c0-3.72,2.35-7.9,6.45-7.9,1.78,0,2.8.61,3.13,1.33.11-.34.3-.82.39-1.06h4.33c-.23.91-.52,2.16-.8,3.51ZM5.67,12.31c0,1.14.46,1.83,1.47,1.83,1.37,0,2.17-1.53,2.59-3.45.34-1.59.35-3-1.34-3S5.67,10.52,5.67,12.31Z"/><path class="cls-1" d="M29.21,10.11c0,3.33-1.91,7.72-7.62,7.72-4.1,0-5.65-2.45-5.65-5.37,0-3.55,2.26-7.88,7.47-7.88C27,4.58,29.21,6.59,29.21,10.11Zm-8.68,2.73c0,1.3.48,2,1.42,2,1.91,0,2.68-3.75,2.68-5.38,0-1.21-.47-1.81-1.44-1.81C21.34,7.62,20.53,11.2,20.53,12.84Z"/><path class="cls-1" d="M30,17.56,33.68,0h4.5L34.47,17.56Z"/><path class="cls-1" d="M49.42,14.08c-.31,1.45-.61,2.92-.65,3.48H44.46a13.21,13.21,0,0,1,.14-1.32,4.33,4.33,0,0,1-3.74,1.59,3.25,3.25,0,0,1-3.54-3.32c0-3.33,2.64-4.56,6.06-4.89.95-.09,1.93-.11,2.62-.13l.11-.58c.16-.81.08-1.6-1.15-1.6S43.59,8,43.34,8.56H39c.5-2.08,2-4,6.28-4,3.92,0,5.89,1.59,5.2,4.81Zm-4-2.1a9.61,9.61,0,0,0-1.73.15c-1.37.25-1.84.79-1.84,1.55a1,1,0,0,0,1.17,1.05c1.68,0,2.08-1.34,2.33-2.44Z"/><path class="cls-1" d="M53.36,8.35c.34-1.64.54-2.58.69-3.5h4.43c0,.35-.14,1-.2,1.35A4.66,4.66,0,0,1,62,4.58c2.61,0,3.87,1.59,3.1,5.24l-1.64,7.74H59l1.62-7.7c.27-1.22,0-1.89-1-1.89s-1.84.78-2.23,2.64l-1.46,7h-4.5Z"/><path class="cls-1" d="M78.7,15.72c-.87,4.11-2.14,6.73-7.33,6.73s-5.58-2.63-5.61-4.18h4.41c0,.6.36,1.23,1.5,1.23,1.3,0,2-.72,2.43-2.93l.13-.59a4.21,4.21,0,0,1-3.33,1.23c-2.69,0-4.12-1.92-4.12-4.73,0-3.72,2.35-7.9,6.45-7.9,1.79,0,2.8.61,3.13,1.33.11-.34.3-.82.4-1.06h4.32c-.23.91-.51,2.16-.8,3.51Zm-7.27-3.41c0,1.14.47,1.83,1.47,1.83,1.37,0,2.17-1.53,2.59-3.45.34-1.59.36-3-1.33-3S71.43,10.52,71.43,12.31Z"/></g></g></svg>