<svg xmlns="http://www.w3.org/2000/svg" viewBox="0 0 76.31 26.83"><defs><style>.cls-1{fill:#e6e7e8;}</style></defs><title>Asset 28</title><g id="Layer_2" data-name="Layer 2"><g id="Layer_1-2" data-name="Layer 1"><path class="cls-1" d="M66.42,23.34v3.49h6.3a3.62,3.62,0,0,0,3.59-3.59V21.9a3.57,3.57,0,0,0-3.59-3.59H69.58V16.69H75.8V13.18h-6a3.68,3.68,0,0,0-3.61,3.65V18a3.61,3.61,0,0,0,3.61,3.59c4.34,0-1,0,3,0v1.69"/><path class="cls-1" d="M32.65,22.49S36,22.2,36,17.85a4.6,4.6,0,0,0-4.08-4.76H24.57V26.83h3.7V23.51l3.2,3.32H37Zm-1.43-2.81H28.27V16.54h3a1.55,1.55,0,0,1,.83,1.56A1.59,1.59,0,0,1,31.22,19.68Z"/><path class="cls-1" d="M45.16,13.18H41.4a3.61,3.61,0,0,0-3.58,3.59V26.83h3.75V24.42H45.1v2.41h3.64V16.77A3.56,3.56,0,0,0,45.16,13.18Zm-.06,7.35H41.55V17.19s0-.75,1.18-.75H44c1,0,1.06.75,1.06.75v3.34Z"/><rect class="cls-1" x="50.46" y="13.18" width="3.91" height="13.65"/><polygon class="cls-1" points="59.87 23.3 59.87 13.18 55.97 13.18 55.97 23.3 55.97 26.83 59.87 26.83 65.13 26.83 65.13 23.3 59.87 23.3"/><path class="cls-1" d="M1.35,26.83H16.58S13.67,13.55,23.3,8.17c2.1-1,8.79-4.84,19.74,3.26.35-.29.67-.52.67-.52S33.69.91,22.53,2C16.92,2.52,10,7.63,6,14.38A33.39,33.39,0,0,0,1.35,26.83Z"/><path class="cls-1" d="M1.35,26.83H16.58S13.67,13.55,23.3,8.17c2.1-1,8.79-4.84,19.74,3.26.35-.29.67-.52.67-.52S33.69.91,22.53,2C16.92,2.52,10,7.63,6,14.38A33.39,33.39,0,0,0,1.35,26.83Z"/><path class="cls-1" d="M1.35,26.83H16.58S13.67,13.55,23.3,8.17c2.1-1,8.79-4.84,19.74,3.26.35-.29.67-.52.67-.52S33.69.91,22.53,2C16.9,2.52,10,7.63,6,14.38A33,33,0,0,0,1.35,26.83Z"/><path class="cls-1" d="M33.07,3.1l.08-1.29a9.29,9.29,0,0,0-1.87-.67L31.2,2.41C31.84,2.62,32.46,2.85,33.07,3.1Z"/><path class="cls-1" d="M31.24,7.19,31.17,8.4a11.2,11.2,0,0,1,1.9.23l.08-1.19A13,13,0,0,0,31.24,7.19Z"/><path class="cls-1" d="M24.11,1.18h.19L23.92,0a14.72,14.72,0,0,0-1.85.12l.36,1.13A15.73,15.73,0,0,1,24.11,1.18Z"/><path class="cls-1" d="M25,8.27l.44,1.33a13.14,13.14,0,0,1,1.68-.68l-.43-1.27A13.93,13.93,0,0,0,25,8.27Z"/><path class="cls-1" d="M16.29,3.2l-.87-1.33c-.48.25-1,.52-1.5.83l.88,1.35C15.3,3.74,15.79,3.45,16.29,3.2Z"/><path class="cls-1" d="M20.24,11.87l.92,1.39a12,12,0,0,1,1.14-1.37l-.87-1.31A11,11,0,0,0,20.24,11.87Z"/><path class="cls-1" d="M17.44,18.08,19,19.31a16.13,16.13,0,0,1,.41-2.25L18,16A19.76,19.76,0,0,0,17.44,18.08Z"/><path class="cls-1" d="M9,8.92,7.63,7.73c-.5.48-1,1-1.42,1.44l1.48,1.28C8.1,9.93,8.54,9.41,9,8.92Z"/><path class="cls-1" d="M3.18,17.54,1,16.73C.6,17.56.19,18.52,0,19l2.22.81C2.47,19.2,2.87,18.25,3.18,17.54Z"/><path class="cls-1" d="M17.15,23a18.79,18.79,0,0,0,.24,2.43l2.31.83a22.42,22.42,0,0,1-.46-2.5Z"/></g></g></svg>