<svg xmlns="http://www.w3.org/2000/svg" viewBox="0 0 105.91 16.37"><defs><style>.cls-1{fill:#e6e7e8;}</style></defs><title>Asset 36</title><g id="Layer_2" data-name="Layer 2"><g id="Layer_1-2" data-name="Layer 1"><path class="cls-1" d="M105.91,15.44c0-.82,0-.86-.83-.83-.27,0-.53.05-.8.07a4.29,4.29,0,0,1-1.47,0,6.33,6.33,0,0,0,1.48-2.92,13.47,13.47,0,0,0,.3-1.87,15,15,0,0,0-.61-6.3A4.84,4.84,0,0,0,99.91.11,2,2,0,0,1,99.59,0H98.44a3,3,0,0,1-.88.24,4.63,4.63,0,0,0-3.33,2.84A13.1,13.1,0,0,0,94,12.35a5.06,5.06,0,0,0,5.35,3.75c2,0,4,0,5.92,0C105.75,16.11,105.92,15.93,105.91,15.44Zm-3.46-3.8a3.39,3.39,0,0,1-3.59,3A3,3,0,0,1,96.25,13a9,9,0,0,1-1-3.87A12.58,12.58,0,0,1,95.82,4a3.3,3.3,0,0,1,3.86-2.42,2.8,2.8,0,0,1,2.13,1.57,8.23,8.23,0,0,1,.88,3.54c0,.53,0,1.07,0,1.61A13.13,13.13,0,0,1,102.45,11.64Z"/><path class="cls-1" d="M14.83,7.63c0-.71-.27-1-1-1h-4c-.9,0-1.12-.22-1.12-1.11,0-1.42,0-2.84,0-4.25,0-.82-.24-1-1.07-1.06h-1c-.83,0-1.07.24-1.07,1.06,0,1.43,0,2.87,0,4.3,0,.32,0,.65-.28.84a2.16,2.16,0,0,1-1.82.14C3,6.43,3.05,5.9,3.05,5.46,3,4,3.05,2.59,3,1.15,3,.5,2.78.25,2.13.24H.81A.79.79,0,0,0,0,.69Q0,8.11,0,15.54c.14.44.5.48.88.48q6.5,0,13,0c.72,0,1-.26,1-1Q14.85,11.34,14.83,7.63ZM11.92,12a.75.75,0,0,1-.81.78H9.61A.75.75,0,0,1,8.8,12c0-.4,0-.8,0-1.2,0-.79.26-1,1-1h.58c1.48,0,1.55.07,1.55,1.55C11.94,11.55,11.94,11.78,11.92,12Z"/><path class="cls-1" d="M88.58,2.5c-.19.15-.2.37-.26.56-1.38,4.1-2.77,8.21-4.1,12.33-.21.65-.58.72-1.14.72s-.93-.1-1.14-.74c-1.32-4.1-2.7-8.19-4.07-12.28a1.38,1.38,0,0,0-.28-.62,1.12,1.12,0,0,0-.07.64c0,4.07,0,8.13,0,12.19,0,.25.13.61-.18.73a1.82,1.82,0,0,1-1.24,0c-.26-.09-.17-.4-.18-.62V1.1c0-.75,0-.76.78-.77,1.91,0,1.91,0,2.52,1.82L82.81,13a1.17,1.17,0,0,0,.27.59c.22-.14.22-.39.29-.59q2-6,4-11.94c.17-.5.39-.73.93-.69a12.51,12.51,0,0,0,1.5,0c.34,0,.5.15.49.49V15.3c0,.25.12.61-.19.73a1.74,1.74,0,0,1-1.23,0c-.28-.1-.18-.43-.18-.67,0-2.89,0-5.79,0-8.68,0-1.21,0-2.41,0-3.62C88.65,2.87,88.72,2.67,88.58,2.5Z"/><path class="cls-1" d="M27.35,15.6c-.37-1.74-.73-3.48-1.14-5.21a2.67,2.67,0,0,0-1.79-2l-.53-.21c.38-.15.71-.26,1-.4a3.27,3.27,0,0,0,1.75-1.66A3.94,3.94,0,0,0,23.75.45,26.71,26.71,0,0,0,18.94.26c-.86,0-.86,0-.86.82q0,6.93,0,13.85c0,1.24-.21,1.09,1.13,1.13.53,0,.68-.15.68-.68,0-1.93,0-3.87,0-5.8,0-.42.11-.6.55-.57s1.18,0,1.78.07a2.39,2.39,0,0,1,2.25,1.74,8.62,8.62,0,0,1,.29,1l.81,3.76c.05.21.06.49.39.47s.95.14,1.39-.11C27.39,15.9,27.38,15.71,27.35,15.6ZM23.84,7a7.59,7.59,0,0,1-3.65.56c-.3,0-.3-.22-.3-.44V4.62c0-.8,0-1.6,0-2.41,0-.34.11-.47.46-.47.82,0,1.64,0,2.46.08a2.35,2.35,0,0,1,2.35,1.83A2.89,2.89,0,0,1,23.84,7Z"/><path class="cls-1" d="M59,6.67a3.37,3.37,0,0,0-5-1A7.16,7.16,0,0,0,53,6.71V.87c0-.18.08-.45-.11-.53A2,2,0,0,0,51.66.29c-.36.08-.21.45-.21.7q0,5.16,0,10.34a12.29,12.29,0,0,0,.09,1.49A3.9,3.9,0,0,0,53,15.59,4.3,4.3,0,0,0,59.23,14a7.14,7.14,0,0,0,.63-3A8.49,8.49,0,0,0,59,6.67Zm-1.45,6.88a2.22,2.22,0,0,1-4.2-.18,5.44,5.44,0,0,1-.2-.72A7.33,7.33,0,0,1,53,11.16a8.53,8.53,0,0,1,.49-3,3.81,3.81,0,0,1,.5-1,1.9,1.9,0,0,1,3.45.3A7.61,7.61,0,0,1,57.54,13.55Z"/><path class="cls-1" d="M48.82,9.39a6.64,6.64,0,0,0-.93-2.93,3.35,3.35,0,0,0-5.2-.55,8.76,8.76,0,0,0-.64.91c0-.28,0-.47,0-.65v-5c0-.93,0-.91-1-.92-.44,0-.6.12-.59.58,0,2.3,0,4.6,0,6.9,0,1.41,0,2.83,0,4.25s.39,3,1.88,3.83a4.21,4.21,0,0,0,6.06-2.22A9.19,9.19,0,0,0,48.82,9.39Zm-1.72,1.8a5.77,5.77,0,0,1-.62,2.54A2.13,2.13,0,0,1,44.4,15a2.06,2.06,0,0,1-1.94-1.37A5.9,5.9,0,0,1,42,11.37,8.77,8.77,0,0,1,42.58,8a3.89,3.89,0,0,1,.54-1,1.91,1.91,0,0,1,3.34.34A7.4,7.4,0,0,1,47.1,11.19Z"/><path class="cls-1" d="M37.14,7.91A2.74,2.74,0,0,0,34.59,5a5.68,5.68,0,0,0-2.89.2,2.92,2.92,0,0,0-1.87,1.66c-.37.89-.24,1.07.69,1.07H31a.36.36,0,0,0,.38-.27,2.1,2.1,0,0,1,2.73-1.4,1.59,1.59,0,0,1,1.29,1.16,6.73,6.73,0,0,1,.18,2.05c0,.28-.17.36-.4.37s-.77,0-1.15,0a6,6,0,0,0-3.89,1.48,2.8,2.8,0,0,0-.63,3.08,2.43,2.43,0,0,0,2.17,1.8,4.16,4.16,0,0,0,3.94-1.6,7.69,7.69,0,0,1,0,.86c0,.45.16.59.56.55a4.51,4.51,0,0,1,.52,0c.32,0,.44-.12.44-.44C37.15,13.05,37.19,10.48,37.14,7.91ZM33.61,14.8a1.69,1.69,0,0,1-2.27-.57A1.83,1.83,0,0,1,32,11.86a4.66,4.66,0,0,1,2.67-.74c.19,0,.38,0,.57,0s.34.1.36.34A3.5,3.5,0,0,1,33.61,14.8Z"/><path class="cls-1" d="M70.5,3.42c0,.42,0,.85,0,1.26s.14.5.5.49c.65,0,1.31,0,2,0s.51.27.5.62.08.71-.49.68-1.34,0-2,0c-.31,0-.45.1-.44.43,0,2.14,0,4.29,0,6.43,0,1.3.83,1.84,2.27,1.64.18,0,.57-.3.53.17s.39,1-.38,1.11a5.66,5.66,0,0,1-2.17,0A2.09,2.09,0,0,1,69,14c0-1.78,0-3.56,0-5.34,0-.55,0-1.11,0-1.66s-.16-.56-.55-.52c-.21,0-.42,0-.63,0-.52.07-.63-.17-.64-.66s.14-.66.65-.65C69,5.18,69,5.16,69,4V3.67c0-1.08.22-1.4,1.23-1.83.26-.12.3,0,.3.2V3.42Z"/><path class="cls-1" d="M64.4,10.64c0,1.59,0,3.18,0,4.76,0,.55-.18.73-.69.66h-.29c-.45.05-.59-.16-.58-.6,0-1.68,0-3.37,0-5.05,0-1.53,0-3.06,0-4.6,0-.49.12-.73.64-.64h.17c.55-.09.77.09.75.7C64.37,7.46,64.4,9.05,64.4,10.64Z"/><path class="cls-1" d="M63.61,2.31c-1.12,0-1,.16-1-1s-.11-1,1-1,1-.12,1,1S64.8,2.29,63.61,2.31Z"/></g></g></svg>